<?xml version="1.0" encoding="UTF-8" standalone="no"?>
<svg width="77px" height="77px" viewBox="0 0 77 77" version="1.1" xmlns="http://www.w3.org/2000/svg" xmlns:xlink="http://www.w3.org/1999/xlink">
    <!-- Generator: Sketch 3.6.1 (26313) - http://www.bohemiancoding.com/sketch -->
    <title>aventura-partners-01</title>
    <desc>Created with Sketch.</desc>
    <defs>
        <path id="path-1" d="M74.8400277,0.160570381 L4.15512459e-05,0.160570381 L4.15512459e-05,75.2802951 L74.8400277,75.2802951 L74.8400277,0.160570381 Z"></path>
    </defs>
    <g id="kit" stroke="none" stroke-width="1" fill="none" fill-rule="evenodd">
        <g id="aventura-partners-01">
            <circle id="Oval-1" fill="#FFFFFF" cx="36.5" cy="37.5" r="34.5"></circle>
            <path d="M17.8179086,40.3477708 L36.0264958,8.46287235 L54.3287812,40.3477708 L44.755374,40.3477708 L44.755374,33.8000443 L45.9755263,33.8000443 L41.188615,29.0550853 L36.3080055,33.9898093 L37.5281579,33.9898093 L37.5281579,40.3477708 L32.3660388,40.3477708 L32.3662465,36.3622888 L35.4634765,36.5518453 L33.4453324,31.9019773 L34.5244183,32.3292613 L32.5536427,27.5843023 L33.3516343,27.9164953 L31.615,22.3175938 L29.9255263,27.9164953 L30.7702632,27.6318478 L28.7055817,32.2817158 L29.8318283,31.9019773 L27.7669391,36.5993908 L30.864169,36.3622888 L30.864169,40.3477708 L17.8179086,40.3477708 Z" id="Fill-1" fill="#00A2D3"></path>
            <path d="M39.6869114,40.3477916 L42.5026316,40.3477916 L42.5026316,35.5081587 L39.6869114,35.5081587 L39.6869114,40.3477916 Z" id="Fill-2" fill="#00A2D3"></path>
            <path d="M39.6869114,40.3477916 L42.5026316,40.3477916 L42.5026316,35.5081587 L39.6869114,35.5081587 L39.6869114,40.3477916 Z" id="Stroke-3" stroke="#00A2D3" stroke-width="0.216"></path>
            <path d="M53.0323823,43.604868 L53.0323823,44.7367849 L52.9378532,44.7367849 C52.8242105,44.4275305 52.6534349,44.1920968 52.4265651,44.0313179 C52.1984488,43.8707475 51.949349,43.7906708 51.6794737,43.7906708 C51.422687,43.7906708 51.2076593,43.8578185 51.0360526,43.9921137 C50.8642382,44.1270345 50.7427008,44.3155483 50.6716482,44.5566124 C50.6005956,44.7978851 50.564446,45.0458307 50.564446,45.2996154 C50.564446,45.6076185 50.6039197,45.8770431 50.6814127,46.1085147 C50.7597368,46.3397778 50.8858449,46.5109833 51.0595291,46.6192119 C51.2332133,46.7280662 51.4401385,46.7829103 51.6794737,46.7829103 C51.7623684,46.7829103 51.8483795,46.7743605 51.9356371,46.7580949 C52.0228947,46.7414123 52.1128532,46.717431 52.2046814,46.6859425 L52.2046814,46.0184285 C52.2046814,45.892266 52.1949169,45.8103126 52.1766343,45.7740279 C52.1579363,45.7371175 52.1190859,45.7033352 52.0604986,45.673932 C52.0021191,45.6436948 51.9310665,45.6286804 51.8483795,45.6286804 L51.7590443,45.6286804 L51.7590443,45.5406795 L53.4372992,45.5406795 L53.4372992,45.6286804 C53.3103601,45.635979 53.2210249,45.6526617 53.1715789,45.6764344 C53.1213019,45.7012498 53.0818283,45.7423308 53.0554432,45.7988433 C53.0404848,45.8282464 53.0323823,45.9020671 53.0323823,46.0184285 L53.0323823,46.6859425 C52.8119529,46.7764458 52.5815512,46.8460958 52.3438781,46.8925987 C52.1055817,46.93931 51.857313,46.9626657 51.6007341,46.9626657 C51.2741413,46.9626657 51.0011496,46.9209591 50.7852909,46.8383801 C50.5690166,46.7560096 50.3774654,46.6469468 50.2118837,46.512026 C50.0463019,46.3777308 49.9168698,46.2252932 49.8240028,46.0563815 C49.7045429,45.8392987 49.6449169,45.594898 49.6449169,45.325682 C49.6449169,44.8429282 49.8275346,44.4346206 50.1927701,44.1022191 C50.5580055,43.7698176 51.0173546,43.6027827 51.5704017,43.6027827 C51.7415928,43.6027827 51.8961634,43.6159202 52.0336981,43.6415698 C52.1084903,43.6536647 52.2298199,43.6895324 52.396856,43.7485472 C52.5640997,43.8077706 52.6627839,43.8369652 52.6939474,43.8369652 C52.7415235,43.8369652 52.7857756,43.8206996 52.8254571,43.7890026 C52.8659695,43.7568885 52.9037812,43.6949542 52.9378532,43.6057021 L53.0323823,43.604868 Z M46.966108,43.6786886 L48.6699169,45.6685102 L48.6699169,44.2894817 C48.6699169,44.0972143 48.6393767,43.9660471 48.5801662,43.8988995 C48.4991413,43.8077706 48.3622299,43.7637701 48.1704709,43.766481 L48.1704709,43.6793142 L49.3114681,43.6793142 L49.3114681,43.766481 C49.165,43.7835807 49.0667313,43.8061023 49.0172853,43.8338372 C48.9670083,43.861155 48.9279501,43.9070322 48.8994875,43.9689665 C48.8716482,44.0309008 48.857313,44.1385038 48.857313,44.2894817 L48.857313,46.9601633 L48.7708864,46.9601633 L46.4361219,44.2894817 L46.4361219,46.328517 C46.4361219,46.512026 46.482036,46.6371458 46.57241,46.7019995 C46.6629917,46.7662277 46.7672853,46.7991759 46.8840443,46.7991759 L46.966108,46.7991759 L46.966108,46.8863427 L45.740554,46.8863427 L45.740554,46.7991759 C45.9304432,46.7981332 46.063615,46.7614314 46.1373684,46.6909473 C46.2121607,46.6192119 46.2499723,46.4986799 46.2499723,46.328517 L46.2499723,44.0642661 L46.1768421,43.9791846 C46.1032964,43.8941032 46.0384765,43.8377993 45.9832133,43.8117327 C45.9269114,43.7848319 45.8456787,43.7689834 45.740554,43.766481 L45.740554,43.6793142 L46.966108,43.6786886 Z M45.5475485,46.7991759 L45.5467175,46.8863427 L43.7417313,46.8863427 L43.7417313,46.7991759 L43.8566205,46.7991759 C43.955928,46.7991759 44.0375762,46.7829103 44.0980332,46.7499621 C44.1427008,46.7280662 44.1763573,46.689279 44.1998338,46.6358946 C44.2185319,46.5987757 44.2282964,46.4986799 44.2282964,46.3376924 L44.2282964,44.2279645 C44.2282964,44.0642661 44.2185319,43.9612508 44.1998338,43.9201698 C44.1815512,43.8788803 44.1435319,43.8428041 44.0870222,43.8125668 C44.0303047,43.782121 43.9528116,43.766481 43.8566205,43.766481 L43.7417313,43.766481 L43.7417313,43.6793142 L45.5467175,43.6793142 L45.5467175,43.766481 L45.4322438,43.766481 C45.332313,43.766481 45.2512881,43.7829551 45.1904155,43.8159033 C45.1469945,43.8377993 45.1112604,43.8761694 45.0861219,43.9299709 C45.0678393,43.9677153 45.0580748,44.0671856 45.0580748,44.2279645 L45.0580748,46.3376924 C45.0580748,46.5011823 45.0678393,46.6041976 45.0869529,46.6452786 C45.106482,46.6867766 45.1453324,46.7230614 45.2018421,46.7532986 C45.2585596,46.7833274 45.3360526,46.7991759 45.4322438,46.7991759 L45.5475485,46.7991759 Z M43.4521191,45.7602647 L43.321856,46.8863427 L40.255374,46.8863427 L40.255374,46.7991759 L40.3698476,46.7991759 C40.4704017,46.7991759 40.5516343,46.7829103 40.6125069,46.7499621 C40.655928,46.7280662 40.690831,46.689279 40.7143075,46.6358946 C40.7321745,46.5987757 40.7415235,46.4986799 40.7415235,46.3376924 L40.7415235,44.2279645 C40.7415235,44.0642661 40.7321745,43.9612508 40.7143075,43.9201698 C40.6956094,43.8788803 40.65759,43.8428041 40.6010803,43.8125668 C40.5443629,43.782121 40.4668698,43.766481 40.3698476,43.766481 L40.255374,43.766481 L40.255374,43.6793142 L42.0963019,43.6793142 L42.0963019,43.766481 L41.9463019,43.766481 C41.8463712,43.766481 41.7653463,43.7829551 41.7044737,43.8159033 C41.6602216,43.8377993 41.6257341,43.8761694 41.6005956,43.9299709 C41.5818975,43.9677153 41.572133,44.0671856 41.572133,44.2279645 L41.572133,46.271796 C41.572133,46.4354944 41.5827285,46.540178 41.6024654,46.5850125 C41.62241,46.6298471 41.6629224,46.6640465 41.7223407,46.6859425 C41.7645152,46.6999142 41.8679778,46.7072129 42.030651,46.7072129 L42.3183934,46.7072129 C42.5014266,46.7072129 42.6543352,46.6769756 42.7764958,46.6171266 C42.898241,46.5576947 43.0048199,46.4628122 43.0933241,46.3337303 C43.1822438,46.2046484 43.2670083,46.0132152 43.3469945,45.7610988 L43.4521191,45.7602647 Z M39.9734488,45.7602647 L39.8436011,46.8863427 L36.7767036,46.8863427 L36.7767036,46.7991759 L36.8911773,46.7991759 C36.9915235,46.7991759 37.072964,46.7829103 37.1336288,46.7499621 C37.1772576,46.7280662 37.2119529,46.689279 37.2356371,46.6358946 C37.2532964,46.5987757 37.2630609,46.4986799 37.2630609,46.3376924 L37.2630609,44.2279645 C37.2630609,44.0642661 37.2532964,43.9612508 37.2356371,43.9201698 C37.2171468,43.8788803 37.1787119,43.8428041 37.12241,43.8125668 C37.0656925,43.782121 36.9879917,43.766481 36.8911773,43.766481 L36.7767036,43.766481 L36.7767036,43.6793142 L38.6176316,43.6793142 L38.6176316,43.766481 L38.4676316,43.766481 C38.3679086,43.766481 38.2866759,43.7829551 38.2260111,43.8159033 C38.181759,43.8377993 38.1470637,43.8761694 38.1217175,43.9299709 C38.1032271,43.9677153 38.0936704,44.0671856 38.0936704,44.2279645 L38.0936704,46.271796 C38.0936704,46.4354944 38.1040582,46.540178 38.1240028,46.5850125 C38.1437396,46.6298471 38.1846676,46.6640465 38.2436704,46.6859425 C38.2858449,46.6999142 38.3893075,46.7072129 38.5517729,46.7072129 L38.839723,46.7072129 C39.0225485,46.7072129 39.1760803,46.6769756 39.2978255,46.6171266 C39.4199861,46.5576947 39.5261496,46.4628122 39.6146537,46.3337303 C39.7035734,46.2046484 39.7887535,46.0132152 39.8687396,45.7610988 L39.9734488,45.7602647 Z M34.6224792,43.8630318 L34.6224792,45.1692823 L34.6910388,45.1692823 C34.9100139,45.1692823 35.0689474,45.1052626 35.1672161,44.977849 C35.2654848,44.8500183 35.3290582,44.661296 35.3558587,44.4125161 L35.4524654,44.4125161 L35.4524654,46.0918321 L35.3558587,46.0918321 C35.3357064,45.9093657 35.2929086,45.7590135 35.2278809,45.6424436 C35.1628532,45.5256651 35.0859834,45.4474652 34.9995568,45.4076354 C34.9129224,45.3675971 34.7866066,45.3471609 34.6224792,45.3471609 L34.6224792,46.2507342 C34.6224792,46.4269446 34.6305817,46.5357988 34.6461634,46.5747944 C34.6623684,46.6139986 34.6927008,46.6469468 34.7369529,46.6717623 C34.7814127,46.6961606 34.8530886,46.7092982 34.9505263,46.7092982 L35.1576593,46.7092982 C35.4798892,46.7092982 35.7387535,46.6400652 35.9323823,46.5011823 C36.1268421,46.3627164 36.2670776,46.1508469 36.3516343,45.8674506 L36.4461634,45.8674506 L36.2907618,46.8863427 L33.3061357,46.8863427 L33.3061357,46.7991759 L33.4208172,46.7991759 C33.5205402,46.7991759 33.6019806,46.7829103 33.6624377,46.7499621 C33.7068975,46.7280662 33.7407618,46.689279 33.764446,46.6358946 C33.7829363,46.5987757 33.7924931,46.4986799 33.7924931,46.3376924 L33.7924931,44.2279645 C33.7924931,44.0830341 33.7881302,43.993782 33.7800277,43.9608337 C33.7629917,43.905781 33.731205,43.8626147 33.6852909,43.833003 C33.6208864,43.7890026 33.5323823,43.766481 33.4208172,43.766481 L33.3061357,43.766481 L33.3061357,43.6793142 L36.1962327,43.6793142 L36.1962327,44.6275136 L36.0994183,44.6275136 C36.0505956,44.3962506 35.9809972,44.2292157 35.8922853,44.1291198 C35.8037812,44.0279814 35.6766343,43.953118 35.5139612,43.905781 C35.4194321,43.8778376 35.2403463,43.8630318 34.9787812,43.8630318 L34.6224792,43.8630318 Z M33.0134072,43.6786886 L33.0134072,44.547437 L32.9215789,44.547437 C32.8675623,44.3474539 32.8071053,44.203149 32.7412465,44.1159823 C32.6747645,44.0279814 32.5837673,43.9579143 32.4684626,43.905781 C32.4042659,43.8778376 32.2904155,43.8630318 32.1291967,43.8630318 L31.8719945,43.8630318 L31.8719945,46.3376924 C31.8719945,46.5011823 31.8823823,46.6041976 31.9014958,46.6452786 C31.9208172,46.6867766 31.9598753,46.7230614 32.0159695,46.7532986 C32.0722715,46.7833274 32.1508033,46.7991759 32.2488643,46.7991759 L32.363338,46.7991759 L32.363338,46.8863427 L30.555651,46.8863427 L30.555651,46.7991759 L30.6703324,46.7991759 C30.7700554,46.7991759 30.8512881,46.7829103 30.9119529,46.7499621 C30.9564127,46.7280662 30.9917313,46.689279 31.0168698,46.6358946 C31.0353601,46.5987757 31.0449169,46.4986799 31.0449169,46.3376924 L31.0449169,43.8630318 L30.7951939,43.8630318 C30.5631302,43.8630318 30.3929778,43.9091176 30.2880609,44.0002465 C30.1409695,44.1282857 30.0470637,44.3111691 30.0077978,44.547437 L29.9111911,44.547437 L29.9111911,43.6793142 L33.0134072,43.6786886 Z M29.2723407,43.604868 L29.3003878,44.6748506 L29.1963019,44.6748506 C29.1474792,44.4073028 29.0253186,44.1910541 28.833144,44.0279814 C28.6409695,43.8647001 28.431759,43.7829551 28.2077978,43.7829551 C28.0351524,43.7829551 27.8967867,43.8261215 27.7962327,43.912037 C27.6956787,43.9979526 27.6447784,44.0972143 27.6447784,44.2085709 C27.6447784,44.2792636 27.6632687,44.3432832 27.698795,44.3983359 C27.7476177,44.4723651 27.8273961,44.5457687 27.9354294,44.6177126 C28.015,44.6698458 28.199903,44.7628515 28.4878532,44.8950614 C28.8915235,45.079196 29.1651385,45.2543637 29.3055817,45.417645 C29.4445706,45.5815519 29.5139612,45.7692316 29.5139612,45.980684 C29.5139612,46.2486489 29.4015651,46.4799119 29.1767729,46.6730135 C28.9523961,46.866115 28.6654848,46.9626657 28.3193629,46.9626657 C28.2115374,46.9626657 28.1082825,46.9524476 28.0120914,46.9315943 C27.9154848,46.9111581 27.7933241,46.8721624 27.647687,46.8154415 C27.5664543,46.7841615 27.4983102,46.768313 27.4467867,46.768313 C27.4023269,46.768313 27.3551662,46.7841615 27.3063435,46.8154415 C27.2575208,46.847347 27.2170083,46.8953096 27.1864681,46.9601633 L27.0927701,46.9601633 L27.0927701,45.7487954 L27.1864681,45.7487954 C27.2612604,46.0893297 27.4054432,46.3495788 27.6181856,46.528083 C27.830928,46.7072129 28.0617452,46.7972991 28.3068975,46.7972991 C28.4967867,46.7972991 28.6492798,46.749128 28.7614681,46.6529943 C28.8738643,46.5568606 28.9307895,46.4440443 28.9307895,46.3166306 C28.9307895,46.2409332 28.9093906,46.1675296 28.866385,46.0966283 C28.823795,46.0261442 28.7571053,45.9581625 28.6690166,45.894977 C28.5805125,45.8311659 28.4236565,45.7471271 28.199903,45.6449459 C27.8863989,45.5016838 27.6603601,45.3786494 27.5228255,45.278345 C27.3852909,45.177415 27.2797507,45.0641816 27.2057895,44.939896 C27.1318283,44.8158189 27.0948476,44.6783957 27.0948476,44.528669 C27.0948476,44.2732161 27.1962327,44.0548821 27.397964,43.8757523 C27.5994875,43.6957884 27.8548199,43.6057021 28.1618837,43.6057021 C28.2736565,43.6057021 28.383144,43.6186312 28.4878532,43.6436551 C28.5678393,43.6617975 28.6654848,43.6976651 28.7793352,43.7485472 C28.8938089,43.7996378 28.9744183,43.8257044 29.0201247,43.8257044 C29.0637535,43.8257044 29.0992798,43.8125668 29.1244183,43.7877514 C29.1497645,43.762936 29.1738643,43.7018358 29.1963019,43.6057021 L29.2723407,43.604868 Z M24.8113989,43.7848319 C24.4949861,43.7848319 24.2539889,43.9351842 24.0898615,44.2348461 C23.9562742,44.4804979 23.8889612,44.8347954 23.8889612,45.2950276 C23.8889612,45.841384 23.9924238,46.2465635 24.1991413,46.5080639 C24.3433241,46.6909473 24.5458864,46.7829103 24.805374,46.7829103 C24.9798892,46.7829103 25.1269806,46.7430805 25.2437396,46.6648807 C25.3929086,46.5637422 25.5098753,46.4017121 25.5925623,46.1806671 C25.6754571,45.9594137 25.7176316,45.6697614 25.7176316,45.3133785 C25.7176316,44.8898481 25.674626,44.5718353 25.5904848,44.3616341 C25.5053047,44.1514329 25.396856,44.0027489 25.2653463,43.9159992 C25.1334211,43.8296665 24.9819668,43.7856661 24.8105679,43.7856661 L24.8113989,43.7848319 Z M24.7802355,43.6338541 C25.330374,43.6155032 25.7774654,43.7646042 26.1204709,44.0809487 C26.4643075,44.3983359 26.6363296,44.7949656 26.6363296,45.2710463 C26.6363296,45.6772686 26.5077285,46.0363623 26.2519806,46.3456167 C25.9127147,46.7545498 25.4330055,46.9601633 24.8134765,46.9601633 C24.1927008,46.9601633 23.7117452,46.7641424 23.3716482,46.3735601 C23.1040582,46.0645143 22.9696399,45.6979133 22.9696399,45.2735487 C22.9696399,44.7970509 23.1439474,44.3995871 23.4927701,44.0821999 C23.8415928,43.7650213 24.2710249,43.6155032 24.7802355,43.6338541 L24.7802355,43.6338541 Z M20.1352216,45.34445 L20.1352216,46.3376924 C20.1352216,46.5011823 20.1447784,46.6041976 20.1643075,46.6452786 C20.1834211,46.6867766 20.2224792,46.7230614 20.2785734,46.7532986 C20.3354986,46.7833274 20.4131994,46.7991759 20.5093906,46.7991759 L20.6238643,46.7991759 L20.6238643,46.8863427 L18.8190859,46.8863427 L18.8190859,46.7991759 L18.9337673,46.7991759 C19.0332825,46.7991759 19.1145152,46.7829103 19.1753878,46.7499621 C19.2196399,46.7280662 19.2537119,46.689279 19.2771884,46.6358946 C19.2956787,46.5987757 19.3054432,46.4986799 19.3054432,46.3376924 L19.3054432,44.2279645 C19.3054432,44.0642661 19.2956787,43.9612508 19.2771884,43.9201698 C19.2589058,43.8788803 19.2204709,43.8428041 19.164169,43.8125668 C19.1072438,43.782121 19.0295429,43.766481 18.9337673,43.766481 L18.8190859,43.766481 L18.8190859,43.6793142 L20.6238643,43.6793142 L20.6238643,43.766481 L20.5093906,43.766481 C20.4094598,43.766481 20.3282271,43.7829551 20.2677701,43.8159033 C20.2231025,43.8377993 20.188615,43.8761694 20.1634765,43.9299709 C20.1447784,43.9677153 20.1352216,44.0671856 20.1352216,44.2279645 L20.1352216,45.1363341 L21.3549584,45.1363341 L21.3549584,44.2279645 C21.3549584,44.0642661 21.3454017,43.9612508 21.3269114,43.9201698 C21.3084211,43.8788803 21.2699861,43.8428041 21.2122299,43.8125668 C21.1546814,43.782121 21.0769806,43.766481 20.9809972,43.766481 L20.8686011,43.766481 L20.8686011,43.6793142 L22.6713019,43.6793142 L22.6713019,43.766481 L22.5597368,43.766481 C22.4579363,43.766481 22.3773269,43.7829551 22.3181163,43.8159033 C22.2736565,43.8377993 22.238338,43.8761694 22.2131994,43.9299709 C22.1945014,43.9677153 22.1849446,44.0671856 22.1849446,44.2279645 L22.1849446,46.3376924 C22.1849446,46.5011823 22.1945014,46.6041976 22.2131994,46.6452786 C22.231482,46.6867766 22.2701247,46.7230614 22.3276731,46.7532986 C22.3852216,46.7833274 22.4629224,46.7991759 22.5597368,46.7991759 L22.6713019,46.7991759 L22.6713019,46.8863427 L20.8686011,46.8863427 L20.8686011,46.7991759 L20.9809972,46.7991759 C21.0821745,46.7991759 21.163615,46.7829103 21.2226177,46.7499621 C21.2670776,46.7280662 21.3017729,46.689279 21.3269114,46.6358946 C21.3454017,46.5987757 21.3549584,46.4986799 21.3549584,46.3376924 L21.3549584,45.34445 L20.1352216,45.34445 Z" id="Fill-4" fill="#4A4A4A"></path>
            <path d="M58.3386842,51.597144 L58.2071745,52.723222 L55.107867,52.723222 L55.107867,52.6360552 L55.2235873,52.6360552 C55.3249723,52.6360552 55.4074515,52.6193726 55.4687396,52.5864244 C55.5129917,52.5645284 55.547687,52.5261583 55.5717867,52.4723568 C55.5896537,52.4354465 55.5994183,52.3351421 55.5994183,52.1747803 L55.5994183,50.0644267 C55.5994183,49.9011454 55.5896537,49.7981301 55.5717867,49.7570491 C55.5530886,49.7159681 55.514446,49.6792663 55.4577285,49.6490291 C55.3999723,49.6190003 55.321856,49.6029433 55.2235873,49.6029433 L55.107867,49.6029433 L55.107867,49.515985 L56.9687396,49.515985 L56.9687396,49.6029433 L56.8170776,49.6029433 C56.716108,49.6029433 56.6340443,49.6198344 56.5727562,49.6527827 C56.5276731,49.6746786 56.4927701,49.7130487 56.4672161,49.7664331 C56.448518,49.8041776 56.4387535,49.9040649 56.4387535,50.0644267 L56.4387535,52.1086753 C56.4387535,52.2719567 56.449349,52.3770573 56.4697091,52.4218919 C56.4900693,52.4663094 56.5309972,52.5005088 56.5906233,52.5224047 C56.6332133,52.5363765 56.7379224,52.5440922 56.9022576,52.5440922 L57.1927008,52.5440922 C57.3778116,52.5440922 57.5327978,52.5138549 57.6557895,52.4540059 C57.7791967,52.394157 57.8866066,52.2996915 57.9763573,52.1706096 C58.0665235,52.0415277 58.1521191,51.8496774 58.2327285,51.5979781 L58.3386842,51.597144 Z M53.3086981,51.635097 L52.7884765,50.530915 L52.2532964,51.6355141 L53.3086981,51.635097 Z M53.3959557,51.8098476 L52.1635457,51.8104732 L52.0162465,52.1226471 C51.9684626,52.2269135 51.9445706,52.3132462 51.9445706,52.3808109 C51.9445706,52.470063 51.9842521,52.5363765 52.0625762,52.5791257 C52.1089058,52.6035241 52.2233795,52.6235432 52.4051662,52.6360552 L52.4051662,52.723222 L51.2446399,52.723222 L51.2446399,52.6360552 C51.3690859,52.6185384 51.4725485,52.5705759 51.5529501,52.4932101 C51.6337673,52.4150103 51.7339058,52.2536058 51.8519114,52.0089966 L53.1001108,49.449463 L53.1489335,49.449463 L54.4075208,52.0796893 C54.5271884,52.3290947 54.6267036,52.4863285 54.7033657,52.5509738 C54.7617452,52.5995619 54.8446399,52.6283395 54.9508033,52.6360552 L54.9508033,52.723222 L53.2623684,52.723222 L53.2623684,52.6360552 L53.331759,52.6360552 C53.4670083,52.6360552 53.5627839,52.6181214 53.6172161,52.583922 C53.6544044,52.5591065 53.6739335,52.5221962 53.6739335,52.4752763 C53.6739335,52.4471243 53.6687396,52.4179297 53.6585596,52.3872754 C53.6552355,52.3739293 53.6288504,52.3140803 53.581482,52.2100224 L53.3959557,51.8098476 Z M48.7089751,49.5151509 L50.4310665,51.505181 L50.4310665,50.126361 C50.4310665,49.9340936 50.4001108,49.8029264 50.3404848,49.7357788 C50.2582133,49.6442328 50.1200554,49.6002323 49.9258033,49.6029433 L49.9258033,49.515985 L51.0794737,49.515985 L51.0794737,49.6029433 C50.9313435,49.6202515 50.8322438,49.6429816 50.7819668,49.6702994 C50.7312742,49.6980343 50.691385,49.7439116 50.6631302,49.8058458 C50.6346676,49.8673631 50.6205402,49.9753831 50.6205402,50.126361 L50.6205402,52.7966256 L50.5332825,52.7966256 L48.1731717,50.126361 L48.1731717,52.1649792 C48.1731717,52.3489053 48.2195014,52.4740251 48.3109141,52.5384618 C48.4025346,52.603107 48.5080748,52.6360552 48.6260803,52.6360552 L48.7089751,52.6360552 L48.7089751,52.723222 L47.4701247,52.723222 L47.4701247,52.6360552 C47.6622992,52.6345955 47.7967175,52.5983107 47.8713019,52.5274095 C47.9469252,52.4560913 47.9849446,52.3351421 47.9849446,52.1649792 L47.9849446,49.9011454 L47.9111911,49.816064 C47.8372299,49.7309825 47.7715789,49.6746786 47.7150693,49.6481949 C47.6583518,49.6217112 47.5762881,49.6058627 47.4701247,49.6029433 L47.4701247,49.515985 L48.7089751,49.5151509 Z M45.3632687,49.6217112 C45.0435319,49.6217112 44.8000416,49.7720635 44.6340443,50.0715168 C44.4990028,50.3173772 44.4312742,50.6718832 44.4312742,51.1316984 C44.4312742,51.6782633 44.5355679,52.0834429 44.7447784,52.3449432 C44.8906233,52.5274095 45.0950554,52.6193726 45.3572438,52.6193726 C45.5336288,52.6193726 45.6821745,52.5795428 45.8003878,52.5013429 C45.9512188,52.400413 46.0692244,52.2381743 46.1529501,52.0175464 C46.2364681,51.796293 46.2790582,51.5066407 46.2790582,51.1502579 C46.2790582,50.7263103 46.2356371,50.4087146 46.1508726,50.1985134 C46.0648615,49.9883122 45.9549584,49.8392111 45.8217867,49.7528785 C45.6890305,49.6661288 45.5357064,49.6221283 45.3624377,49.6221283 L45.3632687,49.6217112 Z M45.3321053,49.4707334 C45.8874377,49.4519654 46.3395152,49.6010665 46.6864681,49.917411 C47.0338366,50.2347982 47.2079363,50.6318449 47.2079363,51.1075086 C47.2079363,51.5141479 47.0776731,51.8732416 46.8196399,52.182079 C46.4762188,52.5914292 45.9917313,52.7966256 45.3657618,52.7966256 C44.7379224,52.7966256 44.2517729,52.6010217 43.908144,52.2100224 C43.6374377,51.9013936 43.5015651,51.5343756 43.5015651,51.1104281 C43.5015651,50.6339302 43.6781579,50.2364664 44.0307202,49.9190792 C44.3832825,49.6019006 44.8170776,49.4519654 45.3321053,49.4707334 L45.3321053,49.4707334 Z M43.1749723,52.6360552 L43.1745568,52.723222 L41.3498338,52.723222 L41.3498338,52.6360552 L41.4657618,52.6360552 C41.5669391,52.6360552 41.648795,52.6193726 41.7100831,52.5864244 C41.7551662,52.5645284 41.7892382,52.5261583 41.8131302,52.4723568 C41.8318283,52.4354465 41.8415928,52.3351421 41.8415928,52.1747803 L41.8415928,50.0644267 C41.8415928,49.9011454 41.8318283,49.7981301 41.8131302,49.7570491 C41.7944321,49.7159681 41.7555817,49.6792663 41.6986565,49.6490291 C41.6415235,49.6190003 41.5627839,49.6029433 41.4657618,49.6029433 L41.3498338,49.6029433 L41.3498338,49.515985 L43.1745568,49.515985 L43.1745568,49.6029433 L43.0584211,49.6029433 C42.9574515,49.6029433 42.8753878,49.6198344 42.8140997,49.6527827 C42.7700554,49.6746786 42.7343213,49.7130487 42.7087673,49.7664331 C42.6900693,49.8041776 42.6803047,49.9040649 42.6803047,50.0644267 L42.6803047,52.1747803 C42.6803047,52.3380616 42.6900693,52.4410769 42.7095983,52.4821579 C42.7289197,52.5232389 42.7688089,52.5595236 42.8255263,52.590178 C42.882867,52.6202067 42.9613989,52.6360552 43.0584211,52.6360552 L43.1749723,52.6360552 Z M41.0539889,49.5151509 L41.0539889,50.3838992 L40.9615374,50.3838992 C40.9066898,50.1843332 40.8454017,50.0400284 40.7793352,49.9524445 C40.7118144,49.8648607 40.6201939,49.7947936 40.5032271,49.7426604 C40.4384072,49.7142999 40.3231025,49.6999111 40.1604294,49.6999111 L39.9003186,49.6999111 L39.9003186,52.1747803 C39.9003186,52.3380616 39.9109141,52.4410769 39.9304432,52.4821579 C39.9497645,52.5232389 39.9896537,52.5595236 40.0459557,52.590178 C40.1028809,52.6202067 40.1824515,52.6360552 40.2813435,52.6360552 L40.3974792,52.6360552 L40.3974792,52.723222 L38.5700554,52.723222 L38.5700554,52.6360552 L38.6857756,52.6360552 C38.7869529,52.6360552 38.8688089,52.6193726 38.930097,52.5864244 C38.9751801,52.5645284 39.0109141,52.5261583 39.0364681,52.4723568 C39.0547507,52.4354465 39.0645152,52.3351421 39.0645152,52.1747803 L39.0645152,49.6999111 L38.8120914,49.6999111 C38.5775346,49.6999111 38.4057202,49.7459969 38.2995568,49.8373343 C38.1510111,49.965165 38.0560665,50.1476314 38.016385,50.3838992 L37.9187396,50.3838992 L37.9187396,49.515985 L41.0539889,49.5151509 Z M36.4181163,51.635097 L35.8983102,50.530915 L35.3627147,51.6355141 L36.4181163,51.635097 Z M36.5057895,51.8098476 L35.2731717,51.8104732 L35.1258726,52.1226471 C35.0780886,52.2269135 35.0541967,52.3132462 35.0541967,52.3808109 C35.0541967,52.470063 35.0938781,52.5363765 35.1722022,52.5791257 C35.2185319,52.6035241 35.3327978,52.6235432 35.5145845,52.6360552 L35.5145845,52.723222 L34.3542659,52.723222 L34.3542659,52.6360552 C34.4789197,52.6185384 34.5819668,52.5705759 34.6627839,52.4932101 C34.7433934,52.4150103 34.8435319,52.2536058 34.9615374,52.0089966 L36.2099446,49.449463 L36.2585596,49.449463 L37.5171468,52.0796893 C37.6368144,52.3290947 37.7361219,52.4863285 37.8131994,52.5509738 C37.8713712,52.5995619 37.9542659,52.6283395 38.0604294,52.6360552 L38.0604294,52.723222 L36.3719945,52.723222 L36.3719945,52.6360552 L36.441385,52.6360552 C36.5766343,52.6360552 36.67241,52.6181214 36.7268421,52.583922 C36.7642382,52.5591065 36.7837673,52.5221962 36.7837673,52.4752763 C36.7837673,52.4471243 36.7783657,52.4179297 36.7679778,52.3872754 C36.7648615,52.3739293 36.7386842,52.3140803 36.6909003,52.2100224 L36.5057895,51.8098476 Z M31.8186011,49.5151509 L33.5404848,51.505181 L33.5404848,50.126361 C33.5404848,49.9340936 33.5099446,49.8029264 33.449903,49.7357788 C33.3678393,49.6442328 33.2296814,49.6002323 33.0354294,49.6029433 L33.0354294,49.515985 L34.188892,49.515985 L34.188892,49.6029433 C34.0409695,49.6202515 33.941662,49.6429816 33.8915928,49.6702994 C33.8409003,49.6980343 33.8010111,49.7439116 33.7727562,49.8058458 C33.7442936,49.8673631 33.7301662,49.9753831 33.7301662,50.126361 L33.7301662,52.7966256 L33.6427008,52.7966256 L31.2830055,50.126361 L31.2830055,52.1649792 C31.2830055,52.3489053 31.3293352,52.4740251 31.4203324,52.5384618 C31.5121607,52.603107 31.6174931,52.6360552 31.7354986,52.6360552 L31.8186011,52.6360552 L31.8186011,52.723222 L30.5797507,52.723222 L30.5797507,52.6360552 C30.7719252,52.6345955 30.9063435,52.5983107 30.980928,52.5274095 C31.0565512,52.4560913 31.0945706,52.3351421 31.0945706,52.1649792 L31.0945706,49.9011454 L31.0206094,49.816064 C30.9466482,49.7309825 30.8809972,49.6746786 30.824903,49.6481949 C30.7681856,49.6217112 30.6861219,49.6058627 30.5797507,49.6029433 L30.5797507,49.515985 L31.8186011,49.5151509 Z M28.098518,49.6882333 L28.098518,51.0937454 L28.2449861,51.0937454 C28.4832825,51.0937454 28.6619529,51.0733092 28.7799584,51.0334794 C28.897964,50.9934411 28.9920776,50.920246 29.0593906,50.8159795 C29.1273269,50.711296 29.1616066,50.5740813 29.1616066,50.404961 C29.1616066,50.1605604 29.0988643,49.9801794 28.9748338,49.8634009 C28.8508033,49.746831 28.649903,49.6882333 28.3735873,49.6882333 L28.098518,49.6882333 Z M28.098518,51.2616145 L28.098518,52.1608086 C28.098518,52.3338909 28.1105679,52.4431622 28.1327978,52.4877883 C28.1560665,52.5330399 28.1972022,52.5693247 28.2555817,52.5953913 C28.3137535,52.622292 28.4228255,52.6360552 28.5819668,52.6360552 L28.5819668,52.723222 L26.7958864,52.723222 L26.7958864,52.6360552 C26.957313,52.6360552 27.0672161,52.622292 27.1239335,52.5949742 C27.1812742,52.5672393 27.22241,52.5311631 27.2448476,52.4871627 C27.2681163,52.4431622 27.2799584,52.3338909 27.2799584,52.1608086 L27.2799584,50.0792326 C27.2799584,49.9061502 27.2681163,49.7960448 27.2454709,49.7512102 C27.22241,49.7061671 27.1812742,49.6698824 27.1231025,49.6438157 C27.064723,49.616915 26.955651,49.6029433 26.7958864,49.6029433 L26.7958864,49.515985 L28.4176316,49.515985 C28.8397922,49.515985 29.1489335,49.5426773 29.3440166,49.5960617 C29.539723,49.6498632 29.6996953,49.7489164 29.8228947,49.8930126 C29.9460942,50.0373174 30.0082133,50.2066462 30.0082133,50.4005819 C30.0082133,50.6368497 29.915554,50.8330792 29.7302355,50.9873936 C29.6122299,51.0847785 29.4456094,51.1583906 29.2334903,51.2073959 L30.07241,52.29281 C30.1821053,52.4329441 30.2606371,52.5213621 30.3069668,52.5555615 C30.3773961,52.6043582 30.4586288,52.631676 30.5512881,52.6360552 L30.5512881,52.723222 L29.4524654,52.723222 L28.3272576,51.2616145 L28.098518,51.2616145 Z M24.6186011,49.6999111 L24.6186011,51.0061616 L24.6879917,51.0061616 C24.9092521,51.0061616 25.0698476,50.942142 25.1691551,50.8143113 C25.2684626,50.6868976 25.332867,50.4979668 25.3596676,50.2493955 L25.4575208,50.2493955 L25.4575208,51.9287114 L25.3596676,51.9287114 C25.3395152,51.7462451 25.2963019,51.5954757 25.2304432,51.4791143 C25.1647922,51.3625444 25.0870914,51.2839275 24.999626,51.2445148 C24.9123684,51.2044764 24.7845983,51.1838317 24.6186011,51.1838317 L24.6186011,52.0876135 C24.6186011,52.2638239 24.6269114,52.372261 24.6427008,52.4112567 C24.6591136,52.4504609 24.6896537,52.4834091 24.7345291,52.5082245 C24.7791967,52.5330399 24.8517036,52.5461775 24.9501801,52.5461775 L25.1593906,52.5461775 C25.4851524,52.5461775 25.7467175,52.4769446 25.9424238,52.3380616 C26.1389612,52.1991787 26.2808587,51.9877262 26.3660388,51.7043299 L26.4616066,51.7043299 L26.3047507,52.723222 L23.2881302,52.723222 L23.2881302,52.6360552 L23.4040582,52.6360552 C23.5050277,52.6360552 23.5870914,52.6193726 23.6483795,52.5864244 C23.6932548,52.5645284 23.7275346,52.5261583 23.7514266,52.4723568 C23.7701247,52.4354465 23.7796814,52.3351421 23.7796814,52.1747803 L23.7796814,50.0644267 C23.7796814,49.9194963 23.7753186,49.8302442 23.7670083,49.797296 C23.7499723,49.7426604 23.7177701,49.699077 23.6714404,49.6698824 C23.6064127,49.6258819 23.5168698,49.6029433 23.4040582,49.6029433 L23.2881302,49.6029433 L23.2881302,49.515985 L26.2091828,49.515985 L26.2091828,50.4639759 L26.1113296,50.4639759 C26.0618837,50.2327128 25.9918698,50.066095 25.9023269,49.9655821 C25.8123684,49.8648607 25.6839751,49.7899973 25.5196399,49.7426604 C25.424072,49.7142999 25.2431163,49.6999111 24.9786427,49.6999111 L24.6186011,49.6999111 Z M22.9920776,49.5151509 L22.9920776,50.3838992 L22.8994183,50.3838992 C22.8449861,50.1843332 22.7836981,50.0400284 22.7174238,49.9524445 C22.649903,49.8648607 22.5580748,49.7947936 22.4415235,49.7426604 C22.3764958,49.7142999 22.2616066,49.6999111 22.0987258,49.6999111 L21.8388227,49.6999111 L21.8388227,52.1747803 C21.8388227,52.3380616 21.8492105,52.4410769 21.8685319,52.4821579 C21.8880609,52.5232389 21.9275346,52.5595236 21.9842521,52.590178 C22.0409695,52.6202067 22.1203324,52.6360552 22.2196399,52.6360552 L22.3353601,52.6360552 L22.3353601,52.723222 L20.5083518,52.723222 L20.5083518,52.6360552 L20.624072,52.6360552 C20.7248338,52.6360552 20.8071053,52.6193726 20.8683934,52.5864244 C20.9130609,52.5645284 20.9490028,52.5261583 20.9745568,52.4723568 C20.9930471,52.4354465 21.0026039,52.3351421 21.0026039,52.1747803 L21.0026039,49.6999111 L20.7503878,49.6999111 C20.5156233,49.6999111 20.3440166,49.7459969 20.2378532,49.8373343 C20.0890997,49.965165 19.9941551,50.1476314 19.9546814,50.3838992 L19.8568283,50.3838992 L19.8568283,49.515985 L22.9920776,49.5151509 Z M17.17241,49.5151509 L18.8942936,51.505181 L18.8942936,50.126361 C18.8942936,49.9340936 18.8637535,49.8029264 18.8041274,49.7357788 C18.721856,49.6442328 18.5834903,49.6002323 18.3892382,49.6029433 L18.3892382,49.515985 L19.5429086,49.515985 L19.5429086,49.6029433 C19.3949861,49.6202515 19.2954709,49.6429816 19.2454017,49.6702994 C19.1947091,49.6980343 19.1552355,49.7439116 19.1267729,49.8058458 C19.0983102,49.8673631 19.0841828,49.9753831 19.0841828,50.126361 L19.0841828,52.7966256 L18.9967175,52.7966256 L16.6366066,50.126361 L16.6366066,52.1649792 C16.6366066,52.3489053 16.683144,52.4740251 16.774349,52.5384618 C16.8661773,52.603107 16.9715097,52.6360552 17.0895152,52.6360552 L17.17241,52.6360552 L17.17241,52.723222 L15.9337673,52.723222 L15.9337673,52.6360552 C16.1257341,52.6345955 16.2603601,52.5983107 16.3349446,52.5274095 C16.4105679,52.4560913 16.4483795,52.3351421 16.4483795,52.1649792 L16.4483795,49.9011454 L16.374626,49.816064 C16.3006648,49.7309825 16.2348061,49.6746786 16.1789197,49.6481949 C16.1219945,49.6217112 16.0399307,49.6058627 15.9337673,49.6029433 L15.9337673,49.515985 L17.17241,49.5151509 Z M15.7386842,52.6360552 L15.7378532,52.723222 L13.9137535,52.723222 L13.9137535,52.6360552 L14.0294737,52.6360552 C14.1304432,52.6360552 14.2125069,52.6193726 14.2735873,52.5864244 C14.3186704,52.5645284 14.3527424,52.5261583 14.3768421,52.4723568 C14.3953324,52.4354465 14.405097,52.3351421 14.405097,52.1747803 L14.405097,50.0644267 C14.405097,49.9011454 14.3953324,49.7981301 14.3768421,49.7570491 C14.358144,49.7159681 14.3192936,49.6792663 14.2625762,49.6490291 C14.2050277,49.6190003 14.1264958,49.6029433 14.0294737,49.6029433 L13.9137535,49.6029433 L13.9137535,49.515985 L15.7378532,49.515985 L15.7378532,49.6029433 L15.622133,49.6029433 C15.5211634,49.6029433 15.438892,49.6198344 15.3778116,49.6527827 C15.3337673,49.6746786 15.2978255,49.7130487 15.2724792,49.7664331 C15.2537812,49.8041776 15.2440166,49.9040649 15.2440166,50.0644267 L15.2440166,52.1747803 C15.2440166,52.3380616 15.2537812,52.4410769 15.2731025,52.4821579 C15.2926316,52.5232389 15.3321053,52.5595236 15.3888227,52.590178 C15.4465789,52.6202067 15.524903,52.6360552 15.622133,52.6360552 L15.7386842,52.6360552 Z" id="Fill-6" fill="#4A4A4A"></path>
            <g id="Group-10" transform="translate(1.000000, 0.047963)">
                <mask id="mask-2" fill="white">
                    <use xlink:href="#path-1"></use>
                </mask>
                <g id="Clip-9"></g>
                <path d="M37.4200554,0.160466114 C58.0305125,0.160466114 74.8400693,17.0330766 74.8400693,37.7203806 C74.8400693,58.4078931 58.0305125,75.2802951 37.4200554,75.2802951 C16.8098061,75.2802951 4.15512459e-05,58.4078931 4.15512459e-05,37.7203806 C4.15512459e-05,17.0330766 16.8098061,0.160466114 37.4200554,0.160466114 M66.3785734,35.4555041 C66.3785734,52.7124408 52.3562742,66.7871646 35.163615,66.7871646 C17.9711634,66.7871646 3.94886427,52.7124408 3.94886427,35.4555041 C3.94886427,18.1987759 17.9711634,4.12405213 35.163615,4.12405213 C52.3562742,4.12405213 66.3785734,18.1987759 66.3785734,35.4555041 Z" id="Fill-8" fill="#F17E00" mask="url(#mask-2)"></path>
            </g>
            <path d="M41.0174238,9.65288655 C42.0541274,9.65288655 42.899903,10.5016157 42.899903,11.5426123 C42.899903,12.5831917 42.0541274,13.4319209 41.0174238,13.4319209 C39.9803047,13.4319209 39.1345291,12.5831917 39.1345291,11.5426123 C39.1345291,10.5016157 39.9803047,9.65288655 41.0174238,9.65288655 M41.0174238,9.82471771 C41.9600139,9.82471771 42.7285042,10.5962897 42.7285042,11.5426123 C42.7285042,12.4885178 41.9600139,13.2600897 41.0174238,13.2600897 C40.0748338,13.2600897 39.305928,12.4885178 39.305928,11.5426123 C39.305928,10.5962897 40.0748338,9.82471771 41.0174238,9.82471771" id="Fill-11" fill="#00A2D3"></path>
            <path d="M40.5617313,11.326447 L40.8843767,11.326447 C41.093795,11.326447 41.2246814,11.3178971 41.2766205,11.3003804 C41.3285596,11.2826551 41.3696953,11.2517922 41.3991967,11.2082088 C41.4284903,11.1648339 41.4434488,11.1108239 41.4434488,11.0455531 C41.4434488,10.972358 41.4239197,10.9139688 41.3850693,10.8689257 C41.3464266,10.8238825 41.2913712,10.7957306 41.2207341,10.7836357 C41.1854155,10.779048 41.0790443,10.776337 40.9018283,10.776337 L40.5617313,10.776337 L40.5617313,11.326447 Z M40.1246122,12.5786874 L40.1246122,10.4091105 L41.0437258,10.4091105 C41.2751662,10.4091105 41.4426177,10.4287126 41.5469114,10.4677082 C41.652036,10.5064954 41.7359695,10.5757283 41.7989197,10.6754071 C41.8618698,10.7755029 41.8930332,10.8889448 41.8930332,11.0174011 C41.8930332,11.1800568 41.8452493,11.3149777 41.7498892,11.4209124 C41.6549446,11.5266386 41.5120083,11.5937862 41.3221191,11.6211041 C41.4166482,11.6765738 41.4945568,11.7372569 41.5562604,11.8033619 C41.6175485,11.8696754 41.7002355,11.9868709 41.8041136,12.155574 L42.068795,12.5786874 L41.5464958,12.5786874 L41.2313296,12.1065688 C41.1189335,11.9378656 41.0422715,11.8317224 41.0011357,11.7877219 C40.9597922,11.7437214 40.9159557,11.7139012 40.8698338,11.6972186 C40.8235042,11.6811616 40.750374,11.6730288 40.6498199,11.6730288 L40.5617313,11.6730288 L40.5617313,12.5786874 L40.1246122,12.5786874 Z" id="Fill-13" fill="#00A2D3"></path>
        </g>
    </g>
</svg>