<?xml version="1.0" encoding="UTF-8" standalone="no"?>
<svg width="45px" height="45px" viewBox="0 0 45 45" version="1.1" xmlns="http://www.w3.org/2000/svg" xmlns:xlink="http://www.w3.org/1999/xlink" xmlns:sketch="http://www.bohemiancoding.com/sketch/ns">
    <!-- Generator: Sketch 3.3.2 (12043) - http://www.bohemiancoding.com/sketch -->
    <title>aventura-free-breakfast</title>
    <desc>Created with Sketch.</desc>
    <defs></defs>
    <g id="utilities" stroke="none" stroke-width="1" fill="none" fill-rule="evenodd" sketch:type="MSPage">
        <g id="aventura-free-breakfast" sketch:type="MSArtboardGroup" fill="#FFFFFF">
            <path d="M12.2106027,10.0702294 C13.3271583,10.1012849 14.5469916,10.5678405 15.5985472,11.4056183 C18.4368805,13.6625627 21.1661583,16.045896 23.7704916,18.5693405 C23.9741583,18.7657849 24.0962138,18.7657849 24.2543805,18.5592294 C24.2789361,18.5274516 24.3128805,18.5021738 24.3432138,18.4725627 C25.0365472,17.7972849 25.0509916,17.7308405 24.7050472,16.832396 C24.2998805,15.7822849 24.2998805,15.7822849 25.0863805,14.9957849 C27.0118249,13.0703405 28.9379916,11.144896 30.8598249,9.21584048 C30.9775472,9.09884048 31.1053805,9.02661826 31.2621027,9.00495159 C31.5618249,8.96234048 31.7604361,9.20067381 31.6752138,9.49172937 C31.6268249,9.6585627 31.5018805,9.77050715 31.3841583,9.88750715 C30.0299916,11.242396 28.6758249,12.5965627 27.3209361,13.9521738 C27.1894916,14.0821738 27.0421583,14.2049516 27.0291583,14.4107849 C27.0139916,14.6498405 27.1403805,14.7646738 27.3722138,14.7105071 C27.5137694,14.6765627 27.6329361,14.6057849 27.7412694,14.4974516 C29.1351583,13.094896 30.5362694,11.6981183 31.9316027,10.2970071 C32.0298249,10.1980627 32.1352694,10.1301738 32.2688805,10.0911738 C32.4234361,10.0471183 32.5642694,10.0622849 32.6675472,10.1800071 C32.7758805,10.3042294 32.7968249,10.4580627 32.7296583,10.6169516 C32.6718805,10.754896 32.5642694,10.8531183 32.4624361,10.9549516 C31.1292138,12.2881738 29.7967138,13.6206738 28.4642138,14.9531738 C28.4057138,15.0116738 28.3457694,15.070896 28.2887138,15.1301183 C28.1197138,15.3070627 27.9788805,15.5396183 28.1803805,15.7266738 C28.3739361,15.9065071 28.6151583,15.7635071 28.7834361,15.5966738 C30.1831027,14.199896 31.5798805,12.7987849 32.9766583,11.3991183 C33.0207138,11.3557849 33.0553805,11.2965627 33.1073805,11.2676738 C33.3103249,11.1506738 33.5392694,11.0437849 33.7292138,11.2481738 C33.9119361,11.4431738 33.8613805,11.6757294 33.6887694,11.8642294 C33.4786027,12.0924516 33.2539916,12.3076738 33.0344361,12.5279516 C31.8709361,13.692896 30.7067138,14.8571183 29.5424916,16.0213405 C29.4760472,16.0863405 29.4088805,16.1520627 29.3467694,16.2206738 C29.1907694,16.3918405 29.0773805,16.5817849 29.2384361,16.8020627 C29.3366583,16.9371183 29.6566027,16.8677849 29.8465472,16.6792849 C30.1116027,16.4178405 30.3716027,16.1513405 30.6359361,15.8870071 C31.7849916,14.7372294 32.9354916,13.588896 34.0816583,12.4362294 C34.1892694,12.327896 34.3048249,12.2556738 34.4521583,12.230396 C34.7721027,12.1762294 34.9728805,12.4001183 34.8876583,12.7150071 C34.8472138,12.8623405 34.7424916,12.9627294 34.6406583,13.0652849 C32.5671583,15.1373405 30.4936583,17.2079516 28.4273805,19.2865071 C28.2656027,19.4482849 28.1081583,19.4793405 27.9001583,19.4403405 C27.4791027,19.3616183 27.0912694,19.1897294 26.7012694,19.0250627 C26.3567694,18.8791738 26.0628249,18.938396 25.7862138,19.1825071 C25.3268805,19.5891183 24.9325472,20.056396 24.5179916,20.5034516 C24.4248249,20.6031183 24.4190472,20.6991738 24.4753805,20.8132849 C24.5346027,20.933896 24.5923805,21.0552294 24.6465472,21.1780071 C24.7426027,21.3975627 24.8762138,21.4719516 25.1326027,21.4055071 C25.5832694,21.2892294 25.9898805,21.4156183 26.3322138,21.739896 C29.0824361,24.3478405 31.8341027,26.952896 34.5850472,29.5608405 C34.9548249,29.9111183 35.2119361,30.3112294 35.0617138,30.852896 C35.0270472,30.9800071 34.9714361,31.1107294 34.8919916,31.2147294 C34.5402694,31.678396 34.1307694,32.0936738 33.6750472,32.4497294 C33.1911583,32.8252849 32.5144361,32.7407849 32.0608805,32.2951738 C31.4701027,31.7159516 30.8887138,31.1251738 30.3022694,30.5394516 C28.2229916,28.4594516 26.1444361,26.3794516 24.0637138,24.3016183 C23.6354361,23.8740627 23.3559361,23.4060627 23.6000472,22.7755627 C23.6144916,22.7394516 23.6260472,22.688896 23.6101583,22.6585627 C23.5148249,22.4729516 22.8243805,22.4281738 22.6763249,22.597896 C20.9372138,24.5977294 19.1973805,26.5975627 17.4597138,28.5988405 C16.4760472,29.7334516 15.5205472,30.891896 14.5087138,31.9990627 C13.8319916,32.7400627 12.9956583,33.2817294 12.0379916,33.6161183 C11.7411583,33.7201183 11.4342138,33.7598405 11.1222138,33.7432294 C10.4917138,33.7107294 10.1125472,33.3091738 10.1111027,32.6779516 C10.1103805,32.224396 10.2331583,31.8004516 10.4194916,31.3902294 C10.8058805,30.5380071 11.3742694,29.8186738 12.0466583,29.1780627 C14.4018249,26.933396 16.9194916,24.8736183 19.3837138,22.7531738 C19.9412694,22.2736183 20.4973805,21.7926183 21.0686583,21.330396 C21.2557138,21.1787294 21.2542694,21.1072294 21.0773249,20.9447294 C18.5423249,18.6227849 16.0145472,16.2921738 13.4853249,13.9644516 C12.3731027,12.9396183 11.2659361,11.9111738 10.1436027,10.897896 C9.91465828,10.6913405 9.97749161,10.6162294 10.2049916,10.4985071 C10.7582138,10.2132294 11.3432138,10.0695071 12.2106027,10.0702294" id="Imported-Layers" sketch:type="MSShapeGroup"></path>
        </g>
    </g>
</svg>