<?xml version="1.0" encoding="UTF-8" standalone="no"?>
<svg width="220px" height="55px" viewBox="0 0 220 55" version="1.1" xmlns="http://www.w3.org/2000/svg" xmlns:xlink="http://www.w3.org/1999/xlink">
    <!-- Generator: Sketch 3.6.1 (26313) - http://www.bohemiancoding.com/sketch -->
    <title>aventura-budapest</title>
    <desc>Created with Sketch.</desc>
    <defs>
        <path id="path-1" d="M220,27.50015 L220,55 L0,55 L0,27.50015 L0,0.0003 L220,0.0003 L220,27.50015 L220,27.50015 Z"></path>
    </defs>
    <g id="kit" stroke="none" stroke-width="1" fill="none" fill-rule="evenodd">
        <g id="aventura-budapest">
            <g id="Page-1">
                <path d="M103.8313,15.3959 C101.6773,15.3959 99.9453,17.0349 99.9453,20.4999 L99.9453,27.5239 L107.7173,27.5239 L107.7173,20.4999 C107.7173,17.0349 105.9853,15.3959 103.8313,15.3959" id="Fill-1" fill="#FEFEFE"></path>
                <path d="M126.4443,15.8173 L123.3543,15.8173 L123.3543,27.5233 L126.4443,27.5233 C129.7223,27.5233 132.2983,24.9013 132.2983,21.6703 C132.2983,18.3923 129.7223,15.8173 126.4443,15.8173" id="Fill-3" fill="#FEFEFE"></path>
                <path d="M78.2206,15.8173 L77.0506,15.8173 L77.0506,39.2293 L78.2206,39.2293 C81.7796,39.2293 84.8226,34.0793 84.8226,27.5233 C84.8226,20.9213 81.7796,15.8173 78.2206,15.8173" id="Fill-5" fill="#FEFEFE"></path>
                <g id="Group-9">
                    <mask id="mask-2" fill="white">
                        <use xlink:href="#path-1"></use>
                    </mask>
                    <g id="Clip-8"></g>
                    <path d="M197,15.8173 L190.351,15.8173 L190.351,43.1163 L186.465,43.1163 L186.465,15.8173 L179.815,15.8173 L179.815,11.8843 L197,11.8843 L197,15.8173 Z M167.363,43.4913 C164.741,43.4913 162.54,42.2733 160.387,40.0723 L161.135,35.8583 C163.243,37.9653 165.49,39.6043 167.41,39.6043 C169.19,39.6043 171.765,38.3403 171.765,34.9223 C171.765,28.4593 160.011,29.2563 160.011,19.7973 C160.011,14.9743 163.992,11.5093 168.159,11.5093 C170.828,11.5093 172.655,12.6333 174.856,15.1613 L173.498,18.7203 C172.045,17.0813 170.126,15.3963 168.253,15.3963 C165.865,15.3963 164.039,17.4563 164.039,19.7503 C164.039,25.9313 175.792,25.1353 175.792,34.6413 C175.792,40.2133 171.531,43.4913 167.363,43.4913 L167.363,43.4913 Z M154.255,15.8173 L146.482,15.8173 L146.482,23.5903 L154.255,23.5903 L154.255,27.5233 L146.482,27.5233 L146.482,39.2293 L154.255,39.2293 L154.255,43.1163 L142.549,43.1163 L142.549,11.8843 L154.255,11.8843 L154.255,15.8173 Z M126.444,31.4103 L123.354,31.4103 L123.354,43.1163 L119.42,43.1163 L119.42,11.8843 L126.444,11.8843 C131.829,11.8843 136.231,16.2853 136.231,21.6703 C136.231,27.0553 131.829,31.4103 126.444,31.4103 L126.444,31.4103 Z M111.651,43.1163 L107.718,43.1163 L107.718,31.4103 L99.945,31.4103 L99.945,43.1163 L96.011,43.1163 L96.011,20.4993 C96.011,14.6933 99.523,11.5093 103.831,11.5093 C108.139,11.5093 111.651,14.6933 111.651,20.4993 L111.651,43.1163 Z M78.221,43.1163 L73.116,43.1163 L73.116,11.8843 L78.221,11.8843 C84.964,11.8843 89.131,18.7673 89.131,27.5233 C89.131,36.2323 84.964,43.1163 78.221,43.1163 L78.221,43.1163 Z M65.347,34.5473 C65.347,40.3063 61.835,43.4913 57.527,43.4913 C53.219,43.4913 49.707,40.3063 49.707,34.5473 L49.707,11.8843 L53.641,11.8843 L53.641,34.5473 C53.641,37.9653 55.373,39.6043 57.527,39.6043 C59.681,39.6043 61.414,37.9653 61.414,34.5473 L61.414,11.8843 L65.347,11.8843 L65.347,34.5473 Z M33.275,43.1163 L27,43.1163 L27,11.8843 L33.65,11.8843 C37.957,11.8843 41.469,15.3963 41.469,19.7033 C41.469,21.9513 40.486,24.0113 38.941,25.4163 C41.422,27.1953 43.014,30.0983 43.014,33.3763 C43.014,38.7613 38.66,43.1163 33.275,43.1163 L33.275,43.1163 Z M212,0.0003 L8,0.0003 L0,0.0003 L0,8.0003 L0,37.1403 L0,47.0003 C0,51.4183 3.582,55.0003 8,55.0003 L212,55.0003 C216.418,55.0003 220,51.4183 220,47.0003 L220,37.1403 L220,8.0003 L220,0.0003 L212,0.0003 Z" id="Fill-7" fill="#FEFEFE" mask="url(#mask-2)"></path>
                </g>
                <path d="M37.536,19.7035 C37.536,17.5495 35.804,15.8175 33.65,15.8175 L30.934,15.8175 L30.934,23.5905 L33.65,23.5905 C35.804,23.5905 37.536,21.8575 37.536,19.7035" id="Fill-10" fill="#FEFEFE"></path>
                <path d="M33.2747,27.5236 L30.9337,27.5236 L30.9337,39.2296 L33.2747,39.2296 C36.5057,39.2296 39.1287,36.6076 39.1287,33.3766 C39.1287,30.0986 36.5057,27.5236 33.2747,27.5236" id="Fill-12" fill="#FEFEFE"></path>
            </g>
        </g>
    </g>
</svg>