<?xml version="1.0" encoding="UTF-8" standalone="no"?>
<svg width="40px" height="43px" viewBox="0 0 40 43" version="1.1" xmlns="http://www.w3.org/2000/svg" xmlns:xlink="http://www.w3.org/1999/xlink">
    <!-- Generator: Sketch 3.6.1 (26313) - http://www.bohemiancoding.com/sketch -->
    <title>aventura-brand-icon-nav</title>
    <desc>Created with Sketch.</desc>
    <defs></defs>
    <g id="kit" stroke="none" stroke-width="1" fill="none" fill-rule="evenodd">
        <g id="aventura-brand-icon-nav">
            <g id="Group-17">
                <path d="M0,19.2818182 L6.65454545,19.2818182 L6.65454545,42.8181818 L10.5545455,42.8181818 L10.5545455,28.9636364 C10.5545455,21.7272727 15.2090909,18.4909091 19.8181818,18.4909091 C24.2818182,18.4909091 29.0818182,21.7636364 29.0818182,28.9636364 L29.0818182,42.8181818 L33.3454545,42.8181818 L33.3454545,19.2818182 L40,19.2818182 L19.9909091,0.0909090909 L0,19.2818182 Z" id="Fill-1" fill="#8DC644"></path>
                <path d="M23.6181818,29.2 C23.6181818,26.0727273 22,24.5636364 20,24.5636364 C18,24.5636364 16.3818182,26.0727273 16.3818182,29.2 L16.3818182,32.0818182 L23.6181818,32.0818182 L23.6181818,29.2 L23.6181818,29.2 Z M16.3818182,42.8181818 L12.7272727,42.8181818 L12.7272727,29.2 C12.7272727,23.9181818 15.9909091,21 20,21 C24.0090909,21 27.2727273,23.9181818 27.2727273,29.2 L27.2727273,42.8181818 L23.6181818,42.8181818 L23.6181818,35.6454545 L16.3818182,35.6454545 L16.3818182,42.8181818 L16.3818182,42.8181818 Z" id="Fill-2" fill="#000000"></path>
            </g>
        </g>
    </g>
</svg>