<?xml version="1.0" encoding="UTF-8" standalone="no"?>
<svg width="182px" height="53px" viewBox="0 0 182 53" version="1.1" xmlns="http://www.w3.org/2000/svg" xmlns:xlink="http://www.w3.org/1999/xlink">
    <!-- Generator: Sketch 3.6.1 (26313) - http://www.bohemiancoding.com/sketch -->
    <title>aventura-brand-wide</title>
    <desc>Created with Sketch.</desc>
    <defs></defs>
    <g id="kit" stroke="none" stroke-width="1" fill="none" fill-rule="evenodd">
        <g id="aventura-brand-wide">
            <g id="aventura-logo">
                <path d="M0.37311786,16.3770495 L6.04025042,16.3770495 L6.04025042,36.3971012 L28.7680351,36.3971012 L28.7680351,16.3770495 L34.4360935,16.3770495 L17.3985876,0.0470307549 L0.37311786,16.3770495" id="Fill-1" fill="#8DC644"></path>
                <path d="M20.300204,37.3226665 L24.2591418,37.3226665 L24.2591418,24.611194 C24.2591418,19.0747336 20.7399831,16.5962128 17.2523032,16.5962128 C13.7646234,16.5962128 10.2445388,19.0747336 10.2445388,24.611194 L10.2445388,37.3226665 L20.300204,37.3226665" id="Fill-2" fill="#FFFFFF"></path>
                <path d="M20.300204,37.3226665 L24.2591418,37.3226665 L24.2591418,24.611194 C24.2591418,19.0747336 20.7399831,16.5962128 17.2523032,16.5962128 C13.7646234,16.5962128 10.2445388,19.0747336 10.2445388,24.611194 L10.2445388,37.3226665 L20.300204,37.3226665 L20.300204,37.3226665 Z" id="Stroke-3" stroke="#FFFFFF" stroke-width="1.759296"></path>
                <path d="M181.338057,52.2831496 L181.338057,51.2080265 L178.252197,51.2080265 L178.252197,42.5280304 L177.193949,42.5280304 L177.193949,52.2831496 L181.338057,52.2831496 L181.338057,52.2831496 Z M169.988979,52.2963182 L169.988979,51.2080265 C168.960358,51.1910955 168.089133,50.811087 167.375302,50.068001 C166.661471,49.3249151 166.304093,48.4360338 166.304093,47.399476 L166.304093,45.8832045 L169.976943,45.8832045 L169.976943,44.8080814 L166.304093,44.8080814 L166.304093,43.6031535 L169.913059,43.6031535 L169.913059,42.5280304 L165.245845,42.5280304 L165.245845,44.8080814 L164.633858,44.8080814 L164.633858,45.8832045 L165.245845,45.8832045 L165.245845,47.399476 C165.245845,48.7295058 165.711548,49.8714125 166.642028,50.8261368 C167.573434,51.7799205 168.689084,52.269981 169.988979,52.2963182 L169.988979,52.2963182 Z M157.761268,43.6031535 L157.761268,42.5280304 L152.940363,42.5280304 L152.940363,43.6031535 L154.828172,43.6031535 L154.828172,52.2831496 L155.873458,52.2831496 L155.873458,43.6031535 L157.761268,43.6031535 L157.761268,43.6031535 Z M147.037138,49.1744167 L147.037138,49.0700084 C147.019547,48.6730688 146.937146,48.286476 146.788084,47.9111706 C146.639022,47.5349246 146.415892,47.2132342 146.118694,46.9460995 C145.889083,46.7476297 145.659472,46.5482193 145.429861,46.3497496 C145.20025,46.1512798 144.971565,45.95281 144.741954,45.7543402 C144.639185,45.6678036 144.563265,45.5596329 144.512343,45.429828 C144.461421,45.3009637 144.430868,45.1664558 144.422536,45.0281853 C144.414203,45.0027887 144.4105,44.9764515 144.4105,44.9510549 L144.4105,44.8729839 C144.4105,44.5193126 144.533638,44.2183157 144.779914,43.9728152 C145.02619,43.726374 145.323388,43.6031535 145.672434,43.6031535 L145.672434,42.5280304 C145.034523,42.5280304 144.488271,42.7594217 144.033678,43.2212637 C143.579086,43.6831058 143.351326,44.2343062 143.351326,44.8729839 C143.351326,45.192793 143.411507,45.5013147 143.530015,45.7994897 C143.64945,46.0976647 143.828139,46.3544526 144.066083,46.5698535 C144.295694,46.7598577 144.524379,46.9564463 144.75399,47.1596192 C144.983601,47.362792 145.208583,47.563143 145.429861,47.7616128 C145.600218,47.9092894 145.729837,48.086125 145.818719,48.2930603 C145.908526,48.4999957 145.9613,48.7163371 145.978891,48.9411441 C145.987223,48.9750063 145.990927,49.0116903 145.990927,49.0511961 L145.990927,49.1744167 C145.990927,49.7265578 145.795572,50.2034496 145.404863,50.6050923 C145.013228,51.0067349 144.54197,51.2080265 143.989237,51.2080265 L143.989237,52.2831496 C144.830836,52.2831496 145.549296,51.9765091 146.144618,51.363228 C146.739014,50.749947 147.037138,50.0209703 147.037138,49.1744167 L147.037138,49.1744167 Z M135.522332,47.399476 C135.522332,48.4444994 135.156621,49.339965 134.425199,50.087754 C133.694703,50.8346023 132.810515,51.2080265 131.773562,51.2080265 C130.744942,51.2080265 129.862606,50.8346023 129.127481,50.087754 C128.39143,49.339965 128.023867,48.4444994 128.023867,47.399476 C128.023867,46.3544526 128.39143,45.4608683 129.127481,44.7177824 C129.862606,43.9746964 130.744942,43.6031535 131.773562,43.6031535 C132.810515,43.6031535 133.694703,43.9746964 134.425199,44.7177824 C135.156621,45.4608683 135.522332,46.3544526 135.522332,47.399476 L135.522332,47.399476 Z M136.567618,47.399476 C136.567618,46.0609807 136.098211,44.9143709 135.158473,43.9596466 C134.21966,43.0058629 133.091048,42.5280304 131.773562,42.5280304 C130.455151,42.5280304 129.326539,43.0058629 128.387726,43.9596466 C127.447988,44.9143709 126.978581,46.0609807 126.978581,47.399476 C126.978581,48.7464368 127.447988,49.8977497 128.387726,50.8515334 C129.326539,51.8062577 130.455151,52.2831496 131.773562,52.2831496 C133.091048,52.2831496 134.21966,51.8062577 135.158473,50.8515334 C136.098211,49.8977497 136.567618,48.7464368 136.567618,47.399476 L136.567618,47.399476 Z M119.748613,52.2831496 L119.748613,42.5280304 L118.690365,42.5280304 L118.690365,44.8080814 L115.591543,44.8080814 L115.591543,42.5280304 L114.533295,42.5280304 L114.533295,44.8080814 L113.857424,44.8080814 L113.857424,45.8832045 L114.533295,45.8832045 L114.533295,52.2831496 L115.591543,52.2831496 L115.591543,45.8832045 L118.690365,45.8832045 L118.690365,52.2831496 L119.748613,52.2831496 L119.748613,52.2831496 Z" id="Fill-4" fill="#272525"></path>
                <path d="M181.338057,52.2831496 L181.338057,51.2080265 L178.252197,51.2080265 L178.252197,42.5280304 L177.193949,42.5280304 L177.193949,52.2831496 L181.338057,52.2831496 L181.338057,52.2831496 Z M169.988979,52.2963182 L169.988979,51.2080265 C168.960358,51.1910955 168.089133,50.811087 167.375302,50.068001 C166.661471,49.3249151 166.304093,48.4360338 166.304093,47.399476 L166.304093,45.8832045 L169.976943,45.8832045 L169.976943,44.8080814 L166.304093,44.8080814 L166.304093,43.6031535 L169.913059,43.6031535 L169.913059,42.5280304 L165.245845,42.5280304 L165.245845,44.8080814 L164.633858,44.8080814 L164.633858,45.8832045 L165.245845,45.8832045 L165.245845,47.399476 C165.245845,48.7295058 165.711548,49.8714125 166.642028,50.8261368 C167.573434,51.7799205 168.689084,52.269981 169.988979,52.2963182 L169.988979,52.2963182 Z M157.761268,43.6031535 L157.761268,42.5280304 L152.940363,42.5280304 L152.940363,43.6031535 L154.828172,43.6031535 L154.828172,52.2831496 L155.873458,52.2831496 L155.873458,43.6031535 L157.761268,43.6031535 L157.761268,43.6031535 Z M147.037138,49.1744167 L147.037138,49.0700084 C147.019547,48.6730688 146.937146,48.286476 146.788084,47.9111706 C146.639022,47.5349246 146.415892,47.2132342 146.118694,46.9460995 C145.889083,46.7476297 145.659472,46.5482193 145.429861,46.3497496 C145.20025,46.1512798 144.971565,45.95281 144.741954,45.7543402 C144.639185,45.6678036 144.563265,45.5596329 144.512343,45.429828 C144.461421,45.3009637 144.430868,45.1664558 144.422536,45.0281853 C144.414203,45.0027887 144.4105,44.9764515 144.4105,44.9510549 L144.4105,44.8729839 C144.4105,44.5193126 144.533638,44.2183157 144.779914,43.9728152 C145.02619,43.726374 145.323388,43.6031535 145.672434,43.6031535 L145.672434,42.5280304 C145.034523,42.5280304 144.488271,42.7594217 144.033678,43.2212637 C143.579086,43.6831058 143.351326,44.2343062 143.351326,44.8729839 C143.351326,45.192793 143.411507,45.5013147 143.530015,45.7994897 C143.64945,46.0976647 143.828139,46.3544526 144.066083,46.5698535 C144.295694,46.7598577 144.524379,46.9564463 144.75399,47.1596192 C144.983601,47.362792 145.208583,47.563143 145.429861,47.7616128 C145.600218,47.9092894 145.729837,48.086125 145.818719,48.2930603 C145.908526,48.4999957 145.9613,48.7163371 145.978891,48.9411441 C145.987223,48.9750063 145.990927,49.0116903 145.990927,49.0511961 L145.990927,49.1744167 C145.990927,49.7265578 145.795572,50.2034496 145.404863,50.6050923 C145.013228,51.0067349 144.54197,51.2080265 143.989237,51.2080265 L143.989237,52.2831496 C144.830836,52.2831496 145.549296,51.9765091 146.144618,51.363228 C146.739014,50.749947 147.037138,50.0209703 147.037138,49.1744167 L147.037138,49.1744167 Z M135.522332,47.399476 C135.522332,48.4444994 135.156621,49.339965 134.425199,50.087754 C133.694703,50.8346023 132.810515,51.2080265 131.773562,51.2080265 C130.744942,51.2080265 129.862606,50.8346023 129.127481,50.087754 C128.39143,49.339965 128.023867,48.4444994 128.023867,47.399476 C128.023867,46.3544526 128.39143,45.4608683 129.127481,44.7177824 C129.862606,43.9746964 130.744942,43.6031535 131.773562,43.6031535 C132.810515,43.6031535 133.694703,43.9746964 134.425199,44.7177824 C135.156621,45.4608683 135.522332,46.3544526 135.522332,47.399476 L135.522332,47.399476 Z M136.567618,47.399476 C136.567618,46.0609807 136.098211,44.9143709 135.158473,43.9596466 C134.21966,43.0058629 133.091048,42.5280304 131.773562,42.5280304 C130.455151,42.5280304 129.326539,43.0058629 128.387726,43.9596466 C127.447988,44.9143709 126.978581,46.0609807 126.978581,47.399476 C126.978581,48.7464368 127.447988,49.8977497 128.387726,50.8515334 C129.326539,51.8062577 130.455151,52.2831496 131.773562,52.2831496 C133.091048,52.2831496 134.21966,51.8062577 135.158473,50.8515334 C136.098211,49.8977497 136.567618,48.7464368 136.567618,47.399476 L136.567618,47.399476 Z M119.748613,52.2831496 L119.748613,42.5280304 L118.690365,42.5280304 L118.690365,44.8080814 L115.591543,44.8080814 L115.591543,42.5280304 L114.533295,42.5280304 L114.533295,44.8080814 L113.857424,44.8080814 L113.857424,45.8832045 L114.533295,45.8832045 L114.533295,52.2831496 L115.591543,52.2831496 L115.591543,45.8832045 L118.690365,45.8832045 L118.690365,52.2831496 L119.748613,52.2831496 L119.748613,52.2831496 Z" id="Stroke-5" stroke="#272525" stroke-width="0.5775"></path>
                <path d="M106.563572,52.2963182 L106.563572,51.2080265 C105.534952,51.1910955 104.663726,50.811087 103.949895,50.068001 C103.235138,49.3258557 102.878686,48.4360338 102.878686,47.399476 L102.878686,45.8841451 L106.55061,45.8841451 L106.55061,44.8080814 L102.878686,44.8080814 L102.878686,43.6031535 L106.486726,43.6031535 L106.486726,42.5280304 L101.820438,42.5280304 L101.820438,44.8080814 L101.207525,44.8080814 L101.207525,45.8841451 L101.820438,45.8841451 L101.820438,47.399476 C101.820438,48.7295058 102.285215,49.8714125 103.216621,50.8261368 C104.147101,51.7799205 105.262751,52.269981 106.563572,52.2963182" id="Fill-6" fill="#8DC644"></path>
                <path d="M106.563572,52.2963182 L106.563572,51.2080265 C105.534952,51.1910955 104.663726,50.811087 103.949895,50.068001 C103.235138,49.3258557 102.878686,48.4360338 102.878686,47.399476 L102.878686,45.8841451 L106.55061,45.8841451 L106.55061,44.8080814 L102.878686,44.8080814 L102.878686,43.6031535 L106.486726,43.6031535 L106.486726,42.5280304 L101.820438,42.5280304 L101.820438,44.8080814 L101.207525,44.8080814 L101.207525,45.8841451 L101.820438,45.8841451 L101.820438,47.399476 C101.820438,48.7295058 102.285215,49.8714125 103.216621,50.8261368 C104.147101,51.7799205 105.262751,52.269981 106.563572,52.2963182 L106.563572,52.2963182 Z" id="Stroke-7" stroke="#8DC644" stroke-width="0.5775"></path>
                <path d="M93.9525585,49.7566574 L93.9525585,42.528971 L92.9072729,42.528971 L92.9072729,49.7566574 C92.9072729,50.1545376 92.7665436,50.4959809 92.4860108,50.7809873 C92.2054781,51.065053 91.8656908,51.2080265 91.4657233,51.2080265 C91.0750143,51.2080265 90.7389304,51.065053 90.4583977,50.7809873 C90.1778649,50.4959809 90.0380614,50.1545376 90.0380614,49.7566574 L90.0380614,42.528971 L88.979814,42.528971 L88.979814,49.7566574 C88.979814,50.4480095 89.2233127,51.0424783 89.7130878,51.539123 C90.2010112,52.0357678 90.7861488,52.2840902 91.4657233,52.2840902 C92.1545563,52.2840902 92.7415457,52.0357678 93.2257656,51.539123 C93.7099856,51.0424783 93.9525585,50.4480095 93.9525585,49.7566574 L93.9525585,49.7566574 Z M80.7545558,47.399476 C80.7545558,47.9779543 80.6397503,48.5141049 80.4101393,49.0060466 C80.1805283,49.4989289 79.8666649,49.9212651 79.4666973,50.275877 C79.0074754,49.9476023 78.5084418,49.6945768 77.9686708,49.5177412 C77.4288998,49.339965 76.8696859,49.2524877 76.2919551,49.2524877 L76.2919551,50.3144422 C76.6826641,50.3144422 77.0631887,50.3642948 77.4326032,50.4630594 C77.8029435,50.561824 78.1538409,50.7066787 78.4852955,50.8976236 C78.2556845,51.0001506 78.0177409,51.0791623 77.7705387,51.1299555 C77.5242624,51.1816893 77.2696535,51.2080265 77.005786,51.2080265 C75.9771658,51.2080265 75.09483,50.8346023 74.3597045,50.0868133 C73.624579,49.339965 73.2570162,48.4435588 73.2570162,47.399476 C73.2570162,46.3553932 73.624579,45.4599277 74.3597045,44.7177824 C75.09483,43.975637 75.9771658,43.6031535 77.005786,43.6031535 C78.0427389,43.6031535 78.9269263,43.975637 79.6583484,44.7177824 C80.3888447,45.4599277 80.7545558,46.3553932 80.7545558,47.399476 L80.7545558,47.399476 Z M81.8007671,47.399476 C81.8007671,46.0600401 81.3304349,44.9134303 80.3916223,43.9596466 C79.4518837,43.0049223 78.3232716,42.528971 77.005786,42.528971 C75.6883003,42.528971 74.5596883,43.0049223 73.6199497,43.9596466 C72.6811371,44.9134303 72.2117307,46.0600401 72.2117307,47.399476 C72.2117307,48.7473774 72.6811371,49.8968091 73.6199497,50.8515334 C74.5596883,51.8053171 75.6883003,52.2840902 77.005786,52.2840902 C77.4474168,52.2840902 77.8733082,52.2248315 78.2806825,52.1091358 C78.6889827,51.9924995 79.0676557,51.8260107 79.4157755,51.6096692 C79.5861321,51.7827424 79.7453784,51.9661623 79.8944404,52.159929 C80.0425765,52.3546363 80.1721956,52.568156 80.2832977,52.8014285 L81.2137777,52.2963182 C81.0860103,52.0545801 80.9434293,51.8213076 80.7869605,51.5974412 C80.6295659,51.3726342 80.4573577,51.1656989 80.2703358,50.974754 C80.7462231,50.52514 81.1202668,49.9946331 81.3924669,49.381352 C81.6646671,48.7690116 81.8007671,48.1068186 81.8007671,47.399476 L81.8007671,47.399476 Z M63.9744364,52.2840902 L65.0197219,52.2840902 L65.0197219,42.528971 L63.9744364,42.528971 L63.9744364,52.2840902 Z M56.8074256,43.6031535 L56.8074256,42.528971 L51.9874465,42.528971 L51.9874465,43.6031535 L53.8752562,43.6031535 L53.8752562,52.2840902 L54.9205418,52.2840902 L54.9205418,43.6031535 L56.8074256,43.6031535 L56.8074256,43.6031535 Z M44.7574779,49.7566574 L44.7574779,42.528971 L43.7121923,42.528971 L43.7121923,49.7566574 C43.7121923,50.1545376 43.5723889,50.4959809 43.2918561,50.7809873 C43.0113233,51.065053 42.6706102,51.2080265 42.2715686,51.2080265 C41.8799337,51.2080265 41.5447757,51.065053 41.2642429,50.7809873 C40.9837101,50.4959809 40.8429808,50.1545376 40.8429808,49.7566574 L40.8429808,42.528971 L39.7847334,42.528971 L39.7847334,49.7566574 C39.7847334,50.4480095 40.029158,51.0424783 40.5180072,51.539123 C41.0068564,52.0357678 41.5910682,52.2840902 42.2715686,52.2840902 C42.9594757,52.2840902 43.5464651,52.0357678 44.030685,51.539123 C44.5158308,51.0424783 44.7574779,50.4480095 44.7574779,49.7566574 L44.7574779,49.7566574 Z M31.6113228,47.399476 C31.6113228,48.4435588 31.2456117,49.339965 30.5141896,50.0868133 C29.7827675,50.8346023 28.8995059,51.2080265 27.862553,51.2080265 C26.833007,51.2080265 25.951597,50.8346023 25.2164715,50.0868133 C24.4804202,49.339965 24.1128574,48.4435588 24.1128574,47.399476 C24.1128574,46.3553932 24.4804202,45.4599277 25.2164715,44.7177824 C25.951597,43.975637 26.833007,43.6031535 27.862553,43.6031535 C28.8995059,43.6031535 29.7827675,43.975637 30.5141896,44.7177824 C31.2456117,45.4599277 31.6113228,46.3553932 31.6113228,47.399476 L31.6113228,47.399476 Z M32.6566083,47.399476 C32.6566083,46.0600401 32.187202,44.9134303 31.2474634,43.9596466 C30.3086508,43.0049223 29.1800387,42.528971 27.862553,42.528971 C26.5441415,42.528971 25.4155295,43.0049223 24.4767168,43.9596466 C23.5369782,44.9134303 23.0675719,46.0600401 23.0675719,47.399476 C23.0675719,48.7473774 23.5369782,49.8968091 24.4767168,50.8515334 C25.4155295,51.8053171 26.5441415,52.2840902 27.862553,52.2840902 C29.1800387,52.2840902 30.3086508,51.8053171 31.2474634,50.8515334 C32.187202,49.8968091 32.6566083,48.7473774 32.6566083,47.399476 L32.6566083,47.399476 Z M12.5091697,44.7563476 L12.5091697,43.6558279 C12.6202718,43.7160273 12.7026725,43.7940983 12.7582236,43.8881598 C12.8137746,43.983162 12.8406243,44.0875702 12.8406243,44.1985628 C12.8406243,44.3114366 12.8156263,44.4167855 12.7647045,44.5164907 C12.7137828,44.6171365 12.6286045,44.6961482 12.5091697,44.7563476 L12.5091697,44.7563476 Z M14.8682375,48.5517295 C14.8682375,49.2346161 14.6414041,49.8290848 14.1858855,50.3332545 C13.7312928,50.8393054 13.1730047,51.126193 12.5091697,51.1948579 L12.5091697,45.8973137 C13.1730047,45.9659786 13.7312928,46.255688 14.1858855,46.7636202 C14.6414041,47.2743742 14.8682375,47.8707242 14.8682375,48.5517295 L14.8682375,48.5517295 Z M14.8302776,51.1816893 C15.1617322,50.8534146 15.4126377,50.4912778 15.5829943,50.0943383 C15.752425,49.6973987 15.8588978,49.295756 15.901487,48.8894103 C15.901487,48.8367359 15.9033387,48.7859427 15.9079679,48.7342088 C15.9116713,48.682475 15.9144489,48.6307412 15.9144489,48.5780667 C15.9144489,47.8519119 15.7163168,47.1652628 15.3209785,46.5181197 C14.9256402,45.8709765 14.362723,45.3950252 13.6313009,45.0930878 C13.7248118,44.9463518 13.7914731,44.7996159 13.8294329,44.6538205 C13.8673928,44.506144 13.8868357,44.359408 13.8868357,44.2126721 C13.8868357,43.7809297 13.7312928,43.3924557 13.4211327,43.0472499 C13.1109727,42.7011036 12.7174862,42.528971 12.2415989,42.528971 L11.4509223,42.528971 L11.4509223,52.2840902 L12.2415989,52.2840902 C12.74341,52.2840902 13.2174456,52.184385 13.6637056,51.9849746 C14.1099657,51.7874454 14.498823,51.5184295 14.8302776,51.1816893 L14.8302776,51.1816893 Z" id="Fill-8" fill="#8DC644"></path>
                <path d="M93.9525585,49.7566574 L93.9525585,42.528971 L92.9072729,42.528971 L92.9072729,49.7566574 C92.9072729,50.1545376 92.7665436,50.4959809 92.4860108,50.7809873 C92.2054781,51.065053 91.8656908,51.2080265 91.4657233,51.2080265 C91.0750143,51.2080265 90.7389304,51.065053 90.4583977,50.7809873 C90.1778649,50.4959809 90.0380614,50.1545376 90.0380614,49.7566574 L90.0380614,42.528971 L88.979814,42.528971 L88.979814,49.7566574 C88.979814,50.4480095 89.2233127,51.0424783 89.7130878,51.539123 C90.2010112,52.0357678 90.7861488,52.2840902 91.4657233,52.2840902 C92.1545563,52.2840902 92.7415457,52.0357678 93.2257656,51.539123 C93.7099856,51.0424783 93.9525585,50.4480095 93.9525585,49.7566574 L93.9525585,49.7566574 Z M80.7545558,47.399476 C80.7545558,47.9779543 80.6397503,48.5141049 80.4101393,49.0060466 C80.1805283,49.4989289 79.8666649,49.9212651 79.4666973,50.275877 C79.0074754,49.9476023 78.5084418,49.6945768 77.9686708,49.5177412 C77.4288998,49.339965 76.8696859,49.2524877 76.2919551,49.2524877 L76.2919551,50.3144422 C76.6826641,50.3144422 77.0631887,50.3642948 77.4326032,50.4630594 C77.8029435,50.561824 78.1538409,50.7066787 78.4852955,50.8976236 C78.2556845,51.0001506 78.0177409,51.0791623 77.7705387,51.1299555 C77.5242624,51.1816893 77.2696535,51.2080265 77.005786,51.2080265 C75.9771658,51.2080265 75.09483,50.8346023 74.3597045,50.0868133 C73.624579,49.339965 73.2570162,48.4435588 73.2570162,47.399476 C73.2570162,46.3553932 73.624579,45.4599277 74.3597045,44.7177824 C75.09483,43.975637 75.9771658,43.6031535 77.005786,43.6031535 C78.0427389,43.6031535 78.9269263,43.975637 79.6583484,44.7177824 C80.3888447,45.4599277 80.7545558,46.3553932 80.7545558,47.399476 L80.7545558,47.399476 Z M81.8007671,47.399476 C81.8007671,46.0600401 81.3304349,44.9134303 80.3916223,43.9596466 C79.4518837,43.0049223 78.3232716,42.528971 77.005786,42.528971 C75.6883003,42.528971 74.5596883,43.0049223 73.6199497,43.9596466 C72.6811371,44.9134303 72.2117307,46.0600401 72.2117307,47.399476 C72.2117307,48.7473774 72.6811371,49.8968091 73.6199497,50.8515334 C74.5596883,51.8053171 75.6883003,52.2840902 77.005786,52.2840902 C77.4474168,52.2840902 77.8733082,52.2248315 78.2806825,52.1091358 C78.6889827,51.9924995 79.0676557,51.8260107 79.4157755,51.6096692 C79.5861321,51.7827424 79.7453784,51.9661623 79.8944404,52.159929 C80.0425765,52.3546363 80.1721956,52.568156 80.2832977,52.8014285 L81.2137777,52.2963182 C81.0860103,52.0545801 80.9434293,51.8213076 80.7869605,51.5974412 C80.6295659,51.3726342 80.4573577,51.1656989 80.2703358,50.974754 C80.7462231,50.52514 81.1202668,49.9946331 81.3924669,49.381352 C81.6646671,48.7690116 81.8007671,48.1068186 81.8007671,47.399476 L81.8007671,47.399476 Z M63.9744364,52.2840902 L65.0197219,52.2840902 L65.0197219,42.528971 L63.9744364,42.528971 L63.9744364,52.2840902 Z M56.8074256,43.6031535 L56.8074256,42.528971 L51.9874465,42.528971 L51.9874465,43.6031535 L53.8752562,43.6031535 L53.8752562,52.2840902 L54.9205418,52.2840902 L54.9205418,43.6031535 L56.8074256,43.6031535 L56.8074256,43.6031535 Z M44.7574779,49.7566574 L44.7574779,42.528971 L43.7121923,42.528971 L43.7121923,49.7566574 C43.7121923,50.1545376 43.5723889,50.4959809 43.2918561,50.7809873 C43.0113233,51.065053 42.6706102,51.2080265 42.2715686,51.2080265 C41.8799337,51.2080265 41.5447757,51.065053 41.2642429,50.7809873 C40.9837101,50.4959809 40.8429808,50.1545376 40.8429808,49.7566574 L40.8429808,42.528971 L39.7847334,42.528971 L39.7847334,49.7566574 C39.7847334,50.4480095 40.029158,51.0424783 40.5180072,51.539123 C41.0068564,52.0357678 41.5910682,52.2840902 42.2715686,52.2840902 C42.9594757,52.2840902 43.5464651,52.0357678 44.030685,51.539123 C44.5158308,51.0424783 44.7574779,50.4480095 44.7574779,49.7566574 L44.7574779,49.7566574 Z M31.6113228,47.399476 C31.6113228,48.4435588 31.2456117,49.339965 30.5141896,50.0868133 C29.7827675,50.8346023 28.8995059,51.2080265 27.862553,51.2080265 C26.833007,51.2080265 25.951597,50.8346023 25.2164715,50.0868133 C24.4804202,49.339965 24.1128574,48.4435588 24.1128574,47.399476 C24.1128574,46.3553932 24.4804202,45.4599277 25.2164715,44.7177824 C25.951597,43.975637 26.833007,43.6031535 27.862553,43.6031535 C28.8995059,43.6031535 29.7827675,43.975637 30.5141896,44.7177824 C31.2456117,45.4599277 31.6113228,46.3553932 31.6113228,47.399476 L31.6113228,47.399476 Z M32.6566083,47.399476 C32.6566083,46.0600401 32.187202,44.9134303 31.2474634,43.9596466 C30.3086508,43.0049223 29.1800387,42.528971 27.862553,42.528971 C26.5441415,42.528971 25.4155295,43.0049223 24.4767168,43.9596466 C23.5369782,44.9134303 23.0675719,46.0600401 23.0675719,47.399476 C23.0675719,48.7473774 23.5369782,49.8968091 24.4767168,50.8515334 C25.4155295,51.8053171 26.5441415,52.2840902 27.862553,52.2840902 C29.1800387,52.2840902 30.3086508,51.8053171 31.2474634,50.8515334 C32.187202,49.8968091 32.6566083,48.7473774 32.6566083,47.399476 L32.6566083,47.399476 Z M12.5091697,44.7563476 L12.5091697,43.6558279 C12.6202718,43.7160273 12.7026725,43.7940983 12.7582236,43.8881598 C12.8137746,43.983162 12.8406243,44.0875702 12.8406243,44.1985628 C12.8406243,44.3114366 12.8156263,44.4167855 12.7647045,44.5164907 C12.7137828,44.6171365 12.6286045,44.6961482 12.5091697,44.7563476 L12.5091697,44.7563476 Z M14.8682375,48.5517295 C14.8682375,49.2346161 14.6414041,49.8290848 14.1858855,50.3332545 C13.7312928,50.8393054 13.1730047,51.126193 12.5091697,51.1948579 L12.5091697,45.8973137 C13.1730047,45.9659786 13.7312928,46.255688 14.1858855,46.7636202 C14.6414041,47.2743742 14.8682375,47.8707242 14.8682375,48.5517295 L14.8682375,48.5517295 Z M14.8302776,51.1816893 C15.1617322,50.8534146 15.4126377,50.4912778 15.5829943,50.0943383 C15.752425,49.6973987 15.8588978,49.295756 15.901487,48.8894103 C15.901487,48.8367359 15.9033387,48.7859427 15.9079679,48.7342088 C15.9116713,48.682475 15.9144489,48.6307412 15.9144489,48.5780667 C15.9144489,47.8519119 15.7163168,47.1652628 15.3209785,46.5181197 C14.9256402,45.8709765 14.362723,45.3950252 13.6313009,45.0930878 C13.7248118,44.9463518 13.7914731,44.7996159 13.8294329,44.6538205 C13.8673928,44.506144 13.8868357,44.359408 13.8868357,44.2126721 C13.8868357,43.7809297 13.7312928,43.3924557 13.4211327,43.0472499 C13.1109727,42.7011036 12.7174862,42.528971 12.2415989,42.528971 L11.4509223,42.528971 L11.4509223,52.2840902 L12.2415989,52.2840902 C12.74341,52.2840902 13.2174456,52.184385 13.6637056,51.9849746 C14.1099657,51.7874454 14.498823,51.5184295 14.8302776,51.1816893 L14.8302776,51.1816893 Z" id="Stroke-9" stroke="#8DC644" stroke-width="0.5775"></path>
                <path d="M172.077698,30.2210225 L178.169796,30.2210225 L178.169796,36.4469538 L181.252879,36.4469538 L181.252879,24.6281251 C181.252879,20.0426265 178.500325,17.5067282 175.123747,17.5067282 C171.748095,17.5067282 168.995541,20.0426265 168.995541,24.6281251 L168.995541,36.4469538 L172.077698,36.4469538 L172.077698,30.2210225 L172.077698,30.2210225 Z M178.169796,27.1263988 L172.077698,27.1263988 L172.077698,24.6281251 C172.077698,21.9069256 173.435921,20.6013519 175.123747,20.6013519 C176.812499,20.6013519 178.169796,21.9069256 178.169796,24.6281251 L178.169796,27.1263988 L178.169796,27.1263988 Z M150.976633,27.1263988 L148.224079,27.1263988 L148.224079,20.8995269 L150.976633,20.8995269 C152.664459,20.8995269 154.022682,22.3170338 154.022682,24.0317751 C154.022682,25.7098325 152.664459,27.1263988 150.976633,27.1263988 L150.976633,27.1263988 Z M153.765296,29.5494233 C155.747542,28.5062812 157.068731,26.4181156 157.068731,24.0317751 C157.068731,20.6013519 154.316177,17.8058438 150.976633,17.8058438 L145.140996,17.8058438 L145.140996,36.4469538 L148.224079,36.4469538 L148.224079,30.2210225 L150.462786,30.2210225 L154.866132,36.4469538 L158.609347,36.4469538 L153.765296,29.5494233 L153.765296,29.5494233 Z M121.287377,17.8058438 L121.287377,29.6246725 C121.287377,34.2101711 124.039931,36.7460694 127.415583,36.7460694 C130.792161,36.7460694 133.544715,34.2101711 133.544715,29.6246725 L133.544715,17.8058438 L130.461632,17.8058438 L130.461632,29.6246725 C130.461632,32.345872 129.104335,33.6514457 127.415583,33.6514457 C125.727757,33.6514457 124.369534,32.345872 124.369534,29.6246725 L124.369534,17.8058438 L121.287377,17.8058438 L121.287377,17.8058438 Z M103.561964,20.8995269 L103.561964,36.4469538 L106.608013,36.4469538 L106.608013,20.8995269 L111.818701,20.8995269 L111.818701,17.8058438 L98.3503496,17.8058438 L98.3503496,20.8995269 L103.561964,20.8995269 L103.561964,20.8995269 Z M86.1300453,29.6989811 L78.9371107,17.8058438 L76.6252613,17.8058438 L76.6252613,36.4469538 L79.3778157,36.4469538 L79.3778157,24.5538165 L86.5707503,36.4469538 L88.8825997,36.4469538 L88.8825997,17.8058438 L86.1300453,17.8058438 L86.1300453,29.6989811 L86.1300453,29.6989811 Z M55.8167653,36.4469538 L64.9919464,36.4469538 L64.9919464,33.3532707 L58.8998484,33.3532707 L58.8998484,27.7603734 L64.9919464,27.7603734 L64.9919464,24.6281251 L58.8998484,24.6281251 L58.8998484,20.8995269 L64.9919464,20.8995269 L64.9919464,17.8058438 L55.8167653,17.8058438 L55.8167653,36.4469538 L55.8167653,36.4469538 Z M47.2665334,17.8058438 L43.9640238,17.8058438 L39.5967857,29.0650065 L35.2665816,17.8058438 L31.9631461,17.8058438 L39.303291,36.7460694 L39.9273144,36.7460694 L47.2665334,17.8058438 L47.2665334,17.8058438 Z M14.2377331,30.2210225 L20.3298312,30.2210225 L20.3298312,36.4469538 L23.4129142,36.4469538 L23.4129142,24.6281251 C23.4129142,20.0426265 20.6603599,17.5067282 17.2837822,17.5067282 C13.9072044,17.5067282 11.1555759,20.0426265 11.1555759,24.6281251 L11.1555759,36.4469538 L14.2377331,36.4469538 L14.2377331,30.2210225 L14.2377331,30.2210225 Z M20.3298312,27.1263988 L14.2377331,27.1263988 L14.2377331,24.6281251 C14.2377331,21.9069256 15.5959562,20.6013519 17.2837822,20.6013519 C18.9716081,20.6013519 20.3298312,21.9069256 20.3298312,24.6281251 L20.3298312,27.1263988 L20.3298312,27.1263988 Z" id="Fill-10" fill="#272525"></path>
            </g>
        </g>
    </g>
</svg>