<?xml version="1.0" encoding="UTF-8" standalone="no"?>
<svg width="22px" height="22px" viewBox="0 0 22 22" version="1.1" xmlns="http://www.w3.org/2000/svg" xmlns:xlink="http://www.w3.org/1999/xlink">
    <!-- Generator: Sketch 3.6.1 (26313) - http://www.bohemiancoding.com/sketch -->
    <title>aventura-carusel-arrow-left</title>
    <desc>Created with Sketch.</desc>
    <defs></defs>
    <g id="kit" stroke="none" stroke-width="1" fill="none" fill-rule="evenodd">
        <g id="aventura-carusel-arrow-left" fill="#FFFFFF">
            <path d="M14.5,11.5730241 C14.5,11.483677 14.4553265,11.3831615 14.3883162,11.3161512 L9.1838488,6.11168385 C9.11683849,6.04467354 9.01632302,6 8.92697595,6 C8.83762887,6 8.7371134,6.04467354 8.67010309,6.11168385 L8.11168385,6.67010309 C8.04467354,6.7371134 8,6.83762887 8,6.92697595 C8,7.01632302 8.04467354,7.11683849 8.11168385,7.1838488 L12.5008591,11.5730241 L8.11168385,15.9621993 C8.04467354,16.0292096 8,16.1297251 8,16.2190722 C8,16.3195876 8.04467354,16.4089347 8.11168385,16.475945 L8.67010309,17.0343643 C8.7371134,17.1013746 8.83762887,17.1460481 8.92697595,17.1460481 C9.01632302,17.1460481 9.11683849,17.1013746 9.1838488,17.0343643 L14.3883162,11.8298969 C14.4553265,11.7628866 14.5,11.6623711 14.5,11.5730241 L14.5,11.5730241 Z" id="" transform="translate(11.250000, 11.573024) rotate(-180.000000) translate(-11.250000, -11.573024) "></path>
        </g>
    </g>
</svg>