<?xml version="1.0" encoding="UTF-8" standalone="no"?>
<svg width="45px" height="45px" viewBox="0 0 45 45" version="1.1" xmlns="http://www.w3.org/2000/svg" xmlns:xlink="http://www.w3.org/1999/xlink" xmlns:sketch="http://www.bohemiancoding.com/sketch/ns">
    <!-- Generator: Sketch 3.3.2 (12043) - http://www.bohemiancoding.com/sketch -->
    <title>aventura-free-laundry</title>
    <desc>Created with Sketch.</desc>
    <defs></defs>
    <g id="utilities" stroke="none" stroke-width="1" fill="none" fill-rule="evenodd" sketch:type="MSPage">
        <g id="aventura-free-laundry" sketch:type="MSArtboardGroup" fill="#FFFFFF">
            <g id="Group" sketch:type="MSLayerGroup" transform="translate(7.000000, 11.000000)">
                <g id="Imported-Layers-Copy" sketch:type="MSShapeGroup">
                    <path d="M17.6997333,3.26235556 C17.0434,3.27042222 16.2641111,3.61973333 15.5241778,4.09151111 C15.2838889,4.24477778 15.1934444,4.40024444 15.3014889,4.70164444 C15.4850667,5.21302222 15.5474,5.75642222 15.5615778,6.30006667 C15.5750222,6.81511111 15.2936667,7.128 14.8534222,7.11773333 C14.4298,7.10795556 14.1885333,6.81975556 14.1794889,6.31326667 C14.1296222,3.49604444 11.5592889,1.33197778 8.76944444,1.65048889 C6.15071111,1.94944444 4.44204444,4.44131111 4.50535556,6.37608889 C4.52075556,6.84591111 4.24282222,7.12188889 3.82604444,7.1192 C3.3968,7.11651111 3.14868889,6.82635556 3.14526667,6.3228 C3.1262,3.59577778 5.13871111,1.08802222 7.89726667,0.401622222 C10.2903778,-0.193844444 12.9313556,0.7744 14.3887333,2.80084444 C14.5488444,3.02353333 14.6314667,3.03453333 14.8563556,2.88493333 C17.0270222,1.44124444 19.8823778,1.47717778 21.8594444,3.24353333 C22.0545111,3.41757778 22.1679333,3.29486667 22.3172889,3.22446667 C24.2953333,2.29362222 26.5173333,3.29413333 27.1240444,5.38388889 C27.1988444,5.64128889 27.2252444,5.90162222 27.2206,6.16513333 C27.2120444,6.6462 26.9705333,6.91386667 26.5518,6.92291111 C26.1264667,6.93195556 25.8947333,6.69068889 25.8546444,6.1974 C25.7668889,5.11597778 25.0316,4.35135556 23.9917333,4.26017778 C23.0296,4.1756 22.1520444,4.80113333 21.8912222,5.76693333 C21.8496667,5.91995556 21.8428222,6.08348889 21.8288889,6.24311111 C21.791,6.67577778 21.5289556,6.93048889 21.1246444,6.92095556 C20.7264444,6.91166667 20.4516889,6.64057778 20.449,6.20913333 C20.4453333,5.65742222 20.5817333,5.13088889 20.8650444,4.65764444 C21.0038889,4.42566667 20.9933778,4.28022222 20.7724,4.11522222 C19.9295556,3.48602222 18.9930889,3.18193333 17.6997333,3.26235556" id="Fill-1"></path>
                    <path d="M30.47,8.019 C30.2585556,7.61835556 29.8865111,7.62837778 29.5183778,7.62837778 C24.8274889,7.62715556 20.1363556,7.6274 15.4454667,7.6274 C10.769,7.6274 6.09277778,7.6274 1.41631111,7.62788889 C1.25522222,7.62788889 1.09217778,7.61835556 0.933533333,7.63986667 C0.505511111,7.6978 0.214622222,8.03904444 0.227822222,8.44775556 C0.241755556,8.87968889 0.527266667,9.17277778 0.9812,9.20577778 C1.17088889,9.21946667 1.36522222,9.23193333 1.55222222,9.20602222 C1.89737778,9.15786667 2.02986667,9.3148 2.12617778,9.63233333 C3.10713333,12.8668222 4.10373333,16.0966667 5.09568889,19.3279778 C5.36922222,20.218 5.46944444,20.2932889 6.39075556,20.2937778 C12.4155778,20.2976889 18.4404,20.3011111 24.4652222,20.3055111 C25.0631333,20.3057556 25.2362,20.1837778 25.4124444,19.6083556 C26.4195556,16.3205778 27.4330222,13.0347556 28.4227778,9.7416 C28.5430444,9.3412 28.6987556,9.13855556 29.1377778,9.20455556 C29.3670667,9.23902222 29.6071111,9.22337778 29.8403111,9.2048 C30.4553333,9.15566667 30.7594222,8.56777778 30.47,8.019 L30.47,8.019 Z M8.8198,18.9723111 L6.49733333,18.9723111 L6.10695556,17.7342 L8.8198,17.7342 L8.8198,18.9723111 L8.8198,18.9723111 Z M8.8198,16.4692 L5.70826667,16.4692 L5.2096,14.8876444 L8.8198,14.8876444 L8.8198,16.4692 L8.8198,16.4692 Z M8.8198,13.6893778 L4.83168889,13.6893778 L4.3274,12.0892444 L8.8198,12.0892444 L8.8198,13.6893778 L8.8198,13.6893778 Z M8.8198,10.8198444 L3.92724444,10.8198444 L3.43004444,9.24317778 L8.8198,9.24317778 L8.8198,10.8198444 L8.8198,10.8198444 Z M10.3241111,17.7342 L14.7761778,17.7342 L14.7761778,18.9723111 L10.3241111,18.9723111 L10.3241111,17.7342 Z M10.3241111,14.8876444 L14.7761778,14.8876444 L14.7761778,16.4692 L10.3241111,16.4692 L10.3241111,14.8876444 Z M10.3241111,12.0892444 L14.7761778,12.0892444 L14.7761778,13.6893778 L10.3241111,13.6893778 L10.3241111,12.0892444 Z M10.3241111,9.24317778 L14.7761778,9.24317778 L14.7761778,10.8198444 L10.3241111,10.8198444 L10.3241111,9.24317778 Z M15.9742,17.7342 L20.0586222,17.7342 L20.0586222,18.9723111 L15.9742,18.9723111 L15.9742,17.7342 Z M15.9742,14.8876444 L20.0586222,14.8876444 L20.0586222,16.4692 L15.9742,16.4692 L15.9742,14.8876444 Z M15.9742,12.0892444 L20.0586222,12.0892444 L20.0586222,13.6893778 L15.9742,13.6893778 L15.9742,12.0892444 Z M15.9742,9.24317778 L20.0586222,9.24317778 L20.0586222,10.8198444 L15.9742,10.8198444 L15.9742,9.24317778 Z M23.9010444,18.9723111 L21.5629333,18.9723111 L21.5629333,17.7342 L24.2914222,17.7342 L23.9010444,18.9723111 L23.9010444,18.9723111 Z M24.6901111,16.4692 L21.5629333,16.4692 L21.5629333,14.8876444 L25.1887778,14.8876444 L24.6901111,16.4692 L24.6901111,16.4692 Z M25.5666889,13.6893778 L21.5629333,13.6893778 L21.5629333,12.0892444 L26.0709778,12.0892444 L25.5666889,13.6893778 L25.5666889,13.6893778 Z M26.4711333,10.8198444 L21.5629333,10.8198444 L21.5629333,9.24317778 L26.9683333,9.24317778 L26.4711333,10.8198444 L26.4711333,10.8198444 Z" id="Fill-2"></path>
                </g>
            </g>
        </g>
    </g>
</svg>