<?xml version="1.0" encoding="UTF-8" standalone="no"?>
<svg width="45px" height="45px" viewBox="0 0 45 45" version="1.1" xmlns="http://www.w3.org/2000/svg" xmlns:xlink="http://www.w3.org/1999/xlink" xmlns:sketch="http://www.bohemiancoding.com/sketch/ns">
    <!-- Generator: Sketch 3.3.2 (12043) - http://www.bohemiancoding.com/sketch -->
    <title>aventura-free-champagne</title>
    <desc>Created with Sketch.</desc>
    <defs></defs>
    <g id="utilities" stroke="none" stroke-width="1" fill="none" fill-rule="evenodd" sketch:type="MSPage">
        <g id="aventura-free-champagne" sketch:type="MSArtboardGroup" fill="#FFFFFF">
            <g id="Imported-Layers" sketch:type="MSLayerGroup" transform="translate(18.000000, 7.000000)">
                <path d="M8.92889109,24.0186667 C8.98467327,25.7668444 8.8619703,27.5118222 8.83880198,29.2586667 C8.81875248,30.7752889 8.23428713,31.4869333 6.72941584,31.7674667 C5.21661386,32.0494222 3.68518812,32.0663111 2.17354455,31.7520889 C0.751811881,31.4566222 0.194168317,30.6970667 0.142841584,29.2563556 C0.0467821782,26.5615111 0.0769009901,23.8672889 0.165118812,21.1744889 C0.24219802,18.8210667 0.408386139,16.4745778 1.19994059,14.2207111 C1.31578218,13.8907556 1.44561386,13.7327111 1.8149703,13.7442667 C2.43365347,13.7635556 3.02052475,13.7396444 3.58458416,14.1425778 C4.06283168,14.4843556 4.71938614,14.4678222 5.18631683,14.1137778 C5.68283168,13.7372444 6.19431683,13.7488889 6.73859406,13.7524444 C7.69241584,13.7585778 7.47757426,13.6837333 7.82331683,14.5126222 C8.56657426,16.2945778 8.74862376,18.1685333 8.86161386,20.0677333 C8.93994059,21.3856 8.91463366,22.7018667 8.92889109,24.0186667 L8.92889109,24.0186667 Z M8.3690198,25.2587556 C8.3690198,24.2230222 8.36010891,23.1872 8.37392079,22.1516444 C8.37864356,21.7912 8.25023762,21.7008 7.89415842,21.7392889 C5.61885149,21.9848 3.34069307,21.9953778 1.06538614,21.7383111 C0.713049505,21.6984889 0.546950495,21.7496 0.549891089,22.1556444 C0.564326733,24.2122667 0.564148515,26.2689778 0.548910891,28.3255111 C0.546326733,28.6667556 0.679544554,28.8022222 0.99080198,28.8556444 C3.30549505,29.2533333 5.61876238,29.2541333 7.93381188,28.8567111 C8.25237624,28.8020444 8.38087129,28.6544 8.37534653,28.3214222 C8.35832673,27.3008 8.36910891,26.2796444 8.3690198,25.2587556 L8.3690198,25.2587556 Z" id="Fill-1" sketch:type="MSShapeGroup"></path>
                <path d="M4.41240594,0.0556444444 C5.77755446,0.0411555556 6.18781188,0.810222222 6.13122772,2.03857778 C6.09674257,2.788 6.00433663,3.53146667 5.86960396,4.27706667 C5.72845545,5.05768889 5.93688119,5.86435556 6.04327723,6.65448889 C6.23682178,8.09146667 6.50833663,9.51546667 6.81905941,10.9311111 C6.89506931,11.2773333 6.7980297,11.3905778 6.45959406,11.3904889 C6.07072277,11.3903111 5.72016832,11.3667556 5.37763366,11.1067556 C4.76082178,10.6386667 3.98174257,10.6647111 3.33908911,11.0960889 C3.24071287,11.1621333 3.15650495,11.2557333 3.05073267,11.3028444 C2.7400099,11.4411556 2.37885149,11.4717333 2.10341584,11.3251556 C1.86763366,11.1997333 2.06082178,10.8958222 2.1029703,10.6761778 C2.48221782,8.70133333 2.9029901,6.73262222 2.92553465,4.70853333 C2.92954455,4.35013333 2.85175248,4.01306667 2.76932673,3.66444444 C2.5669604,2.80906667 2.54824752,1.92817778 2.74161386,1.07155556 C2.90236634,0.359555556 3.483,0.0476444444 4.41240594,0.0556444444" id="Fill-2" sketch:type="MSShapeGroup"></path>
            </g>
        </g>
    </g>
</svg>