<?xml version="1.0" encoding="UTF-8" standalone="no"?>
<svg width="731px" height="130px" viewBox="0 0 731 130" version="1.1" xmlns="http://www.w3.org/2000/svg" xmlns:xlink="http://www.w3.org/1999/xlink">
    <!-- Generator: Sketch 3.6.1 (26313) - http://www.bohemiancoding.com/sketch -->
    <title>aventura-africa-space-bg</title>
    <desc>Created with Sketch.</desc>
    <defs>
        <path id="path-1" d="M0,0.281 L64.1813514,0.281 L64.1813514,48 L0,48"></path>
        <path id="path-3" d="M0,0.281 L64.1813514,0.281 L64.1813514,48 L0,48"></path>
        <path id="path-5" d="M0,0.540846154 L68.5631786,0.540846154 L68.5631786,32 L0,32"></path>
        <path id="path-7" d="M1,0.540846154 L69.5631786,0.540846154 L69.5631786,32 L1,32"></path>
        <path id="path-9" d="M-2.27373675e-13,0.540846154 L68.5631786,0.540846154 L68.5631786,32 L-2.27373675e-13,32"></path>
        <path id="path-11" d="M1.64845915e-12,0.688428571 L91.5764528,0.688428571 L91.5764528,61 L1.64845915e-12,61"></path>
        <path id="path-13" d="M-1.98951966e-13,0.688428571 L91.5764528,0.688428571 L91.5764528,61 L-1.98951966e-13,61"></path>
        <path id="path-15" d="M5.1159077e-13,0.596578529 L79.3583355,0.596578529 L79.3583355,52.8613887 L5.1159077e-13,52.8613887"></path>
        <path id="path-17" d="M5.1159077e-13,0.596578529 L79.3583355,0.596578529 L79.3583355,52.8613887 L5.1159077e-13,52.8613887"></path>
    </defs>
    <g id="kit" stroke="none" stroke-width="1" fill="none" fill-rule="evenodd">
        <g id="aventura-africa-space-bg">
            <g id="Group-22" transform="translate(7.000000, 0.000000)">
                <g id="Page-1" transform="translate(146.548559, 54.962474)">
                    <path d="M19.9314595,40.79805 C10.7084865,34.12355 8.65659459,21.2173 15.3568649,12.0298 C22.0571351,2.8423 35.0132162,0.7983 44.2361892,7.47455 C53.4591622,14.14905 55.5110541,27.05355 48.8107838,36.24105 C42.1087568,45.42855 29.1544324,47.47255 19.9314595,40.79805 M42.6498378,9.6498 C34.6302432,3.84505 23.3676757,5.62305 17.5405135,13.61005 C11.7151081,21.5988 13.499973,32.81805 21.5178108,38.6228 C29.5356486,44.4258 40.799973,42.6478 46.6253784,34.6608 C52.4525405,26.6738 50.6676757,15.4528 42.6498378,9.6498" id="Fill-1" fill="#FEFEFE"></path>
                    <g id="Group-5">
                        <mask id="mask-2" fill="white">
                            <use xlink:href="#path-1"></use>
                        </mask>
                        <g id="Clip-4"></g>
                        <path d="M2.79587838,2.953425 C4.12398649,3.035675 8.29452703,4.330675 17.329527,9.708425 C17.9970946,9.029425 18.7068243,8.408175 19.4481757,7.839425 C2.89601351,-2.130325 1.10587838,0.298675 0.429527027,1.226175 C-0.541959459,2.559675 -0.478716216,4.932675 7.36168919,12.447175 C8.93047297,13.950425 10.6977703,15.546425 12.6196622,17.201925 C12.9341216,16.321675 13.3100676,15.457175 13.7527703,14.611925 C7.15439189,8.859675 3.38087838,4.633425 2.79587838,2.953425" id="Fill-3" fill="#FEFEFE" mask="url(#mask-2)"></path>
                    </g>
                    <path d="M15.8717703,16.42965 C15.4554189,17.2994 15.1216351,18.19015 14.8563649,19.09665 C18.8477162,22.4269 23.3889324,25.94965 28.2147432,29.44265 C33.0387973,32.9339 37.8048784,36.14865 42.2178514,38.9014 C43.0013649,38.3694 43.7497432,37.77615 44.4506892,37.1129 C40.1519054,34.46515 35.2154189,31.18565 29.8010946,27.26565 C24.3850135,23.3474 19.7278514,19.68465 15.8717703,16.42965" id="Fill-6" fill="#FEFEFE"></path>
                    <g id="Group-10">
                        <mask id="mask-4" fill="white">
                            <use xlink:href="#path-3"></use>
                        </mask>
                        <g id="Clip-9"></g>
                        <path d="M51.5469324,31.07155 C51.232473,31.9483 50.8582838,32.8128 50.4173378,33.65455 C58.3438243,40.5548 60.8700405,44.10555 61.3584189,45.33755 C59.5735541,45.30255 54.3700405,43.0328 46.8405811,38.5598 C46.1712568,39.24055 45.4597703,39.86355 44.7184189,40.43405 C46.8932838,41.74305 48.9627432,42.9243 50.8828784,43.94455 C60.4800405,49.05105 62.7655811,48.3773 63.7388243,47.04555 C64.4151757,46.11805 66.182473,43.6698 51.5469324,31.07155" id="Fill-8" fill="#FEFEFE" mask="url(#mask-4)"></path>
                    </g>
                    <path d="M16.2991892,12.29195 C22.7289189,3.47545 35.1158108,1.5207 43.9663514,7.92745 C52.8168919,14.33245 54.7791892,26.6717 48.3494595,35.4882 C41.9197297,44.3047 29.5310811,46.25945 20.6822973,39.8527 C11.8317568,33.4477 9.86945946,21.10845 16.2991892,12.29195 L16.2991892,12.29195 Z" id="Stroke-11" stroke="#FEFEFE" stroke-width="0.756"></path>
                </g>
                <path d="M504.496636,79.6922237 C506.39128,80.6092145 508.666981,81.981524 510.465828,82.8921615 C511.213042,83.2691231 512.179523,83.4893703 512.637218,83.9658666 C513.052337,84.39789 513.126845,85.6664292 513.414235,86.4161168 C513.742072,87.2716925 514.323238,88.004438 514.561665,88.5635271 C514.823509,89.1734425 515.038519,89.8235953 515.240756,90.4292751 C515.451509,91.0624858 515.687807,91.6363992 515.917719,92.2950231 C516.351997,93.5402669 516.511658,95.5669648 517.567549,95.9778105 C518.410559,96.3060636 519.30679,95.7109726 520.000783,95.7490923 C520.594722,95.2281229 520.688389,94.4551399 521.169501,93.7541608 C521.791115,92.8541121 522.853393,92.1298377 523.336633,91.2319067 C523.592091,90.7575281 523.587833,90.1857325 523.802843,89.7134717 C524.303114,88.6164712 525.120579,87.8138395 525.791155,86.8608468 C526.73209,86.361055 527.964673,86.7274278 529.320727,86.6893081 C530.270178,86.6617772 531.289879,86.3504662 532.341513,86.3631728 C532.803465,86.3695261 533.804008,86.5728312 534.366014,86.5622424 C534.838611,86.5558891 535.494285,86.3017577 536.124414,86.2678735 C538.393729,86.1450433 540.839735,86.7824896 541.401742,85.3847669 C541.936074,84.0548126 540.865281,83.430073 540.5268,82.3521323 C539.70082,81.6659775 539.48581,80.5075619 538.82162,79.7578743 C538.585322,79.4910363 538.029702,79.342793 537.665675,78.9912446 C537.110055,78.4554509 536.786475,77.6189351 536.273431,77.1847939 C535.875343,76.8459521 535.351655,76.7442995 534.991885,76.3800445 C534.389431,75.7680114 533.750787,74.50159 533.833811,73.8133175 C533.918964,73.1229272 534.521418,72.2377028 534.827967,71.4880152 C535.18135,70.6176152 535.464482,69.632856 535.771031,68.8704618 C536.858855,66.159727 538.504427,63.7052413 539.187776,60.918267 C538.425661,60.4332996 537.857268,61.1808694 536.820536,60.4756548 C535.57518,61.0283906 534.357499,61.6234816 532.952482,62.2037483 C531.621974,62.7543663 530.346815,63.8238359 529.04611,64.0589074 C528.560741,64.1457357 528.030666,63.9360773 527.530395,64.0123167 C527.066314,64.0843206 526.808727,64.5650525 526.278653,64.4612822 C524.984335,63.3261619 523.775169,62.1190378 522.527684,60.8314387 C521.112023,59.3659477 519.110939,57.5976168 518.325407,55.9563515 C516.90336,55.3316118 516.962966,53.9233004 515.193923,53.4828059 C515.004458,53.4616283 514.964011,53.7157597 514.82138,53.7856458 C514.774546,54.7894649 514.357299,55.8568167 514.310465,56.8098094 C514.267889,57.6230299 514.557407,58.4426036 514.538248,59.230411 C514.493543,61.0876879 513.99753,62.8221347 514.001787,64.6010544 C514.001787,65.2766204 514.333882,65.9606574 514.346655,66.6425766 C514.361557,67.4727392 514.289177,69.0758847 513.96134,69.7069777 C513.488743,70.6197329 511.532364,71.0072833 510.436025,71.676496 C509.648364,72.1593456 508.918181,72.7734965 507.994276,73.2859948 C507.01928,73.8281418 506.223104,74.5947715 505.514209,75.0225593 C504.051714,75.9035482 500.841464,76.2826275 501.688732,78.4236845 C502.535999,79.1776076 503.604663,79.2602003 504.496636,79.6922237 M509.922981,74.7027773 C510.563754,74.2495763 511.151306,73.6629564 511.904906,73.230933 C512.588255,72.8391471 513.401462,72.3097067 514.063523,72.0894595 C514.770289,71.8522702 515.621814,72.0831062 516.194465,71.4922507 C516.743699,68.2880774 516.277489,65.2554428 516.332838,61.9898543 C516.349868,60.9436801 516.358383,59.3447701 516.756471,58.7983876 C516.967224,58.8915691 517.152431,58.6840285 517.139658,58.9148645 C518.329664,59.5014844 519.349366,61.2422845 520.420159,62.2651634 C520.79483,62.6230651 521.265298,62.8284879 521.663386,63.1969785 C523.076918,64.5036374 524.243508,66.5155109 525.923141,66.9814185 C526.704416,67.1974302 527.43247,66.7844666 528.266965,66.5875148 C529.120619,66.3884452 529.867832,66.2762039 530.525635,66.0305435 C532.009418,65.4735722 533.252645,64.6264676 534.951438,64.74718 C534.42775,66.5303353 533.887031,68.7857514 533.124916,70.6938546 C532.869459,71.3334186 532.43731,71.7908551 532.198883,72.3478264 C532.092442,72.5956045 532.096699,73.2034021 531.937039,73.6523676 C531.694354,74.332169 531.249432,74.5481807 531.255818,74.9653798 C531.264334,75.6112971 532.686381,76.8078324 533.165364,77.3457438 C535.028075,79.4296213 536.763058,80.8273439 538.22981,83.0361693 C538.434176,83.3432447 539.117525,83.6757333 538.721566,84.1522297 C538.42779,84.7748516 537.53156,84.5969596 537.050448,84.6139017 C536.428834,84.6329616 535.828509,84.575782 535.240957,84.6160195 C531.651778,84.8743864 527.819914,84.4211854 524.40104,85.0543961 C522.438274,87.3606385 521.011969,90.6706999 518.783102,92.4750328 C517.859197,92.0493627 517.754885,90.8973004 517.45898,89.9972517 C517.143916,89.0400235 517.069407,88.1039728 516.799048,87.1679222 C516.671319,86.7274278 516.288133,86.2657558 516.1306,85.721491 C515.902817,84.9315659 516.192336,83.8853917 515.902817,83.2987717 C515.251401,81.9857595 512.437109,81.3589021 510.91075,80.5372106 C509.105517,79.5609225 507.619605,78.6524027 506.214588,77.7248232 C506.891551,76.3355715 508.545639,75.6790654 509.922981,74.7027773" id="Fill-5-Copy-2" fill="#FEFEFE"></path>
                <path d="M10.4018823,87.9310073 C11.9175973,88.6646 13.7381584,89.7624476 15.1772361,90.4909576 C15.7750069,90.7925268 16.5481918,90.9687246 16.9143477,91.3499217 C17.2464425,91.6955404 17.3060493,92.7103717 17.5359611,93.3101218 C17.7982309,93.9945824 18.2631637,94.5807788 18.4539054,95.0280501 C18.6633806,95.5159823 18.8353887,96.0361046 18.9971785,96.5206484 C19.1657805,97.027217 19.3548191,97.4863477 19.5387486,98.0132468 C19.8861709,99.0094419 20.0138997,100.6308 20.8586128,100.959477 C21.5330208,101.222079 22.2500051,100.746006 22.8051996,100.776502 C23.2803507,100.359727 23.3552849,99.7413403 23.7401744,99.180557 C24.2374651,98.4605181 25.0872874,97.8810985 25.4738798,97.1627538 C25.6782459,96.7832509 25.6748398,96.3258144 25.8468479,95.9480057 C26.2470648,95.0704053 26.9010362,94.4283 27.4374971,93.6659058 C28.1902455,93.2660724 29.1763118,93.5591706 30.261155,93.5286748 C31.0207155,93.5066501 31.8364768,93.2576014 32.6777837,93.2677666 C33.0473457,93.2728492 33.8477795,93.4354933 34.2973848,93.4270223 C34.6754621,93.4219397 35.2000016,93.2186345 35.7041046,93.1915272 C37.5195565,93.093263 39.4763616,93.60322 39.925967,92.4850419 C40.3534327,91.4210785 39.4967982,90.9212867 39.2260132,90.0589342 C38.5652296,89.5100104 38.3932214,88.5832779 37.8618697,87.9835278 C37.6728311,87.7700575 37.2283349,87.6514628 36.9371132,87.3702241 C36.492617,86.9415891 36.2337533,86.2723764 35.8233181,85.9250635 C35.5048477,85.65399 35.0858972,85.572668 34.7980817,85.281264 C34.3161184,84.7916375 33.8052032,83.7785004 33.8716222,83.2278823 C33.9397442,82.6755701 34.4217075,81.9673906 34.6669468,81.3676405 C34.9496532,80.6713205 35.1761589,79.8835132 35.4213982,79.2735978 C36.291657,77.1050099 37.6081151,75.1414214 38.1547944,72.9118419 C37.5451023,72.523868 37.0903878,73.1219239 36.2610021,72.5577522 C35.2647176,72.9999408 34.2905726,73.4760136 33.1665593,73.940227 C32.1021526,74.3807214 31.0820254,75.2362971 30.0414615,75.4243543 C29.6531659,75.4938169 29.2291063,75.3260902 28.8288895,75.3870817 C28.4576244,75.4446848 28.2515553,75.8292704 27.8274957,75.7462541 C26.792041,74.8381579 25.8247083,73.8724586 24.8267206,72.8423794 C23.694192,71.6699865 22.0933245,70.2553218 21.4648988,68.9423096 C20.327261,68.4425178 20.3749464,67.3158687 18.9597114,66.9634731 C18.8081399,66.946531 18.775782,67.1498361 18.6616776,67.205745 C18.6242105,68.0088003 18.2904125,68.8626817 18.2529454,69.6250759 C18.2188844,70.2756523 18.4504993,70.9313113 18.4351718,71.5615571 C18.3994078,73.0473787 18.002597,74.4349361 18.0060031,75.8580719 C18.0060031,76.3985247 18.271679,76.9457543 18.2818973,77.4912897 C18.2938186,78.1554197 18.2359149,79.4379361 17.9736451,79.9428105 C17.5955679,80.6730147 16.0304644,80.983055 15.1533934,81.5184252 C14.5232647,81.9047049 13.9391183,82.3960256 13.1999944,82.8060242 C12.4199972,83.2397418 11.7830563,83.8530456 11.2159405,84.1952758 C10.0459447,84.9000669 7.47774449,85.2033304 8.15555861,86.916176 C8.83337274,87.5193145 9.68830412,87.5853886 10.4018823,87.9310073 M14.7429582,83.9394502 C15.2555764,83.5768894 15.7256184,83.1075935 16.3284983,82.7619748 C16.8751775,82.4485461 17.5257428,82.0249937 18.0553916,81.848796 C18.6208044,81.6590445 19.3020246,81.8437133 19.7601452,81.3710289 C20.1995322,78.8076903 19.8265642,76.3815826 19.8708435,73.7691119 C19.8844679,72.9321725 19.8912801,71.6530444 20.2097505,71.2159384 C20.3783525,71.2904837 20.5265179,71.1244511 20.5162996,71.30912 C21.4683049,71.7784159 22.2840661,73.171056 23.1407006,73.9893591 C23.4404375,74.2756804 23.8168116,74.4400187 24.1352821,74.7348111 C25.2661077,75.7801383 26.1993794,77.3896371 27.5430863,77.7623632 C28.1681058,77.9351725 28.7505491,77.6048017 29.418145,77.4472402 C30.1010682,77.2879846 30.698839,77.1981915 31.2250816,77.0016632 C32.4121079,76.5560861 33.4066894,75.8784024 34.7657237,75.9749724 C34.3467733,77.4014966 33.9141985,79.2058295 33.3045063,80.732312 C33.1001403,81.2439633 32.754421,81.6099125 32.5636794,82.0554895 C32.4785268,82.253712 32.4819329,82.7399501 32.3542041,83.0991224 C32.1600564,83.6429636 31.8041188,83.815773 31.809228,84.1495322 C31.8160402,84.666266 32.9536779,85.6234943 33.3368643,86.0538234 C34.8270336,87.7209254 36.2150198,88.8391035 37.3884216,90.6061638 C37.5519145,90.8518242 38.0985937,91.117815 37.7818263,91.4990121 C37.5468053,91.9971096 36.829821,91.8547961 36.4449316,91.8683497 C35.9476408,91.8835976 35.4673806,91.837854 34.9973386,91.8700439 C32.1259954,92.0767375 29.0605043,91.7141767 26.3254051,92.2207453 C24.7551925,94.0657392 23.6141486,96.7137883 21.8310547,98.1572546 C21.0919307,97.8167186 21.0084812,96.8950687 20.7717572,96.1750298 C20.5197057,95.4092472 20.460099,94.6604066 20.2438115,93.9115661 C20.1416285,93.5591706 19.8350794,93.189833 19.7090537,92.7544212 C19.5268273,92.1224811 19.7584421,91.2855417 19.5268273,90.8162458 C19.0056938,89.765836 16.7542609,89.26435 15.5331737,88.6069968 C14.0889868,87.8259664 12.9002575,87.0991506 11.7762441,86.3570869 C12.3178142,85.2456856 13.6410845,84.7204807 14.7429582,83.9394502" id="Fill-5-Copy" fill="#FEFEFE" transform="translate(24.043420, 84.000640) rotate(49.000000) translate(-24.043420, -84.000640) "></path>
                <g id="Page-1" transform="translate(643.548559, 63.962474)">
                    <path d="M55.9441964,23.2791154 C56.3144107,25.0839615 57.6228393,26.8431154 59.2456964,27.6985769 C60.7772679,28.3738077 62.3012321,28.2468846 63.5690893,27.3076538 C65.2350536,26.0688846 66.2493393,23.5380385 65.9805536,21.2889615 C65.8284107,20.0324231 65.2299821,18.3570385 63.2369107,17.5142692 C61.1348036,16.7654231 58.2263393,17.3061154 57.0878036,19.5323462 C56.6186964,20.6898846 56.0963393,21.9921154 55.9441964,23.2791154 M61.1804464,30.6584231 C60.1915179,30.6584231 59.1670893,30.4325 58.1426607,29.9857308 C55.6956964,28.6961923 53.8725179,26.1881923 53.4160893,23.5507308 L53.3856607,23.3857308 L53.400875,23.2207308 C53.560625,21.4844231 54.2224464,19.8445769 54.7574821,18.5296538 L54.7980536,18.4433462 C56.5476964,14.9199615 60.9344821,14.0061154 64.1523036,15.1484231 C66.6195536,16.1866538 68.1764821,18.3037308 68.4985179,20.9868846 C68.8814107,24.1828077 67.5070536,27.5437308 65.0778393,29.3460385 C63.9038036,30.2167308 62.5725536,30.6584231 61.1804464,30.6584231" id="Fill-1" fill="#FEFEFE"></path>
                    <g id="Group-5">
                        <mask id="mask-6" fill="white">
                            <use xlink:href="#path-5"></use>
                        </mask>
                        <g id="Clip-4"></g>
                        <path d="M2.55549286,17.6518538 C3.38720714,22.0840077 6.48838571,26.2877 10.4998857,28.3946231 C15.5053857,30.5878538 19.2430286,29.0647769 21.4769929,27.3970077 C25.5239929,24.3787769 27.8898143,18.5047769 27.2330643,13.1105462 C26.7031,8.75200769 24.2789571,5.45708462 20.4094571,3.83246923 C15.1554571,1.98446923 7.98952857,3.36539231 5.17742143,8.92462308 C4.14538571,11.4529308 2.87245714,14.5752385 2.55549286,17.6518538 M15.3735286,31.9992385 C13.4286357,31.9992385 11.4178143,31.5626231 9.40192143,30.6817769 C4.58913571,28.1585462 0.942778571,23.1653923 0.0299214286,17.9209308 L-0.000507142857,17.7559308 L0.0147071429,17.5883923 C0.336742857,14.0624692 1.73138571,10.6533154 2.84963571,7.91685385 L2.89020714,7.83054615 C6.31088571,0.981776923 14.9399214,-0.787530769 21.3197786,1.46408462 C26.1376357,3.4847 29.1069571,7.50308462 29.7535643,12.8033923 C30.5117429,19.0607 27.7351357,25.8967769 22.9908143,29.4328538 C20.7010643,31.1387 18.1019571,31.9992385 15.3735286,31.9992385" id="Fill-3" fill="#FEFEFE" mask="url(#mask-6)"></path>
                    </g>
                </g>
                <path d="M113.111034,81.9540557 C113.481249,83.7589018 114.789677,85.5180557 116.412534,86.3735172 C117.944106,87.048748 119.46807,86.9218249 120.735927,85.9825941 C122.401892,84.7438249 123.416177,82.2129787 123.147392,79.9639018 C122.995249,78.7073633 122.39682,77.0319787 120.403749,76.1892095 C118.301642,75.4403633 115.393177,75.9810557 114.254642,78.2072864 C113.785534,79.3648249 113.263177,80.6670557 113.111034,81.9540557 M118.347284,89.3333633 C117.358356,89.3333633 116.333927,89.1074403 115.309499,88.660671 C112.862534,87.3711326 111.039356,84.8631326 110.582927,82.225671 L110.552499,82.060671 L110.567713,81.895671 C110.727463,80.1593633 111.389284,78.5195172 111.92432,77.2045941 L111.964892,77.1182864 C113.714534,73.5949018 118.10132,72.6810557 121.319142,73.8233633 C123.786392,74.8615941 125.34332,76.978671 125.665356,79.6618249 C126.048249,82.857748 124.673892,86.218671 122.244677,88.0209787 C121.070642,88.891671 119.739392,89.3333633 118.347284,89.3333633" id="Fill-1" fill="#FEFEFE" transform="translate(118.140683, 81.346003) rotate(44.000000) translate(-118.140683, -81.346003) "></path>
                <g id="Group-5" transform="translate(101.371433, 65.809635) rotate(44.000000) translate(-101.371433, -65.809635) translate(66.371433, 49.809635)">
                    <mask id="mask-8" fill="white">
                        <use xlink:href="#path-7"></use>
                    </mask>
                    <g id="Clip-4"></g>
                    <path d="M3.55549286,17.6518538 C4.38720714,22.0840077 7.48838571,26.2877 11.4998857,28.3946231 C16.5053857,30.5878538 20.2430286,29.0647769 22.4769929,27.3970077 C26.5239929,24.3787769 28.8898143,18.5047769 28.2330643,13.1105462 C27.7031,8.75200769 25.2789571,5.45708462 21.4094571,3.83246923 C16.1554571,1.98446923 8.98952857,3.36539231 6.17742143,8.92462308 C5.14538571,11.4529308 3.87245714,14.5752385 3.55549286,17.6518538 M16.3735286,31.9992385 C14.4286357,31.9992385 12.4178143,31.5626231 10.4019214,30.6817769 C5.58913571,28.1585462 1.94277857,23.1653923 1.02992143,17.9209308 L0.999492857,17.7559308 L1.01470714,17.5883923 C1.33674286,14.0624692 2.73138571,10.6533154 3.84963571,7.91685385 L3.89020714,7.83054615 C7.31088571,0.981776923 15.9399214,-0.787530769 22.3197786,1.46408462 C27.1376357,3.4847 30.1069571,7.50308462 30.7535643,12.8033923 C31.5117429,19.0607 28.7351357,25.8967769 23.9908143,29.4328538 C21.7010643,31.1387 19.1019571,31.9992385 16.3735286,31.9992385" id="Fill-3" fill="#FEFEFE"></path>
                </g>
                <g id="Page-1-Copy-7" transform="translate(459.659695, 84.755857) rotate(44.000000) translate(-459.659695, -84.755857) translate(425.159695, 63.255857)">
                    <path d="M48.9976127,16.0857174 C49.367827,17.8905635 50.6762556,19.6497174 52.2991127,20.5051789 C53.8306842,21.1804097 55.3546484,21.0534866 56.6225056,20.1142558 C58.2884699,18.8754866 59.3027556,16.3446405 59.0339699,14.0955635 C58.881827,12.8390251 58.2833984,11.1636405 56.290327,10.3208712 C54.1882199,9.57202507 51.2797556,10.1127174 50.1412199,12.3389482 C49.6721127,13.4964866 49.1497556,14.7987174 48.9976127,16.0857174 M54.2338627,23.4650251 C53.2449342,23.4650251 52.2205056,23.239102 51.196077,22.7923328 C48.7491127,21.5027943 46.9259342,18.9947943 46.4695056,16.3573328 L46.439077,16.1923328 L46.4542913,16.0273328 C46.6140413,14.2910251 47.2758627,12.6511789 47.8108984,11.3362558 L47.8514699,11.2499482 C49.6011127,7.72656354 53.9878984,6.81271738 57.2057199,7.95502507 C59.6729699,8.99325584 61.2298984,11.1103328 61.5519342,13.7934866 C61.934827,16.9894097 60.5604699,20.3503328 58.1312556,22.1526405 C56.9572199,23.0233328 55.6259699,23.4650251 54.2338627,23.4650251" id="Fill-1" fill="#FEFEFE"></path>
                    <g id="Group-5" transform="translate(-0.000000, -0.000000)">
                        <mask id="mask-10" fill="white">
                            <use xlink:href="#path-9"></use>
                        </mask>
                        <g id="Clip-4"></g>
                        <path d="M3.07738122,28.2691808 C3.9090955,32.7013347 7.01027408,36.905027 11.0217741,39.0119501 C16.0272741,41.2051808 19.7649169,39.6821039 21.9988812,38.0143347 C26.0458812,34.9961039 28.4117026,29.1221039 27.7549526,23.7278731 C27.2249884,19.3693347 24.8008455,16.0744116 20.9313455,14.4497962 C15.6773455,12.6017962 8.51141693,13.9827193 5.69930979,19.5419501 C4.66727408,22.0702578 3.3943455,25.1925655 3.07738122,28.2691808 M15.8954169,42.6165655 C13.9505241,42.6165655 11.9397026,42.1799501 9.92380979,41.2991039 C5.11102408,38.7758731 1.46466693,33.7827193 0.55180979,28.5382578 L0.521381218,28.3732578 L0.536595504,28.2057193 C0.858631218,24.6797962 2.25327408,21.2706424 3.37152408,18.5341808 L3.4120955,18.4478731 C6.83277408,11.5991039 15.4618098,9.82979623 21.8416669,12.0814116 C26.6595241,14.102027 29.6288455,18.1204116 30.2754526,23.4207193 C31.0336312,29.678027 28.2570241,36.5141039 23.5127026,40.0501808 C21.2229526,41.756027 18.6238455,42.6165655 15.8954169,42.6165655" id="Fill-3" fill="#FEFEFE"></path>
                    </g>
                </g>
                <g id="Page-1" transform="translate(343.089819, 74.258580) rotate(132.000000) translate(-343.089819, -74.258580) translate(297.089819, 43.258580)">
                    <path d="M21.2438415,42.9433029 C16.8243698,42.9433029 11.9848226,41.1917314 7.31018113,39.19616 C6.86406792,39.0061886 6.65750189,38.48856 6.84670943,38.0406457 C7.03418113,37.5909886 7.5497283,37.3870743 7.99757736,37.5753029 C13.8092,40.0553886 19.8516906,42.1503029 24.687766,40.7141886 C25.1564453,40.5695314 25.642483,40.84316 25.7778792,41.3085029 C25.9167472,41.7738457 25.6511623,42.2635886 25.1859547,42.4012743 C23.9239925,42.7777314 22.6030113,42.9433029 21.2438415,42.9433029" id="Fill-1" fill="#FEFEFE"></path>
                    <path d="M26.5972,44.4853829 C26.3021057,44.4853829 26.0035396,44.4191543 25.7223321,44.2797257 C25.1373509,43.9869257 24.550634,43.6854114 23.8319925,43.1956686 C22.9328226,42.5821829 22.6967472,41.3534686 23.3060302,40.4489257 C23.9153132,39.54264 25.1390868,39.3038686 26.0434642,39.92084 C26.5607472,40.2728971 26.9808226,40.4890114 27.4755396,40.7364971 C28.4493509,41.2227543 28.8468604,42.40964 28.3642943,43.3873829 C28.0188604,44.0845257 27.3227849,44.4853829 26.5972,44.4853829" id="Fill-3" fill="#FEFEFE"></path>
                    <path d="M79.9134566,57.45468 C79.8770038,57.45468 79.8440226,57.4529371 79.8075698,57.4477086 C69.5382868,56.3235657 58.9964755,52.9842514 48.801834,49.7547371 C41.4696075,47.4332514 33.8839472,45.0298514 26.4024377,43.4438514 C25.8868906,43.3323086 25.5588151,42.8251371 25.6664377,42.3109943 C25.7757962,41.7933657 26.2913434,41.4674514 26.7947396,41.5720229 C34.3699849,43.18068 41.9973057,45.5945371 49.3746642,47.9317086 C59.4807774,51.1333371 69.9323245,54.44128 80.0158717,55.5479943 C80.5366264,55.6037657 80.9150415,56.0778229 80.8577585,56.6024229 C80.805683,57.0921657 80.3925509,57.45468 79.9134566,57.45468" id="Fill-5" fill="#FEFEFE"></path>
                    <g id="Group-9" transform="translate(0.000000, 0.000000)">
                        <mask id="mask-12" fill="white">
                            <use xlink:href="#path-11"></use>
                        </mask>
                        <g id="Clip-8"></g>
                        <path d="M6.57209811,39.4849514 C5.26326792,39.4849514 3.79821132,39.2967229 2.85043774,38.2405514 L2.3609283,37.69678 L2.69421132,37.0414657 C6.8689283,28.81518 6.15723019,20.6063229 0.637230189,13.3002657 L0.000173584909,12.4567229 L0.833381132,11.8101229 C3.20975849,9.96618 6.50266415,10.0777229 9.70356981,10.1840371 C11.2623623,10.2380657 12.7430415,10.2886086 14.0657585,10.1178086 C14.8156453,9.26380857 15.5204,8.35403714 16.2633434,7.39546571 C18.0807774,5.04783714 19.9607019,2.62178 22.5748906,1.04275143 L23.1633434,0.687208571 L23.7274943,1.08109429 C24.5155698,1.62835143 25.4043245,2.24532286 26.2705132,3.55072286 C26.5933811,4.04046571 26.4614566,4.70275143 25.973683,5.02866571 C25.4876453,5.35632286 24.8262868,5.22560857 24.4999472,4.73238 C24.0277962,4.01606571 23.5660604,3.59778 23.0956453,3.24398 C21.1046264,4.61909429 19.5631925,6.60943714 17.9419094,8.70435143 C17.1277962,9.75355143 16.2859094,10.8393514 15.3867396,11.8345229 L15.1385132,12.1098943 L14.7739849,12.1691514 C13.1544377,12.4392943 11.3630415,12.3782943 9.63066415,12.3172943 C7.13798491,12.2336371 4.76681509,12.1517229 3.02055094,12.9621514 C8.25413585,20.47038 8.93632453,28.7960086 5.00115472,37.1634657 C5.69549434,37.4074657 6.70923019,37.3604086 7.50251321,37.3255514 L7.65353208,38.3852086 L7.7004,39.4500943 C7.35149434,39.46578 6.96960755,39.4849514 6.57209811,39.4849514" id="Fill-7" fill="#FEFEFE" mask="url(#mask-12)"></path>
                    </g>
                    <path d="M38.2480453,17.6718743 C38.1716679,17.6718743 38.0935547,17.66316 38.0137057,17.6422457 C36.6406491,17.3128457 35.1998943,17.1908457 33.6758189,17.0618743 C31.0546868,16.8405314 28.3467623,16.6122171 25.8853283,15.2423314 L25.5190642,15.0384171 L25.4079698,14.6340743 C24.5383094,11.4864743 23.4568755,7.57027429 24.4185358,3.88761714 C24.5591396,3.35256 25.1024604,3.03187429 25.6371019,3.17130286 C26.1717434,3.31247429 26.4911396,3.85973143 26.3505358,4.39478857 C25.5624604,7.40644571 26.4338566,10.8416171 27.2149887,13.6807314 C29.2146868,14.6724171 31.4678189,14.8641314 33.8441962,15.06456 C35.3769509,15.1935314 36.9600453,15.3277314 38.4823849,15.6954743 C39.0170264,15.8244457 39.3485736,16.3664743 39.2183849,16.9050171 C39.1090264,17.3633886 38.699366,17.6718743 38.2480453,17.6718743" id="Fill-10" fill="#FEFEFE"></path>
                    <path d="M39.2701132,19.3774343 C38.8726038,19.3774343 38.4698868,19.2571771 38.1244528,19.00272 L37.1003019,18.2550343 C36.2271698,17.6188914 36.0344906,16.3936629 36.6680755,15.5170057 C37.3016604,14.6403486 38.525434,14.4434057 39.3950943,15.0830343 L40.4192453,15.83072 C41.2923774,16.4668629 41.4850566,17.6920914 40.8514717,18.5687486 C40.4695849,19.0968343 39.8741887,19.3774343 39.2701132,19.3774343" id="Fill-12" fill="#FEFEFE"></path>
                    <path d="M27.9582792,28.6022029 L27.9548075,28.6022029 C27.4271094,28.60046 27.0000906,28.1682314 27.0018264,27.6384029 C27.0157132,24.1073743 30.2982038,22.6085171 33.1936,21.2856886 C35.0995623,20.41426 37.0680151,19.5149457 38.1164679,18.13286 L38.3421283,17.19346 C38.4653736,16.6775743 38.9739774,16.3551457 39.4947321,16.4841171 C40.0068075,16.6061171 40.3244679,17.1254886 40.2012226,17.6396314 L39.782883,19.0949171 C38.4671094,20.9841743 36.1879396,22.0264029 33.9851472,23.0320314 C30.8345811,24.4698886 28.9216755,25.4999171 28.9147321,27.6453743 C28.9129962,28.1752029 28.4842415,28.6022029 27.9582792,28.6022029" id="Fill-14" fill="#FEFEFE"></path>
                    <path d="M26.5972,43.4489057 C26.4253509,43.4489057 26.2535019,43.4018486 26.0972755,43.3025057 C25.6598415,43.0236486 25.5296528,42.4415343 25.8073887,42.0040771 C27.0762943,39.9980486 26.7603698,37.6312486 26.4236151,35.1285057 C26.0695019,32.4845914 25.7032377,29.7517914 27.1405208,27.1810771 C27.3939547,26.73142 27.9615774,26.5658486 28.4181057,26.8220486 C28.8694264,27.0747629 29.0291245,27.6499057 28.7756906,28.1030486 C27.6456528,30.12302 27.954634,32.4340486 28.2827094,34.8775343 C28.6489736,37.6051057 29.0256528,40.4267914 27.390483,43.0114486 C27.2116906,43.2937914 26.907917,43.4489057 26.5972,43.4489057" id="Fill-16" fill="#FEFEFE"></path>
                    <path d="M24.9375547,42.6370829 C24.6494038,42.6370829 24.3612528,42.5203114 24.1494792,42.2902543 C23.7016302,41.8039971 23.255517,41.3107686 22.8059321,40.8157971 C20.7177057,38.5065114 18.5617811,36.1222829 16.0968755,34.36374 C15.6611774,34.5484829 15.2185358,34.72974 14.7741585,34.9092543 C12.3005736,35.9166257 9.96412075,36.86474 8.54593208,38.9857971 C8.21612075,39.4807686 7.54608302,39.6149686 7.05483774,39.28034 C6.5618566,38.9491971 6.43166792,38.2781971 6.76147925,37.7849686 C8.54766792,35.1131686 11.3041962,33.9925114 13.9687245,32.9101971 C14.5780075,32.6609686 15.1872906,32.4152257 15.7757434,32.1503114 L16.3155925,31.9063114 L16.8085736,32.2357114 C19.6952906,34.16854 22.0855547,36.8089686 24.3977057,39.36574 C24.842083,39.8554829 25.2829887,40.3452257 25.7256302,40.8262543 C26.130083,41.2637114 26.1023094,41.9469114 25.6666113,42.3495114 C25.4617811,42.5412257 25.1979321,42.6370829 24.9375547,42.6370829" id="Fill-18" fill="#FEFEFE"></path>
                    <path d="M79.9101585,57.6896171 C79.6827623,57.6896171 79.4518943,57.6233886 79.2488,57.4874457 C63.2269132,46.6921886 45.2869132,37.6816171 27.9371019,28.9655886 L27.4267623,28.7093886 C26.8400453,28.4148457 26.602234,27.6985314 26.8955925,27.1077029 C27.1889509,26.52036 27.9006491,26.2815886 28.4908377,26.5743886 L28.9994415,26.8323314 C46.4152151,35.5797314 64.4246491,44.6269029 80.5749887,55.5058171 C81.1183094,55.87356 81.2641208,56.6142743 80.8978566,57.1615314 C80.6687245,57.5048743 80.2937811,57.6896171 79.9101585,57.6896171" id="Fill-20" fill="#FEFEFE"></path>
                    <g id="Group-24" transform="translate(0.000000, 0.000000)">
                        <mask id="mask-14" fill="white">
                            <use xlink:href="#path-13"></use>
                        </mask>
                        <g id="Clip-23"></g>
                        <path d="M90.4167321,61 C90.1042792,61 89.7952981,60.8745143 89.566166,60.6270286 C74.9451094,44.7774857 55.5921283,30.5017429 38.598166,18.3644857 C38.0791472,17.9915143 37.9559019,17.2647429 38.3273736,16.7401429 C38.6971094,16.2190286 39.4209585,16.0935429 39.9451849,16.4682571 C57.0311472,28.6717429 76.4952226,43.0328857 91.2672981,59.0445143 C91.7029962,59.5150857 91.6752226,60.2523143 91.2048075,60.6897714 C90.980883,60.8971714 90.6979396,61 90.4167321,61" id="Fill-22" fill="#FEFEFE" mask="url(#mask-14)"></path>
                    </g>
                    <path d="M38.2497811,17.7571 C37.8678943,17.7571 37.4998943,17.5566714 37.3020075,17.1993857 C34.5298566,12.2043571 29.8899321,7.68687143 24.8906868,5.10744286 C24.3577811,4.83381429 24.1477434,4.1785 24.4220075,3.64344286 C24.6945358,3.11361429 25.3437434,2.90098571 25.8801208,3.17461429 C31.2456302,5.94052857 36.2223094,10.7874143 39.194083,16.1397286 C39.4857057,16.6643286 39.298234,17.3266143 38.7757434,17.6194143 C38.6091019,17.7135286 38.4285736,17.7571 38.2497811,17.7571" id="Fill-25" fill="#FEFEFE"></path>
                </g>
                <g id="Page-1-Copy-5" transform="translate(610.315742, 48.549404) rotate(-51.000000) translate(-610.315742, -48.549404) translate(570.315742, 22.049404)">
                    <path d="M18.4094912,37.2138135 C14.5796648,37.2138135 10.3858093,35.6959365 6.33485781,33.9666139 C5.94826496,33.8019884 5.76925893,33.3534218 5.93322244,32.9652682 C6.09568169,32.5756042 6.54244463,32.3988962 6.93054173,32.5620113 C11.9667785,34.7112043 17.2030808,36.5266155 21.3939278,35.2821073 C21.8000759,35.1567503 22.2212666,35.3938714 22.3385983,35.7971283 C22.4589385,36.2003852 22.2287878,36.6247866 21.8256482,36.7441023 C20.7320568,37.0703326 19.5873208,37.2138135 18.4094912,37.2138135" id="Fill-1" fill="#FEFEFE"></path>
                    <path d="M23.0486054,38.5501494 C22.7928825,38.5501494 22.5341511,38.492757 22.2904622,38.371931 C21.7835292,38.1181963 21.2750919,37.8569101 20.6523314,37.4325086 C19.8731287,36.9008741 19.6685504,35.8360947 20.196543,35.0522358 C20.7245355,34.2668666 21.7850334,34.059952 22.5687489,34.5946072 C23.0170161,34.8996929 23.3810451,35.0869733 23.809757,35.3014395 C24.6536426,35.7228203 24.9981164,36.7513519 24.5799342,37.5986444 C24.280588,38.2027746 23.6773828,38.5501494 23.0486054,38.5501494" id="Fill-3" fill="#FEFEFE"></path>
                    <path d="M69.2514146,49.7890848 C69.2198253,49.7890848 69.1912445,49.7875744 69.1596552,49.7830435 C60.2604985,48.8088836 51.1251741,45.9151001 42.2907002,43.1164672 C35.9367384,41.1047138 29.3631558,39.0219751 22.8798283,37.647579 C22.4330653,37.5509181 22.1487616,37.1114134 22.2420253,36.6658675 C22.3367932,36.2173008 22.7835561,35.93487 23.2197893,36.0254895 C29.7843464,37.4195198 36.3940311,39.5113205 42.7871035,41.5366668 C51.5448605,44.3111346 60.6019637,47.1777322 69.3401655,48.1367888 C69.7914412,48.1851192 70.1193682,48.5959277 70.0697279,49.0505357 C70.0246003,49.4749371 69.6665882,49.7890848 69.2514146,49.7890848" id="Fill-5" fill="#FEFEFE"></path>
                    <g id="Group-9" transform="translate(0.000000, 0.000000)">
                        <mask id="mask-16" fill="white">
                            <use xlink:href="#path-15"></use>
                        </mask>
                        <g id="Clip-8"></g>
                        <path d="M5.69524972,34.2168748 C4.56104347,34.2168748 3.29145451,34.0537597 2.47013274,33.1385025 L2.04593358,32.667281 L2.33475003,32.0993986 C5.95247687,24.9706628 5.33573341,17.8570302 0.552211028,11.5257462 L0.000150425232,10.7947487 L0.72219154,10.2344179 C2.78151297,8.63649368 5.63507963,8.73315451 8.40892091,8.82528436 C9.75973949,8.87210444 11.0428667,8.91590388 12.189107,8.76789199 C12.838944,8.02783255 13.4496704,7.2394427 14.0934904,6.40876373 C15.6684426,4.37435543 17.2975479,2.27198249 19.5629519,0.903627681 L20.0728934,0.595521302 L20.5617754,0.93685484 C21.244706,1.41109701 22.0148832,1.9457522 22.7655051,3.07698592 C23.045296,3.50138735 22.9309728,4.075311 22.5082779,4.35774185 C22.0870873,4.64168302 21.5139671,4.52840862 21.2311677,4.10098653 C20.8220111,3.4802428 20.42188,3.1177647 20.0142276,2.81116865 C18.2888502,4.00281538 16.9530741,5.72760698 15.5481024,7.5430181 C14.8426081,8.45223399 14.1130457,9.3931667 13.333843,10.2555625 L13.1187349,10.4941939 L12.8028419,10.545545 C11.3993745,10.7796454 9.84698613,10.726784 8.34574231,10.6739226 C6.18563598,10.601427 4.1308273,10.5304417 2.61754947,11.232743 C7.15287022,17.7392248 7.74404138,24.9540492 4.33390137,32.2051214 C4.9356023,32.416567 5.81408565,32.3757882 6.50152896,32.3455817 L6.63239892,33.2638595 L6.67301373,34.1866683 C6.37065901,34.2002613 6.0397235,34.2168748 5.69524972,34.2168748" id="Fill-7" fill="#FEFEFE" mask="url(#mask-16)"></path>
                    </g>
                    <path d="M33.1449965,15.3140953 C33.0788094,15.3140953 33.0111181,15.3065437 32.9419225,15.2884198 C31.7520589,15.0029683 30.5035294,14.8972455 29.1827959,14.7854814 C26.9113749,14.5936701 24.5647413,14.3958175 22.4317115,13.2087017 L22.1143142,13.0319937 L22.0180421,12.6815982 C21.2644117,9.95395052 20.3272625,6.56024937 21.1606183,3.36893182 C21.2824627,2.90526192 21.7532937,2.62736205 22.2166034,2.74818808 C22.6799131,2.87052444 22.9566955,3.34476661 22.8348511,3.80843651 C22.1519206,6.41827878 22.9070552,9.39513013 23.5839688,11.8554502 C25.3168674,12.7148253 27.269387,12.8809611 29.3287084,13.0546485 C30.6569632,13.1664126 32.0288413,13.2827077 33.3480706,13.6013863 C33.8113803,13.7131504 34.0986925,14.1828616 33.9858736,14.6495522 C33.8911057,15.0467677 33.5361021,15.3140953 33.1449965,15.3140953" id="Fill-10" fill="#FEFEFE"></path>
                    <path d="M34.0307003,16.7920998 C33.6862265,16.7920998 33.33724,16.6878873 33.0378938,16.4673798 L32.1503849,15.8194502 C31.393746,15.2681814 31.226774,14.2064227 31.7758261,13.446729 C32.3248782,12.6870353 33.385376,12.5163686 34.1390065,13.070658 L35.0265153,13.7185876 C35.7831543,14.2698564 35.9501263,15.3316151 35.4010742,16.0913088 C35.0701386,16.5489374 34.5541801,16.7920998 34.0307003,16.7920998" id="Fill-12" fill="#FEFEFE"></path>
                    <path d="M24.2280896,24.786101 L24.2250811,24.786101 C23.7677884,24.7845907 23.3977423,24.41003 23.3992466,23.9508911 C23.4112806,20.8909718 26.2558217,19.592092 28.7649146,18.445755 C30.4165837,17.6905923 32.1224058,16.9112644 33.0309742,15.7135764 L33.226527,14.899511 C33.3333289,14.4524547 33.7740748,14.1730445 34.2253505,14.2848086 C34.669105,14.3905314 34.9443832,14.8406083 34.8375812,15.2861543 L34.4750564,16.547276 C33.3348332,18.1844687 31.3597499,19.0876433 29.4508537,19.9591011 C26.7206357,21.2051195 25.0629496,22.0977218 25.0569326,23.9569324 C25.0554284,24.4160713 24.6838781,24.786101 24.2280896,24.786101" id="Fill-14" fill="#FEFEFE"></path>
                    <path d="M23.0486054,37.6519589 C22.8996844,37.6519589 22.7507634,37.6111801 22.6153807,37.5250916 C22.2363091,37.2834395 22.1234902,36.7789908 22.3641706,36.3998992 C23.463779,34.6615146 23.1900051,32.6104927 22.8981801,30.4416655 C22.5913127,28.1505019 22.2739154,25.7823117 23.5194363,23.5545817 C23.7390572,23.1649177 24.2309477,23.0214368 24.626566,23.2434547 C25.0176717,23.4624519 25.1560629,23.9608592 24.936442,24.3535438 C23.9571738,26.104011 24.2249307,28.1067024 24.5092344,30.2241786 C24.8266316,32.5878379 25.1530544,35.0330547 23.7360487,37.2728672 C23.5811107,37.5175399 23.3178665,37.6519589 23.0486054,37.6519589" id="Fill-16" fill="#FEFEFE"></path>
                    <path d="M21.6103897,36.9484493 C21.3606838,36.9484493 21.1109779,36.8472575 20.9274592,36.6478946 C20.5393621,36.2265138 20.1527692,35.7990917 19.7631679,35.3701593 C17.9535523,33.3689782 16.0852709,31.302853 13.9492326,29.7789347 C13.5716653,29.9390292 13.188081,30.096103 12.8029924,30.2516665 C10.6594328,31.1246346 8.63470918,31.9462516 7.40573503,33.7843176 C7.11992709,34.21325 6.5392857,34.3295451 6.11358229,34.0395626 C5.68637463,33.7526008 5.57355571,33.1711255 5.85936365,32.7437034 C7.40723929,30.4283746 9.79599198,29.4572354 12.1050193,28.5193233 C12.6330119,28.3033468 13.1610044,28.0903909 13.670946,27.8608215 L14.1387684,27.6493759 L14.5659761,27.9348274 C17.0675477,29.6097783 19.1389032,31.8979212 21.1425672,34.1135686 C21.5276558,34.53797 21.9097359,34.9623714 22.2933203,35.3792213 C22.6438111,35.7583129 22.619743,36.3503605 22.2421757,36.6992456 C22.0646739,36.8653814 21.8360276,36.9484493 21.6103897,36.9484493" id="Fill-18" fill="#FEFEFE"></path>
                    <path d="M69.2485565,49.9926766 C69.0514995,49.9926766 68.8514339,49.9352843 68.6754364,49.8174789 C54.7911874,40.4625234 39.2447397,32.6541411 24.2097377,25.1010039 L23.7674875,24.878986 C23.2590503,24.623741 23.0529677,24.0029973 23.3071863,23.490997 C23.561405,22.9820173 24.1781484,22.7751028 24.6895942,23.0288374 L25.1303402,23.2523656 C40.2225037,30.8326887 55.8291216,38.6727878 69.8246852,48.1002389 C70.2955161,48.4189176 70.4218733,49.0608059 70.1044761,49.535048 C69.9059148,49.8325821 69.5809963,49.9926766 69.2485565,49.9926766" id="Fill-20" fill="#FEFEFE"></path>
                    <g id="Group-24" transform="translate(0.000000, 0.000000)">
                        <mask id="mask-18" fill="white">
                            <use xlink:href="#path-17"></use>
                        </mask>
                        <g id="Clip-23"></g>
                        <path d="M78.3533446,52.8613887 C78.0825791,52.8613887 77.8148222,52.7526453 77.6162609,52.5381791 C64.9459436,38.8032799 48.1750345,26.4322047 33.4484042,15.9142986 C32.9986328,15.591089 32.8918309,14.9612833 33.2137409,14.5066754 C33.5341466,14.0550881 34.1614198,13.9463447 34.615704,14.2710646 C49.4220596,24.846363 66.2892409,37.2914442 79.0904282,51.1668036 C79.4679955,51.5745915 79.4439275,52.2134591 79.0362751,52.5925508 C78.8422266,52.7722795 78.5970334,52.8613887 78.3533446,52.8613887" id="Fill-22" fill="#FEFEFE" mask="url(#mask-18)"></path>
                    </g>
                    <path d="M33.1465008,15.3879502 C32.8155653,15.3879502 32.4966638,15.2142628 32.325179,14.9046461 C29.9228881,10.5760536 25.9020216,6.66129014 21.5697749,4.42600856 C21.1079694,4.18888747 20.9259549,3.62100512 21.1636268,3.15733523 C21.3997944,2.69819631 21.9623848,2.51393661 22.4271987,2.7510577 C27.0768427,5.1479441 31.3895341,9.34815901 33.964814,13.9863683 C34.2175284,14.4409762 34.0550692,15.0148999 33.6022892,15.2686345 C33.457881,15.3501921 33.3014388,15.3879502 33.1465008,15.3879502" id="Fill-25" fill="#FEFEFE"></path>
                </g>
                <path d="M240.525879,96.5873476 C240.896094,98.3921938 242.204522,100.151348 243.827379,101.006809 C245.358951,101.68204 246.882915,101.555117 248.150772,100.615886 C249.816736,99.3771169 250.831022,96.8462707 250.562236,94.5971938 C250.410094,93.3406553 249.811665,91.6652707 247.818594,90.8225015 C245.716486,90.0736553 242.808022,90.6143476 241.669486,92.8405784 C241.200379,93.9981169 240.678022,95.3003476 240.525879,96.5873476 M245.762129,103.966655 C244.773201,103.966655 243.748772,103.740732 242.724344,103.293963 C240.277379,102.004425 238.454201,99.4964246 237.997772,96.858963 L237.967344,96.693963 L237.982558,96.528963 C238.142308,94.7926553 238.804129,93.1528092 239.339165,91.8378861 L239.379736,91.7515784 C241.129379,88.2281938 245.516165,87.3143476 248.733986,88.4566553 C251.201236,89.4948861 252.758165,91.611963 253.080201,94.2951169 C253.463094,97.4910399 252.088736,100.851963 249.659522,102.654271 C248.485486,103.524963 247.154236,103.966655 245.762129,103.966655" id="Fill-1" fill="#FEFEFE" transform="translate(245.555528, 95.979295) rotate(44.000000) translate(-245.555528, -95.979295) "></path>
            </g>
        </g>
    </g>
</svg>