<?xml version="1.0" encoding="UTF-8" standalone="no"?>
<svg width="27px" height="17px" viewBox="0 0 27 17" version="1.1" xmlns="http://www.w3.org/2000/svg" xmlns:xlink="http://www.w3.org/1999/xlink">
    <!-- Generator: Sketch 3.6.1 (26313) - http://www.bohemiancoding.com/sketch -->
    <title>aventura-bed-icon</title>
    <desc>Created with Sketch.</desc>
    <defs></defs>
    <g id="kit" stroke="none" stroke-width="1" fill="none" fill-rule="evenodd">
        <g id="aventura-bed-icon" fill="#FFFFFF">
            <path d="M25.9071737,10.0285834 C26.3642055,10.0285834 26.742889,10.4072669 26.742889,10.8642987 L26.742889,16.7143056 L23.4000279,16.7143056 L23.4000279,13.3714445 L3.34286113,13.3714445 L3.34286113,16.7143056 L0,16.7143056 L0,0.835715282 C0,0.378683487 0.378683487,0 0.835715282,0 L2.50714585,0 C2.96417764,0 3.34286113,0.378683487 3.34286113,0.835715282 L3.34286113,10.0285834 L25.9071737,10.0285834 Z M10.8642987,5.85000697 C10.8642987,7.6911922 9.36262277,9.1928681 7.52143754,9.1928681 C5.68025231,9.1928681 4.17857641,7.6911922 4.17857641,5.85000697 C4.17857641,4.00882174 5.68025231,2.50714585 7.52143754,2.50714585 C9.36262277,2.50714585 10.8642987,4.00882174 10.8642987,5.85000697 L10.8642987,5.85000697 Z M26.742889,9.1928681 L11.7000139,9.1928681 L11.7000139,4.17857641 C11.7000139,3.72154461 12.0786974,3.34286113 12.5357292,3.34286113 L21.7285973,3.34286113 C24.4969042,3.34286113 26.742889,5.58884595 26.742889,8.35715282 L26.742889,9.1928681 Z" id="bed"></path>
        </g>
    </g>
</svg>