<?xml version="1.0" encoding="UTF-8" standalone="no"?>
<svg width="45px" height="45px" viewBox="0 0 45 45" version="1.1" xmlns="http://www.w3.org/2000/svg" xmlns:xlink="http://www.w3.org/1999/xlink" xmlns:sketch="http://www.bohemiancoding.com/sketch/ns">
    <!-- Generator: Sketch 3.3.2 (12043) - http://www.bohemiancoding.com/sketch -->
    <title>aventura-free-flower</title>
    <desc>Created with Sketch.</desc>
    <defs></defs>
    <g id="utilities" stroke="none" stroke-width="1" fill="none" fill-rule="evenodd" sketch:type="MSPage">
        <g id="aventura-free-flower" sketch:type="MSArtboardGroup" fill="#FFFFFF">
            <g id="Imported-Layers" sketch:type="MSLayerGroup" transform="translate(8.000000, 8.000000)">
                <path d="M14.5509595,10.6924509 C13.1804162,8.7300896 11.8425607,6.81659249 11.2933208,4.50028035 C11.1544393,3.91432948 11.1304682,3.28085549 11.1722081,2.6774711 C11.2251792,1.91039595 11.6191936,1.28052601 12.2451243,0.81300578 C13.6877486,-0.264687861 15.8426329,-0.216578035 17.2168642,0.944846821 C18.1337168,1.71980058 18.3742659,2.77637283 18.1296098,3.87116474 C17.904315,4.87945954 17.5782746,5.90091329 17.0919798,6.80670231 C16.4026012,8.09074855 15.525896,9.27421676 14.727474,10.4995087 C14.6915173,10.5547428 14.6378757,10.5984942 14.5509595,10.6924509" id="Fill-1" sketch:type="MSShapeGroup"></path>
                <path d="M11.833341,11.7532139 C9.60796821,11.397 7.46272254,10.9701301 5.5089104,9.91003757 C5.02378902,9.64685838 4.56532081,9.30522832 4.16066185,8.9286474 C3.18681503,8.02243931 2.95137861,6.83025434 3.4392659,5.59733526 C4.09134682,3.94953179 5.69908671,2.88474566 7.35326012,3.01038439 C8.07289595,3.06511561 8.65046532,3.41663584 9.14220809,3.91692775 C9.93317052,4.72163584 10.4596127,5.70679769 10.7584133,6.76714162 C11.180841,8.26617341 11.4692486,9.8030896 11.8101243,11.3249191 C11.836526,11.442763 11.8245405,11.5691561 11.833341,11.7532139" id="Fill-2" sketch:type="MSShapeGroup"></path>
                <path d="M17.1780578,11.8612514 C17.4470202,10.6673902 17.676422,9.56539017 17.9463064,8.47336416 C18.252315,7.2355 18.6987977,6.04800867 19.4095491,4.97919942 C19.9794913,4.12210694 20.666104,3.40289017 21.757711,3.25043064 C23.0648902,3.06771387 24.1224682,3.60203468 24.963552,4.52425145 C25.3639364,4.96335838 25.6638266,5.54319075 25.8577746,6.11103757 C26.2358642,7.21773121 25.9933035,8.25762428 25.1400665,9.07012717 C24.6815145,9.50688728 24.1476127,9.8984711 23.583789,10.184448 C21.6177399,11.181763 19.4798699,11.5647977 17.1780578,11.8612514" id="Fill-3" sketch:type="MSShapeGroup"></path>
                <path d="M10.7686387,14.3976618 C8.64635838,15.8650954 6.6582659,17.3057081 4.19192486,17.7711329 C1.37004046,18.3036098 -0.569271676,16.1523295 0.162014451,13.359026 C0.69499422,11.3232428 2.1777659,10.4533266 4.31002023,10.9268815 C5.46591329,11.1836069 6.53380058,11.6662977 7.53438439,12.2794046 C8.60101445,12.9329942 9.62992775,13.648104 10.7686387,14.3976618" id="Fill-4" sketch:type="MSShapeGroup"></path>
                <path d="M18.268659,14.577026 C20.3761879,13.1230029 22.3874971,11.6828931 24.8860231,11.2104277 C27.5484913,10.7069509 29.5104335,12.8097023 28.8819884,15.4762775 C28.6100925,16.6299075 28.0739277,17.5920202 26.8813237,18.0168786 C26.0168555,18.324815 25.1486156,18.2088988 24.2892601,17.9687688 C22.7651676,17.5428208 21.4195173,16.7563006 20.1199653,15.8826965 C19.5199335,15.4793786 18.9375029,15.0499942 18.268659,14.577026" id="Fill-5" sketch:type="MSShapeGroup"></path>
                <path d="M11.7895058,17.0886272 C11.3229075,19.6214335 10.9079393,22.0171185 9.53714451,24.1001734 C8.99628613,24.9220636 8.31109827,25.5918295 7.27246243,25.7463844 C5.96586994,25.9409191 4.91910405,25.4006474 4.04767919,24.5060896 C3.49709827,23.940841 3.1414711,23.2322688 3.02295665,22.4350202 C2.84526879,21.2408237 3.32091908,20.3137457 4.22880347,19.5729884 C5.39467052,18.6217717 6.78717341,18.1559277 8.20850867,17.796026 C9.35032081,17.506948 10.521552,17.3342052 11.7895058,17.0886272" id="Fill-6" sketch:type="MSShapeGroup"></path>
                <path d="M14.434289,18.2840809 C15.8833671,20.3762717 17.3073844,22.3966329 17.7998815,24.8883699 C18.2351329,27.0912803 17.0440376,28.667422 14.8041647,28.9369711 C13.9351705,29.0415723 13.1370838,28.854078 12.3834191,28.4653439 C11.1533497,27.8308642 10.5853353,26.5929162 10.8590751,25.1018468 C10.9713873,24.4896618 11.1493266,23.8798237 11.3775549,23.3004104 C12.0942572,21.481289 13.2145289,19.9024653 14.434289,18.2840809" id="Fill-7" sketch:type="MSShapeGroup"></path>
                <path d="M17.1669104,17.248211 C19.3679769,17.5953728 21.4853121,18.0229971 23.4215231,19.0509884 C23.9329624,19.3225491 24.415737,19.6806908 24.8413497,20.0750405 C25.8159509,20.9780636 26.0484538,22.1742717 25.5593931,23.4066879 C24.9058873,25.0534855 23.296974,26.116763 21.6426329,25.9895318 C20.9230809,25.9341301 20.3437514,25.5836994 19.8552775,25.0802225 C19.0089971,24.2080434 18.4736705,23.138815 18.1575202,21.9926445 C17.7690376,20.5846358 17.5053555,19.1420954 17.193396,17.7132168 C17.1647312,17.5819624 17.1767168,17.4417399 17.1669104,17.248211" id="Fill-8" sketch:type="MSShapeGroup"></path>
                <path d="M14.5284971,12.7399682 C15.5196936,12.7482659 16.2751185,13.537552 16.2600318,14.5491156 C16.2455318,15.5181012 15.4609393,16.2686647 14.4715029,16.2600318 C13.4808092,16.2513988 12.7247977,15.4612746 12.740052,14.4502139 C12.7546358,13.4806416 13.5378873,12.7316705 14.5284971,12.7399682" id="Fill-9" sketch:type="MSShapeGroup"></path>
            </g>
        </g>
    </g>
</svg>