<?xml version="1.0" encoding="UTF-8" standalone="no"?>
<svg width="45px" height="45px" viewBox="0 0 45 45" version="1.1" xmlns="http://www.w3.org/2000/svg" xmlns:xlink="http://www.w3.org/1999/xlink" xmlns:sketch="http://www.bohemiancoding.com/sketch/ns">
    <!-- Generator: Sketch 3.3.2 (12043) - http://www.bohemiancoding.com/sketch -->
    <title>aventura-free-audio</title>
    <desc>Created with Sketch.</desc>
    <defs></defs>
    <g id="utilities" stroke="none" stroke-width="1" fill="none" fill-rule="evenodd" sketch:type="MSPage">
        <g id="aventura-free-audio" sketch:type="MSArtboardGroup" fill="#FFFFFF">
            <g id="Imported-Layers" sketch:type="MSLayerGroup" transform="translate(11.000000, 13.000000)">
                <path d="M8.48478889,9.1991358 C8.48485,11.3487037 8.48081667,13.4982716 8.48827222,15.6478395 C8.48973889,16.0620988 8.39697222,16.4191358 7.99363889,16.5855556 C7.59012222,16.7519753 7.25205556,16.6019136 6.94851667,16.2984568 C5.60975556,14.9599383 4.24985,13.642716 2.92758889,12.2878395 C2.65619444,12.0097531 2.40441667,11.9067901 2.03665,11.9269136 C1.51885556,11.9553086 0.998433333,11.9367284 0.479172222,11.9330247 C0.0992444444,11.9303086 0.0179666667,11.845679 0.0176,11.454321 C0.0160722222,9.93209877 0.0162555556,8.40987654 0.0174166667,6.88771605 C0.0177222222,6.46876543 0.0969833333,6.39018519 0.523661111,6.38839506 C1.14479444,6.38567901 1.76617222,6.39648148 2.38681667,6.37975309 C2.50586111,6.37648148 2.64592778,6.29777778 2.73582222,6.21111111 C3.18505,5.7782716 3.61887778,5.32925926 4.06156667,4.88944444 C5.03439444,3.92308642 6.00899444,2.95858025 6.98335,1.99382716 C7.31035556,1.67006173 7.66076667,1.57820988 8.00592222,1.74104938 C8.37570556,1.91555556 8.48808889,2.23364198 8.48717222,2.62691358 C8.48222222,4.81765432 8.48478889,7.00839506 8.48478889,9.1991358" id="Fill-1" sketch:type="MSShapeGroup"></path>
                <path d="M21.9824,9.65574074 C21.9201278,12.5812346 20.7148944,15.4998765 18.3261222,17.9114815 C17.8584389,18.3835802 17.1150222,18.4008025 16.6772222,17.9624691 C16.1824667,17.467037 16.1730556,16.8201235 16.6889556,16.2968519 C18.1055111,14.8599383 19.0616556,13.1666667 19.4396889,11.1728395 C20.0520833,7.94308642 19.3103167,5.06148148 17.17045,2.56462963 C17.0040444,2.37037037 16.8234611,2.18858025 16.6538778,1.99697531 C16.1879056,1.47037037 16.2034889,0.804753086 16.68975,0.347345679 C17.1219278,-0.0590740741 17.8823944,-0.0387037037 18.3279556,0.407283951 C19.7398056,1.82049383 20.7710556,3.47364198 21.3864444,5.38728395 C21.7823833,6.6187037 21.9837444,7.88074074 21.9824,9.65574074" id="Fill-2" sketch:type="MSShapeGroup"></path>
                <path d="M17.7108556,8.98469136 C17.6693611,11.4156173 16.8722278,13.3468519 15.2898167,14.9412963 C14.8313611,15.4032716 14.1053611,15.4178395 13.6621833,14.9864198 C13.1824611,14.5194444 13.1541667,13.8485802 13.6401222,13.3372222 C14.5025222,12.4296296 15.0949333,11.3880247 15.2911,10.1369753 C15.5640222,8.39709877 15.1664333,6.83358025 14.0564111,5.4654321 C13.9146333,5.29067901 13.7558056,5.13012346 13.6090778,4.95925926 C13.1751889,4.45395062 13.1930333,3.80030864 13.65045,3.35314815 C14.0660056,2.94691358 14.8354556,2.93808642 15.2636611,3.36185185 C16.5232833,4.60839506 17.3174833,6.10746914 17.5965778,7.87160494 C17.6638611,8.2967284 17.6854944,8.72932099 17.7108556,8.98469136" id="Fill-3" sketch:type="MSShapeGroup"></path>
                <path d="M13.4389444,9.13888889 C13.4127889,10.2425309 13.0349389,11.1793827 12.2712944,11.9497531 C11.8383222,12.3865432 11.1013222,12.4115432 10.6623,12.0120988 C10.1674222,11.5618519 10.1330167,10.9266049 10.5746056,10.3933333 C11.3109944,9.5041358 11.3092833,8.83358025 10.56825,7.92475309 C10.1404722,7.40012346 10.1713944,6.76592593 10.6462889,6.32444444 C11.0703389,5.93024691 11.8401556,5.94469136 12.2632889,6.36679012 C13.0312722,7.13296296 13.4114444,8.0691358 13.4389444,9.13888889" id="Fill-4" sketch:type="MSShapeGroup"></path>
            </g>
        </g>
    </g>
</svg>