<?xml version="1.0" encoding="UTF-8" standalone="no"?>
<svg width="45px" height="45px" viewBox="0 0 45 45" version="1.1" xmlns="http://www.w3.org/2000/svg" xmlns:xlink="http://www.w3.org/1999/xlink" xmlns:sketch="http://www.bohemiancoding.com/sketch/ns">
    <!-- Generator: Sketch 3.3.2 (12043) - http://www.bohemiancoding.com/sketch -->
    <title>aventura-free-massage</title>
    <desc>Created with Sketch.</desc>
    <defs></defs>
    <g id="utilities" stroke="none" stroke-width="1" fill="none" fill-rule="evenodd" sketch:type="MSPage">
        <g id="aventura-free-massage" sketch:type="MSArtboardGroup" fill="#FFFFFF">
            <g id="Imported-Layers" sketch:type="MSLayerGroup" transform="translate(9.000000, 9.000000)">
                <path d="M15.2846867,25.8347844 L8.37380127,25.8347844 C6.37564734,25.8347844 4.37673162,25.8378315 2.37933948,25.8332608 C1.10259301,25.8302137 0.695039688,25.4226604 0.719416709,24.1832412 C0.738461256,23.29348 0.763600059,22.4029569 0.797118463,21.5131956 C0.823019047,20.7940735 1.34103074,20.3552872 2.03958475,20.5868689 C5.58339416,21.7584894 9.1721487,21.5543319 12.7738535,20.9898515 C13.5821041,20.8633957 14.3758809,20.6470496 15.1765137,20.4703162 C16.0281858,20.2821561 16.7899677,20.3545254 17.4610976,21.0111814 C18.5915819,22.1188123 19.7746292,23.1754038 20.9195874,24.2716079 C21.3583738,24.6913497 21.8489614,24.93512 22.4599104,25.0196777 C23.7496072,25.1986965 25.0316861,25.4356107 26.3198593,25.6237708 C26.9346173,25.7128993 27.3520738,26.0229445 27.3337911,26.6316083 C27.3147465,27.2859789 26.8211118,27.4726155 26.209401,27.4680448 C24.4253077,27.4558563 22.6381674,27.4299557 20.8540742,27.4733773 C19.3945001,27.509181 18.4712204,26.548574 17.4199614,25.8119309 C16.8349129,25.4013305 16.2757649,24.9518792 15.7120463,24.5108074 C15.3738152,24.2457073 15.0188248,24.0354555 14.6645962,24.4315821 C14.2814199,24.8589418 14.5229048,25.1986965 14.9037957,25.4874118 C14.9830211,25.5475926 15.0500579,25.6199619 15.2846867,25.8347844" id="Fill-1" sketch:type="MSShapeGroup"></path>
                <path d="M10.2439758,9.89449806 C7.80398841,9.8929745 5.8888687,8.05250942 5.83706753,5.62928119 C5.82716437,5.18135343 5.82792615,4.93301253 5.21773885,4.97567232 C4.49785495,5.02518814 4.13677033,4.50565288 4.03088264,3.83528481 C3.80844233,2.44274749 4.82085047,0.685316638 6.13340069,0.175684545 C7.0635364,-0.186161859 7.87407234,0.16578138 8.01652556,1.09972599 C8.10413048,1.6802038 8.2801021,1.6085963 8.71050887,1.46081062 C11.0613678,0.654845362 13.470884,1.72438715 14.3690248,3.94193427 C15.5292187,6.80166354 13.3840408,9.89525984 10.2439758,9.89449806" id="Fill-2" sketch:type="MSShapeGroup"></path>
                <path d="M9.12034753,15.7305092 C9.19804929,16.7292053 9.27879817,17.5907806 9.32983756,18.4554031 C9.38849476,19.4647641 8.94285235,19.9736344 7.91825569,20.0650482 C6.57980489,20.1831244 5.26116041,20.0627629 3.96841652,19.695584 C3.08398774,19.4434342 2.76099221,18.8522915 3.10836476,18.0150931 C4.04307115,15.7564098 4.99606031,13.5053443 5.97114115,11.2626584 C6.37793268,10.3264284 7.34463392,10.1336976 8.11860433,10.8642464 C8.78973419,11.4957636 9.42429851,12.1836527 9.97049614,12.9225811 C11.1299282,14.4933754 12.5925494,15.6383336 14.4276821,16.3353641 C14.8222851,16.4846733 15.1955582,16.6949251 15.5634989,16.9044151 C15.9413427,17.1192376 16.0365654,17.4666102 15.8849708,17.8551189 C15.7425176,18.2177271 15.4225692,18.4028401 15.0523432,18.3068556 C13.5607742,17.9236793 12.0669199,17.5412648 10.5966809,17.0841957 C9.98344643,16.8937502 9.78843026,16.1479657 9.12034753,15.7305092" id="Fill-3" sketch:type="MSShapeGroup"></path>
                <path d="M22.9253592,14.1604767 C25.2686003,14.1764741 27.2004792,16.1037824 27.1829582,18.4058873 C27.1646755,20.7018979 25.1817572,22.6345386 22.8689873,22.6078762 C20.5242226,22.5819757 18.6174825,20.6699031 18.6243386,18.3502772 C18.629671,16.0413162 20.5767856,14.1437175 22.9253592,14.1604767" id="Fill-4" sketch:type="MSShapeGroup"></path>
            </g>
        </g>
    </g>
</svg>