<?xml version="1.0" encoding="UTF-8" standalone="no"?>
<svg width="220px" height="55px" viewBox="0 0 220 55" version="1.1" xmlns="http://www.w3.org/2000/svg" xmlns:xlink="http://www.w3.org/1999/xlink">
    <!-- Generator: Sketch 3.6.1 (26313) - http://www.bohemiancoding.com/sketch -->
    <title>aventura-budapest</title>
    <desc>Created with Sketch.</desc>
    <defs></defs>
    <g id="kit" stroke="none" stroke-width="1" fill="none" fill-rule="evenodd">
        <g id="aventura-budapest" fill="#FFFFFF">
            <g id="Group">
                <path d="M220,16.4994579 L220,0 L0,0 L0,16.4994579 L0,48.0010843 C0,51.8743978 3.13801278,55 7.00894773,55 L212.991052,55 C216.868911,55 220,51.8664787 220,48.0010843 L220,16.4994579 Z M34.4939682,11.8426412 L27.8587278,11.8426412 L27.8587278,42.974473 L34.1201518,42.974473 C39.493762,42.974473 43.8393772,38.6337528 43.8393772,33.2661956 C43.8393772,29.9989869 42.2506577,27.1051735 39.7741243,25.3315459 C41.3161168,23.9313135 42.2973847,21.8776395 42.2973847,19.6372678 C42.2973847,15.343222 38.7928563,11.8426412 34.4939682,11.8426412 Z M31.7837996,23.5112438 L31.7837996,15.7632917 L34.4939682,15.7632917 C36.6434123,15.7632917 38.3723129,17.4902449 38.3723129,19.6372678 C38.3723129,21.7842907 36.6434123,23.5112438 34.4939682,23.5112438 L31.7837996,23.5112438 Z M31.7837996,27.4318943 L34.1201518,27.4318943 C37.344318,27.4318943 39.9610325,29.9989869 39.9610325,33.2661956 C39.9610325,36.48673 37.344318,39.100497 34.1201518,39.100497 L31.7837996,39.100497 L31.7837996,27.4318943 Z M51.2222503,11.8426412 L51.2222503,34.4330559 C51.2222503,40.1740084 54.7267787,43.3478683 59.0256668,43.3478683 C63.324555,43.3478683 66.8290834,40.1740084 66.8290834,34.4330559 L66.8290834,11.8426412 L62.9040116,11.8426412 L62.9040116,34.4330559 C62.9040116,37.8402879 61.1751109,39.4738922 59.0256668,39.4738922 C56.8762228,39.4738922 55.1473221,37.8402879 55.1473221,34.4330559 L55.1473221,11.8426412 L51.2222503,11.8426412 Z M74.5857728,42.974473 L79.6790208,42.974473 C86.4077152,42.974473 90.5664222,36.1133347 90.5664222,27.4318943 C90.5664222,18.7037796 86.4077152,11.8426412 79.6790208,11.8426412 L74.5857728,11.8426412 L74.5857728,42.974473 Z M101.874367,31.3058704 L109.631057,31.3058704 L109.631057,42.974473 L113.556128,42.974473 L113.556128,20.4307328 C113.556128,14.6431059 110.0516,11.4692459 105.752712,11.4692459 C101.453824,11.4692459 97.9492954,14.6431059 97.9492954,20.4307328 L97.9492954,42.974473 L101.874367,42.974473 L101.874367,31.3058704 Z M125.23789,31.3058704 L128.321875,31.3058704 C133.695485,31.3058704 138.087827,26.9651502 138.087827,21.597593 C138.087827,16.2300358 133.695485,11.8426412 128.321875,11.8426412 L121.312818,11.8426412 L121.312818,42.974473 L125.23789,42.974473 L125.23789,31.3058704 Z M144.67634,42.974473 L156.358102,42.974473 L156.358102,39.100497 L148.601412,39.100497 L148.601412,27.4318943 L156.358102,27.4318943 L156.358102,23.5112438 L148.601412,23.5112438 L148.601412,15.7632917 L156.358102,15.7632917 L156.358102,11.8426412 L144.67634,11.8426412 L144.67634,42.974473 Z M177.992723,34.5264047 C177.992723,25.0514994 166.264235,25.8449644 166.264235,19.6839422 C166.264235,17.3968961 168.08659,15.343222 170.469669,15.343222 C172.338751,15.343222 174.25456,17.0235008 175.703098,18.6571052 L177.058183,15.10985 C174.862011,12.5894318 173.039657,11.4692459 170.376215,11.4692459 C166.217508,11.4692459 162.245709,14.9231523 162.245709,19.7306166 C162.245709,29.1588475 173.974198,28.3653825 173.974198,34.8064512 C173.974198,38.2136832 171.40421,39.4738922 169.628582,39.4738922 C167.712774,39.4738922 165.469875,37.8402879 163.367158,35.7399394 L162.619526,39.9406363 C164.76897,42.1343336 166.965141,43.3478683 169.581855,43.3478683 C173.740562,43.3478683 177.992723,40.0806596 177.992723,34.5264047 Z M187.571768,15.7632917 L187.571768,42.974473 L191.450112,42.974473 L191.450112,15.7632917 L198.085353,15.7632917 L198.085353,11.8426412 L180.936527,11.8426412 L180.936527,15.7632917 L187.571768,15.7632917 Z" id="Combined-Shape"></path>
            </g>
        </g>
    </g>
</svg>