<?xml version="1.0" encoding="UTF-8" standalone="no"?>
<svg width="45px" height="45px" viewBox="0 0 45 45" version="1.1" xmlns="http://www.w3.org/2000/svg" xmlns:xlink="http://www.w3.org/1999/xlink" xmlns:sketch="http://www.bohemiancoding.com/sketch/ns">
    <!-- Generator: Sketch 3.3.2 (12043) - http://www.bohemiancoding.com/sketch -->
    <title>aventura-free-check</title>
    <desc>Created with Sketch.</desc>
    <defs></defs>
    <g id="utilities" stroke="none" stroke-width="1" fill="none" fill-rule="evenodd" sketch:type="MSPage">
        <g id="aventura-free-check" sketch:type="MSArtboardGroup" fill="#FFFFFF">
            <g id="reception" sketch:type="MSLayerGroup" transform="translate(6.000000, 14.000000)">
                <path d="M31.3258983,4.85236364 L14.1152343,4.85236364 C13.0934168,1.97068531 10.405179,0.0325594406 7.34139571,0.000335664336 L7.26428371,0 C3.3001928,0 0.0414597067,3.24923077 0.000400070349,7.2433007 C-0.0413272024,11.2766434 3.1863608,14.5916643 7.19484952,14.6332867 L7.27096007,14.633958 C10.2976895,14.633958 12.9929375,12.7518881 14.062491,9.9219021 L14.6526815,9.92895105 C14.8573121,10.272 15.2792583,10.9100979 15.7142233,11.1413706 C15.8527579,11.2152168 16.0447033,11.2507972 16.3007419,11.2507972 C16.4512939,11.2507972 16.5724699,11.238042 16.5724699,11.238042 L16.8999455,11.2034685 L16.937667,9.92358042 L17.9190924,9.95848951 L19.0043353,11.2833566 L20.3953557,9.98634965 L21.4482183,9.99843357 L22.4263055,9.23848951 L23.4337688,10.1061818 L24.5704197,9.4372028 L25.6446466,9.97090909 L26.6494393,11.229986 L27.7623892,9.97594406 L28.790883,9.53085315 L30.2386524,10.7731469 L31.2738226,9.98601399 L33.3818844,6.85527273 L31.3258983,4.85236364 L31.3258983,4.85236364 Z M3.78322771,5.28604196 C4.31166189,5.29141259 4.80604662,5.50355245 5.17591716,5.88352448 C5.54678916,6.26483916 5.74808152,6.76833566 5.74240662,7.3006993 C5.7310568,8.38858741 4.84343425,9.27406993 3.74216807,9.27406993 C3.74216807,9.27406993 3.74216807,9.27406993 3.74183425,9.27406993 C2.6502488,9.26232168 1.77130552,8.35871329 1.78265534,7.25941259 C1.79400516,6.17152448 2.68196152,5.28637762 3.76253098,5.28637762 L3.78322771,5.28604196 L3.78322771,5.28604196 Z" id="Imported-Layers" sketch:type="MSShapeGroup"></path>
            </g>
        </g>
    </g>
</svg>