<?xml version="1.0" encoding="UTF-8" standalone="no"?>
<svg width="21px" height="25px" viewBox="0 0 21 25" version="1.1" xmlns="http://www.w3.org/2000/svg" xmlns:xlink="http://www.w3.org/1999/xlink">
    <!-- Generator: Sketch 3.6.1 (26313) - http://www.bohemiancoding.com/sketch -->
    <title>aventura-shower-icon</title>
    <desc>Created with Sketch.</desc>
    <defs>
        <path id="path-1" d="M0,0.122019231 L20.3069183,0.122019231 L20.3069183,24.4038462 L0,24.4038462"></path>
    </defs>
    <g id="kit" stroke="none" stroke-width="1" fill="none" fill-rule="evenodd">
        <g id="aventura-shower-icon">
            <g id="Page-1">
                <g id="Group-3">
                    <mask id="mask-2" fill="white">
                        <use xlink:href="#path-1"></use>
                    </mask>
                    <g id="Clip-2"></g>
                    <path d="M12.7643063,0.122019231 C8.7246255,0.122019231 5.42678592,3.28280538 5.24033911,7.23427615 C2.78693587,7.81606385 0.961927423,9.99483923 0.961927423,12.5992177 L12.1230872,12.5992177 C12.1230872,10.3726108 10.7883648,8.45837308 8.86963968,7.58471538 L9.01761334,7.58471538 C9.01761334,5.54064923 10.6985941,3.87728308 12.7643063,3.87728308 C14.8310051,3.87728308 16.5109994,5.54064923 16.5109994,7.58471538 L16.5109994,24.4038462 L20.3070169,24.4038462 L20.3070169,7.58471538 C20.3070169,3.47022692 16.9233526,0.122019231 12.7643063,0.122019231" id="Fill-1" fill="#FEFEFE" mask="url(#mask-2)"></path>
                </g>
                <path d="M6.58354532,13.8402997 C6.14751628,13.8402997 5.79435248,14.4279443 5.79435248,15.1522505 C5.79435248,15.8765566 6.14751628,16.4642012 6.58354532,16.4642012 C7.01957437,16.4642012 7.37273816,15.8765566 7.37273816,15.1522505 C7.37273816,14.4279443 7.01957437,13.8402997 6.58354532,13.8402997" id="Fill-4" fill="#FEFEFE"></path>
                <path d="M6.58354532,17.7755663 C6.14751628,17.7755663 5.79435248,18.3632109 5.79435248,19.0875171 C5.79435248,19.8118232 6.14751628,20.3994678 6.58354532,20.3994678 C7.01957437,20.3994678 7.37273816,19.8118232 7.37273816,19.0875171 C7.37273816,18.3632109 7.01957437,17.7755663 6.58354532,17.7755663" id="Fill-6" fill="#FEFEFE"></path>
                <path d="M6.58354532,21.7799446 C6.14751628,21.7799446 5.79435248,22.3675892 5.79435248,23.0918954 C5.79435248,23.8162015 6.14751628,24.4038462 6.58354532,24.4038462 C7.01957437,24.4038462 7.37273816,23.8162015 7.37273816,23.0918954 C7.37273816,22.3675892 7.01957437,21.7799446 6.58354532,21.7799446" id="Fill-8" fill="#FEFEFE"></path>
                <path d="M2.66431503,13.9094114 C2.2371644,13.824486 1.77351361,14.3311098 1.62849943,15.0417498 C1.48447173,15.7514137 1.71333766,16.3966514 2.14048828,16.4815768 C2.56763891,16.5665022 3.0312897,16.0598783 3.17630388,15.3502145 C3.32131807,14.6395745 3.09146565,13.9953129 2.66431503,13.9094114" id="Fill-10" fill="#FEFEFE"></path>
                <path d="M1.87867356,17.767269 C1.45152293,17.6823436 0.987872138,18.1889675 0.842857953,18.8996075 C0.697843769,19.6092713 0.927696184,20.2535328 1.35484681,20.3394344 C1.78199743,20.4243598 2.24564823,19.9177359 2.39066241,19.2070959 C2.5356766,18.4974321 2.30582418,17.8531705 1.87867356,17.767269" id="Fill-12" fill="#FEFEFE"></path>
                <path d="M1.07931986,21.6928717 C0.652169233,21.6079463 0.18851844,22.1145702 0.0435042553,22.8252102 C-0.101509929,23.534874 0.128342486,24.1801117 0.55549311,24.2650371 C0.981657244,24.3499625 1.44629453,23.8433386 1.59130871,23.1336748 C1.73533641,22.4230348 1.50548399,21.7787732 1.07931986,21.6928717" id="Fill-14" fill="#FEFEFE"></path>
                <path d="M11.2969009,16.4813815 C11.7240515,16.3964562 11.9529175,15.7512185 11.8088898,15.0415546 C11.6638756,14.3318908 11.2002248,13.8242908 10.7730742,13.9092162 C10.3459235,13.9951177 10.1160711,14.6393792 10.2610853,15.3500192 C10.4060995,16.0596831 10.8697503,16.5672831 11.2969009,16.4813815" id="Fill-16" fill="#FEFEFE"></path>
                <path d="M12.0825424,20.3392392 C12.509693,20.2533376 12.7385589,19.6090761 12.5945312,18.8994122 C12.4495171,18.1887722 11.9858663,17.6821484 11.5587156,17.7670738 C11.131565,17.8529753 10.9017126,18.4972368 11.0467268,19.2069007 C11.191741,19.9175407 11.6553918,20.4241645 12.0825424,20.3392392" id="Fill-18" fill="#FEFEFE"></path>
                <path d="M12.358168,21.6928717 C11.9310174,21.7787732 11.7021514,22.4230348 11.8461791,23.1336748 C11.9911933,23.8433386 12.4548441,24.3499625 12.8819947,24.2650371 C13.3091454,24.1801117 13.5389978,23.534874 13.3939836,22.8252102 C13.2489694,22.1145702 12.7853186,21.6079463 12.358168,21.6928717" id="Fill-20" fill="#FEFEFE"></path>
            </g>
        </g>
    </g>
</svg>