<?xml version="1.0" encoding="UTF-8" standalone="no"?>
<svg width="62px" height="136px" viewBox="0 0 62 136" version="1.1" xmlns="http://www.w3.org/2000/svg" xmlns:xlink="http://www.w3.org/1999/xlink">
    <!-- Generator: Sketch 3.6.1 (26313) - http://www.bohemiancoding.com/sketch -->
    <title>aventura-india-room-bg-2</title>
    <desc>Created with Sketch.</desc>
    <defs></defs>
    <g id="kit" stroke="none" stroke-width="1" fill="none" fill-rule="evenodd" opacity="0.507987407">
        <g id="aventura-india-room-bg-2" fill="#FEFEFE">
            <g id="Group-21">
                <g id="Page-1">
                    <path d="M30.51516,30.8520136 C31.0820171,31.3341955 31.7108743,31.7490136 32.41236,32.07165 C32.6267029,32.1709227 32.8428171,32.2577864 33.0607029,32.3375591 C32.9561886,32.4776045 32.8569886,32.6194227 32.7701886,32.7665591 C31.9092743,34.2396955 31.2060171,35.79615 30.4372171,37.31715 C29.7410457,35.6064682 28.7632171,34.0269682 27.8881314,32.3978318 C28.2654457,32.2560136 28.6374457,32.09115 29.0041314,31.8943773 C29.5532743,31.5983318 30.0545886,31.2455591 30.51516,30.8520136" id="Fill-1"></path>
                    <path d="M28.15296,27.8204727 C28.53736,28.5632455 28.9997029,29.2581545 29.5399886,29.8821545 C28.8119314,30.4831091 27.9616457,30.9475636 26.9714171,31.2081545 C23.5578743,32.1051545 20.1850743,31.2826091 16.79456,30.7224273 C18.25776,29.5027909 19.7758743,28.3664727 21.3276457,27.2567455 C23.5189029,27.9445636 25.95816,28.1058818 28.15296,27.8204727" id="Fill-3"></path>
                    <path d="M29.5761257,27.5547409 C29.90384,27.4731955 30.2280114,27.3774682 30.54864,27.2657864 C33.4431543,28.1574682 36.9558971,28.01565 39.6768114,27.23565 C41.2427543,28.3489227 42.7697257,29.49765 44.2435543,30.7279227 C40.6936114,31.3412864 36.9452686,32.3357864 33.49984,31.0310591 C31.7337257,30.3609682 30.4582971,29.0934682 29.5761257,27.5547409" id="Fill-5"></path>
                    <path d="M52.9632343,15.8825727 C53.3458629,14.6735727 53.61512,13.3263 53.7586057,11.9205273 C55.4485486,11.5571182 57.0694057,10.9295727 58.4493486,9.88543636 C59.4254057,9.14798182 60.3536343,8.18184545 61.0019771,7.07743636 C60.94352,9.05048182 60.4014629,11.0448 59.71592,12.8334818 C58.64952,15.6113455 57.1562057,18.2190273 54.92952,20.2275273 C52.93312,22.0286182 50.34152,23.7144818 47.58872,24.1523455 C50.11832,22.1225727 51.9747771,19.0078909 52.9632343,15.8825727" id="Fill-7"></path>
                    <path d="M2.91453143,10.1398227 C4.19881714,11.0279591 5.72401714,11.6094136 7.30767429,11.9568682 C7.55567429,14.4546409 8.23413143,16.8903682 9.36076,19.0318227 C10.3598457,20.9304136 11.6476743,22.7120045 13.2844743,24.0787773 C10.4413314,23.5611409 7.80898857,21.93555 5.77538857,19.9217318 C3.65853143,17.8263682 2.12978857,15.2399591 1.16258857,12.4213227 C0.583331429,10.7283682 0.105045714,8.90955 0.0377314286,7.09782273 C0.75516,8.31745909 1.81270286,9.37755 2.91453143,10.1398227" id="Fill-9"></path>
                    <path d="M46.5354286,12.05295 C46.4167429,11.5087227 46.2679429,10.9520864 46.0908,10.3901318 C47.6815429,9.30345 49.1057714,7.95617727 49.9401143,6.30399545 C50.5176,5.16058636 50.9781714,3.87358636 51.1163429,2.58126818 C51.8975429,4.42135909 52.2358857,6.50431364 52.3439429,8.41708636 C52.514,11.4165409 52.2500571,14.4549955 51.0118286,17.2257682 C49.7116,20.1348136 47.6815429,23.1502227 44.6506286,24.4584955 C44.4416,24.5489045 44.2308,24.6269045 44.0182286,24.6960409 C46.9924571,21.5051318 47.4424,16.2419045 46.5354286,12.05295" id="Fill-11"></path>
                    <path d="M8.71472,8.00865 C8.87592,6.22174091 9.19832,4.32492273 9.90334857,2.62133182 C10.04152,4.05546818 10.5694057,5.48428636 11.2850629,6.65605909 C12.1920343,8.14515 13.4993486,9.38074091 14.96432,10.3982864 C14.05912,13.1513318 13.7668343,16.0851955 14.33192,19.0421045 C14.7304914,21.1179682 15.58432,23.1849682 17.03512,24.7290136 C16.6932343,24.6102409 16.3566629,24.4648773 16.0236343,24.2858318 C13.0635771,22.6974682 10.9414057,19.7511955 9.77934857,16.6400591 C8.74660571,13.87815 8.44900571,10.9425136 8.71472,8.00865" id="Fill-13"></path>
                    <path d="M32.4486743,26.3811955 C34.0146171,25.4363318 35.2670171,24.0411955 35.7027886,22.1621045 C36.4680457,18.8595136 34.3972457,16.7517409 31.84816,15.00915 C31.8286743,14.9949682 31.8074171,14.9825591 31.78616,14.9683773 C33.0456457,14.1582409 34.2945029,13.3374682 35.38216,12.3057409 C37.4370171,10.3575136 38.8311314,7.68246818 38.6167886,4.78937727 C38.5175886,3.44565 38.2182171,2.00265 37.6035314,0.756422727 C39.6814171,2.17637727 41.3873029,4.29833182 42.6521029,6.33165 C44.3331886,9.02796818 45.4350171,11.9511955 45.5643314,15.1527409 C45.6847886,18.1362409 45.1994171,21.5859682 42.9815886,23.7965591 C40.4112457,26.35815 35.9348457,27.04065 32.4486743,26.3811955" id="Fill-15"></path>
                    <path d="M33.4603371,18.0736636 C36.6028514,21.6545727 32.3531943,25.7619818 28.7483371,26.3523 C25.16828,26.9373 20.3127943,26.5029818 17.8062229,23.5354364 C15.7867943,21.1422545 15.2411943,17.8272545 15.4874229,14.7799364 C15.74428,11.5766182 16.8159943,8.63743636 18.6104514,5.96948182 C19.8787943,4.0833 21.46068,2.13152727 23.3933086,0.7878 C22.7113086,2.14393636 22.3959943,3.7323 22.3977657,5.15934545 C22.4013086,8.0418 23.7334229,10.7026636 25.9299943,12.5587091 C28.2700514,14.5353 31.4285086,15.7584818 33.4603371,18.0736636" id="Fill-17"></path>
                </g>
                <g id="Page-1-Copy-3" transform="translate(0.000000, 49.000000)">
                    <path d="M30.51516,30.8520136 C31.0820171,31.3341955 31.7108743,31.7490136 32.41236,32.07165 C32.6267029,32.1709227 32.8428171,32.2577864 33.0607029,32.3375591 C32.9561886,32.4776045 32.8569886,32.6194227 32.7701886,32.7665591 C31.9092743,34.2396955 31.2060171,35.79615 30.4372171,37.31715 C29.7410457,35.6064682 28.7632171,34.0269682 27.8881314,32.3978318 C28.2654457,32.2560136 28.6374457,32.09115 29.0041314,31.8943773 C29.5532743,31.5983318 30.0545886,31.2455591 30.51516,30.8520136" id="Fill-1"></path>
                    <path d="M28.15296,27.8204727 C28.53736,28.5632455 28.9997029,29.2581545 29.5399886,29.8821545 C28.8119314,30.4831091 27.9616457,30.9475636 26.9714171,31.2081545 C23.5578743,32.1051545 20.1850743,31.2826091 16.79456,30.7224273 C18.25776,29.5027909 19.7758743,28.3664727 21.3276457,27.2567455 C23.5189029,27.9445636 25.95816,28.1058818 28.15296,27.8204727" id="Fill-3"></path>
                    <path d="M29.5761257,27.5547409 C29.90384,27.4731955 30.2280114,27.3774682 30.54864,27.2657864 C33.4431543,28.1574682 36.9558971,28.01565 39.6768114,27.23565 C41.2427543,28.3489227 42.7697257,29.49765 44.2435543,30.7279227 C40.6936114,31.3412864 36.9452686,32.3357864 33.49984,31.0310591 C31.7337257,30.3609682 30.4582971,29.0934682 29.5761257,27.5547409" id="Fill-5"></path>
                    <path d="M52.9632343,15.8825727 C53.3458629,14.6735727 53.61512,13.3263 53.7586057,11.9205273 C55.4485486,11.5571182 57.0694057,10.9295727 58.4493486,9.88543636 C59.4254057,9.14798182 60.3536343,8.18184545 61.0019771,7.07743636 C60.94352,9.05048182 60.4014629,11.0448 59.71592,12.8334818 C58.64952,15.6113455 57.1562057,18.2190273 54.92952,20.2275273 C52.93312,22.0286182 50.34152,23.7144818 47.58872,24.1523455 C50.11832,22.1225727 51.9747771,19.0078909 52.9632343,15.8825727" id="Fill-7"></path>
                    <path d="M2.91453143,10.1398227 C4.19881714,11.0279591 5.72401714,11.6094136 7.30767429,11.9568682 C7.55567429,14.4546409 8.23413143,16.8903682 9.36076,19.0318227 C10.3598457,20.9304136 11.6476743,22.7120045 13.2844743,24.0787773 C10.4413314,23.5611409 7.80898857,21.93555 5.77538857,19.9217318 C3.65853143,17.8263682 2.12978857,15.2399591 1.16258857,12.4213227 C0.583331429,10.7283682 0.105045714,8.90955 0.0377314286,7.09782273 C0.75516,8.31745909 1.81270286,9.37755 2.91453143,10.1398227" id="Fill-9"></path>
                    <path d="M46.5354286,12.05295 C46.4167429,11.5087227 46.2679429,10.9520864 46.0908,10.3901318 C47.6815429,9.30345 49.1057714,7.95617727 49.9401143,6.30399545 C50.5176,5.16058636 50.9781714,3.87358636 51.1163429,2.58126818 C51.8975429,4.42135909 52.2358857,6.50431364 52.3439429,8.41708636 C52.514,11.4165409 52.2500571,14.4549955 51.0118286,17.2257682 C49.7116,20.1348136 47.6815429,23.1502227 44.6506286,24.4584955 C44.4416,24.5489045 44.2308,24.6269045 44.0182286,24.6960409 C46.9924571,21.5051318 47.4424,16.2419045 46.5354286,12.05295" id="Fill-11"></path>
                    <path d="M8.71472,8.00865 C8.87592,6.22174091 9.19832,4.32492273 9.90334857,2.62133182 C10.04152,4.05546818 10.5694057,5.48428636 11.2850629,6.65605909 C12.1920343,8.14515 13.4993486,9.38074091 14.96432,10.3982864 C14.05912,13.1513318 13.7668343,16.0851955 14.33192,19.0421045 C14.7304914,21.1179682 15.58432,23.1849682 17.03512,24.7290136 C16.6932343,24.6102409 16.3566629,24.4648773 16.0236343,24.2858318 C13.0635771,22.6974682 10.9414057,19.7511955 9.77934857,16.6400591 C8.74660571,13.87815 8.44900571,10.9425136 8.71472,8.00865" id="Fill-13"></path>
                    <path d="M32.4486743,26.3811955 C34.0146171,25.4363318 35.2670171,24.0411955 35.7027886,22.1621045 C36.4680457,18.8595136 34.3972457,16.7517409 31.84816,15.00915 C31.8286743,14.9949682 31.8074171,14.9825591 31.78616,14.9683773 C33.0456457,14.1582409 34.2945029,13.3374682 35.38216,12.3057409 C37.4370171,10.3575136 38.8311314,7.68246818 38.6167886,4.78937727 C38.5175886,3.44565 38.2182171,2.00265 37.6035314,0.756422727 C39.6814171,2.17637727 41.3873029,4.29833182 42.6521029,6.33165 C44.3331886,9.02796818 45.4350171,11.9511955 45.5643314,15.1527409 C45.6847886,18.1362409 45.1994171,21.5859682 42.9815886,23.7965591 C40.4112457,26.35815 35.9348457,27.04065 32.4486743,26.3811955" id="Fill-15"></path>
                    <path d="M33.4603371,18.0736636 C36.6028514,21.6545727 32.3531943,25.7619818 28.7483371,26.3523 C25.16828,26.9373 20.3127943,26.5029818 17.8062229,23.5354364 C15.7867943,21.1422545 15.2411943,17.8272545 15.4874229,14.7799364 C15.74428,11.5766182 16.8159943,8.63743636 18.6104514,5.96948182 C19.8787943,4.0833 21.46068,2.13152727 23.3933086,0.7878 C22.7113086,2.14393636 22.3959943,3.7323 22.3977657,5.15934545 C22.4013086,8.0418 23.7334229,10.7026636 25.9299943,12.5587091 C28.2700514,14.5353 31.4285086,15.7584818 33.4603371,18.0736636" id="Fill-17"></path>
                </g>
                <g id="Page-1-Copy-4" transform="translate(0.000000, 98.000000)">
                    <path d="M30.51516,30.8520136 C31.0820171,31.3341955 31.7108743,31.7490136 32.41236,32.07165 C32.6267029,32.1709227 32.8428171,32.2577864 33.0607029,32.3375591 C32.9561886,32.4776045 32.8569886,32.6194227 32.7701886,32.7665591 C31.9092743,34.2396955 31.2060171,35.79615 30.4372171,37.31715 C29.7410457,35.6064682 28.7632171,34.0269682 27.8881314,32.3978318 C28.2654457,32.2560136 28.6374457,32.09115 29.0041314,31.8943773 C29.5532743,31.5983318 30.0545886,31.2455591 30.51516,30.8520136" id="Fill-1"></path>
                    <path d="M28.15296,27.8204727 C28.53736,28.5632455 28.9997029,29.2581545 29.5399886,29.8821545 C28.8119314,30.4831091 27.9616457,30.9475636 26.9714171,31.2081545 C23.5578743,32.1051545 20.1850743,31.2826091 16.79456,30.7224273 C18.25776,29.5027909 19.7758743,28.3664727 21.3276457,27.2567455 C23.5189029,27.9445636 25.95816,28.1058818 28.15296,27.8204727" id="Fill-3"></path>
                    <path d="M29.5761257,27.5547409 C29.90384,27.4731955 30.2280114,27.3774682 30.54864,27.2657864 C33.4431543,28.1574682 36.9558971,28.01565 39.6768114,27.23565 C41.2427543,28.3489227 42.7697257,29.49765 44.2435543,30.7279227 C40.6936114,31.3412864 36.9452686,32.3357864 33.49984,31.0310591 C31.7337257,30.3609682 30.4582971,29.0934682 29.5761257,27.5547409" id="Fill-5"></path>
                    <path d="M52.9632343,15.8825727 C53.3458629,14.6735727 53.61512,13.3263 53.7586057,11.9205273 C55.4485486,11.5571182 57.0694057,10.9295727 58.4493486,9.88543636 C59.4254057,9.14798182 60.3536343,8.18184545 61.0019771,7.07743636 C60.94352,9.05048182 60.4014629,11.0448 59.71592,12.8334818 C58.64952,15.6113455 57.1562057,18.2190273 54.92952,20.2275273 C52.93312,22.0286182 50.34152,23.7144818 47.58872,24.1523455 C50.11832,22.1225727 51.9747771,19.0078909 52.9632343,15.8825727" id="Fill-7"></path>
                    <path d="M2.91453143,10.1398227 C4.19881714,11.0279591 5.72401714,11.6094136 7.30767429,11.9568682 C7.55567429,14.4546409 8.23413143,16.8903682 9.36076,19.0318227 C10.3598457,20.9304136 11.6476743,22.7120045 13.2844743,24.0787773 C10.4413314,23.5611409 7.80898857,21.93555 5.77538857,19.9217318 C3.65853143,17.8263682 2.12978857,15.2399591 1.16258857,12.4213227 C0.583331429,10.7283682 0.105045714,8.90955 0.0377314286,7.09782273 C0.75516,8.31745909 1.81270286,9.37755 2.91453143,10.1398227" id="Fill-9"></path>
                    <path d="M46.5354286,12.05295 C46.4167429,11.5087227 46.2679429,10.9520864 46.0908,10.3901318 C47.6815429,9.30345 49.1057714,7.95617727 49.9401143,6.30399545 C50.5176,5.16058636 50.9781714,3.87358636 51.1163429,2.58126818 C51.8975429,4.42135909 52.2358857,6.50431364 52.3439429,8.41708636 C52.514,11.4165409 52.2500571,14.4549955 51.0118286,17.2257682 C49.7116,20.1348136 47.6815429,23.1502227 44.6506286,24.4584955 C44.4416,24.5489045 44.2308,24.6269045 44.0182286,24.6960409 C46.9924571,21.5051318 47.4424,16.2419045 46.5354286,12.05295" id="Fill-11"></path>
                    <path d="M8.71472,8.00865 C8.87592,6.22174091 9.19832,4.32492273 9.90334857,2.62133182 C10.04152,4.05546818 10.5694057,5.48428636 11.2850629,6.65605909 C12.1920343,8.14515 13.4993486,9.38074091 14.96432,10.3982864 C14.05912,13.1513318 13.7668343,16.0851955 14.33192,19.0421045 C14.7304914,21.1179682 15.58432,23.1849682 17.03512,24.7290136 C16.6932343,24.6102409 16.3566629,24.4648773 16.0236343,24.2858318 C13.0635771,22.6974682 10.9414057,19.7511955 9.77934857,16.6400591 C8.74660571,13.87815 8.44900571,10.9425136 8.71472,8.00865" id="Fill-13"></path>
                    <path d="M32.4486743,26.3811955 C34.0146171,25.4363318 35.2670171,24.0411955 35.7027886,22.1621045 C36.4680457,18.8595136 34.3972457,16.7517409 31.84816,15.00915 C31.8286743,14.9949682 31.8074171,14.9825591 31.78616,14.9683773 C33.0456457,14.1582409 34.2945029,13.3374682 35.38216,12.3057409 C37.4370171,10.3575136 38.8311314,7.68246818 38.6167886,4.78937727 C38.5175886,3.44565 38.2182171,2.00265 37.6035314,0.756422727 C39.6814171,2.17637727 41.3873029,4.29833182 42.6521029,6.33165 C44.3331886,9.02796818 45.4350171,11.9511955 45.5643314,15.1527409 C45.6847886,18.1362409 45.1994171,21.5859682 42.9815886,23.7965591 C40.4112457,26.35815 35.9348457,27.04065 32.4486743,26.3811955" id="Fill-15"></path>
                    <path d="M33.4603371,18.0736636 C36.6028514,21.6545727 32.3531943,25.7619818 28.7483371,26.3523 C25.16828,26.9373 20.3127943,26.5029818 17.8062229,23.5354364 C15.7867943,21.1422545 15.2411943,17.8272545 15.4874229,14.7799364 C15.74428,11.5766182 16.8159943,8.63743636 18.6104514,5.96948182 C19.8787943,4.0833 21.46068,2.13152727 23.3933086,0.7878 C22.7113086,2.14393636 22.3959943,3.7323 22.3977657,5.15934545 C22.4013086,8.0418 23.7334229,10.7026636 25.9299943,12.5587091 C28.2700514,14.5353 31.4285086,15.7584818 33.4603371,18.0736636" id="Fill-17"></path>
                </g>
            </g>
        </g>
    </g>
</svg>