<?xml version="1.0" encoding="UTF-8" standalone="no"?>
<svg width="182px" height="53px" viewBox="0 0 182 53" version="1.1" xmlns="http://www.w3.org/2000/svg" xmlns:xlink="http://www.w3.org/1999/xlink">
    <!-- Generator: Sketch 3.6.1 (26313) - http://www.bohemiancoding.com/sketch -->
    <title>aventura-brand-wide-ap</title>
    <desc>Created with Sketch.</desc>
    <defs></defs>
    <g id="kit" stroke="none" stroke-width="1" fill="none" fill-rule="evenodd">
        <g id="aventura-brand-wide-ap">
            <path d="M0.37311786,16.3770495 L6.04025042,16.3770495 L6.04025042,36.3971012 L28.7680351,36.3971012 L28.7680351,16.3770495 L34.4360935,16.3770495 L17.3985876,0.0470307549 L0.37311786,16.3770495" id="Fill-1" fill="#E58324"></path>
            <path d="M20.300204,37.3226665 L24.2591418,37.3226665 L24.2591418,24.611194 C24.2591418,19.0747336 20.7399831,16.5962128 17.2523032,16.5962128 C13.7646234,16.5962128 10.2445388,19.0747336 10.2445388,24.611194 L10.2445388,37.3226665 L20.300204,37.3226665 L20.300204,37.3226665 Z" id="Stroke-3" stroke="#FFFFFF" stroke-width="1.759296"></path>
            <path d="M55.0508468,46.3535544 C55.0508468,44.9313528 54.3434927,44.2477728 53.4636556,44.2477728 C52.5855608,44.2477728 51.8782067,44.9313528 51.8782067,46.3535544 L51.8782067,47.6567953 L55.0508468,47.6567953 L55.0508468,46.3535544 Z M51.8782067,52.5288567 L50.2718507,52.5288567 L50.2718507,46.3535544 C50.2718507,43.9565854 51.7057238,42.6320381 53.4636556,42.6320381 C55.2233297,42.6320381 56.6554605,43.9565854 56.6554605,46.3535544 L56.6554605,52.5288567 L55.0508468,52.5288567 L55.0508468,49.276081 L51.8782067,49.276081 L51.8782067,52.5288567 Z" id="Fill-1" fill="#E58324"></path>
            <path d="M69.686457,46.0414158 C69.686457,45.1447718 68.9791028,44.4043748 68.0992658,44.4043748 L66.1880158,44.4043748 L66.1880158,47.6571504 L68.0992658,47.6571504 C68.9791028,47.6571504 69.686457,46.9167533 69.686457,46.0414158 M71.2736482,46.0414158 C71.2736482,47.8133973 69.8397751,49.2746606 68.0992658,49.2746606 L66.1880158,49.2746606 L66.1880158,52.5274362 L64.5834021,52.5274362 L64.5834021,42.7886401 L68.0992658,42.7886401 C69.8397751,42.7886401 71.2736482,44.2481279 71.2736482,46.0414158" id="Fill-3" fill="#E58324"></path>
            <path d="M83.6722073,46.3535544 C83.6722073,44.9313528 82.9648532,44.2477728 82.0850162,44.2477728 C81.2069214,44.2477728 80.4995672,44.9313528 80.4995672,46.3535544 L80.4995672,47.6567953 L83.6722073,47.6567953 L83.6722073,46.3535544 Z M80.4995672,52.5288567 L78.8932113,52.5288567 L78.8932113,46.3535544 C78.8932113,43.9565854 80.3270843,42.6320381 82.0850162,42.6320381 C83.8446903,42.6320381 85.2768211,43.9565854 85.2768211,46.3535544 L85.2768211,52.5288567 L83.6722073,52.5288567 L83.6722073,49.276081 L80.4995672,49.276081 L80.4995672,52.5288567 Z" id="Fill-5" fill="#E58324"></path>
            <path d="M97.8288726,46.0414158 C97.8288726,45.1447718 97.1215184,44.4043748 96.2434236,44.4043748 L94.8095506,44.4043748 L94.8095506,47.6571504 L96.2434236,47.6571504 C97.1215184,47.6571504 97.8288726,46.9167533 97.8288726,46.0414158 L97.8288726,46.0414158 Z M100.217499,52.5274362 L98.2696622,52.5274362 L95.9751169,49.2746606 L94.8095506,49.2746606 L94.8095506,52.5274362 L93.2031946,52.5274362 L93.2031946,42.7886401 L96.2434236,42.7886401 C97.9821907,42.7886401 99.4160638,44.2481279 99.4160638,46.0414158 C99.4160638,47.2878396 98.7278744,48.3780166 97.6964615,48.9248807 L100.217499,52.5274362 Z" id="Fill-7" fill="#E58324"></path>
            <path d="M106.424445,44.4045523 L106.424445,42.7888177 L113.43875,42.7888177 L113.43875,44.4045523 L110.726064,44.4045523 L110.726064,52.5276138 L109.138873,52.5276138 L109.138873,44.4045523 L106.424445,44.4045523 Z" id="Fill-9" fill="#E58324"></path>
            <path d="M126.73753,52.5279689 L126.73753,46.6456295 L124.42382,51.0667056 L124.098019,51.0667056 L121.805216,46.6456295 L121.805216,52.5279689 L120.275519,52.5279689 L120.275519,42.7891728 L121.596146,42.7891728 L124.270502,47.9098087 L126.946601,42.7891728 L128.24632,42.7891728 L128.24632,52.5279689 L126.73753,52.5279689 Z" id="Fill-11" fill="#E58324"></path>
            <path d="M136.171997,42.7886401 L140.950993,42.7886401 L140.950993,44.4043748 L137.778353,44.4043748 L137.778353,46.3539095 L140.950993,46.3539095 L140.950993,47.989175 L137.778353,47.989175 L137.778353,50.9117016 L140.950993,50.9117016 L140.950993,52.5274362 L136.171997,52.5274362 L136.171997,42.7886401 Z" id="Fill-13" fill="#E58324"></path>
            <path d="M153.866652,42.7886401 L155.300526,42.7886401 L155.300526,52.5274362 L154.09663,52.5274362 L150.349047,46.3130723 L150.349047,52.5274362 L148.915173,52.5274362 L148.915173,42.7886401 L150.120812,42.7886401 L153.866652,49.0030041 L153.866652,42.7886401 Z" id="Fill-15" fill="#E58324"></path>
            <path d="M162.137295,44.4045523 L162.137295,42.7888177 L169.1516,42.7888177 L169.1516,44.4045523 L166.438914,44.4045523 L166.438914,52.5276138 L164.851723,52.5276138 L164.851723,44.4045523 L162.137295,44.4045523 Z" id="Fill-17" fill="#E58324"></path>
            <g id="Group-21" transform="translate(174.967410, 42.030843)" fill="#E58324">
                <path d="M3.23971682,10.6531954 C2.18739686,10.6531954 1.40338365,10.3211708 0.523546601,9.64114181 L0.716936526,8.17810298 C1.67169039,8.70366062 2.47486837,9.0569916 3.2763041,9.0569916 C3.9854005,9.0569916 4.94189661,8.66637444 4.94189661,7.84785393 C4.94189661,5.997749 0.39113548,6.73814607 0.39113548,3.46406403 C0.39113548,1.77020596 1.86333807,0.601905539 3.56551786,0.601905539 C4.63526034,0.601905539 5.38094401,0.971216312 6.35486265,1.77020596 L5.83915618,3.03616068 C5.18929634,2.60825733 4.38611836,2.19810931 3.60210515,2.19810931 C2.64560903,2.19810931 2.07240826,2.72366695 2.07240826,3.3095927 C2.07240826,5.06381887 6.60400462,4.59507827 6.60400462,7.61348363 C6.60400462,9.61983542 4.95931913,10.6531954 3.23971682,10.6531954" id="Fill-19"></path>
            </g>
            <path d="M20.300204,37.3226665 L24.2591418,37.3226665 L24.2591418,24.611194 C24.2591418,19.0747336 20.7399831,16.5962128 17.2523032,16.5962128 C13.7646234,16.5962128 10.2445388,19.0747336 10.2445388,24.611194 L10.2445388,37.3226665 L20.300204,37.3226665" id="Fill-2" fill="#FFFFFF"></path>
            <path d="M172.077698,30.2210225 L178.169796,30.2210225 L178.169796,36.4469538 L181.252879,36.4469538 L181.252879,24.6281251 C181.252879,20.0426265 178.500325,17.5067282 175.123747,17.5067282 C171.748095,17.5067282 168.995541,20.0426265 168.995541,24.6281251 L168.995541,36.4469538 L172.077698,36.4469538 L172.077698,30.2210225 L172.077698,30.2210225 Z M178.169796,27.1263988 L172.077698,27.1263988 L172.077698,24.6281251 C172.077698,21.9069256 173.435921,20.6013519 175.123747,20.6013519 C176.812499,20.6013519 178.169796,21.9069256 178.169796,24.6281251 L178.169796,27.1263988 L178.169796,27.1263988 Z M150.976633,27.1263988 L148.224079,27.1263988 L148.224079,20.8995269 L150.976633,20.8995269 C152.664459,20.8995269 154.022682,22.3170338 154.022682,24.0317751 C154.022682,25.7098325 152.664459,27.1263988 150.976633,27.1263988 L150.976633,27.1263988 Z M153.765296,29.5494233 C155.747542,28.5062812 157.068731,26.4181156 157.068731,24.0317751 C157.068731,20.6013519 154.316177,17.8058438 150.976633,17.8058438 L145.140996,17.8058438 L145.140996,36.4469538 L148.224079,36.4469538 L148.224079,30.2210225 L150.462786,30.2210225 L154.866132,36.4469538 L158.609347,36.4469538 L153.765296,29.5494233 L153.765296,29.5494233 Z M121.287377,17.8058438 L121.287377,29.6246725 C121.287377,34.2101711 124.039931,36.7460694 127.415583,36.7460694 C130.792161,36.7460694 133.544715,34.2101711 133.544715,29.6246725 L133.544715,17.8058438 L130.461632,17.8058438 L130.461632,29.6246725 C130.461632,32.345872 129.104335,33.6514457 127.415583,33.6514457 C125.727757,33.6514457 124.369534,32.345872 124.369534,29.6246725 L124.369534,17.8058438 L121.287377,17.8058438 L121.287377,17.8058438 Z M103.561964,36.4469538 L106.608013,36.4469538 L106.608013,20.8995269 L111.818701,20.8995269 L111.818701,17.8058438 L98.3503496,17.8058438 L98.3503496,20.8995269 L103.561964,20.8995269 L103.561964,36.4469538 Z M86.1300453,29.6989811 L78.9371107,17.8058438 L76.6252613,17.8058438 L76.6252613,36.4469538 L79.3778157,36.4469538 L79.3778157,24.5538165 L86.5707503,36.4469538 L88.8825997,36.4469538 L88.8825997,17.8058438 L86.1300453,17.8058438 L86.1300453,29.6989811 L86.1300453,29.6989811 Z M55.8167653,36.4469538 L64.9919464,36.4469538 L64.9919464,33.3532707 L58.8998484,33.3532707 L58.8998484,27.7603734 L64.9919464,27.7603734 L64.9919464,24.6281251 L58.8998484,24.6281251 L58.8998484,20.8995269 L64.9919464,20.8995269 L64.9919464,17.8058438 L55.8167653,17.8058438 L55.8167653,36.4469538 L55.8167653,36.4469538 Z M47.2665334,17.8058438 L43.9640238,17.8058438 L39.5967857,29.0650065 L35.2665816,17.8058438 L31.9631461,17.8058438 L39.303291,36.7460694 L39.9273144,36.7460694 L47.2665334,17.8058438 L47.2665334,17.8058438 Z M14.2377331,30.2210225 L20.3298312,30.2210225 L20.3298312,36.4469538 L23.4129142,36.4469538 L23.4129142,24.6281251 C23.4129142,20.0426265 20.6603599,17.5067282 17.2837822,17.5067282 C13.9072044,17.5067282 11.1555759,20.0426265 11.1555759,24.6281251 L11.1555759,36.4469538 L14.2377331,36.4469538 L14.2377331,30.2210225 L14.2377331,30.2210225 Z M20.3298312,27.1263988 L14.2377331,27.1263988 L14.2377331,24.6281251 C14.2377331,21.9069256 15.5959562,20.6013519 17.2837822,20.6013519 C18.9716081,20.6013519 20.3298312,21.9069256 20.3298312,24.6281251 L20.3298312,27.1263988 L20.3298312,27.1263988 Z" id="Fill-10" fill="#272525"></path>
        </g>
    </g>
</svg>