<?xml version="1.0" encoding="UTF-8" standalone="no"?>
<svg width="22px" height="22px" viewBox="0 0 22 22" version="1.1" xmlns="http://www.w3.org/2000/svg" xmlns:xlink="http://www.w3.org/1999/xlink">
    <!-- Generator: Sketch 3.6.1 (26313) - http://www.bohemiancoding.com/sketch -->
    <title>aventura-carusel-arrow-right</title>
    <desc>Created with Sketch.</desc>
    <defs></defs>
    <g id="kit" stroke="none" stroke-width="1" fill="none" fill-rule="evenodd">
        <g id="aventura-carusel-arrow-right" fill="#FFFFFF">
            <path d="M15.4955435,11.5692031 C15.4955435,11.4799172 15.4509005,11.3794707 15.3839362,11.3125063 L10.1830371,6.11160728 C10.1160728,6.04464291 10.0156262,6 9.92634039,6 C9.83705457,6 9.73660802,6.04464291 9.66964366,6.11160728 L9.11160728,6.66964366 C9.04464291,6.73660802 9,6.83705457 9,6.92634039 C9,7.01562621 9.04464291,7.11607276 9.11160728,7.18303712 L13.4977732,11.5692031 L9.11160728,15.955369 C9.04464291,16.0223334 9,16.1227799 9,16.2120657 C9,16.3125123 9.04464291,16.4017981 9.11160728,16.4687625 L9.66964366,17.0267989 C9.73660802,17.0937632 9.83705457,17.1384061 9.92634039,17.1384061 C10.0156262,17.1384061 10.1160728,17.0937632 10.1830371,17.0267989 L15.3839362,11.8258998 C15.4509005,11.7589354 15.4955435,11.6584889 15.4955435,11.5692031 L15.4955435,11.5692031 Z" id=""></path>
        </g>
    </g>
</svg>