<?xml version="1.0" encoding="UTF-8" standalone="no"?>
<svg width="900px" height="90px" viewBox="0 0 900 90" version="1.1" xmlns="http://www.w3.org/2000/svg" xmlns:xlink="http://www.w3.org/1999/xlink">
    <!-- Generator: Sketch 3.6.1 (26313) - http://www.bohemiancoding.com/sketch -->
    <title>aventura-africa-room-bg</title>
    <desc>Created with Sketch.</desc>
    <defs></defs>
    <g id="kit" stroke="none" stroke-width="1" fill="none" fill-rule="evenodd">
        <g id="aventura-africa-room-bg" fill="#571813">
            <g id="Page-1-+-Page-1-Copy">
                <g id="Page-1" transform="translate(503.076547, 0.000000)">
                    <path d="M342.121485,90.8801655 C323.981335,80.0457546 321.494461,77.715004 312.309498,83.9324603 C303.122501,90.1483257 298.648974,93.2554629 312.309498,101.027283 C325.967988,108.799104 336.423839,114.238583 342.121485,107.24474 C347.819131,100.250897 342.121485,90.8801655 342.121485,90.8801655" id="Fill-9"></path>
                    <path d="M310.176032,61.5109755 C297.16417,57.6258608 297.127568,54.5171326 289.697447,50.630427 C282.267326,46.7453122 274.117374,49.0760629 272.232393,56.0699058 C270.349445,63.0637487 280.244072,73.9427063 289.697447,79.383776 C299.152856,84.8232549 310.932465,80.9381401 313.980563,73.9442972 C317.030695,66.9504543 310.176032,61.5109755 310.176032,61.5109755" id="Fill-13"></path>
                    <path d="M363.455498,76.611555 C351.063374,77.3428917 322.851163,78.2856645 325.21853,70.5045311 C327.585898,62.7233978 329.503484,62.0166803 318.147894,53.5273813 C306.790452,45.0395305 302.577685,38.6732803 295.192386,38.6732803 C287.807088,38.6732803 307.556746,19.5730817 329.323942,29.4772639 C351.091138,39.3799978 375.836516,50.9988388 381.546703,51.9097513 C387.255039,52.8192156 398.281161,57.7720308 390.05553,62.7233978 C381.83175,67.6747648 370.385462,76.203165 363.455498,76.611555" id="Fill-15"></path>
                    <path d="M272.233206,99.5045975 C252.801834,95.4190223 238.293374,92.2641564 242.409018,85.0618983 C246.524663,77.8596401 258.414076,71.4958158 268.422575,75.9011732 C278.431074,80.3065306 282.18477,86.6703549 281.560509,90.5856978 C280.934216,94.5010406 278.788956,100.882365 272.233206,99.5045975" id="Fill-28"></path>
                    <path d="M228.510694,113.518348 C227.26014,118.359627 228.775039,122.351336 219.882888,120.8447 C210.992771,119.339656 196.2342,128.640385 195.792947,116.892765 C195.351695,105.143555 195.351695,94.3743732 202.234826,89.4805923 C209.115923,84.5852205 218.284619,82.2958347 228.510694,81.0723895 C233.730486,80.401006 229.761248,108.677068 228.510694,113.518348 Z" id="Fill-30"></path>
                    <path d="M241.707894,65.3532935 C254.65672,52.406093 274.055558,41.6369114 268.422982,24.5054964 C262.790405,7.37249044 247.787824,-5.35356718 237.460078,2.96713307 C227.132331,11.2878333 223.712117,8.3191093 222.919083,29.6283749 C222.124015,50.9376406 218.705834,63.6621072 222.919083,67.5790411 C227.132331,71.4959749 241.707894,65.3532935 241.707894,65.3532935" id="Fill-32"></path>
                    <path d="M209.231922,79.327138 C209.947686,67.0990496 213.992161,54.3650372 203.357368,51.9165558 C192.722575,49.4680744 184.023599,55.7841701 183.055691,65.3537708 C182.087782,74.9217806 184.241175,82.1192659 192.234554,81.9474427 C200.229966,81.7740284 209.036713,82.6729186 209.231922,79.327138" id="Fill-34"></path>
                    <path d="M169.744306,84.538951 C158.940739,83.706881 158.932605,83.2439128 151.429281,88.6277081 C143.923924,94.0115035 145.428655,103.919978 136.855752,93.3369381 C128.282848,82.7538983 125.407591,76.390074 136.855752,76.390074 C148.303913,76.390074 153.460669,76.063928 158.700795,68.8855342 C163.942955,61.7055495 172.064439,61.8694179 171.757393,68.8855342 C171.450346,75.9016505 173.613906,84.8364598 169.744306,84.538951" id="Fill-44"></path>
                    <path d="M182.840758,37.7212503 C178.409933,28.3966567 174.975485,18.6313684 166.644559,22.0582878 C158.313632,25.4836162 156.365615,29.3989591 162.030726,40.1681407 C167.695837,50.9373224 168.320098,52.4566854 174.576935,48.7593035 C180.835805,45.0635126 185.815653,43.9832534 182.840758,37.7212503" id="Fill-46"></path>
                    <path d="M209.231922,21.3563579 C211.228741,28.4695225 221.129469,24.6655466 213.807119,34.6201587 C206.48477,44.5731799 207.045994,50.4469897 198.631697,45.5532088 C190.219434,40.657837 195.158614,36.2190696 198.631697,29.6277386 C202.10478,23.0364075 206.974824,13.314075 209.231922,21.3563579" id="Fill-48"></path>
                    <path d="M144.242358,65.3532935 C133.912578,64.1537127 128.953064,60.4897408 135.50068,50.5733116 C142.048296,40.6584734 146.208676,40.1684589 150.696436,45.0638307 C155.184197,49.9576116 158.443771,61.0115744 152.748158,63.561877 C147.052546,66.1105886 144.242358,65.3532935 144.242358,65.3532935" id="Fill-50"></path>
                    <path d="M49.8815191,66.3207759 C39.5517395,65.121195 34.5922253,61.4572232 41.1398414,51.540794 C47.6874576,41.6259558 51.8478373,41.1359413 56.3355978,46.0313131 C60.8233584,50.925094 64.0829325,61.9790568 58.3873198,64.5293594 C52.6917071,67.078071 49.8815191,66.3207759 49.8815191,66.3207759" id="Fill-50-Copy"></path>
                    <path d="M113.945399,66.6683778 C91.3723904,57.7908429 91.9946172,46.6191494 76.9818687,57.3437843 C61.9670868,68.0684192 60.0902391,76.8711791 73.854467,80.7912949 C87.6166615,84.7114106 108.367725,79.8160388 113.945399,77.8591628 C119.523073,75.9006959 113.945399,66.6683778 113.945399,66.6683778" id="Fill-52"></path>
                    <path d="M116.425563,42.0327412 C117.647649,52.8957893 122.129309,51.6596164 113.944789,53.7453598 C105.760269,55.8326942 105.345451,53.1471604 95.855474,50.5745844 C86.3654974,48.0004175 84.7224931,51.239604 84.6045547,42.0327412 C84.4886497,32.8258784 87.3517067,30.0496601 100.623847,34.6204769 C113.893953,39.1897027 116.425563,42.0327412 116.425563,42.0327412" id="Fill-56"></path>
                    <path d="M40.6952646,74.449744 C60.7163294,84.7114106 82.6122086,97.9290737 80.1090672,105.759759 C77.6079591,113.592036 74.6310305,110.946276 64.5472949,114.471835 C54.4615259,117.995803 41.3215583,126.481962 35.6910151,130.80459 C30.0604719,135.128809 28.8302521,130.725042 16.6215913,123.381189 C4.41089721,116.038927 -13.7089189,76.3907104 16.6215913,72.4753675 C32.8279581,70.2559838 40.6952646,74.449744 40.6952646,74.449744" id="Fill-58"></path>
                </g>
                <g id="Page-1-Copy" transform="translate(272.423453, 103.000000) scale(-1, 1) translate(-272.423453, -103.000000) translate(0.923453, 0.000000)">
                    <path d="M339.121485,92.8801655 C320.981335,82.0457546 318.494461,79.715004 309.309498,85.9324603 C300.122501,92.1483257 295.648974,95.2554629 309.309498,103.027283 C322.967988,110.799104 333.423839,116.238583 339.121485,109.24474 C344.819131,102.250897 339.121485,92.8801655 339.121485,92.8801655" id="Fill-9"></path>
                    <path d="M310.176032,61.5109755 C297.16417,57.6258608 297.127568,54.5171326 289.697447,50.630427 C282.267326,46.7453122 274.117374,49.0760629 272.232393,56.0699058 C270.349445,63.0637487 280.244072,73.9427063 289.697447,79.383776 C299.152856,84.8232549 310.932465,80.9381401 313.980563,73.9442972 C317.030695,66.9504543 310.176032,61.5109755 310.176032,61.5109755" id="Fill-13"></path>
                    <path d="M370.340491,84.538951 C356.726736,85.3423838 325.733331,86.3780962 328.334076,77.8298893 C330.934822,69.2816823 333.041446,68.5052957 320.566408,59.1791112 C308.089335,49.8545177 303.461269,42.8606748 295.347918,42.8606748 C287.234568,42.8606748 308.931172,21.8775551 332.844205,32.7581037 C356.757238,43.6370613 383.942045,56.4013019 390.21515,57.4020133 C396.48622,58.4011337 408.59931,63.8422035 399.562787,69.2816823 C390.528296,74.7211611 377.95362,84.0903014 370.340491,84.538951" id="Fill-15"></path>
                    <path d="M453.099309,94.8801655 C458.150327,72.081765 448.135728,43.6370613 442.175771,41.3063107 C436.215813,38.9739691 427.390765,49.8545177 418.891065,62.2878394 C410.391364,74.7211611 395.472153,75.4991386 402.434587,90.263211 C409.399055,105.027283 402.560659,115.365316 418.891065,114.471199 C435.22147,113.577081 451.551876,101.864463 453.099309,94.8801655" id="Fill-17"></path>
                    <path d="M499.269967,81.538951 C480.554359,91.5301551 462.040059,96.931451 463.032368,111.525291 C464.024678,126.119131 470.429955,141.368445 478.651076,141.12662 C486.870165,140.883203 502.208261,133.890952 509.437073,119.125288 C516.665885,104.359625 524.817871,84.3931262 518.652538,82.0607846 C513.749959,80.560513 506.330005,77.7683851 499.269967,81.538951" id="Fill-19"></path>
                    <g id="Group-23" transform="translate(464.000000, 16.000000)">
                        <path d="M61.6068381,57.1674334 C44.9083834,53.487552 37.4213267,47.8428398 27.6629385,57.1674334 C17.9025168,66.4920269 14.919488,84.2200504 8.96359737,61.7573417 C3.00567333,39.2946329 -7.81009388,26.8183553 9.02053316,13.6277386 C25.8511602,0.438712713 36.1565387,-5.00235705 56.3301101,7.43255561 C76.5036816,19.8658773 83.457982,32.515569 73.5247196,41.3437843 C63.5914571,50.1735905 68.2744261,58.6374768 61.6068381,57.1674334" id="Fill-21"></path>
                    </g>
                    <path d="M272.233206,99.5045975 C252.801834,95.4190223 238.293374,92.2641564 242.409018,85.0618983 C246.524663,77.8596401 258.414076,71.4958158 268.422575,75.9011732 C278.431074,80.3065306 282.18477,86.6703549 281.560509,90.5856978 C280.934216,94.5010406 278.788956,100.882365 272.233206,99.5045975" id="Fill-28"></path>
                    <path d="M231.510694,81.0723895 C236.730486,80.401006 232.761248,108.677068 231.510694,113.518348 C230.26014,118.359627 231.775039,122.351336 222.882888,120.8447 C213.992771,119.339656 199.2342,128.640385 198.792947,116.892765 C198.351695,105.143555 198.351695,94.3743732 205.234826,89.4805923 C212.115923,84.5852205 221.284619,82.2958347 231.510694,81.0723895" id="Fill-30"></path>
                    <path d="M241.707894,65.3532935 C254.65672,52.406093 274.055558,41.6369114 268.422982,24.5054964 C262.790405,7.37249044 247.787824,-5.35356718 237.460078,2.96713307 C227.132331,11.2878333 223.712117,8.3191093 222.919083,29.6283749 C222.124015,50.9376406 218.705834,63.6621072 222.919083,67.5790411 C227.132331,71.4959749 241.707894,65.3532935 241.707894,65.3532935" id="Fill-32"></path>
                    <path d="M209.231922,79.327138 C209.947686,67.0990496 213.992161,54.3650372 203.357368,51.9165558 C192.722575,49.4680744 184.023599,55.7841701 183.055691,65.3537708 C182.087782,74.9217806 184.241175,82.1192659 192.234554,81.9474427 C200.229966,81.7740284 209.036713,82.6729186 209.231922,79.327138" id="Fill-34"></path>
                    <path d="M169.744306,84.538951 C158.940739,83.706881 158.932605,83.2439128 151.429281,88.6277081 C143.923924,94.0115035 145.428655,103.919978 136.855752,93.3369381 C128.282848,82.7538983 125.407591,76.390074 136.855752,76.390074 C148.303913,76.390074 153.460669,76.063928 158.700795,68.8855342 C163.942955,61.7055495 172.064439,61.8694179 171.757393,68.8855342 C171.450346,75.9016505 173.613906,84.8364598 169.744306,84.538951" id="Fill-44"></path>
                    <path d="M182.840758,37.7212503 C178.409933,28.3966567 174.975485,18.6313684 166.644559,22.0582878 C158.313632,25.4836162 156.365615,29.3989591 162.030726,40.1681407 C167.695837,50.9373224 168.320098,52.4566854 174.576935,48.7593035 C180.835805,45.0635126 185.815653,43.9832534 182.840758,37.7212503" id="Fill-46"></path>
                    <path d="M209.231922,21.3563579 C211.228741,28.4695225 221.129469,24.6655466 213.807119,34.6201587 C206.48477,44.5731799 207.045994,50.4469897 198.631697,45.5532088 C190.219434,40.657837 195.158614,36.2190696 198.631697,29.6277386 C202.10478,23.0364075 206.974824,13.314075 209.231922,21.3563579" id="Fill-48"></path>
                    <path d="M144.242358,65.3532935 C133.912578,64.1537127 128.953064,60.4897408 135.50068,50.5733116 C142.048296,40.6584734 146.208676,40.1684589 150.696436,45.0638307 C155.184197,49.9576116 158.443771,61.0115744 152.748158,63.561877 C147.052546,66.1105886 144.242358,65.3532935 144.242358,65.3532935" id="Fill-50"></path>
                    <path d="M97.3547095,72.5734166 C98.5767956,83.4364647 103.058456,82.2002918 94.8739356,84.2860352 C86.6894154,86.3733696 86.2745975,83.6878358 76.7846209,81.1152598 C67.2946443,78.5410929 65.65164,81.7802794 65.5337015,72.5734166 C65.4177965,63.3665539 68.2808535,60.5903355 81.5529935,65.1611523 C94.8231001,69.7303781 97.3547095,72.5734166 97.3547095,72.5734166" id="Fill-56"></path>
                    <path d="M40.6952646,74.449744 C60.7163294,84.7114106 82.6122086,97.9290737 80.1090672,105.759759 C77.6079591,113.592036 74.6310305,110.946276 64.5472949,114.471835 C54.4615259,117.995803 41.3215583,126.481962 35.6910151,130.80459 C30.0604719,135.128809 28.8302521,130.725042 16.6215913,123.381189 C4.41089721,116.038927 -13.7089189,76.3907104 16.6215913,72.4753675 C32.8279581,70.2559838 40.6952646,74.449744 40.6952646,74.449744" id="Fill-58"></path>
                </g>
            </g>
        </g>
    </g>
</svg>