<?xml version="1.0" encoding="UTF-8" standalone="no"?>
<svg width="45px" height="45px" viewBox="0 0 45 45" version="1.1" xmlns="http://www.w3.org/2000/svg" xmlns:xlink="http://www.w3.org/1999/xlink" xmlns:sketch="http://www.bohemiancoding.com/sketch/ns">
    <!-- Generator: Sketch 3.3.2 (12043) - http://www.bohemiancoding.com/sketch -->
    <title>aventura-free-biscuit</title>
    <desc>Created with Sketch.</desc>
    <defs></defs>
    <g id="utilities" stroke="none" stroke-width="1" fill="none" fill-rule="evenodd" sketch:type="MSPage">
        <g id="aventura-free-biscuit" sketch:type="MSArtboardGroup" fill="#FFFFFF">
            <g id="Imported-Layers" sketch:type="MSLayerGroup" transform="translate(7.000000, 11.000000)">
                <path d="M12.0462981,0.06579375 C13.8809884,0.0899097222 15.4424033,0.342245139 16.7214139,1.31268194 C17.8053861,2.13522986 18.7580532,3.12927847 19.7382781,4.07803611 C19.9451756,4.27827431 20.1404698,4.38524167 20.4105884,4.44750625 C25.3146992,5.57759583 28.7668587,8.35664653 30.3793795,13.1280799 C30.9531468,14.8258611 30.8934238,16.5476743 30.020103,18.1836951 C29.9106393,18.3888069 29.8903335,18.6382854 29.8137175,18.8623035 C28.8463756,21.6926951 26.8371235,23.39535 23.8908177,23.9341361 C20.2851701,24.5935021 17.1224111,23.4918139 14.3292521,21.2708757 C13.5935501,20.6858743 12.9556233,19.9747472 12.3176111,19.2815181 C12.1061917,19.0518701 11.9398205,19.0285104 11.6726028,19.087834 C9.5029518,19.5697333 7.34618393,19.5584736 5.26133961,18.7386986 C2.51075457,17.6570931 0.840302493,15.6870618 0.400741274,12.7613826 C0.349038227,12.4174569 0.266108587,12.0771444 0.180875346,11.7391847 C-0.198365651,10.2345833 0.0510204986,8.79258264 0.639036011,7.39108333 C1.29778061,5.82110833 2.33184155,4.50758611 3.62305263,3.40295694 C5.60705042,1.70567986 7.89435568,0.603319444 10.5027147,0.198305556 C11.0903889,0.107051389 11.6906903,0.0948673611 12.0462981,0.06579375 L12.0462981,0.06579375 Z M12.2347668,1.32604236 C8.91024377,1.43359792 6.09694958,2.69804792 3.76638781,5.01301319 C2.71236233,6.05991528 1.91198892,7.27462083 1.50271579,8.71292431 C0.704048753,11.5197882 2.06897507,13.9057569 4.9151169,14.6874674 C6.15914681,15.0292083 7.41827812,15.0263514 8.67740942,14.8288861 C10.6956199,14.5124375 12.5064211,13.7014014 14.1291801,12.4894688 C15.8454482,11.207625 17.1724078,9.63168403 17.7763778,7.55476944 C18.4959546,5.08031944 17.5262238,2.93761111 15.2266327,1.90793472 C14.2823269,1.48510694 13.2753119,1.32066458 12.2347668,1.32604236 L12.2347668,1.32604236 Z M16.7239734,16.7997576 C19.1901917,18.9139806 21.9297706,20.3358146 25.3386737,19.9084493 C26.8634017,19.7172861 28.0934393,18.9917903 28.8615623,17.6199528 C29.5789208,16.3386972 29.6069906,14.9796319 29.1990825,13.6309021 C28.0433573,9.80973889 25.3396122,7.44948264 21.6553861,6.05520972 C21.3719579,5.94799028 21.0720632,5.88286875 20.8009208,5.80430278 C22.1289895,10.4534757 20.1458449,13.8613903 16.7239734,16.7997576 L16.7239734,16.7997576 Z M19.334892,5.907825 C19.2762781,7.81038194 18.6060155,9.4969875 17.4407346,10.9773049 C14.9472997,14.144984 11.6573307,15.9081389 7.5901097,16.1977826 C5.91513573,16.3170181 4.30551579,16.0299792 2.8322349,15.1786938 C2.78240886,15.1498722 2.71756676,15.146259 2.55622936,15.1034889 C2.77831357,15.3830493 2.92659723,15.5861444 3.09185928,15.7749549 C4.06397895,16.8850458 5.30527867,17.5563438 6.73752133,17.8911104 C9.16056842,18.4573736 11.4942017,18.1005076 13.7071091,17.064109 C16.3803956,15.8121792 18.4253961,13.9139917 19.4801042,11.1248576 C20.1391047,9.38220556 20.1990837,7.63157083 19.334892,5.907825 L19.334892,5.907825 Z M13.3629341,18.606859 C15.8967247,21.398934 18.9082992,23.0562979 22.7650393,22.8365653 C24.3803756,22.7445549 25.8310471,22.1661076 27.0158659,21.0352618 C27.1177363,20.9380417 27.2095391,20.8306542 27.3186615,20.7143597 C22.6734925,22.1245139 18.9611967,20.4371521 15.5949529,17.5072715 C15.2503512,17.6925528 14.9079679,17.8890097 14.5544078,18.0634514 C14.1877939,18.2443632 13.8104299,18.4039319 13.3629341,18.606859 L13.3629341,18.606859 Z" id="Fill-1" sketch:type="MSShapeGroup"></path>
                <path d="M8.41275125,5.4858375 C8.32734737,5.43575694 8.09511025,5.37643333 8.02847645,5.23913194 C7.9597097,5.09737708 7.99016842,4.83764722 8.08487202,4.70303472 C8.43237452,4.20886736 8.92483324,3.92006389 9.55175402,3.92451736 C10.0420798,3.9279625 10.2394216,4.29197083 9.95386039,4.69160694 C9.61147701,5.17090139 9.12533186,5.43500069 8.41275125,5.4858375" id="Fill-2" sketch:type="MSShapeGroup"></path>
                <path d="M12.9181684,7.66980347 C12.8359213,7.61695 12.5502748,7.53267014 12.4844089,7.36478264 C12.4094139,7.1737875 12.4601784,6.86154028 12.5808188,6.68424167 C12.853241,6.28384931 13.2690837,6.07218333 13.7819335,6.11444931 C14.2918825,6.15637917 14.5226693,6.59407986 14.2369374,7.01405069 C13.964174,7.41511528 13.5838238,7.66535 12.9181684,7.66980347" id="Fill-3" sketch:type="MSShapeGroup"></path>
                <path d="M5.85908144,7.73694167 C6.0308277,7.83584236 6.29463269,7.89987153 6.35043102,8.04271875 C6.41732078,8.21371528 6.36885983,8.49335972 6.26016399,8.65309653 C5.99849197,9.03769167 5.59484986,9.27473403 5.12081994,9.28305278 C4.91409307,9.28666597 4.62281551,9.17911042 4.5216277,9.02525556 C4.43818615,8.89845764 4.52435789,8.5955375 4.63040886,8.42949861 C4.8723723,8.05070139 5.39665485,7.80685278 5.85908144,7.73694167" id="Fill-4" sketch:type="MSShapeGroup"></path>
                <path d="M9.03480886,11.1032625 C8.80692299,11.0951958 8.602841,10.9857076 8.61137285,10.6629569 C8.62041662,10.3219722 9.0740554,9.97703819 9.4969795,9.98115556 C9.76795125,9.98384444 9.96870582,10.0803083 9.98636676,10.3791111 C10.0070139,10.7300111 9.54151579,11.1054472 9.03480886,11.1032625" id="Fill-5" sketch:type="MSShapeGroup"></path>
                <path d="M25.4299645,11.3014 C25.4242482,11.6247389 25.2198249,11.7414535 24.9305097,11.7386806 C24.3926615,11.7334708 23.6328144,11.1627542 23.4763402,10.6609403 C23.3458881,10.2429021 23.5835856,9.96905556 24.0259623,10.027875 C24.6821474,10.1150958 25.4346571,10.7975694 25.4299645,11.3014" id="Fill-6" sketch:type="MSShapeGroup"></path>
                <path d="M23.7340875,14.8534222 C24.222451,14.8536743 24.7723291,15.2436472 24.9369939,15.7064722 C25.1054981,16.1802208 24.8117463,16.5685972 24.3087934,16.5128028 C23.7736753,16.4534792 23.3877795,16.1629951 23.178749,15.6789951 C22.9848199,15.2297826 23.2507579,14.8531701 23.7340875,14.8534222" id="Fill-7" sketch:type="MSShapeGroup"></path>
            </g>
        </g>
    </g>
</svg>