<?xml version="1.0" encoding="UTF-8" standalone="no"?>
<svg width="77px" height="77px" viewBox="0 0 77 77" version="1.1" xmlns="http://www.w3.org/2000/svg" xmlns:xlink="http://www.w3.org/1999/xlink">
    <!-- Generator: Sketch 3.6.1 (26313) - http://www.bohemiancoding.com/sketch -->
    <title>aventura-partners-02</title>
    <desc>Created with Sketch.</desc>
    <defs></defs>
    <g id="kit" stroke="none" stroke-width="1" fill="none" fill-rule="evenodd">
        <g id="aventura-partners-02">
            <path d="M12.5183975,53.4770025 L14.2921494,53.4770025 L14.2921494,53.5950756 L14.1477089,53.5950756 C14.0225646,53.5950756 13.9176532,53.6160453 13.8387823,53.6628967 C13.7925089,53.6953904 13.7466101,53.7407305 13.713638,53.8138413 C13.6874101,53.8680605 13.6808532,54.000869 13.6808532,54.2194458 L13.6808532,57.1140302 C13.6808532,57.3324181 13.6874101,57.4701385 13.713638,57.5298363 C13.7336835,57.5832997 13.7859519,57.6369521 13.8582658,57.6838035 C13.9303924,57.7225315 14.0225646,57.7353778 14.1477089,57.7435013 L14.2921494,57.7435013 L14.2921494,57.8615743 L12.0191316,57.8615743 L12.0191316,57.7435013 L12.1637595,57.7435013 C12.2883418,57.7435013 12.3932532,57.7225315 12.4661291,57.6756801 C12.5183975,57.6431864 12.5642962,57.5897229 12.597081,57.5173678 C12.6171266,57.4652267 12.6300532,57.3324181 12.6300532,57.1140302 L12.6300532,53.8606927 L10.961962,57.8615743 L10.8890861,57.8615743 L9.19476709,53.8877078 L9.19476709,56.9812217 C9.19476709,57.1922418 9.19476709,57.3246725 9.20769367,57.3777582 C9.23410886,57.4829849 9.2934962,57.5704534 9.39203797,57.6431864 C9.48346076,57.7094962 9.62808861,57.7353778 9.83172911,57.7435013 L9.83172911,57.8615743 L8.34105063,57.8615743 L8.34105063,57.7435013 L8.38676203,57.7435013 L8.40699494,57.7435013 C8.4920481,57.7435013 8.57710127,57.7225315 8.65634684,57.696272 C8.7414,57.6626448 8.80078734,57.6157935 8.84649873,57.5638413 C8.88602785,57.5039547 8.91881266,57.4314106 8.94522785,57.3246725 C8.94522785,57.3052141 8.94522785,57.1922418 8.95159747,56.994068 L8.95159747,54.2194458 C8.95159747,54.000869 8.93885823,53.8606927 8.91244304,53.8083627 C8.89295949,53.7484761 8.84649873,53.7016247 8.76781519,53.6628967 C8.70224557,53.6160453 8.60351646,53.5950756 8.47912152,53.5950756 L8.34105063,53.5950756 L8.34105063,53.4770025 L10.1213595,53.4770025 L11.3424532,56.3649748 L12.5183975,53.4770025 Z" id="Fill-1" fill="#FEFEFE"></path>
            <path d="M16.6867519,54.8617821 L16.0168177,56.3716058 L17.3310203,56.3716058 L16.6867519,54.8617821 Z M15.9053494,56.6173866 L15.7215671,57.0409383 C15.6687367,57.1794144 15.6359519,57.2988098 15.6359519,57.3923237 C15.6359519,57.5173866 15.6822253,57.602966 15.7809544,57.6626637 C15.8394051,57.6962909 15.9774759,57.7225504 16.2075316,57.7435202 L16.2075316,57.8615932 L14.7627519,57.8615932 L14.7627519,57.7435202 C14.9137494,57.7225504 15.0450759,57.6560516 15.143243,57.5508249 C15.2483418,57.4442758 15.3671165,57.2196537 15.5177392,56.8879156 L17.0747367,53.38483 L17.133562,53.38483 L18.7034861,56.9812406 C18.8481139,57.3195907 18.9728835,57.5379786 19.0710506,57.6235579 C19.1437392,57.6889232 19.241719,57.7291625 19.3797899,57.7435202 L19.3797899,57.8615932 L17.2778152,57.8615932 L17.2778152,57.7435202 L17.3636177,57.7435202 C17.5275418,57.7435202 17.6461291,57.7225504 17.7180684,57.6704093 C17.7639671,57.636971 17.7838253,57.5897418 17.7903823,57.5236209 C17.7903823,57.4830038 17.7838253,57.4442758 17.7705241,57.4055479 C17.7639671,57.3845781 17.7311823,57.305233 17.6725443,57.1593892 L17.4423013,56.6173866 L15.9053494,56.6173866 Z" id="Fill-3" fill="#FEFEFE"></path>
            <path d="M23.7757271,54.9215554 L23.6575144,54.9215554 C23.5132613,54.5027267 23.3030638,54.1791121 23.0141828,53.9607242 C22.7249271,53.7357242 22.4165625,53.6289861 22.0746638,53.6289861 C21.7460663,53.6289861 21.4770435,53.7226889 21.2606638,53.9072607 C21.0433473,54.0869207 20.8921625,54.3444144 20.7999904,54.6757746 C20.7151246,55.0075126 20.6692258,55.3454849 20.6692258,55.6889358 C20.6692258,56.1126763 20.7151246,56.4844647 20.8136663,56.7956108 C20.9123954,57.1139358 21.0697625,57.3457368 21.2926992,57.4978149 C21.5100157,57.6430919 21.7659246,57.722437 22.0746638,57.722437 C22.1733929,57.722437 22.2784916,57.7095907 22.3901473,57.6888098 C22.5016157,57.6627393 22.6130841,57.6287343 22.7318587,57.5833942 L22.7318587,56.6756486 C22.7318587,56.5041121 22.7249271,56.3911398 22.6990739,56.3442884 C22.6724714,56.2923363 22.62676,56.2454849 22.5473271,56.2063791 C22.4815701,56.1661398 22.3901473,56.1464924 22.2850486,56.1387469 L22.1733929,56.1387469 L22.1733929,56.020296 L24.2882942,56.020296 L24.2882942,56.1387469 C24.1238081,56.1529156 24.0121524,56.1723741 23.9467701,56.2063791 C23.8879448,56.2388728 23.8414841,56.2985705 23.8021423,56.3716814 C23.7826587,56.4119207 23.7757271,56.5107242 23.7757271,56.6756486 L23.7757271,57.5833942 C23.5003347,57.7095907 23.2107043,57.8017821 22.9090841,57.8682809 C22.6067144,57.9345907 22.2979752,57.9670844 21.9763094,57.9670844 C21.5624714,57.9670844 21.2203853,57.9073866 20.9451803,57.7955479 C20.6757828,57.6837091 20.4328005,57.5380542 20.2224157,57.351971 C20.0187752,57.1660768 19.8542891,56.9605353 19.7362638,56.7291121 C19.5854537,56.4313791 19.5133271,56.093029 19.5133271,55.7291751 C19.5133271,55.0672103 19.7362638,54.5108501 20.2025575,54.0529156 C20.6557372,53.6031045 21.2342486,53.376971 21.9369676,53.3718703 C22.1469777,53.3718703 22.3438739,53.3900063 22.5214739,53.4234446 C22.6130841,53.4446033 22.7638942,53.4899433 22.974279,53.5774118 C23.1842891,53.649767 23.3094334,53.6888728 23.3487752,53.6954849 C23.4081625,53.6954849 23.4604309,53.6758375 23.5132613,53.6289861 C23.5653423,53.5821348 23.6119904,53.4965554 23.6575144,53.376971 L23.7757271,53.376971 L23.7757271,54.9215554 Z" id="Fill-5" fill="#FEFEFE"></path>
            <path d="M29.1097595,53.5950756 C28.965319,53.6160453 28.8600329,53.6551511 28.7817241,53.7227834 C28.676438,53.8138413 28.5053949,54.0596222 28.2689696,54.4637154 L27.3300127,56.0528841 L27.3300127,57.1140302 C27.3300127,57.3377078 27.3365696,57.478262 27.3624228,57.5379597 C27.388838,57.5832997 27.4347367,57.6369521 27.5004937,57.6838035 C27.5724329,57.7225315 27.6647924,57.7353778 27.7828177,57.7435013 L28.0258,57.7435013 L28.0258,57.8615743 L25.5828633,57.8615743 L25.5828633,57.7435013 L25.812357,57.7435013 C25.9440582,57.7435013 26.0426,57.7225315 26.1147266,57.6756801 C26.1735519,57.6431864 26.2134557,57.5897229 26.2462405,57.5173678 C26.272281,57.4652267 26.2792127,57.3324181 26.2855823,57.1140302 L26.2855823,56.2321662 L25.2604481,54.3522544 C25.0573696,53.9868892 24.9194861,53.7681234 24.8338709,53.7016247 C24.7486304,53.6353149 24.6369747,53.603199 24.4992785,53.5950756 L24.4992785,53.4770025 L26.5810203,53.4770025 L26.5810203,53.5950756 L26.4895975,53.5950756 C26.3644532,53.5950756 26.2792127,53.6094332 26.2198253,53.6496725 C26.1735519,53.6887783 26.1540684,53.7227834 26.1476987,53.7681234 C26.1476987,53.8474685 26.2327519,54.0399748 26.4037949,54.3522544 L27.1923165,55.8023804 L27.973719,54.4831738 C28.1638709,54.1595592 28.2626,53.9466499 28.2689696,53.8412343 C28.2689696,53.7809698 28.2431165,53.7278841 28.1837291,53.6953904 C28.1114152,53.641927 27.9802759,53.6094332 27.7828177,53.5950756 L27.7828177,53.4770025 L29.1097595,53.4770025 L29.1097595,53.5950756 Z" id="Fill-7" fill="#FEFEFE"></path>
            <path d="M30.9857438,54.8617821 L30.315997,56.3716058 L31.6300122,56.3716058 L30.9857438,54.8617821 Z M30.2043413,56.6173866 L30.0207463,57.0409383 C29.9677286,57.1794144 29.9349438,57.2988098 29.9349438,57.3923237 C29.9349438,57.5173866 29.9814046,57.602966 30.0799463,57.6626637 C30.1387716,57.6962909 30.2764678,57.7225504 30.5068982,57.7435202 L30.5068982,57.8615932 L29.0619311,57.8615932 L29.0619311,57.7435202 C29.2127413,57.7225504 29.3444425,57.6560516 29.4422349,57.5508249 C29.5473337,57.4442758 29.6661084,57.2196537 29.8171058,56.8879156 L31.3741033,53.38483 L31.4325539,53.38483 L33.002478,56.9812406 C33.1471058,57.3195907 33.2722501,57.5379786 33.3700425,57.6235579 C33.4429185,57.6889232 33.5410856,57.7291625 33.6789691,57.7435202 L33.6789691,57.8615932 L31.5771818,57.8615932 L31.5771818,57.7435202 L31.662797,57.7435202 C31.8265337,57.7435202 31.9453084,57.7225504 32.0174349,57.6704093 C32.0633337,57.636971 32.0831919,57.5897418 32.0897489,57.5236209 C32.0897489,57.4830038 32.0831919,57.4442758 32.0698906,57.4055479 C32.0633337,57.3845781 32.0303615,57.305233 31.9717235,57.1593892 L31.7416678,56.6173866 L30.2043413,56.6173866 Z" id="Fill-9" fill="#FEFEFE"></path>
            <path d="M35.7859084,55.6366436 L35.963321,55.6366436 C36.2585716,55.6366436 36.4824451,55.6096285 36.6332552,55.5510642 C36.7776957,55.4964673 36.896283,55.3974748 36.9813362,55.2518199 C37.0600197,55.1127771 37.1064805,54.926694 37.1064805,54.6886587 C37.1064805,54.3571096 37.0336046,54.1132179 36.8760501,53.9541499 C36.7188704,53.7958375 36.4760754,53.7149811 36.1278071,53.7149811 L35.7859084,53.7149811 L35.7859084,55.6366436 Z M35.7859084,57.0933816 C35.7859084,57.3248048 35.7988349,57.4782053 35.8252501,57.5431927 C35.8516653,57.5962783 35.9039337,57.649364 35.9762476,57.6888476 C36.0481868,57.7224748 36.1864451,57.7353212 36.3837159,57.7434446 L36.3837159,57.8615176 L34.1639033,57.8615176 L34.1639033,57.7434446 C34.3606122,57.7434446 34.4921261,57.7224748 34.5706223,57.6888476 C34.6363792,57.649364 34.6892096,57.5962783 34.7216197,57.537903 C34.7480349,57.4782053 34.7615235,57.3325504 34.7615235,57.0933816 L34.7615235,54.2456486 C34.7615235,54.0064798 34.7480349,53.8608249 34.7216197,53.8009383 C34.6957666,53.735573 34.6427489,53.6887217 34.5706223,53.6496159 C34.4983084,53.6161776 34.3606122,53.5950189 34.1639033,53.5950189 L34.1639033,53.4769458 L36.1798881,53.4769458 C36.7053818,53.4769458 37.0929919,53.5090617 37.3357868,53.5821725 C37.5791438,53.6552834 37.7762273,53.7958375 37.9337818,53.9932557 C38.0845919,54.185762 38.1636501,54.4168073 38.1636501,54.6886587 C38.1636501,55.0075504 38.0450628,55.2727897 37.8155691,55.4909887 C37.6713159,55.6237972 37.4609311,55.7226008 37.1980906,55.787966 L38.242521,57.2726637 C38.3805919,57.4653589 38.4727641,57.583432 38.5377716,57.628772 C38.6233868,57.6962154 38.7221159,57.7290869 38.8399539,57.7434446 L38.8399539,57.8615176 L37.4674881,57.8615176 L36.0684197,55.8603212 L35.7859084,55.8603212 L35.7859084,57.0933816 Z" id="Fill-11" fill="#FEFEFE"></path>
            <path d="M40.4436557,54.2374685 C40.2791696,54.5707179 40.1943038,55.0528338 40.1869975,55.6823048 C40.1869975,56.4313602 40.3185114,56.9867758 40.5817266,57.3457179 C40.7589519,57.5896096 41.0148608,57.715806 41.3428962,57.7224181 C41.559838,57.7224181 41.7439949,57.670466 41.8949924,57.5559824 C42.0787747,57.425063 42.2232152,57.200063 42.3352456,56.895529 C42.4405316,56.5962846 42.486243,56.1986146 42.4926127,55.7096977 C42.4926127,55.1321788 42.4405316,54.695403 42.3352456,54.4105164 C42.2232152,54.1260076 42.0922633,53.920466 41.9214076,53.8008816 C41.7569215,53.6822418 41.5667696,53.622733 41.3494532,53.622733 C40.9552861,53.622733 40.6538532,53.8278967 40.4436557,54.2374685 M41.4288861,53.4109572 C42.0658481,53.4109572 42.5913418,53.6161209 43.0051797,54.027204 C43.4319443,54.4573678 43.6486987,54.9997481 43.6486987,55.6566121 C43.6486987,56.2063602 43.491519,56.6952771 43.1625468,57.1192065 C42.7423392,57.6836902 42.1379747,57.9619647 41.3567595,57.9619647 C40.5678633,57.9619647 39.9706177,57.6963476 39.5371089,57.1594458 C39.2017671,56.7421285 39.0374684,56.2388539 39.0309114,55.6566121 C39.0309114,55.0074937 39.2478532,54.463602 39.6946633,54.027204 C40.1019443,53.6161209 40.6073924,53.4171914 41.2053873,53.4109572 C41.2381722,53.4109572 41.270957,53.4109572 41.3101114,53.4171914 C41.3494532,53.4171914 41.389357,53.4171914 41.4288861,53.4109572" id="Fill-13" fill="#FEFEFE"></path>
            <path d="M45.6925225,55.6366436 L45.8704972,55.6366436 C46.1657478,55.6366436 46.3888719,55.6096285 46.5411808,55.5510642 C46.6854339,55.4964673 46.8040213,55.3974748 46.8892618,55.2518199 C46.9668213,55.1127771 47.0130947,54.926694 47.0130947,54.6886587 C47.0130947,54.3571096 46.9407808,54.1132179 46.7832263,53.9541499 C46.6260466,53.7958375 46.3836263,53.7149811 46.0355453,53.7149811 L45.6925225,53.7149811 L45.6925225,55.6366436 Z M45.6925225,57.0933816 C45.6925225,57.3248048 45.7054491,57.4782053 45.7324263,57.5431927 C45.7595909,57.5962783 45.8112972,57.649364 45.8834238,57.6888476 C45.955363,57.7224748 46.0936213,57.7353212 46.2908922,57.7434446 L46.2908922,57.8615176 L44.0703301,57.8615176 L44.0703301,57.7434446 C44.2677884,57.7434446 44.3993023,57.7224748 44.4777985,57.6888476 C44.5433681,57.649364 44.5963858,57.5962783 44.6286086,57.537903 C44.6557732,57.4782053 44.6685124,57.3325504 44.6685124,57.0933816 L44.6685124,54.2456486 C44.6685124,54.0064798 44.6557732,53.8608249 44.6286086,53.8009383 C44.6029428,53.735573 44.5499251,53.6887217 44.4777985,53.6496159 C44.4058592,53.6161776 44.2677884,53.5950189 44.0703301,53.5950189 L44.0703301,53.4769458 L46.0872516,53.4769458 C46.61312,53.4769458 47.0001681,53.5090617 47.242401,53.5821725 C47.48632,53.6552834 47.6834035,53.7958375 47.840958,53.9932557 C47.9917681,54.185762 48.0702643,54.4168073 48.0702643,54.6886587 C48.0702643,55.0075504 47.9518643,55.2727897 47.7223706,55.4909887 C47.5779301,55.6237972 47.3688567,55.7226008 47.1058289,55.787966 L48.1500719,57.2726637 C48.2870187,57.4653589 48.3799403,57.583432 48.4443858,57.628772 C48.530563,57.6962154 48.6298542,57.7290869 48.7473175,57.7434446 L48.7473175,57.8615176 L47.3741023,57.8615176 L45.9763453,55.8603212 L45.6925225,55.8603212 L45.6925225,57.0933816 Z" id="Fill-15" fill="#FEFEFE"></path>
            <path d="M52.0575716,54.8344836 L51.9258704,54.8344836 C51.866483,54.4702519 51.7145489,54.179131 51.4655716,53.954131 C51.2297084,53.7279975 50.9664932,53.6227708 50.6841691,53.6161587 C50.4612324,53.6161587 50.2909387,53.6758564 50.1646704,53.7958186 C50.0329691,53.9138917 49.9748932,54.0467003 49.9748932,54.1987783 C49.9748932,54.297204 49.9941894,54.3846725 50.0406501,54.4574055 C50.1000375,54.5562091 50.1978299,54.6618136 50.3360881,54.7617506 C50.4404375,54.8282494 50.6712425,54.9606801 51.0322501,55.1403401 C51.5378856,55.3908438 51.879597,55.6292569 52.0626299,55.8553904 C52.2340476,56.0737783 52.3258451,56.331461 52.3258451,56.6225819 C52.3258451,56.9868136 52.1890856,57.3051385 51.9000172,57.5703778 C51.6163818,57.8346725 51.2617438,57.9620025 50.82224,57.9671033 C50.6905387,57.9671033 50.5590248,57.9542569 50.4353792,57.9213854 C50.3087362,57.8943703 50.1646704,57.8486524 49.9748932,57.7615617 C49.8757894,57.7224559 49.7903615,57.7029975 49.7246046,57.7029975 C49.6667159,57.7029975 49.6125742,57.7224559 49.5481286,57.7615617 C49.4823716,57.8084131 49.4359109,57.8682997 49.3960071,57.9620025 L49.2787311,57.9620025 L49.2787311,56.3052015 L49.3960071,56.3052015 C49.4887413,56.7678589 49.6667159,57.1269899 49.9349894,57.3716373 C50.2043868,57.6159068 50.4930805,57.7353023 50.8093134,57.7353023 C51.0453641,57.7353023 51.236078,57.6756045 51.3805185,57.5431738 C51.518402,57.4103652 51.5907159,57.2597985 51.5907159,57.0801385 C51.5907159,56.9811461 51.5648628,56.8812091 51.5120324,56.781272 C51.459202,56.6822796 51.3805185,56.5963224 51.2617438,56.504131 C51.1495261,56.4174181 50.9601235,56.3052015 50.6712425,56.1661587 C50.2767008,55.9668514 49.9941894,55.8023048 49.816402,55.6628841 C49.6462957,55.5236524 49.5145944,55.3779975 49.4164273,55.2000378 C49.3315615,55.0337909 49.2851008,54.8410957 49.2787311,54.6355542 C49.2787311,54.2847355 49.4038754,53.9932368 49.6588476,53.7408438 C49.9155058,53.4965743 50.236797,53.3769899 50.6249691,53.3769899 C50.7628527,53.3769899 50.9007362,53.3900252 51.0322501,53.4315869 C51.1315413,53.4497229 51.2553742,53.5043199 51.3998147,53.5774307 C51.5444425,53.6420403 51.6422349,53.6758564 51.7016223,53.6758564 C51.7608223,53.6758564 51.8007261,53.6630101 51.8331362,53.6227708 C51.866483,53.5902771 51.9000172,53.5090428 51.9258704,53.3769899 L52.0236628,53.3769899 L52.0575716,54.8344836 Z" id="Fill-17" fill="#FEFEFE"></path>
            <path d="M54.1155959,57.6158312 L54.9434592,57.6158312 C55.3378137,57.6158312 55.6062744,57.5895718 55.7647656,57.5430982 C56.0214238,57.4652645 56.2379909,57.3196096 56.4212111,57.114068 C56.6055554,56.9085264 56.7306997,56.6302519 56.8030137,56.2790554 L56.9266592,56.2790554 L56.7563656,57.8616121 L52.7691706,57.8616121 L55.33032,53.7150756 L54.6881124,53.7150756 C54.4378238,53.7150756 54.2727757,53.7228212 54.1879099,53.7356675 C54.043282,53.7615491 53.8990289,53.8216247 53.7675149,53.907204 C53.6358137,53.986927 53.5314643,54.0998992 53.4396668,54.2374307 C53.354801,54.3702393 53.2877327,54.5497103 53.2362137,54.761864 L53.1176263,54.761864 L53.2362137,53.4770403 L56.6713124,53.4770403 L54.1155959,57.6158312 Z" id="Fill-19" fill="#FEFEFE"></path>
            <path d="M59.5417256,53.0988098 L59.2655838,53.0988098 L59.6397053,51.9722985 L60.6043281,51.9722985 L59.5417256,53.0988098 Z M59.2517205,54.8617821 L58.5823484,56.3716058 L59.8950522,56.3716058 L59.2517205,54.8617821 Z M58.4701306,56.6173866 L58.2857863,57.0409383 C58.2342673,57.1794144 58.2005458,57.2988098 58.2005458,57.3921348 C58.2005458,57.5173866 58.2470066,57.602966 58.3449863,57.6626637 C58.4043737,57.6962909 58.5422572,57.7225504 58.7730623,57.7435202 L58.7730623,57.8615932 L57.3277205,57.8615932 L57.3277205,57.7435202 C57.4783433,57.7225504 57.6100446,57.6560516 57.7082116,57.5508249 C57.8138724,57.4442758 57.9324597,57.2194647 58.0819585,56.8879156 L59.6397053,53.38483 L59.6990927,53.38483 L61.2684547,56.9812406 C61.4127078,57.3195907 61.5376648,57.5379786 61.6358319,57.6235579 C61.7081458,57.6889232 61.8061256,57.7291625 61.9453205,57.7435202 L61.9453205,57.8615932 L59.8431585,57.8615932 L59.8431585,57.7435202 L59.9285863,57.7435202 C60.092323,57.7435202 60.210723,57.7225504 60.283037,57.6704093 C60.3283737,57.6367821 60.3489813,57.5895529 60.3553509,57.5236209 C60.3553509,57.4830038 60.3489813,57.4442758 60.3358673,57.4055479 C60.3283737,57.3843892 60.2959635,57.305233 60.2380749,57.1593892 L60.0070825,56.6173866 L58.4701306,56.6173866 Z" id="Fill-21" fill="#FEFEFE"></path>
            <path d="M66.3398152,54.9215554 L66.2212278,54.9215554 C66.0769747,54.5027267 65.8680886,54.1791121 65.5792076,53.9607242 C65.2890152,53.7357242 64.980838,53.6289861 64.6391266,53.6289861 C64.3101544,53.6289861 64.0420684,53.7226889 63.8253139,53.9072607 C63.6074354,54.0869207 63.4566253,54.3444144 63.3635165,54.6757746 C63.2786506,55.0075126 63.2335013,55.3454849 63.2335013,55.6889358 C63.2335013,56.1126763 63.2786506,56.4844647 63.3779418,56.7956108 C63.4772329,57.1139358 63.6347873,57.3457368 63.8577241,57.4978149 C64.0741038,57.6430919 64.330762,57.722437 64.6391266,57.722437 C64.7384177,57.722437 64.8427671,57.7095907 64.9547975,57.6888098 C65.0658911,57.6627393 65.1767975,57.6287343 65.2955722,57.5833942 L65.2955722,56.6756486 C65.2955722,56.5041121 65.2890152,56.3911398 65.263162,56.3442884 C65.2359975,56.2923363 65.1908481,56.2454849 65.1123519,56.2063791 C65.0452835,56.1661398 64.9547975,56.1464924 64.8491367,56.1387469 L64.7384177,56.1387469 L64.7384177,56.020296 L66.8529443,56.020296 L66.8529443,56.1387469 C66.6878962,56.1529156 66.5771772,56.1723741 66.5099215,56.2063791 C66.4520329,56.2388728 66.4057595,56.2985705 66.3658557,56.3716814 C66.3476835,56.4119207 66.3398152,56.5107242 66.3398152,56.6756486 L66.3398152,57.5833942 C66.0638608,57.7095907 65.7751671,57.8017821 65.4733595,57.8682809 C65.1717392,57.9345907 64.8620633,57.9670844 64.5396481,57.9670844 C64.1271215,57.9670844 63.7839114,57.9073866 63.509643,57.7955479 C63.2398709,57.6837091 62.9974506,57.5380542 62.7859418,57.351971 C62.5821139,57.1660768 62.4183772,56.9605353 62.3011013,56.7291121 C62.1491671,56.4313791 62.0768532,56.093029 62.0768532,55.7291751 C62.0768532,55.0672103 62.3011013,54.5108501 62.7666456,54.0529156 C63.2194506,53.6031045 63.7983367,53.376971 64.5010557,53.3718703 C64.7112532,53.3718703 64.9085241,53.3900063 65.0864987,53.4234446 C65.1767975,53.4446033 65.328919,53.4899433 65.5393038,53.5774118 C65.7493139,53.649767 65.8731468,53.6888728 65.9130506,53.6954849 C65.9722506,53.6954849 66.025081,53.6758375 66.0769747,53.6289861 C66.1298051,53.5821348 66.1760785,53.4965554 66.2212278,53.376971 L66.3398152,53.376971 L66.3398152,54.9215554 Z" id="Fill-23" fill="#FEFEFE"></path>
            <path d="M69.3907134,57.8615743 L67.1186324,57.8615743 L67.1186324,57.7435013 L67.2630729,57.7435013 C67.3869058,57.7435013 67.486197,57.7225315 67.5648805,57.6756801 C67.6240805,57.6431864 67.6626729,57.5897229 67.6963944,57.5173678 C67.7168147,57.4652267 67.7299286,57.3324181 67.7299286,57.1140302 L67.7299286,54.2245466 C67.7299286,54.000869 67.7220603,53.8606927 67.6963944,53.8083627 C67.6705413,53.748665 67.6240805,53.7016247 67.5519539,53.6628967 C67.47964,53.6160453 67.3869058,53.5950756 67.2630729,53.5950756 L67.1186324,53.5950756 L67.1186324,53.4770025 L69.3907134,53.4770025 L69.3907134,53.5950756 L69.2464603,53.5950756 C69.1226273,53.5950756 69.0231489,53.6160453 68.9446527,53.6628967 C68.8918223,53.6953904 68.8466729,53.7409194 68.8131387,53.8215869 C68.7870982,53.8680605 68.7796046,54.0065365 68.7745463,54.2245466 L68.7745463,57.1140302 C68.7745463,57.3324181 68.7870982,57.4701385 68.8131387,57.5298363 C68.8391792,57.5832997 68.8854527,57.6369521 68.9575792,57.6838035 C69.0297058,57.7225315 69.1226273,57.7353778 69.2464603,57.7435013 L69.3907134,57.7435013 L69.3907134,57.8615743 Z" id="Fill-25" fill="#FEFEFE"></path>
            <path d="M4.27269924,66.3750189 L2.0000562,66.3750189 L2.0000562,66.256568 L2.14449671,66.256568 C2.26889165,66.256568 2.36762076,66.2372985 2.44686633,66.1900693 C2.5055043,66.156631 2.54484608,66.1044899 2.57781823,66.0319458 C2.59767646,65.9786713 2.61060304,65.8458627 2.61060304,65.6274748 L2.61060304,62.7395025 C2.61060304,62.5143136 2.60423342,62.3748929 2.57781823,62.3218073 C2.55140304,62.263432 2.5055043,62.2165806 2.43319038,62.1759635 C2.3610638,62.1310013 2.26889165,62.1100315 2.14449671,62.1100315 L2.0000562,62.1100315 L2.0000562,61.9904471 L4.27269924,61.9904471 L4.27269924,62.1100315 L4.12825873,62.1100315 C4.00330177,62.1100315 3.90457266,62.1310013 3.82607646,62.1759635 C3.77305873,62.2084572 3.72734734,62.2553086 3.69437519,62.336165 C3.66796,62.381505 3.66140304,62.5207368 3.65503342,62.7395025 L3.65503342,65.6274748 C3.65503342,65.8458627 3.66796,65.9850945 3.69437519,66.0447922 C3.72079038,66.0967443 3.76668911,66.1513413 3.8388157,66.1968703 C3.91112962,66.2372985 4.00330177,66.2499559 4.12825873,66.256568 L4.27269924,66.256568 L4.27269924,66.3750189 Z" id="Fill-27" fill="#FEFEFE"></path>
            <path d="M6.46675241,64.0445403 L6.59114734,64.0445403 C6.78204861,64.0445403 6.9394157,64.0175252 7.06437266,63.958961 C7.18258532,63.8990743 7.28749671,63.7987594 7.37254987,63.6600945 C7.45198278,63.5272859 7.5108081,63.3427141 7.53703595,63.1033564 L7.6485043,63.1033564 L7.6485043,65.3038602 L7.53703595,65.3038602 C7.49769418,64.8923992 7.39259544,64.6194144 7.20244354,64.481694 C7.02446886,64.3492632 6.82139038,64.2895655 6.59114734,64.2829534 L6.46675241,64.2829534 L6.46675241,65.6274748 C6.46675241,65.8458627 6.47330937,65.9849055 6.49972456,66.0447922 C6.52557772,66.0967443 6.5784081,66.1513413 6.64416506,66.1968703 C6.71629165,66.2372985 6.81427139,66.2499559 6.9394157,66.256568 L7.0838562,66.256568 L7.0838562,66.3750189 L4.8046562,66.3750189 L4.8046562,66.256568 L4.94909671,66.256568 C5.07405367,66.256568 5.17915241,66.2372985 5.25783595,66.1900693 C5.31066633,66.156631 5.3500081,66.1044899 5.38298025,66.0319458 C5.40864608,65.9786713 5.41595241,65.8458627 5.42232203,65.6274748 L5.42232203,62.7395025 C5.42232203,62.5143136 5.40864608,62.3748929 5.38298025,62.3218073 C5.36293468,62.263432 5.31722329,62.2165806 5.23853975,62.1759635 C5.17278278,62.1310013 5.07405367,62.1100315 4.94909671,62.1100315 L4.8046562,62.1100315 L4.8046562,61.9904471 L8.47636759,61.9904471 L8.47636759,63.2490113 L8.34485367,63.2490113 C8.31843848,62.9512783 8.23994228,62.7395025 8.11536,62.5936587 C7.9902157,62.4480038 7.81299038,62.3490113 7.58274734,62.2893136 C7.45198278,62.2553086 7.21537013,62.2424622 6.86710177,62.2424622 L6.46675241,62.2424622 L6.46675241,64.0445403 Z" id="Fill-29" fill="#FEFEFE"></path>
            <path d="M9.47903949,61.9904471 L11.7910243,61.9904471 L11.7910243,62.1100315 L11.6529534,62.1100315 C11.5216268,62.1100315 11.4228977,62.1310013 11.3442142,62.1759635 C11.2913838,62.2084572 11.252042,62.2553086 11.2127003,62.336165 C11.1935914,62.381505 11.1797281,62.5207368 11.1797281,62.7395025 L11.1797281,64.8850315 C11.1797281,65.3085831 11.140761,65.6131171 11.0555205,65.8056234 C10.969718,65.9913287 10.8250901,66.1513413 10.6087104,66.2828275 C10.3985129,66.4090239 10.1426041,66.4749559 9.84023443,66.4749559 C9.47903949,66.4749559 9.18303949,66.3750189 8.95354582,66.183835 C8.72985975,65.9913287 8.61839139,65.7795529 8.61839139,65.5403841 C8.61839139,65.3947292 8.66410278,65.2694773 8.75627494,65.1757746 C8.84151544,65.083961 8.95991544,65.0382431 9.09161671,65.0304975 C9.22256861,65.0304975 9.32748,65.0773489 9.41965215,65.156694 C9.50489266,65.2437846 9.55135342,65.3488224 9.55135342,65.4672733 C9.55135342,65.5271599 9.54423443,65.5806234 9.53130785,65.6274748 C9.52493823,65.6469332 9.49196608,65.7002078 9.42620911,65.7927771 C9.36682177,65.8783564 9.34115595,65.9380542 9.34115595,65.9786713 C9.34115595,66.0319458 9.36682177,66.0835202 9.42620911,66.1241373 C9.50489266,66.183835 9.60999139,66.2097166 9.74150532,66.2163287 C9.83367747,66.2163287 9.90599139,66.1900693 9.97156101,66.1432179 C10.0303863,66.0967443 10.0702901,66.0238224 10.0959559,65.92483 C10.1223711,65.8264043 10.1352977,65.5477519 10.1352977,65.083961 L10.1352977,62.7395025 C10.1352977,62.5143136 10.1223711,62.3748929 10.0959559,62.3218073 C10.0702901,62.263432 10.0240167,62.2165806 9.95151544,62.1759635 C9.8795762,62.1310013 9.78084709,62.1100315 9.66282177,62.1100315 L9.47903949,62.1100315 L9.47903949,61.9904471 Z" id="Fill-31" fill="#FEFEFE"></path>
            <path d="M14.3107711,61.6129723 L14.0348167,61.6129723 L14.4089382,60.4872166 L15.3744977,60.4872166 L14.3107711,61.6129723 Z M14.5138496,61.9904282 L14.5138496,62.1100126 L14.4023813,62.1100126 C14.2384572,62.1100126 14.1198699,62.1228589 14.0541129,62.1630982 C13.9954749,62.1955919 13.9492015,62.2424433 13.9162294,62.3089421 C13.8967458,62.3748741 13.8834446,62.52733 13.8834446,62.7782116 L13.8834446,64.9252519 C13.8834446,65.3164987 13.9098597,65.5739924 13.9690597,65.706801 C14.0284471,65.8329975 14.1198699,65.9382242 14.2579408,66.0238035 C14.3960116,66.104471 14.56668,66.1513224 14.7705078,66.1513224 C15.0000015,66.1513224 15.2038294,66.0967254 15.3681281,65.9913098 C15.5389838,65.8860831 15.6570091,65.7404282 15.7426243,65.547733 C15.8213078,65.3618388 15.8672066,65.0304786 15.8672066,64.5678212 L15.8672066,62.7782116 C15.8672066,62.5870277 15.8473484,62.4479849 15.8078192,62.3620277 C15.7684775,62.2764484 15.7162091,62.2165617 15.6506395,62.1827456 C15.5519104,62.1358942 15.4203965,62.1100126 15.2429838,62.1100126 L15.2429838,61.9904282 L16.7473382,61.9904282 L16.7473382,62.1100126 L16.6557281,62.1100126 C16.5369534,62.1100126 16.4384116,62.1309824 16.3533585,62.1827456 C16.2746749,62.2358312 16.2152876,62.3089421 16.1759458,62.4088791 C16.1495306,62.4742443 16.1366041,62.6004408 16.1366041,62.7782116 L16.1366041,64.4416247 C16.1366041,64.9577456 16.1036319,65.3297229 16.0316927,65.5609572 C15.9659357,65.7861461 15.8078192,65.9979219 15.5389838,66.1902393 C15.2823256,66.3827456 14.9276876,66.474937 14.4743205,66.4815491 C14.100761,66.4815491 13.8111306,66.4284635 13.6009332,66.3292821 C13.3249787,66.1902393 13.1282699,66.0188917 13.0102446,65.8001259 C12.8918446,65.5806045 12.8324572,65.2953401 12.8324572,64.9252519 L12.8324572,62.7782116 C12.8324572,62.52733 12.8195306,62.3748741 12.7931154,62.3089421 C12.7672623,62.2486776 12.7208015,62.2033375 12.6484876,62.1630982 C12.5827306,62.1309824 12.4714496,62.1100126 12.3004066,62.1100126 L12.2676218,62.1100126 L12.2676218,61.9904282 L14.5138496,61.9904282 Z" id="Fill-33" fill="#FEFEFE"></path>
            <path d="M20.037959,63.3479093 L19.9066324,63.3479093 C19.8478071,62.9836776 19.6962476,62.6921788 19.4468957,62.4675567 C19.210283,62.2423678 18.9478172,62.1358186 18.6654932,62.1310957 C18.4416197,62.1310957 18.2715134,62.1889043 18.1463691,62.3088665 C18.0148552,62.4273174 17.9562172,62.5601259 17.9562172,62.7133375 C17.9562172,62.8121411 17.9753261,62.8977204 18.0212248,62.9704534 C18.0806122,63.0696348 18.1793413,63.1763728 18.3172248,63.2751763 C18.4223235,63.3428086 18.6520046,63.4752393 19.0135742,63.6533879 C19.5192096,63.9042695 19.860921,64.1438161 20.0445159,64.3684383 C20.2153716,64.5870151 20.3075438,64.8456423 20.3075438,65.1375189 C20.3075438,65.5011839 20.1696603,65.8185642 19.8807792,66.0834257 C19.5984552,66.3488539 19.2430678,66.4750504 18.8035641,66.4816625 C18.6720501,66.4816625 18.5403489,66.4688161 18.4159539,66.4348111 C18.2908096,66.4089295 18.1463691,66.3620781 17.9562172,66.2761209 C17.8574881,66.2373929 17.7718729,66.2164232 17.7064906,66.2164232 C17.647478,66.2164232 17.5944603,66.2373929 17.5288906,66.2761209 C17.4635084,66.3229723 17.4172349,66.38267 17.3778932,66.4750504 L17.2596805,66.4750504 L17.2596805,64.8197607 L17.3778932,64.8197607 C17.4700653,65.282796 17.647478,65.6404156 17.9168754,65.8861965 C18.1857109,66.130466 18.4745919,66.2498615 18.7897008,66.2498615 C19.0265008,66.2498615 19.217402,66.1901637 19.3616552,66.057733 C19.4997261,65.9249244 19.57204,65.7732242 19.57204,65.5946977 C19.57204,65.4945718 19.5456248,65.3946348 19.4927944,65.2954534 C19.4405261,65.1972166 19.3616552,65.1112594 19.2430678,65.0175567 C19.1317868,64.9315995 18.9414476,64.8197607 18.6520046,64.6792065 C18.2580248,64.4817884 17.9753261,64.3153526 17.7982881,64.1774433 C17.6272451,64.0370781 17.4964805,63.8914232 17.3977514,63.7132746 C17.3121362,63.5483501 17.2662375,63.3556549 17.2596805,63.1501134 C17.2596805,62.7992947 17.3842628,62.507796 17.6411084,62.255403 C17.8968299,62.0111335 18.218683,61.8915491 18.6061058,61.8915491 C18.7441767,61.8915491 18.8820603,61.9043955 19.0135742,61.9450126 C19.1123033,61.9646599 19.2365109,62.0177456 19.3811387,62.0904786 C19.5253919,62.1567884 19.624121,62.1889043 19.683321,62.1889043 C19.7427084,62.1889043 19.7820501,62.1760579 19.8150223,62.1358186 C19.8478071,62.1033249 19.8807792,62.0239798 19.9066324,61.8915491 L20.0051742,61.8915491 L20.037959,63.3479093 Z" id="Fill-35" fill="#FEFEFE"></path>
            <path d="M22.8389246,61.6129723 L22.5627828,61.6129723 L22.936717,60.4872166 L23.9026511,60.4872166 L22.8389246,61.6129723 Z M22.5492942,63.3751889 L21.87936,64.8850126 L23.1935625,64.8850126 L22.5492942,63.3751889 Z M21.7678916,65.1307935 L21.5841094,65.5543451 C21.5314663,65.6935768 21.4984942,65.8133501 21.4984942,65.9057305 C21.4984942,66.031927 21.5447676,66.1175063 21.6434967,66.177204 C21.7021347,66.2096977 21.8402056,66.2374685 22.0702613,66.2565491 L22.0702613,66.375 L20.6247322,66.375 L20.6247322,66.2565491 C20.7762916,66.2374685 20.9078056,66.1694584 21.0057853,66.0642317 C21.1108841,65.959194 21.2296587,65.7326826 21.3802815,65.4024559 L22.936717,61.8982368 L22.9961043,61.8982368 L24.5660284,65.4946474 C24.7106562,65.8329975 24.8358005,66.0510076 24.9341549,66.1369647 C25.0064689,66.2030856 25.1046359,66.2425693 25.2423322,66.2565491 L25.2423322,66.375 L23.1405448,66.375 L23.1405448,66.2565491 L23.2263473,66.2565491 C23.3900841,66.2565491 23.5086714,66.2374685 23.5809853,66.1838161 C23.6268841,66.1513224 23.6467423,66.104471 23.6532992,66.0366499 C23.6532992,65.9979219 23.6467423,65.959194 23.6330663,65.9189547 C23.6268841,65.8989295 23.5939119,65.8186398 23.5350866,65.672796 L23.3048435,65.1307935 L21.7678916,65.1307935 Z" id="Fill-37" fill="#FEFEFE"></path>
            <path d="M29.6377635,63.435 L29.5197382,63.435 C29.3754851,63.0173048 29.1651003,62.6921788 28.8762192,62.4741688 C28.5869635,62.2487909 28.2787863,62.1435642 27.9367003,62.1435642 C27.6079154,62.1435642 27.3392673,62.2357557 27.1227003,62.4218388 C26.9053838,62.6003652 26.7543863,62.8589924 26.6620268,63.1892191 C26.577161,63.5209572 26.5312623,63.8585516 26.5312623,64.2035139 C26.5312623,64.6272544 26.577161,64.9979093 26.6758901,65.3086776 C26.7742446,65.6273804 26.931799,65.8588035 27.1547357,66.0108816 C27.3720522,66.1565365 27.627961,66.2373929 27.9367003,66.2373929 C28.0354294,66.2373929 28.1405281,66.2241688 28.2523711,66.2030101 C28.3636522,66.1773174 28.4753078,66.1433123 28.5938952,66.0968388 L28.5938952,65.1890932 C28.5938952,65.0175567 28.5869635,64.9057179 28.560923,64.8588665 C28.5345078,64.8065365 28.4887965,64.760063 28.4095509,64.7198237 C28.3436066,64.6792065 28.2523711,64.6595592 28.1470851,64.6533249 L28.0354294,64.6533249 L28.0354294,64.5333627 L30.1503306,64.5333627 L30.1503306,64.6533249 C29.9858446,64.6663602 29.8741889,64.6869521 29.8084319,64.7198237 C29.7499813,64.7523174 29.7035205,64.8120151 29.6641787,64.8851259 C29.6448825,64.9253652 29.6377635,65.0253023 29.6377635,65.1890932 L29.6377635,66.0968388 C29.3623711,66.2241688 29.0727408,66.3152267 28.7711205,66.3828589 C28.4687509,66.4480353 28.1600116,66.4816625 27.8383458,66.4816625 C27.4245078,66.4816625 27.0824218,66.4219647 26.8072167,66.3097481 C26.5378192,66.1967758 26.294837,66.0511209 26.0844522,65.8650378 C25.8806243,65.6806549 25.7163256,65.4751134 25.5983003,65.2436902 C25.4474901,64.9448237 25.3751762,64.6064736 25.3751762,64.2426196 C25.3751762,63.5806549 25.5983003,63.0239169 26.0645939,62.5674937 C26.5177737,62.1163602 27.0962851,61.8915491 27.7990041,61.884937 C28.0090142,61.884937 28.2055357,61.9043955 28.3836977,61.9384005 C28.4753078,61.9580479 28.626118,62.0030101 28.8363154,62.0904786 C29.0463256,62.1632116 29.1714699,62.203262 29.210999,62.2085516 C29.270199,62.2085516 29.3224673,62.1889043 29.3754851,62.1435642 C29.4273787,62.0970907 29.4740268,62.0111335 29.5197382,61.8915491 L29.6377635,61.8915491 L29.6377635,63.435 Z" id="Fill-39" fill="#FEFEFE"></path>
            <path d="M32.6891863,66.3750189 L30.4165433,66.3750189 L30.4165433,66.256568 L30.5609838,66.256568 C30.6853787,66.256568 30.7841078,66.2372985 30.8633534,66.1900693 C30.9221787,66.156631 30.9615205,66.1044899 30.994118,66.0319458 C31.0143509,65.9786713 31.0270901,65.8458627 31.0270901,65.6274748 L31.0270901,62.7395025 C31.0270901,62.5143136 31.0207205,62.3748929 30.994118,62.3218073 C30.9677028,62.263432 30.9221787,62.2165806 30.8498648,62.1759635 C30.7775509,62.1310013 30.6853787,62.1100315 30.5609838,62.1100315 L30.4165433,62.1100315 L30.4165433,61.9904471 L32.6891863,61.9904471 L32.6891863,62.1100315 L32.5449332,62.1100315 C32.4197889,62.1100315 32.3210597,62.1310013 32.2423762,62.1759635 C32.1895458,62.2084572 32.1438344,62.2553086 32.1110496,62.336165 C32.0846344,62.381505 32.0780775,62.5207368 32.0717078,62.7395025 L32.0717078,65.6274748 C32.0717078,65.8458627 32.0846344,65.9850945 32.1110496,66.0447922 C32.1374648,66.0967443 32.1829889,66.1513413 32.2553028,66.1968703 C32.3276167,66.2372985 32.4197889,66.2499559 32.5449332,66.256568 L32.6891863,66.256568 L32.6891863,66.3750189 Z" id="Fill-41" fill="#FEFEFE"></path>
            <path d="M37.5972223,63.3479093 L37.465521,63.3479093 C37.406883,62.9836776 37.2553235,62.6921788 37.0057843,62.4675567 C36.769359,62.2423678 36.5067058,62.1358186 36.2243818,62.1310957 C36.000883,62.1310957 35.830402,62.1889043 35.7052577,62.3088665 C35.5739311,62.4273174 35.5151058,62.5601259 35.5151058,62.7133375 C35.5151058,62.8121411 35.5345894,62.8977204 35.5804881,62.9704534 C35.6396881,63.0696348 35.7382299,63.1763728 35.8763008,63.2751763 C35.9813995,63.3428086 36.2108932,63.4752393 36.5724628,63.6533879 C37.0780982,63.9042695 37.4198096,64.1438161 37.6037792,64.3684383 C37.7742603,64.5870151 37.8666197,64.8456423 37.8666197,65.1375189 C37.8666197,65.5011839 37.7285489,65.8185642 37.4396678,66.0834257 C37.1573438,66.3488539 36.8021438,66.4750504 36.3624527,66.4816625 C36.2307514,66.4816625 36.0992375,66.4688161 35.9748425,66.4348111 C35.8498856,66.4089295 35.7052577,66.3620781 35.5151058,66.2761209 C35.4163767,66.2373929 35.3307615,66.2164232 35.2657539,66.2164232 C35.2063666,66.2164232 35.1535362,66.2373929 35.0877792,66.2761209 C35.0225843,66.3229723 34.9761235,66.38267 34.9367818,66.4750504 L34.8189438,66.4750504 L34.8189438,64.8197607 L34.9367818,64.8197607 C35.0289539,65.282796 35.2063666,65.6404156 35.4757641,65.8861965 C35.7445995,66.130466 36.0334805,66.2498615 36.3489641,66.2498615 C36.5853894,66.2498615 36.7762906,66.1901637 36.9207311,66.057733 C37.058802,65.9249244 37.1309286,65.7732242 37.1309286,65.5946977 C37.1309286,65.4945718 37.1045134,65.3946348 37.051683,65.2954534 C36.9994147,65.1972166 36.9207311,65.1112594 36.8021438,65.0175567 C36.6906754,64.9315995 36.5005235,64.8197607 36.2108932,64.6792065 C35.8169134,64.4817884 35.5345894,64.3153526 35.3571767,64.1774433 C35.1865084,64.0370781 35.0553691,63.8914232 34.95664,63.7132746 C34.8710248,63.5483501 34.8255008,63.3556549 34.8189438,63.1501134 C34.8189438,62.7992947 34.9431514,62.507796 35.199997,62.255403 C35.4559058,62.0111335 35.7775716,61.8915491 36.1649944,61.8915491 C36.3030653,61.8915491 36.4411362,61.9043955 36.5724628,61.9450126 C36.6711919,61.9646599 36.7957742,62.0177456 36.9400273,62.0904786 C37.0846552,62.1567884 37.183197,62.1889043 37.2425843,62.1889043 C37.3019716,62.1889043 37.3409387,62.1760579 37.3739109,62.1358186 C37.406883,62.1033249 37.4396678,62.0239798 37.465521,61.8915491 L37.5642501,61.8915491 L37.5972223,63.3479093 Z" id="Fill-43" fill="#FEFEFE"></path>
            <path d="M39.6562395,66.1303715 L40.4841028,66.1303715 C40.8780825,66.1303715 41.1478547,66.1044899 41.3059711,66.0576385 C41.5616927,65.9786713 41.7782597,65.8330164 41.9622294,65.6274748 C42.1463863,65.4215554 42.2707813,65.1432809 42.3432825,64.7924622 L42.4684268,64.7924622 L42.2973838,66.3750189 L38.3101889,66.3750189 L40.8719003,62.2296159 L40.2281939,62.2296159 C39.978842,62.2296159 39.8143559,62.2358501 39.7287408,62.2486965 C39.5841129,62.2764673 39.4396724,62.336165 39.3083458,62.4217443 C39.1772066,62.4999559 39.0722952,62.613306 38.980123,62.7523489 C38.8950699,62.8847796 38.8291256,63.0644395 38.7764825,63.2752708 L38.6582699,63.2752708 L38.7764825,61.9904471 L42.2115813,61.9904471 L39.6562395,66.1303715 Z" id="Fill-45" fill="#FEFEFE"></path>
            <path d="M45.0812825,61.6129723 L44.8053281,61.6129723 L45.1792623,60.4872166 L46.1450091,60.4872166 L45.0812825,61.6129723 Z M44.7924015,63.3751889 L44.1219053,64.8850126 L45.4359205,64.8850126 L44.7924015,63.3751889 Z M44.010999,65.1307935 L43.8266547,65.5543451 C43.773637,65.6935768 43.7402901,65.8133501 43.7402901,65.9057305 C43.7402901,66.031927 43.7867509,66.1175063 43.8858547,66.177204 C43.944118,66.2096977 44.0831256,66.2374685 44.3128066,66.2565491 L44.3128066,66.375 L42.8674648,66.375 L42.8674648,66.2565491 C43.018837,66.2374685 43.1501635,66.1694584 43.2475813,66.0642317 C43.353242,65.959194 43.4720167,65.7326826 43.6228268,65.4024559 L45.1792623,61.8982368 L45.2386496,61.8982368 L46.8091357,65.4946474 C46.9535762,65.8329975 47.0774091,66.0510076 47.1768876,66.1369647 C47.2488268,66.2030856 47.3469939,66.2425693 47.4848775,66.2565491 L47.4848775,66.375 L45.3829028,66.375 L45.3829028,66.2565491 L45.4681433,66.2565491 C45.6331914,66.2565491 45.7519661,66.2374685 45.8240927,66.1838161 C45.8690547,66.1513224 45.8885382,66.104471 45.8962192,66.0366499 C45.8962192,65.9979219 45.8885382,65.959194 45.8756116,65.9189547 C45.8690547,65.8989295 45.8370192,65.8186398 45.7778192,65.672796 L45.5479509,65.1307935 L44.010999,65.1307935 Z" id="Fill-47" fill="#FEFEFE"></path>
            <path d="M51.825399,66.3750189 L47.969718,66.3750189 L47.969718,66.256568 L48.1141585,66.256568 C48.2381787,66.256568 48.3374699,66.2372985 48.4157787,66.1900693 C48.4687965,66.156631 48.5139458,66.1044899 48.540923,66.0319458 C48.5680876,65.9786713 48.5733332,65.8458627 48.5812015,65.6274748 L48.5812015,62.7395025 C48.5812015,62.5143136 48.5680876,62.3748929 48.540923,62.3218073 C48.5218142,62.263432 48.4749787,62.2165806 48.3966699,62.1759635 C48.3309129,62.1310013 48.2327458,62.1100315 48.1141585,62.1100315 L47.969718,62.1100315 L47.969718,61.9904471 L50.2882597,61.9904471 L50.2882597,62.1100315 L50.0973585,62.1100315 C49.9735256,62.1100315 49.8744218,62.1310013 49.7891813,62.1759635 C49.7363509,62.2084572 49.6979458,62.2553086 49.6578547,62.336165 C49.6383711,62.381505 49.6254446,62.5207368 49.6254446,62.7395025 L49.6254446,65.5349055 C49.6254446,65.7599055 49.6383711,65.8989484 49.664037,65.9639358 C49.6898901,66.0238224 49.7363509,66.0706738 49.8150344,66.0967443 C49.8680522,66.1175252 49.9916977,66.1303715 50.2030192,66.1303715 L50.5642142,66.1303715 C50.7935205,66.1303715 50.9909787,66.0916436 51.1421635,66.0045529 C51.2927863,65.92483 51.4243003,65.8001448 51.5428876,65.6208627 C51.6552927,65.4412028 51.7594547,65.183898 51.8587458,64.8393136 L51.9889484,64.8393136 L51.825399,66.3750189 Z" id="Fill-49" fill="#FEFEFE"></path>
            <path d="M56.3528876,66.3750189 L52.4973939,66.3750189 L52.4973939,66.256568 L52.6414597,66.256568 C52.7667914,66.256568 52.8645838,66.2372985 52.9432673,66.1900693 C52.9960977,66.156631 53.0425585,66.1044899 53.0684116,66.0319458 C53.0944522,65.9786713 53.1017585,65.8458627 53.1070041,65.6274748 L53.1070041,62.7395025 C53.1070041,62.5143136 53.0944522,62.3748929 53.0684116,62.3218073 C53.0478041,62.263432 53.0026547,62.2165806 52.9237838,62.1759635 C52.8582142,62.1310013 52.7587357,62.1100315 52.6414597,62.1100315 L52.4973939,62.1100315 L52.4973939,61.9904471 L54.8157484,61.9904471 L54.8157484,62.1100315 L54.6248471,62.1100315 C54.4997028,62.1100315 54.401723,62.1310013 54.3166699,62.1759635 C54.2638395,62.2084572 54.2239357,62.2553086 54.1851559,62.336165 C54.1645484,62.381505 54.1516218,62.5207368 54.1516218,62.7395025 L54.1516218,65.5349055 C54.1516218,65.7599055 54.1645484,65.8989484 54.1915256,65.9639358 C54.2186901,66.0238224 54.2638395,66.0706738 54.3427104,66.0967443 C54.3955408,66.1175252 54.5203104,66.1303715 54.7291965,66.1303715 L55.0917028,66.1303715 C55.3211965,66.1303715 55.5184673,66.0916436 55.6692775,66.0045529 C55.8202749,65.92483 55.9516015,65.8001448 56.0701889,65.6208627 C56.1812825,65.4412028 56.2869433,65.183898 56.384923,64.8393136 L56.5166243,64.8393136 L56.3528876,66.3750189 Z" id="Fill-51" fill="#FEFEFE"></path>
            <path d="M59.1988714,61.6129723 L58.9225423,61.6129723 L59.2966638,60.4872166 L60.2612866,60.4872166 L59.1988714,61.6129723 Z M58.908679,63.3751889 L58.2393068,64.8850126 L59.552198,64.8850126 L58.908679,63.3751889 Z M58.1270891,65.1307935 L57.9427448,65.5543451 C57.8914132,65.6935768 57.8575043,65.8133501 57.8575043,65.9057305 C57.8575043,66.031927 57.9039651,66.1175063 58.0019448,66.177204 C58.0615195,66.2096977 58.1992157,66.2374685 58.4300208,66.2565491 L58.4300208,66.375 L56.984679,66.375 L56.984679,66.2565491 C57.1353018,66.2374685 57.2668157,66.1694584 57.3651701,66.0642317 C57.4708309,65.959194 57.5894182,65.7326826 57.738917,65.4024559 L59.2966638,61.8982368 L59.3560511,61.8982368 L60.9254132,65.4946474 C61.0696663,65.8329975 61.1948106,66.0510076 61.2927904,66.1369647 C61.3651043,66.2030856 61.4630841,66.2425693 61.602279,66.2565491 L61.602279,66.375 L59.500117,66.375 L59.500117,66.2565491 L59.5855448,66.2565491 C59.7492815,66.2565491 59.8676815,66.2374685 59.9399954,66.1838161 C59.9851448,66.1513224 60.0059397,66.104471 60.0123094,66.0366499 C60.0123094,65.9979219 60.0059397,65.959194 59.9928258,65.9189547 C59.9851448,65.8989295 59.952922,65.8186398 59.8950334,65.672796 L59.6642284,65.1307935 L58.1270891,65.1307935 Z" id="Fill-53" fill="#FEFEFE"></path>
            <path d="M64.9834233,63.3479093 L64.8519094,63.3479093 C64.792522,62.9836776 64.6415246,62.6921788 64.3927347,62.4675567 C64.1553727,62.2423678 63.8925322,62.1358186 63.6111448,62.1310957 C63.3868967,62.1310957 63.216603,62.1889043 63.0914587,62.3088665 C62.9601322,62.4273174 62.9020562,62.5601259 62.9020562,62.7133375 C62.9020562,62.8121411 62.920041,62.8977204 62.9663144,62.9704534 C63.0258891,63.0696348 63.1238689,63.1763728 63.2630638,63.2751763 C63.3677878,63.3428086 63.5972815,63.4752393 63.9596005,63.6533879 C64.4648613,63.9042695 64.8056359,64.1438161 64.9896056,64.3684383 C65.1612106,64.5870151 65.2530081,64.8456423 65.2530081,65.1375189 C65.2530081,65.5011839 65.1147499,65.8185642 64.8260562,66.0834257 C64.5435448,66.3488539 64.1890942,66.4750504 63.7479043,66.4816625 C63.6165777,66.4816625 63.4850638,66.4688161 63.3612309,66.4348111 C63.2360866,66.4089295 63.0914587,66.3620781 62.9020562,66.2761209 C62.8027651,66.2373929 62.7164005,66.2164232 62.6521423,66.2164232 C62.5925676,66.2164232 62.5399246,66.2373929 62.4741676,66.2761209 C62.409722,66.3229723 62.3630739,66.38267 62.3231701,66.4750504 L62.2057068,66.4750504 L62.2057068,64.8197607 L62.3231701,64.8197607 C62.4147803,65.282796 62.5925676,65.6404156 62.8621524,65.8861965 C63.1317372,66.130466 63.4204309,66.2498615 63.7351651,66.2498615 C63.9723397,66.2498615 64.163241,66.1901637 64.3078689,66.057733 C64.444441,65.9249244 64.5163803,65.7732242 64.5163803,65.5946977 C64.5163803,65.4945718 64.4907144,65.3946348 64.4380714,65.2954534 C64.385241,65.1972166 64.3078689,65.1112594 64.1890942,65.0175567 C64.0768765,64.9315995 63.8872866,64.8197607 63.5972815,64.6792065 C63.2036765,64.4817884 62.920041,64.3153526 62.7433777,64.1774433 C62.57196,64.0370781 62.4417575,63.8914232 62.3424663,63.7132746 C62.2572258,63.5483501 62.2107651,63.3556549 62.2057068,63.1501134 C62.2057068,62.7992947 62.3295397,62.507796 62.586198,62.255403 C62.8426689,62.0111335 63.1637727,61.8915491 63.5521322,61.8915491 C63.6887043,61.8915491 63.8280866,61.9043955 63.9596005,61.9450126 C64.0575803,61.9646599 64.1812258,62.0177456 64.3256663,62.0904786 C64.4701068,62.1567884 64.5692106,62.1889043 64.628598,62.1889043 C64.6879853,62.1889043 64.7282638,62.1760579 64.7602992,62.1358186 C64.792522,62.1033249 64.8260562,62.0239798 64.8519094,61.8915491 L64.9497018,61.8915491 L64.9834233,63.3479093 Z" id="Fill-55" fill="#FEFEFE"></path>
            <path d="M67.3043443,62.7523866 C67.1392962,63.0837469 67.054243,63.5677519 67.0476861,64.1955227 C67.0476861,64.944767 67.1793873,65.5013161 67.4424152,65.8587469 C67.6190785,66.1045277 67.8759241,66.2292128 68.2045215,66.2373363 C68.4210886,66.2373363 68.6041215,66.1838728 68.7564304,66.0705227 C68.9396506,65.9380919 69.0839038,65.7130919 69.1961215,65.4087469 C69.3006582,65.1112028 69.3469316,64.7131549 69.3534886,64.2231045 C69.3534886,63.6467191 69.3006582,63.2099433 69.1961215,62.9239232 C69.0839038,62.6405479 68.9523899,62.4350063 68.7820962,62.315233 C68.6170481,62.1956486 68.4274582,62.135762 68.2110785,62.135762 C67.8163494,62.135762 67.5147291,62.3413035 67.3043443,62.7523866 M68.2895747,61.9251196 C68.9267241,61.9251196 69.4527797,62.131039 69.8653063,62.5406108 C70.2935696,62.9703967 70.5099494,63.5142884 70.5099494,64.1696411 C70.5099494,64.719767 70.3527696,65.2098174 70.0228608,65.6337469 C69.6024658,66.1967191 68.999038,66.4749937 68.2174481,66.4749937 C67.4281772,66.4749937 66.8313063,66.2097544 66.3977975,65.6728526 C66.062643,65.2570466 65.8989063,64.7522607 65.8912253,64.1696411 C65.8912253,63.5209005 66.1089165,62.9785202 66.5553519,62.5406108 C66.9628203,62.131039 67.468081,61.9302204 68.0651392,61.9251196 C68.0988608,61.9251196 68.1322076,61.9251196 68.1711747,61.9302204 C68.2110785,61.9302204 68.2509823,61.9302204 68.2895747,61.9251196" id="Fill-57" fill="#FEFEFE"></path>
            <path d="M75.0400608,65.6001574 C75.2568152,65.8731423 75.4411595,66.0577141 75.5983392,66.1514169 C75.7092456,66.2241499 75.8343899,66.2498426 75.9595342,66.2566436 L75.9595342,66.3750945 L73.6926987,66.3750945 L73.6926987,66.2566436 C73.8371392,66.2424748 73.9233165,66.2241499 73.9684658,66.1901448 C74.0151139,66.1565176 74.0357215,66.1174118 74.0357215,66.0705605 C74.0357215,65.9787469 73.936243,65.8134446 73.7389722,65.5544395 L72.7410025,64.2958753 L72.5838228,64.428306 L72.5838228,65.6275504 C72.5838228,65.8525504 72.5963747,65.9912154 72.6224152,66.051102 C72.648081,66.1045655 72.6945418,66.1565176 72.7668557,66.1967569 C72.8387949,66.2373741 72.9575696,66.2566436 73.1151241,66.2566436 L73.1151241,66.3750945 L70.9217266,66.3750945 L70.9217266,66.2566436 L71.0657924,66.2566436 C71.1909367,66.2566436 71.2967848,66.2373741 71.374157,66.1901448 C71.4282987,66.1565176 71.4668911,66.1045655 71.5004253,66.0318325 C71.5260911,65.9787469 71.5326481,65.8459383 71.5392051,65.6275504 L71.5392051,62.7393892 C71.5392051,62.5143892 71.5260911,62.3749685 71.5004253,62.321694 C71.4798177,62.2635076 71.433357,62.2166562 71.3546734,62.176039 C71.2889165,62.1310768 71.1909367,62.1099181 71.0657924,62.1099181 L70.9217266,62.1099181 L70.9217266,61.9905227 L73.0890835,61.9905227 L73.0890835,62.1099181 C72.9448304,62.1099181 72.8337367,62.1310768 72.7539291,62.176039 C72.6945418,62.203432 72.6555747,62.248772 72.6224152,62.328495 C72.5963747,62.3749685 72.5838228,62.5143892 72.5838228,62.7393892 L72.5838228,64.1046914 L74.1992709,62.7862406 C74.4225823,62.6065806 74.5333013,62.4609257 74.5333013,62.3490869 C74.5333013,62.2686083 74.4883392,62.203432 74.3965418,62.1567695 C74.3502684,62.1310768 74.231681,62.1163413 74.0484608,62.1099181 L74.0484608,61.9905227 L75.7427797,61.9905227 L75.7427797,62.1099181 C75.5906582,62.1163413 75.4733823,62.1435453 75.3815848,62.1956864 C75.296719,62.2357368 75.0981367,62.3815806 74.7835899,62.6405856 L73.5158481,63.6664043 L75.0400608,65.6001574 Z" id="Fill-59" fill="#FEFEFE"></path>
            <path d="M19.5596192,71.8624496 L19.427918,71.8624496 C19.3694673,71.4982179 19.2179078,71.207097 18.9685559,70.9809635 C18.7317559,70.7559635 18.4694775,70.6503589 18.1869661,70.6426134 C17.96328,70.6426134 17.7931737,70.7023111 17.6680294,70.8218955 C17.5363281,70.9418577 17.4778775,71.0742884 17.4778775,71.225233 C17.4778775,71.32517 17.4969863,71.4126385 17.5428851,71.4849937 C17.6020851,71.5837972 17.7008142,71.6894018 17.8390724,71.7897166 C17.9437965,71.854704 18.1736648,71.9871348 18.5352344,72.1664169 C19.0404952,72.4188098 19.3823939,72.6568451 19.5661762,72.8816562 C19.7370319,73.1004219 19.8293914,73.3590491 19.8293914,73.65017 C19.8293914,74.0144018 19.6911332,74.3331045 19.4024395,74.5985327 C19.1201154,74.8622607 18.7647281,74.9884572 18.3248496,74.9950693 C18.193523,74.9950693 18.0620091,74.9822229 17.9374268,74.9493514 C17.8124699,74.9219584 17.6680294,74.8766184 17.4778775,74.7895277 C17.3791484,74.7492884 17.2933458,74.72983 17.2281509,74.72983 C17.1687635,74.72983 17.1159332,74.7492884 17.0501762,74.7895277 C16.9851686,74.8363791 16.9388952,74.8951322 16.8993661,74.9884572 L16.7813408,74.9884572 L16.7813408,73.332034 L16.8993661,73.332034 C16.9917256,73.7958249 17.1687635,74.1538224 17.4385357,74.3980919 C17.7073711,74.6438728 17.9960648,74.7623237 18.311361,74.7623237 C18.548161,74.7623237 18.7388749,74.7035705 18.8833154,74.570762 C19.0213863,74.4383312 19.0933256,74.2862531 19.0933256,74.106971 C19.0933256,74.0081675 19.0669104,73.9087972 19.01408,73.8088602 C18.9621863,73.7098678 18.8833154,73.6227771 18.7647281,73.532097 C18.6530724,73.4450063 18.4629205,73.332034 18.1736648,73.1937469 C17.7796851,72.9936839 17.4969863,72.8298929 17.3199484,72.6897166 C17.1489053,72.5518073 17.0181408,72.4059635 16.9194116,72.2263035 C16.8336091,72.0598678 16.7878977,71.8690617 16.7813408,71.6635202 C16.7813408,71.3119458 16.905923,71.0212028 17.1623939,70.7688098 C17.4184901,70.523029 17.7403433,70.4049559 18.1277661,70.4049559 C18.2654623,70.4049559 18.4035332,70.4176134 18.5352344,70.4580416 C18.6339635,70.4773111 18.7581711,70.5303967 18.902799,70.6035076 C19.0470522,70.6700063 19.1457813,70.7023111 19.2051686,70.7023111 C19.2643686,70.7023111 19.3037104,70.6894647 19.3366825,70.6503589 C19.3694673,70.6163539 19.4024395,70.5370088 19.427918,70.4049559 L19.5266471,70.4049559 L19.5596192,71.8624496 Z" id="Fill-61" fill="#FEFEFE"></path>
            <path d="M21.6184678,74.6438161 L22.4463311,74.6438161 C22.8403109,74.6438161 23.1097084,74.6164232 23.2668881,74.5707053 C23.5235463,74.4913602 23.7401134,74.3460831 23.924083,74.1405416 C24.107678,73.935 24.2328223,73.6567254 24.3049489,73.3059068 L24.4300932,73.3059068 L24.2592375,74.889597 L20.2720425,74.889597 L22.8337539,70.7426826 L22.1900476,70.7426826 C21.9406957,70.7426826 21.7762096,70.7492947 21.6913438,70.7621411 C21.5461539,70.7884005 21.4017134,70.8480982 21.2709489,70.9340554 C21.1392476,71.014534 21.0341489,71.1267506 20.9419767,71.2654156 C20.8569235,71.3978463 20.7911666,71.5765617 20.7383362,71.7898489 L20.6201235,71.7898489 L20.7383362,70.5050252 L24.1734349,70.5050252 L21.6184678,74.6438161 Z" id="Fill-63" fill="#FEFEFE"></path>
            <path d="M28.2013205,69.3386524 C28.2861863,69.4242317 28.3264648,69.5245466 28.3264648,69.6426196 C28.3264648,69.762204 28.2861863,69.8625189 28.2013205,69.9482872 C28.122637,70.0342443 28.0173509,70.0733501 27.8987635,70.0733501 C27.7872952,70.0733501 27.6887534,70.0342443 27.5969559,69.9482872 C27.5184597,69.8625189 27.4718116,69.762204 27.4718116,69.6426196 C27.4718116,69.5245466 27.5184597,69.4242317 27.5969559,69.3386524 C27.6821965,69.2515617 27.7809256,69.2124559 27.8987635,69.2124559 C28.0173509,69.2124559 28.122637,69.2515617 28.2013205,69.3386524 M27.0058927,69.3386524 C27.0843889,69.4242317 27.1302876,69.5245466 27.1302876,69.6426196 C27.1302876,69.762204 27.0843889,69.8625189 27.0058927,69.9482872 C26.9202775,70.0342443 26.8221104,70.0733501 26.7033357,70.0733501 C26.5854977,70.0733501 26.4867686,70.0342443 26.4015281,69.9482872 C26.3159129,69.8625189 26.2767585,69.762204 26.2767585,69.6426196 C26.2767585,69.5245466 26.3159129,69.4242317 26.4015281,69.3386524 C26.480399,69.2515617 26.5854977,69.2124559 26.7033357,69.2124559 C26.8221104,69.2124559 26.9202775,69.2515617 27.0058927,69.3386524 M26.4015281,71.2654156 C26.2374167,71.5971537 26.1516142,72.0813476 26.1450572,72.7104408 C26.1450572,73.4583627 26.2767585,74.0143451 26.539599,74.3719647 C26.717199,74.6164232 26.9729205,74.7437531 27.3011433,74.7494207 C27.5184597,74.7494207 27.7020547,74.6969018 27.8532395,74.5841184 C28.0368344,74.4526322 28.1812749,74.2264987 28.2934927,73.9221537 C28.3984041,73.6229093 28.4443028,73.2265617 28.4506724,72.7365113 C28.4506724,72.159937 28.3984041,71.7222166 28.2934927,71.4380856 C28.1812749,71.1522544 28.050323,70.9470907 27.8796547,70.8286398 C27.7151686,70.7101889 27.5250167,70.6503023 27.3080749,70.6503023 C26.9137205,70.6503023 26.6119129,70.8558438 26.4015281,71.2654156 M27.3869458,70.4370151 C28.0239078,70.4370151 28.5494015,70.6425567 28.9632395,71.0536398 C29.3901914,71.484937 29.6067585,72.0276952 29.6067585,72.6841814 C29.6067585,73.232796 29.4495787,73.7228463 29.1206066,74.1471537 C28.7002116,74.7103149 28.0960344,74.9884005 27.3146319,74.9884005 C26.5262977,74.9884005 25.9283028,74.7231612 25.4953559,74.1873929 C25.1598268,73.7685642 24.9962775,73.266801 24.9891585,72.6841814 C24.9891585,72.0337406 25.2064749,71.4906045 25.6525357,71.0536398 C26.0600041,70.6425567 26.5654522,70.4451385 27.1630724,70.4370151 C27.1960446,70.4370151 27.2288294,70.4370151 27.2683585,70.4451385 C27.3080749,70.4451385 27.3476041,70.4451385 27.3869458,70.4370151" id="Fill-65" fill="#FEFEFE"></path>
            <path d="M34.3526689,70.6230605 C34.1947397,70.6502645 34.0568562,70.7364106 33.9253423,70.8820655 C33.8401018,70.9884257 33.7087752,71.2396851 33.5248056,71.6362217 L32.0271954,74.9883627 L31.9219094,74.9883627 L30.4312309,71.5034131 C30.2534435,71.0794836 30.1356056,70.8352141 30.0696613,70.7621033 C30.0110233,70.6895592 29.8988056,70.6425189 29.7285119,70.6230605 L29.7285119,70.5049874 L31.810441,70.5049874 L31.810441,70.6230605 L31.7383144,70.6230605 C31.5545322,70.6230605 31.4293878,70.6425189 31.3572613,70.6961713 C31.3115499,70.728665 31.2851347,70.7687154 31.2851347,70.8352141 C31.2851347,70.8743199 31.2915043,70.9211713 31.3115499,70.9742569 C31.3244765,71.0279093 31.3836765,71.1669521 31.4822182,71.3979975 L32.4082486,73.5845214 L33.2688967,71.6362217 C33.3739954,71.4046096 33.4326334,71.2521537 33.4590486,71.1669521 C33.4790942,71.0876071 33.4920208,71.0211083 33.4920208,70.9614106 C33.4920208,70.8949118 33.4790942,70.8418262 33.4391904,70.7883627 C33.4062182,70.7426448 33.3603195,70.7101511 33.2883803,70.6761461 C33.2031397,70.6425189 33.0779954,70.6230605 32.9273727,70.6230605 L32.9273727,70.5049874 L34.3526689,70.5049874 L34.3526689,70.6230605 Z" id="Fill-67" fill="#FEFEFE"></path>
            <path d="M36.4919246,72.5439673 L36.5840967,72.5439673 C36.8593018,72.5439673 37.05676,72.451398 37.1819043,72.278728 C37.3062992,72.1068136 37.3784258,71.8495088 37.4177676,71.5034131 L37.5429119,71.5034131 L37.5429119,73.8025315 L37.4177676,73.8025315 C37.3919144,73.5501385 37.3390841,73.3527204 37.2542182,73.1862846 C37.1753473,73.0274055 37.0831752,72.9206675 36.9717068,72.8687154 C36.8593018,72.8152519 36.7023094,72.7897481 36.4919246,72.783136 L36.4919246,74.0209194 C36.4919246,74.260466 36.5048511,74.4061209 36.5247094,74.4660076 C36.5449423,74.5109698 36.5840967,74.5578212 36.6365524,74.5984383 C36.6957524,74.6243199 36.7809929,74.6437783 36.9057625,74.6437783 L37.1684157,74.6437783 C37.5758841,74.6437783 37.8975499,74.5512091 38.1405322,74.3592695 C38.3902587,74.1745088 38.5609271,73.8881108 38.6725828,73.4985642 L38.7911701,73.4985642 L38.5938992,74.8895592 L34.8371347,74.8895592 L34.8371347,74.7699748 L34.9813878,74.7699748 C35.1059701,74.7699748 35.2045119,74.7493829 35.2837575,74.703665 C35.3423954,74.6707935 35.3817372,74.6165743 35.4147094,74.5438413 C35.4345676,74.4915113 35.4474942,74.3592695 35.4474942,74.1405038 L35.4474942,71.2521537 C35.4474942,71.053602 35.4474942,70.9342065 35.4345676,70.8882997 C35.4147094,70.8155668 35.3751803,70.755869 35.3159803,70.7156297 C35.2374841,70.6555542 35.1258284,70.6230605 34.9813878,70.6230605 L34.8371347,70.6230605 L34.8371347,70.5049874 L38.4760613,70.5049874 L38.4760613,71.8026574 L38.3574739,71.8026574 C38.2915296,71.4850882 38.2062891,71.2587657 38.0948208,71.1201008 C37.9833524,70.980869 37.8254233,70.8820655 37.6152258,70.8155668 C37.4972005,70.7755164 37.2733271,70.755869 36.9451043,70.755869 L36.4919246,70.755869 L36.4919246,72.5439673 Z" id="Fill-69" fill="#FEFEFE"></path>
            <path d="M43.2257934,71.6894018 L43.1075808,71.6894018 C43.0421985,71.4175504 42.9698846,71.225233 42.8846441,71.1005479 C42.7988415,70.9809635 42.6875605,70.8883942 42.5363757,70.8156612 C42.4571301,70.7754219 42.3190592,70.7559635 42.1090491,70.7559635 L41.7873833,70.7559635 L41.7873833,74.1405982 C41.7873833,74.359364 41.8010592,74.498029 41.8203554,74.5579156 C41.8467706,74.6110013 41.8986643,74.6633312 41.9646086,74.7101826 C42.0367352,74.7492884 42.1354643,74.7623237 42.2606086,74.7700693 L42.4048618,74.7700693 L42.4048618,74.8896537 L40.1322187,74.8896537 L40.1322187,74.7700693 L40.2768466,74.7700693 C40.4016162,74.7700693 40.4997833,74.7492884 40.5790289,74.7035705 C40.6312972,74.670699 40.6775706,74.6164798 40.7097934,74.5437469 C40.729839,74.4914169 40.7427656,74.359364 40.7427656,74.1405982 L40.7427656,70.7559635 L40.4345884,70.7559635 C40.1385884,70.7559635 39.9283909,70.8156612 39.7905073,70.9418577 C39.6067251,71.1200063 39.4952567,71.3657872 39.4426137,71.6894018 L39.3178441,71.6894018 L39.3178441,70.5050819 L43.2257934,70.5050819 L43.2257934,71.6894018 Z" id="Fill-71" fill="#FEFEFE"></path>
            <path d="M46.6956441,71.8624496 L46.5643175,71.8624496 C46.5049301,71.4982179 46.3539327,71.207097 46.1051428,70.9809635 C45.8677808,70.7559635 45.6049403,70.6503589 45.3237403,70.6426134 C45.0993048,70.6426134 44.9290111,70.7023111 44.8038668,70.8218955 C44.6723529,70.9418577 44.6144643,71.0742884 44.6144643,71.225233 C44.6144643,71.32517 44.6324491,71.4126385 44.6787225,71.4849937 C44.7382972,71.5837972 44.8364643,71.6894018 44.9754719,71.7897166 C45.0801959,71.854704 45.3096896,71.9871348 45.6718213,72.1664169 C46.1772694,72.4188098 46.5178567,72.6568451 46.702201,72.8816562 C46.8736187,73.1004219 46.9652289,73.3590491 46.9652289,73.65017 C46.9652289,74.0144018 46.8273453,74.3331045 46.5384643,74.5985327 C46.2561403,74.8622607 45.9016896,74.9884572 45.4603124,74.9950693 C45.3287985,74.9950693 45.1974719,74.9822229 45.073639,74.9493514 C44.9484947,74.9219584 44.8038668,74.8766184 44.6144643,74.7895277 C44.5151732,74.7492884 44.4288086,74.72983 44.3645504,74.72983 C44.305163,74.72983 44.2521453,74.7492884 44.1863884,74.7895277 C44.1219428,74.8363791 44.075482,74.8951322 44.0355782,74.9884572 L43.9181149,74.9884572 L43.9181149,73.332034 L44.0355782,73.332034 C44.1271884,73.7958249 44.305163,74.1538224 44.5745605,74.3980919 C44.8437706,74.6438728 45.132839,74.7623237 45.4475732,74.7623237 C45.6847478,74.7623237 45.8756491,74.7035705 46.020277,74.570762 C46.1566618,74.4383312 46.2289757,74.2862531 46.2289757,74.106971 C46.2289757,74.0081675 46.2031225,73.9087972 46.1504795,73.8088602 C46.0974618,73.7098678 46.020277,73.6227771 45.9016896,73.532097 C45.7892846,73.4450063 45.5996947,73.332034 45.3096896,73.1937469 C44.9162719,72.9936839 44.6324491,72.8298929 44.4559732,72.6897166 C44.2843681,72.5518073 44.1541656,72.4059635 44.0548744,72.2263035 C43.9696339,72.0598678 43.9231732,71.8690617 43.9181149,71.6635202 C43.9181149,71.3119458 44.0419478,71.0212028 44.2986061,70.7688098 C44.555077,70.523029 44.8763681,70.4049559 45.2641656,70.4049559 C45.4011124,70.4049559 45.5404947,70.4176134 45.6718213,70.4580416 C45.7699884,70.4773111 45.8936339,70.5303967 46.0380744,70.6035076 C46.1825149,70.6700063 46.2818061,70.7023111 46.3410061,70.7023111 C46.4003934,70.7023111 46.4402972,70.6894647 46.4727073,70.6503589 C46.5049301,70.6163539 46.5384643,70.5370088 46.5643175,70.4049559 L46.6622972,70.4049559 L46.6956441,71.8624496 Z" id="Fill-73" fill="#FEFEFE"></path>
            <path d="M49.3934405,70.1264169 L49.1174861,70.1264169 L49.4914203,69.0002834 L50.4571671,69.0002834 L49.3934405,70.1264169 Z M49.078519,72.5439861 L49.1703165,72.5439861 C49.4460835,72.5439861 49.6435418,72.4514169 49.7673747,72.2787469 C49.892519,72.1066436 49.9646456,71.8495277 50.0045494,71.503432 L50.1283823,71.503432 L50.1283823,73.8025504 L50.0045494,73.8025504 C49.9786962,73.5501574 49.9245544,73.3527393 49.8395013,73.1863035 C49.7608177,73.0272355 49.6693949,72.9206864 49.5584886,72.8687343 C49.4460835,72.8150819 49.2877797,72.789767 49.078519,72.7831549 L49.078519,74.0209383 C49.078519,74.2604849 49.0916329,74.4061398 49.1109291,74.4660264 C49.1304127,74.5109887 49.1703165,74.5578401 49.2231468,74.5984572 C49.2825342,74.6243388 49.3675873,74.6437972 49.4914203,74.6437972 L49.7544481,74.6437972 C50.1619165,74.6437972 50.4843316,74.551228 50.7267519,74.3592884 C50.9770405,74.1745277 51.1471468,73.8881297 51.2578658,73.4985831 L51.3766405,73.4985831 L51.1804937,74.8895781 L47.4229797,74.8895781 L47.4229797,74.7699937 L47.5676076,74.7699937 C47.6912532,74.7699937 47.790357,74.7494018 47.8690405,74.7036839 C47.9286152,74.6708123 47.9672076,74.6165932 48.0007418,74.5438602 C48.0213494,74.4913413 48.0340886,74.3592884 48.0340886,74.1405227 L48.0340886,71.2521725 C48.0340886,71.0536209 48.0340886,70.9340365 48.0213494,70.8883186 C48.0007418,70.8155856 47.961962,70.7558879 47.902762,70.7156486 C47.8227671,70.655573 47.7120481,70.6230793 47.5676076,70.6230793 L47.4229797,70.6230793 L47.4229797,70.5050063 L51.0619063,70.5050063 L51.0619063,71.8026763 L50.9431316,71.8026763 C50.877562,71.4849181 50.7925089,71.2587846 50.6802911,71.1201196 C50.5691975,70.9808879 50.4120177,70.8820844 50.2006962,70.8155856 C50.0834203,70.7755353 49.8599215,70.7558879 49.5313241,70.7558879 L49.078519,70.7558879 L49.078519,72.5439861 Z" id="Fill-75" fill="#FEFEFE"></path>
            <path d="M56.2884982,71.9484257 L56.1708476,71.9484257 C56.0265944,71.5307305 55.8152729,71.2071159 55.5262046,70.9883501 C55.2373235,70.7622166 54.928959,70.6554786 54.5874349,70.6554786 C54.2586501,70.6554786 53.9890653,70.7491814 53.7724982,70.934131 C53.5559311,71.1134131 53.4049337,71.3709068 53.3133235,71.7037783 C53.2282704,72.0336272 53.181997,72.3719773 53.181997,72.7169395 C53.181997,73.1406801 53.2282704,73.511335 53.3260628,73.8232368 C53.4244172,74.1406171 53.581597,74.3718514 53.8060324,74.5258186 C54.0227868,74.6707179 54.2779463,74.7493073 54.5874349,74.7493073 C54.685602,74.7493073 54.7912628,74.7360831 54.9021691,74.7164358 C55.0141995,74.6896096 55.1264172,74.656738 55.2451919,74.6110202 L55.2451919,73.7040302 C55.2451919,73.5321159 55.2373235,73.4172544 55.2116577,73.3722922 C55.1858046,73.3188287 55.1393438,73.2719773 55.0591615,73.2328715 C54.9949033,73.1937657 54.9021691,73.1729849 54.7978197,73.1667506 L54.685602,73.1667506 L54.685602,73.0479219 L56.8001286,73.0479219 L56.8001286,73.1667506 C56.6363919,73.1807305 56.5243615,73.1992443 56.4599159,73.2328715 C56.4007159,73.2668766 56.3540678,73.3265743 56.3152881,73.3993073 C56.2944932,73.4387909 56.2884982,73.5368388 56.2884982,73.7040302 L56.2884982,74.6110202 C56.0121691,74.7360831 55.7234754,74.8297859 55.4216678,74.8951511 C55.1187362,74.9622166 54.8103716,74.9950882 54.4894552,74.9950882 C54.0743058,74.9950882 53.7337185,74.9353904 53.4579514,74.8220403 C53.1883666,74.7102015 52.9446349,74.5645466 52.7357489,74.3799748 C52.5321084,74.1929471 52.3670603,73.988539 52.2484729,73.7556045 C52.0987868,73.4582494 52.0264729,73.1210327 52.0264729,72.7571788 C52.0264729,72.0935139 52.2484729,71.5373426 52.7153286,71.0794081 C53.1690704,70.6297859 53.7466451,70.4049748 54.4493641,70.3983627 C54.6597489,70.3983627 54.8570197,70.4174433 55.033683,70.449937 C55.1264172,70.4707179 55.2772273,70.5183249 55.4876122,70.6035264 C55.6976223,70.6762594 55.8227666,70.7157431 55.8615463,70.7231108 C55.9209337,70.7231108 55.9724527,70.70233 56.0265944,70.6554786 C56.0781134,70.6101385 56.1243868,70.5230479 56.1708476,70.4049748 L56.2884982,70.4049748 L56.2884982,71.9484257 Z" id="Fill-77" fill="#FEFEFE"></path>
            <path d="M58.721562,72.5439673 L58.8142962,72.5439673 C59.090438,72.5439673 59.2865848,72.451398 59.4126658,72.278728 C59.5364987,72.1068136 59.6086253,71.8495088 59.6474051,71.5034131 L59.7736734,71.5034131 L59.7736734,73.8025315 L59.6474051,73.8025315 C59.6217392,73.5501385 59.5700329,73.3527204 59.4847924,73.1862846 C59.4049848,73.0274055 59.3133747,72.9206675 59.2013443,72.8687154 C59.090438,72.8152519 58.9328835,72.7897481 58.721562,72.783136 L58.721562,74.0209194 C58.721562,74.260466 58.7344886,74.4061209 58.7550962,74.4660076 C58.7743924,74.5109698 58.8142962,74.5578212 58.8661899,74.5984383 C58.9253899,74.6243199 59.0102557,74.6437783 59.1368987,74.6437783 L59.3986152,74.6437783 C59.8060835,74.6437783 60.1271873,74.5512091 60.3707316,74.3592695 C60.6197089,74.1745088 60.7911266,73.8881108 60.9033443,73.4985642 L61.0219316,73.4985642 L60.8235367,74.8895592 L57.0671468,74.8895592 L57.0671468,74.7699748 L57.2114,74.7699748 C57.3365443,74.7699748 57.4347114,74.7493829 57.5132076,74.703665 C57.5724076,74.6707935 57.6126861,74.6165743 57.6447215,74.5438413 C57.6642051,74.4915113 57.6771316,74.3592695 57.6771316,74.1405038 L57.6771316,71.2521537 C57.6771316,71.053602 57.6771316,70.9342065 57.6642051,70.8882997 C57.6447215,70.8155668 57.6048177,70.755869 57.5456177,70.7156297 C57.4682456,70.6555542 57.3560278,70.6230605 57.2114,70.6230605 L57.0671468,70.6230605 L57.0671468,70.5049874 L60.7062608,70.5049874 L60.7062608,71.8026574 L60.5874861,71.8026574 C60.5217291,71.4850882 60.4364886,71.2587657 60.3257696,71.1201008 C60.2135519,70.980869 60.0548734,70.8820655 59.8459873,70.8155668 C59.7274,70.7755164 59.5029646,70.755869 59.1753038,70.755869 L58.721562,70.755869 L58.721562,72.5439673 Z" id="Fill-79" fill="#FEFEFE"></path>
            <path d="M49.0026643,31.8701071 L59.3019656,20.9867947 L48.8143858,10.7771599 L29.6506339,31.4669584 L32.3238137,31.4669584 L32.3238137,46.6851574 L52.5799554,46.6851574 L52.5799554,31.8701071 L49.0026643,31.8701071 Z" id="Fill-81" fill="#FEFEFE"></path>
            <path d="M59.3018719,20.9868136 L49.0025706,31.8701259 L52.5798618,31.8701259 L52.5798618,46.6851763 L66.5821605,46.6851763 L66.5821605,31.8701259 L69.5959276,31.8701259 L59.3018719,20.9868136 Z" id="Fill-83" fill="#008309"></path>
            <path d="M48.8144046,10.7771788 L38.6484906,3.77833758e-05 L8.84147797,31.8701259 L12.3766172,31.8701259 L12.3766172,46.6851763 L32.3238324,46.6851763 L32.3238324,31.4669773 L29.6506527,31.4669773 L48.8144046,10.7771788 Z" id="Fill-85" fill="#DC2A1B"></path>
        </g>
    </g>
</svg>