<?xml version="1.0" encoding="UTF-8" standalone="no"?>
<svg width="45px" height="45px" viewBox="0 0 45 45" version="1.1" xmlns="http://www.w3.org/2000/svg" xmlns:xlink="http://www.w3.org/1999/xlink" xmlns:sketch="http://www.bohemiancoding.com/sketch/ns">
    <!-- Generator: Sketch 3.3.2 (12043) - http://www.bohemiancoding.com/sketch -->
    <title>aventura-free-towel</title>
    <desc>Created with Sketch.</desc>
    <defs></defs>
    <g id="utilities" stroke="none" stroke-width="1" fill="none" fill-rule="evenodd" sketch:type="MSPage">
        <g id="aventura-free-towel" sketch:type="MSArtboardGroup" fill="#FFFFFF">
            <path d="M23.1383987,25.9904959 C22.9045469,26.3435368 22.521698,26.4349432 22.2170224,26.6316658 C21.4840639,27.1052572 21.0116832,27.7457647 20.893421,28.6154507 C20.8386328,29.0148572 20.807898,29.4314851 21.1994328,29.695769 C21.5862906,29.9580658 21.9591173,29.804397 22.323258,29.5957518 C24.6330461,28.2696959 26.946175,26.9476142 29.2586358,25.6255325 C30.3223276,25.0168185 31.3739928,24.3869088 32.4563928,23.8133002 C33.0102876,23.5198722 33.2581706,23.1655066 33.0016017,22.4733346 C31.6038358,23.2701604 30.2214373,24.0563884 28.840375,24.8459282 C26.7363765,26.0494464 24.6357187,27.2582636 22.526375,28.4544959 C22.3192491,28.5717346 22.0593395,28.8764228 21.8335054,28.5922679 C21.5889632,28.2836056 21.8368461,27.9934894 22.0793839,27.7729217 C22.215018,27.6497217 22.3853958,27.5609647 22.5464195,27.4682335 C26.0094313,25.4751755 29.4711069,23.4807927 32.9394639,21.4963454 C33.3416891,21.2658421 33.778658,20.8823325 34.2537113,21.2757776 C34.7080521,21.6520013 34.5684091,22.1911669 34.4681869,22.6872787 C34.315181,23.4423755 33.8474773,23.9378249 33.1813336,24.3147109 C30.260858,25.9679755 27.3584224,27.6536959 24.4332699,29.299012 C23.8867247,29.6063497 23.6388417,29.9461432 23.9094417,30.6369905 C25.4201247,29.7580314 26.9094269,28.8903325 28.4000654,28.0246206 C30.2421499,26.9535755 32.0802254,25.8759066 33.9303276,24.8181088 C35.036781,24.1848873 35.5378921,23.2343927 35.5265336,21.9944443 C35.5131706,20.4431841 34.3465839,19.729154 32.966858,20.47564 C31.4682017,21.2870378 30.0069617,22.1679841 28.5296861,23.0177991 C27.4900476,23.6159152 26.4377143,24.1921733 25.4181202,24.822083 C25.0419528,25.0552357 24.7773661,25.0254292 24.4132254,24.8108228 C20.7464284,22.6442249 17.0696091,20.4948486 13.393458,18.3448099 C12.6458002,17.9069862 11.8874521,17.4877088 11.0061647,16.9876228 C12.252261,16.2649819 13.388781,15.6039411 14.5266373,14.9448873 C15.8642699,14.1712443 17.1985617,13.39164 18.5422076,12.6279325 C20.0074565,11.7953389 21.4907454,11.7880529 22.9539899,12.6219712 C27.0978447,14.9819798 31.2283365,17.3631841 35.3788728,19.7112701 C36.0684017,20.1014034 36.4953484,20.6173862 36.5548136,21.3857303 C36.6770847,22.9760701 36.3263069,24.7366378 34.5383424,25.6884572 C31.4595158,27.3291368 28.4755661,29.1440185 25.4528639,30.8880271 C23.9294861,31.7676486 22.413458,31.735855 20.898098,30.8688185 C16.8063587,28.5266937 12.7286506,26.1587368 8.6115217,23.8603282 C7.35673948,23.1595454 6.98257652,22.1229432 7.00061652,20.8273561 C7.01932466,19.4582464 7.8538417,18.6713561 9.01307874,18.1401389 C9.21686392,18.0467454 9.42599429,17.9904443 9.68389948,18.1408013 C14.0255261,20.6816357 18.377175,23.2059109 22.7254832,25.7348228 C22.8604491,25.8136443 22.9914061,25.8990894 23.1383987,25.9904959" id="Imported-Layers" sketch:type="MSShapeGroup"></path>
        </g>
    </g>
</svg>