<?xml version="1.0" encoding="UTF-8" standalone="no"?>
<svg width="45px" height="45px" viewBox="0 0 45 45" version="1.1" xmlns="http://www.w3.org/2000/svg" xmlns:xlink="http://www.w3.org/1999/xlink" xmlns:sketch="http://www.bohemiancoding.com/sketch/ns">
    <!-- Generator: Sketch 3.3.2 (12043) - http://www.bohemiancoding.com/sketch -->
    <title>aventura-free-wifi</title>
    <desc>Created with Sketch.</desc>
    <defs></defs>
    <g id="utilities" stroke="none" stroke-width="1" fill="none" fill-rule="evenodd" sketch:type="MSPage">
        <g id="aventura-free-wifi" sketch:type="MSArtboardGroup" fill="#FFFFFF">
            <g id="wifi" sketch:type="MSLayerGroup" transform="translate(7.000000, 16.000000)">
                <path d="M4.18429815,14.3330498 C8.041,14.3375294 11.8968259,14.3375294 15.7561556,14.3375294 C19.5953389,14.3375294 23.4345222,14.3375294 27.2737056,14.3330498 C28.3992704,14.3330498 29.3671685,13.9236109 30.1642611,13.1127964 C30.9377037,12.3243801 31.3520167,11.3657376 31.3625278,10.2458281 C31.3756667,8.35631674 31.3660315,6.4659095 31.3625278,4.57639819 C31.3625278,4.43932127 31.3555204,4.3040362 31.3415056,4.16695928 C31.1093852,2.06690498 29.361037,0.467674208 27.2903481,0.464090498 L26.0964611,0.464090498 C18.8183926,0.464090498 11.5412,0.464090498 4.26663519,0.467674208 C3.14807778,0.467674208 2.1793037,0.85919457 1.38221111,1.65746606 C0.592125926,2.45215385 0.163798148,3.42154751 0.157666667,4.55937557 C0.143651852,6.45874208 0.154162963,8.35900452 0.154162963,10.259267 C0.154162963,10.6167421 0.211974074,10.9706335 0.308325926,11.3137738 C0.786581481,13.0671041 2.4087963,14.3330498 4.18429815,14.3330498 L4.18429815,14.3330498 Z M14.7576,13.0205158 C14.8189148,12.9515294 14.8802296,12.8807511 14.9424204,12.8144525 C15.7053519,11.991991 16.1941185,11.0163258 16.4884296,9.93494118 C16.5295981,9.78800905 16.5471167,9.62942986 16.5471167,9.47533032 C16.5532481,7.93971041 16.5260944,6.40319457 16.5637593,4.86667873 C16.590913,3.62761086 17.1795352,2.67882353 18.1956093,2.01404525 C18.7605815,1.63954751 19.3903722,1.48186425 20.0639593,1.48186425 C22.2984463,1.48544796 24.536437,1.48544796 26.7709241,1.48186425 C27.848313,1.48186425 28.7513926,1.88144796 29.4600167,2.71107692 C29.952287,3.28088688 30.2299556,3.95641629 30.2877667,4.71705882 C30.3017815,4.87742986 30.3052852,5.04138462 30.3052852,5.20265158 C30.3052852,6.68630769 30.3149204,8.16638009 30.3017815,9.65093213 C30.2912704,11.1166697 29.6273185,12.1953665 28.3616056,12.8780633 C27.8964889,13.1262353 27.3902037,13.2346425 26.8628963,13.2346425 C22.7880889,13.2382262 18.7159093,13.2382262 14.6446056,13.2382262 C14.6305907,13.2382262 14.6200796,13.2346425 14.6104444,13.2346425 C14.5894222,13.2346425 14.6542407,13.1360905 14.7576,13.0205158 L14.7576,13.0205158 Z M11.9993093,3.74318552 C11.9993093,3.56131222 12.1429611,3.41438009 12.3207741,3.41438009 L13.5803556,3.41438009 C13.7581685,3.41438009 13.9018204,3.56489593 13.9018204,3.74318552 L13.9018204,4.65613575 C13.9018204,4.84159276 13.7581685,4.98942081 13.5803556,4.98942081 L12.3207741,4.98942081 C12.1429611,4.98942081 11.9993093,4.84159276 11.9993093,4.66061538 L11.9993093,3.74318552 L11.9993093,3.74318552 Z M11.9923019,5.85309502 C11.9923019,5.67122172 12.1359537,5.52428959 12.3146426,5.52428959 L13.5838593,5.52428959 C13.7616722,5.52428959 13.9053241,5.67122172 13.9053241,5.85309502 L13.9053241,10.3721538 C13.9053241,10.5531312 13.7616722,10.7009593 13.5838593,10.7009593 L12.3146426,10.7009593 C12.1359537,10.7009593 11.9923019,10.5531312 11.9923019,10.3721538 L11.9923019,5.85309502 L11.9923019,5.85309502 Z M3.1892463,3.61327602 L4.61875741,3.61327602 C4.7974463,3.61327602 4.96124444,3.76020814 4.98839815,3.93939367 C5.14956852,5.0378009 5.31073889,6.13441629 5.48154444,7.22923982 C5.50869815,7.40752941 5.56037778,7.41469683 5.59453889,7.24267873 C5.61468519,7.1378552 5.63570741,7.03303167 5.6558537,6.93179186 C5.86082037,5.86026244 6.06666296,4.79052489 6.27513333,3.71899548 C6.28564444,3.65538462 6.29265185,3.60342081 6.38112037,3.60700452 C6.87426667,3.60969231 7.36653704,3.60700452 7.85968333,3.60700452 C7.86931852,3.60700452 7.87982963,3.60969231 7.89384444,3.60969231 C7.90698333,3.61327602 7.95165556,3.76020814 7.98932037,3.93939367 C8.21881296,5.04138462 8.45093333,6.1478552 8.69444074,7.25432579 C8.73210556,7.43171946 8.78641296,7.42903167 8.81093889,7.24984615 C8.83108519,7.10022624 8.85123148,6.95239819 8.8722537,6.80188235 C9.01590556,5.76619005 9.1560537,4.72691403 9.30320926,3.69032579 C9.30671296,3.65986425 9.34788148,3.61327602 9.37153148,3.61327602 C9.9365037,3.60969231 10.4970963,3.60969231 11.0760833,3.62044344 C11.2538963,3.62492308 11.363387,3.77095928 11.3222185,3.94924887 C11.2880574,4.0899095 11.2538963,4.23325792 11.2162315,4.37750226 C10.7160778,6.43455204 10.2168,8.48891403 9.71401852,10.5468597 C9.66584259,10.7421719 9.70350741,10.7081267 9.50817593,10.7081267 C9.02992037,10.7108145 8.54728519,10.7036471 8.0681537,10.7108145 C7.97530556,10.7108145 7.93851667,10.6875204 7.91749444,10.5889683 C7.66435185,9.26299548 7.40420185,7.9361267 7.14405185,6.61284163 C7.14054815,6.60298643 7.14054815,6.595819 7.13441667,6.58506787 C7.12740926,6.57073303 7.09324815,6.67645249 7.06521852,6.81621719 C7.04857593,6.89953846 7.03105741,6.98465158 7.01441481,7.06886878 C6.78842593,8.23715837 6.55893333,9.40544796 6.33294444,10.5782172 C6.31630185,10.6830407 6.27513333,10.7108145 6.17265,10.7108145 C5.65935741,10.7036471 5.14956852,10.7081267 4.63627593,10.7108145 C4.55744259,10.7108145 4.53028889,10.6830407 4.51277037,10.6068869 C3.97232407,8.32047964 3.43187778,6.03228054 2.89143148,3.74676923 C2.88792778,3.72526697 2.88442407,3.70197285 2.87741667,3.68047059 C2.87391296,3.6419457 3.01055741,3.61327602 3.1892463,3.61327602 Z M19.167887,10.7359005 L20.539587,10.7359005 C20.7174,10.7359005 20.8610519,10.5889683 20.8610519,10.4061991 L20.8610519,8.94404525 C20.8610519,8.76127602 21.0047037,8.61434389 21.1833926,8.61434389 L24.0949704,8.61434389 C24.2727833,8.61434389 24.4129315,8.46741176 24.4059241,8.28553846 C24.3989167,7.93254299 24.3892815,7.57865158 24.3822741,7.2220724 C24.3752667,7.0401991 24.2281111,6.89326697 24.0502981,6.89326697 L21.2236852,6.89326697 C21.0458722,6.89326697 20.9022204,6.74543891 20.9022204,6.56356561 L20.9022204,5.71333032 C20.9022204,5.53145701 21.0458722,5.38542081 21.2236852,5.38542081 L24.5776056,5.38542081 C24.7554185,5.38542081 24.9025741,5.23400905 24.9025741,5.05303167 L24.9025741,3.96806335 C24.9025741,3.78529412 24.7554185,3.63836199 24.5811093,3.63836199 L19.1713907,3.63836199 C18.9935778,3.63836199 18.8499259,3.78529412 18.8499259,3.96806335 L18.8499259,10.4061991 C18.8464222,10.5889683 18.9900741,10.7359005 19.167887,10.7359005 Z M26.1481407,10.7108145 L27.4751685,10.7108145 C27.6529815,10.7108145 27.7966333,10.5638824 27.7966333,10.382009 L27.7966333,5.84323982 C27.7966333,5.66136652 27.6529815,5.51353846 27.4751685,5.51353846 L26.1481407,5.51353846 C25.9694519,5.51353846 25.8258,5.66136652 25.8258,5.84323982 L25.8258,10.382009 C25.8258,10.5638824 25.9729556,10.7108145 26.1481407,10.7108145 Z M26.1542722,5.01361086 L27.4821759,5.01361086 C27.6599889,5.01361086 27.8036407,4.86667873 27.8036407,4.68480543 L27.8036407,3.7360181 C27.8036407,3.5541448 27.6599889,3.40721267 27.4821759,3.40721267 L26.1542722,3.40721267 C25.9764593,3.40721267 25.8328074,3.55862443 25.8328074,3.7360181 L25.8328074,4.68480543 C25.8328074,4.86667873 25.9764593,5.01361086 26.1542722,5.01361086 Z" id="Fill-1" sketch:type="MSShapeGroup"></path>
            </g>
        </g>
    </g>
</svg>