<?xml version="1.0" encoding="UTF-8" standalone="no"?>
<svg width="90px" height="90px" viewBox="0 0 90 90" version="1.1" xmlns="http://www.w3.org/2000/svg" xmlns:xlink="http://www.w3.org/1999/xlink">
    <!-- Generator: Sketch 3.6.1 (26313) - http://www.bohemiancoding.com/sketch -->
    <title>aventura-recommend-04</title>
    <desc>Created with Sketch.</desc>
    <defs></defs>
    <g id="kit" stroke="none" stroke-width="1" fill="none" fill-rule="evenodd">
        <g id="aventura-recommend-04" fill="#E4001B">
            <path d="M27.3354347,37.1924432 C31.195369,37.1924432 35.0553033,37.2345288 38.9152376,37.1643861 C40.2114842,37.1503575 41.1620651,37.5852427 42.0262295,38.5111271 C44.100224,40.7276385 46.2174268,42.874007 48.3346296,45.0344042 C48.5506707,45.2728896 48.752309,45.6797176 49.0979748,45.5815177 C49.5012515,45.4692893 49.5012515,45.0063471 49.5588625,44.6416047 C49.8469173,42.7898357 50.1637776,40.9520953 50.4086241,39.1003264 C50.581457,37.8658137 50.9991365,37.2064717 52.4826187,37.2205003 C60.1016681,37.2906431 67.7351203,37.262586 75.3541697,37.2766145 C76.8664574,37.2766145 77.168915,37.5992712 76.9240684,39.016155 C76.2471396,42.8038643 76.6216108,42.2707793 73.0929396,42.2988364 C70.5292518,42.2988364 70.5292518,42.3128649 70.1403779,44.7818902 C69.7515039,47.3210583 69.3338244,49.8602263 69.0025614,52.4134229 C68.858534,53.5216786 68.3256326,53.9846208 67.2310244,53.9425352 C65.8483614,53.9004495 64.4656983,53.8723924 63.0830353,53.914478 C61.9740243,53.9565637 61.6427613,53.5216786 61.8011914,52.4695371 C62.2476764,49.6077124 62.6077449,46.731859 63.097438,43.8700343 C63.3134791,42.6635788 62.9678134,42.2006365 61.7291777,42.2707793 C60.6489722,42.3268935 59.5399613,42.3689791 58.445353,42.2567507 C57.4227585,42.1585509 57.1491064,42.6635788 57.0338845,43.4912634 C56.6306078,46.2689168 56.1985256,49.0465702 55.8240544,51.8242237 C55.5792078,53.633907 55.3343612,53.6619641 53.519616,53.9004495 C49.9909447,54.3633917 47.3984515,53.2130504 45.2956514,50.4213684 C44.0426131,48.7379421 42.4151035,47.3070297 40.9316212,45.7779175 C40.6579692,45.4833179 40.4131226,44.9642614 39.9234294,45.1887182 C39.5921664,45.3290038 39.5489582,45.791946 39.4913472,46.1847455 C39.2176952,48.1206858 38.9008349,50.0706546 38.6271828,52.0206234 C38.45435,53.2411075 38.007865,54.0126779 36.5243828,53.8723924 C35.2569417,53.760164 33.9462924,53.7741925 32.6644485,53.8723924 C31.1665636,54.0126779 31.1089526,53.1709648 31.2817855,52.1328519 C31.6850622,49.5375696 32.1171444,46.9422873 32.5204211,44.3610336 C32.5924348,43.8980914 32.6212403,43.4211206 32.7220595,42.9722069 C32.8660869,42.3970363 32.6500458,42.2006365 32.0883389,42.2006365 C30.7056759,42.2006365 29.3230128,42.1725794 27.9403498,42.1585509 C26.9609635,42.1304938 26.4712703,42.593436 26.3416457,43.5614061 C25.9527717,46.2969739 25.5350922,49.0185131 25.0886073,51.7400524 C24.7573443,53.7461354 24.6421224,53.8162782 22.6257388,53.8303067 L19.4859414,53.8303067 C17.7864181,53.8162782 17.570377,53.6058499 17.8152236,51.9224236 C18.2040976,49.2289414 18.621777,46.5494879 19.068262,43.8700343 C19.3275113,42.2988364 19.1690812,42.0743795 17.5127661,42.0463224 C16.4037551,42.0322939 15.3091469,42.0042368 14.2145386,42.0322939 C13.1487359,42.0743795 12.8750838,41.5553231 13.0479167,40.6294386 C13.7824564,36.7014438 13.1487359,36.9960435 17.3255305,37.010072 C20.6525634,37.0241006 23.9939991,37.010072 27.3354347,37.010072 L27.3354347,37.1924432 Z" id="Fill-1"></path>
        </g>
    </g>
</svg>