<?xml version="1.0" encoding="UTF-8" standalone="no"?>
<svg width="90px" height="90px" viewBox="0 0 90 90" version="1.1" xmlns="http://www.w3.org/2000/svg" xmlns:xlink="http://www.w3.org/1999/xlink">
    <!-- Generator: Sketch 3.6.1 (26313) - http://www.bohemiancoding.com/sketch -->
    <title>aventura-recommend-03</title>
    <desc>Created with Sketch.</desc>
    <defs>
        <path id="path-1" d="M9.80333041,7.98909425 L9.80333041,0.111879837 L0.302252547,0.111879837 L0.302252547,7.98909425 L9.80333041,7.98909425 L9.80333041,7.98909425 Z"></path>
    </defs>
    <g id="kit" stroke="none" stroke-width="1" fill="none" fill-rule="evenodd">
        <g id="aventura-recommend-03">
            <g id="Page-1" transform="translate(12.000000, 31.000000)">
                <path d="M59.0013803,4.32971212 C58.8349603,3.23198149 58.6447659,2.13425085 58.5496687,1.02458836 C58.5140073,0.642769013 58.6091045,0.511518611 58.9419446,0.451859338 C59.5838505,0.320608936 60.2138693,0.141631115 60.8438882,0.0223125683 C61.1886154,-0.0492785599 61.4144712,0.034244423 61.4857941,0.535382321 C61.9137314,3.3870956 62.3773302,6.22687702 62.8171546,9.07859029 C63.0311233,10.4388217 63.2332048,11.810985 63.4471734,13.1712165 C63.4828349,13.3979217 63.5422706,13.6484906 63.2807534,13.6484906 C62.4843145,13.6604225 61.7829728,14.1376967 60.9746468,14.1019011 C60.6655809,14.0899693 60.4397251,14.0780374 60.5704838,13.4933765 C59.619512,14.4240612 58.6447659,14.8894035 57.5392612,14.8416761 C56.0058192,14.7820168 54.7220073,14.2092878 53.7948098,12.7536015 C53.1291295,11.7155302 52.6893051,10.6058677 52.7130794,9.37688666 C52.7368537,8.15983748 52.9745966,6.99051572 53.6878255,5.92858065 C54.4486029,4.81891816 55.4708976,4.31778026 56.5764023,3.99562019 C57.1350982,3.82857422 57.8245527,3.99562019 58.4307972,4.19846172 C58.6091045,4.25812099 58.7636374,4.40130325 59.0013803,4.32971212 M59.9523521,9.48427335 C59.9523521,8.00472337 59.0251546,6.85926532 57.848327,6.85926532 C56.6477251,6.85926532 55.7086405,7.88540482 55.7086405,9.20984069 C55.7086405,10.6535951 56.6596123,11.8229169 57.8245527,11.8348487 C59.0251546,11.8348487 59.9523521,10.8087092 59.9523521,9.48427335" id="Fill-1" fill="#000000"></path>
                <path d="M42.8942957,16.8104321 C41.230095,18.4928237 38.888327,18.3973688 37.4262079,17.1564559 C36.7724148,16.6075906 36.1899446,15.9394068 35.8452173,15.1280406 C35.1676499,13.5172402 35.0606656,11.810985 35.7738944,10.2121165 C36.4752361,8.67290723 37.6045151,7.5751766 39.3162643,7.4439262 C39.851186,7.40813063 40.3623333,7.3365395 40.8853678,7.5751766 C41.0755621,7.64676773 41.4202894,7.82574555 41.4916123,7.3365395 C41.5153866,7.15756168 41.7055809,7.16949354 41.8244524,7.15756168 C42.5257941,7.03824314 43.2152487,6.9427883 43.9165903,6.83540161 C44.213769,6.78767419 44.3088662,6.90699274 44.3564148,7.22915281 C44.7605778,10.2837076 45.3787095,13.3024669 45.7590982,16.3689535 C45.8066468,16.7269092 45.7353239,16.8342959 45.4500324,16.9416825 C44.7249164,17.2041833 43.9760261,17.2041833 43.2509101,17.2996382 C42.9061828,17.3473656 43.00128,17.0252055 42.8942957,16.8104321 M38.2583082,12.5030326 C38.2464211,13.9348552 39.1617314,15.0803132 40.3147847,15.0803132 C41.467838,15.0803132 42.3712612,14.0899693 42.3831483,12.8251927 C42.3950355,11.4172338 41.4440637,10.2359802 40.3147847,10.2359802 C39.1617314,10.2240483 38.2583082,11.2143923 38.2583082,12.5030326" id="Fill-3" fill="#000000"></path>
                <path d="M22.6385966,20.5928301 C22.3057565,21.2848777 21.7708349,21.4638555 20.9268474,21.2968095 C19.8688913,21.093968 18.9298066,20.0439648 18.6564023,18.9223704 C18.1452549,16.7865684 17.9431734,14.5911072 17.5390104,12.4314415 C17.4795747,12.0973495 17.4320261,11.8587124 17.907512,11.810985 C18.6920637,11.7155302 19.4766154,11.5126887 20.2730543,11.3695064 C20.8674117,11.2501878 21.1408161,11.4172338 21.1170418,12.0854177 C21.0932675,12.8132608 21.2002518,13.541104 21.3191233,14.197356 C21.5093176,15.259291 21.699512,16.3450898 22.0442392,17.3592975 C22.2463208,17.9439583 22.7218066,18.1229362 23.2686154,18.0274813 C23.95807,17.9200946 24.3384587,17.5144116 24.3978944,16.8342959 C24.4811045,15.8439519 24.2195872,14.9013354 24.1007157,13.9348552 C23.9937314,13.0161023 23.9342957,12.0854177 23.6965527,11.1785967 C23.6252298,10.9399596 23.6608913,10.74905 23.9699571,10.7013225 C24.849606,10.5581403 25.7411421,10.3910943 26.620791,10.2121165 C27.0130668,10.1285935 27.191374,10.2359802 27.2508098,10.7132544 C27.4647784,12.2405318 27.7976186,13.7678092 27.9521515,15.3070185 C28.0947972,16.738841 28.5465088,18.1229362 28.5227345,19.5786224 C28.5227345,19.7695321 28.5346217,19.8172595 28.3800888,19.8411232 C27.4766656,20.0201011 26.5732424,20.187147 25.6817063,20.3661248 C25.2775433,20.437716 25.3964148,20.0678285 25.3132048,19.8888507 C25.2299947,19.6860091 25.3369791,19.3399853 25.0992361,19.3041898 C24.8852675,19.2683942 24.8139446,19.6024861 24.683186,19.7695321 C24.2790229,20.3183974 23.9105214,20.8911265 23.1972925,21.0223769 C22.9238882,21.0701043 22.6980324,21.1297635 22.6385966,20.5928301" id="Fill-5" fill="#000000"></path>
                <path d="M12.8673615,23.062724 C9.71726746,22.9553373 7.68456527,20.8076035 7.67267812,17.5263434 C7.67267812,14.603039 9.76481605,12.4433733 12.2373427,12.2405318 C15.5419697,11.9899628 17.7648662,14.6507664 17.6578819,18.0036176 C17.586559,20.6882849 15.5181954,22.9076099 12.8673615,23.062724 M14.7098693,17.7172531 C14.7098693,16.2377031 13.8896562,15.2354273 12.6771671,15.2234955 C11.5597753,15.2234955 10.5612549,16.3570217 10.5850292,17.5979346 C10.6206907,18.8985067 11.5478882,19.9962374 12.6415057,20.0081692 C13.8302204,20.0201011 14.7217565,19.041689 14.7098693,17.7172531" id="Fill-7" fill="#000000"></path>
                <path d="M30.2820324,15.4859963 C29.8659822,15.4979281 29.8065465,15.2473592 29.7589979,14.9729265 C29.6520135,14.2450834 29.4737063,13.5053084 29.4380449,12.7655334 C29.4023834,12.0138266 29.2240762,11.9899628 28.5227345,12.1212132 C28.0829101,12.1928044 27.9878129,12.0496221 27.9640386,11.6558709 C27.9521515,11.4530294 27.9283772,11.2501878 27.8927157,11.0473463 C27.7262957,10.0450705 27.7144085,10.0331387 28.6534932,9.83029714 C28.9150104,9.77063787 29.0101076,9.67518303 28.962559,9.38881851 C28.8674618,8.79222578 28.7961389,8.19563304 28.7129289,7.59904031 C28.6891546,7.4439262 28.6178317,7.24108467 28.8555747,7.22915281 C29.8659822,7.15756168 30.816954,6.75187862 31.8273615,6.69221935 C32.0769916,6.6802875 32.1839759,6.73994677 32.1720888,7.01437943 C32.1364273,7.61097216 32.4454932,8.13597377 32.433606,8.72063465 C32.4217189,9.00699916 32.5881389,9.12631771 32.837769,9.102454 C32.9209791,9.09052215 32.9923019,9.09052215 33.0636248,9.06665844 C34.2642267,8.78029392 34.3949853,8.88768062 34.4187596,10.2121165 C34.4306468,10.498481 33.8125151,11.1666649 33.4677878,11.2024604 C33.0160762,11.2501878 32.8021076,11.3814383 32.9328662,11.978031 C33.158722,12.9683749 33.2538192,13.9706507 33.4083521,14.9729265 C33.5391107,15.7962245 33.8600637,16.082589 34.5970668,15.8797475 C35.1438756,15.7127015 35.2984085,15.9036112 35.3459571,16.4644084 C35.3935057,17.0132737 35.5242643,17.562139 35.6074744,18.1110043 C35.6431358,18.3257777 35.6669101,18.5286192 35.3816186,18.5882785 C34.3474367,18.7791882 33.3251421,19.0655527 32.2790731,19.1013482 C31.0784712,19.125212 30.6148725,18.7672563 30.2582581,17.5263434 C30.1274994,17.0967967 29.9848537,16.6672499 29.9729665,16.2019076 C29.9610794,15.915543 29.8303208,15.6172467 30.2820324,15.4859963" id="Fill-9" fill="#000000"></path>
                <g id="Group-13" transform="translate(0.000000, 13.421905)" fill="#000000">
                    <path d="M3.42896652,2.79193468 C3.76180665,1.74193147 4.24917969,0.930565349 5.17637718,0.489086725 C5.3071358,0.429427451 5.42600727,0.369768177 5.55676589,0.333972613 C6.25810759,0.119199229 6.36509191,0.202722212 6.49585053,0.978292768 C6.61472201,1.71806776 6.73359348,2.45784275 6.84057781,3.18568589 C6.91190069,3.72261935 6.72170633,4.05671128 6.17489755,4.08057499 C5.7588474,4.1044387 5.40223298,4.28341652 5.06939285,4.55784918 C4.66522984,4.89194111 4.46314834,5.29762417 4.47503549,5.88228505 C4.47503549,6.64592375 4.45126119,7.40956246 4.51069693,8.14933745 C4.57013266,8.80558946 4.83164991,9.44990961 4.95052138,10.1180935 C5.02184426,10.5237765 4.8791985,10.7146862 4.49880978,10.7743455 C3.60727373,10.9055959 2.71573768,11.0368463 1.84797592,11.227756 C1.50324865,11.2993471 1.44381292,11.1561648 1.39626433,10.8698003 C1.12285994,8.63854349 0.564164013,6.44308222 0.445292539,4.17602983 C0.409631097,3.46011855 0.17188815,2.75613912 0.0411295298,2.05215969 C0.00546808777,1.87318187 -0.0896290909,1.62261292 0.231323887,1.58681736 C1.0871985,1.50329437 1.9430731,1.34818026 2.76328627,1.09761131 C3.08423925,0.990224622 3.22688502,1.07374761 3.25065931,1.45556696 C3.27443361,1.90897743 3.36953078,2.35045606 3.42896652,2.79193468" id="Fill-11"></path>
                </g>
                <path d="M48.7071107,6.84733346 C48.9924023,6.05983105 49.2063709,6.65642379 49.6461954,6.15528589 C50.1454555,5.60642057 50.7517001,5.5467613 51.3698317,5.42744275 C51.5838004,5.37971533 51.5600261,5.55869315 51.5956875,5.68994356 C51.8334305,6.71608306 52.0236248,7.75415442 52.1424963,8.81608949 C52.1781577,9.11438586 52.0830606,9.18597698 51.8096562,9.20984069 C51.1439759,9.26949997 50.4901828,9.36495481 50.0265841,10.0212068 C49.7175182,10.4388217 49.6343082,10.9041641 49.6224211,11.405302 C49.5867596,12.4075778 49.8245026,13.3859898 50.0384712,14.3405382 C50.1216813,14.7462213 50.0028098,15.1519043 50.1692298,15.5456555 C50.2405527,15.7007697 50.0741327,15.8200882 49.8958255,15.8558838 L46.9715872,16.4405446 C46.6981828,16.5002039 46.6625214,16.2854305 46.6387471,16.0587253 C46.4247784,14.0661056 45.8898568,12.1212132 45.7709853,10.1166617 C45.7234367,9.22177255 45.4143709,8.42233828 45.3192737,7.55131289 C45.2717251,7.03824314 45.259838,6.75187862 45.8779697,6.66835564 C46.6030856,6.56096895 47.3400888,6.4416504 48.0533176,6.26267258 C48.3148349,6.19108145 48.4218192,6.22687702 48.4455935,6.5729008 C48.4812549,6.99051572 48.5882392,6.21494516 48.7071107,6.84733346" id="Fill-14" fill="#000000"></path>
                <g id="Group-18" transform="translate(55.423824, 17.001461)">
                    <mask id="mask-2" fill="white">
                        <use xlink:href="#path-1"></use>
                    </mask>
                    <g id="Clip-17"></g>
                    <path d="M1.34277216,1.93284114 C2.10354959,0.870906075 3.06640853,0.465223015 4.04115461,1.02602019 C4.7424963,1.41977139 4.98023925,1.33624841 5.51516088,0.751587528 C6.58500414,-0.417734233 8.49883486,0.0953355191 9.00998219,1.64647663 C9.50924238,3.13795847 9.54490382,4.736827 9.79453392,6.28796811 C9.87774395,6.80103787 9.36659661,6.55046892 9.15262796,6.66978746 C8.91488502,6.80103787 8.81978784,6.57433263 8.78412639,6.34762739 L8.32052765,3.09023105 C8.28486621,2.8396621 8.24920476,2.58909315 8.20165618,2.35045606 C7.99957467,1.49136252 7.50031448,1.12147502 6.68010132,1.20499801 C6.00253392,1.26465728 5.45572514,1.89704558 5.44383799,2.68454799 C5.43195085,3.77034677 5.72912953,4.82034998 5.83611386,5.89421691 C5.85988815,6.12092215 5.90743674,6.33569553 5.93121103,6.56240077 C6.02630821,7.19478907 5.91932389,7.32603947 5.36062796,7.33797133 C5.11099787,7.34990318 5.02778784,7.23058464 4.99212639,6.99194754 L4.52852765,3.72261935 C4.49286621,3.49591411 4.46909191,3.26920887 4.40965618,3.05443549 C4.23134897,2.2072738 3.69642734,1.77772703 2.9831985,1.83738631 C2.24619536,1.89704558 1.66372514,2.55329759 1.66372514,3.36466371 C1.65183799,4.45046249 1.93712953,5.5004657 2.056001,6.57433263 C2.0797753,6.80103787 2.0797753,7.03967496 2.15109818,7.25444834 C2.36506683,7.85104108 2.0797753,7.95842777 1.61617655,7.98229148 C1.35465931,8.00615519 1.23578784,7.98229148 1.20012639,7.6601314 C0.938609154,5.78683022 0.653317618,3.92546088 0.391800376,2.06409155 C0.368026082,1.83738631 0.10650884,1.49136252 0.605769028,1.40783954 C0.974270596,1.34818026 1.34277216,1.16920244 1.34277216,1.93284114" id="Fill-16" fill="#000000" mask="url(#mask-2)"></path>
                </g>
                <path d="M51.6194618,18.9343023 C53.3668725,18.9223704 54.7576687,20.4973752 54.781443,22.489995 C54.7933302,24.375228 53.4500825,25.8786417 51.7264461,25.9025054 C49.9790355,25.9144373 48.6120135,24.3990917 48.5882392,22.4303357 C48.5763521,20.4735115 49.8958255,18.958166 51.6194618,18.9343023 M49.6105339,22.322949 C49.5986468,23.7309079 50.5615057,24.9240933 51.7264461,24.9360252 C52.8081766,24.9479571 53.7591483,23.8382946 53.7591483,22.5377224 C53.7710355,21.1178317 52.8081766,19.9604418 51.631349,19.9485099 C50.50207,19.9365781 49.6224211,20.9627176 49.6105339,22.322949" id="Fill-19" fill="#000000"></path>
                <path d="M47.9938819,24.4706829 C47.6372675,26.2365974 46.4128913,27.250805 44.8319007,27.1553502 C43.322233,27.0479635 42.0859697,25.687732 41.9314367,23.969545 C41.788791,22.2632897 42.7754242,20.7002168 44.2494305,20.2826019 C45.6283396,19.9007825 47.0429101,20.5928301 47.5659446,21.8934023 C47.0191358,22.0962438 46.5911985,22.0843119 46.0800512,21.6189696 C44.9864336,20.6166938 43.3816687,21.3564688 43.00128,22.9434055 C42.6684399,24.3036369 43.4173302,25.7593232 44.617932,26.0934151 C45.3905966,26.3201203 46.2940198,26.0098921 46.6506342,25.2223897 C46.9478129,24.5661377 47.4114117,24.5303421 47.9938819,24.4706829" id="Fill-21" fill="#000000"></path>
                <g id="Group-25" transform="translate(36.404389, 24.160574)" fill="#E2001A">
                    <path d="M0.320477492,1.90897743 C0.308590345,0.942497203 0.962383448,0.214654066 1.8539195,0.190790357 C2.68601981,0.178858502 3.42302295,0.954429058 3.43491009,1.87318187 C3.44679724,2.81579839 2.7573427,3.56750524 1.87769379,3.57943709 C0.986157743,3.59136895 0.332364639,2.89932138 0.320477492,1.90897743" id="Fill-23"></path>
                </g>
            </g>
        </g>
    </g>
</svg>