<?xml version="1.0" encoding="UTF-8" standalone="no"?>
<svg width="90px" height="90px" viewBox="0 0 90 90" version="1.1" xmlns="http://www.w3.org/2000/svg" xmlns:xlink="http://www.w3.org/1999/xlink">
    <!-- Generator: Sketch 3.6.1 (26313) - http://www.bohemiancoding.com/sketch -->
    <title>aventura-recommend-02</title>
    <desc>Created with Sketch.</desc>
    <defs>
        <path id="path-1" d="M30.1806117,9.39223673 L30.1806117,0.058166325 L0.0492594006,0.058166325 L0.0492594006,9.39223673 L30.1806117,9.39223673 L30.1806117,9.39223673 Z"></path>
        <path id="path-3" d="M0.0498393123,11.6775562 L10.3115231,11.6775562 L10.3115231,0.206792129 L0.0498393123,0.206792129 L0.0498393123,11.6775562 L0.0498393123,11.6775562 Z"></path>
    </defs>
    <g id="kit" stroke="none" stroke-width="1" fill="none" fill-rule="evenodd">
        <g id="aventura-recommend-02">
            <g id="Page-1" transform="translate(8.000000, 33.000000)">
                <g id="Group-3" transform="translate(42.368429, 0.190344)">
                    <mask id="mask-2" fill="white">
                        <use xlink:href="#path-1"></use>
                    </mask>
                    <g id="Clip-2"></g>
                    <path d="M22.0281989,8.3049786 C22.2826601,8.31988612 22.5401298,8.35939105 22.818157,8.20807973 C22.5070373,8.10223635 22.2613506,8.15391575 22.0281989,8.3049786 M6.234552,4.73114948 C6.52611699,4.77835662 7.37248278,4.53809712 7.6414847,4.33287028 C7.71920194,4.27373712 7.76482948,4.17360829 7.82499766,4.09236231 C7.71719633,4.05260893 7.61190201,4.0029172 7.50084157,3.9770775 C7.44744231,3.96465457 7.37674469,3.98403434 7.32560173,4.01086788 C7.03829866,4.16217919 6.74999278,4.31299359 6.47196563,4.48020625 C6.38171335,4.53437024 6.32129447,4.63698366 6.234552,4.73114948 M19.2429134,5.45938177 C19.2489302,5.26384481 19.1213235,5.15501993 18.9410696,5.2218553 C18.6512595,5.32918944 18.3774943,5.48397917 18.1094952,5.63976274 C18.054341,5.67206236 18.0082121,5.83803274 18.0377948,5.8700839 C18.0994672,5.93691928 18.2320879,6.00822691 18.3042897,5.98462334 C18.5680269,5.89766281 18.8242431,5.78262646 19.0719354,5.65591255 C19.1559202,5.61317767 19.2055589,5.50435278 19.2429134,5.45938177 M23.0302498,7.5961261 C23.1979686,7.5961261 23.3656874,7.59587764 23.533657,7.59637455 C23.8843873,7.59736839 24.1478738,7.38766929 24.156147,7.04355407 C24.1626652,6.76776498 24.1225531,6.48675825 24.0679003,6.2149445 C24.0230249,5.99232555 23.8322416,5.8916998 23.6206501,5.99654935 C23.0650972,6.27184153 22.5138062,6.55905972 21.9795629,6.87286299 C20.9642248,7.46866681 19.9471318,8.05701688 18.7979195,8.37007477 C17.9182105,8.6095889 17.0400057,8.61629728 16.1675671,8.32684297 C15.7669472,8.19416605 15.4966918,7.95241579 15.4437939,7.51314091 C15.4154648,7.27983824 15.2665485,7.14517366 15.05245,7.05026246 C14.7736708,6.92677851 14.5101843,6.77049802 14.2334106,6.64279028 C14.1817663,6.61893825 14.0867507,6.64452949 14.0310951,6.67831987 C13.3238683,7.11014099 12.623661,7.55363967 11.9126737,7.97924932 C11.7319184,8.08732883 11.5238368,8.15888492 11.320017,8.22000575 C10.8973355,8.34696812 10.5328166,8.09403722 10.542594,7.65476234 C10.5498643,7.31909471 10.6265787,6.98491783 10.6727077,6.65024404 C10.679978,6.59757081 10.6930144,6.54539449 10.69502,6.49272126 C10.7055495,6.23010048 10.5937369,6.12649322 10.3545684,6.22985202 C9.87698343,6.43632115 9.40165478,6.65322555 8.94663289,6.9034234 C7.92653147,7.46469147 6.84425626,7.79514147 5.6769935,7.821975 C5.3846764,7.82868339 5.08508899,7.80011064 4.79929012,7.73923827 C4.38814086,7.65153237 4.19234356,7.33251148 4.13117257,6.95187283 C4.09431956,6.72254551 4.11412492,6.47657145 4.15122863,6.24475954 C4.20763631,5.89343901 4.12315015,5.72423868 3.76314385,5.69964127 C3.51495009,5.68274609 3.25321849,5.71479725 3.01354856,5.78138417 C2.88518977,5.81691375 2.75106486,5.95207525 2.68738686,6.07655303 C2.32086234,6.79211393 1.97614879,7.518607 1.6206551,8.23963398 C1.4885358,8.50772086 1.3571686,8.77680157 1.20750024,9.03544702 C1.05306857,9.30254006 0.699079086,9.44590069 0.431330668,9.37359923 C0.106923877,9.28589333 -0.0457528898,9.00637735 0.111687191,8.71568074 C0.453643036,8.08434733 0.817911249,7.46518839 1.17641334,6.84279949 C1.33585903,6.56626502 1.50758906,6.29668739 1.66603194,6.01940755 C1.80617367,5.77368195 1.79163302,5.6243583 1.58229789,5.43503282 C1.39953703,5.26980782 1.19245819,5.13141636 0.997663699,4.97935967 C0.929222389,4.92594106 0.861031781,4.87128016 0.799108692,4.81090471 C0.36314006,4.38628889 0.420049134,3.66874032 0.916687351,3.3102145 C1.09242859,3.18350059 1.22504929,3.20884338 1.32783661,3.40239266 C1.38349218,3.50724221 1.42786621,3.62053935 1.45895311,3.73483032 C1.56775724,4.1338549 1.86859816,4.31224821 2.2413902,4.3880281 C2.33465088,4.40691095 2.47328841,4.36119456 2.54523953,4.29560148 C2.68663476,4.1668999 2.81374005,4.01484321 2.91527386,3.85284818 C3.63403295,2.70770229 4.34351612,1.55684186 5.05876541,0.409459844 C5.24528678,0.110315638 5.47467798,0.0106837217 5.78404272,0.0785129312 C6.20371581,0.170442629 6.37695004,0.500147249 6.16535859,0.873083672 C5.98886525,1.18440235 5.77200909,1.47460205 5.55690783,1.7620687 C5.06528363,2.41899335 4.55636107,3.06299815 4.07050299,3.72389814 C3.91832762,3.93086419 3.79799126,4.16714836 3.69871375,4.40467483 C3.5836421,4.68021546 3.71225159,4.84792504 4.01334321,4.87972775 C4.39841959,4.92022651 4.71605746,4.84469508 5.01088156,4.54853238 C5.73640958,3.81880934 6.62188468,3.3318304 7.63070457,3.11169605 C8.00775852,3.02970469 8.42166548,3.03343157 8.80674186,3.08560789 C9.37182139,3.16238161 9.53051497,3.7067545 9.14192879,4.12938265 C8.65983121,4.6541273 8.06115778,4.99873944 7.3792517,5.19377948 C6.97562347,5.3095612 6.5619672,5.39254639 6.15006584,5.47751925 C5.72688295,5.56497669 5.48345251,5.82088909 5.38843692,6.22836127 C5.29592833,6.62514972 5.55038961,6.99659539 5.96103747,6.9869055 C6.31703255,6.97845791 6.68330637,6.92479084 7.02325661,6.82143205 C8.38832228,6.40625765 9.69998869,5.85617022 10.9645234,5.19899711 C11.1836358,5.08520305 11.381188,4.93041331 11.6005512,4.81761309 C11.7710277,4.72990719 11.9550421,4.65735727 12.1415635,4.61462238 C12.4391453,4.54629625 12.6795673,4.74854159 12.6344412,5.04495275 C12.603605,5.24893729 12.5110964,5.44869804 12.4193399,5.63727815 C12.300257,5.88176146 12.1423156,6.10761036 12.0264918,6.35333596 C11.9863797,6.43855728 12.0222299,6.55905972 12.0232327,6.66341235 C12.1355466,6.66018239 12.2842122,6.70167498 12.3541577,6.64602024 C12.6251652,6.43135198 12.8748632,6.18935326 13.1253133,5.95033604 C13.434678,5.65516718 13.7199755,5.33266786 14.0488949,5.06159948 C14.2256389,4.91575425 14.4633032,4.81860692 14.6894353,4.7617099 C14.9341193,4.70009215 15.0343996,4.80345095 15.047436,5.05861797 C15.056712,5.23775666 15.0411685,5.41788917 15.0429234,5.59752477 C15.0479374,6.16823427 15.4457995,6.482286 16.005113,6.35283905 C16.0632755,6.33917382 16.1144185,6.28277371 16.1610488,6.23829961 C16.7732601,5.65541563 17.4107922,5.10756433 18.2102769,4.78481655 C18.7688382,4.55946456 19.3411881,4.40989246 19.9516444,4.508779 C20.21839,4.5520108 20.4482826,4.66655023 20.5280055,4.94060012 C20.6074776,5.21440154 20.4969186,5.4489465 20.3016227,5.64622266 C19.8117534,6.14115228 19.2236094,6.48178908 18.5559933,6.6691269 C18.1465989,6.78391479 17.7191541,6.83460035 17.3002331,6.91708862 C17.1956909,6.93771069 17.0903966,6.96181118 16.9916205,7.00007381 C16.8334283,7.06119464 16.7374099,7.18144862 16.7489421,7.35313354 C16.7614772,7.53898061 16.8933458,7.64482399 17.0633209,7.66668835 C17.3085062,7.6982426 17.5574521,7.70768403 17.8048938,7.70992015 C19.0065025,7.72110079 20.0689724,7.27437215 21.0787951,6.69123972 C22.3177582,5.97543037 23.5391724,5.23005444 24.7703638,4.50132524 C25.0060226,4.36193994 25.2502051,4.23572295 25.4961426,4.11447513 C25.582885,4.07174024 25.685923,4.04391288 25.7826935,4.04093137 C26.0727543,4.03198686 26.2216706,4.25684193 26.0790218,4.50604595 C25.9982962,4.64667354 25.8859822,4.79177339 25.7508545,4.87575241 C25.170733,5.23552053 25.1499248,5.77343349 25.239425,6.35109984 C25.2637429,6.50713186 25.3061114,6.66241851 25.3580064,6.81174216 C25.4181746,6.98466938 25.5495418,7.10417798 25.7393223,7.07287219 C26.0857908,7.01547825 26.4380253,6.96056889 26.7697025,6.85075017 C27.5488804,6.59285009 28.3147713,6.2954451 29.0921943,6.03207894 C29.3087998,5.95853518 29.545712,5.92921706 29.7758553,5.91356416 C29.9536022,5.90163815 30.1105409,5.99630089 30.1644415,6.17419728 C30.2203478,6.35855359 30.1270871,6.51930634 29.962126,6.58713555 C29.5321742,6.76428656 29.1014703,6.95336359 28.6532173,7.06964223 C27.631361,7.33449914 26.5989752,7.55761501 25.5713528,7.80060756 C25.5036636,7.81675737 25.4154169,7.83986402 25.3813216,7.88980421 C25.1213449,8.2689521 24.7340122,8.46200447 24.3191025,8.6066074 C23.5760254,8.86599822 22.8123909,9.04886378 22.0199257,8.98575529 C21.7213411,8.96190326 21.4127285,8.86724051 21.1422224,8.73655127 C20.7390955,8.54200815 20.7473686,8.14720737 21.1329464,7.91465008 C21.5167693,7.6825897 21.9507323,7.62991647 22.3864503,7.59935606 C22.6000473,7.58444854 22.8153993,7.59687147 23.0302498,7.59687147 L23.0302498,7.5961261" id="Fill-1" fill="#006790" mask="url(#mask-2)"></path>
                </g>
                <path d="M11.2171545,2.4628463 C11.2279346,2.31874029 11.1256487,2.1654413 10.9499075,2.07077856 C10.7330513,1.95375454 10.5099277,1.84368736 10.2797844,1.75523608 C9.25015631,1.35869609 8.167129,1.3027929 7.07958907,1.26825714 C6.77097643,1.2583188 6.57893964,1.37559128 6.43729371,1.64094511 C6.05171593,2.36246901 5.64532999,3.07306073 5.26050431,3.79483309 C5.05141988,4.1876462 4.8623915,4.59163995 4.67862784,4.996876 C4.59865429,5.17303318 4.66358579,5.28086423 4.85461977,5.30769776 C4.97721245,5.32508987 5.10782755,5.31713919 5.23092162,5.29676558 C6.80055912,5.03662938 8.28696396,4.52157462 9.706181,3.81893357 C10.122595,3.6127129 10.5124347,3.34884982 10.8967589,3.08598058 C11.0787677,2.9615028 11.1991041,2.76596584 11.2171545,2.4628463 M7.30772677,0.350450916 C8.5291409,0.397161141 9.99749529,0.509215989 11.4249855,0.913458201 C11.7100322,0.99420726 11.992572,1.12365421 12.2402643,1.28515233 C12.8940919,1.71101045 12.9708064,2.57167119 12.4222731,3.1326908 C11.9444374,3.62165741 11.343257,3.93695143 10.7611298,4.28007282 C9.46801527,5.04209547 8.03099848,5.41776494 6.60576463,5.82921246 C6.51801936,5.85455524 6.44656964,5.93679505 6.3675989,5.99244978 C6.43829651,6.07170809 6.49395208,6.19320437 6.58169735,6.22326786 C7.16282173,6.42203478 7.74921082,6.6051488 8.33635201,6.78627515 C9.81623864,7.24219676 11.2976295,7.69364611 12.7775161,8.14956772 C12.8855681,8.18286118 12.9943722,8.22435377 13.0898892,8.28274156 C13.3982512,8.47057629 13.3904795,8.82587215 13.0778556,9.00575621 C12.6672077,9.24228884 12.2540529,9.26092323 11.8123181,9.06662857 C9.94635233,8.24696351 8.01445223,7.60469792 6.06550447,7.01237251 C5.40365445,6.81112101 4.71873996,6.72142744 4.02580304,6.70875605 C3.66755165,6.70229613 3.40231024,6.84814135 3.21829587,7.16616841 C2.79511298,7.89688528 2.35789085,8.61940302 1.92292502,9.3434115 C1.82841083,9.50043737 1.69303241,9.56950887 1.49773652,9.52155635 C1.11667135,9.42838436 0.95898057,9.21123151 1.12318957,8.85071801 C1.32249668,8.41268543 1.54862877,7.97142288 1.84470638,7.59451111 C2.8354758,6.3335835 3.59083721,4.93575517 4.33040447,3.52774004 C4.61695545,2.98162795 4.87141673,2.41812374 5.12086399,1.85412262 C5.25925081,1.54081628 5.17601816,1.43969361 4.82679199,1.43248831 C4.03432687,1.4163385 3.26918813,1.57137669 2.51959284,1.80940007 C1.95351051,1.98903567 1.3926929,2.18581491 0.827111967,2.36743818 C0.708279804,2.40545235 0.579419611,2.42160217 0.454319928,2.42855901 C0.280834998,2.43824889 0.136180656,2.36594743 0.0529480018,2.21215153 C-0.0363014709,2.04792037 -0.0107299928,1.8662971 0.114871091,1.74902462 C0.282088502,1.59324105 0.47136758,1.42677376 0.682206925,1.35770226 C1.36636932,1.13384102 2.05704993,0.918924292 2.75901207,0.76164997 C4.17045738,0.445113659 5.60998118,0.36809148 7.30772677,0.350450916" id="Fill-4" fill="#006790"></path>
                <path d="M21.4825236,7.14748432 C20.9284749,7.24984928 20.3977414,7.35569267 19.8642501,7.44488932 C18.9775215,7.59321913 18.0882859,7.71049161 17.1842589,7.66875056 C16.5590112,7.6396809 16.2060246,7.37308477 16.094212,6.76361572 C15.9981936,6.23862261 15.7637884,6.12234396 15.2541137,6.36757264 C14.5075269,6.72634692 13.7657033,7.09605338 13.0108433,7.43743556 C12.7721762,7.54551507 12.5014193,7.59421296 12.2399384,7.64092319 C11.9300723,7.69657793 11.7066979,7.48439424 11.7946939,7.18525004 C11.9075092,6.80063606 12.0421355,6.41005907 12.2426961,6.06519847 C12.8351021,5.04651804 13.5513541,4.1167858 14.457136,3.34706092 C14.5910102,3.23326686 14.7777823,3.14431867 14.9507658,3.12046664 C15.2428322,3.08021634 15.4265959,3.27227487 15.4391309,3.57017678 C15.4489082,3.8007464 15.3626672,3.99702873 15.2104918,4.16921057 C14.7634923,4.67432699 14.3157408,5.17869804 13.8747581,5.68903209 C13.7529176,5.82965968 13.6433613,5.98320712 13.5490978,6.14296603 C13.5119941,6.20607453 13.5325516,6.30197956 13.5267855,6.38297708 C13.6072604,6.38446783 13.7002704,6.41304057 13.7667061,6.38322554 C14.7988412,5.9250678 15.8327311,5.47038848 16.8533339,4.98813026 C17.1459017,4.84998725 17.3900843,4.61494537 17.6698663,4.44574504 C18.4588216,3.96920136 19.2994213,3.87453862 20.1796317,4.15206692 C20.2926977,4.18784497 20.4032568,4.24225741 20.5030357,4.30635974 C20.7620096,4.47257857 20.8008682,4.70414203 20.6231213,4.95359451 C20.4426168,5.20702232 20.1179593,5.32677939 19.8043326,5.25273871 C19.7200972,5.23261356 19.630597,5.21720913 19.5558882,5.17695883 C18.863202,4.80476778 17.7984758,5.1734804 17.3920899,5.92308013 C17.1940363,6.28831434 17.2983278,6.65503929 17.7074714,6.73255839 C18.1429387,6.81504666 18.6097435,6.87591903 19.0417009,6.81007749 C20.0109101,6.66224459 20.9675842,6.43117806 21.9287709,6.23191422 C22.3441821,6.14569907 22.6430174,5.90370036 22.8872,5.5628151 C23.7185237,4.40276169 24.5601262,3.25016205 25.4034836,2.0988047 C25.5749629,1.86500511 25.7354114,1.61431034 26.0563084,1.53778508 C26.2483451,1.49206869 26.4213287,1.50498854 26.5642281,1.63418703 C26.7113895,1.76736087 26.6675168,1.94227575 26.6063458,2.09855624 C26.418571,2.57832988 26.0823812,2.9614531 25.7512055,3.34532171 C25.4679137,3.67378403 25.1713346,3.99156264 24.8827781,4.31580117 C24.8343928,4.37021361 24.7767316,4.42860139 24.7589319,4.49444293 C24.7371209,4.57643429 24.7170649,4.70414203 24.7609375,4.74662846 C24.8130833,4.79706556 24.9479603,4.81321537 25.0226691,4.78364879 C25.8492295,4.45891335 26.6823082,4.14958234 27.4524609,3.69689069 C27.6535229,3.57887283 27.8962013,3.52172735 28.1265953,3.46408494 C28.2669877,3.42905227 28.4108899,3.47352637 28.4891086,3.61788084 C28.5685807,3.76447144 28.585127,3.93168411 28.4637878,4.04572662 C28.2925592,4.20697628 28.1072913,4.38064887 27.8941957,4.46587019 C27.3624593,4.67830233 26.810667,4.84079428 26.2689026,5.02912593 C26.0111822,5.1188195 25.7479464,5.20255007 25.5067723,5.32653093 C25.3831768,5.39013634 25.2325056,5.52827935 25.2187171,5.64704258 C25.1981596,5.82220592 25.3962132,5.88978667 25.5501435,5.94171453 C26.6259005,6.30496107 27.7036631,6.66249305 28.7781666,7.02921801 C29.2141352,7.17804474 29.6455912,7.34003977 30.0745402,7.50774936 C30.2096679,7.56067105 30.3395309,7.63893552 30.4546026,7.7273868 C30.712323,7.92590525 30.7940514,8.18976833 30.6832417,8.40567889 C30.5644095,8.63823618 30.2996695,8.75078795 29.9860429,8.64395073 C29.5568431,8.49785705 29.1336603,8.32890517 28.7215082,8.14057352 C27.1929856,7.44165936 25.607554,6.90598252 23.9792525,6.49130505 C23.5207208,6.37452949 23.4938958,6.3762687 23.2341698,6.7673426 C22.9578976,7.18301391 22.7189798,7.62253725 22.4474708,8.04119006 C22.2642086,8.323936 22.0313076,8.56717701 21.6988783,8.6819649 C21.4820222,8.75699941 21.2368368,8.83451851 21.0580872,8.63947848 C20.8783347,8.44344461 20.9131821,8.17883615 21.0134624,7.95944717 C21.1395649,7.68340962 21.3160583,7.43023026 21.4825236,7.14748432" id="Fill-6" fill="#006790"></path>
                <path d="M34.7932551,8.89705555 C34.1507091,8.84463078 33.3028391,8.7777954 32.4554705,8.70524548 C32.1749363,8.68114499 31.954821,8.54523811 31.7715588,8.3320606 C31.5389085,8.06148913 31.5855388,7.67389365 31.9222299,7.55836038 C32.2050204,7.46146151 32.5276723,7.40704907 32.8234992,7.43313723 C33.608694,7.50270565 34.390379,7.61625125 35.1708105,7.7300453 C36.6484408,7.94570741 38.1198036,8.01428199 39.5741187,7.58593929 C39.9762428,7.46767298 40.348032,7.28604971 40.6511292,6.98939009 C40.8451716,6.79931923 40.8702417,6.63856649 40.7047792,6.42563743 C40.6007384,6.29171822 40.46536,6.17295499 40.3227112,6.0785407 C39.500162,5.53342244 38.5658002,5.24719808 37.6346976,4.95053846 C36.5343719,4.59996332 35.4383082,4.23547449 34.3419937,3.87222795 C34.2166434,3.83073536 34.091293,3.77309295 33.9834916,3.6983069 C33.6119531,3.44040683 33.5309768,3.02746857 33.7819282,2.65229602 C34.0860283,2.1976167 34.5415515,1.92058531 35.0259054,1.70392937 C36.0530265,1.24452934 37.1180033,0.883767394 38.2351259,0.718790855 C39.1419106,0.585120105 40.0557149,0.492196572 40.9687671,0.410702137 C41.264594,0.384365521 41.5719531,0.433063415 41.8682814,0.481761309 C42.2909629,0.55108127 42.6572367,0.736679877 42.8116684,1.1642772 C42.9706127,1.60454592 42.7750661,1.97151933 42.4917742,2.2955094 C42.2821884,2.53527199 42.0187019,2.70149083 41.7078329,2.79640203 C41.5381085,2.84808143 41.3871867,2.84857834 41.2658475,2.71291992 C41.1364859,2.56856545 41.1344803,2.39613515 41.2079356,2.22743174 C41.2470449,2.13748971 41.311475,2.05773448 41.3686348,1.97648851 C41.5882487,1.66492137 41.5165483,1.41199047 41.1379901,1.34465818 C40.7727191,1.28005893 40.3888962,1.24949852 40.0203661,1.28279197 C38.7931858,1.39459836 37.5772871,1.59237144 36.3982414,1.95760565 C36.0447533,2.06717591 35.7005412,2.22892249 35.3803963,2.41476955 C35.0038438,2.6331647 35.0306687,2.97156537 35.4410659,3.11641676 C35.8730233,3.26921883 36.329048,3.3546886 36.7745433,3.47047033 C37.9440623,3.77408679 39.134891,4.01683088 40.2402307,4.51747505 C40.7238324,4.73686403 41.1685756,5.04197124 41.6243496,5.31900263 C42.1678689,5.64945263 42.2508508,6.58986859 41.8690335,7.08355592 C41.3152355,7.79911681 40.5779246,8.23690094 39.7147619,8.41330657 C38.8325459,8.59343909 37.9302738,8.68760491 37.0325144,8.77928615 C36.3596335,8.84786074 35.6799837,8.85307837 34.7932551,8.89705555" id="Fill-8" fill="#006790"></path>
                <path d="M16.8674484,0.901407957 C17.2725808,0.905134837 17.4062043,1.1096163 17.2530262,1.41397814 C17.1078704,1.70219016 16.8897608,1.9218276 16.5826523,2.04183313 C16.3617849,2.12804828 16.1150954,2.08382264 16.014063,1.92928136 C15.8937266,1.74492505 15.9656777,1.56752558 16.0840085,1.41546889 C16.2976055,1.14042517 16.5550752,0.925011528 16.8674484,0.901407957" id="Fill-10" fill="#FFFFFF"></path>
                <path d="M70.72765,8.47258881 C70.7294049,8.78713745 70.9575426,9.02367008 71.2606398,9.02540929 C71.5552132,9.02690004 71.7853565,8.77918677 71.7833509,8.46314738 C71.7813453,8.15232561 71.5431796,7.90436389 71.249609,7.90709693 C70.9540328,7.90982998 70.7258951,8.15679787 70.72765,8.47258881 M71.2513639,9.14541481 C70.8605214,9.14541481 70.5661987,8.85372436 70.565948,8.4666258 C70.565948,8.0857387 70.8687945,7.78634603 71.2538709,7.78659449 C71.6439613,7.78684295 71.9380333,8.08027261 71.9372812,8.46836501 C71.9367798,8.86092966 71.6482232,9.14566327 71.2513639,9.14541481" id="Fill-12" fill="#FFFFFF"></path>
                <path d="M71.1364328,8.39566601 C71.1506711,8.41653654 71.1649095,8.43740706 71.1791478,8.45827759 C71.2424838,8.40858586 71.3058198,8.35914259 71.3691558,8.30969932 C71.3050833,8.25901376 71.2410109,8.20807973 71.1364328,8.12534301 L71.1364328,8.39566601 Z M71.5284778,8.85804754 C71.2650687,8.91593841 71.4474666,8.43343172 71.1278407,8.56884168 C71.1278407,8.62673255 71.1349599,8.69977939 71.1246494,8.77009318 C71.1197396,8.8036351 71.0814434,8.83220785 71.0583675,8.86301672 C71.0384829,8.83494089 71.0021506,8.80711352 71.0014142,8.77878924 C70.9965044,8.57927695 70.9969954,8.37976466 71.0006777,8.18025237 C71.0011687,8.15292191 71.0215442,8.11714387 71.0438837,8.1007456 C71.1337324,8.0346556 71.4231633,8.08012353 71.4847809,8.17230169 C71.5088387,8.20783128 71.5353515,8.2761574 71.5189038,8.29926406 C71.3851126,8.48685033 71.5392793,8.66300751 71.5284778,8.85804754 L71.5284778,8.85804754 Z" id="Fill-14" fill="#FFFFFF"></path>
                <path d="M0.279481214,22.8456977 L0.279481214,11.5776013 L8.3252209,11.5776013 L8.3252209,13.6892513 L2.69999711,13.6892513 L2.69999711,16.0545776 L8.20588733,16.0545776 L8.20588733,18.1662276 L2.69999711,18.1662276 L2.69999711,20.7340477 L8.3252209,20.7340477 L8.3252209,22.8456977 L0.279481214,22.8456977 Z" id="Fill-16" fill="#FDB813"></path>
                <g id="Group-20" transform="translate(11.532235, 11.370983)">
                    <mask id="mask-4" fill="white">
                        <use xlink:href="#path-3"></use>
                    </mask>
                    <g id="Clip-19"></g>
                    <path d="M0.0498393123,6.96412185 L0.0498393123,0.206792129 L2.50445051,0.206792129 L2.50445051,6.89678955 C2.50445051,8.46779355 3.42477303,9.54883711 5.18068119,9.54883711 C6.93633866,9.54883711 7.83986422,8.46779355 7.83986422,6.89678955 L7.83986422,0.206792129 L10.3115231,0.206792129 L10.3115231,6.96412185 C10.3115231,9.75157936 8.64110386,11.6776308 5.18068119,11.6776308 C1.72025852,11.6776308 0.0498393123,9.75157936 0.0498393123,6.96412185" id="Fill-18" fill="#FDB813" mask="url(#mask-4)"></path>
                </g>
                <path d="M32.1236179,15.1929727 C32.1236179,14.2637374 31.3905688,13.689301 30.436151,13.689301 L27.8792539,13.689301 L27.8792539,16.7301863 L30.436151,16.7301863 C31.3905688,16.7301863 32.1236179,16.15575 32.1236179,15.1929727 L32.1236179,15.1929727 Z M31.8852014,22.8457474 L29.651959,18.8420848 L27.8792539,18.8420848 L27.8792539,22.8457474 L25.458738,22.8457474 L25.458738,11.577651 L30.7771041,11.577651 C33.146477,11.577651 34.6123244,13.1151131 34.6123244,15.2098679 C34.6123244,17.1863564 33.3340012,18.2676484 32.1065702,18.5546182 L34.680515,22.8457474 L31.8852014,22.8457474 Z" id="Fill-21" fill="#FDB813"></path>
                <path d="M46.6309692,17.2201965 C46.6309692,15.1085465 45.2842047,13.5203988 43.1875942,13.5203988 C41.0739361,13.5203988 39.7274222,15.1085465 39.7274222,17.2201965 C39.7274222,19.3149513 41.0739361,20.9199941 43.1875942,20.9199941 C45.2842047,20.9199941 46.6309692,19.3149513 46.6309692,17.2201965 M37.238465,17.2201965 C37.238465,13.8245122 39.7442192,11.3918536 43.1875942,11.3918536 C46.6139216,11.3918536 49.1196757,13.8245122 49.1196757,17.2201965 C49.1196757,20.6158808 46.6139216,23.0485393 43.1875942,23.0485393 C39.7442192,23.0485393 37.238465,20.6158808 37.238465,17.2201965" id="Fill-23" fill="#FDB813"></path>
                <path d="M58.8543614,15.2099673 C58.8543614,14.2635883 58.1213124,13.6894004 57.1668946,13.6894004 L54.6097468,13.6894004 L54.6097468,16.7133905 L57.1668946,16.7133905 C58.1213124,16.7133905 58.8543614,16.1389542 58.8543614,15.2099673 L58.8543614,15.2099673 Z M52.1892309,22.8455983 L52.1892309,11.5777504 L57.5075969,11.5777504 C59.9792558,11.5777504 61.3257696,13.2332303 61.3257696,15.2099673 C61.3257696,17.1695606 59.9622081,18.8250405 57.5075969,18.8250405 L54.6097468,18.8250405 L54.6097468,22.8455983 L52.1892309,22.8455983 Z" id="Fill-25" fill="#FDB813"></path>
                <path d="M64.2077002,22.8456977 L64.2077002,11.5776013 L72.2534399,11.5776013 L72.2534399,13.6892513 L66.6282161,13.6892513 L66.6282161,16.0545776 L72.1341064,16.0545776 L72.1341064,18.1662276 L66.6282161,18.1662276 L66.6282161,20.7340477 L72.2534399,20.7340477 L72.2534399,22.8456977 L64.2077002,22.8456977 Z" id="Fill-27" fill="#FDB813"></path>
                <path d="M72.0045693,2.24373062 C72.0246253,2.3982719 71.9659613,2.52150739 71.9060439,2.64300366 C71.6666246,3.12774647 71.3226632,3.51434812 70.833546,3.76529135 C70.708697,3.82939368 70.5785833,3.85796643 70.4386923,3.84454966 C70.2037857,3.82169146 70.0739227,3.63087523 70.2190784,3.45769955 C70.6392529,2.95581309 70.9473641,2.3724322 71.3993776,1.89514315 C71.5412742,1.74557104 71.6871821,1.82209631 71.8220591,1.87476954 C71.988023,1.93961724 72.02989,2.08869243 72.0045693,2.24373062" id="Fill-29" fill="#FFFFFF"></path>
            </g>
        </g>
    </g>
</svg>