<?xml version="1.0" encoding="UTF-8" standalone="no"?>
<svg width="90px" height="90px" viewBox="0 0 90 90" version="1.1" xmlns="http://www.w3.org/2000/svg" xmlns:xlink="http://www.w3.org/1999/xlink">
    <!-- Generator: Sketch 3.6.1 (26313) - http://www.bohemiancoding.com/sketch -->
    <title>aventura-recommend-06</title>
    <desc>Created with Sketch.</desc>
    <defs></defs>
    <g id="kit" stroke="none" stroke-width="1" fill="none" fill-rule="evenodd">
        <g id="aventura-recommend-06">
            <g id="Page-1" transform="translate(19.000000, 22.000000)">
                <path d="M10.7512209,17.9789237 C10.7512209,19.1879185 11.691635,20.1629144 12.835382,20.1629144 C13.9918372,20.1629144 14.9322513,19.1879185 14.9322513,17.9789237 C14.9322513,16.7699288 13.9918372,15.781933 12.835382,15.781933 C11.691635,15.781933 10.7512209,16.7699288 10.7512209,17.9789237" id="Fill-1" fill="#D9282F"></path>
                <path d="M35.9009446,17.9789237 C35.9009446,19.1879185 36.8413587,20.1629144 37.9978139,20.1629144 C39.1415608,20.1629144 40.0819749,19.1879185 40.0819749,17.9789237 C40.0819749,16.7699288 39.1415608,15.781933 37.9978139,15.781933 C36.8413587,15.781933 35.9009446,16.7699288 35.9009446,17.9789237" id="Fill-3" fill="#0F9E4E"></path>
                <path d="M8.47643541,13.4029431 C7.3199802,14.6249379 6.67185695,16.249931 6.67185695,17.9789237 C6.67185695,19.7079163 7.3199802,21.3329094 8.47643541,22.5419043 C9.64559891,23.7638991 11.1960114,24.4398962 12.835382,24.4398962 C16.2412061,24.4398962 19.0116152,21.5409085 19.0116152,17.9789237 C19.0116152,14.4169388 16.2412061,11.5049512 12.835382,11.5049512 C11.1960114,11.5049512 9.64559891,12.1809483 8.47643541,13.4029431 M9.8108068,21.1509102 C9.01018396,20.3059138 8.5653935,19.1749186 8.5653935,17.9789237 C8.5653935,16.7829287 9.01018396,15.6519335 9.8108068,14.8069371 C10.6241379,13.9619407 11.7043433,13.4939427 12.835382,13.4939427 C15.1991256,13.4939427 17.1180787,15.5089342 17.1180787,17.9789237 C17.1180787,20.4489132 15.1991256,22.4639046 12.835382,22.4639046 C11.7043433,22.4639046 10.6241379,21.9959066 9.8108068,21.1509102" id="Fill-5" fill="#000000"></path>
                <path d="M33.626159,13.4029431 C32.4697038,14.6249379 31.8215806,16.249931 31.8215806,17.9789237 C31.8215806,19.7079163 32.4697038,21.3329094 33.626159,22.5419043 C34.7953226,23.7638991 36.345735,24.4398962 37.9978139,24.4398962 C41.3909297,24.4398962 44.1613389,21.5409085 44.1613389,17.9789237 C44.1613389,14.4169388 41.3909297,11.5049512 37.9978139,11.5049512 C36.345735,11.5049512 34.7953226,12.1809483 33.626159,13.4029431 M34.9732387,21.1509102 C34.1599076,20.3059138 33.7151171,19.1749186 33.7151171,17.9789237 C33.7151171,16.7829287 34.1599076,15.6519335 34.9732387,14.8069371 C35.7738616,13.9619407 36.854067,13.4939427 37.9978139,13.4939427 C40.3488492,13.4939427 42.2678023,15.5089342 42.2678023,17.9789237 C42.2678023,20.4489132 40.3488492,22.4639046 37.9978139,22.4639046 C36.854067,22.4639046 35.7738616,21.9959066 34.9732387,21.1509102" id="Fill-7" fill="#000000"></path>
                <path d="M47.9357037,9.47695976 C48.418619,7.95596622 49.1557004,6.18797373 50.1723643,5.10897831 L41.7467621,5.10897831 C41.6069708,5.06997847 41.4671795,5.03097864 41.3273882,4.9919788 C40.8698895,4.23798201 37.7309396,0 25.2005568,0 C11.4501774,0 9.01018396,5.10897831 9.01018396,5.10897831 L0.216041082,5.10897831 C1.34707969,6.29197328 2.12228593,8.30696473 2.60520129,9.90595794 C0.97853902,12.1549484 0,14.9499365 0,17.9789237 C0,25.4018921 5.76956773,31.4338665 12.835382,31.4338665 C16.7622463,31.4338665 20.2824451,29.5748744 22.6334804,26.6498868 L25.5436809,30.9398686 L28.0599241,26.4938875 C30.4109594,29.5098747 33.9946997,31.4338665 37.9978139,31.4338665 C45.0636281,31.4338665 50.8331958,25.4018921 50.8331958,17.9789237 C50.8331958,14.7549374 49.7402821,11.7909499 47.9357037,9.47695976 M12.835382,28.7948777 C7.15477231,28.7948777 2.52895149,23.9458983 2.52895149,17.9789237 C2.52895149,12.011949 7.15477231,7.16296959 12.835382,7.16296959 C18.5286999,7.16296959 23.1545207,12.011949 23.1545207,17.9789237 C23.1545207,23.9458983 18.5286999,28.7948777 12.835382,28.7948777 M37.9978139,28.7948777 C32.304496,28.7948777 27.6786751,23.9458983 27.6786751,17.9789237 C27.6786751,12.011949 32.304496,7.16296959 37.9978139,7.16296959 C43.6784235,7.16296959 48.3042443,12.011949 48.3042443,17.9789237 C48.3042443,23.9458983 43.6784235,28.7948777 37.9978139,28.7948777" id="Fill-9" fill="#000000"></path>
                <path d="M25.9884714,1.54699343 C34.769906,1.54699343 38.0740637,5.38197715 38.0740637,5.38197715 C38.0740637,5.38197715 28.6826308,3.7439841 25.5436809,15.8729326 C22.4174394,3.7439841 13.0132981,5.38197715 13.0132981,5.38197715 C13.0132981,5.38197715 16.3174559,1.54699343 25.1115987,1.54699343 L25.9884714,1.54699343 Z" id="Fill-11" fill="#FCDC9B"></path>
                <path d="M25.9884714,1.54699343 C34.769906,1.54699343 38.0740637,5.38197715 38.0740637,5.38197715 C38.0740637,5.38197715 28.6826308,3.7439841 25.5436809,15.8729326 C22.4174394,3.7439841 13.0132981,5.38197715 13.0132981,5.38197715 C13.0132981,5.38197715 16.3174559,1.54699343 25.1115987,1.54699343 L25.9884714,1.54699343 L25.9884714,1.54699343 Z" id="Stroke-13" stroke="#000000" stroke-width="0.75" stroke-linecap="round" stroke-linejoin="round"></path>
                <path d="M5.14686108,36.3738456 L5.14686108,37.7648397 L6.40498268,37.7648397 L6.40498268,38.5708362 L5.14686108,38.5708362 L5.14686108,41.7038229 C5.14686108,42.4188199 5.31206897,42.8218182 5.80769262,42.8218182 C6.03644201,42.8218182 6.17623329,42.7958183 6.30331628,42.7568185 L6.35414948,43.562815 C6.17623329,43.6278148 5.90935902,43.7058144 5.57894324,43.7058144 C5.17227768,43.7058144 4.8418619,43.5368151 4.63852912,43.2638163 C4.39707144,42.9388177 4.29540505,42.4188199 4.29540505,41.7298228 L4.29540505,38.5708362 L3.55832371,38.5708362 L3.55832371,37.7648397 L4.29540505,37.7648397 L4.29540505,36.6988442 L5.14686108,36.3738456 Z" id="Fill-15" fill="#000000"></path>
                <path d="M7.18018891,39.5848319 C7.18018891,38.8958349 7.16748061,38.3108373 7.14206402,37.7648397 L7.90456195,37.7648397 L7.94268685,38.9088348 L7.98081175,38.9088348 C8.19685283,38.1288381 8.73060139,37.6348402 9.31518314,37.6348402 C9.40414123,37.6348402 9.46768273,37.6478402 9.55664082,37.67384 L9.55664082,38.6618358 C9.45497443,38.6488359 9.36601633,38.635836 9.25164164,38.635836 C8.62893499,38.635836 8.19685283,39.1948336 8.06976984,39.9748303 C8.05706154,40.1308296 8.04435324,40.2998289 8.04435324,40.4818281 L8.04435324,43.562815 L7.16748061,43.562815 L7.18018891,39.5848319 Z" id="Fill-17" fill="#000000"></path>
                <path d="M10.6622628,36.6988442 C10.3318471,36.6988442 10.115806,36.3868455 10.115806,36.022847 C10.115806,35.6458487 10.3445554,35.3468499 10.6876794,35.3468499 C11.0180952,35.3468499 11.2341363,35.6458487 11.2341363,36.022847 C11.2341363,36.3868455 11.0180952,36.6988442 10.6749711,36.6988442 L10.6622628,36.6988442 Z M10.242889,43.562815 L11.1197616,43.562815 L11.1197616,37.7648397 L10.242889,37.7648397 L10.242889,43.562815 Z" id="Fill-19" fill="#000000"></path>
                <path d="M12.3651749,39.6628316 C12.3651749,38.9218347 12.3524666,38.3238373 12.32705,37.7648397 L13.1022562,37.7648397 L13.1530894,38.7658354 L13.178506,38.7658354 C13.5216301,38.0508384 14.0935035,37.6348402 14.8687098,37.6348402 C16.0378733,37.6348402 16.9147459,38.8178352 16.9147459,40.5858277 C16.9147459,42.6658188 15.8472488,43.7058144 14.7289185,43.7058144 C14.0807952,43.7058144 13.5470467,43.3678159 13.2547558,42.7958183 L13.2293392,42.7958183 L13.2293392,45.9418049 L12.3651749,45.9418049 L12.3651749,39.6628316 Z M13.2293392,41.209825 C13.2293392,41.3528244 13.2420475,41.5088238 13.2674641,41.6388232 C13.4199637,42.3668201 13.9537123,42.873818 14.5764189,42.873818 C15.4914164,42.873818 16.025165,41.9638218 16.025165,40.6378275 C16.025165,39.4678324 15.5295413,38.4798366 14.6145438,38.4798366 C14.0172538,38.4798366 13.4453803,38.9738345 13.2801724,39.7668312 C13.2674641,39.9098305 13.2293392,40.0658299 13.2293392,40.1958293 L13.2293392,41.209825 Z" id="Fill-21" fill="#000000"></path>
                <path d="M21.1847344,42.1848209 C21.1847344,42.6788188 21.1974427,43.1728167 21.2482759,43.562815 L20.4603613,43.562815 L20.3841115,42.8348181 L20.3586949,42.8348181 C20.0918207,43.2898162 19.5707804,43.7058144 18.8845323,43.7058144 C17.9187015,43.7058144 17.4230779,42.873818 17.4230779,42.0288215 C17.4230779,40.6378275 18.4524501,39.8708307 20.3078617,39.8838307 L20.3078617,39.7538312 C20.3078617,39.2728333 20.193487,38.4018369 19.214948,38.4148369 C18.7574493,38.4148369 18.2872422,38.5708362 17.9568264,38.8438351 L17.7534936,38.1418381 C18.1474509,37.8428393 18.744741,37.6348402 19.342031,37.6348402 C20.8161937,37.6348402 21.1847344,38.8438351 21.1847344,40.0138301 L21.1847344,42.1848209 Z M20.32057,40.6118276 C19.3674476,40.5858277 18.2872422,40.7938268 18.2872422,41.911822 C18.2872422,42.6138191 18.6684912,42.9258177 19.1005733,42.9258177 C19.7359883,42.9258177 20.1426539,42.4448198 20.2824451,41.9508219 C20.32057,41.8468223 20.32057,41.7168229 20.32057,41.6128233 L20.32057,40.6118276 Z" id="Fill-23" fill="#000000"></path>
                <path d="M26.5095116,35.0608511 L26.5095116,42.0678214 C26.5095116,42.5878192 26.5222199,43.1728167 26.5603448,43.562815 L25.7724303,43.562815 L25.7343054,42.5618193 L25.7088888,42.5618193 C25.4420145,43.2118165 24.8701411,43.7058144 24.0822265,43.7058144 C22.9257713,43.7058144 22.0234821,42.5098195 22.0234821,40.754827 C22.0107738,38.8178352 23.0147294,37.6348402 24.1711846,37.6348402 C24.9209743,37.6348402 25.4165979,38.0508384 25.6199307,38.5188365 L25.6453473,38.5188365 L25.6453473,35.0608511 L26.5095116,35.0608511 Z M25.6453473,40.1308296 C25.6453473,39.9878302 25.632639,39.8188309 25.6072224,39.6758315 C25.4674311,39.0128344 24.9972241,38.4668367 24.3491008,38.4668367 C23.4341033,38.4668367 22.9003547,39.4288326 22.9003547,40.6898272 C22.9003547,41.8728222 23.3959784,42.8478181 24.3236842,42.8478181 C24.908266,42.8478181 25.4420145,42.3668201 25.6072224,41.5868234 C25.632639,41.443824 25.6453473,41.3008246 25.6453473,41.1318254 L25.6453473,40.1308296 Z" id="Fill-25" fill="#000000"></path>
                <path d="M28.0853407,37.7648397 L29.0257548,41.0148259 C29.1782544,41.5608235 29.3180457,42.0288215 29.4070038,42.5098195 L29.4451287,42.5098195 C29.5467951,42.0288215 29.6865864,41.5608235 29.8517943,41.0148259 L30.7795001,37.7648397 L31.6944976,37.7648397 L29.8136694,43.562815 L28.9749216,43.562815 L27.1449266,37.7648397 L28.0853407,37.7648397 Z" id="Fill-27" fill="#000000"></path>
                <path d="M32.7238698,36.6988442 C32.3934541,36.6988442 32.177413,36.3868455 32.177413,36.022847 C32.177413,35.6458487 32.4061623,35.3468499 32.7492864,35.3468499 C33.0797022,35.3468499 33.2957433,35.6458487 33.2957433,36.022847 C33.2957433,36.3868455 33.0797022,36.6988442 32.7365781,36.6988442 L32.7238698,36.6988442 Z M32.304496,43.562815 L33.1813686,43.562815 L33.1813686,37.7648397 L32.304496,37.7648397 L32.304496,43.562815 Z" id="Fill-29" fill="#000000"></path>
                <path d="M34.2996989,42.4968196 C34.5665732,42.6918187 35.0240719,42.9128178 35.4561541,42.9128178 C36.091569,42.9128178 36.3838599,42.5358194 36.3838599,42.0418215 C36.3838599,41.5478236 36.1424022,41.2618248 35.5069873,40.975826 C34.6301147,40.5988276 34.2234491,40.03983 34.2234491,39.337833 C34.2234491,38.4018369 34.858864,37.6348402 35.875528,37.6348402 C36.3711516,37.6348402 36.7905255,37.7908395 37.0446915,37.9988387 L36.8413587,38.7528355 C36.6507342,38.622836 36.3076101,38.4148369 35.8628197,38.4148369 C35.3417794,38.4148369 35.0621968,38.7788353 35.0621968,39.2078335 C35.0621968,39.7018314 35.3417794,39.9098305 35.9644861,40.1958293 C36.7905255,40.5728277 37.2226077,41.0798256 37.2226077,41.9508219 C37.2226077,42.9778175 36.5617761,43.7058144 35.4434458,43.7058144 C34.9224055,43.7058144 34.4267819,43.5368151 34.0963661,43.2898162 L34.2996989,42.4968196 Z" id="Fill-31" fill="#000000"></path>
                <path d="M40.0946832,43.7058144 C38.811145,43.7058144 37.7944811,42.5488193 37.7944811,40.7158271 C37.7944811,38.7788353 38.8492699,37.6348402 40.170933,37.6348402 C41.5561376,37.6348402 42.4838434,38.8438351 42.4838434,40.6118276 C42.4838434,42.7698184 41.2511384,43.7058144 40.1073915,43.7058144 L40.0946832,43.7058144 Z M40.1200998,42.9128178 C40.9588475,42.9128178 41.5815542,41.9638218 41.5815542,40.6508274 C41.5815542,39.6628316 41.1748886,38.4278368 40.1455164,38.4278368 C39.1288525,38.4278368 38.6713537,39.5848319 38.6713537,40.6768273 C38.6713537,41.9508219 39.2686438,42.9128178 40.1200998,42.9128178 L40.1200998,42.9128178 Z" id="Fill-33" fill="#000000"></path>
                <path d="M43.3861327,39.5848319 C43.3861327,38.8958349 43.3734244,38.3108373 43.3480078,37.7648397 L44.1105057,37.7648397 L44.1486306,38.9088348 L44.1867555,38.9088348 C44.4027966,38.1288381 44.9365451,37.6348402 45.5211269,37.6348402 C45.610085,37.6348402 45.6736265,37.6478402 45.7625846,37.67384 L45.7625846,38.6618358 C45.6609182,38.6488359 45.5719601,38.635836 45.4575854,38.635836 C44.8348787,38.635836 44.4027966,39.1948336 44.2757136,39.9748303 C44.2630053,40.1308296 44.250297,40.2998289 44.250297,40.4818281 L44.250297,43.562815 L43.3734244,43.562815 L43.3861327,39.5848319 Z" id="Fill-35" fill="#000000"></path>
                <path d="M47.0715393,37.68684 C47.1477891,37.67384 47.2494555,37.6608401 47.3765385,37.6608401 C47.5290381,37.6608401 47.6307045,37.68684 47.694246,37.7648397 C47.7577875,37.8168394 47.7959124,37.907839 47.7959124,38.0248385 C47.7959124,38.1808379 47.7069543,38.2848374 47.6179962,38.3238373 C47.6815377,38.3628371 47.7196626,38.4538367 47.7450792,38.5578363 C47.7832041,38.7008357 47.8086207,38.869835 47.8340373,38.9218347 L47.5925796,38.9218347 C47.5798713,38.8828349 47.5544547,38.7788353 47.5290381,38.622836 C47.5036215,38.4668367 47.4527883,38.4278368 47.3638302,38.4278368 L47.3002887,38.4278368 L47.3002887,38.9218347 L47.0715393,38.9218347 L47.0715393,37.68684 Z M47.3002887,38.2198377 L47.3892468,38.2198377 C47.5036215,38.2198377 47.567163,38.154838 47.567163,38.0508384 C47.567163,37.9338389 47.5036215,37.8688392 47.4019551,37.8688392 L47.3002887,37.8818392 L47.3002887,38.2198377 Z" id="Fill-37" fill="#000000"></path>
                <path d="M46.4234161,38.3368372 C46.4234161,39.0128344 46.8809149,39.571832 47.44008,39.571832 C47.9992452,39.571832 48.4567439,39.0128344 48.4567439,38.3368372 C48.4567439,37.6608401 47.9992452,37.1018425 47.44008,37.1018425 C46.8809149,37.1018425 46.4234161,37.6608401 46.4234161,38.3368372 M46.6394572,38.3368372 C46.6394572,37.8038395 46.9952896,37.3748413 47.44008,37.3748413 C47.8848705,37.3748413 48.2407029,37.8038395 48.2407029,38.3368372 C48.2407029,38.869835 47.8848705,39.3118331 47.44008,39.3118331 C46.9952896,39.3118331 46.6394572,38.869835 46.6394572,38.3368372" id="Fill-39" fill="#000000"></path>
            </g>
        </g>
    </g>
</svg>