<?xml version="1.0" encoding="UTF-8" standalone="no"?>
<svg width="90px" height="90px" viewBox="0 0 90 90" version="1.1" xmlns="http://www.w3.org/2000/svg" xmlns:xlink="http://www.w3.org/1999/xlink">
    <!-- Generator: Sketch 3.6.1 (26313) - http://www.bohemiancoding.com/sketch -->
    <title>aventura-recommend-01</title>
    <desc>Created with Sketch.</desc>
    <defs>
        <path id="path-1" d="M33.5150021,13.6544305 L33.5150021,0.0475445552 L0.186247699,0.0475445552 L0.186247699,13.6544305 L33.5150021,13.6544305 L33.5150021,13.6544305 Z"></path>
    </defs>
    <g id="kit" stroke="none" stroke-width="1" fill="none" fill-rule="evenodd">
        <g id="aventura-recommend-01">
            <g id="Page-1" transform="translate(11.000000, 28.000000)">
                <path d="M20.5053292,17.024608 C19.9990247,15.4373513 17.9484918,15.4373513 17.4928178,17.024608 L20.5053292,17.024608 Z M30.846597,21.7991785 L30.846597,13.606886 L28.4543086,13.606886 L28.4543086,18.2662524 C28.4543086,19.1494839 27.2644932,19.1494839 27.2644932,18.2662524 L27.2644932,13.606886 L24.8848624,13.606886 L24.8848624,10.5475767 L22.4419436,10.5475767 L22.4419436,16.0261724 C21.6951445,14.2597093 20.1635737,13.3764777 18.3535354,13.6708882 C16.9865134,13.9652988 16.0751654,14.7333262 15.568861,16.0261724 C15.113187,14.4901175 14.0372901,13.6708882 12.4930617,13.606886 C10.9108603,13.606886 9.65775688,14.3749134 9.2020829,16.0261724 C8.40465343,14.1445052 6.75916405,13.2612736 4.83520724,13.7348905 C3.69602229,14.0805029 2.96188088,14.7333262 2.44291884,15.846966 L2.44291884,10.5475767 L0,10.5475767 L0,21.2743598 L2.44291884,21.2743598 L2.44291884,18.9190757 C3.12642982,20.327126 4.31624521,21.0951534 5.8604737,21.1591557 C7.50596308,21.0311511 8.51857193,20.2759241 9.2020829,18.7398693 L9.2020829,21.2743598 L11.5310832,21.2743598 L11.5310832,16.6789957 C11.6450017,15.6677596 13.1259422,15.6165577 13.1765726,16.6789957 L13.1765726,21.2743598 L15.568861,21.2743598 L15.568861,18.8550734 C16.0751654,20.0967177 16.9232254,20.8647452 18.2396169,21.2103575 C21.0116336,21.504768 22.1001881,19.5078967 22.1001881,18.9702775 L20.1129432,18.675867 C19.0876768,19.4438944 17.9484918,19.0342798 17.5561059,17.9718419 L22.4419436,17.9718419 L22.4419436,21.2743598 L24.8848624,21.2743598 L24.8848624,19.6231008 C25.2772483,21.2743598 27.2644932,21.8631808 28.4036782,20.6215365 C28.4036782,20.9799493 28.4036782,21.3895639 28.2897597,21.7479767 C27.8847161,22.6824101 26.6949007,22.6824101 26.0746778,22.0423872 L24.6570254,23.9752563 C25.5557158,24.7432837 26.4670637,25.1016965 27.6568791,24.9864924 C28.6315152,24.8712883 29.2517381,24.6920819 29.9858795,23.9752563 C30.555472,23.3352334 30.846597,22.6824101 30.846597,21.7991785 L30.846597,21.7991785 Z M5.74655521,15.7317618 C6.59461512,15.7317618 7.27812609,16.435787 7.27812609,17.3190185 C7.27812609,18.2022501 6.59461512,18.9702775 5.74655521,18.9702775 C4.88583769,18.9702775 4.20232672,18.2022501 4.20232672,17.3190185 C4.20232672,16.435787 4.88583769,15.7317618 5.74655521,15.7317618 L5.74655521,15.7317618 Z" id="Fill-1" fill="#197BBB"></path>
                <g id="Group-5" transform="translate(33.723491, 10.500032)">
                    <mask id="mask-2" fill="white">
                        <use xlink:href="#path-1"></use>
                    </mask>
                    <g id="Clip-4"></g>
                    <path d="M24.6660666,6.40937176 L27.6152898,6.40937176 C27.1596159,4.82211508 25.0584525,4.8733169 24.6660666,6.40937176 M33.3491874,7.88142434 L33.4631059,7.76622022 L33.5137364,9.89109611 C33.5770244,10.4159149 31.7036981,11.1839423 30.6278012,10.364713 C29.6025347,9.5966856 29.6025347,8.71345405 29.6025347,7.47180971 L24.6660666,7.47180971 C25.2230014,8.94386228 26.8811484,8.76465588 27.3241648,8.06063074 L29.3746977,8.41904354 C28.6405563,10.8255295 26.5900234,11.1839423 24.716697,10.4799171 C23.6914306,10.0063002 23.1218381,9.4174792 22.6788217,8.35504125 L22.6788217,10.7743277 L20.2865333,10.7743277 L20.2865333,6.11496125 C20.2359029,5.11652559 18.704332,5.16772742 18.704332,6.17896353 L18.704332,10.7743277 L16.3120436,10.8255295 L14.7171847,10.8255295 L14.6665542,9.35347691 C14.6665542,8.76465588 14.0463313,10.8895318 13.2995323,10.8255295 C11.6034124,10.9535341 10.2996786,10.0703025 9.61616759,8.53424765 L9.61616759,10.7743277 L7.17324874,10.7743277 L7.17324874,8.53424765 C6.42644972,10.0063002 4.6164114,10.9535341 2.79371548,10.4799171 L2.51524805,10.364713 C2.51524805,10.364713 2.56587849,12.9504054 2.56587849,13.6544305 L0.186247699,13.6544305 L0.186247699,6.94699096 C0.236878141,3.82367942 3.5405145,1.92921176 5.98343335,3.82367942 C6.54036821,4.28449587 6.83149326,4.70691096 7.17324874,5.34693382 L7.17324874,0.0475445552 L9.61616759,0.0475445552 L9.61616759,5.34693382 C10.350309,3.64447302 11.8818799,2.87644559 13.7045758,3.1708561 C15.0083097,3.5292689 15.8057392,4.23329405 16.3120436,5.52614022 C16.9955546,3.46526662 18.8688809,2.64603736 20.8561258,3.3500625 C21.8181042,3.82367942 22.3370662,4.46370228 22.6788217,5.52614022 C23.5775121,3.46526662 25.5141265,2.64603736 27.5013713,3.3500625 C28.5266378,3.82367942 29.1468607,4.46370228 29.6025347,5.52614022 L29.6025347,1.58359941 L31.9315351,1.58359941 L31.9315351,3.10685382 L33.4124755,3.10685382 L33.4124755,5.4109361 L31.9315351,5.4109361 C31.9315351,6.17896353 31.8176166,6.94699096 32.0454536,7.65101611 C32.2732905,8.12463302 32.8935135,8.23983714 33.3491874,7.88142434 M12.9071463,5.29573199 C13.7552062,5.29573199 14.4387172,5.99975713 14.4387172,6.88298868 C14.4387172,7.76622022 13.7552062,8.47024537 12.9071463,8.47024537 C12.0590864,8.47024537 11.3755755,7.76622022 11.3755755,6.88298868 C11.3755755,5.99975713 12.0590864,5.29573199 12.9071463,5.29573199 M3.93290043,5.29573199 C4.78096034,5.29573199 5.46447131,5.99975713 5.46447131,6.88298868 C5.46447131,7.76622022 4.78096034,8.47024537 3.93290043,8.47024537 C3.08484052,8.47024537 2.40132955,7.76622022 2.40132955,6.88298868 C2.40132955,5.99975713 3.08484052,5.29573199 3.93290043,5.29573199" id="Fill-3" fill="#197BBB" mask="url(#mask-2)"></path>
                </g>
                <path d="M17.4421874,11.5460124 C19.6572692,4.82577235 25.7835528,0 32.9477604,0 C40.1499408,0 46.2255939,4.77457052 48.4406757,11.5460124 L47.5926158,11.8404229 L46.7445559,12.1348334 C44.757311,6.18262081 39.3651689,1.94566949 32.9477604,1.94566949 C26.5809822,1.94566949 21.1255521,6.24662309 19.0876768,12.1988357 L17.4421874,11.5460124 Z" id="Fill-6" fill="#197BBB"></path>
                <path d="M48.4406757,22.6824101 C46.2255939,29.287446 40.0993103,33.9980142 32.9477604,33.9980142 C25.7329223,33.9980142 19.6572692,29.3386478 17.4421874,22.6824101 L18.2902473,22.3879996 L19.0876768,22.0935891 C21.1255521,27.9305975 26.5303518,32.0523447 32.9477604,32.0523447 C39.3018809,32.0523447 44.757311,27.8665952 46.7951863,22.0423872 L48.4406757,22.6824101 Z" id="Fill-8" fill="#197BBB"></path>
                <path d="M64.0601672,22.4520019 L65.3132706,22.4520019 L65.3132706,22.6312083 L64.7436782,22.6312083 L64.7436782,24.0392585 L64.5791292,24.0392585 L64.5791292,22.6312083 L64.0601672,22.6312083 L64.0601672,22.4520019 Z" id="Fill-10" fill="#FFFFFF"></path>
                <path d="M66.730923,24.0392585 L66.730923,23.0920247 L66.730923,22.6824101 L66.275249,24.0392585 L66.1107001,24.0392585 L65.6550261,22.6824101 L65.6550261,23.0920247 L65.6550261,24.0392585 L65.4778196,24.0392585 L65.4778196,22.4520019 L65.7689446,22.4520019 L66.2246186,23.744848 L66.6170045,22.4520019 L66.95876,22.4520019 L66.95876,24.0392585 L66.730923,24.0392585 Z" id="Fill-12" fill="#FFFFFF"></path>
            </g>
        </g>
    </g>
</svg>