<?xml version="1.0" encoding="UTF-8" standalone="no"?>
<svg width="90px" height="90px" viewBox="0 0 90 90" version="1.1" xmlns="http://www.w3.org/2000/svg" xmlns:xlink="http://www.w3.org/1999/xlink">
    <!-- Generator: Sketch 3.6.1 (26313) - http://www.bohemiancoding.com/sketch -->
    <title>aventura-awards-04</title>
    <desc>Created with Sketch.</desc>
    <defs>
        <path id="path-1" d="M0,58.7831768 L80.8253282,58.7831768 L80.8253282,0.158664761 L0,0.158664761 L0,58.7831768 Z"></path>
    </defs>
    <g id="kit" stroke="none" stroke-width="1" fill="none" fill-rule="evenodd">
        <g id="aventura-awards-04">
            <g id="Page-1" transform="translate(5.000000, 15.000000)">
                <path d="M1.83144479,14.3671564 L0,21.3033222 L1.45352761,21.3033222 L1.77330368,19.8362336 L3.61443865,19.8362336 L3.93421472,21.3033222 L5.38774233,21.3033222 L3.55629755,14.3671564 L1.83144479,14.3671564 Z M2.68442945,15.5719624 L2.70356135,15.5719624 L3.37218405,18.6902107 L2.01555828,18.6902107 L2.68442945,15.5719624 Z" id="Fill-1" fill="#000000"></path>
                <path d="M7.64567945,19.4963871 L7.67475,19.4963871 L8.70190951,14.3673058 L10.1457469,14.3673058 L8.55655675,21.3032225 L6.7638727,21.3032225 L5.17468252,14.3673058 L6.66697086,14.3673058 L7.64567945,19.4963871 Z" id="Fill-2" fill="#000000"></path>
                <path d="M14.477284,15.5135031 L12.0062871,15.5135031 L12.0062871,17.1454835 L14.3319313,17.1454835 L14.3319313,18.2917554 L12.0062871,18.2917554 L12.0062871,20.1568759 L14.5741859,20.1568759 L14.5741859,21.3031478 L10.6109006,21.3031478 L10.6109006,14.3672311 L14.477284,14.3672311 L14.477284,15.5135031 Z" id="Fill-3" fill="#000000"></path>
                <path d="M18.517892,19.1175345 L18.5372724,19.1175345 L18.5372724,14.3673058 L19.8163767,14.3673058 L19.8163767,21.3032225 L18.2271865,21.3032225 L16.5217141,16.446138 L16.5023337,16.446138 L16.5023337,21.3032225 L15.2232294,21.3032225 L15.2232294,14.3673058 L16.8318,14.3673058 L18.517892,19.1175345 Z" id="Fill-4" fill="#000000"></path>
                <path d="M24.787292,15.5135031 L23.2756233,15.5135031 L23.2756233,21.3031478 L21.8802368,21.3031478 L21.8802368,15.5135031 L20.3685681,15.5135031 L20.3685681,14.3672311 L24.787292,14.3672311 L24.787292,15.5135031 Z" id="Fill-5" fill="#000000"></path>
                <g id="Group-79" transform="translate(0.000000, 0.090416)">
                    <path d="M26.6477577,19.1145455 C26.6477577,19.2894006 26.6589387,19.4495598 26.6817975,19.5952724 C26.704408,19.7409849 26.7461503,19.8672691 26.8077699,19.9741249 C26.8691411,20.0809808 26.9531227,20.1654194 27.0597147,20.2266933 C27.1660583,20.2884655 27.3002301,20.3191025 27.4617331,20.3191025 C27.6296963,20.3191025 27.7653589,20.2884655 27.8687209,20.2266933 C27.9720828,20.1654194 28.0543252,20.0809808 28.1159448,19.9741249 C28.1770675,19.8672691 28.2190583,19.7409849 28.2419172,19.5952724 C28.2642791,19.4495598 28.2757086,19.2894006 28.2757086,19.1145455 L28.2757086,14.2768893 L29.6710951,14.2768893 L29.6710951,19.1145455 C29.6710951,19.5549212 29.6097239,19.9193271 29.4869816,20.207265 C29.3642393,20.495452 29.1995061,20.7238595 28.9927822,20.8922385 C28.7860583,21.0606174 28.5502638,21.1739494 28.2853988,21.2322344 C28.0205337,21.2905194 27.7459785,21.3196619 27.4617331,21.3196619 C27.1774877,21.3196619 26.9029325,21.2937575 26.6380675,21.2419486 C26.3732025,21.1901396 26.137408,21.0850274 25.930684,20.9261135 C25.7239601,20.7676978 25.559227,20.5425284 25.4364847,20.2511033 C25.3137423,19.9596782 25.2523712,19.5808256 25.2523712,19.1145455 L25.2523712,14.2768893 L26.6477577,14.2768893 L26.6477577,19.1145455 L26.6477577,19.1145455 Z" id="Fill-6" fill="#000000"></path>
                    <path d="M32.4812733,17.3076105 C32.8171997,17.3076105 33.0756046,17.2284026 33.256488,17.0697379 C33.4373715,16.9110731 33.5278132,16.6438089 33.5278132,16.2681944 C33.5278132,15.6270592 33.2048071,15.3064916 32.5587948,15.3064916 L31.8998623,15.3064916 L31.8998623,17.3076105 L32.4812733,17.3076105 Z M33.0820647,14.2767897 C33.6634758,14.2767897 34.1156844,14.4242458 34.4386905,14.7189089 C34.7616966,15.0135721 34.9231997,15.4619183 34.9231997,16.0641968 C34.9231997,16.5304769 34.8295279,16.9110731 34.6421844,17.2057362 C34.4548408,17.5003993 34.1641353,17.6899502 33.7700678,17.7738906 L33.7700678,17.7933189 C34.1189144,17.8453769 34.3740893,17.9584598 34.5355923,18.1333148 C34.6970954,18.3081699 34.7972273,18.5898808 34.835988,18.9784475 C34.8489083,19.1082189 34.8585985,19.2489498 34.8650586,19.4011384 C34.8715187,19.5533271 34.8779788,19.7232005 34.884439,19.9110078 C34.8973592,20.2801462 34.9167396,20.5618571 34.9425801,20.7561405 C34.9813408,20.9504238 35.0653224,21.0831842 35.1945248,21.1544214 L35.1945248,21.2127064 L33.6828561,21.2127064 C33.6117948,21.1155647 33.5665739,21.0039763 33.5471936,20.8776921 C33.5278132,20.7514079 33.5148929,20.6201421 33.5084328,20.4841437 L33.4696721,19.1533026 C33.4567518,18.8813058 33.3889206,18.6675941 33.2661782,18.5121674 C33.1434359,18.3567407 32.936712,18.2790274 32.6460064,18.2790274 L31.8998623,18.2790274 L31.8998623,21.2127064 L30.5044758,21.2127064 L30.5044758,14.2767897 L33.0820647,14.2767897 Z" id="Fill-8" fill="#000000"></path>
                    <path d="M38.7313675,18.5996198 L38.0627448,15.4813716 L38.0433644,15.4813716 L37.3747417,18.5996198 L38.7313675,18.5996198 Z M38.915481,14.2768146 L40.7469258,21.2127313 L39.2933982,21.2127313 L38.9736221,19.7458918 L37.1324871,19.7458918 L36.812711,21.2127313 L35.3591834,21.2127313 L37.1906282,14.2768146 L38.915481,14.2768146 Z" id="Fill-10" fill="#000000"></path>
                    <path d="M45.398239,20.183129 C45.7341653,20.183129 46.005242,20.1086537 46.211966,19.9597031 C46.4186899,19.8107526 46.5220518,19.5355178 46.5220518,19.1339988 C46.5220518,18.9332393 46.4947206,18.7666039 46.4398095,18.6335945 C46.3848985,18.5010833 46.3106071,18.3942274 46.2169353,18.3130269 C46.1232635,18.2320755 46.0119506,18.1755341 45.8827482,18.1431535 C45.7535457,18.110773 45.6111745,18.0945827 45.4563801,18.0945827 L44.8555887,18.0945827 L44.8555887,20.183129 L45.398239,20.183129 Z M45.2528862,17.1231658 C45.6404936,17.1231658 45.9229997,17.0536721 46.1009015,16.9141866 C46.2785549,16.7749502 46.3672574,16.5403156 46.3672574,16.2100339 C46.3672574,15.8797521 46.2862574,15.6466121 46.1250028,15.5106137 C45.9634997,15.3746154 45.7083248,15.3066162 45.3594782,15.3066162 L44.8555887,15.3066162 L44.8555887,17.1231658 L45.2528862,17.1231658 Z M45.795785,14.2769143 C46.0795334,14.2769143 46.3431561,14.3060568 46.5851623,14.3643418 C46.8274169,14.4226268 47.0358801,14.5197685 47.2103034,14.6557668 C47.3847267,14.7917652 47.5203893,14.9730964 47.6175396,15.1997603 C47.7139445,15.4264243 47.7626439,15.7048971 47.7626439,16.0351788 C47.7626439,16.4107934 47.6754322,16.7331045 47.5010089,17.0016141 C47.326834,17.2706219 47.0649506,17.4534475 46.7163525,17.5505892 L46.7163525,17.5700176 C47.1034629,17.6218265 47.4105672,17.7869673 47.6366715,18.0654402 C47.8627758,18.343913 47.9758279,18.7162895 47.9758279,19.1825696 C47.9758279,19.4545664 47.9400488,19.7136109 47.8692359,19.9597031 C47.7979261,20.2057954 47.676923,20.4210016 47.5057298,20.6055708 C47.3345365,20.7903891 47.1116623,20.9375962 46.8371071,21.0476901 C46.5625518,21.157784 46.2216561,21.212831 45.8149169,21.212831 L43.4602021,21.212831 L43.4602021,14.2769143 L45.795785,14.2769143 Z" id="Fill-12" fill="#000000"></path>
                    <path d="M50.0834181,18.9348085 C50.1060285,19.2618522 50.1510009,19.5273728 50.2190807,19.7313704 C50.286912,19.9353679 50.3838138,20.0843185 50.5097862,20.1782221 C50.6357586,20.2721258 50.8019825,20.3192021 51.0087064,20.3192021 C51.2154304,20.3192021 51.3819028,20.2721258 51.5078752,20.1782221 C51.6335991,20.0843185 51.7307494,19.9353679 51.7985807,19.7313704 C51.866412,19.5273728 51.9113844,19.2618522 51.9339948,18.9348085 C51.9568537,18.6080139 51.9680347,18.2112274 51.9680347,17.7449473 C51.9680347,17.2786672 51.9568537,16.8836243 51.9339948,16.5595696 C51.9113844,16.2360131 51.866412,15.9704924 51.7985807,15.7632568 C51.7307494,15.5560212 51.6335991,15.4053271 51.5078752,15.3114234 C51.3819028,15.2175198 51.2154304,15.1706925 51.0087064,15.1706925 C50.8019825,15.1706925 50.6357586,15.2175198 50.5097862,15.3114234 C50.3838138,15.4053271 50.286912,15.5560212 50.2190807,15.7632568 C50.1510009,15.9704924 50.1060285,16.2360131 50.0834181,16.5595696 C50.0605592,16.8836243 50.0493782,17.2786672 50.0493782,17.7449473 C50.0493782,18.2112274 50.0605592,18.6080139 50.0834181,18.9348085 M48.7267923,16.2925545 C48.7752433,15.8489408 48.8818353,15.4683446 49.0465684,15.1512642 C49.2110531,14.8339347 49.4485868,14.5863479 49.7586727,14.4080057 C50.0687586,14.2299126 50.4854365,14.1407415 51.0087064,14.1407415 C51.5322248,14.1407415 51.9486543,14.2299126 52.2587402,14.4080057 C52.5688261,14.5863479 52.8063598,14.8339347 52.9710929,15.1512642 C53.1355776,15.4683446 53.2424181,15.8489408 53.290869,16.2925545 C53.3393199,16.7361682 53.3634212,17.2203822 53.3634212,17.7449473 C53.3634212,18.2757395 53.3393199,18.761697 53.290869,19.2018236 C53.2424181,19.6424483 53.1355776,20.0213009 52.9710929,20.3386305 C52.8063598,20.65596 52.5688261,20.8988142 52.2587402,21.0671931 C51.9486543,21.235323 51.5322248,21.3197615 51.0087064,21.3197615 C50.4854365,21.3197615 50.0687586,21.235323 49.7586727,21.0671931 C49.4485868,20.8988142 49.2110531,20.65596 49.0465684,20.3386305 C48.8818353,20.0213009 48.7752433,19.6424483 48.7267923,19.2018236 C48.6783414,18.761697 48.6539917,18.2757395 48.6539917,17.7449473 C48.6539917,17.2203822 48.6783414,16.7361682 48.7267923,16.2925545" id="Fill-14" fill="#000000"></path>
                    <path d="M55.4467859,19.1145455 C55.4467859,19.2894006 55.4582153,19.4495598 55.4808258,19.5952724 C55.5034362,19.7409849 55.5451785,19.8672691 55.6067982,19.9741249 C55.6681693,20.0809808 55.7521509,20.1654194 55.8584945,20.2266933 C55.965335,20.2884655 56.0992583,20.3191025 56.2607613,20.3191025 C56.4287245,20.3191025 56.5643871,20.2884655 56.6677491,20.2266933 C56.7708626,20.1654194 56.8533534,20.0809808 56.914973,19.9741249 C56.9760957,19.8672691 57.0180865,19.7409849 57.0406969,19.5952724 C57.0635558,19.4495598 57.0747368,19.2894006 57.0747368,19.1145455 L57.0747368,14.2768893 L58.4701233,14.2768893 L58.4701233,19.1145455 C58.4701233,19.5549212 58.4087521,19.9193271 58.2860098,20.207265 C58.1632675,20.495452 57.9987828,20.7238595 57.7918104,20.8922385 C57.5850865,21.0606174 57.349292,21.1739494 57.084427,21.2322344 C56.8193135,21.2905194 56.5450067,21.3196619 56.2607613,21.3196619 C55.976516,21.3196619 55.7017123,21.2937575 55.4370957,21.2419486 C55.1722307,21.1901396 54.9364362,21.0850274 54.7297123,20.9261135 C54.5229883,20.7676978 54.3580067,20.5425284 54.2355129,20.2511033 C54.1127706,19.9596782 54.0513994,19.5808256 54.0513994,19.1145455 L54.0513994,14.2768893 L55.4467859,14.2768893 L55.4467859,19.1145455 Z" id="Fill-16" fill="#000000"></path>
                    <path d="M63.3540506,15.4230866 L61.8423819,15.4230866 L61.8423819,21.2127313 L60.4469954,21.2127313 L60.4469954,15.4230866 L58.9353267,15.4230866 L58.9353267,14.2768146 L63.3540506,14.2768146 L63.3540506,15.4230866 Z" id="Fill-18" fill="#000000"></path>
                    <mask id="mask-2" fill="white">
                        <use xlink:href="#path-1"></use>
                    </mask>
                    <g id="Clip-21"></g>
                    <path d="M63.9743466,21.2127562 L65.3697331,21.2127562 L65.3697331,14.2768395 L63.9743466,14.2768395 L63.9743466,21.2127562 Z" id="Fill-20" fill="#000000" mask="url(#mask-2)"></path>
                    <path d="M67.6417831,18.9348085 C67.664642,19.2618522 67.7096144,19.5273728 67.7776942,19.7313704 C67.845277,19.9353679 67.9421788,20.0843185 68.0683997,20.1782221 C68.1941236,20.2721258 68.360596,20.3192021 68.5673199,20.3192021 C68.7740439,20.3192021 68.9405163,20.2721258 69.0662402,20.1782221 C69.1922126,20.0843185 69.2893629,19.9353679 69.3569457,19.7313704 C69.424777,19.5273728 69.4697494,19.2618522 69.4926083,18.9348085 C69.5152187,18.6080139 69.5266482,18.2112274 69.5266482,17.7449473 C69.5266482,17.2786672 69.5152187,16.8836243 69.4926083,16.5595696 C69.4697494,16.2360131 69.424777,15.9704924 69.3569457,15.7632568 C69.2893629,15.5560212 69.1922126,15.4053271 69.0662402,15.3114234 C68.9405163,15.2175198 68.7740439,15.1706925 68.5673199,15.1706925 C68.360596,15.1706925 68.1941236,15.2175198 68.0683997,15.3114234 C67.9421788,15.4053271 67.845277,15.5560212 67.7776942,15.7632568 C67.7096144,15.9704924 67.664642,16.2360131 67.6417831,16.5595696 C67.6189242,16.8836243 67.6077433,17.2786672 67.6077433,17.7449473 C67.6077433,18.2112274 67.6189242,18.6080139 67.6417831,18.9348085 L67.6417831,18.9348085 Z M69.4878874,21.2129057 C69.2294825,21.2838938 68.9223782,21.3197615 68.5673199,21.3197615 C68.04405,21.3197615 67.6271236,21.235323 67.3170377,21.0671931 C67.0069518,20.8988142 66.7696666,20.65596 66.6049334,20.3386305 C66.4402003,20.0213009 66.3336083,19.6424483 66.2854058,19.2018236 C66.2369549,18.761697 66.2126052,18.2757395 66.2126052,17.7449473 C66.2126052,17.2203822 66.2369549,16.7361682 66.2854058,16.2925545 C66.3336083,15.8489408 66.4402003,15.4683446 66.6049334,15.1512642 C66.7696666,14.8339347 67.0069518,14.5863479 67.3170377,14.4080057 C67.6271236,14.2299126 68.04405,14.1407415 68.5673199,14.1407415 C69.0905899,14.1407415 69.5072678,14.2299126 69.8173537,14.4080057 C70.1274396,14.5863479 70.3647248,14.8339347 70.529458,15.1512642 C70.6941911,15.4683446 70.8010316,15.8489408 70.849234,16.2925545 C70.897685,16.7361682 70.9217862,17.2203822 70.9217862,17.7449473 C70.9217862,18.3342736 70.8894856,18.8685529 70.8253813,19.3477852 C70.7605316,19.8270176 70.6151788,20.2317746 70.3890745,20.5620563 L71.1352187,21.290619 L70.3113046,22.038361 L69.4878874,21.2129057 Z" id="Fill-22" fill="#000000" mask="url(#mask-2)"></path>
                    <path d="M73.0051509,19.1145455 C73.0051509,19.2894006 73.0163319,19.4495598 73.0391908,19.5952724 C73.0620497,19.7409849 73.1035436,19.8672691 73.1654117,19.9741249 C73.2265344,20.0809808 73.310516,20.1654194 73.417108,20.2266933 C73.5239485,20.2884655 73.6578718,20.3191025 73.8193748,20.3191025 C73.987338,20.3191025 74.1227521,20.2884655 74.2261141,20.2266933 C74.3294761,20.1654194 74.4119669,20.0809808 74.4730896,19.9741249 C74.5347092,19.8672691 74.5764515,19.7409849 74.5993104,19.5952724 C74.6221693,19.4495598 74.6333503,19.2894006 74.6333503,19.1145455 L74.6333503,14.2768893 L76.0284883,14.2768893 L76.0284883,19.1145455 C76.0284883,19.5549212 75.9673656,19.9193271 75.8446233,20.207265 C75.721881,20.495452 75.5568994,20.7238595 75.3504239,20.8922385 C75.1432031,21.0606174 74.9079055,21.1739494 74.6430405,21.2322344 C74.377927,21.2905194 74.1033718,21.3196619 73.8193748,21.3196619 C73.5351294,21.3196619 73.2603258,21.2937575 72.9954607,21.2419486 C72.7305957,21.1901396 72.4950497,21.0850274 72.2883258,20.9261135 C72.0816018,20.7676978 71.9166202,20.5425284 71.7938779,20.2511033 C71.6711356,19.9596782 71.6100129,19.5808256 71.6100129,19.1145455 L71.6100129,14.2768893 L73.0051509,14.2768893 L73.0051509,19.1145455 Z" id="Fill-23" fill="#000000" mask="url(#mask-2)"></path>
                    <path d="M80.7282276,15.4230866 L78.2574791,15.4230866 L78.2574791,17.055067 L80.5828748,17.055067 L80.5828748,18.2013389 L78.2574791,18.2013389 L78.2574791,20.0664594 L80.8253779,20.0664594 L80.8253779,21.2127313 L76.8618442,21.2127313 L76.8618442,14.2768146 L80.7282276,14.2768146 L80.7282276,15.4230866 Z" id="Fill-24" fill="#000000" mask="url(#mask-2)"></path>
                    <path d="M28.3750206,26.8375341 L28.3750206,29.3535039 L29.9194868,29.3535039 L29.9194868,26.8375341 L31.243315,26.8375341 L31.243315,33.4177628 L29.9194868,33.4177628 L29.9194868,30.4962887 L28.3750206,30.4962887 L28.3750206,33.4177628 L27.0511923,33.4177628 L27.0511923,26.8375341 L28.3750206,26.8375341 Z" id="Fill-25" fill="#000000" mask="url(#mask-2)"></path>
                    <path d="M33.3347549,31.256659 C33.356123,31.5670143 33.3991077,31.8185864 33.4634604,32.0123716 C33.5278132,32.2059077 33.6197457,32.3471368 33.739258,32.4363079 C33.8587702,32.525479 34.0165463,32.5698154 34.2128347,32.5698154 C34.4088745,32.5698154 34.5666506,32.525479 34.6861629,32.4363079 C34.8056752,32.3471368 34.8976077,32.2059077 34.9619604,32.0123716 C35.0263132,31.8185864 35.0690494,31.5670143 35.090666,31.256659 C35.112034,30.9463038 35.1229666,30.569942 35.1229666,30.1275737 C35.1229666,29.6852054 35.112034,29.3105872 35.090666,29.0032209 C35.0690494,28.6961037 35.0263132,28.4442826 34.9619604,28.2475084 C34.8976077,28.0509833 34.8056752,27.9082597 34.6861629,27.8190886 C34.5666506,27.7299175 34.4088745,27.685332 34.2128347,27.685332 C34.0165463,27.685332 33.8587702,27.7299175 33.739258,27.8190886 C33.6197457,27.9082597 33.5278132,28.0509833 33.4634604,28.2475084 C33.3991077,28.4442826 33.356123,28.6961037 33.3347549,29.0032209 C33.3133868,29.3105872 33.3027028,29.6852054 33.3027028,30.1275737 C33.3027028,30.569942 33.3133868,30.9463038 33.3347549,31.256659 M32.0476997,28.7499053 C32.093666,28.329207 32.1947917,27.9680392 32.351077,27.6669 C32.5073623,27.3660098 32.7327212,27.1311262 33.0269052,26.962 C33.3208408,26.7931229 33.7163991,26.7084353 34.2128347,26.7084353 C34.7092702,26.7084353 35.1045801,26.7931229 35.3987641,26.962 C35.6929482,27.1311262 35.9180586,27.3660098 36.0743439,27.6669 C36.2306291,27.9680392 36.3317549,28.329207 36.3777212,28.7499053 C36.4236874,29.1706035 36.4465463,29.6299094 36.4465463,30.1275737 C36.4465463,30.6314651 36.4236874,31.0922654 36.3777212,31.5099747 C36.3317549,31.927933 36.2306291,32.2873573 36.0743439,32.5882474 C35.9180586,32.8893867 35.6929482,33.1197869 35.3987641,33.279697 C35.1045801,33.439109 34.7092702,33.5190641 34.2128347,33.5190641 C33.7163991,33.5190641 33.3208408,33.439109 33.0269052,33.279697 C32.7327212,33.1197869 32.5073623,32.8893867 32.351077,32.5882474 C32.1947917,32.2873573 32.093666,31.927933 32.0476997,31.5099747 C32.0017334,31.0922654 31.9786261,30.6314651 31.9786261,30.1275737 C31.9786261,29.6299094 32.0017334,29.1706035 32.0476997,28.7499053" id="Fill-26" fill="#000000" mask="url(#mask-2)"></path>
                    <path d="M38.248523,31.55598 C38.248523,31.7096631 38.2606979,31.8496468 38.285296,31.9754328 C38.3096457,32.1012189 38.355612,32.2073275 38.4231948,32.2935096 C38.4905291,32.3796917 38.5809709,32.4471927 38.6942715,32.4960127 C38.8075721,32.5455798 38.9501917,32.5697407 39.1218819,32.5697407 C39.3241334,32.5697407 39.5062592,32.5039833 39.6687561,32.3717211 C39.8312531,32.239708 39.9125015,32.0354614 39.9125015,31.7587321 C39.9125015,31.6115251 39.8926242,31.4839955 39.8528696,31.3763924 C39.8128666,31.2690384 39.747023,31.1721458 39.6550905,31.0862127 C39.563158,31.0002797 39.4421549,30.9218191 39.2918328,30.85108 C39.1417592,30.78059 38.9564034,30.7083565 38.7357653,30.6346284 C38.4415813,30.5362413 38.1871518,30.4288873 37.9727255,30.3118191 C37.7580506,30.1952491 37.5789064,30.0585035 37.4350445,29.9018314 C37.290934,29.7451592 37.1850874,29.5640772 37.1177531,29.358087 C37.0501702,29.1523459 37.0166273,28.9144733 37.0166273,28.643971 C37.0166273,27.9926235 37.1972623,27.5074132 37.5590291,27.1875929 C37.9205475,26.8682707 38.4169831,26.7086096 39.0483359,26.7086096 C39.3425199,26.7086096 39.6138451,26.7407411 39.8620629,26.8052532 C40.1100322,26.8697652 40.3244586,26.9743793 40.5055905,27.1185974 C40.6862255,27.2630645 40.8273543,27.4473846 40.9282316,27.6715578 C41.0293574,27.89598 41.0800445,28.1647387 41.0800445,28.4780829 L41.0800445,28.662403 L39.8113758,28.662403 C39.8113758,28.3490588 39.7562163,28.1079481 39.6458972,27.938822 C39.5355782,27.7699449 39.3517132,27.6852572 39.0943021,27.6852572 C38.9472101,27.6852572 38.8244678,27.7069273 38.7265721,27.7500184 C38.6284279,27.7931094 38.550161,27.8499 38.4920199,27.92039 C38.4338788,27.991129 38.3938758,28.0725786 38.3727561,28.1647387 C38.3511396,28.2566497 38.3404555,28.3520478 38.3404555,28.4504349 C38.3404555,28.653187 38.3831917,28.8235586 38.469161,28.9617987 C38.5548819,29.1000388 38.7387469,29.2275684 39.0207561,29.3443875 L40.0412071,29.7865067 C40.2924064,29.8973479 40.497888,30.0124234 40.6569064,30.1322315 C40.8164218,30.2520396 40.9436365,30.3810637 41.0385506,30.5193038 C41.1334647,30.6575439 41.1995567,30.8094835 41.2363298,30.9753716 C41.2731028,31.1412597 41.2914893,31.3258289 41.2914893,31.5285811 C41.2914893,32.2230196 41.0904801,32.7281564 40.6892071,33.0447387 C40.287934,33.3610719 39.7286365,33.5192385 39.0115629,33.5192385 C38.2636794,33.5192385 37.7289801,33.3565884 37.4072163,33.030541 C37.0854525,32.7049918 36.9246948,32.2379645 36.9246948,31.6299571 L36.9246948,31.3626929 L38.248523,31.3626929 L38.248523,31.55598 Z" id="Fill-27" fill="#000000" mask="url(#mask-2)"></path>
                    <path d="M45.7500672,27.9250727 L44.3161684,27.9250727 L44.3161684,33.4178126 L42.9920917,33.4178126 L42.9920917,27.9250727 L41.5581929,27.9250727 L41.5581929,26.8375839 L45.7500672,26.8375839 L45.7500672,27.9250727 Z" id="Fill-28" fill="#000000" mask="url(#mask-2)"></path>
                    <path d="M49.9422147,27.9250727 L47.5979356,27.9250727 L47.5979356,29.4733618 L49.804316,29.4733618 L49.804316,30.5608506 L47.5979356,30.5608506 L47.5979356,32.3303238 L50.0341472,32.3303238 L50.0341472,33.4178126 L46.2741074,33.4178126 L46.2741074,26.8375839 L49.9422147,26.8375839 L49.9422147,27.9250727 Z" id="Fill-29" fill="#000000" mask="url(#mask-2)"></path>
                    <path d="M50.6499957,26.8375341 L51.9738239,26.8375341 L51.9738239,32.330274 L54.3181031,32.330274 L54.3181031,33.4177628 L50.6499957,33.4177628 L50.6499957,26.8375341 Z" id="Fill-30" fill="#000000" mask="url(#mask-2)"></path>
                    <path d="M3.80804356,55.0727379 L4.6317092,58.2582381 L4.64189632,58.2582381 L5.52668466,55.0727379 L5.95876748,55.0727379 L6.84852515,58.2582381 L6.85871227,58.2582381 L7.68734724,55.0727379 L8.03321227,55.0727379 L7.03164479,58.711815 L6.66540552,58.711815 L5.7450865,55.4548285 L5.73489939,55.4548285 L4.81979816,58.711815 L4.44362025,58.711815 L3.43683497,55.0727379 L3.80804356,55.0727379 Z" id="Fill-31" fill="#000000" mask="url(#mask-2)"></path>
                    <path d="M8.39410951,55.0727379 L9.21777515,58.2582381 L9.22796227,58.2582381 L10.1127506,55.0727379 L10.5448334,55.0727379 L11.4345911,58.2582381 L11.4447782,58.2582381 L12.2734132,55.0727379 L12.6192782,55.0727379 L11.6177107,58.711815 L11.2514715,58.711815 L10.3311525,55.4548285 L10.3209653,55.4548285 L9.40586411,58.711815 L9.0296862,58.711815 L8.02290092,55.0727379 L8.39410951,55.0727379 Z" id="Fill-32" fill="#000000" mask="url(#mask-2)"></path>
                    <path d="M12.9800512,55.0727379 L13.8037169,58.2582381 L13.813904,58.2582381 L14.6986923,55.0727379 L15.1307752,55.0727379 L16.0205328,58.2582381 L16.0307199,58.2582381 L16.8593549,55.0727379 L17.2052199,55.0727379 L16.2036525,58.711815 L15.8374132,58.711815 L14.9170942,55.4548285 L14.9069071,55.4548285 L13.9918058,58.711815 L13.6156279,58.711815 L12.6088426,55.0727379 L12.9800512,55.0727379 Z" id="Fill-33" fill="#000000" mask="url(#mask-2)"></path>
                    <path d="M17.3118865,58.7119396 L17.8118865,58.7119396 L17.8118865,58.1716823 L17.3118865,58.1716823 L17.3118865,58.7119396 Z" id="Fill-34" fill="#000000" mask="url(#mask-2)"></path>
                    <path d="M20.1082997,58.4163548 C20.2372537,58.4163548 20.3592506,58.4051462 20.474539,58.382978 C20.5895788,58.3610588 20.6912015,58.3212058 20.7794071,58.2634189 C20.8676126,58.2056321 20.9369347,58.1284169 20.9881187,58.0315243 C21.0388058,57.9346317 21.0641494,57.81308 21.0641494,57.6668693 C21.0641494,57.432733 20.9819071,57.2568816 20.8176709,57.1395643 C20.6531862,57.022247 20.4166463,56.9637129 20.1082997,56.9637129 L18.9186433,56.9637129 L18.9186433,58.4163548 L20.1082997,58.4163548 Z M20.1082997,56.6680535 C20.2474408,56.6680535 20.3676985,56.6518632 20.4693212,56.6194826 C20.5709439,56.5873512 20.6556709,56.5430147 20.7235021,56.4872205 C20.7913334,56.4309281 20.842269,56.3656688 20.8760604,56.2909445 C20.9098518,56.2162201 20.926996,56.136265 20.926996,56.0513283 C20.926996,55.5960078 20.6539316,55.3683475 20.1082997,55.3683475 L18.9186433,55.3683475 L18.9186433,56.6680535 L20.1082997,56.6680535 Z M20.1082997,55.072688 C20.260858,55.072688 20.4074531,55.0873838 20.548085,55.1160282 C20.6887169,55.1449216 20.8124531,55.1942397 20.9192936,55.2639824 C21.026134,55.3334761 21.1116064,55.425138 21.1759592,55.5389682 C21.240312,55.6527983 21.2726126,55.7950237 21.2726126,55.964648 C21.2726126,56.0597971 21.2574561,56.1524553 21.2268948,56.2423736 C21.1963334,56.332541 21.1533488,56.4139906 21.0971954,56.4872205 C21.0412905,56.5602013 20.9751985,56.6222225 20.8989193,56.6730351 C20.8226402,56.7240968 20.7371678,56.7599645 20.6422537,56.7801401 L20.6422537,56.7903524 C20.8760604,56.8209894 21.0624101,56.9168857 21.2015512,57.0782903 C21.3404439,57.239695 21.4100144,57.4394581 21.4100144,57.6770817 C21.4100144,57.7351176 21.4047966,57.8003769 21.3946095,57.8733577 C21.3844224,57.9465876 21.3642966,58.021312 21.3337353,58.0977799 C21.3031739,58.1739988 21.2589469,58.2497195 21.2015512,58.3246929 C21.1436586,58.3994173 21.066634,58.4646766 20.9702291,58.5207199 C20.8735758,58.5770122 20.7548089,58.6225941 20.614177,58.6584618 C20.4735451,58.6940804 20.3048365,58.7120143 20.1082997,58.7120143 L18.5727782,58.7120143 L18.5727782,55.072688 L20.1082997,55.072688 Z" id="Fill-35" fill="#000000" mask="url(#mask-2)"></path>
                    <path d="M22.2488862,55.0727379 L22.2488862,57.3256778 C22.2488862,57.5364006 22.2724905,57.71549 22.3199475,57.8631952 C22.3674046,58.0111494 22.4369752,58.1317048 22.5284107,58.2251102 C22.6200948,58.3185157 22.7319046,58.386764 22.8640887,58.4291078 C22.9962727,58.4717007 23.1453525,58.4926235 23.3113279,58.4926235 C23.4807819,58.4926235 23.6318494,58.4717007 23.7640334,58.4291078 C23.8962175,58.386764 24.0080273,58.3185157 24.0994629,58.2251102 C24.1908985,58.1317048 24.260469,58.0111494 24.3079261,57.8631952 C24.3553831,57.71549 24.3792359,57.5364006 24.3792359,57.3256778 L24.3792359,55.0727379 L24.7248525,55.0727379 L24.7248525,57.4021458 C24.7248525,57.5889567 24.698515,57.7663026 24.6460887,57.9346815 C24.5936623,58.1028114 24.5104261,58.2497693 24.3971255,58.3755553 C24.2833279,58.5013414 24.1377267,58.6007248 23.9598248,58.6737056 C23.7816745,58.7466864 23.5657574,58.7830523 23.3113279,58.7830523 C23.0606255,58.7830523 22.8461991,58.7466864 22.6682972,58.6737056 C22.4903954,58.6007248 22.3445457,58.5013414 22.2309966,58.3755553 C22.1174475,58.2497693 22.0344598,58.1028114 21.9820334,57.9346815 C21.9293586,57.7663026 21.9030212,57.5889567 21.9030212,57.4021458 L21.9030212,55.0727379 L22.2488862,55.0727379 Z" id="Fill-36" fill="#000000" mask="url(#mask-2)"></path>
                    <path d="M26.4789994,58.4163548 C26.739889,58.4163548 26.9645025,58.3882087 27.1525914,58.3321654 C27.3406804,58.2761221 27.4957233,58.186951 27.6177202,58.0646521 C27.7399656,57.9423532 27.829662,57.7841866 27.8873061,57.5906505 C27.9449503,57.3968653 27.9737724,57.1642234 27.9737724,56.8922266 C27.9737724,56.620479 27.9449503,56.387588 27.8873061,56.1940519 C27.829662,56.0005157 27.7399656,55.8423491 27.6177202,55.7200502 C27.4957233,55.5977513 27.3406804,55.5085802 27.1525914,55.452537 C26.9645025,55.3964937 26.739889,55.3683475 26.4789994,55.3683475 L25.7418,55.3683475 L25.7418,58.4163548 L26.4789994,58.4163548 Z M26.6519319,55.072688 C27.2042724,55.0863875 27.6204534,55.2418142 27.8999779,55.5389682 C28.1797509,55.8366203 28.319389,56.2874573 28.319389,56.8922266 C28.319389,57.497245 28.1797509,57.9483312 27.8999779,58.2454851 C27.6204534,58.5428881 27.2042724,58.6983148 26.6519319,58.7120143 L25.395935,58.7120143 L25.395935,55.072688 L26.6519319,55.072688 Z" id="Fill-37" fill="#000000" mask="url(#mask-2)"></path>
                    <path d="M31.705661,58.7119147 L31.6596948,58.0493585 L31.6497561,58.0493585 C31.5886334,58.1783826 31.5133482,58.2897219 31.4234034,58.3831274 C31.3334586,58.476782 31.234569,58.5530008 31.1259893,58.6125312 C31.0174095,58.6720617 30.9013758,58.7154018 30.7776396,58.7425517 C30.6539034,58.7694524 30.5259433,58.7831519 30.3937592,58.7831519 C30.1092653,58.7831519 29.8590598,58.731343 29.643888,58.6277252 C29.4284678,58.5241074 29.2498206,58.3856182 29.1074494,58.2125067 C28.9650782,58.0391462 28.8584862,57.8386358 28.7871764,57.6109755 C28.716115,57.3833152 28.6803359,57.1436991 28.6803359,56.892127 C28.6803359,56.6410531 28.716115,56.4014369 28.7871764,56.1737766 C28.8584862,55.9461164 28.9650782,55.7448587 29.1074494,55.5697546 C29.2498206,55.3948996 29.4284678,55.255414 29.643888,55.1517962 C29.8590598,55.0481784 30.1092653,54.9963695 30.3937592,54.9963695 C30.5835874,54.9963695 30.7632285,55.0217758 30.932931,55.0728375 C31.1021365,55.1236501 31.253204,55.200118 31.3851396,55.3022413 C31.5175721,55.4041156 31.6293819,55.5299016 31.7208175,55.6791013 C31.8125015,55.8287991 31.875115,56.0039032 31.9089064,56.2044136 L31.5632899,56.2044136 C31.5531028,56.0990523 31.5183175,55.9926946 31.458934,55.8855896 C31.3997991,55.7787338 31.3200414,55.6810939 31.2199095,55.5926701 C31.1200261,55.5042462 31.0005138,55.4320127 30.8616212,55.3759694 C30.7224801,55.3199261 30.5666917,55.292029 30.3937592,55.292029 C30.1529954,55.292029 29.9465199,55.3378599 29.7735874,55.4295218 C29.6006549,55.5211837 29.4590291,55.6429845 29.3489586,55.7939277 C29.238888,55.9453691 29.1576396,56.1159898 29.1049647,56.3062879 C29.0522899,56.4963369 29.0262009,56.6918657 29.0262009,56.892127 C29.0262009,57.0893993 29.0522899,57.2841809 29.1049647,57.4759735 C29.1576396,57.6680151 29.238888,57.8396321 29.3489586,57.9905753 C29.4590291,58.1420167 29.6006549,58.2633193 29.7735874,58.3549812 C29.9465199,58.4468922 30.1529954,58.4927232 30.3937592,58.4927232 C30.5937745,58.4927232 30.7726702,58.4595953 30.9301979,58.3933397 C31.0879739,58.3270841 31.2209034,58.234675 31.3292347,58.115365 C31.4378144,57.9968024 31.5193113,57.8555733 31.573477,57.6924251 C31.6276426,57.5295259 31.6529862,57.3509347 31.6497561,57.1573985 L30.4141334,57.1573985 L30.4141334,56.8617391 L31.9546242,56.8617391 L31.9546242,58.7119147 L31.705661,58.7119147 Z" id="Fill-38" fill="#000000" mask="url(#mask-2)"></path>
                    <path d="M35.1019215,55.0727379 L35.1019215,55.3683973 L32.9410104,55.3683973 L32.9410104,56.6832973 L34.9645196,56.6832973 L34.9645196,56.9789567 L32.9410104,56.9789567 L32.9410104,58.4164047 L35.127265,58.4164047 L35.127265,58.711815 L32.5953939,58.711815 L32.5953939,55.0727379 L35.1019215,55.0727379 Z" id="Fill-39" fill="#000000" mask="url(#mask-2)"></path>
                    <path d="M38.0710187,55.0727379 L38.0710187,55.3683973 L36.8050831,55.3683973 L36.8050831,58.711815 L36.4592181,58.711815 L36.4592181,55.3683973 L35.1982518,55.3683973 L35.1982518,55.0727379 L38.0710187,55.0727379 Z" id="Fill-40" fill="#000000" mask="url(#mask-2)"></path>
                    <path d="M40.8724509,55.0727379 L40.8724509,55.3683973 L39.6065153,55.3683973 L39.6065153,58.711815 L39.2608988,58.711815 L39.2608988,55.3683973 L37.999684,55.3683973 L37.999684,55.0727379 L40.8724509,55.0727379 Z" id="Fill-41" fill="#000000" mask="url(#mask-2)"></path>
                    <path d="M42.8249982,56.80049 C42.9300994,56.80049 43.0299828,56.7845488 43.1248969,56.7521682 C43.219811,56.7200367 43.3027988,56.6729604 43.3741086,56.6119355 C43.4451699,56.5509106 43.5020687,56.4769334 43.5445564,56.3905022 C43.5865472,56.3035729 43.6079153,56.2041895 43.6079153,56.0921029 C43.6079153,55.8679298 43.5435626,55.6913312 43.4146086,55.562058 C43.2856546,55.4330339 43.0891178,55.3682728 42.8249982,55.3682728 L41.533719,55.3682728 L41.533719,56.80049 L42.8249982,56.80049 Z M42.8505902,55.0726133 C42.9994215,55.0726133 43.1407988,55.0915435 43.2749706,55.1286566 C43.4088939,55.1660188 43.525673,55.2230584 43.6258049,55.2995263 C43.7256883,55.3759943 43.8051975,55.4746305 43.8648294,55.5951858 C43.9239644,55.7159902 43.9537804,55.8577174 43.9537804,56.0206166 C43.9537804,56.251764 43.8943969,56.4525235 43.7756301,56.6221478 C43.6571117,56.7922703 43.4809491,56.9008697 43.2468939,56.9484443 L43.2468939,56.9586566 C43.3656607,56.9755941 43.4638049,57.0069784 43.5418233,57.0530584 C43.6195933,57.0986403 43.6832006,57.1574234 43.7323969,57.2286607 C43.7815933,57.300147 43.8171239,57.3825929 43.8392374,57.4759984 C43.8613509,57.5694038 43.875762,57.6705308 43.8824706,57.7791303 C43.8859491,57.8404042 43.8891791,57.9151286 43.8926577,58.0033034 C43.8961362,58.0919763 43.9028448,58.1811474 43.9130319,58.2708167 C43.923219,58.3612332 43.9391209,58.4459208 43.9612344,58.5258759 C43.9833479,58.605831 44.0129153,58.6678522 44.0504337,58.7119396 L43.6687896,58.7119396 C43.6484153,58.6780645 43.6325135,58.6362189 43.6205871,58.5871499 C43.6086607,58.5378318 43.6002129,58.4870192 43.5952436,58.434214 C43.5900258,58.3816578 43.5860503,58.3295998 43.5825718,58.2787873 C43.5790933,58.2274765 43.5756147,58.1836382 43.5723847,58.1460269 C43.5654276,58.0170029 43.5547436,57.888726 43.5393387,57.7611964 C43.5239337,57.6339159 43.4918816,57.5200857 43.4426853,57.419706 C43.393489,57.3195753 43.3224276,57.238873 43.2292528,57.1778481 C43.1358294,57.1165741 43.0078693,57.0894243 42.8453724,57.0961494 L41.533719,57.0961494 L41.533719,58.7119396 L41.187854,58.7119396 L41.187854,55.0726133 L42.8505902,55.0726133 Z" id="Fill-42" fill="#000000" mask="url(#mask-2)"></path>
                    <path d="M46.4957144,57.2848036 L45.7940457,55.4194341 L45.0670334,57.2848036 L46.4957144,57.2848036 Z M46.0027574,55.0727129 L47.4262206,58.7117901 L47.055012,58.7117901 L46.612742,57.580463 L44.9601929,57.580463 L44.5231408,58.7117901 L44.1569015,58.7117901 L45.6161439,55.0727129 L46.0027574,55.0727129 Z" id="Fill-43" fill="#000000" mask="url(#mask-2)"></path>
                    <path d="M47.4463712,55.0727379 L48.6258405,58.3294753 L48.6360276,58.3294753 L49.8055583,55.0727379 L50.1715491,55.0727379 L48.8241166,58.711815 L48.4225951,58.711815 L47.0801319,55.0727379 L47.4463712,55.0727379 Z" id="Fill-44" fill="#000000" mask="url(#mask-2)"></path>
                    <path d="M52.9730558,55.0727379 L52.9730558,55.3683973 L50.8123933,55.3683973 L50.8123933,56.6832973 L52.835654,56.6832973 L52.835654,56.9789567 L50.8123933,56.9789567 L50.8123933,58.4164047 L52.9986479,58.4164047 L52.9986479,58.711815 L50.4665282,58.711815 L50.4665282,55.0727379 L52.9730558,55.0727379 Z" id="Fill-45" fill="#000000" mask="url(#mask-2)"></path>
                    <path d="M53.8019144,55.0727379 L53.8019144,58.4164047 L55.8356107,58.4164047 L55.8356107,58.711815 L53.4560494,58.711815 L53.4560494,55.0727379 L53.8019144,55.0727379 Z" id="Fill-46" fill="#000000" mask="url(#mask-2)"></path>
                    <path d="M56.5066684,55.0727379 L56.5066684,58.4164047 L58.5403647,58.4164047 L58.5403647,58.711815 L56.1608034,58.711815 L56.1608034,55.0727379 L56.5066684,55.0727379 Z" id="Fill-47" fill="#000000" mask="url(#mask-2)"></path>
                    <path d="M61.3721347,55.0727379 L61.3721347,55.3683973 L59.2114721,55.3683973 L59.2114721,56.6832973 L61.2347328,56.6832973 L61.2347328,56.9789567 L59.2114721,56.9789567 L59.2114721,58.4164047 L61.3977267,58.4164047 L61.3977267,58.711815 L58.8656071,58.711815 L58.8656071,55.0727379 L61.3721347,55.0727379 Z" id="Fill-48" fill="#000000" mask="url(#mask-2)"></path>
                    <path d="M63.4923469,56.80049 C63.5974482,56.80049 63.6973316,56.7845488 63.7922457,56.7521682 C63.8871598,56.7200367 63.9701475,56.6729604 64.0414574,56.6119355 C64.1125187,56.5509106 64.1694175,56.4769334 64.2119052,56.3905022 C64.253896,56.3035729 64.2752641,56.2041895 64.2752641,56.0921029 C64.2752641,55.8679298 64.2109113,55.6913312 64.0819574,55.562058 C63.9530034,55.4330339 63.7564666,55.3682728 63.4923469,55.3682728 L62.2010678,55.3682728 L62.2010678,56.80049 L63.4923469,56.80049 Z M63.517939,55.0726133 C63.6667702,55.0726133 63.8081475,55.0915435 63.9423193,55.1286566 C64.0762426,55.1660188 64.1930218,55.2230584 64.2931537,55.2995263 C64.3930371,55.3759943 64.4725463,55.4746305 64.5321782,55.5951858 C64.5913132,55.7159902 64.6211291,55.8577174 64.6211291,56.0206166 C64.6211291,56.251764 64.5617457,56.4525235 64.4429788,56.6221478 C64.3244604,56.7922703 64.1482979,56.9008697 63.9142426,56.9484443 L63.9142426,56.9586566 C64.0330095,56.9755941 64.1311537,57.0069784 64.2091721,57.0530584 C64.286942,57.0986403 64.3505494,57.1574234 64.3997457,57.2286607 C64.448942,57.300147 64.4844727,57.3825929 64.5065862,57.4759984 C64.5286997,57.5694038 64.5431107,57.6705308 64.5498193,57.7791303 C64.5532979,57.8404042 64.5565279,57.9151286 64.5600064,58.0033034 C64.563485,58.0919763 64.5701936,58.1811474 64.5803807,58.2708167 C64.5905678,58.3612332 64.6064696,58.4459208 64.6285831,58.5258759 C64.6506966,58.605831 64.6802641,58.6678522 64.7177825,58.7119396 L64.3361383,58.7119396 C64.3157641,58.6780645 64.2998623,58.6362189 64.2879359,58.5871499 C64.2760095,58.5378318 64.2675617,58.4870192 64.2625923,58.434214 C64.2573745,58.3816578 64.2533991,58.3295998 64.2499206,58.2787873 C64.246442,58.2274765 64.2429635,58.1836382 64.2397334,58.1460269 C64.2327764,58.0170029 64.2220923,57.888726 64.2066874,57.7611964 C64.1912825,57.6339159 64.1592304,57.5200857 64.110034,57.419706 C64.0608377,57.3195753 63.9897764,57.238873 63.8966015,57.1778481 C63.8031782,57.1165741 63.6752181,57.0894243 63.5127212,57.0961494 L62.2010678,57.0961494 L62.2010678,58.7119396 L61.8552028,58.7119396 L61.8552028,55.0726133 L63.517939,55.0726133 Z" id="Fill-49" fill="#000000" mask="url(#mask-2)"></path>
                    <path id="Fill-50" fill="#000000" mask="url(#mask-2)" d="M65.3481166,58.7119396 L65.8481166,58.7119396 L65.8481166,58.1716823 L65.3481166,58.1716823 L65.3481166,58.7119396 Z"></path>
                    <path d="M66.8400819,57.4759984 C66.8925083,57.66804 66.9740052,57.839657 67.0840758,57.9906002 C67.1943948,58.1420416 67.3357721,58.2633442 67.5087046,58.3550061 C67.6816371,58.446668 67.888361,58.4927481 68.1288764,58.4927481 C68.3696402,58.4927481 68.5753702,58.446668 68.746812,58.3550061 C68.9177567,58.2633442 69.0586371,58.1420416 69.1687077,57.9906002 C69.2787782,57.839657 69.3602752,57.66804 69.4127015,57.4759984 C69.4651279,57.2839567 69.4917138,57.0894243 69.4917138,56.8921519 C69.4917138,56.6918906 69.4651279,56.4963618 69.4127015,56.3063128 C69.3602752,56.1160147 69.2787782,55.945145 69.1687077,55.7939526 C69.0586371,55.6430094 68.9177567,55.5212087 68.746812,55.4295468 C68.5753702,55.3378849 68.3696402,55.2918048 68.1288764,55.2918048 C67.888361,55.2918048 67.6816371,55.3378849 67.5087046,55.4295468 C67.3357721,55.5212087 67.1943948,55.6430094 67.0840758,55.7939526 C66.9740052,55.945145 66.8925083,56.1160147 66.8400819,56.3063128 C66.7874071,56.4963618 66.7613181,56.6918906 66.7613181,56.8921519 C66.7613181,57.0894243 66.7874071,57.2839567 66.8400819,57.4759984 M66.5222936,56.1735525 C66.5936034,55.9458922 66.7004439,55.7448836 66.842815,55.5697795 C66.9849377,55.3949245 67.1638334,55.255439 67.3790052,55.1518212 C67.594177,55.0482033 67.844134,54.9963944 68.1288764,54.9963944 C68.4136187,54.9963944 68.6628304,55.0482033 68.8762629,55.1518212 C69.0899439,55.255439 69.2678457,55.3949245 69.4102169,55.5697795 C69.552588,55.7448836 69.6594285,55.9458922 69.7304899,56.1735525 C69.8017997,56.4014618 69.8373304,56.6408289 69.8373304,56.8921519 C69.8373304,57.143724 69.8017997,57.3833401 69.7304899,57.6110004 C69.6594285,57.8386607 69.552588,58.0391711 69.4102169,58.2125316 C69.2678457,58.3856431 69.0899439,58.5241323 68.8762629,58.6277501 C68.6628304,58.7313679 68.4136187,58.7831768 68.1288764,58.7831768 C67.844134,58.7831768 67.594177,58.7313679 67.3790052,58.6277501 C67.1638334,58.5241323 66.9849377,58.3856431 66.842815,58.2125316 C66.7004439,58.0391711 66.5936034,57.8386607 66.5222936,57.6110004 C66.4512322,57.3833401 66.4154531,57.143724 66.4154531,56.8921519 C66.4154531,56.6408289 66.4512322,56.4014618 66.5222936,56.1735525" id="Fill-51" fill="#000000" mask="url(#mask-2)"></path>
                    <path d="M71.9880046,56.80049 C72.0931058,56.80049 72.1929893,56.7845488 72.2879034,56.7521682 C72.3828175,56.7200367 72.4658052,56.6729604 72.537115,56.6119355 C72.6081764,56.5509106 72.6650752,56.4769334 72.7075629,56.3905022 C72.7495537,56.3035729 72.7709218,56.2041895 72.7709218,56.0921029 C72.7709218,55.8679298 72.706569,55.6913312 72.577615,55.562058 C72.448661,55.4330339 72.2521242,55.3682728 71.9880046,55.3682728 L70.6967255,55.3682728 L70.6967255,56.80049 L71.9880046,56.80049 Z M72.0135966,55.0726133 C72.1624279,55.0726133 72.3038052,55.0915435 72.437977,55.1286566 C72.5719003,55.1660188 72.6886794,55.2230584 72.7888113,55.2995263 C72.8886948,55.3759943 72.968204,55.4746305 73.0278359,55.5951858 C73.0869709,55.7159902 73.1167868,55.8577174 73.1167868,56.0206166 C73.1167868,56.251764 73.0574034,56.4525235 72.9386365,56.6221478 C72.8201181,56.7922703 72.6439555,56.9008697 72.4099003,56.9484443 L72.4099003,56.9586566 C72.5286672,56.9755941 72.6268113,57.0069784 72.7048298,57.0530584 C72.7825997,57.0986403 72.8462071,57.1574234 72.8954034,57.2286607 C72.9445997,57.300147 72.9801304,57.3825929 73.0022439,57.4759984 C73.0243574,57.5694038 73.0387684,57.6705308 73.045477,57.7791303 C73.0489555,57.8404042 73.0521856,57.9151286 73.0556641,58.0033034 C73.0591426,58.0919763 73.0658512,58.1811474 73.0760383,58.2708167 C73.0862255,58.3612332 73.1021273,58.4459208 73.1242408,58.5258759 C73.1463543,58.605831 73.1759218,58.6678522 73.2134402,58.7119396 L72.831796,58.7119396 C72.8114218,58.6780645 72.7955199,58.6362189 72.7835936,58.5871499 C72.7716672,58.5378318 72.7632193,58.4870192 72.75825,58.434214 C72.7530322,58.3816578 72.7490567,58.3295998 72.7455782,58.2787873 C72.7420997,58.2274765 72.7386212,58.1836382 72.7353911,58.1460269 C72.728434,58.0170029 72.71775,57.888726 72.7023451,57.7611964 C72.6869402,57.6339159 72.654888,57.5200857 72.6056917,57.419706 C72.5564954,57.3195753 72.485434,57.238873 72.3922592,57.1778481 C72.2988359,57.1165741 72.1708758,57.0894243 72.0083788,57.0961494 L70.6967255,57.0961494 L70.6967255,58.7119396 L70.3508604,58.7119396 L70.3508604,55.0726133 L72.0135966,55.0726133 Z" id="Fill-52" fill="#000000" mask="url(#mask-2)"></path>
                    <path d="M76.5688528,58.7119147 L76.5228865,58.0493585 L76.5126994,58.0493585 C76.4518252,58.1783826 76.3765399,58.2897219 76.2865951,58.3831274 C76.1968988,58.476782 76.0977607,58.5530008 75.989181,58.6125312 C75.8806012,58.6720617 75.7645675,58.7154018 75.6410798,58.7425517 C75.5173436,58.7694524 75.389135,58.7831519 75.2571994,58.7831519 C74.9722086,58.7831519 74.7222515,58.731343 74.5070798,58.6277252 C74.291908,58.5241074 74.1130123,58.3856182 73.9706411,58.2125067 C73.8285184,58.0391462 73.7216779,57.8386358 73.6503681,57.6109755 C73.5793067,57.3833152 73.5435276,57.1436991 73.5435276,56.892127 C73.5435276,56.6410531 73.5793067,56.4014369 73.6503681,56.1737766 C73.7216779,55.9461164 73.8285184,55.7448587 73.9706411,55.5697546 C74.1130123,55.3948996 74.291908,55.255414 74.5070798,55.1517962 C74.7222515,55.0481784 74.9722086,54.9963695 75.2571994,54.9963695 C75.4467791,54.9963695 75.6264202,55.0217758 75.7961227,55.0728375 C75.9653282,55.1236501 76.1163957,55.200118 76.2485798,55.3022413 C76.3805153,55.4041156 76.4923252,55.5299016 76.5842577,55.6791013 C76.6756933,55.8287991 76.7383067,56.0039032 76.7720982,56.2044136 L76.4264816,56.2044136 C76.4162945,56.0990523 76.3815092,55.9926946 76.3223742,55.8855896 C76.2629908,55.7787338 76.1832331,55.6810939 76.0833497,55.5926701 C75.9832178,55.5042462 75.8637055,55.4320127 75.7248129,55.3759694 C75.5856718,55.3199261 75.4298834,55.292029 75.2571994,55.292029 C75.0164356,55.292029 74.8097117,55.3378599 74.6367791,55.4295218 C74.4638466,55.5211837 74.3222209,55.6429845 74.2123988,55.7939277 C74.1020798,55.9453691 74.0205828,56.1159898 73.9681564,56.3062879 C73.9154816,56.4963369 73.8893926,56.6918657 73.8893926,56.892127 C73.8893926,57.0893993 73.9154816,57.2841809 73.9681564,57.4759735 C74.0205828,57.6680151 74.1020798,57.8396321 74.2123988,57.9905753 C74.3222209,58.1420167 74.4638466,58.2633193 74.6367791,58.3549812 C74.8097117,58.4468922 75.0164356,58.4927232 75.2571994,58.4927232 C75.4569663,58.4927232 75.635862,58.4595953 75.7933896,58.3933397 C75.9511656,58.3270841 76.0840951,58.234675 76.1924264,58.115365 C76.3010061,57.9968024 76.3822546,57.8555733 76.4366687,57.6924251 C76.4908344,57.5295259 76.5161779,57.3509347 76.5126994,57.1573985 L75.2775736,57.1573985 L75.2775736,56.8617391 L76.8180644,56.8617391 L76.8180644,58.7119147 L76.5688528,58.7119147 Z" id="Fill-53" fill="#000000" mask="url(#mask-2)"></path>
                    <path d="M8.94915828,0.915921601 L9.94302331,0.915921601 L9.94302331,7.56140955 L11.6127166,7.56140955 L11.6127166,8.42821233 L8.94915828,8.42821233 L8.94915828,0.915921601 Z" id="Fill-54" fill="#000000" mask="url(#mask-2)"></path>
                    <path d="M12.211719,3.39677093 L13.1459521,3.39677093 L13.1459521,6.54515802 L13.1459521,6.69460678 L13.1459521,6.86896366 C13.1459521,6.8923773 13.1476914,6.9454316 13.1509215,7.02837566 C13.1541515,7.1115688 13.1623509,7.16636668 13.1757681,7.19276929 C13.1891853,7.21942099 13.2038448,7.26599918 13.2207405,7.3322548 C13.2371393,7.39875949 13.2604951,7.44359412 13.2900626,7.46675868 C13.3198785,7.49017232 13.3549123,7.52006207 13.3944184,7.55642793 C13.434173,7.59304287 13.482127,7.617951 13.5385288,7.63115231 C13.5946822,7.64460269 13.6560534,7.65107881 13.7223939,7.65107881 C13.7887344,7.65107881 13.8501055,7.64460269 13.9062589,7.63115231 C13.9626607,7.617951 14.0088755,7.59628093 14.0454,7.56639118 C14.0816761,7.53650143 14.1149706,7.50835525 14.1447865,7.48170355 C14.1746025,7.45530094 14.1977098,7.41370437 14.2146055,7.35716292 C14.2310043,7.30087056 14.2444215,7.25603593 14.2543601,7.22265904 C14.2640503,7.18953124 14.2705104,7.13797142 14.273989,7.06822866 C14.277219,6.99848591 14.2789583,6.94717517 14.2789583,6.91379829 L14.2789583,6.74442303 L14.2789583,6.59497428 L14.2789583,3.39677093 L15.2131914,3.39677093 L15.2131914,6.79423928 C15.2131914,7.3521813 15.1053571,7.77736301 14.8901853,8.06953532 C14.674765,8.36195672 14.2988356,8.50791833 13.7621485,8.50791833 C13.132535,8.50791833 12.7168509,8.35199347 12.5150963,8.03964557 C12.3125963,7.72754675 12.211719,7.24607268 12.211719,6.59497428 L12.211719,3.39677093 Z" id="Fill-55" fill="#000000" mask="url(#mask-2)"></path>
                    <path d="M15.838258,3.39677093 L16.9315095,3.39677093 L17.6371537,5.12041323 L17.8756813,4.37316946 L18.2834144,3.39677093 L19.2574021,3.39677093 L18.1241475,5.7680245 L19.4959298,8.42821233 L18.3924911,8.42821233 L17.8955586,7.34221805 C17.7034942,6.88390853 17.5939206,6.56508452 17.5675831,6.38574602 L17.5479543,6.38574602 C17.528077,6.62486403 17.4152733,6.99350429 17.2100402,7.4916668 L16.8124942,8.42821233 L15.838258,8.42821233 L17.0905279,5.7680245 L15.838258,3.39677093 Z" id="Fill-56" fill="#000000" mask="url(#mask-2)"></path>
                    <path d="M19.9906261,3.39677093 L20.9248592,3.39677093 L20.9248592,6.54515802 L20.9248592,6.69460678 L20.9248592,6.86896366 C20.9248592,6.8923773 20.9265985,6.9454316 20.9298285,7.02837566 C20.9330586,7.1115688 20.941258,7.16636668 20.9546752,7.19276929 C20.9680923,7.21942099 20.9827518,7.26599918 20.9996475,7.3322548 C21.0160463,7.39875949 21.0394021,7.44359412 21.0689696,7.46675868 C21.0987856,7.49017232 21.1338193,7.52006207 21.1733255,7.55642793 C21.2130801,7.59304287 21.261034,7.617951 21.3174359,7.63115231 C21.3735893,7.64460269 21.4349604,7.65107881 21.5013009,7.65107881 C21.5676414,7.65107881 21.6290126,7.64460269 21.685166,7.63115231 C21.7415678,7.617951 21.7877825,7.59628093 21.8243071,7.56639118 C21.8605831,7.53650143 21.8938776,7.50835525 21.9236936,7.48170355 C21.9535095,7.45530094 21.9766169,7.41370437 21.9935126,7.35716292 C22.0099113,7.30087056 22.0233285,7.25603593 22.0332672,7.22265904 C22.0429574,7.18953124 22.0494175,7.13797142 22.052896,7.06822866 C22.0561261,6.99848591 22.0578653,6.94717517 22.0578653,6.91379829 L22.0578653,6.74442303 L22.0578653,6.59497428 L22.0578653,3.39677093 L22.9920985,3.39677093 L22.9920985,6.79423928 C22.9920985,7.3521813 22.8842641,7.77736301 22.6690923,8.06953532 C22.4536721,8.36195672 22.0777426,8.50791833 21.5410555,8.50791833 C20.911442,8.50791833 20.495758,8.35199347 20.2940034,8.03964557 C20.0915034,7.72754675 19.9906261,7.24607268 19.9906261,6.59497428 L19.9906261,3.39677093 Z" id="Fill-57" fill="#000000" mask="url(#mask-2)"></path>
                    <path d="M24.8216301,3.39677093 L24.8216301,4.01449245 L24.8415074,4.01449245 C25.0735748,3.54970682 25.4278877,3.31706492 25.9049429,3.31706492 L25.9049429,4.2436472 L25.746173,4.23368395 C25.414719,4.23368395 25.1794215,4.32011515 25.0405288,4.49272846 C24.9011393,4.66559085 24.8315687,4.92114822 24.8315687,5.25989873 L24.8315687,8.42821233 L23.8873969,8.42821233 L23.8873969,3.39677093 L24.8216301,3.39677093 Z" id="Fill-58" fill="#000000" mask="url(#mask-2)"></path>
                    <path d="M26.3830417,3.39677093 L27.4266,3.39677093 L28.1620601,6.90383503 L28.1819374,6.90383503 L29.0267227,3.39677093 L29.970646,3.39677093 L27.9235325,10.4906051 L26.9396061,10.4906051 L27.7145724,8.01971907 L26.3830417,3.39677093 Z" id="Fill-59" fill="#000000" mask="url(#mask-2)"></path>
                    <path d="M32.9523405,0.915921601 L33.9462055,0.915921601 L33.9462055,3.84511719 L35.4469417,3.84511719 L35.4469417,0.915921601 L36.4408067,0.915921601 L36.4408067,8.42821233 L35.4469417,8.42821233 L35.4469417,4.71191997 L33.9462055,4.71191997 L33.9462055,8.42821233 L32.9523405,8.42821233 L32.9523405,0.915921601 Z" id="Fill-60" fill="#000000" mask="url(#mask-2)"></path>
                    <path d="M38.7136518,7.60634381 C38.7765138,7.63623356 38.8478236,7.65117844 38.9270844,7.65117844 C39.006842,7.65117844 39.0779034,7.63623356 39.1410138,7.60634381 C39.2038758,7.57645406 39.2553083,7.53161944 39.2950629,7.47183993 C39.3348175,7.41206043 39.3710936,7.35078644 39.404388,7.2875198 C39.437434,7.22450225 39.4640199,7.14454716 39.4838972,7.0484018 C39.5037745,6.95225643 39.5186825,6.8675688 39.5286212,6.79433891 C39.5385598,6.72135811 39.5450199,6.63343242 39.54825,6.53031278 C39.5517285,6.42744222 39.5534678,6.34773622 39.5534678,6.29119477 L39.5534678,6.07698489 L39.5534678,5.92753614 L39.5534678,5.76314251 L39.5534678,5.543951 C39.5534678,5.48765864 39.5517285,5.40620906 39.54825,5.29985137 C39.5450199,5.19349367 39.5385598,5.1040735 39.5286212,5.03084361 C39.5186825,4.9578628 39.5037745,4.87317517 39.4838972,4.77678073 C39.4640199,4.68038628 39.437434,4.60092936 39.404388,4.53766272 C39.3710936,4.47464516 39.3348175,4.41312209 39.2950629,4.35334259 C39.2553083,4.29356309 39.2038758,4.24872846 39.1410138,4.21883871 C39.0779034,4.18894896 39.006842,4.17400408 38.9270844,4.17400408 C38.8478236,4.17400408 38.7765138,4.18894896 38.7136518,4.21883871 C38.6505414,4.24872846 38.5993574,4.29356309 38.5596028,4.35334259 C38.5198482,4.41312209 38.4833236,4.47464516 38.4500291,4.53766272 C38.4169831,4.60092936 38.3906457,4.68038628 38.3707684,4.77678073 C38.3508911,4.87317517 38.3357347,4.9578628 38.325796,5.03084361 C38.3158574,5.1040735 38.3093972,5.19349367 38.3059187,5.29985137 C38.3026887,5.40620906 38.3011979,5.48765864 38.3011979,5.543951 L38.3011979,5.76314251 L38.3011979,5.92753614 L38.3011979,6.07698489 L38.3011979,6.29119477 C38.3011979,6.34773622 38.3026887,6.42744222 38.3059187,6.53031278 C38.3093972,6.63343242 38.3158574,6.72135811 38.325796,6.79433891 C38.3357347,6.8675688 38.3508911,6.95225643 38.3707684,7.0484018 C38.3906457,7.14454716 38.4169831,7.22450225 38.4500291,7.2875198 C38.4833236,7.35078644 38.5198482,7.41206043 38.5596028,7.47183993 C38.5993574,7.53161944 38.6505414,7.57645406 38.7136518,7.60634381 M39.6379463,8.33366109 C39.4356948,8.44973295 39.1989064,8.50801797 38.9270844,8.50801797 C38.6555107,8.50801797 38.4187224,8.44973295 38.2167193,8.33366109 C38.0147163,8.21758922 37.8589279,8.07636015 37.7496028,7.91022295 C37.6402776,7.74433483 37.5540598,7.53660106 37.4911979,7.2875198 C37.4280874,7.03843855 37.3883328,6.81252185 37.371934,6.61001878 C37.3552868,6.40751572 37.3470874,6.17985545 37.3470874,5.92753614 C37.3470874,5.66849163 37.3552868,5.43609882 37.371934,5.23010862 C37.3883328,5.0243675 37.4280874,4.79496366 37.4911979,4.54264434 C37.5540598,4.29032503 37.6402776,4.08109677 37.7496028,3.91495958 C37.8589279,3.74907146 38.0147163,3.60784238 38.2167193,3.49152144 C38.4187224,3.37544957 38.6555107,3.31716456 38.9270844,3.31716456 C39.1989064,3.31716456 39.4356948,3.37544957 39.6379463,3.49152144 C39.8399494,3.60784238 39.9957377,3.74907146 40.1050629,3.91495958 C40.214388,4.08109677 40.3003574,4.29032503 40.3634678,4.54264434 C40.4263298,4.79496366 40.4660844,5.0243675 40.4827316,5.23010862 C40.4993788,5.43609882 40.5075782,5.66849163 40.5075782,5.92753614 C40.5075782,6.17985545 40.4993788,6.40751572 40.4827316,6.61001878 C40.4660844,6.81252185 40.4263298,7.03843855 40.3634678,7.2875198 C40.3003574,7.53660106 40.214388,7.74433483 40.1050629,7.91022295 C39.9957377,8.07636015 39.8399494,8.21758922 39.6379463,8.33366109" id="Fill-61" fill="#000000" mask="url(#mask-2)"></path>
                    <path d="M43.2207552,3.53628134 L43.2207552,4.42301062 C43.0217337,4.24367211 42.7899147,4.15400286 42.5248012,4.15400286 C42.3459055,4.15400286 42.195335,4.20232462 42.0728411,4.29846999 C41.9500988,4.39486443 41.8889761,4.52613026 41.8889761,4.69201837 C41.8954362,4.84495427 41.9533288,4.98593426 42.0629025,5.11545651 C42.1719791,5.24497877 42.3029209,5.36304328 42.4554791,5.4691519 C42.607789,5.5755096 42.7600988,5.69008697 42.9126571,5.81288403 C43.0649669,5.93593018 43.1941693,6.10032381 43.300016,6.30606492 C43.406111,6.51205512 43.4592828,6.74793508 43.4592828,7.0134557 C43.4592828,7.4585639 43.3298319,7.81898448 43.071427,8.09446835 C42.8130221,8.37020131 42.4619393,8.50794324 42.0179301,8.50794324 C41.7398963,8.50794324 41.4680742,8.42823724 41.2032092,8.26882523 L41.2032092,7.35220621 C41.4680742,7.5649216 41.7264791,7.67103022 41.9784239,7.67103022 C42.1771969,7.67103022 42.331246,7.61473785 42.4403227,7.50165496 C42.5498963,7.38882115 42.6045589,7.2326472 42.6045589,7.0333822 C42.6045589,6.87397019 42.5498963,6.72626501 42.4403227,6.59001756 C42.331246,6.45401919 42.2003043,6.33097305 42.047746,6.2213773 C41.8954362,6.11178154 41.7431264,5.99396611 41.5905681,5.86768191 C41.4382583,5.74164679 41.307565,5.57874765 41.1979914,5.37948265 C41.0889147,5.18021764 41.0340037,4.95106288 41.0340037,4.69201837 C41.0340037,4.29348836 41.1582368,3.9647011 41.4067031,3.70565659 C41.6551693,3.44661209 41.9784239,3.31708983 42.3759699,3.31708983 C42.6940067,3.31708983 42.975519,3.39031972 43.2207552,3.53628134" id="Fill-62" fill="#000000" mask="url(#mask-2)"></path>
                    <path d="M44.3376359,1.97210086 L45.2721175,1.97210086 L45.2721175,3.39684565 L45.76905,3.39684565 L45.76905,4.13412617 L45.2721175,4.13412617 L45.2721175,8.42828706 L44.3376359,8.42828706 L44.3376359,4.13412617 L43.8310132,4.13412617 L43.8310132,3.39684565 L44.3376359,3.39684565 L44.3376359,1.97210086 Z" id="Fill-63" fill="#000000" mask="url(#mask-2)"></path>
                    <path d="M47.16225,5.42932381 L48.2753788,5.42932381 C48.2753788,4.57920947 48.0865445,4.15402777 47.7088758,4.15402777 C47.5761948,4.15402777 47.4703482,4.19238628 47.390839,4.26860514 C47.3113298,4.34507309 47.2566672,4.45965047 47.2268512,4.61233728 C47.1970353,4.76527317 47.1786488,4.88807023 47.1721887,4.98097754 C47.1654801,5.07413393 47.16225,5.20016905 47.16225,5.35958105 L47.16225,5.42932381 Z M49.2294893,6.09686158 L47.16225,6.09686158 C47.16225,7.14649 47.3575445,7.67105512 47.7486304,7.67105512 C48.1397163,7.67105512 48.3350107,7.35895631 48.3350107,6.7345096 L49.1996733,6.7345096 C49.1996733,7.2461225 49.0804095,7.66956064 48.8418819,8.00482401 C48.6033543,8.34033646 48.2356242,8.50796815 47.7386917,8.50796815 C47.4735782,8.50796815 47.2417592,8.4514267 47.0429862,8.3385929 C46.8442132,8.22575909 46.6933942,8.08627358 46.5907776,7.92013638 C46.4879126,7.75424826 46.4069126,7.54825806 46.3472807,7.30241486 C46.2876488,7.05682074 46.249385,6.83264761 46.2329862,6.62989547 C46.216339,6.42739241 46.2081396,6.19998122 46.2081396,5.94741282 C46.2081396,5.7416717 46.2131089,5.555608 46.2230475,5.3894708 C46.2329862,5.22358269 46.2546028,5.03253736 46.2876488,4.81658391 C46.3206948,4.60087954 46.3721273,4.40983422 46.4416979,4.24369702 C46.5112684,4.0778089 46.598977,3.92163495 46.7050721,3.77542425 C46.8109187,3.62946264 46.9500598,3.51637975 47.1224954,3.43667374 C47.2946825,3.35696774 47.4902255,3.31711474 47.7088758,3.31711474 C48.7226181,3.31711474 49.2294893,4.19388077 49.2294893,5.94741282 L49.2294893,6.09686158 Z" id="Fill-64" fill="#000000" mask="url(#mask-2)"></path>
                    <path d="M49.980727,8.42816252 L50.9152086,8.42816252 L50.9152086,0.158664761 L49.980727,0.158664761 L49.980727,8.42816252 Z" id="Fill-65" fill="#000000" mask="url(#mask-2)"></path>
                    <path d="M55.0292135,2.6594904 L55.0888454,3.14768967 L55.2381736,5.668392 L55.2381736,8.42821233 L54.2443086,8.42821233 L54.2443086,0.915921601 L55.198419,0.915921601 L56.9476215,6.62486403 L56.9674988,6.60493753 L56.7289712,3.59603593 L56.7289712,0.915921601 L57.7228362,0.915921601 L57.7228362,8.42821233 L56.7982933,8.42821233 L55.0490908,2.6395639 L55.0292135,2.6594904 Z" id="Fill-66" fill="#000000" mask="url(#mask-2)"></path>
                    <path d="M59.9907617,7.60634381 C60.0536236,7.63623356 60.1249334,7.65117844 60.2041942,7.65117844 C60.2839518,7.65117844 60.3550132,7.63623356 60.4181236,7.60634381 C60.4809856,7.57645406 60.5324181,7.53161944 60.5721727,7.47183993 C60.6119273,7.41206043 60.6482034,7.35078644 60.6814979,7.2875198 C60.7145439,7.22450225 60.7411298,7.14454716 60.7610071,7.0484018 C60.7808844,6.95225643 60.7957923,6.8675688 60.805731,6.79433891 C60.8156696,6.72135811 60.8221298,6.63343242 60.8253598,6.53031278 C60.8288383,6.42744222 60.8305776,6.34773622 60.8305776,6.29119477 L60.8305776,6.07698489 L60.8305776,5.92753614 L60.8305776,5.76314251 L60.8305776,5.543951 C60.8305776,5.48765864 60.8288383,5.40620906 60.8253598,5.29985137 C60.8221298,5.19349367 60.8156696,5.1040735 60.805731,5.03084361 C60.7957923,4.9578628 60.7808844,4.87317517 60.7610071,4.77678073 C60.7411298,4.68038628 60.7145439,4.60092936 60.6814979,4.53766272 C60.6482034,4.47464516 60.6119273,4.41312209 60.5721727,4.35334259 C60.5324181,4.29356309 60.4809856,4.24872846 60.4181236,4.21883871 C60.3550132,4.18894896 60.2839518,4.17400408 60.2041942,4.17400408 C60.1249334,4.17400408 60.0536236,4.18894896 59.9907617,4.21883871 C59.9276512,4.24872846 59.8764672,4.29356309 59.8367126,4.35334259 C59.796958,4.41312209 59.7604334,4.47464516 59.727139,4.53766272 C59.6940929,4.60092936 59.6677555,4.68038628 59.6478782,4.77678073 C59.6280009,4.87317517 59.6128445,4.9578628 59.6029058,5.03084361 C59.5929672,5.1040735 59.5865071,5.19349367 59.5830285,5.29985137 C59.5797985,5.40620906 59.5783077,5.48765864 59.5783077,5.543951 L59.5783077,5.76314251 L59.5783077,5.92753614 L59.5783077,6.07698489 L59.5783077,6.29119477 C59.5783077,6.34773622 59.5797985,6.42744222 59.5830285,6.53031278 C59.5865071,6.63343242 59.5929672,6.72135811 59.6029058,6.79433891 C59.6128445,6.8675688 59.6280009,6.95225643 59.6478782,7.0484018 C59.6677555,7.14454716 59.6940929,7.22450225 59.727139,7.2875198 C59.7604334,7.35078644 59.796958,7.41206043 59.8367126,7.47183993 C59.8764672,7.53161944 59.9276512,7.57645406 59.9907617,7.60634381 M60.9150561,8.33366109 C60.7128046,8.44973295 60.4760163,8.50801797 60.2041942,8.50801797 C59.9326206,8.50801797 59.6958322,8.44973295 59.4938291,8.33366109 C59.2918261,8.21758922 59.1360377,8.07636015 59.0267126,7.91022295 C58.9173874,7.74433483 58.8311696,7.53660106 58.7683077,7.2875198 C58.7051972,7.03843855 58.6654426,6.81252185 58.6490439,6.61001878 C58.6323966,6.40751572 58.6241972,6.17985545 58.6241972,5.92753614 C58.6241972,5.66849163 58.6323966,5.43609882 58.6490439,5.23010862 C58.6654426,5.0243675 58.7051972,4.79496366 58.7683077,4.54264434 C58.8311696,4.29032503 58.9173874,4.08109677 59.0267126,3.91495958 C59.1360377,3.74907146 59.2918261,3.60784238 59.4938291,3.49152144 C59.6958322,3.37544957 59.9326206,3.31716456 60.2041942,3.31716456 C60.4760163,3.31716456 60.7128046,3.37544957 60.9150561,3.49152144 C61.1170592,3.60784238 61.2728475,3.74907146 61.3821727,3.91495958 C61.4914979,4.08109677 61.5774672,4.29032503 61.6405776,4.54264434 C61.7034396,4.79496366 61.7431942,5.0243675 61.7598414,5.23010862 C61.7764887,5.43609882 61.784688,5.66849163 61.784688,5.92753614 C61.784688,6.17985545 61.7764887,6.40751572 61.7598414,6.61001878 C61.7431942,6.81252185 61.7034396,7.03843855 61.6405776,7.2875198 C61.5774672,7.53660106 61.4914979,7.74433483 61.3821727,7.91022295 C61.2728475,8.07636015 61.1170592,8.21758922 60.9150561,8.33366109" id="Fill-67" fill="#000000" mask="url(#mask-2)"></path>
                    <path d="M65.1835574,0.915921601 L66.8930052,0.915921601 L66.8930052,8.42821233 L65.9190175,8.42821233 L65.9190175,1.78272438 L65.1835574,1.78272438 L65.1835574,0.915921601 Z" id="Fill-68" fill="#000000" mask="url(#mask-2)"></path>
                    <path d="M70.269115,5.628539 L70.269115,2.4402989 L70.2492377,2.4402989 L69.0367224,5.628539 L70.269115,5.628539 Z M71.2431028,0.915921601 L71.2431028,5.628539 L71.720158,5.628539 L71.720158,6.36581952 L71.2431028,6.36581952 L71.2431028,8.42821233 L70.269115,8.42821233 L70.269115,6.36581952 L68.251569,6.36581952 L68.251569,5.50897999 L70.269115,0.915921601 L71.2431028,0.915921601 Z" id="Fill-69" fill="#000000" mask="url(#mask-2)"></path>
                    <path d="M26.0435871,43.503835 L26.0435871,46.0643904 C26.4543018,46.0843169 26.7375534,45.9931531 26.8933417,45.7906501 C27.0488816,45.5878979 27.1266515,45.2673303 27.1266515,44.8289473 C27.1266515,44.3706378 27.0523601,44.0336309 26.9032804,43.8179265 C26.7539521,43.6022221 26.4674706,43.497608 26.0435871,43.503835 M27.097084,41.3716995 C27.097084,41.0396742 27.0290043,40.7676774 26.8933417,40.5547129 C26.7574307,40.3424957 26.530581,40.2396252 26.2125442,40.2461013 L26.0435871,40.2461013 L26.0435871,42.7070241 C26.4674706,42.7269506 26.7492313,42.62408 26.8881239,42.3981633 C27.0275135,42.1722466 27.097084,41.830009 27.097084,41.3716995 M26.2920534,46.9115157 L25.0994153,46.9115157 L25.0994153,39.399225 L26.3417466,39.399225 C26.9842804,39.399225 27.4332589,39.5651131 27.6884337,39.8973875 C27.9433601,40.2294128 28.0710718,40.7343005 28.0710718,41.4118016 C28.0710718,41.6907726 28.0494552,41.9316341 28.0062221,42.1338881 C27.9632374,42.3366403 27.8688202,42.5274365 27.723219,42.7070241 C27.5773693,42.8863626 27.3785963,43.0094087 27.1266515,43.0754153 L27.1266515,43.0953418 C27.524446,43.221626 27.7992497,43.4308542 27.951808,43.7232756 C28.1041178,44.0154479 28.1803969,44.3940514 28.1803969,44.8588371 C28.1803969,45.569715 28.0345472,46.0895476 27.7430963,46.4180857 C27.4513969,46.7471221 26.9678816,46.9115157 26.2920534,46.9115157" id="Fill-70" fill="#000000" mask="url(#mask-2)"></path>
                    <path d="M29.174411,39.3991004 L30.1682761,39.3991004 L30.1682761,44.9087779 C30.1682761,45.3606113 30.2276595,45.6677285 30.3471718,45.8303785 C30.4661871,45.9932777 30.6386227,46.0744782 30.8639816,46.0744782 C31.1753098,46.0744782 31.3773129,45.9897905 31.4699908,45.8204153 C31.5626687,45.65104 31.6126104,45.3835267 31.619319,45.0183736 L31.619319,39.3991004 L32.613184,39.3991004 L32.613184,44.7294394 C32.613184,44.9287044 32.6114448,45.0781531 32.6079663,45.1777856 C32.6047362,45.2774181 32.5933067,45.4218853 32.5734294,45.6109379 C32.5535521,45.8004888 32.5234877,45.9466995 32.4837331,46.04957 C32.4439785,46.1524406 32.3811166,46.2752376 32.2951472,46.4182103 C32.2089294,46.5611829 32.1063129,46.6690351 31.9868006,46.7417668 C31.8677853,46.8149967 31.715227,46.8780143 31.5296227,46.9313177 C31.3440184,46.984372 31.1323252,47.0110237 30.8937975,47.0110237 C30.588681,47.0110237 30.3272945,46.9676835 30.1086442,46.8815014 C29.8899939,46.7950702 29.7207883,46.6857236 29.601773,46.5527142 C29.4822607,46.4199539 29.3895828,46.2406154 29.3234908,46.0146987 C29.2571503,45.788782 29.2156564,45.571334 29.1992577,45.3618567 C29.182362,45.1528775 29.174411,44.8923385 29.174411,44.5799906 L29.174411,39.3991004 Z" id="Fill-71" fill="#000000" mask="url(#mask-2)"></path>
                    <path d="M36.3398798,43.2846684 L36.3398798,43.0854034 L36.3398798,42.5473879 C36.3398798,42.4213528 36.3299411,42.2405198 36.3100638,42.0043908 C36.2901865,41.7687599 36.2621098,41.5809526 36.2255853,41.4417162 C36.1893092,41.3019816 36.1326589,41.1425696 36.0566282,40.9634802 C35.9805975,40.7838926 35.8879196,40.6478942 35.778346,40.5547379 C35.6690209,40.4618305 35.5281405,40.3838681 35.3559534,40.3208506 C35.1837663,40.257833 34.9884718,40.2326758 34.7698215,40.2461262 L34.7698215,46.0644153 C34.9884718,46.0713895 35.182027,46.0462323 35.3512325,45.9896909 C35.5199411,45.9333985 35.6590822,45.8668938 35.7684074,45.790675 C35.877981,45.714207 35.9706589,45.5961425 36.0466896,45.4369796 C36.1229687,45.2773185 36.1808613,45.137833 36.2208644,45.018274 C36.260619,44.898715 36.2884472,44.7261017 36.3050945,44.500185 C36.3217417,44.2745174 36.3316804,44.101655 36.3349104,43.982345 C36.3381405,43.862537 36.3398798,43.6799604 36.3398798,43.4343663 L36.3398798,43.2846684 Z M33.7759564,39.3990008 L34.8888368,39.3990008 C35.101027,39.3990008 35.2714748,39.4039824 35.4009258,39.4139457 C35.5298798,39.4239089 35.6938675,39.4537987 35.8926405,39.5036149 C36.0914135,39.5536803 36.2519227,39.6281556 36.3749135,39.7280372 C36.4974074,39.8274206 36.6295914,39.9718877 36.772211,40.1611895 C36.9145822,40.3507403 37.0256466,40.5798951 37.1051558,40.8489028 C37.184665,41.1179106 37.2527448,41.4581556 37.3088982,41.8698869 C37.3653,42.2818673 37.3933767,42.7533781 37.3933767,43.2846684 C37.3933767,43.7696296 37.3687785,44.199793 37.3188368,44.5751584 C37.2691436,44.9502748 37.2060331,45.2658608 37.1302509,45.5214181 C37.0537233,45.7772246 36.9429074,45.993178 36.7970577,46.1690294 C36.651208,46.3451298 36.5090853,46.4813773 36.3696957,46.5777717 C36.2308031,46.6739171 36.0449503,46.7468979 35.8131313,46.7969633 C35.5810638,46.8467795 35.3723521,46.8781637 35.1869963,46.891365 C35.001392,46.9048154 34.7598828,46.9115406 34.4614748,46.9115406 L33.7759564,46.9115406 L33.7759564,39.3990008 Z" id="Fill-72" fill="#000000" mask="url(#mask-2)"></path>
                    <path d="M40.4165402,44.6697097 L40.2177672,43.5837154 L39.8403469,40.8537848 L39.8204696,40.8537848 L39.2239021,44.6697097 L40.4165402,44.6697097 Z M39.4524911,39.3991503 L40.2376445,39.3991503 L41.8479543,46.911441 L40.8441506,46.911441 L40.5658684,45.4468432 L39.0750709,45.4468432 L38.7965402,46.911441 L37.8228009,46.911441 L39.4524911,39.3991503 Z" id="Fill-73" fill="#000000" mask="url(#mask-2)"></path>
                    <path d="M43.7698656,40.2460764 L43.6307245,40.2460764 L43.6307245,42.7368889 C44.0414393,42.7632915 44.3264301,42.6736223 44.4854485,42.4678812 C44.6444669,42.2621401 44.7239761,41.9363418 44.7239761,41.4914826 C44.7239761,40.6610457 44.4059393,40.2460764 43.7698656,40.2460764 L43.7698656,40.2460764 Z M43.6307245,46.9114908 L42.6368595,46.9114908 L42.6368595,39.3992001 L43.8294975,39.3992001 C44.0481479,39.3992001 44.2287828,39.4056762 44.371154,39.4191266 C44.5135252,39.4323279 44.6824822,39.4771625 44.8780252,39.5536305 C45.0733196,39.6298493 45.229108,39.7344635 45.3451417,39.8672238 C45.4611755,40.0004822 45.5620528,40.1980037 45.6482706,40.4600372 C45.7342399,40.7225688 45.777473,41.0398983 45.777473,41.4117766 C45.777473,42.1889102 45.6100067,42.7518338 45.2755712,43.1005476 C44.9408871,43.4490122 44.3925221,43.6104169 43.6307245,43.5835161 L43.6307245,46.9114908 Z" id="Fill-74" fill="#000000" mask="url(#mask-2)"></path>
                    <path d="M46.5951755,39.3991004 L49.2686724,39.3991004 L49.2686724,40.2656541 L47.5890405,40.2656541 L47.5890405,42.6271935 L49.0897767,42.6271935 L49.0897767,43.4937472 L47.5890405,43.4937472 L47.5890405,46.0445884 L49.2686724,46.0445884 L49.2686724,46.9113912 L46.5951755,46.9113912 L46.5951755,39.3991004 Z" id="Fill-75" fill="#000000" mask="url(#mask-2)"></path>
                    <path d="M52.5908899,39.5484496 L52.5809512,40.5547379 C52.2892518,40.3425206 52.0077396,40.2361629 51.7364144,40.2361629 C51.4710525,40.2361629 51.2576199,40.3308138 51.095123,40.5198665 C50.9326261,40.7091682 50.8516261,40.9368285 50.8516261,41.2025982 C50.8516261,41.5079718 50.944304,41.7802176 51.1299083,42.0193356 L51.8852457,42.8462854 C52.2693745,43.2383393 52.5429359,43.5853095 52.7051844,43.8874451 C52.8674328,44.1898297 52.9486813,44.5766529 52.9486813,45.0481637 C52.9486813,45.5996296 52.7896629,46.0644153 52.4718745,46.4432679 C52.1535893,46.8216223 51.7264758,47.0109241 51.1895402,47.0109241 C50.7589482,47.0109241 50.3944482,46.891365 50.0962887,46.6524961 L50.0962887,45.6459588 C50.4473715,45.9052523 50.7753469,46.0345255 51.080215,46.0345255 C51.3719144,46.0345255 51.5905647,45.9351421 51.7364144,45.735628 C51.8817672,45.536363 51.9548163,45.2872817 51.9548163,44.9883842 C51.9548163,44.7161384 51.8835064,44.4605811 51.7411353,44.221463 C51.5987641,43.982345 51.4230985,43.7663916 51.2143868,43.5736027 C51.0056752,43.3810629 50.7984543,43.1817979 50.5932212,42.9760568 C50.387988,42.7700666 50.2140617,42.5174982 50.071442,42.2188497 C49.9288224,41.9199522 49.857761,41.5879269 49.857761,41.2225247 C49.857761,40.6643336 50.0036107,40.2045296 50.2950617,39.8426145 C50.586761,39.4806995 51.0009543,39.2993683 51.5373929,39.2993683 C51.9615248,39.2993683 52.3126077,39.3825615 52.5908899,39.5484496" id="Fill-76" fill="#000000" mask="url(#mask-2)"></path>
                    <path d="M53.3333816,39.3991004 L56.6230748,39.3991004 L56.6230748,40.2656541 L55.5000074,40.2656541 L55.5000074,46.9113912 L54.5061423,46.9113912 L54.5061423,40.2656541 L53.3333816,40.2656541 L53.3333816,39.3991004 Z" id="Fill-77" fill="#000000" mask="url(#mask-2)"></path>
                    <path d="M25.0362055,51.503528 L55.2792699,51.503528 L55.2792699,50.5072029 L25.0362055,50.5072029 L25.0362055,51.503528 Z" id="Fill-78" fill="#000000" mask="url(#mask-2)"></path>
                </g>
            </g>
        </g>
    </g>
</svg>