<?xml version="1.0" encoding="UTF-8" standalone="no"?>
<svg width="90px" height="90px" viewBox="0 0 90 90" version="1.1" xmlns="http://www.w3.org/2000/svg" xmlns:xlink="http://www.w3.org/1999/xlink">
    <!-- Generator: Sketch 3.6.1 (26313) - http://www.bohemiancoding.com/sketch -->
    <title>aventura-awards-05</title>
    <desc>Created with Sketch.</desc>
    <defs>
        <path id="path-1" d="M2.76249888,2.96146501 L0.0673258427,2.96146501 L0.0673258427,0.25189218 L2.76249888,0.25189218 L2.76249888,2.96146501 L2.76249888,2.96146501 Z"></path>
    </defs>
    <g id="kit" stroke="none" stroke-width="1" fill="none" fill-rule="evenodd">
        <g id="aventura-awards-05">
            <g id="q" transform="translate(16.000000, 12.000000)">
                <g id="Group-150" transform="translate(0.000000, 0.284063)">
                    <g id="Group-3"></g>
                    <path d="M0,26.522763 C0,11.8897348 11.7971236,0.0321705823 26.3486292,0.0321705823 C40.900764,0.0321705823 52.696,11.8897348 52.696,26.522763 C52.696,41.1516789 40.900764,53.0133553 26.3486292,53.0133553 C11.7971236,53.0133553 0,41.1516789 0,26.522763 Z M24.3197933,45.4851544 C36.0533663,45.4851544 45.5661303,35.9225516 45.5661303,24.1244571 C45.5661303,12.3285769 36.0533663,2.76217822 24.3197933,2.76217822 C12.5868494,2.76217822 3.07408539,12.3285769 3.07408539,24.1244571 C3.07408539,35.9225516 12.5868494,45.4851544 24.3197933,45.4851544 Z" id="Combined-Shape" fill="#F49301"></path>
                    <path d="M10.4718742,57.3622993 L13.0890876,55.2198081 C15.8636045,52.9805205 27.7006831,50.2920467 29.3813124,50.7766616 L39.0878742,54.0512916 C41.9832,54.9923681 44.2823461,55.6360961 45.9894022,55.9827918 C47.0222562,56.1798643 47.9685933,56.2785587 48.8299865,56.2785587 C49.8867506,56.2785587 50.8614022,56.1580377 51.7555146,55.9185772 C52.649627,55.6788004 53.9857618,55.140726 55.7698966,54.2983439 L55.9378966,54.2186292 L55.9378966,56.7653879 L51.5648629,59.8644557 C49.5041888,61.3009022 48.0774472,62.2154072 47.2975371,62.5991134 C46.7576719,62.8331963 46.1297169,62.9492887 45.4218517,62.9492887 C43.7506607,62.9492887 41.8605034,62.7281753 39.752009,62.2846831 C37.6498067,61.8427725 34.2221663,60.8011036 29.4700315,59.1590437 C26.0222562,57.9750271 23.6413124,57.2379823 22.3272,56.9482256 C21.0149753,56.6597343 19.9059865,56.5164376 18.9977169,56.5164376 C17.9425258,56.5164376 16.9631551,56.6863058 16.0583461,57.025726 C15.1544809,57.3648299 13.9599191,58.0778338 12.4718292,59.1739111 L12.3909753,59.2330645 L10.4718742,57.3622993 Z" id="Fill-4" fill="#F49301"></path>
                    <path d="M12.6453978,30.3832645 C12.8568135,30.3911727 12.954027,30.3187335 12.954027,30.1355795 L12.954027,28.5751322 C12.954027,28.3780597 12.909982,28.3302942 12.6479146,28.2939164 L12.6479146,28.1803546 C12.8675101,28.1803546 13.0399146,28.193324 13.1591506,28.193324 C13.2953753,28.193324 13.4636899,28.1838342 13.676364,28.1838342 L13.676364,28.3005593 C13.4394652,28.3005593 13.3790607,28.3473759 13.3790607,28.5476117 L13.3790607,29.1748906 L14.6271056,29.1748906 L14.6271056,28.4729582 C14.6271056,28.3369371 14.5490831,28.3078349 14.3389258,28.297396 L14.3389258,28.1838342 C14.5956449,28.1914261 14.7598697,28.1999669 14.8259371,28.1999669 C14.8671506,28.1999669 15.037982,28.1863648 15.3418921,28.1838342 L15.3418921,28.3005593 C15.1103416,28.3078349 15.0477348,28.3499065 15.0477348,28.5510913 L15.0477348,30.0780077 C15.0477348,30.3275907 15.090836,30.3857951 15.3456674,30.3857951 L15.3456674,30.5031529 C15.1373978,30.5104284 14.9747461,30.4968263 14.8548809,30.4968263 C14.7290382,30.4968263 14.5534876,30.5192856 14.3316899,30.5031529 L14.3316899,30.3857951 C14.5534876,30.3927543 14.6271056,30.3358152 14.6271056,30.1415897 L14.6271056,29.3447589 L13.3790607,29.3447589 L13.3790607,30.1074262 C13.3790607,30.3234784 13.4042292,30.3782032 13.676364,30.3857951 L13.676364,30.5031529 C13.4791056,30.5053672 13.3051281,30.4968263 13.1462517,30.4968263 C13.0367685,30.4968263 12.8697124,30.5192856 12.6453978,30.5031529 L12.6453978,30.3832645 Z" id="Fill-8" fill="#000000"></path>
                    <path d="M17.5540809,28.5977497 C17.3801034,28.3709424 17.1781258,28.2592785 16.9336764,28.2592785 C16.4620809,28.2592785 16.1414966,28.6129335 16.1414966,29.1835896 C16.1414966,29.4173562 16.1886876,29.6460615 16.2818112,29.8478789 C16.4428899,30.2059625 16.7279236,30.4065146 17.0437888,30.4065146 C17.4861258,30.4065146 17.8328225,30.0209105 17.8328225,29.4878974 C17.8328225,29.1427833 17.719564,28.8163325 17.5540809,28.5977497 M16.149991,30.3046569 C15.8445079,30.0569719 15.6878337,29.7358987 15.6878337,29.3569375 C15.6878337,29.0352317 15.8136764,28.7375668 16.0430247,28.5009533 C16.297227,28.2380845 16.6027101,28.1134512 16.989991,28.1134512 C17.3385753,28.1134512 17.6393393,28.2168905 17.859564,28.4057385 C18.1348449,28.6357091 18.2874292,28.9646905 18.2874292,29.2854473 C18.2874292,29.6065205 18.1672494,29.882675 17.9246876,30.133207 C17.6472045,30.4194841 17.2954742,30.5722706 16.9286427,30.5722706 C16.6388899,30.5722706 16.365182,30.4805354 16.149991,30.3046569" id="Fill-10" fill="#000000"></path>
                    <path d="M18.6859101,30.0008553 L18.8171011,30.0008553 C18.9045618,30.2874486 19.0870337,30.4326433 19.3418652,30.4326433 C19.6095955,30.4326433 19.8024494,30.2510709 19.8024494,30.0207839 C19.8024494,29.7756296 19.6231236,29.6721902 19.3119775,29.5162404 C18.9187191,29.3207495 18.7016404,29.1426567 18.7016404,28.7924814 C18.7016404,28.4075099 19.0049213,28.1187022 19.4582697,28.1187022 C19.6438876,28.1187022 19.811573,28.1680494 19.9918427,28.2727541 C19.9880674,28.421112 19.9918427,28.5640924 20.0003371,28.6960013 L19.8760674,28.6960013 C19.8216404,28.4075099 19.6574157,28.253458 19.4148539,28.253458 C19.1833034,28.253458 19.0300899,28.4125712 19.0300899,28.6235621 C19.0300899,28.7807772 19.1232135,28.9101555 19.3082022,29.003156 C19.6303596,29.1647997 19.8625393,29.2638105 19.9628989,29.3912907 C20.0786742,29.5368017 20.1343596,29.6800984 20.1343596,29.8480687 C20.1343596,30.2580301 19.8062247,30.5724604 19.3063146,30.5724604 C19.1200674,30.5724604 18.9240674,30.5288071 18.719573,30.4402352 C18.7151685,30.3004181 18.7066742,30.1533255 18.6859101,30.0008553" id="Fill-12" fill="#000000"></path>
                    <path d="M20.9175101,30.3928492 C21.1956225,30.3912676 21.2226787,30.3004814 21.2226787,29.9452448 L21.2226787,28.3338687 L21.0669483,28.3338687 C20.8180944,28.3338687 20.6762067,28.3556953 20.5940944,28.5012063 L20.494364,28.6669623 L20.3946337,28.6356458 C20.4446562,28.3851139 20.4698247,28.1804495 20.4764315,28.0232344 L20.5940944,28.0298772 C20.6664539,28.1757046 20.760836,28.1804495 20.9244315,28.1804495 L21.9620045,28.1804495 C22.1856899,28.1804495 22.3074427,28.1206635 22.3669034,28.0014077 L22.4814202,28.0140608 C22.4464989,28.1320513 22.4257348,28.337032 22.3933303,28.6312172 L22.2712629,28.6188804 C22.3074427,28.3610729 22.1973303,28.3338687 21.8216899,28.3338687 L21.6606112,28.3338687 L21.6606112,29.9167752 C21.6606112,30.2783384 21.6870382,30.38589 21.9576,30.38589 L21.9576,30.5007172 C21.7493303,30.5190642 21.5740944,30.4896457 21.4413303,30.4896457 C21.3101393,30.4896457 21.136791,30.5215948 20.9175101,30.5105233 L20.9175101,30.3928492 Z" id="Fill-14" fill="#000000"></path>
                    <path d="M22.7738157,30.4064513 L22.8939955,30.3928492 C23.0459506,30.3722879 23.0623101,30.2783384 23.0623101,30.0762046 L23.0623101,28.6264723 C23.0623101,28.3781546 23.0531865,28.3079298 22.7561978,28.293695 L22.7561978,28.1804495 C22.9600629,28.1839291 23.1658157,28.191521 23.3740854,28.191521 C23.5235236,28.191521 23.8850067,28.1839291 24.4582202,28.1804495 C24.4553888,28.3303891 24.4582202,28.4901348 24.4670292,28.6571562 L24.3421303,28.6628501 C24.345591,28.3734097 24.2188045,28.3174196 23.859209,28.3174196 C23.5206921,28.3174196 23.4873438,28.3338687 23.4873438,28.5764924 L23.4873438,29.2306593 C23.5298157,29.2319246 23.5663101,29.2306593 23.5933663,29.2306593 C23.8875236,29.2306593 24.0435685,29.2319246 24.0841528,29.083883 L24.1203326,28.9494434 L24.2260404,28.9494434 C24.2225798,29.1493629 24.2188045,29.2743126 24.2188045,29.3185985 C24.2188045,29.3878744 24.2317034,29.5090281 24.2260404,29.6722535 L24.109636,29.6618147 C24.1159281,29.4248848 24.0253213,29.3571906 23.7613663,29.3571906 C23.6748494,29.3571906 23.5861303,29.3606702 23.4873438,29.3679457 L23.4873438,30.0243268 C23.4873438,30.3080733 23.532018,30.3672266 23.7686022,30.3672266 L24.1662652,30.3672266 C24.2842427,30.3672266 24.3723326,30.323257 24.4283326,30.2350014 L24.5809169,29.989847 L24.709591,30.0300207 C24.6573663,30.1799603 24.6095461,30.3340122 24.5739955,30.4896457 C24.4478382,30.5032478 24.3493663,30.5105233 24.2726022,30.5105233 C24.0643326,30.5105233 23.8079281,30.5007172 23.5150292,30.5007172 C23.2312539,30.5007172 22.9864899,30.5215948 22.7738157,30.5339316 L22.7738157,30.4064513 Z" id="Fill-16" fill="#000000"></path>
                    <path d="M24.8946427,30.4064513 L25.0129348,30.3928492 C25.1664629,30.3722879 25.1831371,30.2783384 25.1831371,30.0762046 L25.1831371,28.5821864 C25.1831371,28.3623382 25.1397213,28.3079298 24.9106876,28.3006542 L24.9106876,28.1861434 C25.1283955,28.1839291 25.2916764,28.1997455 25.4005303,28.1997455 C25.5361258,28.1997455 25.7082157,28.1804495 25.9212045,28.191521 L25.9212045,28.3079298 C25.6871371,28.3079298 25.619182,28.3556953 25.619182,28.5534005 L25.619182,30.0056635 C25.619182,30.2783384 25.6959461,30.3564715 25.9885303,30.3564715 C26.2697888,30.3564715 26.4327551,30.3412877 26.534373,30.1745827 L26.6514067,29.989847 L26.7794517,30.0300207 C26.7354067,30.157501 26.6841258,30.3188284 26.6337888,30.5190642 C26.2062382,30.5051457 25.952036,30.5007172 25.8648899,30.5007172 C25.5905528,30.5007172 25.2658787,30.5105233 24.8946427,30.5339316 L24.8946427,30.4064513 Z" id="Fill-18" fill="#000000"></path>
                    <path d="M26.9624899,30.4064513 L27.0842427,30.3928492 C27.2339955,30.3722879 27.2516135,30.2783384 27.2516135,30.0762046 L27.2516135,28.5821864 C27.2516135,28.3623382 27.2091416,28.3079298 26.9819955,28.3006542 L26.9819955,28.1861434 C27.1981303,28.1839291 27.3623551,28.1997455 27.4708944,28.1997455 C27.6068045,28.1997455 27.7795236,28.1804495 27.9903101,28.191521 L27.9903101,28.3079298 C27.7543551,28.3079298 27.6908045,28.3556953 27.6908045,28.5534005 L27.6908045,30.0056635 C27.6908045,30.2783384 27.7659955,30.3564715 28.0582652,30.3564715 C28.3401528,30.3564715 28.5012315,30.3412877 28.6028494,30.1745827 L28.7205124,29.989847 L28.8504449,30.0300207 C28.8032539,30.157501 28.7529169,30.3188284 28.7035236,30.5190642 C28.2753438,30.5051457 28.0211416,30.5007172 27.9333663,30.5007172 C27.6590292,30.5007172 27.3359281,30.5105233 26.9624899,30.5339316 L26.9624899,30.4064513 Z" id="Fill-20" fill="#000000"></path>
                    <path d="M29.0402787,30.3832645 C29.2513798,30.3911727 29.3482787,30.3187335 29.3482787,30.1355795 L29.3482787,28.5751322 C29.3482787,28.3780597 29.3051775,28.3302942 29.0427955,28.2939164 L29.0427955,28.1803546 C29.2645933,28.1803546 29.4373124,28.193324 29.5606382,28.193324 C29.698436,28.193324 29.8714697,28.1838342 30.0835146,28.1838342 L30.0835146,28.3005593 C29.848818,28.3005593 29.7871551,28.3473759 29.7871551,28.5476117 L29.7871551,30.1074262 C29.7871551,30.3234784 29.8113798,30.3782032 30.0835146,30.3857951 L30.0835146,30.5031529 C29.8890876,30.5053672 29.7100764,30.4968263 29.5458517,30.4968263 C29.4436045,30.4968263 29.2759191,30.5129591 29.0402787,30.5031529 L29.0402787,30.3832645 Z" id="Fill-22" fill="#000000"></path>
                    <path d="M30.3601798,30.3912992 C30.6917753,30.3912992 30.7024719,30.258125 30.7024719,29.8440514 L30.7024719,28.6960962 C30.7024719,28.4076048 30.6301124,28.3209309 30.3013483,28.3066961 L30.3013483,28.186175 C30.4800449,28.1776342 30.6722697,28.2016751 30.8780225,28.2016751 C30.9343371,28.2016751 31.0038652,28.1997771 31.0906966,28.1934506 C31.6182921,28.828954 32.0851685,29.4043551 32.5297079,29.8997251 L32.5297079,28.5765241 C32.5297079,28.3819822 32.4925843,28.3136553 32.3201798,28.3006859 L32.2217079,28.2899307 L32.2217079,28.1804811 C32.4013483,28.1776342 32.5426067,28.1934506 32.6486292,28.1934506 C32.7345169,28.1934506 32.8559551,28.1804811 33.0157753,28.1836444 L33.0157753,28.3066961 C32.7785618,28.3066961 32.714382,28.3734413 32.714382,28.6116365 L32.714382,29.6801933 C32.714382,30.0398585 32.7184719,30.3356254 32.7238202,30.572239 L32.5466966,30.572239 C32.012809,29.8997251 31.4443146,29.2607421 30.8899775,28.6204937 L30.8899775,29.9557152 C30.8899775,30.1534204 30.8950112,30.2714108 30.9302472,30.3128498 C30.9714607,30.3596664 31.0573483,30.3789624 31.2004944,30.3912992 L31.2004944,30.510555 C31.0145618,30.5130856 30.8585169,30.4969528 30.7405393,30.4969528 C30.6499326,30.4969528 30.5240899,30.5190958 30.3601798,30.5051774 L30.3601798,30.3912992 Z" id="Fill-24" fill="#000000"></path>
                    <path d="M34.6297708,30.5395939 C34.2365124,30.5395939 33.8942202,30.4146442 33.651973,30.1868879 C33.4389843,29.9850705 33.3162876,29.7010077 33.3162876,29.3878428 C33.3162876,29.1173821 33.4078382,28.857993 33.5764674,28.6416244 C33.8184,28.3259288 34.1987596,28.149734 34.6426697,28.149734 C34.9550742,28.149734 35.2363326,28.2167956 35.4858157,28.3499698 C35.4814112,28.480297 35.5040629,28.6232774 35.5103551,28.7921967 L35.4018157,28.7921967 C35.2995685,28.4666949 35.0453663,28.2882858 34.695209,28.2882858 C34.1641528,28.2882858 33.7718382,28.7039411 33.7718382,29.3204648 C33.7718382,29.6279359 33.8681079,29.8996619 34.0436584,30.0989486 C34.2163775,30.3004497 34.4070292,30.3912359 34.6694112,30.3912359 C34.9774112,30.3912359 35.1460404,30.2530005 35.1460404,29.9967746 L35.1460404,29.8439881 C35.1460404,29.685824 35.0941303,29.6314155 34.9113438,29.618446 L34.7291865,29.602946 L34.7291865,29.5004556 C34.8918382,29.4903331 35.0346697,29.5108944 35.1601978,29.5108944 C35.3659506,29.5108944 35.5660404,29.5039352 35.7570067,29.5039352 L35.7570067,29.6067419 L35.6390292,29.6225583 C35.5286022,29.6383747 35.5194787,29.723467 35.5194787,29.9379376 C35.5194787,30.0208156 35.5223101,30.1574694 35.5345798,30.344103 C35.2445124,30.4766446 34.9446921,30.5395939 34.6297708,30.5395939" id="Fill-26" fill="#000000"></path>
                    <path d="M9.23943371,34.0565629 C9.45147865,34.0619405 9.54932135,33.9885524 9.54932135,33.8082453 L9.54932135,32.2468491 C9.54932135,32.0491439 9.5052764,32.0016947 9.24541124,31.9653169 L9.24541124,31.8508061 C9.46500674,31.8508061 9.63709663,31.8644082 9.75947865,31.8644082 C9.89979326,31.8644082 10.0718831,31.8571327 10.2839281,31.8571327 L10.2839281,31.9744904 C10.0492315,31.9744904 9.98505169,32.0178274 9.98505169,32.2183795 L9.98505169,33.7785104 C9.98505169,33.992981 10.0130517,34.0454914 10.2839281,34.0587772 L10.2839281,34.1729717 C10.0891865,34.178982 9.91080449,34.1679105 9.74846742,34.1679105 C9.64433258,34.1679105 9.47601798,34.1834106 9.23943371,34.1729717 L9.23943371,34.0565629 Z" id="Fill-28" fill="#000000"></path>
                    <path d="M10.5614427,34.061814 C10.8905213,34.061814 10.9031056,33.9286398 10.9031056,33.5142498 L10.9031056,32.3697742 C10.9031056,32.0784359 10.8316899,31.9904966 10.5026112,31.9762619 L10.5026112,31.8585878 C10.680364,31.8490979 10.873218,31.8725062 11.0789708,31.8725062 C11.1365438,31.8725062 11.2057573,31.8696593 11.2903865,31.864598 C11.8189258,32.4991525 12.2858022,33.0742372 12.7290831,33.5658113 L12.7290831,32.2489368 C12.7290831,32.0518643 12.6913303,31.9838538 12.5214427,31.9743639 L12.4210831,31.9632924 L12.4210831,31.8509959 C12.6007236,31.8490979 12.7426112,31.864598 12.8480045,31.864598 C12.9351506,31.864598 13.0581618,31.8509959 13.217982,31.8570061 L13.217982,31.9762619 C12.9779371,31.9762619 12.9156449,32.0468031 12.9156449,32.2840493 L12.9156449,33.3510244 C12.9156449,33.7068937 12.9191056,34.0064565 12.9250831,34.2424374 L12.7438697,34.2424374 C12.2134427,33.5658113 11.6449483,32.9315732 11.088409,32.2910085 L11.088409,33.6297096 C11.088409,33.8236188 11.0956449,33.9390786 11.1318247,33.9843136 C11.1717798,34.0295485 11.257982,34.0529568 11.4011281,34.061814 L11.4011281,34.1813861 C11.2145663,34.1836004 11.0594652,34.1677839 10.9430607,34.1677839 C10.8499371,34.1677839 10.7237798,34.1864473 10.5614427,34.1788554 L10.5614427,34.061814 Z" id="Fill-30" fill="#000000"></path>
                    <path d="M13.8834067,34.0639966 C14.1602607,34.0617823 14.1895191,33.9700472 14.1895191,33.6192391 L14.1895191,32.0040671 L14.0315865,32.0040671 C13.7827326,32.0040671 13.6395865,32.0239958 13.5562157,32.1717211 L13.4605753,32.3377934 L13.3570697,32.3067933 C13.408036,32.0562613 13.4350921,31.8509643 13.4423281,31.6934328 L13.5562157,31.703239 C13.6310921,31.8433724 13.7261034,31.8509643 13.8893843,31.8509643 L14.9260135,31.8509643 C15.1512719,31.8509643 15.2720809,31.7914945 15.3305978,31.6719225 L15.4479461,31.6852083 C15.4117663,31.801617 15.3900584,32.0110263 15.3563955,32.3014157 L15.2352719,32.2884462 C15.2720809,32.033802 15.1629124,32.0040671 14.7888449,32.0040671 L14.6246202,32.0040671 L14.6246202,33.5869737 C14.6246202,33.9520164 14.6497888,34.0586191 14.9234966,34.0586191 L14.9234966,34.1702829 C14.7145978,34.1864157 14.539991,34.1623747 14.4053393,34.1623747 C14.2728899,34.1623747 14.1014292,34.1911606 13.8834067,34.1813544 L13.8834067,34.0639966 Z" id="Fill-32" fill="#000000"></path>
                    <path d="M15.7384854,34.0769661 L15.858036,34.0639966 C16.011564,34.043119 16.0282382,33.9520164 16.0282382,33.7432398 L16.0282382,32.298885 C16.0282382,32.0493021 16.0159685,31.9781282 15.7224404,31.9651588 L15.7224404,31.8509643 C15.9241034,31.8569745 16.1304854,31.8620357 16.3387551,31.8620357 C16.4894517,31.8620357 16.8496764,31.8569745 17.4238337,31.8509643 C17.4181708,32.0015365 17.4238337,32.1603333 17.4329573,32.3276709 L17.3068,32.3358955 C17.3096315,32.0467714 17.1847326,31.9876181 16.8232494,31.9876181 C16.4828449,31.9876181 16.4520135,32.0040671 16.4520135,32.2489052 L16.4520135,32.903072 C16.4957438,32.90497 16.5322382,32.903072 16.5574067,32.903072 C16.8534517,32.903072 17.0082382,32.90497 17.0469348,32.754714 L17.0850022,32.6218562 L17.1913393,32.6218562 C17.1853618,32.820194 17.1847326,32.94546 17.1847326,32.9894296 C17.1847326,33.0577565 17.1976315,33.1754306 17.1913393,33.3449825 L17.0743056,33.3323294 C17.0805978,33.0957159 16.9881034,33.0280216 16.7266652,33.0280216 C16.6407775,33.0280216 16.5511146,33.0302359 16.4520135,33.0378278 L16.4520135,33.6945253 C16.4520135,33.9757411 16.4973169,34.0380577 16.7320135,34.0380577 L17.1312494,34.0380577 C17.2508,34.0380577 17.3366876,33.9928228 17.392373,33.9026692 L17.5443281,33.6606781 L17.6730022,33.7018008 C17.622036,33.8526894 17.5742157,34.0042106 17.5377213,34.1623747 C17.4131371,34.1731299 17.314036,34.1813544 17.2363281,34.1813544 C17.0290022,34.1813544 16.7725978,34.1702829 16.4822157,34.1702829 C16.1952944,34.1702829 15.9527326,34.1911606 15.7384854,34.2041301 L15.7384854,34.0769661 Z" id="Fill-34" fill="#000000"></path>
                    <path d="M19.1406112,32.428896 C19.1406112,32.1565373 18.9647461,31.9781282 18.6932404,31.9781282 C18.522409,31.9781282 18.5060494,32.0404449 18.5060494,32.2128438 L18.5060494,32.8647963 L18.6205663,32.8647963 C18.9634876,32.8647963 19.1406112,32.7047342 19.1406112,32.428896 L19.1406112,32.428896 Z M17.7733303,34.0586191 C17.9841169,34.0639966 18.0810157,33.9909248 18.0810157,33.8115667 L18.0810157,32.3222933 C18.0810157,32.0758736 18.0772404,32.0015365 17.9045213,31.9838221 L17.7695551,31.9743323 L17.7695551,31.8585561 C17.9816,31.8490663 18.1439371,31.8645664 18.2603416,31.8645664 C18.4362067,31.8645664 18.6045213,31.8490663 18.7740944,31.8490663 C19.2900494,31.8490663 19.579173,32.0856798 19.579173,32.4016917 C19.579173,32.6506421 19.4070831,32.8167144 19.063218,32.8894699 C19.3598921,33.1162772 19.4932854,33.4882792 19.7150831,33.8273831 C19.8204764,33.9887105 19.9441169,34.0639966 20.0985888,34.0586191 L20.0985888,34.1731299 C19.9699146,34.1864157 19.8431281,34.1677523 19.724836,34.1677523 C19.6361169,34.1677523 19.5502292,34.1731299 19.4627685,34.1813544 C19.2214652,33.8662915 19.0956225,33.5585041 18.9556225,33.3244212 C18.8326112,33.1188079 18.7668584,33.0049297 18.6020045,33.0049297 L18.5060494,33.0049297 L18.5060494,33.7793012 C18.5060494,33.9928228 18.5315326,34.0529252 18.8030382,34.0617823 L18.8030382,34.1731299 C18.5837573,34.1813544 18.4047461,34.1677523 18.2754427,34.1677523 C18.1606112,34.1677523 17.9944989,34.1813544 17.7733303,34.1788238 L17.7733303,34.0586191 Z" id="Fill-36" fill="#000000"></path>
                    <path d="M20.244818,34.061814 C20.5732674,34.061814 20.5849079,33.9286398 20.5849079,33.5142498 L20.5849079,32.3697742 C20.5849079,32.0784359 20.5125483,31.9904966 20.1847281,31.9762619 L20.1847281,31.8585878 C20.3624809,31.8490979 20.555964,31.8725062 20.760773,31.8725062 C20.8180315,31.8725062 20.8875596,31.8696593 20.9750202,31.864598 C21.5004135,32.4991525 21.9666607,33.0742372 22.4121438,33.5658113 L22.4121438,32.2489368 C22.4121438,32.0518643 22.3753348,31.9838538 22.2032449,31.9743639 L22.1038292,31.9632924 L22.1038292,31.8509959 C22.2834697,31.8490979 22.4253573,31.864598 22.5316944,31.864598 C22.6178966,31.864598 22.7402787,31.8509959 22.8994697,31.8570061 L22.8994697,31.9762619 C22.6606831,31.9762619 22.5977618,32.0468031 22.5977618,32.2840493 L22.5977618,33.3510244 C22.5977618,33.7068937 22.6015371,34.0064565 22.6081438,34.2424374 L22.4297618,34.2424374 C21.8955596,33.5658113 21.3283236,32.9315732 20.7711551,32.2910085 L20.7711551,33.6297096 C20.7711551,33.8236188 20.7777618,33.9390786 20.8152,33.9843136 C20.8529528,34.0295485 20.9400989,34.0529568 21.0832449,34.061814 L21.0832449,34.1813861 C20.8973124,34.1836004 20.741582,34.1677839 20.6254921,34.1677839 C20.5345708,34.1677839 20.4065258,34.1864473 20.244818,34.1788554 L20.244818,34.061814 Z" id="Fill-38" fill="#000000"></path>
                    <path d="M24.3066112,33.1755571 L23.9696674,32.3274811 C23.9224764,32.498931 23.8671056,32.663738 23.8079596,32.8361369 L23.6915551,33.1755571 L24.3066112,33.1755571 Z M22.9522292,34.0619089 C23.1787461,34.0657048 23.2309708,33.9701737 23.3102517,33.7544378 L23.5370831,33.1372814 C23.7595101,32.5264516 23.8850382,32.1145922 23.9265663,31.9244789 L24.1442742,31.7527127 L24.182027,31.7527127 C24.2078247,31.8279988 24.2440045,31.9244789 24.2924539,32.0405714 L25.0201393,33.8528159 C25.0673303,33.9651124 25.1035101,34.03597 25.1831056,34.0429292 L25.3161843,34.0641232 L25.3161843,34.1789503 C25.1236449,34.1833789 24.958791,34.1678788 24.8118697,34.1678788 C24.7118247,34.1678788 24.5538921,34.1833789 24.3364989,34.1789503 L24.3364989,34.0641232 L24.4569933,34.0565313 C24.5765438,34.0429292 24.6281393,33.9480307 24.5834652,33.8297239 L24.3726787,33.3166395 L23.6371281,33.3166395 L23.4942966,33.7433663 C23.473218,33.8148565 23.4581169,33.8638874 23.4581169,33.8964692 C23.4581169,34.0274291 23.5320494,34.0565313 23.7381169,34.0657048 L23.7381169,34.1789503 C23.5455775,34.181481 23.3942517,34.1678788 23.2828809,34.1678788 C23.2026562,34.1678788 23.0950607,34.1789503 22.9522292,34.1789503 L22.9522292,34.0619089 Z" id="Fill-40" fill="#000000"></path>
                    <path d="M25.7037483,34.0639966 C25.9840629,34.0617823 26.0092315,33.9700472 26.0092315,33.6192391 L26.0092315,32.0040671 L25.8550742,32.0040671 C25.6062202,32.0040671 25.4618157,32.0239958 25.3797034,32.1717211 L25.2840629,32.3377934 L25.1805573,32.3067933 C25.2305798,32.0562613 25.2570067,31.8509643 25.2645573,31.6934328 L25.3797034,31.703239 C25.4523775,31.8433724 25.5492764,31.8509643 25.7122427,31.8509643 L26.7479281,31.8509643 C26.9741303,31.8509643 27.0917933,31.7914945 27.1525124,31.6719225 L27.2686022,31.6852083 C27.2321079,31.801617 27.2129169,32.0110263 27.1792539,32.3014157 L27.0556135,32.2884462 C27.0917933,32.033802 26.9832539,32.0040671 26.6085573,32.0040671 L26.4477933,32.0040671 L26.4477933,33.5869737 C26.4477933,33.9520164 26.4729618,34.0586191 26.7444674,34.0586191 L26.7444674,34.1702829 C26.5361978,34.1864157 26.3603326,34.1623747 26.2281978,34.1623747 C26.0957483,34.1623747 25.9224,34.1911606 25.7037483,34.1813544 L25.7037483,34.0639966 Z" id="Fill-42" fill="#000000"></path>
                    <path d="M27.5672584,34.0565629 C27.7793034,34.0619405 27.8752584,33.9885524 27.8752584,33.8082453 L27.8752584,32.2468491 C27.8752584,32.0491439 27.8331011,32.0016947 27.5710337,31.9653169 L27.5710337,31.8508061 C27.7922022,31.8508061 27.965236,31.8644082 28.089191,31.8644082 C28.2257303,31.8644082 28.3990787,31.8571327 28.6114382,31.8571327 L28.6114382,31.9744904 C28.376427,31.9744904 28.3138202,32.0178274 28.3138202,32.2183795 L28.3138202,33.7785104 C28.3138202,33.992981 28.3402472,34.0454914 28.6114382,34.0587772 L28.6114382,34.1729717 C28.4173258,34.178982 28.2367416,34.1679105 28.0744045,34.1679105 C27.9715281,34.1679105 27.8041573,34.1834106 27.5672584,34.1729717 L27.5672584,34.0565629 Z" id="Fill-44" fill="#000000"></path>
                    <path d="M30.8422202,32.2685808 C30.6698157,32.0405081 30.468782,31.9313749 30.2199281,31.9313749 C29.7505348,31.9313749 29.429636,32.2853462 29.429636,32.8531554 C29.429636,33.0872383 29.4749393,33.3168926 29.5683775,33.517761 C29.7297708,33.8799569 30.0163775,34.0770294 30.3300404,34.0770294 C30.7742652,34.0770294 31.1206472,33.6907926 31.1206472,33.1593611 C31.1206472,32.814247 31.0064449,32.483684 30.8422202,32.2685808 M29.4368719,33.9723247 C29.1307596,33.726854 28.9753438,33.4057808 28.9753438,33.0277686 C28.9753438,32.7047974 29.1005573,32.4087142 29.3302202,32.171468 C29.5856809,31.9085993 29.8914787,31.7830169 30.2778157,31.7830169 C30.6264,31.7830169 30.9287371,31.8874053 31.1477034,32.0759369 C31.4204674,32.3068565 31.5730517,32.6342563 31.5730517,32.9550131 C31.5730517,33.2773516 31.4550742,33.5541388 31.2121978,33.8040381 C30.9344,34.0931621 30.5842427,34.242469 30.2133213,34.242469 C29.9260854,34.242469 29.6511191,34.1504175 29.4368719,33.9723247" id="Fill-46" fill="#000000"></path>
                    <path d="M31.8729663,34.061814 C32.2033034,34.061814 32.2149438,33.9286398 32.2149438,33.5142498 L32.2149438,32.3697742 C32.2149438,32.0784359 32.1425843,31.9904966 31.8141348,31.9762619 L31.8141348,31.8585878 C31.9931461,31.8490979 32.1850562,31.8725062 32.390809,31.8725062 C32.4477528,31.8725062 32.5169663,31.8696593 32.6028539,31.864598 C33.1301348,32.4991525 33.5976404,33.0742372 34.041236,33.5658113 L34.041236,32.2489368 C34.041236,32.0518643 34.004427,31.9838538 33.8329663,31.9743639 L33.7329213,31.9632924 L33.7329213,31.8509959 C33.9125618,31.8490979 34.0544494,31.864598 34.1617303,31.864598 C34.2457303,31.864598 34.37,31.8509959 34.5295056,31.8570061 L34.5295056,31.9762619 C34.2900899,31.9762619 34.2268539,32.0468031 34.2268539,32.2840493 L34.2268539,33.3510244 C34.2268539,33.7068937 34.2309438,34.0064565 34.2378652,34.2424374 L34.0588539,34.2424374 C33.5246517,33.5658113 32.9567865,32.9315732 32.4015056,32.2910085 L32.4015056,33.6297096 C32.4015056,33.8236188 32.4071685,33.9390786 32.4430337,33.9843136 C32.483618,34.0295485 32.569191,34.0529568 32.7126517,34.061814 L32.7126517,34.1813861 C32.5286067,34.1836004 32.3709888,34.1677839 32.2545843,34.1677839 C32.1598876,34.1677839 32.035618,34.1864473 31.8729663,34.1788554 L31.8729663,34.061814 Z" id="Fill-48" fill="#000000"></path>
                    <path d="M35.9361438,33.1755571 L35.5995146,32.3274811 C35.5523236,32.498931 35.4972674,32.663738 35.4374921,32.8361369 L35.3204584,33.1755571 L35.9361438,33.1755571 Z M34.5805034,34.0619089 C34.8082787,34.0657048 34.8601888,33.9701737 34.9391551,33.7544378 L35.1647281,33.1372814 C35.3903011,32.5264516 35.5126831,32.1145922 35.5551551,31.9244789 L35.774436,31.7527127 L35.8109303,31.7527127 C35.8383011,31.8279988 35.8738517,31.9244789 35.9197843,32.0405714 L36.6518742,33.8528159 C36.6968629,33.9651124 36.7320989,34.03597 36.8126382,34.0429292 L36.9457169,34.0641232 L36.9457169,34.1789503 C36.7534921,34.1833789 36.5861213,34.1678788 36.4401438,34.1678788 C36.3416719,34.1678788 36.1831101,34.1833789 35.9654022,34.1789503 L35.9654022,34.0641232 L36.0871551,34.0565313 C36.2051326,34.0429292 36.2576719,33.9480307 36.213627,33.8297239 L36.0034697,33.3166395 L35.2688629,33.3166395 L35.1238292,33.7433663 C35.1030652,33.8148565 35.0873348,33.8638874 35.0873348,33.8964692 C35.0873348,34.0274291 35.160009,34.0565313 35.3682787,34.0657048 L35.3682787,34.1789503 C35.1747955,34.181481 35.0234697,34.1678788 34.9124135,34.1678788 C34.8340764,34.1678788 34.7249079,34.1789503 34.5805034,34.1789503 L34.5805034,34.0619089 Z" id="Fill-50" fill="#000000"></path>
                    <path d="M37.1647775,34.0769661 L37.2827551,34.0639966 C37.4362831,34.043119 37.4545303,33.9520164 37.4545303,33.7432398 L37.4545303,32.2517521 C37.4545303,32.0356999 37.4095416,31.9781282 37.1808225,31.9746486 L37.1808225,31.8585561 C37.400418,31.8569745 37.5621258,31.869944 37.6719236,31.869944 C37.8065753,31.869944 37.9802382,31.8509643 38.1929124,31.8620357 L38.1929124,31.9781282 C37.9569573,31.9781282 37.8896315,32.0239958 37.8896315,32.2242316 L37.8896315,33.6742802 C37.8896315,33.9520164 37.9670247,34.0276189 38.2605528,34.0276189 C38.539609,34.0276189 38.7028899,34.0089555 38.8048225,33.8447812 L38.921227,33.6606781 L39.0508449,33.7018008 C39.0042831,33.8273831 38.9539461,33.9887105 38.9064404,34.1864157 C38.4760584,34.1788238 38.2202831,34.1702829 38.1384854,34.1702829 C37.8597438,34.1702829 37.5360135,34.1813544 37.1647775,34.2041301 L37.1647775,34.0769661 Z" id="Fill-52" fill="#000000"></path>
                    <path d="M29.1293753,26.3173394 L34.8700045,26.3173394 L23.9405663,7.55401334 L13.0123865,26.3173394 L20.8180944,26.3173394 L20.8180944,23.8512444 L18.8980494,24.0207964 L20.2908135,21.1732095 L19.5203416,21.6062629 L20.771218,18.6118997 L20.2414202,18.9731466 L21.2261393,15.8104968 L22.2124315,18.9731466 L21.6832629,18.6118997 L22.9309933,21.6062629 L22.1630382,21.1732095 L23.5570607,24.0207964 L21.6354427,23.8512444 L21.6354427,26.3173394 L23.9405663,26.3173394 L24.7569708,26.3173394 L24.7569708,22.5005228 L23.963218,22.5005228 L26.9422292,19.6039051 L29.9212404,22.5005228 L29.1293753,22.5005228 L29.1293753,26.3173394 Z" id="Fill-54" fill="#6198CE"></path>
                    <path d="M26.9423551,26.3173394 L26.1514337,26.3173394 L26.1514337,23.5890083 L26.9423551,23.5890083 L27.7361079,23.5890083 L27.7361079,26.3173394 L26.9423551,26.3173394 Z" id="Fill-56" fill="#6198CE"></path>
                    <path d="M12.6409618,30.3564082 C12.8523775,30.3646327 12.9489618,30.2893466 12.9489618,30.1093558 L12.9489618,28.5476433 C12.9489618,28.3499382 12.9055461,28.3069175 12.6453663,28.2689581 L12.6453663,28.1516004 C12.8627596,28.1516004 13.0367371,28.1680494 13.1550292,28.1680494 C13.2915685,28.1680494 13.4592539,28.1572943 13.6719281,28.1572943 L13.6719281,28.274652 C13.4366022,28.274652 13.3724225,28.3192543 13.3724225,28.5217044 L13.3724225,29.1470853 L14.6242427,29.1470853 L14.6242427,28.4489489 C14.6242427,28.3110298 14.5430742,28.2809786 14.3348045,28.2727541 L14.3348045,28.1572943 C14.5940404,28.1639372 14.7554337,28.1708964 14.8218157,28.1708964 C14.8658607,28.1708964 15.0341753,28.1610902 15.339973,28.1572943 L15.339973,28.274652 C15.107164,28.2809786 15.0439281,28.3246319 15.0439281,28.525184 L15.0439281,30.0502025 C15.0439281,30.3004181 15.0876584,30.3598878 15.3418607,30.3598878 L15.3418607,30.4766129 C15.133591,30.4826232 14.9712539,30.4693374 14.8491865,30.4693374 C14.7268045,30.4693374 14.5503101,30.4895824 14.3285124,30.4766129 L14.3285124,30.3598878 C14.5503101,30.3671634 14.6242427,30.3108569 14.6242427,30.1144171 L14.6242427,29.3185352 L13.3724225,29.3185352 L13.3724225,30.0818353 C13.3724225,30.2975712 13.4004225,30.349449 13.6719281,30.3598878 L13.6719281,30.4766129 C13.4759281,30.4807252 13.3000629,30.4693374 13.1408719,30.4693374 C13.0329618,30.4693374 12.8674787,30.4895824 12.6409618,30.4766129 L12.6409618,30.3564082 Z" id="Fill-58" fill="#000000"></path>
                    <path d="M17.5508404,28.5711781 C17.3787506,28.3443708 17.1764584,28.2327069 16.930436,28.2327069 C16.4604135,28.2327069 16.1382562,28.5876272 16.1382562,29.1567017 C16.1382562,29.3914173 16.1841888,29.6201226 16.2773124,29.8184604 C16.4396494,30.1800236 16.725627,30.378994 17.0399191,30.378994 C17.4841438,30.378994 17.8283236,29.9933899 17.8283236,29.4613258 C17.8283236,29.117477 17.7163236,28.7881793 17.5508404,28.5711781 M16.1454921,30.2765037 C15.8393798,30.0297677 15.6855371,29.7067965 15.6855371,29.3287843 C15.6855371,29.0054968 15.8101213,28.7122605 16.0397843,28.4728001 C16.2946157,28.2089823 16.5988404,28.0868796 16.9861213,28.0868796 C17.335964,28.0868796 17.6357843,28.1887373 17.8553798,28.3782179 C18.1303461,28.6116681 18.2829303,28.9374862 18.2829303,29.2563451 C18.2829303,29.5812142 18.1633798,29.8551545 17.920818,30.1072681 C17.643964,30.3929125 17.2916045,30.5469643 16.9225708,30.5469643 C16.6362787,30.5469643 16.3587955,30.4530149 16.1454921,30.2765037" id="Fill-60" fill="#000000"></path>
                    <path d="M18.6834562,29.9742837 L18.8146472,29.9742837 C18.9027371,30.2608771 19.0820629,30.4063881 19.3378382,30.4063881 C19.6071416,30.4063881 19.7990517,30.2244993 19.7990517,29.9935797 C19.7990517,29.7503233 19.6200404,29.6462513 19.3082652,29.4903015 C18.9137483,29.2925963 18.6988719,29.1173505 18.6988719,28.7646445 C18.6988719,28.3822036 19.0002652,28.0892837 19.4536135,28.0892837 C19.6411191,28.0892837 19.8100629,28.1411615 19.9878157,28.2433355 C19.9852989,28.3945404 19.9878157,28.5375208 19.9956809,28.670695 L19.8720404,28.670695 C19.8198157,28.3822036 19.654018,28.2253048 19.4105124,28.2253048 C19.1789618,28.2253048 19.0282652,28.3841016 19.0282652,28.5976232 C19.0282652,28.751675 19.1201303,28.8848492 19.3060629,28.9772171 C19.6269618,29.1360138 19.8578831,29.2353409 19.9595011,29.3625049 C20.0752764,29.5108628 20.1303326,29.6547922 20.1303326,29.8186502 C20.1303326,30.2301932 19.8025124,30.5471541 19.3010292,30.5471541 C19.1172989,30.5471541 18.9206697,30.5031845 18.7152315,30.4149289 C18.7111416,30.2744792 18.7017034,30.1258049 18.6834562,29.9742837" id="Fill-62" fill="#000000"></path>
                    <path d="M20.9148989,30.3672266 C21.192382,30.364696 21.218809,30.2745425 21.218809,29.9193058 L21.218809,28.3079298 L21.0630787,28.3079298 C20.8139101,28.3079298 20.6729663,28.3259605 20.5895955,28.4730531 L20.492382,28.6416561 L20.390764,28.6116049 C20.4395281,28.3610729 20.4665843,28.1516636 20.4719326,27.9938158 L20.5895955,28.002673 C20.6619551,28.1478677 20.7575955,28.1516636 20.919618,28.1516636 L21.9575056,28.1516636 C22.1833933,28.1516636 22.3016854,28.0953572 22.3617753,27.9726218 L22.4775506,27.9881219 C22.4413708,28.1051634 22.4231236,28.3110931 22.3891461,28.6052783 L22.2655056,28.5897782 C22.3016854,28.3319707 22.1940899,28.3079298 21.8190787,28.3079298 L21.6561124,28.3079298 L21.6561124,29.8889383 C21.6561124,30.2530321 21.6831685,30.3599511 21.9562472,30.3599511 L21.9562472,30.4741456 C21.7460899,30.4896457 21.5695955,30.4643394 21.4380899,30.4643394 C21.3056404,30.4643394 21.1322921,30.4921763 20.9148989,30.4826864 L20.9148989,30.3672266 Z" id="Fill-64" fill="#000000"></path>
                    <path d="M22.7699775,30.3789624 L22.8901573,30.3672583 C23.0408539,30.3466969 23.0591011,30.2530638 23.0591011,30.0468178 L23.0591011,28.600565 C23.0591011,28.3500331 23.0480899,28.2807572 22.753618,28.269053 L22.753618,28.1516953 C22.9549663,28.1573892 23.1619775,28.1640321 23.369618,28.1640321 C23.5209438,28.1640321 23.8817978,28.1573892 24.4534382,28.1516953 C24.4496629,28.3066961 24.4534382,28.4645439 24.4644494,28.6312489 L24.3364045,28.6356775 C24.3420674,28.3475024 24.2162247,28.2899307 23.8531685,28.2899307 C23.5149663,28.2899307 23.4835056,28.3079614 23.4835056,28.5512178 L23.4835056,29.203803 C23.5259775,29.2088642 23.5615281,29.203803 23.5892135,29.203803 C23.8849438,29.203803 24.0413034,29.2088642 24.0796854,29.0544961 L24.1158652,28.9257505 L24.2225169,28.9257505 C24.2187416,29.122823 24.2162247,29.2477726 24.2162247,29.2898443 C24.2162247,29.3607018 24.2291236,29.4799575 24.2225169,29.6463462 L24.1054831,29.6340094 C24.1139775,29.3970795 24.0195955,29.329069 23.7581573,29.329069 C23.6722697,29.329069 23.5822921,29.3341302 23.4835056,29.3398241 L23.4835056,29.9968379 C23.4835056,30.27837 23.5297528,30.3394214 23.7641348,30.3394214 L24.1611685,30.3394214 C24.2816629,30.3394214 24.3694382,30.2973497 24.4238652,30.2059309 L24.5777079,29.9642561 L24.7057528,30.0034808 C24.6525843,30.1534204 24.6063371,30.3077886 24.5698427,30.464371 C24.4446292,30.4767078 24.3455281,30.4827181 24.2684494,30.4827181 C24.0614382,30.4827181 23.8044045,30.4741772 23.5137079,30.4741772 C23.2274157,30.4741772 22.9820225,30.4922079 22.7699775,30.5051774 L22.7699775,30.3789624 Z" id="Fill-66" fill="#000000"></path>
                    <path d="M24.8908045,30.3789624 L25.0103551,30.3672583 C25.1623101,30.3466969 25.1780404,30.2530638 25.1780404,30.0468178 L25.1780404,28.5534321 C25.1780404,28.3370636 25.1371416,28.2807572 24.907164,28.2747469 L24.907164,28.1608688 C25.1261303,28.1573892 25.287209,28.1709913 25.3973213,28.1709913 C25.5335461,28.1709913 25.7050067,28.1516953 25.9179955,28.1640321 L25.9179955,28.2807572 C25.6826697,28.2807572 25.615973,28.3259921 25.615973,28.5265442 L25.615973,29.9772255 C25.615973,30.2530638 25.6902202,30.3311968 25.9840629,30.3311968 C26.2653213,30.3311968 26.4295461,30.3128498 26.5305348,30.1489918 L26.6472539,29.9642561 L26.7768719,30.0034808 C26.7290517,30.1306447 26.6787146,30.2894415 26.631209,30.4896773 C26.2030292,30.4805038 25.9475685,30.4741772 25.8623101,30.4741772 C25.5873438,30.4741772 25.2620404,30.4827181 24.8908045,30.5051774 L24.8908045,30.3789624 Z" id="Fill-68" fill="#000000"></path>
                    <path d="M26.9598472,30.3789624 L27.0803416,30.3672583 C27.2322966,30.3466969 27.2489708,30.2530638 27.2489708,30.0468178 L27.2489708,28.5534321 C27.2489708,28.3370636 27.2049258,28.2807572 26.9774652,28.2747469 L26.9774652,28.1608688 C27.1948584,28.1573892 27.3578247,28.1709913 27.4669933,28.1709913 C27.6035326,28.1709913 27.7753079,28.1516953 27.9870382,28.1640321 L27.9870382,28.2807572 C27.7529708,28.2807572 27.6850157,28.3259921 27.6850157,28.5265442 L27.6850157,29.9772255 C27.6850157,30.2530638 27.7617798,30.3311968 28.0537348,30.3311968 C28.3362517,30.3311968 28.4985888,30.3128498 28.5995775,30.1489918 L28.7162966,29.9642561 L28.8462292,30.0034808 C28.7990382,30.1306447 28.7505888,30.2894415 28.7008809,30.4896773 C28.2730157,30.4805038 28.0175551,30.4741772 27.9307236,30.4741772 C27.6570157,30.4741772 27.3317124,30.4827181 26.9598472,30.5051774 L26.9598472,30.3789624 Z" id="Fill-70" fill="#000000"></path>
                    <path d="M29.0362831,30.3564082 C29.2470697,30.3646327 29.3455416,30.2893466 29.3455416,30.1093558 L29.3455416,28.5476433 C29.3455416,28.3499382 29.3014966,28.3069175 29.0388,28.2689581 L29.0388,28.1516004 C29.2618562,28.1516004 29.4336315,28.1680494 29.5550697,28.1680494 C29.6956989,28.1680494 29.8687326,28.1572943 30.0810921,28.1572943 L30.0810921,28.274652 C29.8448225,28.274652 29.7815865,28.3192543 29.7815865,28.5217044 L29.7815865,30.0818353 C29.7815865,30.2975712 29.8083281,30.349449 30.0810921,30.3598878 L30.0810921,30.4766129 C29.8841483,30.4807252 29.7063955,30.4693374 29.544373,30.4693374 C29.441182,30.4693374 29.2728674,30.4876844 29.0362831,30.4766129 L29.0362831,30.3564082 Z" id="Fill-72" fill="#000000"></path>
                    <path d="M30.3586382,30.3647276 C30.6852,30.3647276 30.6987281,30.2299718 30.6987281,29.8162145 L30.6987281,28.6707899 C30.6987281,28.3819822 30.6263685,28.2937266 30.2998067,28.2769612 L30.2998067,28.1608688 C30.4769303,28.1497973 30.6697843,28.1725729 30.8755371,28.1725729 C30.9302787,28.1725729 31.0026382,28.1706749 31.0885258,28.1681443 C31.6148629,28.8011171 32.0814247,29.3762019 32.5265933,29.8706229 L32.5265933,28.5512178 C32.5265933,28.35288 32.4900989,28.2883491 32.3170652,28.2747469 L32.2185933,28.2639918 L32.2185933,28.1516953 C32.3957169,28.1497973 32.5388629,28.1681443 32.6452,28.1681443 C32.7310876,28.1681443 32.8547281,28.1516953 33.0132899,28.1570728 L33.0132899,28.2769612 C32.7735596,28.2769612 32.7118966,28.3475024 32.7118966,28.584116 L32.7118966,29.6548871 C32.7118966,30.0107563 32.7144135,30.3109518 32.7210202,30.5469327 L32.5426382,30.5469327 C32.0090652,29.8706229 31.4415146,29.2319562 30.8852899,28.5945548 L30.8852899,29.9297763 C30.8852899,30.1255835 30.8918966,30.2423086 30.9287056,30.2875435 C30.9670876,30.3337275 31.0536045,30.3517582 31.198009,30.3647276 L31.198009,30.4827181 C31.0101888,30.4877793 30.8557169,30.4694323 30.7389978,30.4694323 C30.6455596,30.4694323 30.5194022,30.4896773 30.3586382,30.4805038 L30.3586382,30.3647276 Z" id="Fill-74" fill="#000000"></path>
                    <path d="M34.6257753,30.5130223 C34.2334607,30.5130223 33.8911685,30.3858584 33.649236,30.1574694 C33.4368764,29.955652 33.3138652,29.6722218 33.3138652,29.3606385 C33.3138652,29.0901779 33.4025843,28.8326867 33.5721573,28.6128386 C33.8144045,28.3006226 34.1957079,28.1244278 34.639618,28.1244278 C34.9517079,28.1244278 35.2326517,28.1886424 35.4815056,28.3246635 C35.4789888,28.4537255 35.5010112,28.5976548 35.5041573,28.7646761 L35.3990787,28.7646761 C35.295573,28.4420213 35.042,28.2591836 34.6924719,28.2591836 C34.1604719,28.2591836 33.7687865,28.6786348 33.7687865,29.292628 C33.7687865,29.59915 33.8641124,29.8705597 34.0402921,30.0736424 C34.2126966,30.2745108 34.4055506,30.3646644 34.6685618,30.3646644 C34.9743596,30.3646644 35.143618,30.2264289 35.143618,29.9727337 L35.143618,29.8161512 C35.143618,29.6573544 35.0920225,29.602946 34.9089213,29.5902928 L34.7264494,29.5766907 L34.7264494,29.4726187 C34.8881573,29.4653432 35.0322472,29.4855882 35.1565169,29.4855882 C35.3638427,29.4855882 35.5617303,29.47768 35.7533258,29.47768 L35.7533258,29.5814356 L35.6328315,29.5972521 C35.5255506,29.6130685 35.5148539,29.6981608 35.5148539,29.9088354 C35.5148539,29.993295 35.5173708,30.1305815 35.5315281,30.3146845 C35.2405169,30.4513383 34.9416404,30.5130223 34.6257753,30.5130223" id="Fill-76" fill="#000000"></path>
                    <path d="M9.23682247,34.027524 C9.44949663,34.0357485 9.54419326,33.9617277 9.54419326,33.7792063 L9.54419326,32.2181264 C9.54419326,32.0197886 9.50140674,31.9764517 9.23933933,31.9375433 L9.23933933,31.8255631 C9.46302472,31.8255631 9.63322697,31.8378999 9.75686742,31.8378999 C9.8959236,31.8378999 10.0680135,31.8280937 10.2806876,31.8280937 L10.2806876,31.9451352 C10.0447326,31.9451352 9.98338427,31.9906864 9.98338427,32.1921875 L9.98338427,33.7516858 C9.98338427,33.9683706 10.0085528,34.0221464 10.2806876,34.029422 L10.2806876,34.1470961 C10.0853169,34.1505757 9.90630562,34.1395042 9.74333933,34.1395042 C9.64109213,34.1395042 9.4715191,34.1575349 9.23682247,34.1470961 L9.23682247,34.027524 Z" id="Fill-78" fill="#000000"></path>
                    <path d="M10.5588315,34.0358751 C10.884764,34.0358751 10.8998652,33.8998539 10.8998652,33.4883109 L10.8998652,32.340672 C10.8998652,32.0518643 10.8278202,31.9651904 10.4974831,31.947476 L10.4974831,31.8304346 C10.6764944,31.8215774 10.8693483,31.843404 11.0769888,31.843404 C11.1317303,31.843404 11.2,31.8418224 11.2858876,31.8380264 C11.8156854,32.4706829 12.2813034,33.0489309 12.7258427,33.5417703 L12.7258427,32.2217326 C12.7258427,32.0240274 12.6906067,31.9582312 12.5169438,31.9452617 L12.4178427,31.9348229 L12.4178427,31.8256896 C12.5965393,31.8215774 12.7387416,31.8380264 12.844764,31.8380264 C12.9325393,31.8380264 13.0549213,31.8256896 13.2122247,31.8282203 L13.2122247,31.947476 C12.9740674,31.947476 12.9114607,32.0177009 12.9114607,32.2546307 L12.9114607,33.3244528 C12.9114607,33.6815874 12.9142921,33.9811503 12.9215281,34.2164985 L12.7425169,34.2164985 C12.2083146,33.5417703 11.6423371,32.9050016 11.0839101,32.2647532 L11.0839101,33.6009237 C11.0839101,33.7951493 11.0924045,33.9156703 11.1276404,33.9571093 C11.1682247,34.0039259 11.2541124,34.0251199 11.3966292,34.0358751 L11.3966292,34.1541818 C11.2122697,34.1576614 11.0543371,34.1393144 10.939191,34.1393144 C10.8466966,34.1393144 10.7199101,34.16209 10.5588315,34.1503859 L10.5588315,34.0358751 Z" id="Fill-80" fill="#000000"></path>
                    <path d="M13.8789393,34.0380261 C14.1564225,34.0358118 14.1834787,33.9447093 14.1834787,33.589789 L14.1834787,31.9780966 L14.0283775,31.9780966 C13.779209,31.9780966 13.6370067,31.9999232 13.5530067,32.1448016 L13.4592539,32.3124555 L13.3551191,32.2814554 C13.4060854,32.0306071 13.4318831,31.8256264 13.4378607,31.6668296 L13.5530067,31.6737888 C13.6266247,31.8174018 13.7235236,31.8256264 13.8849169,31.8256264 L14.9234337,31.8256264 C15.1480629,31.8256264 15.2676135,31.7648913 15.3277034,31.6434213 L15.4434787,31.6582887 C15.4060404,31.7762792 15.387164,31.9815762 15.3547596,32.2722818 L15.2314337,32.2624757 C15.2676135,32.0040355 15.1590742,31.9780966 14.7843775,31.9780966 L14.6226697,31.9780966 L14.6226697,33.5610031 C14.6226697,33.9257296 14.6484674,34.0294852 14.9202876,34.0294852 L14.9202876,34.144945 C14.712018,34.1623431 14.5355236,34.1341899 14.404018,34.1341899 C14.2696809,34.1341899 14.097591,34.16519 13.8789393,34.1541186 L13.8789393,34.0380261 Z" id="Fill-82" fill="#000000"></path>
                    <path d="M15.7358742,34.0503945 L15.8541663,34.0380577 C16.0076944,34.020027 16.0237393,33.9254449 16.0237393,33.7179335 L16.0237393,32.2704155 C16.0237393,32.0198835 16.0139865,31.950924 15.7182562,31.9373219 L15.7182562,31.825658 C15.9196045,31.8281886 16.1259865,31.8354642 16.3355146,31.8354642 C16.4830652,31.8354642 16.8451775,31.8281886 17.418391,31.825658 C17.4161888,31.9762302 17.418391,32.135027 17.4284584,32.3014157 L17.3026157,32.3067933 C17.3051326,32.0176692 17.1796045,31.9632608 16.8187506,31.9632608 C16.482436,31.9632608 16.4468854,31.9781282 16.4468854,32.221701 L16.4468854,32.8739698 C16.4912449,32.8777657 16.5277393,32.8739698 16.5535371,32.8739698 C16.8492674,32.8739698 17.0037393,32.8777657 17.0443236,32.7281425 L17.0805034,32.593703 L17.1852674,32.593703 C17.1827506,32.796153 17.1796045,32.9179394 17.1796045,32.9606437 C17.1796045,33.0302359 17.1937618,33.152655 17.1852674,33.3168293 L17.0716944,33.3035435 C17.0779865,33.06693 16.9848629,32.9989194 16.7234247,32.9989194 C16.6369079,32.9989194 16.5469303,33.0049297 16.4468854,33.0125216 L16.4468854,33.6679537 C16.4468854,33.9520164 16.4947056,34.0089555 16.7300315,34.0089555 L17.126436,34.0089555 C17.2481888,34.0089555 17.3340764,33.9681492 17.390391,33.8798936 L17.5417169,33.6341066 L17.6710202,33.6742802 C17.6172225,33.8235872 17.5716045,33.9757411 17.5360539,34.1342215 C17.4092674,34.147191 17.3095371,34.1541502 17.2340315,34.1541502 C17.0241888,34.1541502 16.7687281,34.1449767 16.4764584,34.1449767 C16.1926831,34.1449767 15.9466607,34.1652217 15.7358742,34.1788238 L15.7358742,34.0503945 Z" id="Fill-84" fill="#000000"></path>
                    <path d="M19.1387865,32.4017234 C19.1387865,32.1271504 18.9635506,31.9509556 18.6917303,31.9509556 C18.5177528,31.9509556 18.5023371,32.0145376 18.5023371,32.1840895 L18.5023371,32.8376237 L18.6174831,32.8376237 C18.9588315,32.8376237 19.1387865,32.6794596 19.1387865,32.4017234 L19.1387865,32.4017234 Z M17.7693034,34.0295485 C17.9816629,34.0380894 18.0773034,33.9650175 18.0773034,33.7853431 L18.0773034,32.2932228 C18.0773034,32.0493337 18.0747865,31.9762619 17.9020674,31.9582312 L17.7667865,31.9452617 L17.7667865,31.8304346 C17.9772584,31.8215774 18.1392809,31.8380264 18.2550562,31.8380264 C18.4315506,31.8380264 18.6017528,31.8215774 18.7713258,31.8215774 C19.2863371,31.8215774 19.5754607,32.0562929 19.5754607,32.3742028 C19.5754607,32.6234695 19.4030562,32.7911234 19.059191,32.8648279 C19.3558652,33.0872067 19.4886292,33.460474 19.710427,33.8011595 C19.8192809,33.9618543 19.9413483,34.0380894 20.095191,34.0295485 L20.095191,34.1472226 C19.9652584,34.16209 19.8403596,34.1393144 19.722382,34.1393144 C19.6302022,34.1393144 19.5462022,34.1472226 19.46,34.1541818 C19.2171236,33.8435475 19.0909663,33.5306989 18.9531685,33.2991466 C18.8307865,33.0910026 18.7631461,32.9783897 18.5973483,32.9783897 L18.5023371,32.9783897 L18.5023371,33.7543429 C18.5023371,33.9681808 18.528764,34.0251199 18.8005843,34.0358751 L18.8005843,34.1472226 C18.5809888,34.1541818 18.4019775,34.1393144 18.2695281,34.1393144 C18.1562697,34.1393144 17.9911011,34.1541818 17.7693034,34.1503859 L17.7693034,34.0295485 Z" id="Fill-86" fill="#000000"></path>
                    <path d="M20.2402247,34.0358751 C20.5667865,34.0358751 20.5809438,33.8998539 20.5809438,33.4883109 L20.5809438,32.340672 C20.5809438,32.0518643 20.5088989,31.9651904 20.1801348,31.947476 L20.1801348,31.8304346 C20.3613483,31.8215774 20.5532584,31.843404 20.7577528,31.843404 C20.8140674,31.843404 20.8839101,31.8418224 20.9697978,31.8380264 C21.4970787,32.4706829 21.9639551,33.0489309 22.4094382,33.5417703 L22.4094382,32.2217326 C22.4094382,32.0240274 22.373573,31.9582312 22.1986517,31.9452617 L22.1011236,31.9348229 L22.1011236,31.8256896 C22.2801348,31.8215774 22.4232809,31.8380264 22.5274157,31.8380264 C22.615191,31.8380264 22.737573,31.8256896 22.8948764,31.8282203 L22.8948764,31.947476 C22.6586067,31.947476 22.5931685,32.0177009 22.5931685,32.2546307 L22.5931685,33.3244528 C22.5931685,33.6815874 22.5978876,33.9811503 22.604809,34.2164985 L22.4251685,34.2164985 C21.8915955,33.5417703 21.3249888,32.9050016 20.768764,32.2647532 L20.768764,33.6009237 C20.768764,33.7951493 20.7750562,33.9156703 20.811236,33.9571093 C20.8502472,34.0039259 20.9373933,34.0251199 21.0789663,34.0358751 L21.0789663,34.1541818 C20.8946067,34.1576614 20.7388764,34.1393144 20.6205843,34.1393144 C20.5287191,34.1393144 20.403191,34.16209 20.2402247,34.1503859 L20.2402247,34.0358751 Z" id="Fill-88" fill="#000000"></path>
                    <path d="M24.3041258,33.1526866 L23.967182,32.3014473 C23.9193618,32.4706829 23.8636764,32.6370716 23.8042157,32.8094705 L23.6884404,33.1526866 L24.3041258,33.1526866 Z M22.9491146,34.0358751 C23.1728,34.04062 23.227227,33.9447725 23.3077663,33.7268224 L23.5305079,33.110615 C23.7570247,32.4991525 23.8809798,32.0882421 23.9225079,31.8990778 L24.1411596,31.7241483 L24.179227,31.7241483 C24.2053393,31.8016487 24.2415191,31.8990778 24.2865079,32.0145376 L25.0170247,33.8236188 C25.0623281,33.936548 25.0997663,34.0064565 25.1781034,34.0200587 L25.3127551,34.0380894 L25.3127551,34.1503859 C25.1195865,34.1576614 24.9541034,34.1393144 24.8074966,34.1393144 C24.7090247,34.1393144 24.5492045,34.1576614 24.3340135,34.1503859 L24.3340135,34.0380894 L24.453564,34.0276505 C24.5737438,34.0200587 24.6275416,33.9207316 24.5790921,33.8040065 L24.3720809,33.2909221 L23.6340135,33.2909221 L23.4924404,33.7179652 C23.4691596,33.78819 23.4562607,33.8375373 23.4562607,33.8707517 C23.4562607,34.0017116 23.5286202,34.0276505 23.734373,34.04062 L23.734373,34.1503859 C23.5421483,34.1541818 23.3883056,34.1393144 23.2810247,34.1393144 C23.2014292,34.1393144 23.0906876,34.1503859 22.9491146,34.1503859 L22.9491146,34.0358751 Z" id="Fill-90" fill="#000000"></path>
                    <path d="M25.7012944,34.0380261 C25.9794067,34.0358118 26.0052045,33.9447093 26.0052045,33.589789 L26.0052045,31.9780966 L25.8501034,31.9780966 C25.6009348,31.9780966 25.4606202,31.9999232 25.375991,32.1448016 L25.2803506,32.3124555 L25.1781034,32.2814554 C25.2278112,32.0306071 25.2529798,31.8256264 25.2580135,31.6668296 L25.375991,31.6737888 C25.4483506,31.8174018 25.5452494,31.8256264 25.7063281,31.8256264 L26.7445303,31.8256264 C26.9710472,31.8256264 27.0893393,31.7648913 27.1500584,31.6434213 L27.2658337,31.6582887 C27.2290247,31.7762792 27.2088899,31.9815762 27.1764854,32.2722818 L27.0528449,32.2624757 C27.0893393,32.0040355 26.9820584,31.9780966 26.6048449,31.9780966 L26.4437663,31.9780966 L26.4437663,33.5610031 C26.4437663,33.9257296 26.4714517,34.0294852 26.7407551,34.0294852 L26.7407551,34.144945 C26.5324854,34.1623431 26.3569348,34.1341899 26.2244854,34.1341899 C26.0914067,34.1341899 25.9205753,34.16519 25.7012944,34.1541186 L25.7012944,34.0380261 Z" id="Fill-92" fill="#000000"></path>
                    <path d="M27.5640494,34.027524 C27.7754652,34.0357485 27.872364,33.9617277 27.872364,33.7792063 L27.872364,32.2181264 C27.872364,32.0197886 27.8292629,31.9764517 27.5671955,31.9375433 L27.5671955,31.8255631 C27.7889933,31.8255631 27.9626562,31.8378999 28.0853528,31.8378999 C28.2231506,31.8378999 28.3958697,31.8280937 28.6085438,31.8280937 L28.6085438,31.9451352 C28.3744764,31.9451352 28.309982,31.9906864 28.309982,32.1921875 L28.309982,33.7516858 C28.309982,33.9683706 28.3382966,34.0221464 28.6085438,34.029422 L28.6085438,34.1470961 C28.4125438,34.1505757 28.2341618,34.1395042 28.0718247,34.1395042 C27.9689483,34.1395042 27.8012629,34.1575349 27.5640494,34.1470961 L27.5640494,34.027524 Z" id="Fill-94" fill="#000000"></path>
                    <path d="M30.8397663,32.2410919 C30.6654742,32.0146009 30.4625528,31.9057839 30.2171596,31.9057839 C29.7480809,31.9057839 29.4252944,32.2581736 29.4252944,32.8278808 C29.4252944,33.0619637 29.4728,33.2909853 29.5652944,33.4915374 C29.7282607,33.8512026 30.0117213,34.0504894 30.3263281,34.0504894 C30.7714966,34.0504894 31.1163056,33.6633037 31.1163056,33.1318722 C31.1163056,32.7886561 31.0030472,32.4584094 30.8397663,32.2410919 M29.4334742,33.9479991 C29.127991,33.7015794 28.9719461,33.3763939 28.9719461,32.9990143 C28.9719461,32.6795228 29.0968449,32.37996 29.3271371,32.1446118 C29.5816539,31.879845 29.8871371,31.7571097 30.2741034,31.7571097 C30.622373,31.7571097 30.9237663,31.8621306 31.1443056,32.049397 C31.4170697,32.2815819 31.5709124,32.608349 31.5709124,32.9259425 C31.5709124,33.2508116 31.4507326,33.5279152 31.2088,33.7784471 C30.9300584,34.0640915 30.5783281,34.2165618 30.2118112,34.2165618 C29.9236315,34.2165618 29.6486652,34.1270409 29.4334742,33.9479991" id="Fill-96" fill="#000000"></path>
                    <path d="M31.8705124,34.0358751 C32.1964449,34.0358751 32.2096584,33.8998539 32.2096584,33.4883109 L32.2096584,32.340672 C32.2096584,32.0518643 32.1376135,31.9651904 31.8116809,31.947476 L31.8116809,31.8304346 C31.9906921,31.8215774 32.1822876,31.843404 32.386782,31.843404 C32.4430966,31.843404 32.514827,31.8418224 32.598827,31.8380264 C33.1267371,32.4706829 33.5929843,33.0489309 34.0394112,33.5417703 L34.0394112,32.2217326 C34.0394112,32.0240274 34.0029169,31.9582312 33.8286247,31.9452617 L33.7304674,31.9348229 L33.7304674,31.8256896 C33.9094787,31.8215774 34.0507371,31.8380264 34.1564449,31.8380264 C34.2442202,31.8380264 34.3666022,31.8256896 34.5257933,31.8282203 L34.5257933,31.947476 C34.287636,31.947476 34.2231416,32.0177009 34.2231416,32.2546307 L34.2231416,33.3244528 C34.2231416,33.6815874 34.2266022,33.9811503 34.2338382,34.2164985 L34.0541978,34.2164985 C33.5206247,33.5417703 32.954018,32.9050016 32.3981079,32.2647532 L32.3981079,33.6009237 C32.3981079,33.7951493 32.4047146,33.9156703 32.4405798,33.9571093 C32.4799056,34.0039259 32.5667371,34.0251199 32.7092539,34.0358751 L32.7092539,34.1541818 C32.5242652,34.1576614 32.3679056,34.1393144 32.2511865,34.1393144 C32.1583775,34.1393144 32.031591,34.16209 31.8705124,34.1503859 L31.8705124,34.0358751 Z" id="Fill-98" fill="#000000"></path>
                    <path d="M35.9340045,33.1526866 L35.5961169,32.3014473 C35.5486112,32.4706829 35.4935551,32.6370716 35.4315775,32.8094705 L35.3180045,33.1526866 L35.9340045,33.1526866 Z M34.5793079,34.0358751 C34.8036225,34.04062 34.8571056,33.9447725 34.9357573,33.7268224 L35.1600719,33.110615 C35.3869034,32.4991525 35.5102292,32.0882421 35.5523865,31.8990778 L35.770409,31.7241483 L35.8091056,31.7241483 C35.8342742,31.8016487 35.8710831,31.8990778 35.9176449,32.0145376 L36.6453303,33.8236188 C36.6925213,33.936548 36.7283865,34.0064565 36.807982,34.0200587 L36.9413753,34.0380894 L36.9413753,34.1503859 C36.7491506,34.1576614 36.5830382,34.1393144 36.4370607,34.1393144 C36.3385888,34.1393144 36.180027,34.1576614 35.9638921,34.1503859 L35.9638921,34.0380894 L36.0831281,34.0276505 C36.2026787,34.0200587 36.255218,33.9207316 36.2070831,33.8040065 L36.0010157,33.2909221 L35.2642067,33.2909221 L35.1226337,33.7179652 C35.0987236,33.78819 35.0848809,33.8375373 35.0848809,33.8707517 C35.0848809,34.0017116 35.1588135,34.0276505 35.3639371,34.04062 L35.3639371,34.1503859 C35.1710831,34.1541818 35.0188135,34.1393144 34.9102742,34.1393144 C34.8313079,34.1393144 34.7205663,34.1503859 34.5793079,34.1503859 L34.5793079,34.0358751 Z" id="Fill-100" fill="#000000"></path>
                    <path d="M37.1610652,34.0503945 L37.2803011,34.0380577 C37.4325708,34.020027 37.4476719,33.9254449 37.4476719,33.7179335 L37.4476719,32.2242316 C37.4476719,32.0075467 37.4070876,31.950924 37.1767955,31.9452301 L37.1767955,31.8304029 C37.3967056,31.8281886 37.5599865,31.8417907 37.6682112,31.8417907 C37.8041213,31.8417907 37.9762112,31.825658 38.1892,31.8354642 L38.1892,31.950924 C37.9554472,31.950924 37.8871775,31.9999549 37.8871775,32.1970274 L37.8871775,33.647076 C37.8871775,33.9254449 37.9626831,34.00168 38.2543236,34.00168 C38.5371551,34.00168 38.6994921,33.9842819 38.803627,33.8194749 L38.9178292,33.6341066 L39.0471326,33.6742802 C39.0015146,33.8011279 38.9514921,33.9618226 38.9002112,34.1623747 C38.4732899,34.1503543 38.2181438,34.1449767 38.1313124,34.1449767 C37.8572899,34.1449767 37.5319865,34.1541502 37.1610652,34.1788238 L37.1610652,34.0503945 Z" id="Fill-102" fill="#000000"></path>
                    <path d="M12.6150067,30.4516863 C12.8264225,30.4595945 12.9233213,30.3871553 12.9233213,30.2040013 L12.9233213,28.643554 C12.9233213,28.4464815 12.879591,28.398716 12.6175236,28.3623382 L12.6175236,28.2487764 C12.8368045,28.2487764 13.0095236,28.2617458 13.1287596,28.2617458 C13.2649843,28.2617458 13.4336135,28.252256 13.645973,28.252256 L13.645973,28.3689811 C13.4090742,28.3689811 13.3486697,28.4157977 13.3486697,28.6160335 L13.3486697,29.2433124 L14.5967146,29.2433124 L14.5967146,28.54138 C14.5967146,28.4053589 14.5186921,28.3762567 14.3085348,28.3658178 L14.3085348,28.252256 C14.5652539,28.2598479 14.7294787,28.2683887 14.7955461,28.2683887 C14.8367596,28.2683887 15.007591,28.2547866 15.3115011,28.252256 L15.3115011,28.3689811 C15.0802652,28.3762567 15.0176584,28.4183283 15.0176584,28.6195131 L15.0176584,30.1464295 C15.0176584,30.3960125 15.0604449,30.4542169 15.315591,30.4542169 L15.315591,30.5715747 C15.1073213,30.5788502 14.9443551,30.5652481 14.8244899,30.5652481 C14.6986472,30.5652481 14.5230966,30.5877074 14.3009843,30.5715747 L14.3009843,30.4542169 C14.5230966,30.4611761 14.5967146,30.404237 14.5967146,30.2100115 L14.5967146,29.4131807 L13.3486697,29.4131807 L13.3486697,30.175848 C13.3486697,30.3919002 13.3738382,30.446625 13.645973,30.4542169 L13.645973,30.5715747 C13.4487146,30.573789 13.2750517,30.5652481 13.1158607,30.5652481 C13.0063775,30.5652481 12.8393213,30.5877074 12.6150067,30.5715747 L12.6150067,30.4516863 Z" id="Fill-104" fill="#121313"></path>
                    <path d="M17.5236584,28.6661715 C17.3493663,28.4393642 17.148018,28.3277003 16.9032539,28.3277003 C16.4316584,28.3277003 16.1110742,28.6813553 16.1110742,29.2520114 C16.1110742,29.485778 16.1582652,29.7144833 16.2513888,29.9163007 C16.4124674,30.2743843 16.6975011,30.4749364 17.0133663,30.4749364 C17.4557034,30.4749364 17.8024,30.0893323 17.8024,29.5563192 C17.8024,29.2112051 17.6891416,28.8847543 17.5236584,28.6661715 M16.1192539,30.3730787 C15.8140854,30.1253937 15.6574112,29.8043205 15.6574112,29.4253593 C15.6574112,29.1036535 15.7832539,28.8059886 16.0126022,28.5693751 C16.2668045,28.3065063 16.5722876,28.181873 16.9595685,28.181873 C17.3081528,28.181873 17.6089169,28.2853123 17.8291416,28.4741603 C18.1047371,28.7041309 18.2570067,29.0331123 18.2570067,29.3538691 C18.2570067,29.6749423 18.136827,29.9510968 17.8945798,30.2019451 C17.616782,30.4879059 17.2650517,30.6406924 16.8982202,30.6406924 C16.6084674,30.6406924 16.3350742,30.5489572 16.1192539,30.3730787" id="Fill-106" fill="#121313"></path>
                    <path d="M18.6555191,30.0692771 L18.7867101,30.0692771 C18.8741708,30.3558704 19.0563281,30.5010651 19.3114742,30.5010651 C19.5792045,30.5010651 19.7720584,30.3194927 19.7720584,30.0892057 C19.7720584,29.8440514 19.5927326,29.740612 19.2815865,29.5846622 C18.8883281,29.3891713 18.6712494,29.2110785 18.6712494,28.8609032 C18.6712494,28.4759317 18.9745303,28.187124 19.427564,28.187124 C19.6134966,28.187124 19.7808674,28.2364712 19.9614517,28.3411759 C19.9576764,28.4895338 19.9614517,28.6325142 19.9699461,28.7644231 L19.8456764,28.7644231 C19.7912494,28.4759317 19.6273393,28.3215635 19.3844629,28.3215635 C19.1529124,28.3215635 18.9996989,28.480993 18.9996989,28.6916676 C18.9996989,28.849199 19.0928225,28.9785773 19.2778112,29.0715778 C19.5999685,29.2332215 19.8321483,29.3322323 19.9325079,29.4597125 C20.0482831,29.6052235 20.1039685,29.7485202 20.1039685,29.9164905 C20.1039685,30.3264519 19.7761483,30.6408822 19.2759236,30.6408822 C19.0896764,30.6408822 18.8936764,30.5972289 18.6888674,30.508657 C18.6847775,30.3688399 18.6759685,30.2217473 18.6555191,30.0692771" id="Fill-108" fill="#121313"></path>
                    <path d="M20.8869303,30.461271 C21.1653573,30.4596894 21.1924135,30.3689032 21.1924135,30.0136666 L21.1924135,28.4022905 L21.0363685,28.4022905 C20.7875146,28.4022905 20.645627,28.4241171 20.5638292,28.5696281 L20.4640989,28.7353841 L20.3643685,28.7040676 C20.414391,28.4535357 20.4395596,28.2488713 20.4458517,28.0916562 L20.5638292,28.098299 C20.6361888,28.2441264 20.7302562,28.2488713 20.8941663,28.2488713 L21.9314247,28.2488713 C22.1551101,28.2488713 22.2768629,28.1890852 22.3363236,28.0698295 L22.4511551,28.0821663 C22.4159191,28.2004731 22.3954697,28.4054538 22.3627506,28.699639 L22.2406831,28.6873022 C22.2768629,28.4294947 22.1667506,28.4022905 21.7914247,28.4022905 L21.6303461,28.4022905 L21.6303461,29.985197 C21.6303461,30.3467602 21.656773,30.4543118 21.9273348,30.4543118 L21.9273348,30.5691389 C21.7190652,30.587486 21.5438292,30.5580675 21.4110652,30.5580675 C21.2795596,30.5580675 21.1062112,30.5900166 20.8869303,30.5789451 L20.8869303,30.461271 Z" id="Fill-110" fill="#121313"></path>
                    <path d="M22.743236,30.4748731 L22.8637303,30.461271 C23.0153708,30.4407097 23.0317303,30.3467602 23.0317303,30.1446264 L23.0317303,28.6948941 C23.0317303,28.4465764 23.0229213,28.3763516 22.7259326,28.3621168 L22.7259326,28.2488713 C22.9294831,28.2523509 23.135236,28.2599428 23.3435056,28.2599428 C23.4929438,28.2599428 23.854427,28.2523509 24.4276404,28.2488713 C24.4251236,28.3984945 24.4276404,28.5585566 24.436764,28.7255779 L24.3118652,28.7312719 C24.3150112,28.4418315 24.1885393,28.3855251 23.8286292,28.3855251 C23.490427,28.3855251 23.456764,28.4022905 23.456764,28.6449142 L23.456764,29.2990811 C23.4995506,29.3003464 23.5360449,29.2990811 23.5627865,29.2990811 C23.8572584,29.2990811 24.0129888,29.3003464 24.0538876,29.1523047 L24.0900674,29.0175489 L24.1954607,29.0175489 C24.192,29.2177847 24.1885393,29.3427344 24.1885393,29.3870203 C24.1885393,29.4562962 24.2014382,29.5774499 24.1954607,29.7406753 L24.0790562,29.7299201 C24.0856629,29.4933066 23.9950562,29.4256124 23.7311011,29.4256124 C23.6442697,29.4256124 23.5555506,29.429092 23.456764,29.4363675 L23.456764,30.0927486 C23.456764,30.3761787 23.5014382,30.4356484 23.7380225,30.4356484 L24.136,30.4356484 C24.2536629,30.4356484 24.3417528,30.3916788 24.3980674,30.3034232 L24.5503371,30.0582688 L24.6793258,30.0984425 C24.6267865,30.2483821 24.5789663,30.4021176 24.5437303,30.5580675 C24.4172584,30.5716696 24.3191011,30.5789451 24.2420225,30.5789451 C24.0337528,30.5789451 23.7773483,30.5691389 23.484764,30.5691389 C23.2006742,30.5691389 22.9562247,30.5900166 22.743236,30.6023534 L22.743236,30.4748731 Z" id="Fill-112" fill="#121313"></path>
                    <path d="M24.8643775,30.4748731 L24.9826697,30.461271 C25.1358831,30.4407097 25.1525573,30.3467602 25.1525573,30.1446264 L25.1525573,28.6506082 C25.1525573,28.43076 25.1094562,28.3763516 24.8804225,28.369076 L24.8804225,28.2545652 C25.0978157,28.2523509 25.2614112,28.2681673 25.3699506,28.2681673 C25.5058607,28.2681673 25.6779506,28.2488713 25.8906247,28.2599428 L25.8906247,28.3763516 C25.6565573,28.3763516 25.5889169,28.4241171 25.5889169,28.6218223 L25.5889169,30.0740852 C25.5889169,30.3467602 25.6656809,30.4248933 25.9582652,30.4248933 C26.239209,30.4248933 26.4024899,30.4097095 26.5037933,30.2430045 L26.6211416,30.0582688 L26.7488719,30.0984425 C26.7051416,30.2259228 26.6535461,30.3872502 26.603209,30.587486 C26.175973,30.5735675 25.9217708,30.5691389 25.8346247,30.5691389 C25.5602876,30.5691389 25.2356135,30.5789451 24.8643775,30.6023534 L24.8643775,30.4748731 Z" id="Fill-114" fill="#121313"></path>
                    <path d="M26.9320674,30.4748731 L27.0538202,30.461271 C27.203573,30.4407097 27.221191,30.3467602 27.221191,30.1446264 L27.221191,28.6506082 C27.221191,28.43076 27.1784045,28.3763516 26.951573,28.369076 L26.951573,28.2545652 C27.1673933,28.2523509 27.3319326,28.2681673 27.4404719,28.2681673 C27.576382,28.2681673 27.7491011,28.2488713 27.9602022,28.2599428 L27.9602022,28.3763516 C27.7239326,28.3763516 27.6600674,28.4241171 27.6600674,28.6218223 L27.6600674,30.0740852 C27.6600674,30.3467602 27.735573,30.4248933 28.0275281,30.4248933 C28.3097303,30.4248933 28.470809,30.4097095 28.572427,30.2430045 L28.6900899,30.0582688 L28.8200225,30.0984425 C28.7728315,30.2259228 28.7224944,30.3872502 28.6731011,30.587486 C28.245236,30.5735675 27.9907191,30.5691389 27.9029438,30.5691389 C27.6289213,30.5691389 27.3055056,30.5789451 26.9320674,30.6023534 L26.9320674,30.4748731 Z" id="Fill-116" fill="#121313"></path>
                    <path d="M29.0098876,30.4516863 C29.2209888,30.4595945 29.3178876,30.3871553 29.3178876,30.2040013 L29.3178876,28.643554 C29.3178876,28.4464815 29.2747865,28.398716 29.0124045,28.3623382 L29.0124045,28.2487764 C29.2342022,28.2487764 29.4069213,28.2617458 29.5302472,28.2617458 C29.6680449,28.2617458 29.8410787,28.252256 30.0531236,28.252256 L30.0531236,28.3689811 C29.818427,28.3689811 29.756764,28.4157977 29.756764,28.6160335 L29.756764,30.175848 C29.756764,30.3919002 29.7809888,30.446625 30.0531236,30.4542169 L30.0531236,30.5715747 C29.8586966,30.573789 29.6796854,30.5652481 29.5151461,30.5652481 C29.4132135,30.5652481 29.2455281,30.5813809 29.0098876,30.5715747 L29.0098876,30.4516863 Z" id="Fill-118" fill="#121313"></path>
                    <path d="M30.3297573,30.459721 C30.6613528,30.459721 30.6720494,30.3265468 30.6720494,29.9124731 L30.6720494,28.764518 C30.6720494,28.4760266 30.5996899,28.3893527 30.2709258,28.3751179 L30.2709258,28.2545968 C30.4496225,28.246056 30.6418472,28.2700969 30.8476,28.2700969 C30.9039146,28.2700969 30.9734427,28.2681989 31.0602742,28.2618724 C31.5878697,28.8973758 32.0547461,29.4727769 32.4989708,29.9681469 L32.4989708,28.6449459 C32.4989708,28.450404 32.4621618,28.3820771 32.2897573,28.3691077 L32.1912854,28.3580362 L32.1912854,28.2489029 C32.3709258,28.246056 32.5121843,28.2618724 32.6182067,28.2618724 C32.7040944,28.2618724 32.8255326,28.2489029 32.9853528,28.2520662 L32.9853528,28.3751179 C32.7478247,28.3751179 32.6839596,28.4418631 32.6839596,28.6800583 L32.6839596,29.7486151 C32.6839596,30.1082803 32.6880494,30.4040472 32.6933978,30.6406608 L32.5162742,30.6406608 C31.9823865,29.9681469 31.4138921,29.3291639 30.8595551,28.6889155 L30.8595551,30.024137 C30.8595551,30.2218422 30.8645888,30.3398326 30.8998247,30.3812716 C30.9410382,30.4280882 31.0269258,30.4473842 31.1700719,30.459721 L31.1700719,30.5789768 C30.9841393,30.5815074 30.8280944,30.5653746 30.7101169,30.5653746 C30.6195101,30.5653746 30.4933528,30.5875176 30.3297573,30.5735992 L30.3297573,30.459721 Z" id="Fill-120" fill="#121313"></path>
                    <path d="M34.5993798,30.6080157 C34.2061213,30.6080157 33.8638292,30.483066 33.621582,30.2553097 C33.4085933,30.0534923 33.2858966,29.7694295 33.2858966,29.4562646 C33.2858966,29.1858039 33.3774472,28.9264148 33.5460764,28.7100462 C33.788009,28.3943506 34.1683685,28.2181558 34.6122787,28.2181558 C34.9246831,28.2181558 35.2059416,28.2852174 35.4554247,28.4183916 C35.4510202,28.5487188 35.4736719,28.6916992 35.479964,28.8609348 L35.3714247,28.8609348 C35.2691775,28.5351167 35.0149753,28.3567076 34.664818,28.3567076 C34.1334472,28.3567076 33.7414472,28.7723629 33.7414472,29.3888866 C33.7414472,29.6963577 33.8377169,29.9680837 34.0132674,30.1673704 C34.1856719,30.3688715 34.3766382,30.4596577 34.6390202,30.4596577 C34.9467056,30.4596577 35.1156494,30.3214223 35.1156494,30.0651964 L35.1156494,29.9124099 C35.1156494,29.7542458 35.0637393,29.6998373 34.8806382,29.6868678 L34.6987955,29.6713678 L34.6987955,29.5688774 C34.8614472,29.5587549 35.0042787,29.5793162 35.1294921,29.5793162 C35.3355596,29.5793162 35.5356494,29.572357 35.7266157,29.572357 L35.7266157,29.6751637 L35.6086382,29.6912964 C35.4982112,29.7067965 35.4890876,29.7918888 35.4890876,30.0063594 C35.4890876,30.0892374 35.4919191,30.2258912 35.5041888,30.4125248 C35.2141213,30.5450664 34.9143011,30.6080157 34.5993798,30.6080157" id="Fill-122" fill="#121313"></path>
                    <path d="M9.20901124,34.1248582 C9.42105618,34.1302358 9.51858427,34.0568476 9.51858427,33.8765405 L9.51858427,32.3154606 C9.51858427,32.1177555 9.47516854,32.0699899 9.21467416,32.0336122 L9.21467416,31.9194177 C9.43458427,31.9194177 9.60667416,31.9330198 9.72874157,31.9330198 C9.86968539,31.9330198 10.0414607,31.9254279 10.2535056,31.9254279 L10.2535056,32.0427857 C10.018809,32.0427857 9.95462921,32.0861227 9.95462921,32.2866748 L9.95462921,33.8468057 C9.95462921,34.0612762 9.98262921,34.1137867 10.2535056,34.1273888 L10.2535056,34.2415833 C10.058764,34.2472772 9.88069663,34.2358894 9.71804494,34.2358894 C9.61391011,34.2358894 9.44559551,34.2520222 9.20901124,34.2415833 L9.20901124,34.1248582 Z" id="Fill-124" fill="#121313"></path>
                    <path d="M10.5310202,34.1303939 C10.8600989,34.1303939 10.8723685,33.9969034 10.8723685,33.5825134 L10.8723685,32.4380378 C10.8723685,32.1466995 10.8012674,32.0590766 10.4721888,32.0448418 L10.4721888,31.9271677 C10.6499416,31.9173616 10.8427955,31.9410862 11.0485483,31.9410862 C11.1058067,31.9410862 11.1753348,31.9382392 11.259964,31.9328616 C11.7885034,32.5674161 12.2553798,33.1425008 12.6986607,33.6343913 L12.6986607,32.3172005 C12.6986607,32.120128 12.6609079,32.0521174 12.4907056,32.0429439 L12.3906607,32.0318724 L12.3906607,31.9192595 C12.5703011,31.9173616 12.7121888,31.9328616 12.817582,31.9328616 C12.9050427,31.9328616 13.0280539,31.9192595 13.1875596,31.9255861 L13.1875596,32.0448418 C12.9475146,32.0448418 12.8852225,32.1150667 12.8852225,32.3523129 L12.8852225,33.4192881 C12.8852225,33.7751573 12.8886831,34.0747202 12.8946607,34.310701 L12.7134472,34.310701 C12.1830202,33.6343913 11.6145258,32.9998368 11.0579865,32.3595884 L11.0579865,33.6979732 C11.0579865,33.8918824 11.0652225,34.0073423 11.1014022,34.0525772 C11.1416719,34.0974958 11.2275596,34.1212204 11.3707056,34.1303939 L11.3707056,34.2496497 C11.1841438,34.2521803 11.0290427,34.2360476 10.9126382,34.2360476 C10.8195146,34.2360476 10.6936719,34.2547109 10.5310202,34.2471191 L10.5310202,34.1303939 Z" id="Fill-126" fill="#121313"></path>
                    <path d="M13.8531416,34.1322603 C14.1296809,34.1303623 14.1592539,34.0383108 14.1592539,33.6875028 L14.1592539,32.0726471 L14.0013213,32.0726471 C13.7524674,32.0726471 13.6093213,32.0922594 13.525636,32.2399847 L13.4299955,32.4060571 L13.3264899,32.3750569 C13.3774562,32.1248412 13.4045124,31.9192279 13.4120629,31.7616964 L13.525636,31.7718189 C13.6005124,31.9119523 13.6958382,31.9192279 13.8588045,31.9192279 L14.8957483,31.9192279 C15.1206921,31.9192279 15.2418157,31.8600745 15.3003326,31.7401861 L15.4176809,31.7534719 C15.3811865,31.8698807 15.3594787,32.07929 15.3261303,32.3696793 L15.2050067,32.3567099 C15.2418157,32.1023819 15.1323326,32.0726471 14.7585798,32.0726471 L14.5940404,32.0726471 L14.5940404,33.6552373 C14.5940404,34.0202801 14.6195236,34.127199 14.8932315,34.127199 L14.8932315,34.2385466 C14.6843326,34.2546793 14.5094112,34.2306384 14.3747596,34.2306384 C14.2423101,34.2306384 14.0708494,34.2594242 13.8531416,34.2496181 L13.8531416,34.1322603 Z" id="Fill-128" fill="#121313"></path>
                    <path d="M15.7082202,34.1452297 L15.8277708,34.1322603 C15.9809843,34.1113826 15.9976584,34.0202801 15.9976584,33.8115034 L15.9976584,32.3671487 C15.9976584,32.1175657 15.9853888,32.0467082 15.6918607,32.0337387 L15.6918607,31.9192279 C15.8938382,31.9255545 16.0999056,31.9306157 16.3081753,31.9306157 C16.4591865,31.9306157 16.8190966,31.9255545 17.3935685,31.9192279 C17.3879056,32.0701165 17.3935685,32.2289132 17.4026921,32.3962509 L17.2762202,32.4041591 C17.2790517,32.1153514 17.1544674,32.0558817 16.7926697,32.0558817 C16.4522652,32.0558817 16.4217483,32.0726471 16.4217483,32.3171688 L16.4217483,32.9713356 C16.465164,32.9732336 16.5016584,32.9713356 16.526827,32.9713356 C16.8231865,32.9713356 16.9776584,32.9732336 17.0163551,32.8229777 L17.0544225,32.6901198 L17.1607596,32.6901198 C17.1550966,32.8884576 17.1544674,33.0140399 17.1544674,33.0576932 C17.1544674,33.1263365 17.1673663,33.2436942 17.1607596,33.4132462 L17.0437258,33.4005931 C17.0503326,33.1639795 16.9575236,33.0962853 16.6964,33.0962853 C16.6101978,33.0962853 16.5205348,33.0984996 16.4217483,33.1060915 L16.4217483,33.7627889 C16.4217483,34.0440047 16.4667371,34.1063214 16.7014337,34.1063214 L17.1006697,34.1063214 C17.2205348,34.1063214 17.3064225,34.0610864 17.3617933,33.9709329 L17.5140629,33.7289418 L17.6424225,33.7700644 C17.5914562,33.920953 17.543636,34.0724742 17.5074562,34.2306384 C17.3825573,34.2417099 17.2837708,34.2496181 17.2060629,34.2496181 C16.9987371,34.2496181 16.7423326,34.2385466 16.451636,34.2385466 C16.1647146,34.2385466 15.9221528,34.2594242 15.7082202,34.2723937 L15.7082202,34.1452297 Z" id="Fill-130" fill="#121313"></path>
                    <path d="M19.1102202,32.4974759 C19.1102202,32.224801 18.9340404,32.0467082 18.6625348,32.0467082 C18.4917034,32.0467082 18.4756584,32.1090248 18.4756584,32.2814237 L18.4756584,32.9330599 L18.5901753,32.9330599 C18.9330966,32.9330599 19.1102202,32.7729978 19.1102202,32.4974759 L19.1102202,32.4974759 Z M17.7426247,34.127199 C17.9537258,34.1322603 18.0506247,34.0591885 18.0506247,33.8801467 L18.0506247,32.390557 C18.0506247,32.1441373 18.0468494,32.0701165 17.8741303,32.0520858 L17.739164,32.0429122 L17.739164,31.9271361 C17.9508944,31.9176462 18.1135461,31.93283 18.2299506,31.93283 C18.4058157,31.93283 18.5741303,31.9176462 18.7437034,31.9176462 C19.259973,31.9176462 19.548782,32.1542598 19.548782,32.4702717 C19.548782,32.719222 19.3766921,32.884978 19.032827,32.9577335 C19.3295011,33.1845409 19.4625798,33.5565429 19.6843775,33.8956468 C19.7900854,34.0569742 19.9137258,34.1322603 20.0681978,34.127199 L20.0681978,34.2417099 C19.9395236,34.2546793 19.8127371,34.2360159 19.6941303,34.2360159 C19.6057258,34.2360159 19.5198382,34.2417099 19.4323775,34.2496181 C19.1910742,33.9345551 19.0649169,33.6267677 18.9252315,33.3926848 C18.8022202,33.1870715 18.7364674,33.0731933 18.5716135,33.0731933 L18.4756584,33.0731933 L18.4756584,33.8475649 C18.4756584,34.0610864 18.500827,34.1211888 18.7726472,34.1303623 L18.7726472,34.2417099 C18.5533663,34.2496181 18.3743551,34.2360159 18.2447371,34.2360159 C18.1305348,34.2360159 17.9637933,34.2496181 17.7426247,34.2470874 L17.7426247,34.127199 Z" id="Fill-132" fill="#121313"></path>
                    <path d="M20.2143955,34.1303939 C20.5428449,34.1303939 20.5544854,33.9969034 20.5544854,33.5825134 L20.5544854,32.4380378 C20.5544854,32.1466995 20.4821258,32.0590766 20.1543056,32.0448418 L20.1543056,31.9271677 C20.3320584,31.9173616 20.5255416,31.9410862 20.7303506,31.9410862 C20.7872944,31.9410862 20.8574517,31.9382392 20.9445978,31.9328616 C21.469991,32.5674161 21.9362382,33.1425008 22.382036,33.6343913 L22.382036,32.3172005 C22.382036,32.120128 22.345227,32.0521174 22.1731371,32.0429439 L22.0734067,32.0318724 L22.0734067,31.9192595 C22.2533618,31.9173616 22.3949348,31.9328616 22.5015865,31.9328616 C22.5874742,31.9328616 22.7098562,31.9192595 22.8690472,31.9255861 L22.8690472,32.0448418 C22.6302607,32.0448418 22.5676539,32.1150667 22.5676539,32.3523129 L22.5676539,33.4192881 C22.5676539,33.7751573 22.5711146,34.0747202 22.578036,34.310701 L22.3990247,34.310701 C21.8651371,33.6343913 21.2979011,32.9998368 20.7407326,32.3595884 L20.7407326,33.6979732 C20.7407326,33.8918824 20.7473393,34.0073423 20.7850921,34.0525772 C20.8225303,34.0974958 20.9096764,34.1212204 21.0528225,34.1303939 L21.0528225,34.2496497 C20.8668899,34.2521803 20.7111596,34.2360476 20.5950697,34.2360476 C20.5041483,34.2360476 20.376418,34.2547109 20.2143955,34.2471191 L20.2143955,34.1303939 Z" id="Fill-134" fill="#121313"></path>
                    <path d="M24.2763461,33.2438208 L23.9394022,32.3960611 C23.8922112,32.5671947 23.8362112,32.732318 23.7773798,32.9047169 L23.6612899,33.2438208 L24.2763461,33.2438208 Z M22.921964,34.1304888 C23.1481663,34.1339685 23.2007056,34.0384373 23.2796719,33.8227015 L23.5065034,33.2055451 C23.7292449,32.5950315 23.8544584,32.1831722 23.8959865,31.9927426 L24.114009,31.8209763 L24.1517618,31.8209763 C24.1775596,31.8965788 24.2137393,31.9927426 24.2621888,32.1091514 L24.9895596,33.9210795 C25.0370652,34.0333761 25.0732449,34.1045499 25.1525258,34.1111928 L25.2859191,34.1323868 L25.2859191,34.247214 C25.0930652,34.2522752 24.9282112,34.2361425 24.7812899,34.2361425 C24.6812449,34.2361425 24.5233124,34.2522752 24.3059191,34.247214 L24.3059191,34.1323868 L24.4260989,34.1247949 C24.545964,34.1111928 24.5975596,34.0166107 24.5532,33.8979876 L24.3420989,33.3852195 L23.6068629,33.3852195 L23.4640315,33.81163 C23.4426382,33.8831202 23.4278517,33.932151 23.4278517,33.9647328 C23.4278517,34.0956927 23.5014697,34.1247949 23.7078517,34.1339685 L23.7078517,34.247214 C23.5149978,34.2497446 23.3639865,34.2361425 23.2526157,34.2361425 C23.1720764,34.2361425 23.0644809,34.247214 22.921964,34.247214 L22.921964,34.1304888 Z" id="Fill-136" fill="#121313"></path>
                    <path d="M25.6733258,34.1322603 C25.9536404,34.1303623 25.978809,34.0383108 25.978809,33.6875028 L25.978809,32.0726471 L25.8246517,32.0726471 C25.5757978,32.0726471 25.4313933,32.0922594 25.3492809,32.2399847 L25.2536404,32.4060571 L25.1501348,32.3750569 C25.1998427,32.1248412 25.2262697,31.9192279 25.2341348,31.7616964 L25.3492809,31.7718189 C25.4216404,31.9119523 25.5188539,31.9192279 25.6815056,31.9192279 L26.7175056,31.9192279 C26.9437079,31.9192279 27.0613708,31.8600745 27.1220899,31.7401861 L27.2381798,31.7534719 C27.2016854,31.8698807 27.1824944,32.07929 27.1488315,32.3696793 L27.025191,32.3567099 C27.0613708,32.1023819 26.9528315,32.0726471 26.5781348,32.0726471 L26.4170562,32.0726471 L26.4170562,33.6552373 C26.4170562,34.0202801 26.4422247,34.127199 26.7140449,34.127199 L26.7140449,34.2385466 C26.5057753,34.2546793 26.3299101,34.2306384 26.1977753,34.2306384 C26.0653258,34.2306384 25.8919775,34.2594242 25.6733258,34.2496181 L25.6733258,34.1322603 Z" id="Fill-138" fill="#121313"></path>
                    <path d="M27.5366787,34.1248582 C27.7490382,34.1302358 27.8446787,34.0568476 27.8446787,33.8765405 L27.8446787,32.3154606 C27.8446787,32.1177555 27.802836,32.0699899 27.5407685,32.0336122 L27.5407685,31.9194177 C27.7619371,31.9194177 27.9349708,31.9330198 28.0589258,31.9330198 C28.1954652,31.9330198 28.3688135,31.9254279 28.581173,31.9254279 L28.581173,32.0427857 C28.3458472,32.0427857 28.2832404,32.0861227 28.2832404,32.2866748 L28.2832404,33.8468057 C28.2832404,34.0612762 28.3096674,34.1137867 28.581173,34.1273888 L28.581173,34.2415833 C28.3867461,34.2472772 28.2064764,34.2358894 28.0438247,34.2358894 C27.9409483,34.2358894 27.7735775,34.2520222 27.5366787,34.2415833 L27.5366787,34.1248582 Z" id="Fill-140" fill="#121313"></path>
                    <path d="M30.8117978,32.3368444 C30.6393933,32.1090881 30.4383596,31.9996385 30.1898202,31.9996385 C29.7201124,31.9996385 29.3992135,32.3536098 29.3992135,32.921419 C29.3992135,33.1555019 29.4445169,33.3851562 29.5379551,33.5860247 C29.6993483,33.9482205 29.9859551,34.145293 30.299618,34.145293 C30.7438427,34.145293 31.0902247,33.7590562 31.0902247,33.2276248 C31.0902247,32.8825107 30.9763371,32.5519476 30.8117978,32.3368444 M29.4064494,34.0409047 C29.1003371,33.795434 28.9449213,33.4743608 28.9449213,33.0960322 C28.9449213,32.7730611 29.0701348,32.4769778 29.2997978,32.240048 C29.5552584,31.9771792 29.8610562,31.8512806 30.2473933,31.8512806 C30.5959775,31.8512806 30.8983146,31.9556689 31.1172809,32.1442005 C31.3900449,32.3751202 31.5426292,32.7025199 31.5426292,33.0232767 C31.5426292,33.3456152 31.4246517,33.6224024 31.1817753,33.8723017 C30.9039775,34.1614257 30.5538202,34.3107327 30.1828989,34.3107327 C29.8956629,34.3107327 29.6206966,34.2186812 29.4064494,34.0409047" id="Fill-142" fill="#121313"></path>
                    <path d="M31.8425753,34.1303939 C32.1729124,34.1303939 32.1845528,33.9969034 32.1845528,33.5825134 L32.1845528,32.4380378 C32.1845528,32.1466995 32.1118787,32.0590766 31.7837438,32.0448418 L31.7837438,31.9271677 C31.9627551,31.9173616 32.1546652,31.9410862 32.360418,31.9410862 C32.4173618,31.9410862 32.4865753,31.9382392 32.5724629,31.9328616 C33.0997438,32.5674161 33.5669348,33.1425008 34.0108449,33.6343913 L34.0108449,32.3172005 C34.0108449,32.120128 33.9737213,32.0521174 33.8025753,32.0429439 L33.7025303,32.0318724 L33.7025303,31.9192595 C33.8821708,31.9173616 34.0240584,31.9328616 34.1310247,31.9328616 C34.2153393,31.9328616 34.339609,31.9192595 34.4991146,31.9255861 L34.4991146,32.0448418 C34.2596989,32.0448418 34.1961483,32.1150667 34.1961483,32.3523129 L34.1961483,33.4192881 C34.1961483,33.7751573 34.2005528,34.0747202 34.2074742,34.310701 L34.0284629,34.310701 C33.4942607,33.6343913 32.9263955,32.9998368 32.3711146,32.3595884 L32.3711146,33.6979732 C32.3711146,33.8918824 32.3767775,34.0073423 32.4129573,34.0525772 C32.4529124,34.0974958 32.5388,34.1212204 32.6822607,34.1303939 L32.6822607,34.2496497 C32.4982157,34.2521803 32.3405978,34.2360476 32.2241933,34.2360476 C32.1294966,34.2360476 32.005227,34.2547109 31.8425753,34.2471191 L31.8425753,34.1303939 Z" id="Fill-144" fill="#121313"></path>
                    <path d="M35.9057213,33.2438208 L35.5690921,32.3960611 C35.5219011,32.5671947 35.4668449,32.732318 35.4070697,32.9047169 L35.290036,33.2438208 L35.9057213,33.2438208 Z M34.5500809,34.1304888 C34.7778562,34.1339685 34.8297663,34.0384373 34.9087326,33.8227015 L35.1343056,33.2055451 C35.3598787,32.5950315 35.4822607,32.1831722 35.5247326,31.9927426 L35.7440135,31.8209763 L35.7805079,31.8209763 C35.8078787,31.8965788 35.8434292,31.9927426 35.8893618,32.1091514 L36.6214517,33.9210795 C36.6664404,34.0333761 36.7016764,34.1045499 36.7822157,34.1111928 L36.9152944,34.1323868 L36.9152944,34.247214 C36.7230697,34.2522752 36.5556989,34.2361425 36.4097213,34.2361425 C36.3112494,34.2361425 36.1526876,34.2522752 35.9349798,34.247214 L35.9349798,34.1323868 L36.0567326,34.1247949 C36.1747101,34.1111928 36.227564,34.0166107 36.1832045,33.8979876 L35.9730472,33.3852195 L35.2384404,33.3852195 L35.0934067,33.81163 C35.0726427,33.8831202 35.0569124,33.932151 35.0569124,33.9647328 C35.0569124,34.0956927 35.1295865,34.1247949 35.3378562,34.1339685 L35.3378562,34.247214 C35.144373,34.2497446 34.9930472,34.2361425 34.881991,34.2361425 C34.8036539,34.2361425 34.6944854,34.247214 34.5500809,34.247214 L34.5500809,34.1304888 Z" id="Fill-146" fill="#121313"></path>
                    <path d="M37.1343551,34.1452297 L37.2523326,34.1322603 C37.4058607,34.1113826 37.4241079,34.0202801 37.4241079,33.8115034 L37.4241079,32.3203321 C37.4241079,32.1039636 37.3791191,32.0467082 37.1504,32.0429122 L37.1504,31.9271361 C37.3699955,31.9255545 37.5317034,31.9382076 37.6415011,31.9382076 C37.7761528,31.9382076 37.9498157,31.9192279 38.1624899,31.9306157 L38.1624899,32.0467082 C37.9265348,32.0467082 37.859209,32.0922594 37.859209,32.2924952 L37.859209,33.7425439 C37.859209,34.0202801 37.9366022,34.0958825 38.2301303,34.0958825 C38.5091865,34.0958825 38.6724674,34.0772192 38.7744,33.9130448 L38.8908045,33.7289418 L39.0204225,33.7700644 C38.9738607,33.8956468 38.9235236,34.0569742 38.876018,34.2546793 C38.445636,34.2470874 38.1898607,34.2385466 38.1080629,34.2385466 C37.8293213,34.2385466 37.505591,34.2496181 37.1343551,34.2723937 L37.1343551,34.1452297 Z" id="Fill-148" fill="#121313"></path>
                </g>
                <g id="Group-153" transform="translate(45.932584, 5.028986)">
                    <mask id="mask-2" fill="white">
                        <use xlink:href="#path-1"></use>
                    </mask>
                    <g id="Clip-152"></g>
                    <path d="M1.41881348,2.96155991 C2.15971236,2.96155991 2.76249888,2.35262804 2.76249888,1.60324643 C2.76249888,0.860824048 2.15971236,0.25189218 1.41881348,0.25189218 C0.672566292,0.25189218 0.0672629213,0.860824048 0.0672629213,1.60324643 C0.0672629213,2.35262804 0.672566292,2.96155991 1.41881348,2.96155991 L1.41881348,2.96155991 Z M1.41881348,2.74550772 C0.759083146,2.74550772 0.281824719,2.26975004 0.281824719,1.60324643 C0.281824719,0.943702047 0.759083146,0.467628042 1.41881348,0.467628042 C2.07413933,0.467628042 2.54793708,0.943702047 2.54793708,1.60324643 C2.54793708,2.26975004 2.07413933,2.74550772 1.41881348,2.74550772 L1.41881348,2.74550772 Z M1.11049888,1.68232849 L1.44020674,1.68232849 L1.87373483,2.37065875 L2.09584719,2.37065875 L1.63715056,1.68232849 C1.90613933,1.66081817 2.11346517,1.54883798 2.11346517,1.24959146 C2.11346517,0.972487917 1.97755506,0.821283017 1.57580225,0.821283017 L0.913240449,0.821283017 L0.913240449,2.37065875 L1.11049888,2.37065875 L1.11049888,1.68232849 Z M1.11049888,1.50233772 L1.11049888,1.00127379 L1.53395955,1.00127379 C1.71957753,1.00127379 1.89858876,1.02974333 1.89858876,1.24642818 C1.89858876,1.53808282 1.59782472,1.50233772 1.38294831,1.50233772 L1.11049888,1.50233772 Z" id="Fill-151" fill="#121313" mask="url(#mask-2)"></path>
                </g>
            </g>
        </g>
    </g>
</svg>