<?xml version="1.0" encoding="UTF-8" standalone="no"?>
<svg width="90px" height="90px" viewBox="0 0 90 90" version="1.1" xmlns="http://www.w3.org/2000/svg" xmlns:xlink="http://www.w3.org/1999/xlink">
    <!-- Generator: Sketch 3.6.1 (26313) - http://www.bohemiancoding.com/sketch -->
    <title>aventura-awards01</title>
    <desc>Created with Sketch.</desc>
    <defs></defs>
    <g id="kit" stroke="none" stroke-width="1" fill="none" fill-rule="evenodd">
        <g id="aventura-awards01">
            <g id="trip-advisor" transform="translate(12.000000, 14.000000)">
                <path d="M12.1750946,51.1335397 C9.8480668,51.1124689 8.12808974,49.6164386 8.1738848,47.7485079 C8.20050983,46.6264853 8.75324549,46.0143771 9.89705686,45.9943598 C10.3166674,45.9880385 10.7469279,46.035448 11.1558884,46.1334274 C11.5669789,46.2303533 11.9620943,46.4041878 12.3529498,46.569594 C15.9526541,48.0888021 19.5502284,49.6174922 23.1478027,51.1430216 C19.4905884,51.1356468 15.832309,51.1683066 12.1750946,51.1335397" id="Fill-1" fill="#569045"></path>
                <path d="M14.2987071,46.1471235 C10.9556681,44.794375 7.94916953,44.1285362 4.29728015,42.0614859 C3.4207841,41.5652675 2.42926791,40.6423643 2.08101249,39.4739858 C1.78281214,38.4731205 2.14065257,37.3721686 2.99052358,36.7021156 C3.86169463,36.0130989 4.67961561,36.4461048 5.46132655,36.9286273 C5.6775218,37.0613736 5.87241704,37.233101 6.05879226,37.405882 C8.94601072,40.0945222 12.1857446,43.5585697 15.0708331,46.2514242 C14.7321627,45.9332543 15.881299,46.8993527 14.2987071,46.1471235" id="Fill-2" fill="#569045"></path>
                <path d="M8.58178029,38.1728609 C6.13653735,35.8203006 3.64549937,33.5109356 1.26735152,31.0941093 C0.146970176,29.95523 -0.381270457,28.516091 0.310980373,26.9062782 C1.00962121,25.2838229 2.90851849,24.9667066 4.01185981,26.3479007 C4.14391997,26.5122533 4.35798522,26.7619429 4.44851033,26.9494734 C6.16955239,30.5452137 7.72445426,35.0617501 9.23782107,38.7554698 C9.174986,38.7912903 8.64461536,38.1370404 8.58178029,38.1728609" id="Fill-3" fill="#569045"></path>
                <path d="M17.1678206,1.966822 L12.9898206,12.3389471 C12.9898206,12.3389471 17.7173612,8.10370661 18.2690319,7.41152924 C19.1220979,6.34429077 20.3713444,3.89269755 19.6173235,1.58754673 C18.8643676,-0.716550544 17.5789111,1.15348725 17.3733658,1.56120817 L17.1678206,1.966822" id="Fill-4" fill="#569045"></path>
                <path d="M12.9898206,9.70509109 L8.23245987,20.4786159 L7.98857457,9.04241291 C7.98857457,9.04241291 8.59882031,5.29917668 11.4359837,5.42033406 C14.2731471,5.5404379 13.5106062,7.89615875 13.4190161,8.19747189 C13.327426,8.49983856 12.9898206,9.70509109 12.9898206,9.70509109" id="Fill-5" fill="#569045"></path>
                <path d="M6.93635331,16.7817355 L6.93635331,30.0405669 L2.18325262,19.2385965 C2.18325262,19.2385965 1.32592659,16.3139627 3.72430946,14.7894868 C5.39636147,13.7275161 6.67968801,15.3826312 6.76488811,15.7218719 C6.85008821,16.0611125 6.93635331,16.7817355 6.93635331,16.7817355" id="Fill-6" fill="#569045"></path>
                <path d="M54.24158,51.1335397 C56.5686078,51.1124689 58.2885849,49.6164386 58.2427898,47.7485079 C58.2161648,46.6264853 57.6634291,46.0143771 56.5196177,45.9943598 C56.1000072,45.9880385 55.6697467,46.035448 55.2607862,46.1334274 C54.8496957,46.2303533 54.4545803,46.4041878 54.0637248,46.569594 C50.4640205,48.0888021 46.8664462,49.6174922 43.2688719,51.1430216 C46.9260862,51.1356468 50.5843656,51.1683066 54.24158,51.1335397" id="Fill-7" fill="#569045"></path>
                <path d="M52.1179675,46.1471235 C55.4610065,44.794375 58.4675051,44.1285362 62.1193945,42.0614859 C62.9958905,41.5652675 63.9874067,40.6423643 64.3356621,39.4739858 C64.6338625,38.4731205 64.276022,37.3721686 63.426151,36.7021156 C62.55498,36.0130989 61.737059,36.4461048 60.9553481,36.9286273 C60.7391528,37.0613736 60.5442576,37.233101 60.3578823,37.405882 C57.4706639,40.0945222 54.23093,43.5585697 51.3458415,46.2514242 C51.6845119,45.9332543 50.5353756,46.8993527 52.1179675,46.1471235" id="Fill-8" fill="#569045"></path>
                <path d="M57.8348943,38.1728609 C60.2801372,35.8203006 62.7711752,33.5109356 65.1493231,31.0941093 C66.2697044,29.95523 66.7979451,28.516091 66.1056942,26.9062782 C65.4070534,25.2838229 63.5081561,24.9667066 62.4048148,26.3479007 C62.2727546,26.5122533 62.0586894,26.7619429 61.9681643,26.9494734 C60.2471222,30.5452137 58.6922203,35.0617501 57.1788535,38.7554698 C57.2416886,38.7912903 57.7720592,38.1370404 57.8348943,38.1728609" id="Fill-9" fill="#569045"></path>
                <path d="M49.248854,1.966822 L53.426854,12.3389471 C53.426854,12.3389471 48.6993134,8.10370661 48.1476427,7.41152924 C47.2945767,6.34429077 46.0453302,3.89269755 46.7993511,1.58754673 C47.552307,-0.716550544 48.8377635,1.15348725 49.0433088,1.56120817 L49.248854,1.966822" id="Fill-10" fill="#569045"></path>
                <path d="M53.426854,9.70509109 L58.1842147,20.4786159 L58.4281,9.04241291 C58.4281,9.04241291 57.8178543,5.29917668 54.9806909,5.42033406 C52.1435275,5.5404379 52.9060684,7.89615875 52.9976585,8.19747189 C53.0892486,8.49983856 53.426854,9.70509109 53.426854,9.70509109" id="Fill-11" fill="#569045"></path>
                <path d="M59.4803213,16.7817355 L59.4803213,30.0405669 L64.233422,19.2385965 C64.233422,19.2385965 65.090748,16.3139627 62.6923651,14.7894868 C61.0203131,13.7275161 59.7369866,15.3826312 59.6517865,15.7218719 C59.5665864,16.0611125 59.4803213,16.7817355 59.4803213,16.7817355" id="Fill-12" fill="#569045"></path>
                <path d="M9.5136564,53.350193 L9.5136564,54.6766029 L10.9705781,54.6766029 L10.9705781,55.4435818 L9.5136564,55.4435818 L9.5136564,58.429321 C9.5136564,59.1151771 9.71068164,59.5039343 10.2772623,59.5039343 C10.5552277,59.5039343 10.7160428,59.4807563 10.867273,59.4344005 L10.9130681,60.2013794 C10.7160428,60.2709132 10.4039975,60.3393934 10.011012,60.3393934 C9.53708643,60.3393934 9.15581597,60.1782014 8.91299568,59.9158694 C8.63503035,59.6071814 8.52001021,59.1151771 8.52001021,58.4619808 L8.52001021,55.4435818 L7.65203417,55.4435818 L7.65203417,54.6766029 L8.52001021,54.6766029 L8.52001021,53.6588809 L9.5136564,53.350193" id="Fill-13" fill="#1A1918"></path>
                <path d="M11.8843492,56.4044125 C11.8843492,55.7522697 11.8726342,55.1907316 11.8385542,54.6766029 L12.7288953,54.6766029 L12.7746903,55.7628051 L12.8098354,55.7628051 C13.0633057,55.0200577 13.6884614,54.5501778 14.3700622,54.5501778 C14.4744323,54.5501778 14.5553724,54.5617668 14.6480276,54.5849447 L14.6480276,55.5225975 C14.5319424,55.5110085 14.4275723,55.5015266 14.2891221,55.5015266 C13.5723763,55.5015266 13.0633057,56.0377797 12.9248555,56.7805271 C12.9014255,56.9301301 12.8907755,57.0902686 12.8907755,57.2609425 L12.8907755,60.2140219 L11.8726342,60.2140219 L11.8843492,56.4044125" id="Fill-14" fill="#1A1918"></path>
                <path d="M15.9430691,53.6588809 C15.5607337,53.6588809 15.3072633,53.361782 15.3072633,53.0077917 C15.3072633,52.6527479 15.5724487,52.3672379 15.9654341,52.3672379 C16.3584196,52.3672379 16.6129549,52.6527479 16.6129549,53.0077917 C16.6129549,53.361782 16.3584196,53.6588809 15.9547841,53.6588809 L15.9430691,53.6588809 L15.9430691,53.6588809 Z M15.4574285,54.6766029 L16.4745047,54.6766029 L16.4745047,60.2129683 L15.4574285,60.2129683 L15.4574285,54.6766029 Z" id="Fill-15" fill="#1A1918"></path>
                <path d="M17.9197115,56.4844817 C17.9197115,55.7743941 17.9079965,55.2023206 17.8739164,54.6766029 L18.7866225,54.6766029 L18.8451976,55.6258446 L18.8675626,55.6258446 C19.2722631,54.9399885 19.9432139,54.5501778 20.84527,54.5501778 C22.2095366,54.5501778 23.2266128,55.6837895 23.2266128,57.3641896 C23.2266128,59.3553848 21.9901464,60.3393934 20.6833898,60.3393934 C19.9314989,60.3393934 19.2956931,60.018063 18.9602177,59.4702209 L18.9378527,59.4702209 L18.9378527,62.477031 L17.9197115,62.477031 L17.9197115,56.4844817 L17.9197115,56.4844817 Z M18.9378527,57.9604946 C18.9378527,58.0974551 18.9485027,58.2460046 18.9836478,58.3724297 C19.157243,59.0698748 19.7813337,59.5492366 20.4980796,59.5492366 C21.5737309,59.5492366 22.1978216,58.6811176 22.1978216,57.4105455 C22.1978216,56.3001118 21.6195259,55.3519236 20.5449396,55.3519236 C19.8505588,55.3519236 19.191323,55.8312854 18.9953628,56.5877289 C18.9719327,56.7236358 18.9378527,56.8732388 18.9378527,56.9996639 L18.9378527,57.9604946 L18.9378527,57.9604946 Z" id="Fill-16" fill="#1A1918"></path>
                <path d="M28.1991038,58.8865584 C28.1991038,59.3659202 28.2214688,59.8358001 28.2800439,60.2140219 L27.3662728,60.2140219 L27.2736177,59.5144697 L27.2395376,59.5144697 C26.9381423,59.9495827 26.3257666,60.3393934 25.5280806,60.3393934 C24.3949192,60.3393934 23.8166235,59.5492366 23.8166235,58.7485444 C23.8166235,57.4105455 25.01901,56.6783335 27.1809626,56.690976 L27.1809626,56.5750863 C27.1809626,56.1189025 27.0542274,55.2834433 25.9093511,55.2939788 C25.3779154,55.2939788 24.8336998,55.4435818 24.4407143,55.7069674 L24.209609,55.0316467 C24.6718196,54.7461367 25.3544854,54.5501778 26.0595162,54.5501778 C27.7826883,54.5501778 28.1991038,55.7069674 28.1991038,56.815294 L28.1991038,58.8865584 L28.1991038,58.8865584 Z M27.2043926,57.3873675 C26.0946613,57.3641896 24.8336998,57.5601485 24.8336998,58.6347618 C24.8336998,59.2984935 25.2735453,59.5945389 25.7826159,59.5945389 C26.5217268,59.5945389 26.9967174,59.1383551 27.1585976,58.6684751 C27.1926776,58.565228 27.2043926,58.4524989 27.2043926,58.3481982 L27.2043926,57.3873675 L27.2043926,57.3873675 Z" id="Fill-17" fill="#569045"></path>
                <path d="M34.4197763,52.0922633 L34.4197763,58.7843648 C34.4197763,59.2753156 34.4304263,59.8358001 34.4655713,60.2140219 L33.5518002,60.2140219 L33.5060052,59.2521376 L33.4825751,59.2521376 C33.1705298,59.8695135 32.499579,60.3393934 31.5868729,60.3393934 C30.2332562,60.3393934 29.181035,59.2057818 29.181035,57.5243281 C29.170385,55.6722005 30.3376264,54.5501778 31.690178,54.5501778 C32.558154,54.5501778 33.1353847,54.9515775 33.37927,55.3866905 L33.401635,55.3866905 L33.401635,52.0922633 L34.4197763,52.0922633 L34.4197763,52.0922633 Z M33.401635,56.9301301 C33.401635,56.7931696 33.38992,56.6319776 33.35584,56.4950171 C33.2056748,55.8660523 32.6508091,55.3403346 31.8872032,55.3403346 C30.834982,55.3403346 30.2108912,56.255863 30.2108912,57.4674368 C30.2108912,58.5999949 30.7774719,59.5271122 31.8637732,59.5271122 C32.546439,59.5271122 33.1705298,59.0698748 33.35584,58.3260738 C33.38992,58.1880598 33.401635,58.0510993 33.401635,57.8920144 L33.401635,56.9301301 L33.401635,56.9301301 Z" id="Fill-18" fill="#569045"></path>
                <path d="M36.2462534,54.6766029 L37.3453348,57.7761247 C37.52958,58.2913069 37.6797452,58.7485444 37.7958303,59.2057818 L37.8309753,59.2057818 C37.9577105,58.7485444 38.1195907,58.2913069 38.3049009,57.7761247 L39.3912022,54.6766029 L40.4551385,54.6766029 L38.2580409,60.2140219 L37.2867597,60.2140219 L35.1599521,54.6766029 L36.2462534,54.6766029" id="Fill-19" fill="#569045"></path>
                <path d="M41.6575249,53.6588809 C41.2762545,53.6588809 41.0217192,53.361782 41.0217192,53.0077917 C41.0217192,52.6527479 41.2879695,52.3672379 41.680955,52.3672379 C42.0739404,52.3672379 42.3284757,52.6527479 42.3284757,53.0077917 C42.3284757,53.361782 42.0739404,53.6588809 41.6692399,53.6588809 L41.6575249,53.6588809 L41.6575249,53.6588809 Z M41.1718843,54.6766029 L42.1889606,54.6766029 L42.1889606,60.2129683 L41.1718843,60.2129683 L41.1718843,54.6766029 Z" id="Fill-20" fill="#569045"></path>
                <path d="M43.4957171,59.1952463 C43.8077625,59.3785627 44.3402631,59.5840035 44.8482688,59.5840035 C45.5767296,59.5840035 45.92392,59.2289597 45.92392,58.7611869 C45.92392,58.279718 45.6353047,58.0173859 44.8951288,57.7424113 C43.8780526,57.3768321 43.403062,56.8384719 43.403062,56.1747402 C43.403062,55.2834433 44.1432379,54.5501778 45.3349743,54.5501778 C45.901555,54.5501778 46.3978456,54.7008344 46.699241,54.8936326 L46.4553557,55.6153092 C46.2359654,55.4888841 45.8312649,55.2939788 45.3115443,55.2939788 C44.7098186,55.2939788 44.3860582,55.6384871 44.3860582,56.0504222 C44.3860582,56.5181951 44.7098186,56.7236358 45.4382795,56.9996639 C46.3978456,57.3536542 46.9069162,57.833016 46.9069162,58.6684751 C46.9069162,59.6535373 46.1326603,60.3393934 44.8259037,60.3393934 C44.212463,60.3393934 43.6458823,60.1782014 43.2528968,59.9495827 L43.4957171,59.1952463" id="Fill-21" fill="#569045"></path>
                <path d="M50.2488902,60.3393934 C48.7451084,60.3393934 47.566152,59.2405487 47.566152,57.4906147 C47.566152,55.6384871 48.8026185,54.5501778 50.3404803,54.5501778 C51.9475673,54.5501778 53.0349336,55.7069674 53.0349336,57.3873675 C53.0349336,59.447043 51.5897268,60.3393934 50.2595402,60.3393934 L50.2488902,60.3393934 L50.2488902,60.3393934 Z M50.2829703,59.5840035 C51.2542514,59.5840035 51.9827123,58.6811176 51.9827123,57.4210809 C51.9827123,56.4844817 51.5087867,55.3066213 50.3064003,55.3066213 C49.1146639,55.3066213 48.5949432,56.4044125 48.5949432,57.4569013 C48.5949432,58.6684751 49.2882591,59.5840035 50.2712553,59.5840035 L50.2829703,59.5840035 L50.2829703,59.5840035 Z" id="Fill-22" fill="#569045"></path>
                <path d="M54.0871548,56.4044125 C54.0871548,55.7522697 54.0754398,55.1907316 54.0413598,54.6766029 L54.9306358,54.6766029 L54.9774959,55.7628051 L55.0115759,55.7628051 C55.2661112,55.0200577 55.890202,54.5501778 56.5728678,54.5501778 C56.6772379,54.5501778 56.758178,54.5617668 56.8508331,54.5849447 L56.8508331,55.5225975 C56.734748,55.5110085 56.6303779,55.5015266 56.4919277,55.5015266 C55.7751818,55.5015266 55.2661112,56.0377797 55.1276611,56.7805271 C55.104231,56.9301301 55.092516,57.0902686 55.092516,57.2609425 L55.092516,60.2140219 L54.0754398,60.2140219 L54.0871548,56.4044125" id="Fill-23" fill="#569045"></path>
                <path d="M58.38337,54.6018014 C58.4685701,54.5849447 58.5921102,54.5744093 58.7348204,54.5744093 C58.9073506,54.5744093 59.0287607,54.6018014 59.1118308,54.6713352 C59.1821209,54.7261194 59.220461,54.8104028 59.220461,54.9199712 C59.220461,55.0695742 59.1150259,55.1738749 59.0149157,55.2107489 L59.0149157,55.2160166 C59.0958558,55.2486764 59.1405859,55.3266386 59.1704059,55.4351534 C59.206616,55.5710604 59.240696,55.7280382 59.264126,55.7733406 L58.9936157,55.7733406 C58.9765757,55.7385737 58.9467557,55.6416478 58.9137406,55.4962589 C58.8817906,55.3466559 58.8306705,55.3066213 58.7220404,55.3066213 L58.6442953,55.3066213 L58.6442953,55.7733406 L58.38337,55.7733406 L58.38337,54.6018014 L58.38337,54.6018014 Z M58.6442953,55.1117159 L58.7486654,55.1117159 C58.8796606,55.1117159 58.9574057,55.0442892 58.9574057,54.9399885 C58.9574057,54.8335807 58.8849856,54.7756359 58.7635754,54.7756359 C58.6996754,54.7756359 58.6634653,54.7798501 58.6442953,54.7851178 L58.6442953,55.1117159 L58.6442953,55.1117159 Z" id="Fill-24" fill="#569045"></path>
                <path d="M57.6186991,55.2202308 C57.6186991,55.8702665 58.1533297,56.3991448 58.8104355,56.3991448 C59.4675413,56.3991448 60.0032369,55.8702665 60.0032369,55.2202308 C60.0032369,54.5701951 59.4675413,54.0402633 58.8104355,54.0402633 C58.1533297,54.0402633 57.6186991,54.5701951 57.6186991,55.2202308 L57.6186991,55.2202308 Z M57.8753644,55.2202308 C57.8753644,54.7092627 58.2949749,54.294167 58.8104355,54.294167 C59.3258961,54.294167 59.7455066,54.7092627 59.7455066,55.2202308 C59.7455066,55.7290918 59.3258961,56.145241 58.8104355,56.145241 C58.2949749,56.145241 57.8753644,55.7290918 57.8753644,55.2202308 L57.8753644,55.2202308 Z" id="Fill-25" fill="#569045"></path>
                <path d="M51.8559772,18.9509794 C51.9283972,18.9383369 52.0338324,18.9299085 52.1541775,18.9299085 C52.3011477,18.9299085 52.4044528,18.9509794 52.4747429,19.0099778 C52.535448,19.0573872 52.567398,19.1279745 52.567398,19.2217398 C52.567398,19.3492184 52.4779379,19.4366624 52.3927378,19.4682687 L52.3927378,19.4724829 C52.4619629,19.5009285 52.5003029,19.5683552 52.524798,19.6600134 C52.555683,19.7759031 52.585503,19.9086494 52.604673,19.9476305 L52.3746328,19.9476305 C52.3607878,19.9181313 52.3352277,19.835955 52.3075377,19.711637 C52.2798477,19.5852119 52.2361826,19.550445 52.1445925,19.550445 L52.0774974,19.550445 L52.0774974,19.9476305 L51.8559772,19.9476305 L51.8559772,18.9509794 L51.8559772,18.9509794 Z M52.0774974,19.3850389 L52.1658925,19.3850389 C52.2777177,19.3850389 52.3437477,19.327094 52.3437477,19.2385965 C52.3437477,19.1469383 52.2819777,19.1005824 52.1797375,19.1005824 C52.1254225,19.1005824 52.0945374,19.103743 52.0774974,19.1069037 L52.0774974,19.3850389 L52.0774974,19.3850389 Z" id="Fill-26" fill="#559046"></path>
                <path d="M51.2063264,19.4777506 C51.2063264,20.0287533 51.6610819,20.4786159 52.2191426,20.4786159 C52.7782683,20.4786159 53.2330238,20.0287533 53.2330238,19.4777506 C53.2330238,18.9235873 52.7782683,18.4747782 52.2191426,18.4747782 C51.6610819,18.4747782 51.2063264,18.9235873 51.2063264,19.4777506 L51.2063264,19.4777506 Z M51.4246516,19.4777506 C51.4246516,19.0426376 51.7803621,18.6918079 52.2191426,18.6918079 C52.6579231,18.6918079 53.0136335,19.0426376 53.0136335,19.4777506 C53.0136335,19.909703 52.6579231,20.2626397 52.2191426,20.2626397 C51.7803621,20.2626397 51.4246516,19.909703 51.4246516,19.4777506 L51.4246516,19.4777506 Z" id="Fill-27" fill="#559046"></path>
                <path d="M51.8559772,31.5903278 C51.9283972,31.5787388 52.0338324,31.569257 52.1541775,31.569257 C52.3011477,31.569257 52.4044528,31.5903278 52.4747429,31.6503797 C52.535448,31.6977891 52.567398,31.7683765 52.567398,31.8610882 C52.567398,31.9885668 52.4779379,32.0770644 52.3927378,32.1086707 L52.3927378,32.1128849 C52.4619629,32.1413305 52.5003029,32.2066501 52.524798,32.2993619 C52.555683,32.4152515 52.585503,32.5469443 52.604673,32.5869789 L52.3746328,32.5869789 C52.3607878,32.5585333 52.3352277,32.4753034 52.3075377,32.352039 C52.2798477,32.2245604 52.2361826,32.1919005 52.1445925,32.1887399 L52.0774974,32.1887399 L52.0774974,32.5869789 L51.8559772,32.5869789 L51.8559772,31.5903278 L51.8559772,31.5903278 Z M52.0774974,32.0243873 L52.1658925,32.0243873 C52.2777177,32.0243873 52.3437477,31.967496 52.3437477,31.8789984 C52.3437477,31.7883938 52.2819777,31.7388773 52.1797375,31.7388773 C52.1254225,31.7388773 52.0945374,31.7430915 52.0774974,31.7462521 L52.0774974,32.0243873 L52.0774974,32.0243873 Z" id="Fill-28" fill="#1A1918"></path>
                <path d="M51.2063264,32.117099 C51.2063264,32.6691553 51.6610819,33.1190179 52.2191426,33.1190179 C52.7782683,33.1190179 53.2330238,32.6691553 53.2330238,32.117099 C53.2330238,31.5639893 52.7782683,31.1141266 52.2191426,31.1141266 C51.6610819,31.1141266 51.2063264,31.5639893 51.2063264,32.117099 L51.2063264,32.117099 Z M51.4246516,32.117099 C51.4246516,31.6830395 51.7803621,31.3301028 52.2191426,31.3301028 C52.6579231,31.3301028 53.0136335,31.6830395 53.0136335,32.117099 C53.0136335,32.5511585 52.6579231,32.9019881 52.2191426,32.9019881 C51.7803621,32.9019881 51.4246516,32.5511585 51.4246516,32.117099 L51.4246516,32.117099 Z" id="Fill-29" fill="#1A1918"></path>
                <path d="M24.3203691,10.5869061 L24.3203691,10.2034167 L24.8177247,9.7251084 C26.0115912,8.60097863 26.5515468,8.00362008 26.5579368,7.306175 C26.5579368,6.83629508 26.3278966,6.40328914 25.6303207,6.40328914 C25.2053852,6.40328914 24.8528698,6.61610471 24.6377395,6.79309984 L24.4364543,6.35166556 C24.7591497,6.0819587 25.2202952,5.88178564 25.7602509,5.88178564 C26.7666771,5.88178564 27.1916126,6.56658822 27.1916126,7.22715932 C27.1916126,8.08158222 26.5653918,8.77270605 25.5802657,9.71141235 L25.2053852,10.0538136 L25.2053852,10.0685632 L27.3066327,10.0685632 L27.3066327,10.5869061 L24.3203691,10.5869061" id="Fill-30" fill="#1A1918"></path>
                <path d="M32.4143788,8.22486399 C32.4143788,9.79674928 31.8243681,10.6648682 30.7881219,10.6648682 C29.8754158,10.6648682 29.2566501,9.81887367 29.24174,8.28807653 C29.24174,6.73726209 29.9180159,5.88178564 30.867997,5.88178564 C31.8531232,5.88178564 32.4143788,6.75201168 32.4143788,8.22486399 L32.4143788,8.22486399 Z M29.8754158,8.29545133 C29.8754158,9.49754323 30.2492313,10.1812923 30.8243319,10.1812923 C31.4718527,10.1812923 31.7817681,9.43327715 31.7817681,8.25225609 C31.7817681,7.11443028 31.4867627,6.3674687 30.831787,6.3674687 C30.2779863,6.3674687 29.8754158,7.03541459 29.8754158,8.29545133 L29.8754158,8.29545133 Z" id="Fill-31" fill="#1A1918"></path>
                <path d="M35.6658277,6.54446383 L35.6519827,6.54446383 L34.8393868,6.97957685 L34.7169116,6.50126859 L35.7382478,5.96185487 L36.2782035,5.96185487 L36.2782035,10.5869061 L35.6658277,10.5869061 L35.6658277,6.54446383" id="Fill-32" fill="#1A1918"></path>
                <path d="M42.0696804,6.48862608 L40.2847383,6.48862608 L40.1058181,7.67702193 C40.2133832,7.66121879 40.3134933,7.64752274 40.4870885,7.64752274 C40.845994,7.64752274 41.2059644,7.72548488 41.4935147,7.8972123 C41.8609402,8.10370661 42.1634005,8.50194565 42.1634005,9.08560815 C42.1634005,9.98954754 41.4360047,10.6648682 40.4221234,10.6648682 C39.9109228,10.6648682 39.4795973,10.52264 39.255947,10.3804118 L39.4146322,9.90421061 C39.6084625,10.0169396 39.9907979,10.1591679 40.4146684,10.1591679 C41.0121342,10.1591679 41.5222698,9.77673198 41.5222698,9.15619549 C41.5158798,8.55989048 41.1122443,8.13109871 40.1771732,8.13109871 C39.9109228,8.13109871 39.7021826,8.1605979 39.5296524,8.18166875 L39.8321127,5.96185487 L42.0696804,5.96185487 L42.0696804,6.48862608" id="Fill-33" fill="#1A1918"></path>
                <path d="M16.1560694,13.7823003 L14.8961729,13.7823003 L14.8961729,12.905753 L18.4809672,12.905753 L18.4809672,13.7823003 L17.2082906,13.7823003 L17.2082906,17.5202688 L16.1560694,17.5202688 L16.1560694,13.7823003" id="Fill-34" fill="#559046"></path>
                <path d="M19.1380729,12.9742332 C19.4767433,12.9120742 19.9751639,12.8709861 20.5428096,12.8709861 C21.2350605,12.8709861 21.719636,12.9742332 22.0508514,13.2407795 C22.3352068,13.4599163 22.487502,13.7823003 22.487502,14.2058243 C22.487502,14.7884333 22.0646964,15.1929936 21.663191,15.3362753 L21.663191,15.3562926 C21.9890814,15.4858784 22.1690666,15.7871915 22.2862167,16.2128226 C22.4321219,16.7395938 22.5705721,17.3411666 22.6600322,17.5202688 L21.5801209,17.5202688 C21.5119608,17.3822547 21.3937456,17.0124613 21.2627505,16.4435484 C21.1306903,15.8630465 20.9304701,15.71239 20.4938196,15.7060687 L20.1828392,15.7060687 L20.1828392,17.5202688 L19.1380729,17.5202688 L19.1380729,12.9742332 L19.1380729,12.9742332 Z M20.1828392,14.9527859 L20.5981897,14.9527859 C21.1243003,14.9527859 21.4352807,14.6915074 21.4352807,14.2880006 C21.4352807,13.8697443 21.1445353,13.651661 20.6599598,13.651661 C20.4043595,13.651661 20.2595193,13.6664106 20.1828392,13.6853744 L20.1828392,14.9527859 L20.1828392,14.9527859 Z" id="Fill-35" fill="#559046"></path>
                <path d="M24.4790543,16.3350335 L24.1542289,17.5202688 L23.0604726,17.5202688 L24.4865093,12.905753 L25.863556,12.905753 L27.3162177,17.5202688 L26.1819914,17.5202688 L25.8220209,16.3350335 L24.4790543,16.3350335 L24.4790543,16.3350335 Z M25.6622708,15.5554122 L25.3725904,14.5756177 C25.2959103,14.3016967 25.2128402,13.9519206 25.1436151,13.6853744 L25.1233801,13.6853744 C25.060545,13.9592954 24.9849299,14.3080179 24.9157049,14.5756177 L24.6313495,15.5554122 L25.6622708,15.5554122 L25.6622708,15.5554122 Z" id="Fill-36" fill="#559046"></path>
                <path d="M28.7273444,17.5202688 L27.2331476,12.905753 L28.388674,12.905753 L28.9563197,14.85586 C29.1150049,15.4110768 29.2609101,15.9304733 29.3716702,16.5057074 L29.3919052,16.5057074 C29.5101204,15.9515441 29.6549605,15.403702 29.8147107,14.8769308 L30.4089814,12.905753 L31.5304278,12.905753 L29.9595509,17.5202688 L28.7273444,17.5202688" id="Fill-37" fill="#559046"></path>
                <path d="M34.9000918,15.5680547 L33.1833098,15.5680547 L33.1833098,16.6626852 L35.1003121,16.6626852 L35.1003121,17.5202688 L32.1321535,17.5202688 L32.1321535,12.905753 L35.003397,12.905753 L35.003397,13.7601759 L33.1833098,13.7601759 L33.1833098,14.7188995 L34.9000918,14.7188995 L34.9000918,15.5680547" id="Fill-38" fill="#559046"></path>
                <path d="M35.9235581,12.905753 L36.9757793,12.905753 L36.9757793,16.6437215 L38.8299465,16.6437215 L38.8299465,17.5202688 L35.9235581,17.5202688 L35.9235581,12.905753" id="Fill-39" fill="#559046"></path>
                <path d="M42.3242157,15.5680547 L40.6074337,15.5680547 L40.6074337,16.6626852 L42.524436,16.6626852 L42.524436,17.5202688 L39.5562774,17.5202688 L39.5562774,12.905753 L42.4275209,12.905753 L42.4275209,13.7601759 L40.6074337,13.7601759 L40.6074337,14.7188995 L42.3242157,14.7188995 L42.3242157,15.5680547" id="Fill-40" fill="#559046"></path>
                <path d="M43.3402269,12.9742332 C43.6799624,12.9120742 44.1783829,12.8709861 44.7460286,12.8709861 C45.4372145,12.8709861 45.92179,12.9742332 46.2540704,13.2407795 C46.5373608,13.4599163 46.689656,13.7823003 46.689656,14.2058243 C46.689656,14.7884333 46.2679155,15.1929936 45.86641,15.3362753 L45.86641,15.3562926 C46.1912354,15.4858784 46.3712206,15.7871915 46.4894357,16.2128226 C46.6342759,16.7395938 46.7727261,17.3411666 46.8632512,17.5202688 L45.7833399,17.5202688 C45.7141148,17.3822547 45.5969646,17.0124613 45.4649045,16.4435484 C45.3339093,15.8630465 45.1326241,15.71239 44.6970386,15.7060687 L44.3849932,15.7060687 L44.3849932,17.5202688 L43.3402269,17.5202688 L43.3402269,12.9742332 L43.3402269,12.9742332 Z M44.3849932,14.9527859 L44.8003437,14.9527859 C45.3264543,14.9527859 45.6384997,14.6915074 45.6384997,14.2880006 C45.6384997,13.8697443 45.3477544,13.651661 44.8631788,13.651661 C44.6065135,13.651661 44.4616733,13.6664106 44.3849932,13.6853744 L44.3849932,14.9527859 L44.3849932,14.9527859 Z" id="Fill-41" fill="#559046"></path>
                <path d="M47.574672,16.4435484 C47.8515724,16.5889373 48.2946129,16.732219 48.7440434,16.732219 C49.228619,16.732219 49.4852843,16.5341531 49.4852843,16.2317864 C49.4852843,15.9441693 49.263764,15.7808702 48.7025084,15.588072 C47.9282524,15.3141509 47.4159868,14.8906269 47.4159868,14.2205739 C47.4159868,13.4335777 48.0869376,12.8372727 49.1806939,12.8372727 C49.7131946,12.8372727 50.0934,12.9405199 50.3703004,13.0701056 L50.1349351,13.9045112 C49.9549499,13.8149601 49.6162795,13.6853744 49.1668489,13.6853744 C48.7099634,13.6853744 48.4884431,13.8971364 48.4884431,14.1310228 C48.4884431,14.4260147 48.7440434,14.5545469 49.3532242,14.7810585 C50.1764701,15.0823716 50.5577406,15.5069492 50.5577406,16.1580384 C50.5577406,16.930285 49.9624049,17.588749 48.6822733,17.588749 C48.1497727,17.588749 47.6236621,17.4444137 47.3606068,17.301132 L47.574672,16.4435484" id="Fill-42" fill="#559046"></path>
                <path d="M52.4672879,12.7824885 C52.2521576,13.4451667 51.9550223,14.1173268 51.6365869,14.6304019 L50.9997161,14.6915074 C51.2073914,14.1025772 51.3873766,13.4451667 51.4842917,12.8446475 L52.4672879,12.7824885" id="Fill-43" fill="#559046"></path>
                <path d="M20.89639,26.1666914 C20.6024497,26.3068126 19.9048739,26.4774864 19.0219878,26.4774864 C16.4819598,26.4774864 15.1741382,24.9045476 15.1741382,22.8332832 C15.1741382,20.3658869 16.9612103,18.9962817 19.184933,18.9962817 C20.046519,18.9962817 20.7004298,19.1690627 20.9943702,19.3091838 L20.6461147,20.6134693 C20.3191594,20.4722946 19.8505588,20.3437625 19.2509631,20.3437625 C17.9431415,20.3437625 16.9186103,21.1307587 16.9186103,22.7468927 C16.9186103,24.1923529 17.7897813,25.1089348 19.2616131,25.1089348 C19.7738787,25.1089348 20.3191594,25.0120089 20.6567648,24.8718878 L20.89639,26.1666914" id="Fill-44" fill="#559046"></path>
                <path d="M23.4470681,19.103743 L23.4470681,21.9072194 L26.1819914,21.9072194 L26.1819914,19.103743 L27.8391334,19.103743 L27.8391334,26.3710787 L26.1819914,26.3710787 L26.1819914,23.3400371 L23.4470681,23.3400371 L23.4470681,26.3710787 L21.7899261,26.3710787 L21.7899261,19.103743 L23.4470681,19.103743" id="Fill-45" fill="#559046"></path>
                <path d="M32.1875336,26.4890754 C30.019191,26.4890754 28.7326694,24.8613524 28.7326694,22.7911415 C28.7326694,20.6134693 30.1501861,18.9846927 32.3078787,18.9846927 C34.5635514,18.9846927 35.7957579,20.6566646 35.7957579,22.6605022 C35.7957579,25.0541506 34.3462912,26.4890754 32.1992486,26.4890754 L32.1875336,26.4890754 L32.1875336,26.4890754 Z M32.2748637,25.1847899 C33.39844,25.1847899 34.0406358,24.1386223 34.0406358,22.7152865 C34.0406358,21.4110009 33.4197401,20.2889783 32.2748637,20.2889783 C31.1310523,20.2889783 30.4877915,21.3888765 30.4877915,22.7468927 C30.4877915,24.1175514 31.1523523,25.1847899 32.2642137,25.1847899 L32.2748637,25.1847899 L32.2748637,25.1847899 Z" id="Fill-46" fill="#559046"></path>
                <path d="M36.678644,19.103743 L38.3357859,19.103743 L38.3357859,26.3710787 L36.678644,26.3710787 L36.678644,19.103743 Z" id="Fill-47" fill="#559046"></path>
                <path d="M44.9398589,26.1666914 C44.6459185,26.3068126 43.9483427,26.4774864 43.0654566,26.4774864 C40.5264936,26.4774864 39.217607,24.9045476 39.217607,22.8332832 C39.217607,20.3658869 41.0057441,18.9962817 43.2284018,18.9962817 C44.0899878,18.9962817 44.7438986,19.1690627 45.037839,19.3091838 L44.6895836,20.6134693 C44.3626282,20.4722946 43.8940276,20.3437625 43.2944319,20.3437625 C41.9866103,20.3437625 40.9620791,21.1307587 40.9620791,22.7468927 C40.9620791,24.1923529 41.8343151,25.1089348 43.3050819,25.1089348 C43.8173475,25.1089348 44.3626282,25.0120089 44.7002336,24.8718878 L44.9398589,26.1666914" id="Fill-48" fill="#559046"></path>
                <path d="M50.1935102,23.2968419 L47.4905369,23.2968419 L47.4905369,25.0225444 L50.5098155,25.0225444 L50.5098155,26.3710787 L45.8333949,26.3710787 L45.8333949,19.103743 L50.3575204,19.103743 L50.3575204,20.4501702 L47.4905369,20.4501702 L47.4905369,21.9609501 L50.1935102,21.9609501 L50.1935102,23.2968419" id="Fill-49" fill="#559046"></path>
                <path d="M24.0115188,39.641499 C24.0115188,40.3884606 24.6228295,40.9931939 25.3768504,40.9931939 C26.1308713,40.9931939 26.7421821,40.3884606 26.7421821,39.641499 C26.7421821,38.895591 26.1308713,38.2908576 25.3768504,38.2908576 C24.6228295,38.2908576 24.0115188,38.895591 24.0115188,39.641499" id="Fill-50" fill="#D9262C"></path>
                <path d="M40.4530085,39.641499 C40.4530085,40.3884606 41.0643192,40.9931939 41.8183401,40.9931939 C42.572361,40.9931939 43.1836718,40.3884606 43.1836718,39.641499 C43.1836718,38.895591 42.572361,38.2908576 41.8183401,38.2908576 C41.0643192,38.2908576 40.4530085,38.895591 40.4530085,39.641499" id="Fill-51" fill="#0D9E4D"></path>
                <path d="M22.526907,36.8211659 C21.7654311,37.5744488 21.3458206,38.5774212 21.3458206,39.641499 C21.3458206,40.7076839 21.7654311,41.7085492 22.526907,42.4618321 C23.2873179,43.2140614 24.3001341,43.6302106 25.3768504,43.6302106 C27.5995081,43.6302106 29.4078802,41.8412956 29.4078802,39.641499 C29.4078802,37.442756 27.5995081,35.6538409 25.3768504,35.6538409 C24.3001341,35.6538409 23.2873179,36.0689366 22.526907,36.8211659 L22.526907,36.8211659 Z M23.400208,41.5968737 C22.8719674,41.0753702 22.5812221,40.3800322 22.5812221,39.641499 C22.5812221,38.9040193 22.8719674,38.2086813 23.400208,37.6871778 C23.9284487,37.1646208 24.6302845,36.8759501 25.3768504,36.8759501 C26.9179073,36.8759501 28.1724788,38.1159696 28.1724788,39.641499 C28.1724788,41.1659749 26.9179073,42.4070479 25.3768504,42.4070479 C24.6302845,42.4070479 23.9284487,42.1194308 23.400208,41.5968737 L23.400208,41.5968737 Z" id="Fill-52" fill="#1A1918"></path>
                <path d="M38.9673317,36.8211659 C38.2058558,37.5744488 37.7873103,38.5774212 37.7873103,39.641499 C37.7873103,40.7076839 38.2058558,41.7085492 38.9673317,42.4618321 C39.7288076,43.2140614 40.7416238,43.6302106 41.8183401,43.6302106 C44.0409978,43.6302106 45.84937,41.8412956 45.84937,39.641499 C45.84937,37.442756 44.0409978,35.6538409 41.8183401,35.6538409 C40.7416238,35.6538409 39.7288076,36.0689366 38.9673317,36.8211659 L38.9673317,36.8211659 Z M39.8416978,41.5968737 C39.3134571,41.0753702 39.0227118,40.3800322 39.0227118,39.641499 C39.0227118,38.9040193 39.3134571,38.2086813 39.8416978,37.6871778 C40.3688734,37.1646208 41.0707092,36.8759501 41.8183401,36.8759501 C43.359397,36.8759501 44.6139685,38.1159696 44.6139685,39.641499 C44.6139685,41.1659749 43.359397,42.4070479 41.8183401,42.4070479 C41.0707092,42.4070479 40.3688734,42.1194308 39.8416978,41.5968737 L39.8416978,41.5968737 Z" id="Fill-53" fill="#1A1918"></path>
                <path d="M48.3137829,34.3980184 C48.6300883,33.4666869 49.1135989,32.3688957 49.7824197,31.7062175 L44.2731681,31.7062175 C44.181578,31.6798789 44.0867928,31.6598616 43.9941377,31.6356301 C43.6948724,31.1710179 41.6458099,28.5550721 33.4548851,28.5550721 C24.4662743,28.5550721 22.8740974,31.7062175 22.8740974,31.7062175 L17.1273505,31.7062175 C17.8611364,32.4321082 18.370207,33.680556 18.6822524,34.661404 C17.6225761,36.0489193 16.9867704,37.7725147 16.9867704,39.641499 C16.9867704,44.2180873 20.7504849,47.9413062 25.3768504,47.9413062 C27.9413735,47.9413062 30.2375162,46.7939985 31.7775081,44.994548 L33.6827954,47.6326183 L35.3260923,44.8923544 C36.8660842,46.7518568 39.203762,47.9413062 41.8183401,47.9413062 C46.4436407,47.9413062 50.2073552,44.2180873 50.2073552,39.641499 C50.2073552,37.654518 49.4959343,35.828729 48.3137829,34.3980184 L48.3137829,34.3980184 Z M25.3768504,46.3114761 C21.658931,46.3114761 18.6343273,43.3204691 18.6343273,39.641499 C18.6343273,35.9646359 21.658931,32.9715219 25.3768504,32.9715219 C29.0947699,32.9715219 32.1193735,35.9646359 32.1193735,39.641499 C32.1193735,43.3204691 29.0947699,46.3114761 25.3768504,46.3114761 L25.3768504,46.3114761 Z M41.8183401,46.3114761 C38.1004207,46.3114761 35.074752,43.3204691 35.074752,39.641499 C35.074752,35.9646359 38.1004207,32.9715219 41.8183401,32.9715219 C45.5362596,32.9715219 48.5608632,35.9646359 48.5608632,39.641499 C48.5608632,43.3204691 45.5362596,46.3114761 41.8183401,46.3114761 L41.8183401,46.3114761 Z" id="Fill-54" fill="#1A1918"></path>
                <path d="M33.9671507,29.5116886 C39.7128326,29.5116886 41.8747852,31.8747843 41.8747852,31.8747843 C41.8747852,31.8747843 35.7307928,30.86233 33.6827954,38.3466954 C31.6347979,30.86233 25.4908056,31.8747843 25.4908056,31.8747843 C25.4908056,31.8747843 27.6527581,29.5116886 33.39844,29.5116886 L33.9671507,29.5116886" id="Fill-55" fill="#FDDC9B"></path>
                <path d="M33.9671507,29.5116886 C39.7128326,29.5116886 41.8747852,31.8747843 41.8747852,31.8747843 C41.8747852,31.8747843 35.7307928,30.86233 33.6827954,38.3466954 C31.6347979,30.86233 25.4908056,31.8747843 25.4908056,31.8747843 C25.4908056,31.8747843 27.6527581,29.5116886 33.39844,29.5116886 L33.9671507,29.5116886 L33.9671507,29.5116886 Z" id="Stroke-56" stroke="#1A1918" stroke-width="0.387"></path>
            </g>
        </g>
    </g>
</svg>