<?xml version="1.0" encoding="UTF-8" standalone="no"?>
<svg width="90px" height="90px" viewBox="0 0 90 90" version="1.1" xmlns="http://www.w3.org/2000/svg" xmlns:xlink="http://www.w3.org/1999/xlink">
    <!-- Generator: Sketch 3.6.1 (26313) - http://www.bohemiancoding.com/sketch -->
    <title>aventura-awards-03</title>
    <desc>Created with Sketch.</desc>
    <defs>
        <path id="path-1" d="M0,69 L79.856,69 L79.856,0.525 L0,0.525 L0,69 Z"></path>
        <path id="path-3" d="M79.856,14.6198014 L79.856,0.580862634 L0,0.580862634 L0,14.6198014 L79.856,14.6198014 L79.856,14.6198014 Z"></path>
    </defs>
    <g id="kit" stroke="none" stroke-width="1" fill="none" fill-rule="evenodd">
        <g id="aventura-awards-03">
            <g id="Page-1" transform="translate(5.000000, 10.000000)">
                <g id="Group-65" transform="translate(0.000000, 0.474900)">
                    <path d="M33.088,20.6371 C32.885,20.4731 32.68,20.3111 32.478,20.1461 C31.933,19.6991 31.363,19.2861 31.249,18.5001 C30.932,16.3001 31.687,14.7221 33.854,13.8901 C33.949,14.4851 33.738,14.9851 33.515,15.4761 C33.256,16.0441 32.981,16.6121 32.574,17.0871 C32.229,17.4891 32.253,18.0301 31.93,18.4771 C33.638,18.9261 35.397,19.1871 36.868,20.4291 C35.753,20.8391 34.717,20.8811 33.662,20.6681 C33.463,20.6281 33.269,20.5771 33.067,20.6201 C33.069,20.6221 33.088,20.6371 33.088,20.6371 L33.088,20.6371 Z" id="Fill-1" fill="#000000"></path>
                    <path d="M32.9609,17.895 C34.0479,17.733 34.2059,17.135 33.9359,16.115 C33.7629,15.464 34.2429,14.888 34.7479,14.455 C35.2079,14.061 35.7249,13.749 36.2989,13.54 C36.4309,13.492 36.5679,13.381 36.6929,13.482 C36.8449,13.605 36.7589,13.776 36.7109,13.93 C36.4019,14.913 35.8069,15.723 35.1629,16.504 C35.0379,16.655 34.9299,16.82 34.8269,16.961 C35.9529,17.782 37.3829,17.728 38.5149,18.434 C38.7999,18.612 39.1149,18.767 39.2889,19.087 C38.4169,19.506 37.4929,19.566 36.5669,19.49 C35.6759,19.417 34.9079,18.99 34.4669,18.225 C34.1139,17.613 33.7289,17.585 33.1839,17.823 C33.1119,17.854 33.0349,17.871 32.9609,17.895" id="Fill-3" fill="#000000"></path>
                    <path d="M45.8703,20.5208 C46.3683,19.9978 46.9503,19.7358 47.5493,19.5208 C48.4013,19.2158 49.2803,19.0048 50.1653,18.8138 C50.6993,18.6988 50.8603,18.3528 50.5973,17.8628 C50.3493,17.4028 50.0523,16.9688 49.7943,16.5128 C49.4373,15.8818 49.1233,15.2298 49.0453,14.4948 C49.0183,14.2448 49.0413,14.0198 49.3923,14.2198 C50.2473,14.7078 50.9733,15.3268 51.4263,16.2208 C51.7543,16.8698 51.7083,17.5518 51.5433,18.2248 C51.1123,19.9778 49.9013,20.8788 48.0383,20.8758 C47.3293,20.8738 46.6293,20.8268 45.8703,20.5208" id="Fill-5" fill="#000000"></path>
                    <path d="M46.1504,13.5621 C47.0114,13.8191 47.6844,14.2581 48.2544,14.8361 C48.7824,15.3721 49.0324,16.0471 48.7684,16.7721 C48.5554,17.3561 48.6314,17.6951 49.3104,17.8591 C48.7734,17.7811 48.5354,18.0581 48.2704,18.4341 C47.3734,19.7061 46.0544,19.7501 44.6804,19.5471 C44.4624,19.5141 44.2504,19.4361 44.0334,19.3901 C43.8554,19.3521 43.6314,19.3191 43.6144,19.1241 C43.5984,18.9401 43.8024,18.8381 43.9604,18.7431 C44.8854,18.1841 45.9124,17.9201 46.9544,17.6911 C47.1464,17.6491 47.5774,17.8051 47.3564,17.2981 C47.3194,17.2121 47.4644,17.2271 47.5284,17.2451 C47.6614,17.2821 47.8144,17.3831 47.8954,17.2011 C47.9704,17.0311 47.8394,16.8961 47.7354,16.7731 C47.2114,16.1551 46.7254,15.5121 46.3874,14.7701 C46.2204,14.4031 46.0684,14.0311 46.1504,13.5621" id="Fill-7" fill="#000000"></path>
                    <path d="M54.2142,20.3035 C53.7872,20.2095 53.5102,20.3265 53.2062,20.7025 C52.0942,22.0785 50.6772,22.1035 49.0732,21.6875 C48.5532,21.5535 49.0212,21.3165 49.1412,21.2295 C49.9372,20.6525 50.8562,20.3445 51.8002,20.1335 C52.2822,20.0255 52.7232,19.8575 53.1442,19.6155 C53.3872,19.4755 53.2252,19.3035 53.1692,19.1515 C52.8312,18.2465 52.5092,17.3385 52.3822,16.3725 C52.3402,16.0505 52.3342,15.7385 52.4202,15.4225 C53.8442,16.2355 54.7462,18.0305 54.0552,19.4965 C53.9332,19.7535 53.6272,20.1415 54.2132,20.3015 C54.2132,20.3025 54.2142,20.3035 54.2142,20.3035" id="Fill-9" fill="#000000"></path>
                    <path d="M46.1523,16.8882 C44.5973,17.7522 42.8813,16.6282 42.1303,14.7752 C43.7523,14.9902 44.9363,15.8902 46.1523,16.8882" id="Fill-11" fill="#000000"></path>
                    <path d="M40.597,14.7372 C39.805,16.7322 38.006,17.6172 36.483,16.7592 C37.722,15.8152 38.967,15.0012 40.597,14.7372" id="Fill-13" fill="#000000"></path>
                    <path d="M32.5094,41.138 C32.5094,41.834 33.0714,42.401 33.7724,42.401 C34.4734,42.401 35.0344,41.834 35.0344,41.138 C35.0344,40.442 34.4734,39.881 33.7724,39.881 C33.0714,39.881 32.5094,40.442 32.5094,41.138" id="Fill-15" fill="#FF2509"></path>
                    <path d="M47.7361,41.138 C47.7361,41.834 48.3031,42.401 49.0041,42.401 C49.7001,42.401 50.2671,41.834 50.2671,41.138 C50.2671,40.442 49.7001,39.881 49.0041,39.881 C48.3031,39.881 47.7361,40.442 47.7361,41.138" id="Fill-17" fill="#00A436"></path>
                    <path d="M31.129,38.5111 C30.428,39.2121 30.038,40.1481 30.038,41.1381 C30.038,42.1331 30.428,43.0641 31.129,43.7651 C31.835,44.4711 32.777,44.8561 33.772,44.8561 C35.832,44.8561 37.506,43.1871 37.506,41.1381 C37.506,39.0891 35.832,37.4251 33.772,37.4251 C32.777,37.4251 31.835,37.8101 31.129,38.5111 M31.942,42.9621 C31.45,42.4761 31.183,41.8281 31.183,41.1381 C31.183,40.4531 31.45,39.8061 31.942,39.3191 C32.429,38.8321 33.082,38.5641 33.772,38.5641 C35.201,38.5641 36.362,39.7201 36.362,41.1381 C36.362,42.5611 35.201,43.7171 33.772,43.7171 C33.082,43.7171 32.429,43.4491 31.942,42.9621" id="Fill-19" fill="#140E0F"></path>
                    <path d="M46.3611,38.5111 C45.6551,39.2121 45.2701,40.1481 45.2701,41.1381 C45.2701,42.1331 45.6551,43.0641 46.3611,43.7651 C47.0671,44.4711 48.0041,44.8561 49.0041,44.8561 C51.0641,44.8561 52.7381,43.1871 52.7381,41.1381 C52.7381,39.0891 51.0641,37.4251 49.0041,37.4251 C48.0041,37.4251 47.0671,37.8101 46.3611,38.5111 M47.1691,42.9621 C46.6821,42.4761 46.4141,41.8281 46.4141,41.1381 C46.4141,40.4531 46.6821,39.8061 47.1691,39.3191 C47.6611,38.8321 48.3081,38.5641 49.0041,38.5641 C50.4331,38.5641 51.5941,39.7201 51.5941,41.1381 C51.5941,42.5611 50.4331,43.7171 49.0041,43.7171 C48.3081,43.7171 47.6611,43.4491 47.1691,42.9621" id="Fill-21" fill="#140E0F"></path>
                    <path d="M55.0231,36.2533 C55.3121,35.3863 55.7611,34.3643 56.3821,33.7443 L51.2781,33.7443 C51.1921,33.7223 51.1071,33.7013 51.0211,33.6803 C50.7431,33.2463 48.8431,30.8123 41.2571,30.8123 C32.9271,30.8123 31.4551,33.7443 31.4551,33.7443 L26.1321,33.7443 C26.8111,34.4233 27.2821,35.5843 27.5711,36.4993 C26.5871,37.7943 25.9981,39.3993 25.9981,41.1383 C25.9981,45.4023 29.4861,48.8743 33.7721,48.8743 C36.1471,48.8743 38.2771,47.8043 39.7001,46.1303 L41.4661,48.5853 L42.9901,46.0333 C44.4131,47.7613 46.5801,48.8743 49.0041,48.8743 C53.2901,48.8743 56.7731,45.4023 56.7731,41.1383 C56.7731,39.2873 56.1141,37.5853 55.0231,36.2533 M33.7721,47.3553 C30.3261,47.3553 27.5231,44.5673 27.5231,41.1383 C27.5231,37.7143 30.3261,34.9263 33.7721,34.9263 C37.2171,34.9263 40.0161,37.7143 40.0161,41.1383 C40.0161,44.5673 37.2171,47.3553 33.7721,47.3553 M49.0041,47.3553 C45.5581,47.3553 42.7551,44.5673 42.7551,41.1383 C42.7551,37.7143 45.5581,34.9263 49.0041,34.9263 C52.4501,34.9263 55.2481,37.7143 55.2481,41.1383 C55.2481,44.5673 52.4501,47.3553 49.0041,47.3553" id="Fill-23" fill="#140E0F"></path>
                    <path d="M41.7278,31.7002 C47.0508,31.7002 49.0578,33.9042 49.0578,33.9042 C49.0578,33.9042 43.3648,32.9572 41.4658,39.9342 C39.5718,32.9572 33.8788,33.9042 33.8788,33.9042 C33.8788,33.9042 35.8798,31.7002 41.2038,31.7002 L41.7278,31.7002 Z" id="Fill-25" fill="#FFE898"></path>
                    <path d="M41.7278,31.7002 C47.0508,31.7002 49.0578,33.9042 49.0578,33.9042 C49.0578,33.9042 43.3648,32.9572 41.4658,39.9342 C39.5718,32.9572 33.8788,33.9042 33.8788,33.9042 C33.8788,33.9042 35.8798,31.7002 41.2038,31.7002 L41.7278,31.7002 L41.7278,31.7002 Z" id="Stroke-27" stroke="#140E0F" stroke-width="0.535" stroke-linecap="round" stroke-linejoin="round"></path>
                    <path d="M14.1517,2.0806 L14.1517,9.8156 L13.1907,9.8156 L13.1907,2.0806 L11.1077,2.0806 L11.1077,1.1876 L16.2567,1.1876 L16.2567,2.0806 L14.1517,2.0806 Z" id="Fill-29" fill="#000000"></path>
                    <path d="M14.1517,2.0806 L14.1517,9.8156 L13.1907,9.8156 L13.1907,2.0806 L11.1077,2.0806 L11.1077,1.1876 L16.2567,1.1876 L16.2567,2.0806 L14.1517,2.0806 L14.1517,2.0806 Z" id="Stroke-31" stroke="#000000" stroke-width="0.2"></path>
                    <path d="M17.4291,3.3257 L17.4291,5.9277 L17.6791,5.9277 C17.9341,5.9277 18.1601,5.9117 18.3551,5.8797 C18.5511,5.8477 18.7421,5.7877 18.9311,5.7017 C19.1201,5.6157 19.2641,5.4827 19.3631,5.3037 C19.4621,5.1247 19.5121,4.9007 19.5121,4.6317 C19.5121,4.4007 19.4771,4.2037 19.4071,4.0407 C19.3361,3.8777 19.2501,3.7497 19.1471,3.6577 C19.0451,3.5647 18.9071,3.4927 18.7351,3.4407 C18.5621,3.3897 18.3971,3.3577 18.2401,3.3457 C18.0831,3.3327 17.8931,3.3257 17.6691,3.3257 L17.4291,3.3257 Z M17.4291,6.6377 L17.4291,9.8157 L16.6221,9.8157 L16.6221,2.5767 L17.6691,2.5767 C18.0401,2.5767 18.3731,2.6057 18.6671,2.6637 C18.9621,2.7217 19.2401,2.8207 19.5021,2.9607 C19.7651,3.1017 19.9671,3.3077 20.1071,3.5797 C20.2481,3.8527 20.3191,4.1837 20.3191,4.5737 C20.3191,5.1307 20.1551,5.5917 19.8291,5.9557 C19.5021,6.3207 19.0611,6.5257 18.5041,6.5707 L20.8081,9.8157 L19.8191,9.8157 L17.6311,6.6377 L17.4291,6.6377 Z" id="Fill-33" fill="#000000"></path>
                    <path d="M17.4291,3.3257 L17.4291,5.9277 L17.6791,5.9277 C17.9341,5.9277 18.1601,5.9117 18.3551,5.8797 C18.5511,5.8477 18.7421,5.7877 18.9311,5.7017 C19.1201,5.6157 19.2641,5.4827 19.3631,5.3037 C19.4621,5.1247 19.5121,4.9007 19.5121,4.6317 C19.5121,4.4007 19.4771,4.2037 19.4071,4.0407 C19.3361,3.8777 19.2501,3.7497 19.1471,3.6577 C19.0451,3.5647 18.9071,3.4927 18.7351,3.4407 C18.5621,3.3897 18.3971,3.3577 18.2401,3.3457 C18.0831,3.3327 17.8931,3.3257 17.6691,3.3257 L17.4291,3.3257 L17.4291,3.3257 Z M17.4291,6.6377 L17.4291,9.8157 L16.6221,9.8157 L16.6221,2.5767 L17.6691,2.5767 C18.0401,2.5767 18.3731,2.6057 18.6671,2.6637 C18.9621,2.7217 19.2401,2.8207 19.5021,2.9607 C19.7651,3.1017 19.9671,3.3077 20.1071,3.5797 C20.2481,3.8527 20.3191,4.1837 20.3191,4.5737 C20.3191,5.1307 20.1551,5.5917 19.8291,5.9557 C19.5021,6.3207 19.0611,6.5257 18.5041,6.5707 L20.8081,9.8157 L19.8191,9.8157 L17.6311,6.6377 L17.4291,6.6377 L17.4291,6.6377 Z" id="Stroke-35" stroke="#000000" stroke-width="0.2"></path>
                    <mask id="mask-2" fill="white">
                        <use xlink:href="#path-1"></use>
                    </mask>
                    <g id="Clip-38"></g>
                    <path d="M21.81,9.815 L22.616,9.815 L22.616,2.577 L21.81,2.577 L21.81,9.815 Z" id="Fill-37" fill="#000000" mask="url(#mask-2)"></path>
                    <path d="M21.81,9.815 L22.616,9.815 L22.616,2.577 L21.81,2.577 L21.81,9.815 Z" id="Stroke-39" stroke="#000000" stroke-width="0.2" mask="url(#mask-2)"></path>
                    <path d="M25.014,3.3257 L25.014,5.8987 L25.552,5.8987 C26.652,5.8987 27.202,5.4637 27.202,4.5937 C27.202,4.3627 27.166,4.1677 27.092,4.0077 C27.018,3.8477 26.926,3.7237 26.814,3.6377 C26.702,3.5517 26.556,3.4847 26.377,3.4357 C26.198,3.3877 26.032,3.3577 25.878,3.3457 C25.724,3.3327 25.535,3.3257 25.311,3.3257 L25.014,3.3257 Z M25.014,6.6477 L25.014,9.8157 L24.207,9.8157 L24.207,2.5767 L25.398,2.5767 C25.795,2.5767 26.134,2.5997 26.415,2.6437 C26.697,2.6887 26.956,2.7947 27.193,2.9607 C27.455,3.1467 27.657,3.3857 27.798,3.6767 C27.939,3.9677 28.009,4.2797 28.009,4.6127 C28.009,5.2647 27.779,5.7837 27.318,6.1677 C26.928,6.4877 26.354,6.6477 25.599,6.6477 L25.014,6.6477 Z" id="Fill-40" fill="#000000" mask="url(#mask-2)"></path>
                    <path d="M25.014,3.3257 L25.014,5.8987 L25.552,5.8987 C26.652,5.8987 27.202,5.4637 27.202,4.5937 C27.202,4.3627 27.166,4.1677 27.092,4.0077 C27.018,3.8477 26.926,3.7237 26.814,3.6377 C26.702,3.5517 26.556,3.4847 26.377,3.4357 C26.198,3.3877 26.032,3.3577 25.878,3.3457 C25.724,3.3327 25.535,3.3257 25.311,3.3257 L25.014,3.3257 L25.014,3.3257 Z M25.014,6.6477 L25.014,9.8157 L24.207,9.8157 L24.207,2.5767 L25.398,2.5767 C25.795,2.5767 26.134,2.5997 26.415,2.6437 C26.697,2.6887 26.956,2.7947 27.193,2.9607 C27.455,3.1467 27.657,3.3857 27.798,3.6767 C27.939,3.9677 28.009,4.2797 28.009,4.6127 C28.009,5.2647 27.779,5.7837 27.318,6.1677 C26.928,6.4877 26.354,6.6477 25.599,6.6477 L25.014,6.6477 L25.014,6.6477 Z" id="Stroke-41" stroke="#000000" stroke-width="0.2" mask="url(#mask-2)"></path>
                    <path d="M33.1488,6.4741 L31.7078,3.0181 L30.2318,6.4741 L33.1488,6.4741 Z M33.5268,7.3671 L29.8418,7.3671 L28.8008,9.8151 L27.7488,9.8151 L31.7308,0.7761 L35.6088,9.8151 L34.5448,9.8151 L33.5268,7.3671 Z" id="Fill-42" fill="#000000" mask="url(#mask-2)"></path>
                    <path d="M33.1488,6.4741 L31.7078,3.0181 L30.2318,6.4741 L33.1488,6.4741 L33.1488,6.4741 Z M33.5268,7.3671 L29.8418,7.3671 L28.8008,9.8151 L27.7488,9.8151 L31.7308,0.7761 L35.6088,9.8151 L34.5448,9.8151 L33.5268,7.3671 L33.5268,7.3671 Z" id="Stroke-43" stroke="#000000" stroke-width="0.2" mask="url(#mask-2)"></path>
                    <path d="M37.2728,9.0664 L37.8588,9.0664 C38.3508,9.0664 38.7788,9.0134 39.1398,8.9084 C39.5018,8.8024 39.8368,8.6064 40.1438,8.3174 C40.7458,7.7544 41.0458,7.0474 41.0458,6.1964 C41.0458,5.3004 40.7318,4.5774 40.1048,4.0264 C39.7978,3.7514 39.4658,3.5664 39.1108,3.4694 C38.7568,3.3744 38.3388,3.3254 37.8588,3.3254 L37.2728,3.3254 L37.2728,9.0664 Z M36.4668,9.8154 L36.4668,2.5774 L37.8298,2.5774 C38.4308,2.5774 38.9528,2.6374 39.3938,2.7594 C39.8368,2.8804 40.2548,3.1114 40.6518,3.4504 C41.4528,4.1414 41.8528,5.0604 41.8528,6.2064 C41.8528,7.3004 41.4588,8.1994 40.6708,8.9034 C40.2688,9.2614 39.8468,9.5034 39.4098,9.6284 C38.9698,9.7534 38.4388,9.8154 37.8098,9.8154 L36.4668,9.8154 Z" id="Fill-44" fill="#000000" mask="url(#mask-2)"></path>
                    <path d="M37.2728,9.0664 L37.8588,9.0664 C38.3508,9.0664 38.7788,9.0134 39.1398,8.9084 C39.5018,8.8024 39.8368,8.6064 40.1438,8.3174 C40.7458,7.7544 41.0458,7.0474 41.0458,6.1964 C41.0458,5.3004 40.7318,4.5774 40.1048,4.0264 C39.7978,3.7514 39.4658,3.5664 39.1108,3.4694 C38.7568,3.3744 38.3388,3.3254 37.8588,3.3254 L37.2728,3.3254 L37.2728,9.0664 L37.2728,9.0664 Z M36.4668,9.8154 L36.4668,2.5774 L37.8298,2.5774 C38.4308,2.5774 38.9528,2.6374 39.3938,2.7594 C39.8368,2.8804 40.2548,3.1114 40.6518,3.4504 C41.4528,4.1414 41.8528,5.0604 41.8528,6.2064 C41.8528,7.3004 41.4588,8.1994 40.6708,8.9034 C40.2688,9.2614 39.8468,9.5034 39.4098,9.6284 C38.9698,9.7534 38.4388,9.8154 37.8098,9.8154 L36.4668,9.8154 L36.4668,9.8154 Z" id="Stroke-45" stroke="#000000" stroke-width="0.2" mask="url(#mask-2)"></path>
                    <path d="M42.9183,2.5771 L44.9813,8.0971 L47.0463,2.5771 L47.9193,2.5771 L44.9813,10.2471 L42.0443,2.5771 L42.9183,2.5771 Z" id="Fill-46" fill="#000000" mask="url(#mask-2)"></path>
                    <path d="M42.9183,2.5771 L44.9813,8.0971 L47.0463,2.5771 L47.9193,2.5771 L44.9813,10.2471 L42.0443,2.5771 L42.9183,2.5771 L42.9183,2.5771 Z" id="Stroke-47" stroke="#000000" stroke-width="0.2" mask="url(#mask-2)"></path>
                    <path d="M48.738,9.815 L49.545,9.815 L49.545,2.577 L48.738,2.577 L48.738,9.815 Z" id="Fill-48" fill="#000000" mask="url(#mask-2)"></path>
                    <path d="M48.738,9.815 L49.545,9.815 L49.545,2.577 L48.738,2.577 L48.738,9.815 Z" id="Stroke-49" stroke="#000000" stroke-width="0.2" mask="url(#mask-2)"></path>
                    <path d="M54.9818,3.5752 L54.3378,3.9882 C54.0378,3.4632 53.6218,3.2012 53.0898,3.2012 C52.7638,3.2012 52.4818,3.3062 52.2458,3.5182 C52.0088,3.7292 51.8898,3.9982 51.8898,4.3242 C51.8898,4.4712 51.9218,4.6062 51.9868,4.7272 C52.0498,4.8492 52.1498,4.9562 52.2838,5.0492 C52.4188,5.1422 52.5318,5.2142 52.6248,5.2652 C52.7168,5.3162 52.8498,5.3802 53.0228,5.4572 L53.5028,5.6682 C53.7788,5.7902 54.0048,5.9032 54.1848,6.0092 C54.3638,6.1152 54.5418,6.2462 54.7168,6.4032 C54.8938,6.5592 55.0248,6.7462 55.1108,6.9642 C55.1978,7.1812 55.2408,7.4282 55.2408,7.7032 C55.2408,8.3302 55.0198,8.8602 54.5788,9.2922 C54.1368,9.7242 53.5988,9.9402 52.9648,9.9402 C52.3898,9.9402 51.8978,9.7692 51.4918,9.4272 C51.0858,9.0842 50.8248,8.6312 50.7098,8.0682 L51.4968,7.8472 C51.5478,8.2252 51.7088,8.5432 51.9768,8.8032 C52.2458,9.0622 52.5688,9.1912 52.9468,9.1912 C53.3428,9.1912 53.6908,9.0552 53.9878,8.7832 C54.2858,8.5122 54.4338,8.1772 54.4338,7.7802 C54.4338,7.6202 54.4068,7.4712 54.3528,7.3342 C54.2978,7.1962 54.2378,7.0862 54.1698,7.0022 C54.1028,6.9192 53.9958,6.8292 53.8488,6.7342 C53.7018,6.6382 53.5858,6.5692 53.5028,6.5272 C53.4198,6.4862 53.2858,6.4232 53.0998,6.3402 L52.6588,6.1482 C52.1458,5.9182 51.7558,5.6682 51.4868,5.3992 C51.2178,5.1312 51.0848,4.7622 51.0848,4.2952 C51.0848,3.7512 51.2828,3.3082 51.6788,2.9662 C52.0758,2.6232 52.5528,2.4522 53.1098,2.4522 C53.5128,2.4522 53.8778,2.5502 54.2038,2.7452 C54.5308,2.9402 54.7898,3.2172 54.9818,3.5752" id="Fill-50" fill="#000000" mask="url(#mask-2)"></path>
                    <path d="M54.9818,3.5752 L54.3378,3.9882 C54.0378,3.4632 53.6218,3.2012 53.0898,3.2012 C52.7638,3.2012 52.4818,3.3062 52.2458,3.5182 C52.0088,3.7292 51.8898,3.9982 51.8898,4.3242 C51.8898,4.4712 51.9218,4.6062 51.9868,4.7272 C52.0498,4.8492 52.1498,4.9562 52.2838,5.0492 C52.4188,5.1422 52.5318,5.2142 52.6248,5.2652 C52.7168,5.3162 52.8498,5.3802 53.0228,5.4572 L53.5028,5.6682 C53.7788,5.7902 54.0048,5.9032 54.1848,6.0092 C54.3638,6.1152 54.5418,6.2462 54.7168,6.4032 C54.8938,6.5592 55.0248,6.7462 55.1108,6.9642 C55.1978,7.1812 55.2408,7.4282 55.2408,7.7032 C55.2408,8.3302 55.0198,8.8602 54.5788,9.2922 C54.1368,9.7242 53.5988,9.9402 52.9648,9.9402 C52.3898,9.9402 51.8978,9.7692 51.4918,9.4272 C51.0858,9.0842 50.8248,8.6312 50.7098,8.0682 L51.4968,7.8472 C51.5478,8.2252 51.7088,8.5432 51.9768,8.8032 C52.2458,9.0622 52.5688,9.1912 52.9468,9.1912 C53.3428,9.1912 53.6908,9.0552 53.9878,8.7832 C54.2858,8.5122 54.4338,8.1772 54.4338,7.7802 C54.4338,7.6202 54.4068,7.4712 54.3528,7.3342 C54.2978,7.1962 54.2378,7.0862 54.1698,7.0022 C54.1028,6.9192 53.9958,6.8292 53.8488,6.7342 C53.7018,6.6382 53.5858,6.5692 53.5028,6.5272 C53.4198,6.4862 53.2858,6.4232 53.0998,6.3402 L52.6588,6.1482 C52.1458,5.9182 51.7558,5.6682 51.4868,5.3992 C51.2178,5.1312 51.0848,4.7622 51.0848,4.2952 C51.0848,3.7512 51.2828,3.3082 51.6788,2.9662 C52.0758,2.6232 52.5528,2.4522 53.1098,2.4522 C53.5128,2.4522 53.8778,2.5502 54.2038,2.7452 C54.5308,2.9402 54.7898,3.2172 54.9818,3.5752 L54.9818,3.5752 Z" id="Stroke-51" stroke="#000000" stroke-width="0.2" mask="url(#mask-2)"></path>
                    <path d="M61.9213,4.0796 C61.3453,3.4936 60.6443,3.2016 59.8183,3.2016 C58.9923,3.2016 58.2923,3.4936 57.7163,4.0796 C57.1403,4.6646 56.8523,5.3706 56.8523,6.1966 C56.8523,7.0156 57.1423,7.7196 57.7213,8.3086 C58.3003,8.8966 58.9993,9.1916 59.8183,9.1916 C60.6383,9.1916 61.3373,8.8966 61.9163,8.3086 C62.4953,7.7196 62.7843,7.0156 62.7843,6.1966 C62.7843,5.3706 62.4973,4.6646 61.9213,4.0796 M57.1543,3.5516 C57.8943,2.8186 58.7813,2.4526 59.8183,2.4526 C60.8563,2.4526 61.7433,2.8186 62.4833,3.5516 C63.2223,4.2846 63.5913,5.1686 63.5913,6.2056 C63.5913,7.2426 63.2223,8.1246 62.4833,8.8506 C61.7433,9.5776 60.8563,9.9406 59.8183,9.9406 C58.7813,9.9406 57.8943,9.5776 57.1543,8.8506 C56.4153,8.1246 56.0463,7.2426 56.0463,6.2056 C56.0463,5.1686 56.4153,4.2846 57.1543,3.5516" id="Fill-52" fill="#000000" mask="url(#mask-2)"></path>
                    <path d="M61.9213,4.0796 C61.3453,3.4936 60.6443,3.2016 59.8183,3.2016 C58.9923,3.2016 58.2923,3.4936 57.7163,4.0796 C57.1403,4.6646 56.8523,5.3706 56.8523,6.1966 C56.8523,7.0156 57.1423,7.7196 57.7213,8.3086 C58.3003,8.8966 58.9993,9.1916 59.8183,9.1916 C60.6383,9.1916 61.3373,8.8966 61.9163,8.3086 C62.4953,7.7196 62.7843,7.0156 62.7843,6.1966 C62.7843,5.3706 62.4973,4.6646 61.9213,4.0796 L61.9213,4.0796 Z M57.1543,3.5516 C57.8943,2.8186 58.7813,2.4526 59.8183,2.4526 C60.8563,2.4526 61.7433,2.8186 62.4833,3.5516 C63.2223,4.2846 63.5913,5.1686 63.5913,6.2056 C63.5913,7.2426 63.2223,8.1246 62.4833,8.8506 C61.7433,9.5776 60.8563,9.9406 59.8183,9.9406 C58.7813,9.9406 57.8943,9.5776 57.1543,8.8506 C56.4153,8.1246 56.0463,7.2426 56.0463,6.2056 C56.0463,5.1686 56.4153,4.2846 57.1543,3.5516 L57.1543,3.5516 Z" id="Stroke-53" stroke="#000000" stroke-width="0.2" mask="url(#mask-2)"></path>
                    <path d="M65.597,3.3257 L65.597,5.9277 L65.846,5.9277 C66.102,5.9277 66.328,5.9117 66.523,5.8797 C66.718,5.8477 66.91,5.7877 67.099,5.7017 C67.288,5.6157 67.432,5.4827 67.532,5.3037 C67.63,5.1247 67.68,4.9007 67.68,4.6317 C67.68,4.4007 67.645,4.2037 67.575,4.0407 C67.504,3.8777 67.417,3.7497 67.316,3.6577 C67.213,3.5647 67.076,3.4927 66.903,3.4407 C66.73,3.3897 66.565,3.3577 66.409,3.3457 C66.251,3.3327 66.061,3.3257 65.837,3.3257 L65.597,3.3257 Z M65.597,6.6377 L65.597,9.8157 L64.79,9.8157 L64.79,2.5767 L65.837,2.5767 C66.208,2.5767 66.54,2.6057 66.835,2.6637 C67.129,2.7217 67.408,2.8207 67.67,2.9607 C67.933,3.1017 68.134,3.3077 68.276,3.5797 C68.416,3.8527 68.487,4.1837 68.487,4.5737 C68.487,5.1307 68.324,5.5917 67.996,5.9557 C67.67,6.3207 67.229,6.5257 66.672,6.5707 L68.976,9.8157 L67.988,9.8157 L65.798,6.6377 L65.597,6.6377 Z" id="Fill-54" fill="#000000" mask="url(#mask-2)"></path>
                    <path d="M65.597,3.3257 L65.597,5.9277 L65.846,5.9277 C66.102,5.9277 66.328,5.9117 66.523,5.8797 C66.718,5.8477 66.91,5.7877 67.099,5.7017 C67.288,5.6157 67.432,5.4827 67.532,5.3037 C67.63,5.1247 67.68,4.9007 67.68,4.6317 C67.68,4.4007 67.645,4.2037 67.575,4.0407 C67.504,3.8777 67.417,3.7497 67.316,3.6577 C67.213,3.5647 67.076,3.4927 66.903,3.4407 C66.73,3.3897 66.565,3.3577 66.409,3.3457 C66.251,3.3327 66.061,3.3257 65.837,3.3257 L65.597,3.3257 L65.597,3.3257 Z M65.597,6.6377 L65.597,9.8157 L64.79,9.8157 L64.79,2.5767 L65.837,2.5767 C66.208,2.5767 66.54,2.6057 66.835,2.6637 C67.129,2.7217 67.408,2.8207 67.67,2.9607 C67.933,3.1017 68.134,3.3077 68.276,3.5797 C68.416,3.8527 68.487,4.1837 68.487,4.5737 C68.487,5.1307 68.324,5.5917 67.996,5.9557 C67.67,6.3207 67.229,6.5257 66.672,6.5707 L68.976,9.8157 L67.988,9.8157 L65.798,6.6377 L65.597,6.6377 L65.597,6.6377 Z" id="Stroke-55" stroke="#000000" stroke-width="0.2" mask="url(#mask-2)"></path>
                    <path d="M70.4419,2.1823 C70.5059,2.1713 70.6079,2.1613 70.7199,2.1613 C70.8539,2.1613 70.9499,2.1823 71.0139,2.2413 C71.0679,2.2843 71.0999,2.3483 71.0999,2.4333 C71.0999,2.5573 71.0199,2.6373 70.9399,2.6643 L70.9399,2.6693 C71.0039,2.6963 71.0359,2.7603 71.0629,2.8453 C71.0889,2.9523 71.1159,3.0753 71.1319,3.1133 L70.9239,3.1133 C70.9069,3.0863 70.8859,3.0063 70.8589,2.8943 C70.8329,2.7763 70.7949,2.7443 70.7099,2.7443 L70.6449,2.7443 L70.6449,3.1133 L70.4419,3.1133 L70.4419,2.1823 Z M70.6449,2.5893 L70.7309,2.5893 C70.8329,2.5893 70.8909,2.5353 70.8909,2.4503 C70.8909,2.3693 70.8379,2.3213 70.7419,2.3213 C70.6879,2.3213 70.6609,2.3263 70.6449,2.3323 L70.6449,2.5893 Z" id="Fill-56" fill="#000000" mask="url(#mask-2)"></path>
                    <path d="M69.8373,2.6745 C69.8373,3.1885 70.2603,3.6055 70.7793,3.6055 C71.2983,3.6055 71.7153,3.1885 71.7153,2.6745 C71.7153,2.1605 71.2983,1.7385 70.7793,1.7385 C70.2603,1.7385 69.8373,2.1605 69.8373,2.6745 M70.0403,2.6745 C70.0403,2.2675 70.3723,1.9415 70.7793,1.9415 C71.1853,1.9415 71.5123,2.2675 71.5123,2.6745 C71.5123,3.0755 71.1853,3.4075 70.7793,3.4075 C70.3723,3.4075 70.0403,3.0755 70.0403,2.6745" id="Fill-57" fill="#000000" mask="url(#mask-2)"></path>
                    <path d="M55.7186,22.1937 C55.9636,21.9227 56.1736,21.9037 56.4326,22.1447 C56.6536,22.3497 56.8836,22.5447 57.1046,22.7487 C57.2116,22.8477 57.2976,22.9707 57.2586,23.1227 C57.2096,23.3157 57.0356,23.2487 56.9056,23.2647 C56.5466,23.3097 56.1816,23.3287 55.8266,23.3967 C54.9246,23.5717 53.9996,23.6927 53.2316,24.2957 C54.1926,25.0397 56.3476,25.2517 57.4586,24.3517 C58.1486,23.7937 58.1716,23.8197 58.7516,24.4967 C58.8566,24.6187 58.9456,24.7537 59.0476,24.8777 C59.2966,25.1777 59.2706,25.3377 58.8386,25.3287 C58.4346,25.3187 58.0296,25.3087 57.6266,25.3307 C56.7456,25.3777 55.8716,25.4727 55.0546,25.9387 C56.4456,26.9327 58.2196,27.3097 59.6036,26.2787 C59.7716,26.1537 59.9566,26.0547 60.1456,26.2447 C60.5166,26.6187 60.8336,27.0347 61.1006,27.4887 C61.1516,27.5747 61.1966,27.6777 61.1236,27.7697 C61.0386,27.8777 60.9406,27.7857 60.8516,27.7627 C60.2886,27.6167 59.7336,27.4247 59.1626,27.3307 C58.4466,27.2127 57.7136,27.0277 56.9756,27.3407 C57.9326,28.5777 59.5676,29.0997 60.8056,28.5877 C61.6076,28.2557 61.6076,28.2557 62.0796,29.0257 C62.1216,29.0947 62.1806,29.1557 62.2096,29.2297 C62.2746,29.3947 62.4606,29.5777 62.3556,29.7277 C62.2246,29.9147 61.9946,29.7957 61.8046,29.7417 C60.9236,29.4897 60.0246,29.3987 59.1116,29.4497 C58.9936,29.4567 58.8456,29.4317 58.7926,29.5667 C58.7386,29.7057 58.8686,29.7787 58.9576,29.8537 C60.0186,30.7477 61.1506,31.3857 62.5966,30.8277 C62.8206,30.7407 62.9926,30.7557 63.1136,30.9697 C63.4296,31.5267 63.6566,32.1107 63.7066,32.8547 C63.1376,32.5527 62.6626,32.2957 62.1826,32.0487 C61.6426,31.7717 61.0816,31.5607 60.4676,31.5097 C60.0046,31.4707 59.8646,31.6167 60.1326,32.0327 C60.2966,32.2867 60.4386,32.5617 60.6356,32.7877 C61.2916,33.5377 62.0206,34.1617 63.1266,33.9877 C64.2076,33.8177 64.2086,33.8167 64.4706,34.9067 C64.5026,35.0427 64.5386,35.1817 64.5436,35.3207 C64.5536,35.5537 64.7646,35.8477 64.5386,36.0057 C64.2786,36.1877 64.1666,35.8007 63.9606,35.7107 C63.7806,35.6327 63.6376,35.4717 63.4706,35.3607 C62.8646,34.9557 62.2326,34.6067 61.5096,34.4577 C61.1796,34.3887 60.9416,34.3677 61.1356,34.8497 C61.4586,35.6537 61.8946,36.3637 62.6046,36.8787 C62.9886,37.1577 63.4356,37.3877 63.8976,37.2857 C64.7156,37.1047 64.8276,37.0737 64.9196,38.1577 C64.9386,38.3787 64.9626,38.5987 64.9726,38.8207 C64.9776,38.9367 64.9926,39.0907 64.8476,39.1207 C64.7746,39.1357 64.6656,39.0567 64.5966,38.9937 C64.4036,38.8177 64.2336,38.6137 64.0346,38.4457 C63.4186,37.9257 62.8016,37.3987 61.9926,37.2007 C61.8346,37.1617 61.5836,36.9987 61.6036,37.4087 C61.6806,38.9097 63.1646,40.3277 64.6366,40.2597 C64.9746,40.2437 65.1376,40.3517 65.1326,40.6887 C65.1296,40.9707 65.1366,41.2557 65.1066,41.5347 C65.0686,41.8757 64.9446,42.0277 64.6276,41.7157 C64.3276,41.4187 64.0096,41.1377 63.6806,40.8717 C63.1956,40.4807 62.6806,40.1307 62.0566,39.9977 C61.8786,39.9597 61.6486,39.8687 61.7096,40.2607 C61.9636,41.8827 62.9526,42.8787 64.5916,43.0987 C64.8866,43.1387 65.0386,43.2497 64.9806,43.5687 C64.9476,43.7467 64.9436,43.9307 64.9166,44.1097 C64.8706,44.4007 64.9616,44.8467 64.6936,44.9277 C64.3966,45.0187 64.2846,44.5667 64.1036,44.3477 C63.6276,43.7707 63.1756,43.1757 62.5116,42.7947 C62.3416,42.6967 62.1456,42.5177 62.1146,42.9197 C62.0236,44.0837 62.9216,45.5817 64.0136,45.8867 C64.5996,46.0497 64.6406,46.3347 64.5096,46.8037 C64.4606,46.9787 64.4426,47.1617 64.3926,47.3357 C64.3376,47.5227 64.3626,47.8187 64.1456,47.8457 C63.8996,47.8767 63.9086,47.5637 63.8316,47.3977 C63.3616,46.3847 62.8176,45.4257 61.9976,44.6487 C61.9116,44.5677 61.8216,44.4387 61.6946,44.5007 C61.6306,44.5327 61.5886,44.6687 61.5856,44.7587 C61.5516,46.2397 61.7956,48.0237 63.5796,48.7407 C63.7886,48.8247 63.9806,48.9497 63.9206,49.1707 C63.7926,49.6447 63.7326,50.1507 63.4356,50.5707 C63.3696,50.5327 63.3206,50.5207 63.3046,50.4907 C63.2676,50.4217 63.2506,50.3427 63.2206,50.2707 C62.7586,49.1577 62.3926,47.9927 61.4996,47.1127 C61.2766,46.8937 61.1056,46.8637 61.0776,47.2187 C60.9606,48.7227 61.0766,50.5307 62.8426,51.3687 C63.0016,51.4437 63.2036,51.5217 63.1406,51.7577 C62.9856,52.3457 62.8196,52.9327 62.3566,53.5197 C62.2246,53.0087 62.1226,52.6247 62.0246,52.2407 C61.7906,51.3167 61.4386,50.4447 60.9106,49.6467 C60.8306,49.5267 60.7406,49.3897 60.5866,49.4237 C60.4576,49.4527 60.4576,49.6127 60.4336,49.7297 C60.2296,50.7117 60.1966,51.6847 60.5356,52.6537 C60.6106,52.8677 60.9326,53.0887 60.7296,53.2907 C60.6186,53.4007 60.7126,53.5137 60.7946,53.6627 L61.3886,53.7967 L67.5456,54.9797 C66.9196,54.6447 66.3246,54.2577 65.5846,54.1297 C65.1786,54.0587 65.1026,53.9197 65.3876,53.5957 C65.5866,53.3697 65.7536,53.1157 65.9196,52.8627 C66.0026,52.7357 66.1646,52.5837 66.0436,52.4337 C65.9346,52.2997 65.7366,52.3867 65.5806,52.4067 C64.8476,52.4997 64.1936,52.8127 63.5436,53.1407 C63.3606,53.2327 63.1946,53.4347 62.9376,53.3027 C62.9566,52.9637 63.1446,52.6927 63.2436,52.3927 C63.3556,52.0537 63.5566,51.9707 63.8766,52.0187 C65.5036,52.2647 66.6656,50.8577 67.1526,49.5917 C67.2656,49.2977 67.1536,49.2667 66.9186,49.3127 C66.4816,49.3987 66.0796,49.5697 65.6816,49.7727 C65.0556,50.0927 64.5636,50.6297 63.8806,50.8997 C63.7926,50.5277 64.0226,50.2517 64.0606,49.9397 C64.1236,49.4167 64.3466,49.1617 64.9296,49.2247 C66.3046,49.3727 67.7676,47.5607 67.7396,46.3007 C66.8796,46.4727 66.1956,46.9557 65.5246,47.4777 C65.2466,47.6937 64.9506,48.2167 64.6936,48.0537 C64.3836,47.8577 64.7636,47.3797 64.7746,47.0187 C64.7906,46.5217 65.0246,46.3347 65.5186,46.2697 C66.0396,46.2007 66.4916,45.9177 66.8706,45.5207 C67.5146,44.8457 67.7326,43.9907 67.9256,43.1277 C68.0106,42.7487 67.7556,42.8497 67.5656,42.9477 C66.8686,43.3057 66.3556,43.8757 65.8276,44.4337 C65.6556,44.6167 65.5326,45.0357 65.2886,44.9247 C64.9896,44.7897 65.1506,44.3687 65.2056,44.1067 C65.2666,43.8177 65.1106,43.4167 65.6036,43.2657 C67.3896,42.7167 68.2906,40.9257 67.7356,39.0967 C67.7216,39.0507 67.6646,39.0177 67.6236,38.9747 C66.5076,39.6437 66.1746,40.8867 65.4676,41.8477 C65.4116,41.2507 65.4136,40.6877 65.4116,40.1257 C65.4106,39.9107 65.5296,39.7807 65.7136,39.7197 C67.2136,39.2247 67.4766,37.9757 67.5666,36.6427 C67.5896,36.2957 67.6916,35.7257 67.3866,35.6467 C67.0546,35.5597 66.7416,36.0017 66.4806,36.3217 C66.0716,36.8257 65.8906,37.4847 65.3586,38.0147 C65.2836,37.6047 65.2216,37.2977 65.1726,36.9887 C65.1436,36.8027 65.1546,36.6397 65.3826,36.5527 C67.0726,35.9107 67.0656,33.8187 66.7846,32.4627 C66.7206,32.1547 66.6016,32.1627 66.3896,32.3497 C66.1266,32.5827 65.9636,32.8827 65.7756,33.1687 C65.4016,33.7387 65.2406,34.4147 64.8926,35.0427 C64.3846,34.0927 64.4256,33.8197 65.1066,33.2357 C65.3386,33.0377 65.5176,32.8057 65.6556,32.5247 C66.1346,31.5517 65.9746,30.5677 65.7216,29.5887 C65.6796,29.4247 65.7176,29.1217 65.4506,29.1117 C65.2586,29.1047 65.1976,29.3437 65.0936,29.4877 C64.6186,30.1387 64.4256,30.9027 64.2166,31.6607 C64.1796,31.7927 64.1566,31.9617 63.9756,31.9567 C63.8276,31.9527 63.8146,31.7887 63.7686,31.6867 C63.4856,31.0507 63.1086,30.4207 63.9696,29.8797 C64.2486,29.7047 64.3686,29.3327 64.4816,29.0037 C64.9106,27.7657 64.4436,26.6897 63.8766,25.5307 C63.0096,26.7907 63.1866,28.2017 63.0046,29.5997 C62.6506,29.2547 62.5926,28.8457 62.3576,28.5547 C62.0506,28.1737 62.0596,27.8937 62.4066,27.5127 C63.4316,26.3867 63.1616,24.3437 62.2086,23.3077 C62.0026,23.6457 61.8646,23.9937 61.7626,24.3637 C61.5756,25.0497 61.5236,25.7537 61.4686,26.4577 C61.4576,26.6067 61.4076,26.8907 61.2276,26.7277 C60.9206,26.4507 60.6976,26.0737 60.4696,25.7197 C60.2986,25.4527 60.5516,25.2687 60.6706,25.0737 C61.4866,23.7457 60.8896,21.7507 59.8566,20.9187 C59.8136,21.0137 59.7606,21.1007 59.7316,21.1957 C59.4536,22.0997 59.4926,23.0237 59.5606,23.9487 C59.5736,24.1197 59.6606,24.3487 59.3666,24.3507 C58.9976,24.3537 58.3936,23.3827 58.5576,23.0467 C59.3126,21.4907 58.7216,20.1167 57.8116,19.1057 C57.7236,19.0087 57.6396,18.8237 57.4866,18.8797 C57.3266,18.9377 57.3186,19.1257 57.3006,19.2887 C57.2136,20.0607 57.3066,20.8197 57.4186,21.5807 C57.4666,21.9017 57.7306,22.3457 57.4316,22.5177 C57.1946,22.6547 56.9586,22.1667 56.6876,22.0087 C56.2286,21.7417 56.1486,21.4637 56.3826,20.9287 C56.8996,19.7457 56.2276,17.8747 55.1406,17.1957 C54.7656,18.0617 54.9436,18.9347 55.0656,19.8147 C55.1076,20.1137 55.3906,20.5337 55.0596,20.7097 C54.7816,20.8567 54.4606,20.5267 54.2126,20.3017 L54.2146,20.3037 C54.2866,20.7797 54.7926,20.8197 55.0406,21.1207 C55.1286,21.2287 55.2736,21.3127 55.2086,21.4757 C55.1516,21.6197 55.0006,21.5627 54.8896,21.5737 C54.4486,21.6167 54.0026,21.6247 53.5666,21.6947 C52.6656,21.8417 51.7376,21.9267 50.9576,22.5507 C52.7526,23.5097 54.5296,23.5057 55.7186,22.1937" id="Fill-58" fill="#000000" mask="url(#mask-2)"></path>
                    <path d="M33.0687,20.6218 C33.0717,20.6268 33.0767,20.6298 33.0807,20.6348 C33.0827,20.6358 33.0857,20.6368 33.0877,20.6368 L33.0687,20.6218 Z" id="Fill-59" fill="#000000" mask="url(#mask-2)"></path>
                    <path d="M16.1198,46.1158 C16.9078,46.2888 17.1458,46.6658 17.2078,47.3448 C17.2248,47.5228 17.3408,47.7648 17.1988,47.8598 C16.9908,47.9998 16.8538,47.7428 16.6988,47.6268 C15.9918,47.0938 15.3158,46.5148 14.4308,46.2728 C14.1508,46.1958 14.0278,46.2548 14.1128,46.5418 C14.4928,47.8378 15.4028,49.3148 17.2228,49.2308 C17.4348,49.2208 17.6538,49.2188 17.6998,49.4808 C17.7788,49.9308 18.0038,50.3548 17.9718,50.8378 C17.6648,50.8148 17.4828,50.6158 17.2778,50.4598 C16.5828,49.9288 15.8198,49.5278 14.9788,49.2848 C14.7218,49.2098 14.4688,49.1708 14.5768,49.5978 C14.9568,51.1078 16.5238,52.1898 18.0898,52.0238 C18.2578,52.0058 18.4638,51.9308 18.5488,52.1798 C18.6798,52.5688 18.8098,52.9578 18.9608,53.4088 C18.5298,53.3338 18.2418,53.1528 17.9338,53.0198 C17.3048,52.7478 16.6738,52.4788 15.9678,52.4848 C15.7448,52.4868 15.6068,52.5128 15.7478,52.7938 C15.9318,53.1618 16.4888,53.4958 16.2948,53.8508 C16.2638,53.9068 16.2078,53.9308 16.1578,53.9628 L21.4138,53.2088 C21.3708,53.0308 21.3748,52.8198 21.4588,52.6168 C21.7478,51.9178 21.7818,51.1588 21.7128,50.4198 C21.6828,50.0988 21.7398,49.6968 21.4428,49.4188 C21.2238,49.5708 21.0898,49.7378 20.9658,49.9258 C20.3538,50.8498 20.0368,51.8858 19.7778,52.9458 C19.7348,53.1218 19.7158,53.3538 19.4968,53.3588 C19.2778,53.3638 19.1558,53.1578 19.0908,52.9658 C19.0088,52.7178 18.9998,52.4408 18.8908,52.2088 C18.6758,51.7518 18.7498,51.5108 19.2458,51.2778 C20.6548,50.6158 21.3188,48.4898 20.8168,46.9368 C20.5878,47.0738 20.4178,47.2648 20.2468,47.4628 C19.5068,48.3168 19.0938,49.3418 18.7008,50.3778 C18.6648,50.4728 18.6558,50.5848 18.5468,50.6198 C18.4548,50.6488 18.3938,50.5748 18.3728,50.4988 C18.2398,50.0138 18.1058,49.5288 17.9908,49.0398 C17.9528,48.8788 18.0648,48.7918 18.2178,48.7348 C19.9158,48.0978 20.3558,46.6748 20.4838,45.0678 C20.4988,44.8758 20.5788,44.5928 20.4058,44.4998 C20.1818,44.3788 20.0208,44.6418 19.8738,44.7868 C19.0368,45.6038 18.5148,46.6288 18.0058,47.6608 C17.9548,47.7638 17.9748,47.9358 17.8198,47.9358 C17.6348,47.9368 17.6338,47.7608 17.6038,47.6278 C17.5158,47.2348 17.4228,46.8428 17.3428,46.4478 C17.2748,46.1108 17.3358,45.9188 17.7548,45.8158 C19.0728,45.4898 20.0998,43.8498 19.8308,42.5568 C19.6178,42.6898 19.4078,42.8068 19.2148,42.9458 C18.5338,43.4328 18.0328,44.0898 17.5328,44.7468 C17.4618,44.8398 17.4168,44.9798 17.2668,44.9478 C17.1168,44.9168 17.1198,44.7688 17.1048,44.6548 C17.0458,44.2158 16.9978,43.7758 16.9438,43.3358 C16.9118,43.0848 17.0238,42.9468 17.2708,42.9298 C18.9888,42.8098 19.6148,41.5808 20.0828,40.1808 C20.2318,39.7358 20.0308,39.7378 19.7058,39.8488 C18.9488,40.1098 18.3248,40.5868 17.6928,41.0578 C17.4608,41.2308 17.2738,41.6958 17.0008,41.5358 C16.6818,41.3488 16.8448,40.8758 16.8508,40.5268 C16.8548,40.2898 16.8038,40.0188 17.2638,40.0558 C18.8378,40.1788 20.3628,38.8098 20.5308,37.2038 C20.5608,36.9138 20.4378,36.8868 20.2228,36.9568 C20.0318,37.0198 19.8418,37.0868 19.6618,37.1748 C18.8168,37.5858 18.1058,38.1798 17.4358,38.8268 C17.3388,38.9198 17.2628,39.0868 17.0948,39.0128 C16.9288,38.9398 16.9868,38.7608 16.9968,38.6348 C17.0358,38.1518 17.0908,37.6708 17.1548,37.1898 C17.1818,36.9868 17.2928,36.8948 17.5308,36.9058 C19.3368,36.9868 20.3468,36.3468 20.9768,34.7288 C21.0368,34.5738 21.2048,34.3758 21.0708,34.2348 C20.9468,34.1048 20.7268,34.1998 20.5488,34.2398 C19.5198,34.4768 18.6878,35.0798 17.8578,35.6888 C17.7508,35.7678 17.6568,35.9308 17.4988,35.8278 C17.3558,35.7348 17.4228,35.5728 17.4408,35.4368 C17.5108,34.9158 17.6328,34.4078 17.7768,33.9018 C17.9028,33.4588 18.1278,33.3768 18.5338,33.5438 C19.2128,33.8248 19.8808,33.7488 20.5128,33.3908 C21.3538,32.9138 21.8598,32.1408 22.3488,31.3168 C21.8298,31.0668 21.3688,31.2718 20.9148,31.3988 C20.1508,31.6108 19.4838,32.0428 18.7808,32.3908 C18.6758,32.4428 18.5778,32.5508 18.4538,32.4648 C18.3318,32.3818 18.3728,32.2598 18.4088,32.1388 C18.5528,31.6538 18.7268,31.1828 18.9738,30.7398 C19.1298,30.4608 19.2978,30.3418 19.6558,30.4738 C21.2618,31.0648 22.4898,30.3458 23.6498,29.2998 C23.4098,29.1068 23.1808,29.0928 22.9398,29.0828 C22.0438,29.0438 21.1788,29.2168 20.3168,29.4338 C20.1658,29.4718 19.9638,29.5378 19.8558,29.4008 C19.7418,29.2558 19.8928,29.0898 19.9648,28.9578 C20.1298,28.6578 20.3188,28.3708 20.5108,28.0868 C20.6398,27.8948 20.7868,27.8468 21.0198,27.9848 C22.6418,28.9438 23.9518,28.3198 25.2538,27.3598 C25.3648,27.2778 25.5208,27.1598 25.4628,27.0238 C25.3868,26.8438 25.1768,26.8618 24.9978,26.8558 C23.8278,26.8168 22.6938,27.0168 21.5788,27.3568 C21.4498,27.3958 21.2848,27.4788 21.1808,27.3548 C21.0668,27.2198 21.2068,27.0888 21.2818,26.9808 C21.4768,26.6988 21.6978,26.4358 21.8888,26.1518 C22.1798,25.7208 22.4428,25.6368 22.9108,25.9978 C24.2348,27.0198 26.0798,26.6498 27.4198,25.6178 C27.1298,25.3778 26.7778,25.2908 26.4278,25.2078 C25.5218,24.9938 24.6008,24.9258 23.6718,24.9488 C23.4848,24.9538 23.2378,25.0178 23.2018,24.7138 C23.1828,24.5458 24.1588,23.5318 24.3348,23.5108 C24.4778,23.4938 24.5518,23.5788 24.6328,23.6738 C25.8158,25.0568 28.0518,24.9958 29.4678,24.1388 C29.2628,23.8608 28.9568,23.7538 28.6598,23.6358 C27.9098,23.3368 27.1178,23.2158 26.3288,23.0698 C25.9348,22.9958 25.2688,23.2078 25.1978,22.7838 C25.1118,22.2668 25.7898,22.0518 26.1638,21.7348 C26.3868,21.5458 26.6078,21.5618 26.7878,21.8078 C27.9028,23.3308 30.4118,23.1338 31.7078,22.3358 C31.6248,22.0438 31.2348,22.0678 31.0908,21.7548 C32.1018,21.8078 33.0748,21.9178 34.0178,21.5068 C33.7958,21.0628 33.3048,20.9928 33.0798,20.6348 C32.0518,20.3208 31.0518,19.9208 29.9918,19.7018 C29.4678,19.5938 29.3468,19.2208 29.5558,18.7068 C29.6618,18.4468 29.7848,18.1918 29.8728,17.9248 C30.1798,17.0018 30.5188,16.0808 30.3058,14.9998 C29.5978,15.4888 29.0808,16.0748 28.7068,16.7578 C28.3058,17.4888 28.1828,18.2998 28.5608,19.0798 C28.7698,19.5098 28.7408,19.8248 28.4028,20.1338 C28.8138,19.8818 29.1008,19.9428 29.3858,20.3778 C29.6908,20.8398 30.1198,21.2148 30.7188,21.6358 C29.7868,21.5008 29.0118,21.4208 28.2538,21.2608 C27.9518,21.1978 27.4618,21.3698 27.3838,21.0818 C27.2918,20.7378 27.8218,20.6418 28.0298,20.3888 C28.0688,20.3428 28.1008,20.2918 28.1358,20.2428 C27.9218,20.2558 27.7278,20.5538 27.5328,20.3848 C27.3298,20.2088 27.4698,19.9368 27.5228,19.7018 C27.5808,19.4478 27.6468,19.1888 27.6578,18.9298 C27.6888,18.2038 27.8358,17.4668 27.5288,16.7388 C26.2918,17.7738 25.6788,19.3358 26.1638,20.4958 C26.4158,21.0968 26.3018,21.4368 25.7958,21.7298 C25.5428,21.8768 25.3008,22.2938 25.0528,22.1358 C24.7538,21.9438 25.0478,21.5588 25.0978,21.2598 C25.2438,20.3858 25.4318,19.5158 25.2478,18.6228 C25.2078,18.4308 25.1898,18.3078 24.9508,18.4648 C23.9318,19.1348 23.2058,21.1338 23.7498,22.1978 C24.1188,22.9208 23.9918,23.3428 23.3778,23.7428 C23.3118,23.7858 23.2688,23.8628 23.2098,23.9168 C23.1248,23.9958 23.0548,24.1288 22.9128,24.0768 C22.7588,24.0198 22.8168,23.8718 22.8248,23.7628 C22.8608,23.2598 22.9288,22.7578 22.9468,22.2538 C22.9688,21.6218 22.9008,21.0008 22.5968,20.3318 C21.4408,21.8168 20.7898,23.2538 21.9018,24.9468 C21.9828,25.0698 22.0378,25.2198 21.9288,25.3418 C21.6528,25.6488 21.4748,26.0498 21.0348,26.3218 C20.7658,25.0598 20.9828,23.7378 20.1838,22.5908 C20.0368,22.8428 19.9068,23.0218 19.8208,23.2208 C19.2278,24.6018 18.9598,25.9618 20.1388,27.2038 C20.2248,27.2928 20.3238,27.4138 20.2648,27.5248 C19.9748,28.0718 19.7018,28.6338 19.2158,29.2628 C19.0298,27.7398 19.2448,26.3178 18.4258,25.0648 C17.3268,26.6628 17.0608,28.6718 18.5588,29.8808 C18.7348,30.0228 18.8868,30.1918 18.7598,30.4528 C18.5608,30.8588 18.4378,31.3048 18.1008,31.7568 C17.6508,30.6218 17.5968,29.3748 16.6058,28.4888 C16.4548,28.9638 16.2998,29.3378 16.2188,29.7288 C15.9818,30.8778 15.9288,32.0638 16.9708,32.8288 C17.6368,33.3168 17.6348,33.7678 17.3908,34.3968 C17.3468,34.5088 17.3548,34.6678 17.2138,34.6808 C17.0258,34.6978 17.0228,34.5168 16.9818,34.3858 C16.7708,33.7098 16.4828,33.0628 16.1168,32.4608 C15.9508,32.1878 15.7618,31.7418 15.4118,31.8108 C15.1368,31.8648 15.2048,32.3248 15.1498,32.6138 C15.1348,32.6928 15.1028,32.7708 15.0968,32.8498 C15.0098,34.0698 15.0478,35.2478 16.2158,36.0258 C16.9378,36.5058 17.0048,36.7898 16.5598,37.7418 C16.2628,37.2328 16.0038,36.7648 15.7198,36.3118 C15.4238,35.8378 15.1008,35.3828 14.5188,35.1728 C14.3438,35.7818 14.4188,36.3648 14.4528,36.9438 C14.5238,38.1218 15.0028,39.0348 16.1658,39.4798 C16.3348,39.5438 16.5378,39.5778 16.5508,39.8058 C16.5838,40.3748 16.6348,40.9458 16.4758,41.5668 C16.1638,41.3028 16.0968,40.9728 15.9398,40.7028 C15.5838,40.0928 15.2568,39.4648 14.7018,39.0028 C14.5988,38.9168 14.5018,38.7718 14.3398,38.8338 C14.1688,38.8998 14.2178,39.0768 14.2148,39.2048 C14.2028,39.6688 14.1958,40.1338 14.2148,40.5978 C14.2708,41.9178 14.9518,42.7848 16.2158,43.1408 C16.4208,43.1978 16.6008,43.2278 16.6528,43.4778 C16.7518,43.9458 16.7848,44.4118 16.7328,44.9878 C15.8148,44.1448 15.1958,43.0968 14.0328,42.6898 C13.8198,44.1478 14.7528,45.8158 16.1198,46.1158" id="Fill-60" fill="#000000" mask="url(#mask-2)"></path>
                    <path d="M78.3662,55.0341 C75.7502,53.7471 73.9172,53.2241 71.0782,52.6291 C71.0962,52.8221 71.0962,52.9641 71.0852,53.0791 C71.4462,53.0501 71.8092,53.0451 72.1432,53.0511 C73.1572,53.0691 75.3952,53.8991 75.3072,54.9111 C75.2722,55.3161 75.1312,56.1611 74.6742,56.0591 C74.5802,56.1461 74.4812,56.2221 74.3792,56.2921 L75.3792,56.4841 L72.3792,59.6221 L70.7722,63.3351 C71.1152,63.4031 71.7392,63.1221 71.7402,62.7021 C71.7422,61.9371 72.0732,62.6381 72.1432,61.8711 C72.1822,61.4451 73.6342,60.4721 74.0412,60.6011 C75.6122,61.0991 76.6172,60.4741 78.0832,61.2481 C78.4702,61.4521 78.6802,61.5011 78.6822,60.9211 C78.6932,58.2581 78.9962,58.8141 79.0522,56.1511 C79.0622,55.6731 78.7692,55.2321 78.3662,55.0341" id="Fill-61" fill="#000000" mask="url(#mask-2)"></path>
                    <path d="M68.926,52.6818 C68.539,52.8448 67.959,52.5348 67.924,52.9978 C67.888,53.4708 68.006,53.1998 68.367,53.4198 C69.254,53.9618 69.011,53.6518 69.901,53.3148 C70.048,53.2588 70.206,53.2188 70.367,53.1838 C69.962,52.9308 69.437,52.5738 68.926,52.6818" id="Fill-62" fill="#000000" mask="url(#mask-2)"></path>
                    <path d="M71.0856,53.0788 C70.8406,53.0988 70.5996,53.1328 70.3676,53.1838 C70.7626,53.4288 71.0426,53.5658 71.0856,53.0788" id="Fill-63" fill="#000000" mask="url(#mask-2)"></path>
                    <path d="M46.4935,63.699 C46.1215,64.339 46.0085,65.018 46.0615,65.729 C46.0835,66.027 46.0315,66.168 45.7245,66.244 C44.1975,66.62 42.6435,66.961 41.0865,67.01 C39.8605,67.049 38.6195,66.696 37.3895,66.488 C36.9605,66.415 36.4095,66.512 36.1395,66.16 C35.8955,65.841 36.0965,65.34 36.0565,64.921 C35.9435,63.737 35.2215,62.946 34.3265,62.28 C34.0945,62.107 33.8025,61.723 33.5795,61.887 C33.2985,62.093 33.5175,62.514 33.6075,62.834 C33.8885,63.836 34.4305,64.709 34.9785,65.579 C35.0415,65.679 35.1585,65.774 35.1045,65.9 C35.0265,66.08 34.8525,65.992 34.7315,65.97 C34.3165,65.894 33.9025,65.806 33.4955,65.695 C33.3235,65.648 33.1525,65.544 33.2045,65.305 C33.5005,63.936 32.3935,62.304 31.4355,61.335 C33.0345,60.759 46.0905,59.922 48.3315,61.554 C47.6355,62.191 46.9385,62.933 46.4935,63.699 L46.4935,63.699 Z M32.3075,65.267 C32.2195,65.363 32.1305,65.296 32.0355,65.265 C31.8265,65.194 31.6065,65.154 31.3995,65.076 C31.0245,64.936 30.5805,64.861 30.3035,64.607 C29.9285,64.263 30.4825,63.913 30.4725,63.534 C30.4655,63.253 30.4955,62.972 30.5015,62.69 C30.5065,62.435 30.5025,62.18 30.5025,61.925 C30.5525,61.907 30.6025,61.889 30.6535,61.871 C31.0095,62.693 31.3615,63.516 31.8415,64.272 C31.9915,64.51 32.1435,64.747 32.2825,64.991 C32.3295,65.071 32.3935,65.171 32.3075,65.267 L32.3075,65.267 Z M29.0815,64.022 C28.8905,64.016 27.5355,63.228 27.4825,63.074 C27.3795,62.775 28.0745,61.999 28.4405,62.004 C28.6085,62.005 28.7895,62.023 28.8405,62.208 C28.9905,62.75 29.1225,63.298 29.2515,63.847 C29.2775,63.958 29.2205,64.026 29.0815,64.022 L29.0815,64.022 Z M59.5045,61.734 L41.3855,60.056 L29.2575,61.335 L20.0605,62.266 L20.0535,62.267 C21.7655,62.202 23.4805,62.238 25.1975,62.004 C25.5365,61.958 25.9815,62.326 26.1995,62.69 C25.9745,62.829 25.7795,62.728 25.5875,62.72 C24.7655,62.682 23.9375,62.547 23.1305,62.831 C22.8535,62.928 22.6905,63.049 23.0055,63.316 C24.1295,64.267 25.8945,64.776 27.1555,63.719 C27.2945,63.603 27.4395,63.465 27.6415,63.57 C28.1275,63.821 28.6425,64.025 29.1515,64.434 C28.9735,64.452 28.8975,64.465 28.8225,64.465 C27.7465,64.459 26.6905,64.577 25.6865,64.993 C25.4275,65.101 25.2095,65.257 25.5925,65.472 C26.9955,66.262 28.5885,66.486 29.8245,65.094 C29.9905,64.907 30.1465,64.782 30.3885,64.88 C30.9745,65.116 31.5565,65.366 32.3075,65.682 C31.8405,65.859 31.5485,65.977 31.2515,66.081 C30.4465,66.365 29.6995,66.755 29.0635,67.33 C28.9485,67.433 28.6565,67.658 29.0195,67.756 C30.4945,68.152 32.1595,67.772 32.8955,66.432 C32.9975,66.246 33.0545,65.938 33.2945,65.945 C33.9145,65.965 34.5215,66.091 35.2155,66.402 C34.5245,66.7 33.9645,66.915 33.4295,67.18 C32.8765,67.453 32.3135,67.732 31.9735,68.306 C33.6995,68.942 35.5505,68.26 36.0925,66.915 C36.1815,66.692 36.3055,66.523 36.5835,66.571 C37.5335,66.735 38.4835,66.896 39.4325,67.068 C39.5205,67.084 39.6575,67.165 39.6635,67.227 C39.6795,67.382 39.5295,67.387 39.4095,67.411 C38.5385,67.583 37.6945,67.852 36.8635,68.158 C36.4475,68.311 36.0095,68.466 35.7705,69 C36.6715,68.857 37.4085,68.477 38.1755,68.193 C39.4495,67.722 40.7165,67.35 42.1165,67.634 C43.0555,67.825 43.9215,68.188 44.8165,68.487 C45.2905,68.645 45.7485,68.9 46.4185,68.841 C45.2305,67.722 43.7135,67.738 42.4175,67.202 C43.3925,66.84 44.3975,66.759 45.3665,66.517 C45.6895,66.436 45.8435,66.513 45.9835,66.799 C46.5565,67.964 47.5285,68.438 48.7965,68.387 C49.2155,68.37 49.8825,68.423 49.9425,68.12 C50.0245,67.71 49.4135,67.511 49.0545,67.265 C48.4045,66.822 47.6075,66.7 46.8825,66.292 C47.3435,65.944 47.8955,66.021 48.3155,65.755 C47.9705,65.783 47.6415,65.862 47.3115,65.933 C47.1915,65.959 47.0655,65.966 46.9905,65.839 C46.9285,65.735 46.9935,65.65 47.0495,65.564 C47.7765,64.445 48.4505,63.301 48.6805,61.956 C48.7145,61.753 48.8675,61.705 49.0425,61.721 C49.2965,61.744 49.5995,61.68 49.7645,61.919 C49.8525,62.045 49.7295,62.226 49.6225,62.354 C49.3885,62.635 49.2405,62.968 49.0525,63.276 C48.5985,64.017 49.1985,64.915 48.6575,65.627 C48.6495,65.637 48.6825,65.7 48.7085,65.71 C49.1555,65.894 49.1485,66.406 49.4405,66.713 C50.4995,67.82 51.7635,67.795 53.1205,67.493 C53.0495,67.155 52.8105,67.014 52.6075,66.867 C51.9495,66.39 51.2075,66.077 50.4375,65.825 C50.2525,65.765 49.9795,65.754 49.9205,65.559 C49.8355,65.282 50.2655,65.383 50.3165,65.13 C50.2075,65.161 50.1145,65.196 50.0185,65.212 C49.9035,65.231 49.7685,65.286 49.6795,65.173 C49.5855,65.053 49.6785,64.943 49.7475,64.848 C50.3505,64.009 50.8585,63.119 51.2175,62.149 C51.2655,62.018 51.3375,61.935 51.4815,61.975 C51.6135,62.012 51.5765,62.135 51.5815,62.228 C51.5985,62.591 51.5675,62.963 51.6355,63.315 C51.7305,63.799 51.7715,64.371 52.0585,64.727 C53.2925,66.261 54.7825,66.075 56.2745,65.235 C56.3745,65.179 56.5425,65.15 56.5065,65.014 C56.4825,64.923 56.3465,64.839 56.2425,64.794 C55.7015,64.563 55.1345,64.439 54.5465,64.387 C53.9935,64.338 53.4275,64.397 52.8015,64.236 C53.0565,64.044 53.2425,63.905 53.4295,63.766 C53.3165,63.806 53.2045,63.852 53.0895,63.884 C52.7455,63.982 52.6565,63.881 52.7855,63.535 C52.8975,63.237 52.9895,62.921 53.0245,62.606 C53.0715,62.172 53.2645,62.022 53.6945,62.077 C54.1865,62.14 54.4375,62.445 54.5695,62.87 C54.6175,63.022 54.4535,63.102 54.3305,63.177 C54.1445,63.29 53.9325,63.377 53.8465,63.605 C54.2555,63.33 54.6055,63.298 55.0425,63.647 C55.5355,64.04 56.1365,64.18 56.8085,64.061 C57.5105,63.937 58.1325,63.663 58.6535,63.216 C59.0955,62.838 60.1565,62.522 60.6985,62.597 C63.3885,62.969 65.4125,62.513 68.0825,63.013 C69.1445,63.212 69.2655,63.161 69.5825,63.166 L59.5045,61.734 Z" id="Fill-64" fill="#000000" mask="url(#mask-2)"></path>
                </g>
                <g id="Group-77" transform="translate(0.000000, 51.474900)">
                    <path d="M58.6123,8.4205 C57.6923,8.3985 57.0863,7.7585 57.0963,6.8205 C57.1073,5.9075 57.8893,5.1165 58.7453,5.1525 C59.5993,5.1885 60.2183,5.8695 60.2003,6.7515 C60.1793,7.7595 59.5293,8.4425 58.6123,8.4205" id="Fill-66" fill="#00A00F"></path>
                    <path d="M38.9408,4.1633 C39.3178,4.2213 39.5948,4.4013 39.5718,4.8203 C39.5448,5.2953 39.1818,5.5203 38.7888,5.4653 C38.1978,5.3833 38.5498,4.8583 38.4868,4.5373 C38.4248,4.2233 38.6438,4.1163 38.9408,4.1633" id="Fill-68" fill="#00A00F"></path>
                    <path d="M15.5164,6.4451 C15.9944,6.4331 16.2884,6.5881 16.2964,7.0491 C16.3044,7.5221 15.9674,7.7851 15.5784,7.7791 C14.9014,7.7711 15.2654,7.1241 15.1154,6.7901 C14.9644,6.4551 15.3574,6.4861 15.5164,6.4451" id="Fill-70" fill="#00A00F"></path>
                    <path d="M19.7137,7.7637 C19.5667,7.7207 19.2857,7.9207 19.3487,7.6237 C19.4237,7.2687 19.3957,6.8427 19.7397,6.5967 C19.8347,6.5287 20.4077,7.3287 20.3547,7.5087 C20.2507,7.8587 19.9237,7.7047 19.7137,7.7637" id="Fill-72" fill="#00A00F"></path>
                    <g id="Group-76">
                        <mask id="mask-4" fill="white">
                            <use xlink:href="#path-3"></use>
                        </mask>
                        <g id="Clip-75"></g>
                        <path d="M71.7357,7.0149 C71.7207,7.2609 71.5507,7.2909 71.3497,7.2719 C71.1247,7.2389 70.8477,7.2759 70.8487,6.9139 C70.8487,6.8709 70.7757,6.7889 70.7747,6.7899 C70.4177,7.0049 70.3777,6.6759 70.4397,6.5239 C70.5267,6.3099 70.7927,6.4159 70.9667,6.4619 C71.1867,6.5209 71.3197,6.7879 71.6347,6.6669 C71.7537,6.6219 71.7437,6.8819 71.7357,7.0149 M69.8917,6.7109 C69.8327,7.0089 69.6507,7.0339 69.3947,6.9569 C69.1827,6.8939 68.9587,6.8739 68.7437,6.8229 C68.4047,6.7449 68.1827,6.7689 68.1017,7.2029 C68.0247,7.6149 68.1637,7.7589 68.5337,7.8069 C68.7527,7.8349 68.9697,7.8829 69.1827,7.9419 C69.4027,8.0029 69.6077,8.0809 69.5327,8.3929 C69.4637,8.6799 69.2727,8.6509 69.0657,8.6109 C68.9267,8.5849 68.7867,8.5669 68.6517,8.5299 C68.1377,8.3859 67.8527,8.4919 67.7407,9.0969 C67.6457,9.6129 67.7197,9.8589 68.2597,9.9109 C68.4987,9.9329 68.7307,10.0139 68.9667,10.0649 C69.2247,10.1199 69.1937,10.3019 69.1617,10.4879 C69.1277,10.6809 69.0247,10.7649 68.8227,10.7239 C68.2707,10.6139 67.7167,10.5139 67.1657,10.3999 C66.9417,10.3539 66.8047,10.2239 66.8377,9.9649 C67.0947,8.7069 67.3497,7.4479 67.6087,6.1889 C67.6487,5.9939 67.7787,5.9289 67.9677,5.9699 C68.4977,6.0849 69.0267,6.2029 69.5567,6.3129 C69.7787,6.3599 69.9447,6.4409 69.8917,6.7109 M66.6407,6.5299 C66.4647,6.7659 66.3357,6.4949 66.2067,6.4189 C65.4717,5.9779 64.5397,6.1419 64.1087,6.7979 C63.5717,7.6169 63.7137,8.5739 64.4227,9.1159 C64.8187,9.4179 65.2497,9.3619 65.6907,9.3379 C65.8597,9.3289 66.0957,9.0429 66.1867,9.3799 C66.2637,9.6689 66.1447,9.9489 65.8187,10.0469 C65.6477,10.0989 65.4617,10.0949 65.2827,10.1169 C64.2607,10.1069 63.5987,9.5489 63.2407,8.6709 C62.8787,7.7819 63.0857,6.9329 63.7157,6.2019 C64.3547,5.4609 65.1477,5.2949 66.0657,5.5729 C66.2687,5.6339 66.4297,5.7489 66.5797,5.8769 C66.8007,6.0639 66.7947,6.3249 66.6407,6.5299 M62.0567,9.1409 C62.0197,9.3829 61.8917,9.4869 61.6387,9.4429 C61.3917,9.3999 61.3837,9.2269 61.3907,8.9909 C61.5777,7.8079 61.7737,6.5809 61.9647,5.3519 C61.9997,5.1309 62.1157,5.0339 62.3347,5.0649 C62.5577,5.0959 62.6457,5.2399 62.6147,5.4489 C62.4307,6.6799 62.2427,7.9099 62.0567,9.1409 M58.6887,9.1129 C57.5217,9.1489 56.3007,8.0259 56.4337,6.7189 C56.4177,5.5529 57.4297,4.4979 58.5877,4.4729 C59.8687,4.4449 60.8707,5.4469 60.8827,6.7669 C60.8937,8.0539 59.9207,9.0739 58.6887,9.1129 M55.5117,7.4479 C55.4927,7.6679 55.4707,7.8879 55.4447,8.1079 C55.4157,8.3559 55.4837,8.6719 55.0477,8.6159 C54.6717,8.5679 54.7467,8.3129 54.7677,8.0729 C54.7997,7.7109 54.8257,7.3489 54.8647,6.9879 C54.8957,6.6929 54.7917,6.5659 54.4807,6.5099 C53.2107,6.2809 53.1887,6.2849 53.0057,7.5239 C52.9767,7.7239 52.9427,7.9229 52.9227,8.1239 C52.8977,8.3639 52.7397,8.4309 52.5417,8.4059 C52.3437,8.3819 52.2307,8.2919 52.2597,8.0399 C52.3967,6.8589 52.5007,5.6739 52.6397,4.4929 C52.6657,4.2739 52.5687,3.8959 53.0087,3.9449 C53.4177,3.9899 53.2857,4.3119 53.2877,4.5569 C53.2887,4.6569 53.2737,4.7579 53.2657,4.8589 C53.2977,5.1379 53.0517,5.5559 53.4467,5.6569 C53.8997,5.7719 54.3967,5.9489 54.8647,5.7619 C55.0997,5.6689 55.0637,5.3449 55.0847,5.1069 C55.1027,4.9059 55.1027,4.7029 55.1187,4.5019 C55.1337,4.3059 55.1907,4.1419 55.4387,4.1529 C55.7027,4.1649 55.7807,4.3109 55.7587,4.5559 C55.6727,5.5189 55.5937,6.4839 55.5117,7.4479 M51.5657,4.6119 C51.4167,4.8519 51.2517,4.5949 51.1157,4.5319 C50.0247,4.0269 48.8867,4.6929 48.8047,5.8949 C48.7237,7.0969 49.6877,7.8669 50.8477,7.5489 C51.0167,7.5019 51.2737,7.1779 51.3937,7.5359 C51.4937,7.8329 51.3707,8.1439 50.9907,8.2249 C50.7757,8.2699 50.5547,8.2929 50.4477,8.3089 C49.4107,8.3059 48.7457,7.8549 48.3487,7.0589 C47.9157,6.1929 48.0187,5.3229 48.6037,4.5549 C49.1437,3.8469 49.8727,3.5149 50.7797,3.6849 C51.0187,3.7289 51.2427,3.8199 51.4407,3.9659 C51.6817,4.1439 51.6957,4.4019 51.5657,4.6119 M45.6327,3.7949 C45.4617,4.1769 45.2687,4.5499 45.0777,4.9219 C45.0077,5.0579 44.8937,5.1399 44.7327,5.0699 C44.6037,5.0129 44.5557,4.8989 44.6017,4.7739 C44.7617,4.3439 44.9267,3.9169 45.1027,3.4939 C45.1437,3.3939 45.2627,3.3869 45.3967,3.3919 C45.6157,3.4189 45.7437,3.5469 45.6327,3.7949 M43.7787,7.0999 C43.6197,7.6279 43.0837,8.0099 42.4887,8.0199 C41.8347,8.0309 41.2737,7.6139 41.1477,7.0209 C41.1097,6.8399 41.0617,6.6469 41.3137,6.5799 C41.5147,6.5269 41.7277,6.4859 41.7957,6.7709 C41.9027,7.2159 42.2087,7.3299 42.6177,7.2749 C42.9207,7.2349 43.0667,7.0489 43.1177,6.7549 C43.1947,6.3189 42.9697,6.0839 42.6107,5.9059 C42.3237,5.7629 42.0297,5.6179 41.7787,5.4219 C41.4077,5.1329 41.2197,4.7439 41.3427,4.2529 C41.4837,3.6939 41.8767,3.4229 42.4147,3.3309 C42.9057,3.2469 43.2667,3.4839 43.5677,3.8389 C43.6597,3.9479 43.7397,4.0719 43.6117,4.2139 C43.4917,4.3469 43.3477,4.4089 43.1827,4.3159 C43.0797,4.2579 43.0047,4.1429 42.8987,4.0999 C42.5487,3.9569 42.2527,4.0569 42.0747,4.3839 C41.8817,4.7409 42.1587,4.8889 42.4157,5.0249 C42.6827,5.1669 42.9677,5.2819 43.2167,5.4479 C43.7727,5.8189 43.9757,6.4499 43.7787,7.0999 M40.3957,7.8509 C40.2007,7.9709 39.8857,7.9939 39.6977,7.7089 C39.4777,7.3729 39.2647,7.0309 39.0187,6.7149 C38.9067,6.5719 38.8267,6.2869 38.5937,6.3649 C38.3937,6.4319 38.5057,6.6859 38.4927,6.8569 C38.4747,7.0969 38.4787,7.3399 38.4817,7.5819 C38.4837,7.7799 38.4667,7.9429 38.2037,7.9479 C37.9387,7.9519 37.8437,7.8129 37.8437,7.5749 C37.8427,6.9299 37.8437,6.2859 37.8437,5.6419 L37.8247,5.6419 C37.8247,5.0389 37.8287,4.4359 37.8217,3.8339 C37.8197,3.6619 37.8247,3.5159 38.0077,3.4319 C38.7327,3.0999 39.9157,3.6039 40.1847,4.3539 C40.3957,4.9449 40.2377,5.4449 39.7627,5.8059 C39.4337,6.0559 39.4517,6.2449 39.6857,6.5319 C39.9017,6.7959 40.0957,7.0829 40.2577,7.3829 C40.3347,7.5249 40.6817,7.6759 40.3957,7.8509 M36.6727,7.9869 C36.0887,8.0189 35.5047,8.0419 34.9207,8.0589 C34.6497,8.0669 34.5877,7.8839 34.5877,7.6569 C34.5887,6.9719 34.5877,6.2869 34.5877,5.6019 L34.4827,5.6019 C34.4827,5.0369 34.4907,4.4709 34.4797,3.9059 C34.4737,3.6279 34.5737,3.5189 34.8627,3.5019 C35.3877,3.4699 35.9087,3.4279 36.4357,3.4609 C36.6847,3.4769 36.8707,3.5089 36.8917,3.8119 C36.9117,4.1179 36.7017,4.1159 36.4977,4.1379 C36.2567,4.1639 36.0137,4.2349 35.7777,4.2169 C35.3217,4.1809 35.1727,4.3629 35.1857,4.8089 C35.2007,5.3189 35.5197,5.1999 35.8177,5.1839 C36.0787,5.1699 36.3407,5.1589 36.6007,5.1739 C36.8317,5.1869 36.8787,5.3659 36.8917,5.5639 C36.9047,5.7779 36.7927,5.8439 36.6007,5.8539 C36.2987,5.8689 35.9977,5.9159 35.6957,5.9139 C35.3067,5.9119 35.2317,6.0939 35.2627,6.4499 C35.3357,7.2919 35.3197,7.2919 36.1767,7.2899 C36.3377,7.2889 36.4997,7.2919 36.6597,7.3039 C36.8877,7.3199 36.9697,7.4779 36.9747,7.6769 C36.9807,7.8719 36.8527,7.9779 36.6727,7.9869 M33.4657,8.1249 C33.0467,8.1439 32.5807,8.3239 32.2197,8.1129 C31.8117,7.8739 32.0627,7.3699 32.0247,6.9929 C31.9277,6.0149 31.9057,5.0289 31.8567,4.0459 C31.8467,3.8489 31.8917,3.6819 32.1337,3.6609 C32.3807,3.6399 32.5117,3.7479 32.5247,3.9999 C32.5667,4.7609 32.6127,5.5219 32.6527,6.2169 C32.6527,6.4039 32.6677,6.5269 32.6497,6.6449 C32.5607,7.2439 32.7837,7.5089 33.4107,7.4189 C33.6687,7.3819 33.9627,7.3869 33.9747,7.7769 C33.9857,8.1519 33.6937,8.1139 33.4657,8.1249 M31.2267,8.2519 C30.9137,8.3499 30.5957,8.3729 30.2047,8.3649 C29.6807,8.5419 29.4887,8.2969 29.4717,7.7089 C29.4387,6.5849 29.3377,5.4629 29.2697,4.3389 C29.2567,4.1159 29.2387,3.8739 29.5787,3.8729 C29.8807,3.8729 29.9297,4.0609 29.9437,4.3109 C29.9917,5.2349 30.0797,6.1579 30.0977,7.0829 C30.1067,7.5419 30.2667,7.7039 30.7077,7.6429 C30.8657,7.6209 31.0297,7.6339 31.1897,7.6469 C31.3587,7.6609 31.4267,7.7779 31.4347,7.9369 C31.4427,8.0929 31.3967,8.1979 31.2267,8.2519 M27.8127,8.5689 C26.3397,8.8209 26.3217,8.8019 26.1497,7.3529 C26.0467,6.4919 25.9957,5.6249 25.9277,4.7599 C25.8967,4.3589 26.0167,4.1139 26.4947,4.1179 C26.9557,4.1209 27.4167,4.0399 27.8787,4.0019 C28.1127,3.9829 28.3307,3.9859 28.3337,4.3219 C28.3367,4.6359 28.1307,4.6779 27.8967,4.6979 C27.6957,4.7139 27.4937,4.7339 27.2927,4.7349 C26.8367,4.7379 26.6417,4.9249 26.6987,5.4099 C26.7617,5.9469 27.1037,5.7879 27.4107,5.7559 C27.5907,5.7379 27.7707,5.7159 27.9517,5.7039 C28.1927,5.6879 28.3907,5.7179 28.4097,6.0359 C28.4297,6.3709 28.1927,6.3749 27.9757,6.4099 C27.8367,6.4329 27.6947,6.4329 27.5537,6.4489 C26.8667,6.5259 26.5607,7.1019 26.8947,7.7209 C27.1087,8.1179 27.4907,7.7749 27.7767,7.8819 C28.0487,8.0159 28.5557,7.5589 28.6207,8.1279 C28.6877,8.7269 28.0977,8.5199 27.8127,8.5689 M25.1527,4.6889 C24.8737,5.6939 24.5957,6.6999 24.3127,7.7039 C24.2427,7.9549 24.1587,8.2029 24.0717,8.4489 C23.9977,8.6619 24.1247,9.0279 23.8267,9.0549 C23.5757,9.0779 23.5267,8.7179 23.4167,8.5199 C22.7937,7.3949 22.1917,6.2569 21.5857,5.1219 C21.5137,4.9849 21.3987,4.8229 21.6357,4.7249 C21.9097,4.6129 22.1537,4.6389 22.3047,4.9289 C22.6107,5.5139 22.9087,6.1019 23.2147,6.6859 C23.3347,6.9139 23.4027,7.1769 23.7417,7.4199 C23.8567,6.5079 24.1537,5.7339 24.3787,4.9389 C24.4277,4.7659 24.4847,4.5899 24.5717,4.4349 C24.6737,4.2559 24.8607,4.2159 25.0477,4.2819 C25.2647,4.3589 25.1947,4.5349 25.1527,4.6889 M21.9417,9.1989 C21.7647,9.2439 21.5217,9.3089 21.4487,9.1169 C21.0937,8.1879 20.4007,8.3729 19.6617,8.4639 C19.1667,8.5239 18.9417,8.7259 18.8387,9.1709 C18.7987,9.3449 18.7427,9.5279 18.6417,9.6709 C18.5287,9.8329 18.3157,9.8499 18.1447,9.7899 C17.9617,9.7249 18.0497,9.5619 18.0887,9.4289 C18.5027,8.0219 18.9117,6.6129 19.3317,5.2079 C19.4297,4.8769 19.6077,4.8949 19.7737,5.1619 C20.5257,6.3739 21.2717,7.5889 22.0177,8.8039 C22.0487,8.8549 22.0667,8.9129 22.0847,8.9539 C22.0987,9.0849 22.0557,9.1689 21.9417,9.1989 M17.5547,9.8689 C17.3607,10.0409 17.0777,10.0129 16.8567,9.7699 C16.5317,9.4129 16.1767,9.0839 15.8367,8.7409 C15.7517,8.6539 15.6657,8.5359 15.5357,8.5859 C15.3507,8.6559 15.4377,8.8279 15.4567,8.9529 C15.5047,9.2709 15.5757,9.5859 15.6357,9.9019 C15.6827,10.1469 15.5837,10.2839 15.3357,10.3279 C15.0727,10.3739 15.0247,10.1889 14.9917,10.0099 C14.7757,8.8009 14.5657,7.5909 14.3537,6.3819 C14.2867,6.0019 14.4727,5.8129 14.8317,5.7709 C15.0717,5.7429 15.3127,5.7319 15.5537,5.7129 C16.0537,5.6909 16.5047,5.8399 16.7317,6.2929 C16.9827,6.7929 17.0787,7.3719 16.6647,7.8289 C16.3077,8.2239 16.3977,8.4659 16.7587,8.7519 C16.9787,8.9259 17.1827,9.1279 17.3587,9.3449 C17.4777,9.4919 17.7967,9.6529 17.5547,9.8689 M13.2757,6.7919 C12.8707,6.8689 12.6997,7.0289 12.8267,7.5019 C13.0447,8.3129 13.1717,9.1489 13.3327,9.9749 C13.3597,10.1129 13.3637,10.2549 13.3817,10.3949 C13.4077,10.6009 13.3617,10.7499 13.1237,10.7889 C12.8717,10.8309 12.8147,10.6799 12.7747,10.4829 C12.5877,9.5779 12.3807,8.6769 12.2127,7.7689 C12.1257,7.2959 11.9777,6.9889 11.4267,7.2179 C11.1517,7.3329 11.0537,7.1549 11.0057,6.9459 C10.9577,6.7379 11.0497,6.6039 11.2737,6.5579 C11.9027,6.4319 12.5307,6.3019 13.1557,6.1609 C13.4267,6.0999 13.5937,6.1559 13.6097,6.4779 C13.6467,6.7219 13.4577,6.7579 13.2757,6.7919 M79.2907,3.4619 C76.6747,2.1749 73.9017,1.3599 71.0617,0.7649 C70.0337,0.5499 68.9767,0.4509 67.9607,0.8799 C67.5737,1.0429 67.2597,1.2949 67.2247,1.7579 C67.1887,2.2309 67.4917,2.4849 67.8527,2.7059 C68.7387,3.2479 69.6377,3.0809 70.5277,2.7429 C71.1947,2.4909 71.8667,2.2949 72.5857,2.3069 C73.5997,2.3249 74.3587,3.1819 74.2707,4.1939 C74.2357,4.5979 74.1017,4.7399 73.6447,4.6369 C72.1737,4.3079 70.6897,4.0299 69.2087,3.7469 C68.7917,3.6669 68.3737,3.5969 67.9567,3.5199 C67.8357,3.4959 67.7317,3.4729 67.6067,3.4489 C66.9857,3.3289 66.3337,3.2149 65.6737,3.1029 C63.1857,2.6869 60.4257,2.3209 59.0137,2.1409 C58.7477,2.1079 58.4767,2.0729 58.2167,2.0409 C58.1957,2.0389 58.1677,2.0349 58.1517,2.0329 C57.6407,1.9709 57.1427,1.9129 56.6657,1.8579 C55.5057,1.7159 54.3457,1.5809 53.1827,1.4679 C52.7937,1.4309 52.4037,1.4009 52.0137,1.3659 C51.7577,1.3419 51.5327,1.3199 51.3797,1.3059 C51.1797,1.2879 51.0717,1.2779 51.0717,1.2779 L51.0837,1.2849 C49.7977,1.1779 48.5107,1.0809 47.2217,1.0079 C45.4707,0.9089 43.7177,0.7849 41.9697,0.7869 C38.6417,0.7899 35.3117,0.7969 31.9877,1.0309 C30.7927,1.1149 29.5997,1.2149 28.4087,1.3289 L28.3777,1.3279 C28.3737,1.3279 28.3697,1.3289 28.3647,1.3299 C26.1427,1.5199 18.8827,2.5539 16.1267,2.9509 C15.9377,3.0509 15.6667,3.0449 15.3987,3.0559 C15.1767,3.0889 15.0487,3.1069 15.0487,3.1069 C15.0297,3.1129 15.0097,3.1179 14.9897,3.1209 C12.2177,3.6239 9.4457,4.1329 6.7127,4.8239 C6.2707,4.9349 6.0127,4.8309 5.9917,4.3299 C5.9577,3.5329 6.5807,2.7519 7.3507,2.5409 C8.3167,2.2759 9.1757,2.6299 10.0467,2.9259 C10.8897,3.2119 11.7397,3.3339 12.5827,2.9929 C13.0797,2.7909 13.5157,2.4469 13.4987,1.8369 C13.4807,1.2279 13.0087,0.9879 12.5047,0.8479 C11.6317,0.6039 10.7387,0.6569 9.8617,0.7909 C8.5667,0.9889 7.3007,1.3329 6.0457,1.7019 C4.4027,2.1839 2.7907,2.7459 1.2107,3.4209 C0.3247,3.8009 -0.0133,4.2599 0.0137,5.2579 C0.0847,7.8209 0.0037,10.3869 -0.0003,12.9519 C-0.0013,13.6009 0.0717,13.6299 0.6537,13.3359 C2.2067,12.5529 3.8417,11.9849 5.5007,11.4779 C5.9397,11.3429 6.0917,11.4549 6.0827,11.9049 C6.0687,12.6119 6.1267,13.3219 6.0767,14.0259 C6.0327,14.6489 6.3147,14.6889 6.7887,14.5609 C7.2527,14.4349 7.7167,14.3089 8.1857,14.2059 C11.1907,13.5449 14.2107,12.9569 17.2407,12.4209 C18.2827,12.2359 19.3297,12.0839 20.3777,11.9409 L20.3777,11.9369 C20.3777,11.9369 20.4837,11.9239 20.6657,11.9009 C22.2157,11.6929 23.7687,11.5059 25.3187,11.2949 C25.4747,11.2729 25.6257,11.2749 25.7667,11.3129 C26.5257,11.2309 27.3337,11.1469 28.1687,11.0639 C28.2667,11.0049 28.3617,10.9649 28.4397,10.9659 C28.5327,10.9669 28.6267,10.9749 28.7027,11.0109 C30.1457,10.8689 31.6517,10.7339 33.1177,10.6199 C33.7147,10.5549 34.4977,10.5029 35.3937,10.4629 C37.1257,10.3589 38.7077,10.3039 39.9277,10.3349 C40.4737,10.3489 41.0507,10.3599 41.6277,10.3709 C42.6287,10.3809 43.6017,10.3999 44.4897,10.4309 C49.5077,10.5469 55.5487,10.8119 62.6207,12.0929 C62.9547,12.1539 63.2717,12.2179 63.5777,12.2839 C65.1017,12.5149 66.6237,12.7609 68.1397,13.0449 C69.8967,13.3739 71.6497,13.7219 73.4027,14.0719 C73.7447,14.1399 73.9117,14.1009 73.9127,13.6819 C73.9147,12.9159 73.9227,12.1499 73.9927,11.3839 C74.0307,10.9579 74.1307,10.8679 74.5377,10.9969 C76.1087,11.4949 77.6907,11.9599 79.1577,12.7329 C79.5447,12.9369 79.7547,12.9859 79.7567,12.4059 C79.7677,9.7429 79.7997,7.0789 79.8557,4.4159 C79.8657,3.9379 79.6937,3.6599 79.2907,3.4619" id="Fill-74" fill="#00A00F" mask="url(#mask-4)"></path>
                    </g>
                </g>
            </g>
        </g>
    </g>
</svg>