<?xml version="1.0" encoding="UTF-8" standalone="no"?>
<svg width="90px" height="90px" viewBox="0 0 90 90" version="1.1" xmlns="http://www.w3.org/2000/svg" xmlns:xlink="http://www.w3.org/1999/xlink">
    <!-- Generator: Sketch 3.6.1 (26313) - http://www.bohemiancoding.com/sketch -->
    <title>aventura-awards-02</title>
    <desc>Created with Sketch.</desc>
    <defs></defs>
    <g id="kit" stroke="none" stroke-width="1" fill="none" fill-rule="evenodd">
        <g id="aventura-awards-02">
            <g id="trip-advisor" transform="translate(10.000000, 12.000000)">
                <path d="M12.7202481,53.5684702 C10.289025,53.546396 8.49203406,51.9791262 8.53987964,50.0222464 C8.56769684,48.8467941 9.14518186,48.2055379 10.3402087,48.1845674 C10.7786077,48.1779451 11.2281336,48.2276121 11.6554058,48.3302573 C12.0849033,48.4317987 12.4977105,48.613911 12.906067,48.7871937 C16.6669521,50.3787451 20.4256118,51.9802299 24.1842715,53.5784036 C20.3633013,53.5706776 16.5412183,53.6048927 12.7202481,53.5684702" id="Fill-1" fill="#569045"></path>
                <path d="M14.9389478,48.3446055 C11.4462204,46.9274405 8.30510249,46.229895 4.48969568,44.0644138 C3.57395354,43.5445659 2.5380411,42.577715 2.17419216,41.3536994 C1.86263955,40.3051738 2.23650268,39.1517957 3.12442763,38.4498354 C4.03460633,37.7280084 4.88915064,38.1816336 5.70586356,38.6871333 C5.9317392,38.8262009 6.13536108,39.0061058 6.33008147,39.1871145 C9.34657837,42.0037852 12.731375,45.6327873 15.7456465,48.4538729 C15.3918117,48.1205522 16.592402,49.1326553 14.9389478,48.3446055" id="Fill-2" fill="#569045"></path>
                <path d="M8.9660391,39.9906161 C6.41130768,37.5260292 3.80873068,35.1066945 1.3240986,32.5747812 C0.15355093,31.3816695 -0.398342268,29.8740001 0.324904867,28.1875296 C1.05482813,26.4878144 3.03875066,26.1555974 4.19149532,27.6025627 C4.32946862,27.7747416 4.55311889,28.0363211 4.64769736,28.2327817 C6.44580101,31.9997477 8.07032534,36.7313572 9.65145485,40.6009684 C9.58580627,40.6384946 9.03168769,39.95309 8.9660391,39.9906161" id="Fill-3" fill="#569045"></path>
                <path d="M17.936529,2.06048019 L13.5714543,12.9265161 C13.5714543,12.9265161 18.5106759,8.4895974 19.0870482,7.7644592 C19.9783113,6.64639985 21.2834942,4.0780641 20.4957111,1.6631442 C19.7090408,-0.750671998 18.3660265,1.20841522 18.1512777,1.63555142 L17.936529,2.06048019" id="Fill-4" fill="#569045"></path>
                <path d="M13.5714543,10.1672383 L8.60107747,21.4537881 L8.34627194,9.473004 C8.34627194,9.473004 8.98384211,5.55151843 11.9480427,5.67844521 C14.9122432,5.80426827 14.1155587,8.27216631 14.0198675,8.58782769 C13.9241764,8.90459278 13.5714543,10.1672383 13.5714543,10.1672383" id="Fill-5" fill="#569045"></path>
                <path d="M7.2469363,17.5808658 L7.2469363,31.4710701 L2.2810102,20.1547201 C2.2810102,20.1547201 1.38529644,17.0908181 3.89106959,15.4937481 C5.63798959,14.3812073 6.97877851,16.1151374 7.06779355,16.4705324 C7.15680858,16.8259274 7.2469363,17.5808658 7.2469363,17.5808658" id="Fill-6" fill="#569045"></path>
                <path d="M56.6703075,53.5684702 C59.1015305,53.546396 60.8985215,51.9791262 60.8506759,50.0222464 C60.8228587,48.8467941 60.2453737,48.2055379 59.0503469,48.1845674 C58.6119479,48.1779451 58.1624219,48.2276121 57.7351498,48.3302573 C57.3056523,48.4317987 56.8928451,48.613911 56.4844886,48.7871937 C52.7236035,50.3787451 48.9649438,51.9802299 45.206284,53.5784036 C49.0272543,53.5706776 52.8493372,53.6048927 56.6703075,53.5684702" id="Fill-7" fill="#569045"></path>
                <path d="M54.4516078,48.3446055 C57.9443351,46.9274405 61.0854531,46.229895 64.9008599,44.0644138 C65.816602,43.5445659 66.8525145,42.577715 67.2163634,41.3536994 C67.527916,40.3051738 67.1540529,39.1517957 66.2661279,38.4498354 C65.3559492,37.7280084 64.5014049,38.1816336 63.684692,38.6871333 C63.4588164,38.8262009 63.2551945,39.0061058 63.0604741,39.1871145 C60.0439772,42.0037852 56.6591806,45.6327873 53.6449091,48.4538729 C53.9987438,48.1205522 52.7981536,49.1326553 54.4516078,48.3446055" id="Fill-8" fill="#569045"></path>
                <path d="M60.4245165,39.9906161 C62.9792479,37.5260292 65.5818249,35.1066945 68.066457,32.5747812 C69.2370046,31.3816695 69.7888978,29.8740001 69.0656507,28.1875296 C68.3357274,26.4878144 66.3518049,26.1555974 65.1990602,27.6025627 C65.0610869,27.7747416 64.8374367,28.0363211 64.7428582,28.2327817 C62.9447545,31.9997477 61.3202302,36.7313572 59.7391007,40.6009684 C59.8047493,40.6384946 60.3588679,39.95309 60.4245165,39.9906161" id="Fill-9" fill="#569045"></path>
                <path d="M51.4540266,2.06048019 L55.8191012,12.9265161 C55.8191012,12.9265161 50.8798796,8.4895974 50.3035073,7.7644592 C49.4122443,6.64639985 48.1070614,4.0780641 48.8948444,1.6631442 C49.6815148,-0.750671998 51.0245291,1.20841522 51.2392778,1.63555142 L51.4540266,2.06048019" id="Fill-10" fill="#569045"></path>
                <path d="M55.8191012,10.1672383 L60.7894781,21.4537881 L61.0442836,9.473004 C61.0442836,9.473004 60.4067134,5.55151843 57.4425129,5.67844521 C54.4783123,5.80426827 55.2749968,8.27216631 55.370688,8.58782769 C55.4663792,8.90459278 55.8191012,10.1672383 55.8191012,10.1672383" id="Fill-11" fill="#569045"></path>
                <path d="M62.1436193,17.5808658 L62.1436193,31.4710701 L67.1095454,20.1547201 C67.1095454,20.1547201 68.0052591,17.0908181 65.499486,15.4937481 C63.752566,14.3812073 62.411777,16.1151374 62.322762,16.4705324 C62.233747,16.8259274 62.1436193,17.5808658 62.1436193,17.5808658" id="Fill-12" fill="#569045"></path>
                <path d="M9.93964102,55.8906784 L9.93964102,57.2802507 L11.4617981,57.2802507 L11.4617981,58.0837523 L9.93964102,58.0837523 L9.93964102,61.2116696 C9.93964102,61.9301856 10.1454883,62.337455 10.7374382,62.337455 C11.0278498,62.337455 11.1958657,62.3131733 11.3538673,62.26461 L11.4017129,63.0681117 C11.1958657,63.1409566 10.8698481,63.2126979 10.4592663,63.2126979 C9.96412015,63.2126979 9.56577788,63.0438301 9.31208504,62.769006 C9.0216735,62.4456186 8.90150321,61.9301856 8.90150321,61.2458847 L8.90150321,58.0837523 L7.99466257,58.0837523 L7.99466257,57.2802507 L8.90150321,57.2802507 L8.90150321,56.2140657 L9.93964102,55.8906784" id="Fill-13" fill="#1A1918"></path>
                <path d="M12.4164843,59.0903369 C12.4164843,58.4071397 12.4042447,57.8188617 12.3686387,57.2802507 L13.2988458,57.2802507 L13.3466914,58.4181768 L13.3834101,58.4181768 C13.6482298,57.6400605 14.3013776,57.1478053 15.0134978,57.1478053 C15.1225413,57.1478053 15.2071055,57.1599461 15.3039094,57.1842278 L15.3039094,58.1665307 C15.1826264,58.1543899 15.073583,58.1444565 14.9289336,58.1444565 C14.1800946,58.1444565 13.6482298,58.7062454 13.5035804,59.4843617 C13.4791012,59.6410887 13.4679744,59.8088528 13.4679744,59.987654 L13.4679744,63.0813562 L12.4042447,63.0813562 L12.4164843,59.0903369" id="Fill-14" fill="#1A1918"></path>
                <path d="M16.6569379,56.2140657 C16.2574829,56.2140657 15.9926632,55.9028192 15.9926632,55.5319723 C15.9926632,55.1600216 16.2697225,54.8609159 16.6803043,54.8609159 C17.0908862,54.8609159 17.3568186,55.1600216 17.3568186,55.5319723 C17.3568186,55.9028192 17.0908862,56.2140657 16.6691774,56.2140657 L16.6569379,56.2140657 L16.6569379,56.2140657 Z M16.1495522,57.2802507 L17.2121691,57.2802507 L17.2121691,63.0802525 L16.1495522,63.0802525 L16.1495522,57.2802507 Z" id="Fill-15" fill="#1A1918"></path>
                <path d="M18.7220866,59.1742189 C18.7220866,58.4303176 18.7098471,57.8310025 18.674241,57.2802507 L19.6278146,57.2802507 L19.6890124,58.2746944 L19.7123788,58.2746944 C20.1352003,57.5561784 20.8361936,57.1478053 21.7786403,57.1478053 C23.2039935,57.1478053 24.2666104,58.3353985 24.2666104,60.0958177 C24.2666104,62.1818317 22.9747798,63.2126979 21.6095117,63.2126979 C20.8239541,63.2126979 20.1596794,62.876066 19.8091827,62.3021362 L19.7858163,62.3021362 L19.7858163,65.4521277 L18.7220866,65.4521277 L18.7220866,59.1742189 L18.7220866,59.1742189 Z M19.7858163,60.7205182 C19.7858163,60.8640006 19.7969431,61.0196239 19.8336618,61.1520692 C20.01503,61.882726 20.6670651,62.3849145 21.415904,62.3849145 C22.5397188,62.3849145 23.1917539,61.4754566 23.1917539,60.144381 C23.1917539,58.9810695 22.5875644,57.9877295 21.4648623,57.9877295 C20.7393898,57.9877295 20.050636,58.489918 19.8459014,59.2823826 C19.8214223,59.4247613 19.7858163,59.5814883 19.7858163,59.7139336 L19.7858163,60.7205182 L19.7858163,60.7205182 Z" id="Fill-16" fill="#1A1918"></path>
                <path d="M29.4617502,61.6906802 C29.4617502,62.1928688 29.4851167,62.685124 29.5463145,63.0813562 L28.5916283,63.0813562 L28.4948245,62.3484921 L28.4592184,62.3484921 C28.1443278,62.8043248 27.5045322,63.2126979 26.671129,63.2126979 C25.4872291,63.2126979 24.8830395,62.3849145 24.8830395,61.5460941 C24.8830395,60.144381 26.1392642,59.3773018 28.3980206,59.3905463 L28.3980206,59.2691381 C28.3980206,58.7912312 28.2656107,57.9159883 27.0694712,57.9270254 C26.51424,57.9270254 25.9456565,58.0837523 25.5350746,58.3596801 L25.2936214,57.6522013 C25.7765279,57.3530956 26.4897609,57.1478053 27.2263602,57.1478053 C29.0266893,57.1478053 29.4617502,58.3596801 29.4617502,59.5207842 L29.4617502,61.6906802 L29.4617502,61.6906802 Z M28.4224997,60.1200993 C27.2630789,60.0958177 25.9456565,60.301108 25.9456565,61.4268933 C25.9456565,62.1222313 26.4051966,62.4323741 26.9370614,62.4323741 C27.7092668,62.4323741 28.2055256,61.9544672 28.3746542,61.462212 C28.4102602,61.3540484 28.4224997,61.2359513 28.4224997,61.1266839 L28.4224997,60.1200993 L28.4224997,60.1200993 Z" id="Fill-17" fill="#569045"></path>
                <path d="M35.9609603,54.5728473 L35.9609603,61.5836203 C35.9609603,62.0979496 35.9720871,62.685124 36.0088058,63.0813562 L35.0541196,63.0813562 L35.006274,62.073668 L34.9817949,62.073668 C34.6557774,62.7204427 33.954784,63.2126979 33.0012104,63.2126979 C31.5869841,63.2126979 30.4876485,62.0251047 30.4876485,60.2635818 C30.4765216,58.3232577 31.6960275,57.1478053 33.1091412,57.1478053 C34.0159818,57.1478053 34.6190587,57.5683193 34.8738642,58.0241519 L34.8972306,58.0241519 L34.8972306,54.5728473 L35.9609603,54.5728473 L35.9609603,54.5728473 Z M34.8972306,59.6410887 C34.8972306,59.4976063 34.8849911,59.3287385 34.8493851,59.185256 C34.6924961,58.5263405 34.1127857,57.9755887 33.3149884,57.9755887 C32.2156528,57.9755887 31.5636177,58.9347136 31.5636177,60.2039814 C31.5636177,61.3904708 32.1555676,62.3617366 33.2905093,62.3617366 C34.0037422,62.3617366 34.6557774,61.882726 34.8493851,61.1035059 C34.8849911,60.9589198 34.8972306,60.8154373 34.8972306,60.648777 L34.8972306,59.6410887 L34.8972306,59.6410887 Z" id="Fill-18" fill="#569045"></path>
                <path d="M37.86922,57.2802507 L39.0175139,60.5273687 C39.2100089,61.0670835 39.3668979,61.5460941 39.4881809,62.0251047 L39.5248996,62.0251047 C39.6573095,61.5460941 39.826438,61.0670835 40.0200457,60.5273687 L41.1549874,57.2802507 L42.2665626,57.2802507 L39.9710875,63.0813562 L38.9563161,63.0813562 L36.7342784,57.2802507 L37.86922,57.2802507" id="Fill-19" fill="#569045"></path>
                <path d="M43.5227872,56.2140657 C43.124445,56.2140657 42.8585126,55.9028192 42.8585126,55.5319723 C42.8585126,55.1600216 43.1366845,54.8609159 43.5472664,54.8609159 C43.9578482,54.8609159 44.2237806,55.1600216 44.2237806,55.5319723 C44.2237806,55.9028192 43.9578482,56.2140657 43.5350268,56.2140657 L43.5227872,56.2140657 L43.5227872,56.2140657 Z M43.0154016,57.2802507 L44.0780185,57.2802507 L44.0780185,63.0802525 L43.0154016,63.0802525 L43.0154016,57.2802507 Z" id="Fill-20" fill="#569045"></path>
                <path d="M45.4432866,62.0140676 C45.7693041,62.2061133 46.3256481,62.421337 46.8564002,62.421337 C47.6174787,62.421337 47.980215,62.0493864 47.980215,61.5593386 C47.980215,61.0549426 47.6786765,60.7801186 46.9053585,60.49205 C45.8427415,60.1090622 45.3464827,59.5450659 45.3464827,58.8497279 C45.3464827,57.9159883 46.1198008,57.1478053 47.3648986,57.1478053 C47.9568485,57.1478053 48.4753611,57.305636 48.7902518,57.5076151 L48.5354462,58.2636573 C48.3062325,58.1312119 47.8834111,57.9270254 47.3404194,57.9270254 C46.7117508,57.9270254 46.3734936,58.2879389 46.3734936,58.7194899 C46.3734936,59.2095377 46.7117508,59.4247613 47.4728293,59.7139336 C48.4753611,60.0847806 49.0072259,60.5869691 49.0072259,61.462212 C49.0072259,62.4941819 48.1983018,63.2126979 46.8330337,63.2126979 C46.1921255,63.2126979 45.6001755,63.0438301 45.1895937,62.8043248 L45.4432866,62.0140676" id="Fill-21" fill="#569045"></path>
                <path d="M52.4988405,63.2126979 C50.9277252,63.2126979 49.6959797,62.0615272 49.6959797,60.228263 C49.6959797,58.2879389 50.9878104,57.1478053 52.5945317,57.1478053 C54.2735777,57.1478053 55.4096321,58.3596801 55.4096321,60.1200993 C55.4096321,62.2778546 53.8997146,63.2126979 52.5099674,63.2126979 L52.4988405,63.2126979 L52.4988405,63.2126979 Z M52.5344465,62.421337 C53.5492179,62.421337 54.3102964,61.4754566 54.3102964,60.1554181 C54.3102964,59.1742189 53.8151503,57.9402699 52.5589257,57.9402699 C51.3138279,57.9402699 50.7708362,59.0903369 50.7708362,60.1929443 C50.7708362,61.462212 51.495196,62.421337 52.522207,62.421337 L52.5344465,62.421337 L52.5344465,62.421337 Z" id="Fill-22" fill="#569045"></path>
                <path d="M56.5089677,59.0903369 C56.5089677,58.4071397 56.4967282,57.8188617 56.4611221,57.2802507 L57.3902165,57.2802507 L57.4391748,58.4181768 L57.4747808,58.4181768 C57.7407132,57.6400605 58.3927483,57.1478053 59.1059813,57.1478053 C59.2150247,57.1478053 59.299589,57.1599461 59.3963928,57.1842278 L59.3963928,58.1665307 C59.2751098,58.1543899 59.1660664,58.1444565 59.021417,58.1444565 C58.2725781,58.1444565 57.7407132,58.7062454 57.5960638,59.4843617 C57.5715847,59.6410887 57.5593451,59.8088528 57.5593451,59.987654 L57.5593451,63.0813562 L56.4967282,63.0813562 L56.5089677,59.0903369" id="Fill-23" fill="#569045"></path>
                <path d="M60.9975507,57.2018872 C61.0865658,57.1842278 61.2156375,57.1731907 61.3647377,57.1731907 C61.5449932,57.1731907 61.6718396,57.2018872 61.7586292,57.2747321 C61.8320666,57.3321251 61.8721234,57.420422 61.8721234,57.5352079 C61.8721234,57.6919349 61.7619673,57.8012023 61.6573746,57.8398322 L61.6573746,57.8453507 C61.7419389,57.8795658 61.7886718,57.9612404 61.8198271,58.0749227 C61.8576585,58.2173014 61.8932645,58.3817543 61.9177436,58.4292139 L61.6351209,58.4292139 C61.6173179,58.3927915 61.5861626,58.29125 61.5516693,58.1389379 C61.5182887,57.9822109 61.4648796,57.9402699 61.3513855,57.9402699 L61.2701593,57.9402699 L61.2701593,58.4292139 L60.9975507,58.4292139 L60.9975507,57.2018872 L60.9975507,57.2018872 Z M61.2701593,57.7360833 L61.3792027,57.7360833 C61.5160633,57.7360833 61.5972895,57.6654458 61.5972895,57.5561784 C61.5972895,57.4447036 61.5216267,57.3839995 61.3947803,57.3839995 C61.328019,57.3839995 61.2901876,57.3884143 61.2701593,57.3939329 L61.2701593,57.7360833 L61.2701593,57.7360833 Z" id="Fill-24" fill="#569045"></path>
                <path d="M60.1986408,57.8497656 C60.1986408,58.5307553 60.7572101,59.0848183 61.4437386,59.0848183 C62.130267,59.0848183 62.689949,58.5307553 62.689949,57.8497656 C62.689949,57.1687758 62.130267,56.6136091 61.4437386,56.6136091 C60.7572101,56.6136091 60.1986408,57.1687758 60.1986408,57.8497656 L60.1986408,57.8497656 Z M60.4667986,57.8497656 C60.4667986,57.3144657 60.9051976,56.8796035 61.4437386,56.8796035 C61.9822795,56.8796035 62.4206785,57.3144657 62.4206785,57.8497656 C62.4206785,58.3828581 61.9822795,58.8188239 61.4437386,58.8188239 C60.9051976,58.8188239 60.4667986,58.3828581 60.4667986,57.8497656 L60.4667986,57.8497656 Z" id="Fill-25" fill="#569045"></path>
                <path d="M54.1778866,19.853407 C54.2535494,19.8401624 54.3637055,19.8313328 54.4894392,19.8313328 C54.6429901,19.8313328 54.7509208,19.853407 54.8243582,19.9152148 C54.8877815,19.9648818 54.9211621,20.0388304 54.9211621,20.1370607 C54.9211621,20.2706098 54.8276963,20.3622178 54.7386813,20.3953291 L54.7386813,20.399744 C54.811006,20.4295442 54.8510628,20.5001817 54.8766546,20.5962045 C54.9089225,20.7176128 54.9400778,20.8566804 54.9601062,20.8975177 L54.7197656,20.8975177 C54.7053006,20.8666138 54.6785961,20.7805243 54.6496662,20.6502864 C54.6207364,20.5178411 54.5751162,20.4814186 54.479425,20.4814186 L54.4093257,20.4814186 L54.4093257,20.8975177 L54.1778866,20.8975177 L54.1778866,19.853407 L54.1778866,19.853407 Z M54.4093257,20.3081359 L54.5016788,20.3081359 C54.618511,20.3081359 54.6874976,20.2474318 54.6874976,20.1547201 C54.6874976,20.0586972 54.6229617,20.0101339 54.5161437,20.0101339 C54.4593966,20.0101339 54.4271287,20.0134451 54.4093257,20.0167562 L54.4093257,20.3081359 L54.4093257,20.3081359 Z" id="Fill-26" fill="#559046"></path>
                <path d="M53.499147,20.4052625 C53.499147,20.9825034 53.9742647,21.4537881 54.5573132,21.4537881 C55.1414743,21.4537881 55.616592,20.9825034 55.616592,20.4052625 C55.616592,19.8247105 55.1414743,19.3545296 54.5573132,19.3545296 C53.9742647,19.3545296 53.499147,19.8247105 53.499147,20.4052625 L53.499147,20.4052625 Z M53.727248,20.4052625 C53.727248,19.9494298 54.0988857,19.581894 54.5573132,19.581894 C55.0157406,19.581894 55.3873783,19.9494298 55.3873783,20.4052625 C55.3873783,20.8577841 55.0157406,21.2275273 54.5573132,21.2275273 C54.0988857,21.2275273 53.727248,20.8577841 53.727248,20.4052625 L53.727248,20.4052625 Z" id="Fill-27" fill="#559046"></path>
                <path d="M54.1778866,33.0946291 C54.2535494,33.0824883 54.3637055,33.0725549 54.4894392,33.0725549 C54.6429901,33.0725549 54.7509208,33.0946291 54.8243582,33.1575407 C54.8877815,33.2072077 54.9211621,33.2811563 54.9211621,33.3782829 C54.9211621,33.5118319 54.8276963,33.6045437 54.7386813,33.637655 L54.7386813,33.6420698 C54.811006,33.67187 54.8510628,33.7403001 54.8766546,33.8374267 C54.9089225,33.9588349 54.9400778,34.0967988 54.9601062,34.1387398 L54.7197656,34.1387398 C54.7053006,34.1089396 54.6785961,34.0217465 54.6496662,33.8926123 C54.6207364,33.7590632 54.5751162,33.7248482 54.479425,33.721537 L54.4093257,33.721537 L54.4093257,34.1387398 L54.1778866,34.1387398 L54.1778866,33.0946291 L54.1778866,33.0946291 Z M54.4093257,33.5493581 L54.5016788,33.5493581 C54.618511,33.5493581 54.6874976,33.4897577 54.6874976,33.397046 C54.6874976,33.3021268 54.6229617,33.2502524 54.5161437,33.2502524 C54.4593966,33.2502524 54.4271287,33.2546672 54.4093257,33.2579784 L54.4093257,33.5493581 L54.4093257,33.5493581 Z" id="Fill-28" fill="#1A1918"></path>
                <path d="M53.499147,33.6464847 C53.499147,34.2248293 53.9742647,34.696114 54.5573132,34.696114 C55.1414743,34.696114 55.616592,34.2248293 55.616592,33.6464847 C55.616592,33.0670364 55.1414743,32.5957517 54.5573132,32.5957517 C53.9742647,32.5957517 53.499147,33.0670364 53.499147,33.6464847 L53.499147,33.6464847 Z M53.727248,33.6464847 C53.727248,33.1917557 54.0988857,32.8220125 54.5573132,32.8220125 C55.0157406,32.8220125 55.3873783,33.1917557 55.3873783,33.6464847 C55.3873783,34.1012137 55.0157406,34.4687495 54.5573132,34.4687495 C54.0988857,34.4687495 53.727248,34.1012137 53.727248,33.6464847 L53.727248,33.6464847 Z" id="Fill-29" fill="#1A1918"></path>
                <path d="M16.8794755,14.4386003 L15.5631657,14.4386003 L15.5631657,13.5203126 L19.3084731,13.5203126 L19.3084731,14.4386003 L17.9788111,14.4386003 L17.9788111,18.3545673 L16.8794755,18.3545673 L16.8794755,14.4386003" id="Fill-34" fill="#559046"></path>
                <path d="M19.9950016,13.5920539 C20.3488363,13.5269349 20.8695743,13.4838902 21.4626369,13.4838902 C22.1858841,13.4838902 22.692157,13.5920539 23.038203,13.8712928 C23.3352907,14.1008647 23.494405,14.4386003 23.494405,14.8822921 C23.494405,15.4926444 23.0526679,15.9164694 22.6331846,16.0665742 L22.6331846,16.0875447 C22.9736671,16.2233011 23.1617113,16.5389625 23.284107,16.9848618 C23.4365453,17.5367174 23.5811947,18.1669364 23.6746605,18.3545673 L22.5463949,18.3545673 C22.4751829,18.2099811 22.3516746,17.8225785 22.2148139,17.2265745 C22.0768406,16.6184297 21.8676553,16.460599 21.4114533,16.4539768 L21.0865484,16.4539768 L21.0865484,18.3545673 L19.9950016,18.3545673 L19.9950016,13.5920539 L19.9950016,13.5920539 Z M21.0865484,15.6648233 L21.5204967,15.6648233 C22.0701645,15.6648233 22.3950694,15.391103 22.3950694,14.9683816 C22.3950694,14.5302083 22.0913056,14.3017401 21.5850326,14.3017401 C21.3179875,14.3017401 21.1666619,14.3171921 21.0865484,14.3370589 L21.0865484,15.6648233 L21.0865484,15.6648233 Z" id="Fill-35" fill="#559046"></path>
                <path d="M25.5751314,17.1128923 L25.2357616,18.3545673 L24.0930311,18.3545673 L25.5829202,13.5203126 L27.0216257,13.5203126 L28.539332,18.3545673 L27.3543194,18.3545673 L26.9782308,17.1128923 L25.5751314,17.1128923 L25.5751314,17.1128923 Z M26.8113277,16.2961461 L26.5086765,15.2696947 C26.428563,14.9827299 26.3417734,14.6162978 26.2694486,14.3370589 L26.2483076,14.3370589 C26.182659,14.6240237 26.1036582,14.9893521 26.0313334,15.2696947 L25.7342458,16.2961461 L26.8113277,16.2961461 L26.8113277,16.2961461 Z" id="Fill-36" fill="#559046"></path>
                <path d="M30.0136434,18.3545673 L28.4525423,13.5203126 L29.6598087,13.5203126 L30.2528713,15.5632819 C30.4186618,16.1449376 30.5711001,16.6890672 30.6868196,17.2916935 L30.7079607,17.2916935 C30.831469,16.7111414 30.9827946,16.1372117 31.1496978,15.5853561 L31.7705776,13.5203126 L32.942238,13.5203126 L31.3010233,18.3545673 L30.0136434,18.3545673" id="Fill-37" fill="#559046"></path>
                <path d="M36.4627825,16.3093906 L34.6691296,16.3093906 L34.6691296,17.4561464 L36.6719678,17.4561464 L36.6719678,18.3545673 L33.5709067,18.3545673 L33.5709067,13.5203126 L36.5707132,13.5203126 L36.5707132,14.4154223 L34.6691296,14.4154223 L34.6691296,15.4197995 L36.4627825,15.4197995 L36.4627825,16.3093906" id="Fill-38" fill="#559046"></path>
                <path d="M37.5320756,13.5203126 L38.6314112,13.5203126 L38.6314112,17.4362796 L40.5686009,17.4362796 L40.5686009,18.3545673 L37.5320756,18.3545673 L37.5320756,13.5203126" id="Fill-39" fill="#559046"></path>
                <path d="M44.2193299,16.3093906 L42.425677,16.3093906 L42.425677,17.4561464 L44.4285152,17.4561464 L44.4285152,18.3545673 L41.327454,18.3545673 L41.327454,13.5203126 L44.3272606,13.5203126 L44.3272606,14.4154223 L42.425677,14.4154223 L42.425677,15.4197995 L44.2193299,15.4197995 L44.2193299,16.3093906" id="Fill-40" fill="#559046"></path>
                <path d="M45.2808341,13.5920539 C45.6357816,13.5269349 46.1565195,13.4838902 46.7495822,13.4838902 C47.4717166,13.4838902 47.9779896,13.5920539 48.3251482,13.8712928 C48.6211232,14.1008647 48.7802376,14.4386003 48.7802376,14.8822921 C48.7802376,15.4926444 48.3396132,15.9164694 47.9201298,16.0665742 L47.9201298,16.0875447 C48.2594996,16.2233011 48.4475439,16.5389625 48.5710522,16.9848618 C48.7223778,17.5367174 48.8670272,18.1669364 48.9616057,18.3545673 L47.8333402,18.3545673 C47.7610155,18.2099811 47.6386198,17.8225785 47.5006465,17.2265745 C47.3637859,16.6184297 47.1534879,16.460599 46.6983985,16.4539768 L46.372381,16.4539768 L46.372381,18.3545673 L45.2808341,18.3545673 L45.2808341,13.5920539 L45.2808341,13.5920539 Z M46.372381,15.6648233 L46.8063292,15.6648233 C47.3559971,15.6648233 47.6820146,15.391103 47.6820146,14.9683816 C47.6820146,14.5302083 47.3782508,14.3017401 46.8719778,14.3017401 C46.60382,14.3017401 46.4524945,14.3171921 46.372381,14.3370589 L46.372381,15.6648233 L46.372381,15.6648233 Z" id="Fill-41" fill="#559046"></path>
                <path d="M49.7048812,17.2265745 C49.9941801,17.3788867 50.4570582,17.5289914 50.9266125,17.5289914 C51.4328855,17.5289914 51.7010433,17.3214937 51.7010433,17.0047286 C51.7010433,16.7034155 51.4696042,16.5323402 50.8832177,16.3303611 C50.0742936,16.0433962 49.5390907,15.5997044 49.5390907,14.8977441 C49.5390907,14.0732719 50.2400841,13.4485714 51.3828146,13.4485714 C51.9391585,13.4485714 52.3363881,13.5567351 52.625687,13.6924916 L52.3797829,14.5666308 C52.1917387,14.4728153 51.8379039,14.3370589 51.3683496,14.3370589 C50.8910065,14.3370589 50.6595674,14.5589048 50.6595674,14.8039287 C50.6595674,15.1129678 50.9266125,15.2476205 51.56307,15.4849184 C52.4231778,15.8005798 52.82152,16.2453754 52.82152,16.9274688 C52.82152,17.7364891 52.1995275,18.4263085 50.8620766,18.4263085 C50.3057327,18.4263085 49.7560649,18.2751001 49.4812309,18.1249954 L49.7048812,17.2265745" id="Fill-42" fill="#559046"></path>
                <path d="M54.8165694,13.3911784 C54.5918065,14.0854127 54.2813666,14.7895804 53.9486729,15.3270877 L53.2832855,15.391103 C53.5002596,14.7741285 53.6883039,14.0854127 53.7895585,13.4562974 L54.8165694,13.3911784" id="Fill-43" fill="#559046"></path>
                <path d="M21.8320493,27.4127244 C21.5249474,27.5595179 20.7961369,27.7383191 19.8737186,27.7383191 C17.219958,27.7383191 15.8535772,26.0904784 15.8535772,23.9205824 C15.8535772,21.335691 17.7206675,19.9008666 20.0439598,19.9008666 C20.9441244,19.9008666 21.6273147,20.0818752 21.9344166,20.2286687 L21.5705676,21.5950631 C21.2289725,21.4471658 20.7393898,21.3125131 20.1129465,21.3125131 C18.7465658,21.3125131 17.67616,22.1369853 17.67616,23.8300781 C17.67616,25.3443697 18.5863387,26.3045984 20.1240734,26.3045984 C20.6592763,26.3045984 21.2289725,26.203057 21.5816945,26.0562634 L21.8320493,27.4127244" id="Fill-44" fill="#559046"></path>
                <path d="M24.4969368,20.0134451 L24.4969368,22.9504203 L27.3543194,22.9504203 L27.3543194,20.0134451 L29.0856617,20.0134451 L29.0856617,27.6268443 L27.3543194,27.6268443 L27.3543194,24.4514674 L24.4969368,24.4514674 L24.4969368,27.6268443 L22.7655944,27.6268443 L22.7655944,20.0134451 L24.4969368,20.0134451" id="Fill-45" fill="#559046"></path>
                <path d="M33.6287664,27.75046 C31.3633339,27.75046 30.0192069,26.0452263 30.0192069,23.876434 C30.0192069,21.5950631 31.5001945,19.8887257 33.7545002,19.8887257 C36.1111731,19.8887257 37.398553,21.6403153 37.398553,23.7395738 C37.398553,26.2472054 35.8841848,27.75046 33.641006,27.75046 L33.6287664,27.75046 L33.6287664,27.75046 Z M33.7200068,26.3840656 C34.8938926,26.3840656 35.5648434,25.2880805 35.5648434,23.7969668 C35.5648434,22.4305724 34.9161463,21.2551201 33.7200068,21.2551201 C32.52498,21.2551201 31.8529165,22.4073945 31.8529165,23.8300781 C31.8529165,25.2660062 32.5472338,26.3840656 33.70888,26.3840656 L33.7200068,26.3840656 L33.7200068,26.3840656 Z" id="Fill-46" fill="#559046"></path>
                <path d="M38.3209713,20.0134451 L40.0523137,20.0134451 L40.0523137,27.6268443 L38.3209713,27.6268443 L38.3209713,20.0134451 Z" id="Fill-47" fill="#559046"></path>
                <path d="M46.9520913,27.4127244 C46.6449895,27.5595179 45.9161789,27.7383191 44.9937606,27.7383191 C42.3411127,27.7383191 40.9736193,26.0904784 40.9736193,23.9205824 C40.9736193,21.335691 42.8418222,19.9008666 45.1640019,19.9008666 C46.0641664,19.9008666 46.7473568,20.0818752 47.0544586,20.2286687 L46.6906097,21.5950631 C46.3490145,21.4471658 45.8594318,21.3125131 45.2329885,21.3125131 C43.8666078,21.3125131 42.796202,22.1369853 42.796202,23.8300781 C42.796202,25.3443697 43.7074934,26.3045984 45.2441154,26.3045984 C45.7793183,26.3045984 46.3490145,26.203057 46.7017366,26.0562634 L46.9520913,27.4127244" id="Fill-48" fill="#559046"></path>
                <path d="M52.4409808,24.4062153 L49.6169789,24.4062153 L49.6169789,26.2140941 L52.7714491,26.2140941 L52.7714491,27.6268443 L47.8856365,27.6268443 L47.8856365,20.0134451 L52.6123347,20.0134451 L52.6123347,21.4239879 L49.6169789,21.4239879 L49.6169789,23.0067096 L52.4409808,23.0067096 L52.4409808,24.4062153" id="Fill-49" fill="#559046"></path>
                <path d="M25.0866614,41.5291894 C25.0866614,42.3117206 25.7253443,42.9452508 26.5131273,42.9452508 C27.3009103,42.9452508 27.9395932,42.3117206 27.9395932,41.5291894 C27.9395932,40.747762 27.3009103,40.1142318 26.5131273,40.1142318 C25.7253443,40.1142318 25.0866614,40.747762 25.0866614,41.5291894" id="Fill-50" fill="#D9262C"></path>
                <path d="M42.2643372,41.5291894 C42.2643372,42.3117206 42.9030201,42.9452508 43.6908031,42.9452508 C44.4785861,42.9452508 45.117269,42.3117206 45.117269,41.5291894 C45.117269,40.747762 44.4785861,40.1142318 43.6908031,40.1142318 C42.9030201,40.1142318 42.2643372,40.747762 42.2643372,41.5291894" id="Fill-51" fill="#0D9E4D"></path>
                <path d="M23.5355745,38.5745548 C22.7400026,39.3637082 22.3016036,40.4144412 22.3016036,41.5291894 C22.3016036,42.6461451 22.7400026,43.6946706 23.5355745,44.4838241 C24.3300336,45.2718738 25.3881998,45.7078397 26.5131273,45.7078397 C28.8353069,45.7078397 30.724651,43.8337382 30.724651,41.5291894 C30.724651,39.2257443 28.8353069,37.3516429 26.5131273,37.3516429 C25.3881998,37.3516429 24.3300336,37.7865051 23.5355745,38.5745548 L23.5355745,38.5745548 Z M24.4479786,43.5776772 C23.8960854,43.0313402 23.5923216,42.3028909 23.5923216,41.5291894 C23.5923216,40.7565917 23.8960854,40.0281423 24.4479786,39.4818053 C24.9998718,38.9343646 25.7331331,38.6319478 26.5131273,38.6319478 C28.1231867,38.6319478 29.433933,39.9310157 29.433933,41.5291894 C29.433933,43.1262594 28.1231867,44.4264311 26.5131273,44.4264311 C25.7331331,44.4264311 24.9998718,44.125118 24.4479786,43.5776772 L24.4479786,43.5776772 Z" id="Fill-52" fill="#1A1918"></path>
                <path d="M40.7121376,38.5745548 C39.9165658,39.3637082 39.4792794,40.4144412 39.4792794,41.5291894 C39.4792794,42.6461451 39.9165658,43.6946706 40.7121376,44.4838241 C41.5077095,45.2718738 42.5658756,45.7078397 43.6908031,45.7078397 C46.0129828,45.7078397 47.9023268,43.8337382 47.9023268,41.5291894 C47.9023268,39.2257443 46.0129828,37.3516429 43.6908031,37.3516429 C42.5658756,37.3516429 41.5077095,37.7865051 40.7121376,38.5745548 L40.7121376,38.5745548 Z M41.6256544,43.5776772 C41.0737612,43.0313402 40.7699974,42.3028909 40.7699974,41.5291894 C40.7699974,40.7565917 41.0737612,40.0281423 41.6256544,39.4818053 C42.1764349,38.9343646 42.9096962,38.6319478 43.6908031,38.6319478 C45.3008625,38.6319478 46.6116089,39.9310157 46.6116089,41.5291894 C46.6116089,43.1262594 45.3008625,44.4264311 43.6908031,44.4264311 C42.9096962,44.4264311 42.1764349,44.125118 41.6256544,43.5776772 L41.6256544,43.5776772 Z" id="Fill-53" fill="#1A1918"></path>
                <path d="M50.4770866,36.0360192 C50.8075549,35.0603386 51.3127152,33.9102716 52.0114832,33.2160374 L46.2555487,33.2160374 C46.1598576,33.1884446 46.0608283,33.1674741 45.9640245,33.1420887 C45.6513592,32.6553521 43.5105477,29.9148374 34.952865,29.9148374 C25.5617791,29.9148374 23.8983107,33.2160374 23.8983107,33.2160374 L17.8942468,33.2160374 C18.6608888,33.9764943 19.1927536,35.284392 19.5187712,36.311947 C18.4116467,37.7655345 17.747372,39.5712059 17.747372,41.5291894 C17.747372,46.3237105 21.6796111,50.2242255 26.5131273,50.2242255 C29.1924798,50.2242255 31.5914349,49.0222841 33.2003816,47.1371456 L35.1909802,49.9008382 L36.9078577,47.0300856 C38.5168044,48.9781357 40.9591543,50.2242255 43.6908031,50.2242255 C48.5232067,50.2242255 52.4554457,46.3237105 52.4554457,41.5291894 C52.4554457,39.4475903 51.7121702,37.5348589 50.4770866,36.0360192 L50.4770866,36.0360192 Z M26.5131273,48.5167845 C22.6287338,48.5167845 19.4687002,45.3833486 19.4687002,41.5291894 C19.4687002,37.6772377 22.6287338,34.5415944 26.5131273,34.5415944 C30.3975208,34.5415944 33.5575544,37.6772377 33.5575544,41.5291894 C33.5575544,45.3833486 30.3975208,48.5167845 26.5131273,48.5167845 L26.5131273,48.5167845 Z M43.6908031,48.5167845 C39.8064096,48.5167845 36.6452633,45.3833486 36.6452633,41.5291894 C36.6452633,37.6772377 39.8064096,34.5415944 43.6908031,34.5415944 C47.5751966,34.5415944 50.7352302,37.6772377 50.7352302,41.5291894 C50.7352302,45.3833486 47.5751966,48.5167845 43.6908031,48.5167845 L43.6908031,48.5167845 Z" id="Fill-54" fill="#1A1918"></path>
                <path d="M35.4880679,30.9170071 C41.4910191,30.9170071 43.7497756,33.3926311 43.7497756,33.3926311 C43.7497756,33.3926311 37.3306791,32.3319648 35.1909802,40.1727285 C33.0512814,32.3319648 26.6321849,33.3926311 26.6321849,33.3926311 C26.6321849,33.3926311 28.8909413,30.9170071 34.8938926,30.9170071 L35.4880679,30.9170071" id="Fill-55" fill="#FDDC9B"></path>
                <path d="M35.4880679,30.9170071 C41.4910191,30.9170071 43.7497756,33.3926311 43.7497756,33.3926311 C43.7497756,33.3926311 37.3306791,32.3319648 35.1909802,40.1727285 C33.0512814,32.3319648 26.6321849,33.3926311 26.6321849,33.3926311 C26.6321849,33.3926311 28.8909413,30.9170071 34.8938926,30.9170071 L35.4880679,30.9170071 L35.4880679,30.9170071 Z" id="Stroke-56" stroke="#1A1918" stroke-width="0.5"></path>
            </g>
            <g id="Page-1" transform="translate(37.000000, 18.000000)" fill="#1D1919">
                <path d="M2.85096774,4.67221667 L2.85096774,4.21110556 L0.894193548,4.21110556 L0.894193548,4.19443889 L1.26580645,3.84443889 C2.25290323,2.88332778 2.73483871,2.17777222 2.73483871,1.30555 C2.73483871,0.627772222 2.40967742,-5.55555562e-06 1.4516129,-5.55555562e-06 C0.911612903,-5.55555562e-06 0.441290323,0.183327778 0.121935484,0.416661111 L0.32516129,0.861105556 C0.54,0.677772222 0.894193548,0.461105556 1.32387097,0.461105556 C2.02645161,0.461105556 2.24709677,0.90555 2.24709677,1.38332778 C2.24709677,2.09999444 1.70129032,2.71110556 0.499354839,3.86110556 L0,4.33332778 L0,4.67221667 L2.85096774,4.67221667 Z" id="Fill-1"></path>
                <path d="M6.34645161,4.67221667 C7.45548387,4.67221667 7.9083871,3.83332778 7.9083871,2.28888333 C7.9083871,0.838883333 7.47870968,-5.55555562e-06 6.42193548,-5.55555562e-06 C5.37677419,-5.55555562e-06 4.84258065,0.816661111 4.84258065,2.34999444 C4.85419355,3.85555 5.32451613,4.67221667 6.33483871,4.67221667 L6.34645161,4.67221667 Z M6.36967742,4.21110556 C5.72516129,4.21110556 5.31290323,3.49999444 5.32451613,2.31666111 C5.32451613,1.17777222 5.74258065,0.461105556 6.37548387,0.461105556 C7.10709677,0.461105556 7.42645161,1.19443889 7.42645161,2.31666111 C7.42645161,3.47777222 7.08387097,4.21110556 6.37548387,4.21110556 L6.36967742,4.21110556 Z" id="Fill-3"></path>
                <path d="M11.3109677,4.65555 L11.7929032,4.65555 L11.7929032,0.0166611111 L11.3690323,0.0166611111 L10.3587097,0.427772222 L10.4806452,0.911105556 L11.2935484,0.461105556 L11.3109677,0.461105556 L11.3109677,4.65555 Z" id="Fill-5"></path>
                <path d="M17.2277419,4.65555 L17.2277419,3.41110556 L17.8896774,3.41110556 L17.8896774,2.94999444 L17.2277419,2.94999444 L17.2277419,-5.55555562e-06 L16.6587097,-5.55555562e-06 L14.6787097,3.02777222 L14.6787097,3.41110556 L16.7458065,3.41110556 L16.7458065,4.65555 L17.2277419,4.65555 Z M15.1664516,2.94999444 L15.1664516,2.93332778 L16.3451613,1.21110556 C16.4787097,0.977772222 16.5948387,0.75555 16.7458065,0.461105556 L16.7632258,0.461105556 C16.7516129,0.727772222 16.7458065,0.994438889 16.7458065,1.25555 L16.7458065,2.94999444 L15.1664516,2.94999444 Z" id="Fill-7"></path>
            </g>
        </g>
    </g>
</svg>